<svg width="600" height="400" xmlns="http://www.w3.org/2000/svg"><path d="M274,190L333,135L271,131Z" fill="rgb(170,170,170)" stroke="rgb(170,170,170)" stroke-width="1.51"></path><path d="M274,190L331,212L333,135Z" fill="rgb(155,155,155)" stroke="rgb(155,155,155)" stroke-width="1.51"></path><path d="M333,135L324,55L271,131Z" fill="rgb(179,179,179)" stroke="rgb(179,179,179)" stroke-width="1.51"></path><path d="M331,212L407,196L333,135Z" fill="rgb(144,144,144)" stroke="rgb(144,144,144)" stroke-width="1.51"></path><path d="M278,275L342,259L331,212Z" fill="rgb(129,129,129)" stroke="rgb(129,129,129)" stroke-width="1.51"></path><path d="M342,259L407,196L331,212Z" fill="rgb(128,128,128)" stroke="rgb(128,128,128)" stroke-width="1.51"></path><path d="M333,135L423,116L324,55Z" fill="rgb(168,168,168)" stroke="rgb(168,168,168)" stroke-width="1.51"></path><path d="M187,141L194,200L274,190Z" fill="rgb(179,179,179)" stroke="rgb(179,179,179)" stroke-width="1.51"></path><path d="M274,190L278,275L331,212Z" fill="rgb(142,142,142)" stroke="rgb(142,142,142)" stroke-width="1.51"></path><path d="M187,141L274,190L271,131Z" fill="rgb(182,182,182)" stroke="rgb(182,182,182)" stroke-width="1.51"></path><path d="M195,57L187,141L271,131Z" fill="rgb(202,202,202)" stroke="rgb(202,202,202)" stroke-width="1.51"></path><path d="M192,264L278,275L274,190Z" fill="rgb(148,148,148)" stroke="rgb(148,148,148)" stroke-width="1.51"></path><path d="M407,196L423,116L333,135Z" fill="rgb(148,148,148)" stroke="rgb(148,148,148)" stroke-width="1.51"></path><path d="M324,55L246,32L271,131Z" fill="rgb(194,194,194)" stroke="rgb(194,194,194)" stroke-width="1.51"></path><path d="M246,32L195,57L271,131Z" fill="rgb(205,205,205)" stroke="rgb(205,205,205)" stroke-width="1.51"></path><path d="M194,200L192,264L274,190Z" fill="rgb(164,164,164)" stroke="rgb(164,164,164)" stroke-width="1.51"></path><path d="M124,191L192,264L194,200Z" fill="rgb(172,172,172)" stroke="rgb(172,172,172)" stroke-width="1.51"></path><path d="M423,116L408,41L324,55Z" fill="rgb(168,168,168)" stroke="rgb(168,168,168)" stroke-width="1.51"></path><path d="M324,55L255,-23L246,32Z" fill="rgb(205,205,205)" stroke="rgb(205,205,205)" stroke-width="1.51"></path><path d="M487,196L475,116L423,116Z" fill="rgb(132,132,132)" stroke="rgb(132,132,132)" stroke-width="1.51"></path><path d="M342,259L411,282L407,196Z" fill="rgb(114,114,114)" stroke="rgb(114,114,114)" stroke-width="1.51"></path><path d="M340,356L411,282L342,259Z" fill="rgb(101,101,101)" stroke="rgb(101,101,101)" stroke-width="1.51"></path><path d="M187,141L124,191L194,200Z" fill="rgb(188,188,188)" stroke="rgb(188,188,188)" stroke-width="1.51"></path><path d="M123,124L124,191L187,141Z" fill="rgb(203,203,203)" stroke="rgb(203,203,203)" stroke-width="1.51"></path><path d="M423,116L475,116L408,41Z" fill="rgb(152,152,152)" stroke="rgb(152,152,152)" stroke-width="1.51"></path><path d="M487,196L423,116L407,196Z" fill="rgb(129,129,129)" stroke="rgb(129,129,129)" stroke-width="1.51"></path><path d="M195,57L123,124L187,141Z" fill="rgb(211,211,211)" stroke="rgb(211,211,211)" stroke-width="1.51"></path><path d="M332,-41L255,-23L324,55Z" fill="rgb(200,200,200)" stroke="rgb(200,200,200)" stroke-width="1.51"></path><path d="M246,32L174,-38L195,57Z" fill="rgb(223,223,223)" stroke="rgb(223,223,223)" stroke-width="1.51"></path><path d="M195,57L109,48L123,124Z" fill="rgb(223,223,223)" stroke="rgb(223,223,223)" stroke-width="1.51"></path><path d="M493,258L487,196L407,196Z" fill="rgb(105,105,105)" stroke="rgb(105,105,105)" stroke-width="1.51"></path><path d="M278,275L340,356L342,259Z" fill="rgb(112,112,112)" stroke="rgb(112,112,112)" stroke-width="1.51"></path><path d="M192,264L280,349L278,275Z" fill="rgb(129,129,129)" stroke="rgb(129,129,129)" stroke-width="1.51"></path><path d="M280,349L340,356L278,275Z" fill="rgb(102,102,102)" stroke="rgb(102,102,102)" stroke-width="1.51"></path><path d="M410,-16L332,-41L324,55Z" fill="rgb(187,187,187)" stroke="rgb(187,187,187)" stroke-width="1.51"></path><path d="M492,37L410,-16L408,41Z" fill="rgb(165,165,165)" stroke="rgb(165,165,165)" stroke-width="1.51"></path><path d="M408,41L410,-16L324,55Z" fill="rgb(177,177,177)" stroke="rgb(177,177,177)" stroke-width="1.51"></path><path d="M124,191L113,264L192,264Z" fill="rgb(169,169,169)" stroke="rgb(169,169,169)" stroke-width="1.51"></path><path d="M192,264L190,365L280,349Z" fill="rgb(121,121,121)" stroke="rgb(121,121,121)" stroke-width="1.51"></path><path d="M28,206L113,264L124,191Z" fill="rgb(185,185,185)" stroke="rgb(185,185,185)" stroke-width="1.51"></path><path d="M411,282L493,258L407,196Z" fill="rgb(103,103,103)" stroke="rgb(103,103,103)" stroke-width="1.51"></path><path d="M493,346L493,258L411,282Z" fill="rgb(78,78,78)" stroke="rgb(78,78,78)" stroke-width="1.51"></path><path d="M174,-38L109,48L195,57Z" fill="rgb(230,230,230)" stroke="rgb(230,230,230)" stroke-width="1.51"></path><path d="M123,124L45,116L124,191Z" fill="rgb(213,213,213)" stroke="rgb(213,213,213)" stroke-width="1.51"></path><path d="M475,116L492,37L408,41Z" fill="rgb(151,151,151)" stroke="rgb(151,151,151)" stroke-width="1.51"></path><path d="M565,31L492,37L475,116Z" fill="rgb(134,134,134)" stroke="rgb(134,134,134)" stroke-width="1.51"></path><path d="M578,134L475,116L487,196Z" fill="rgb(113,113,113)" stroke="rgb(113,113,113)" stroke-width="1.51"></path><path d="M99,340L190,365L192,264Z" fill="rgb(133,133,133)" stroke="rgb(133,133,133)" stroke-width="1.51"></path><path d="M280,349L320,407L340,356Z" fill="rgb(81,81,81)" stroke="rgb(81,81,81)" stroke-width="1.51"></path><path d="M192,-113L174,-38L255,-23Z" fill="rgb(225,225,225)" stroke="rgb(225,225,225)" stroke-width="1.51"></path><path d="M255,-23L174,-38L246,32Z" fill="rgb(222,222,222)" stroke="rgb(222,222,222)" stroke-width="1.51"></path><path d="M340,356L423,365L411,282Z" fill="rgb(78,78,78)" stroke="rgb(78,78,78)" stroke-width="1.51"></path><path d="M429,417L423,365L340,356Z" fill="rgb(60,60,60)" stroke="rgb(60,60,60)" stroke-width="1.51"></path><path d="M279,416L320,407L280,349Z" fill="rgb(78,78,78)" stroke="rgb(78,78,78)" stroke-width="1.51"></path><path d="M493,258L550,207L487,196Z" fill="rgb(89,89,89)" stroke="rgb(89,89,89)" stroke-width="1.51"></path><path d="M545,271L550,207L493,258Z" fill="rgb(75,75,75)" stroke="rgb(75,75,75)" stroke-width="1.51"></path><path d="M190,365L279,416L280,349Z" fill="rgb(93,93,93)" stroke="rgb(93,93,93)" stroke-width="1.51"></path><path d="M492,37L487,-20L410,-16Z" fill="rgb(160,160,160)" stroke="rgb(160,160,160)" stroke-width="1.51"></path><path d="M400,-118L336,-113L332,-41Z" fill="rgb(187,187,187)" stroke="rgb(187,187,187)" stroke-width="1.51"></path><path d="M565,31L487,-20L492,37Z" fill="rgb(139,139,139)" stroke="rgb(139,139,139)" stroke-width="1.51"></path><path d="M52,62L123,124L109,48Z" fill="rgb(230,230,230)" stroke="rgb(230,230,230)" stroke-width="1.51"></path><path d="M52,62L45,116L123,124Z" fill="rgb(228,228,228)" stroke="rgb(228,228,228)" stroke-width="1.51"></path><path d="M25,-16L52,62L109,48Z" fill="rgb(244,244,244)" stroke="rgb(244,244,244)" stroke-width="1.51"></path><path d="M423,365L493,346L411,282Z" fill="rgb(69,69,69)" stroke="rgb(69,69,69)" stroke-width="1.51"></path><path d="M470,414L493,346L423,365Z" fill="rgb(47,47,47)" stroke="rgb(47,47,47)" stroke-width="1.51"></path><path d="M493,346L545,271L493,258Z" fill="rgb(65,65,65)" stroke="rgb(65,65,65)" stroke-width="1.51"></path><path d="M190,365L191,434L279,416Z" fill="rgb(91,91,91)" stroke="rgb(91,91,91)" stroke-width="1.51"></path><path d="M113,264L99,340L192,264Z" fill="rgb(153,153,153)" stroke="rgb(153,153,153)" stroke-width="1.51"></path><path d="M39,274L99,340L113,264Z" fill="rgb(159,159,159)" stroke="rgb(159,159,159)" stroke-width="1.51"></path><path d="M332,-41L270,-118L255,-23Z" fill="rgb(205,205,205)" stroke="rgb(205,205,205)" stroke-width="1.51"></path><path d="M400,-118L332,-41L410,-16Z" fill="rgb(181,181,181)" stroke="rgb(181,181,181)" stroke-width="1.51"></path><path d="M45,116L28,206L124,191Z" fill="rgb(206,206,206)" stroke="rgb(206,206,206)" stroke-width="1.51"></path><path d="M-34,186L28,206L45,116Z" fill="rgb(212,212,212)" stroke="rgb(212,212,212)" stroke-width="1.51"></path><path d="M174,-38L109,-42L109,48Z" fill="rgb(239,239,239)" stroke="rgb(239,239,239)" stroke-width="1.51"></path><path d="M104,-111L109,-42L174,-38Z" fill="rgb(239,239,239)" stroke="rgb(239,239,239)" stroke-width="1.51"></path><path d="M336,-113L270,-118L332,-41Z" fill="rgb(198,198,198)" stroke="rgb(198,198,198)" stroke-width="1.51"></path><path d="M550,207L578,134L487,196Z" fill="rgb(95,95,95)" stroke="rgb(95,95,95)" stroke-width="1.51"></path><path d="M632,215L578,134L550,207Z" fill="rgb(81,81,81)" stroke="rgb(81,81,81)" stroke-width="1.51"></path><path d="M28,206L39,274L113,264Z" fill="rgb(177,177,177)" stroke="rgb(177,177,177)" stroke-width="1.51"></path><path d="M320,407L429,417L340,356Z" fill="rgb(62,62,62)" stroke="rgb(62,62,62)" stroke-width="1.51"></path><path d="M325,499L429,417L320,407Z" fill="rgb(61,61,61)" stroke="rgb(61,61,61)" stroke-width="1.51"></path><path d="M270,-118L192,-113L255,-23Z" fill="rgb(218,218,218)" stroke="rgb(218,218,218)" stroke-width="1.51"></path><path d="M578,134L565,31L475,116Z" fill="rgb(118,118,118)" stroke="rgb(118,118,118)" stroke-width="1.51"></path><path d="M336,-113L400,-118L270,-118Z" fill="rgb(192,192,192)" stroke="rgb(192,192,192)" stroke-width="1.51"></path><path d="M475,-107L400,-118L410,-16Z" fill="rgb(169,169,169)" stroke="rgb(169,169,169)" stroke-width="1.51"></path><path d="M475,-107L410,-16L487,-20Z" fill="rgb(161,161,161)" stroke="rgb(161,161,161)" stroke-width="1.51"></path><path d="M120,427L191,434L190,365Z" fill="rgb(100,100,100)" stroke="rgb(100,100,100)" stroke-width="1.51"></path><path d="M279,416L325,499L320,407Z" fill="rgb(71,71,71)" stroke="rgb(71,71,71)" stroke-width="1.51"></path><path d="M429,417L470,414L423,365Z" fill="rgb(45,45,45)" stroke="rgb(45,45,45)" stroke-width="1.51"></path><path d="M493,346L554,365L545,271Z" fill="rgb(46,46,46)" stroke="rgb(46,46,46)" stroke-width="1.51"></path><path d="M568,-43L475,-107L487,-20Z" fill="rgb(143,143,143)" stroke="rgb(143,143,143)" stroke-width="1.51"></path><path d="M99,340L120,427L190,365Z" fill="rgb(113,113,113)" stroke="rgb(113,113,113)" stroke-width="1.51"></path><path d="M39,274L40,348L99,340Z" fill="rgb(148,148,148)" stroke="rgb(148,148,148)" stroke-width="1.51"></path><path d="M-21,343L40,348L39,274Z" fill="rgb(151,151,151)" stroke="rgb(151,151,151)" stroke-width="1.51"></path><path d="M55,415L120,427L99,340Z" fill="rgb(112,112,112)" stroke="rgb(112,112,112)" stroke-width="1.51"></path><path d="M48,-82L25,-16L109,-42Z" fill="rgb(249,249,249)" stroke="rgb(249,249,249)" stroke-width="1.51"></path><path d="M109,-42L25,-16L109,48Z" fill="rgb(246,246,246)" stroke="rgb(246,246,246)" stroke-width="1.51"></path><path d="M-40,109L-34,186L45,116Z" fill="rgb(225,225,225)" stroke="rgb(225,225,225)" stroke-width="1.51"></path><path d="M545,271L632,215L550,207Z" fill="rgb(69,69,69)" stroke="rgb(69,69,69)" stroke-width="1.51"></path><path d="M470,414L554,365L493,346Z" fill="rgb(35,35,35)" stroke="rgb(35,35,35)" stroke-width="1.51"></path><path d="M192,-113L104,-111L174,-38Z" fill="rgb(234,234,234)" stroke="rgb(234,234,234)" stroke-width="1.51"></path><path d="M270,-118L104,-111L192,-113Z" fill="rgb(228,228,228)" stroke="rgb(228,228,228)" stroke-width="1.51"></path><path d="M28,206L-37,276L39,274Z" fill="rgb(181,181,181)" stroke="rgb(181,181,181)" stroke-width="1.51"></path><path d="M-40,109L45,116L52,62Z" fill="rgb(235,235,235)" stroke="rgb(235,235,235)" stroke-width="1.51"></path><path d="M565,31L568,-43L487,-20Z" fill="rgb(134,134,134)" stroke="rgb(134,134,134)" stroke-width="1.51"></path><path d="M649,-38L568,-43L565,31Z" fill="rgb(120,120,120)" stroke="rgb(120,120,120)" stroke-width="1.51"></path><path d="M578,134L627,56L565,31Z" fill="rgb(110,110,110)" stroke="rgb(110,110,110)" stroke-width="1.51"></path><path d="M653,286L632,215L545,271Z" fill="rgb(55,55,55)" stroke="rgb(55,55,55)" stroke-width="1.51"></path><path d="M258,499L279,416L191,434Z" fill="rgb(86,86,86)" stroke="rgb(86,86,86)" stroke-width="1.51"></path><path d="M258,499L325,499L279,416Z" fill="rgb(76,76,76)" stroke="rgb(76,76,76)" stroke-width="1.51"></path><path d="M429,417L488,502L470,414Z" fill="rgb(39,39,39)" stroke="rgb(39,39,39)" stroke-width="1.51"></path><path d="M470,414L569,433L554,365Z" fill="rgb(21,21,21)" stroke="rgb(21,21,21)" stroke-width="1.51"></path><path d="M173,499L258,499L191,434Z" fill="rgb(93,93,93)" stroke="rgb(93,93,93)" stroke-width="1.51"></path><path d="M642,111L627,56L578,134Z" fill="rgb(102,102,102)" stroke="rgb(102,102,102)" stroke-width="1.51"></path><path d="M-37,51L-40,109L52,62Z" fill="rgb(242,242,242)" stroke="rgb(242,242,242)" stroke-width="1.51"></path><path d="M632,215L642,111L578,134Z" fill="rgb(89,89,89)" stroke="rgb(89,89,89)" stroke-width="1.51"></path><path d="M25,-16L-37,51L52,62Z" fill="rgb(248,248,248)" stroke="rgb(248,248,248)" stroke-width="1.51"></path><path d="M104,-111L48,-82L109,-42Z" fill="rgb(245,245,245)" stroke="rgb(245,245,245)" stroke-width="1.51"></path><path d="M-37,-11L-37,51L25,-16Z" fill="rgb(254,254,254)" stroke="rgb(254,254,254)" stroke-width="1.51"></path><path d="M130,486L173,499L191,434Z" fill="rgb(100,100,100)" stroke="rgb(100,100,100)" stroke-width="1.51"></path><path d="M40,348L55,415L99,340Z" fill="rgb(125,125,125)" stroke="rgb(125,125,125)" stroke-width="1.51"></path><path d="M-21,343L55,415L40,348Z" fill="rgb(128,128,128)" stroke="rgb(128,128,128)" stroke-width="1.51"></path><path d="M-34,186L-37,276L28,206Z" fill="rgb(193,193,193)" stroke="rgb(193,193,193)" stroke-width="1.51"></path><path d="M-95,183L-37,276L-34,186Z" fill="rgb(195,195,195)" stroke="rgb(195,195,195)" stroke-width="1.51"></path><path d="M130,486L191,434L120,427Z" fill="rgb(103,103,103)" stroke="rgb(103,103,103)" stroke-width="1.51"></path><path d="M43,485L130,486L120,427Z" fill="rgb(109,109,109)" stroke="rgb(109,109,109)" stroke-width="1.51"></path><path d="M-37,276L-21,343L39,274Z" fill="rgb(165,165,165)" stroke="rgb(165,165,165)" stroke-width="1.51"></path><path d="M173,499L407,514L258,499Z" fill="rgb(78,78,78)" stroke="rgb(78,78,78)" stroke-width="1.51"></path><path d="M258,499L407,514L325,499Z" fill="rgb(67,67,67)" stroke="rgb(67,67,67)" stroke-width="1.51"></path><path d="M325,499L407,514L429,417Z" fill="rgb(55,55,55)" stroke="rgb(55,55,55)" stroke-width="1.51"></path><path d="M632,-112L559,-111L568,-43Z" fill="rgb(122,122,122)" stroke="rgb(122,122,122)" stroke-width="1.51"></path><path d="M568,-43L559,-111L475,-107Z" fill="rgb(135,135,135)" stroke="rgb(135,135,135)" stroke-width="1.51"></path><path d="M475,-107L559,-111L400,-118Z" fill="rgb(154,154,154)" stroke="rgb(154,154,154)" stroke-width="1.51"></path><path d="M554,365L653,286L545,271Z" fill="rgb(43,43,43)" stroke="rgb(43,43,43)" stroke-width="1.51"></path><path d="M632,215L727,140L642,111Z" fill="rgb(88,88,88)" stroke="rgb(88,88,88)" stroke-width="1.51"></path><path d="M655,343L653,286L554,365Z" fill="rgb(30,30,30)" stroke="rgb(30,30,30)" stroke-width="1.51"></path><path d="M-54,-93L-37,-11L25,-16Z" fill="rgb(255,255,255)" stroke="rgb(255,255,255)" stroke-width="1.51"></path><path d="M-105,130L-95,183L-40,109Z" fill="rgb(224,224,224)" stroke="rgb(224,224,224)" stroke-width="1.51"></path><path d="M488,502L569,433L470,414Z" fill="rgb(26,26,26)" stroke="rgb(26,26,26)" stroke-width="1.51"></path><path d="M407,514L488,502L429,417Z" fill="rgb(45,45,45)" stroke="rgb(45,45,45)" stroke-width="1.51"></path><path d="M-37,276L-119,288L-21,343Z" fill="rgb(163,163,163)" stroke="rgb(163,163,163)" stroke-width="1.51"></path><path d="M-40,109L-95,183L-34,186Z" fill="rgb(218,218,218)" stroke="rgb(218,218,218)" stroke-width="1.51"></path><path d="M-105,130L-40,109L-97,34Z" fill="rgb(238,238,238)" stroke="rgb(238,238,238)" stroke-width="1.51"></path><path d="M620,429L655,343L554,365Z" fill="rgb(11,11,11)" stroke="rgb(11,11,11)" stroke-width="1.51"></path><path d="M627,56L649,-38L565,31Z" fill="rgb(117,117,117)" stroke="rgb(117,117,117)" stroke-width="1.51"></path><path d="M703,-30L649,-38L627,56Z" fill="rgb(119,119,119)" stroke="rgb(119,119,119)" stroke-width="1.51"></path><path d="M725,48L627,56L642,111Z" fill="rgb(108,108,108)" stroke="rgb(108,108,108)" stroke-width="1.51"></path><path d="M718,214L632,215L653,286Z" fill="rgb(61,61,61)" stroke="rgb(61,61,61)" stroke-width="1.51"></path><path d="M-97,34L-40,109L-37,51Z" fill="rgb(244,244,244)" stroke="rgb(244,244,244)" stroke-width="1.51"></path><path d="M-26,443L43,485L55,415Z" fill="rgb(117,117,117)" stroke="rgb(117,117,117)" stroke-width="1.51"></path><path d="M55,415L43,485L120,427Z" fill="rgb(112,112,112)" stroke="rgb(112,112,112)" stroke-width="1.51"></path><path d="M130,486L-24,516L173,499Z" fill="rgb(110,110,110)" stroke="rgb(110,110,110)" stroke-width="1.51"></path><path d="M-26,443L55,415L-21,343Z" fill="rgb(118,118,118)" stroke="rgb(118,118,118)" stroke-width="1.51"></path><path d="M-37,-11L-97,34L-37,51Z" fill="rgb(251,251,251)" stroke="rgb(251,251,251)" stroke-width="1.51"></path><path d="M-104,-10L-97,34L-37,-11Z" fill="rgb(254,254,254)" stroke="rgb(254,254,254)" stroke-width="1.51"></path><path d="M644,482L620,429L569,433Z" fill="rgb(0,0,0)" stroke="rgb(0,0,0)" stroke-width="1.51"></path><path d="M569,433L620,429L554,365Z" fill="rgb(7,7,7)" stroke="rgb(7,7,7)" stroke-width="1.51"></path><path d="M728,260L653,286L695,358Z" fill="rgb(42,42,42)" stroke="rgb(42,42,42)" stroke-width="1.51"></path><path d="M728,260L718,214L653,286Z" fill="rgb(57,57,57)" stroke="rgb(57,57,57)" stroke-width="1.51"></path><path d="M718,214L727,140L632,215Z" fill="rgb(77,77,77)" stroke="rgb(77,77,77)" stroke-width="1.51"></path><path d="M649,-38L632,-112L568,-43Z" fill="rgb(119,119,119)" stroke="rgb(119,119,119)" stroke-width="1.51"></path><path d="M559,-111L632,-112L400,-118Z" fill="rgb(136,136,136)" stroke="rgb(136,136,136)" stroke-width="1.51"></path><path d="M715,-98L632,-112L649,-38Z" fill="rgb(119,119,119)" stroke="rgb(119,119,119)" stroke-width="1.51"></path><path d="M-124,417L-26,443L-21,343Z" fill="rgb(119,119,119)" stroke="rgb(119,119,119)" stroke-width="1.51"></path><path d="M488,502L550,514L569,433Z" fill="rgb(20,20,20)" stroke="rgb(20,20,20)" stroke-width="1.51"></path><path d="M407,514L550,514L488,502Z" fill="rgb(34,34,34)" stroke="rgb(34,34,34)" stroke-width="1.51"></path><path d="M48,-82L-54,-93L25,-16Z" fill="rgb(254,254,254)" stroke="rgb(254,254,254)" stroke-width="1.51"></path><path d="M104,-111L-54,-93L48,-82Z" fill="rgb(251,251,251)" stroke="rgb(251,251,251)" stroke-width="1.51"></path><path d="M-97,34L-104,-10L-105,130Z" fill="rgb(247,247,247)" stroke="rgb(247,247,247)" stroke-width="1.51"></path><path d="M-54,-93L-104,-10L-37,-11Z" fill="rgb(255,255,255)" stroke="rgb(255,255,255)" stroke-width="1.51"></path><path d="M-95,183L-119,288L-37,276Z" fill="rgb(183,183,183)" stroke="rgb(183,183,183)" stroke-width="1.51"></path><path d="M-105,130L-119,288L-95,183Z" fill="rgb(201,201,201)" stroke="rgb(201,201,201)" stroke-width="1.51"></path><path d="M-116,-117L-119,288L-105,130Z" fill="rgb(236,236,236)" stroke="rgb(236,236,236)" stroke-width="1.51"></path><path d="M727,140L725,48L642,111Z" fill="rgb(102,102,102)" stroke="rgb(102,102,102)" stroke-width="1.51"></path><path d="M695,358L653,286L655,343Z" fill="rgb(31,31,31)" stroke="rgb(31,31,31)" stroke-width="1.51"></path><path d="M718,214L728,260L727,140Z" fill="rgb(72,72,72)" stroke="rgb(72,72,72)" stroke-width="1.51"></path><path d="M620,429L695,358L655,343Z" fill="rgb(12,12,12)" stroke="rgb(12,12,12)" stroke-width="1.51"></path><path d="M714,413L695,358L620,429Z" fill="rgb(0,0,0)" stroke="rgb(0,0,0)" stroke-width="1.51"></path><path d="M725,48L703,-30L627,56Z" fill="rgb(116,116,116)" stroke="rgb(116,116,116)" stroke-width="1.51"></path><path d="M-119,288L-123,350L-21,343Z" fill="rgb(150,150,150)" stroke="rgb(150,150,150)" stroke-width="1.51"></path><path d="M-116,-117L-123,350L-119,288Z" fill="rgb(212,212,212)" stroke="rgb(212,212,212)" stroke-width="1.51"></path><path d="M550,514L644,482L569,433Z" fill="rgb(4,5,4)" stroke="rgb(4,5,4)" stroke-width="1.51"></path><path d="M-26,443L-24,516L43,485Z" fill="rgb(119,119,119)" stroke="rgb(119,119,119)" stroke-width="1.51"></path><path d="M43,485L-24,516L130,486Z" fill="rgb(115,115,115)" stroke="rgb(115,115,115)" stroke-width="1.51"></path><path d="M173,499L-24,516L407,514Z" fill="rgb(97,97,97)" stroke="rgb(97,97,97)" stroke-width="1.51"></path><path d="M407,514L-24,516L550,514Z" fill="rgb(71,71,71)" stroke="rgb(71,71,71)" stroke-width="1.51"></path><path d="M-108,498L-24,516L-26,443Z" fill="rgb(119,119,119)" stroke="rgb(119,119,119)" stroke-width="1.51"></path><path d="M644,482L714,413L620,429Z" fill="rgb(0,0,0)" stroke="rgb(0,0,0)" stroke-width="1.51"></path><path d="M695,358L714,413L728,260Z" fill="rgb(25,25,25)" stroke="rgb(25,25,25)" stroke-width="1.51"></path><path d="M725,48L715,-98L703,-30Z" fill="rgb(119,119,119)" stroke="rgb(119,119,119)" stroke-width="1.51"></path><path d="M703,-30L715,-98L649,-38Z" fill="rgb(119,119,119)" stroke="rgb(119,119,119)" stroke-width="1.51"></path><path d="M-123,350L-124,417L-21,343Z" fill="rgb(130,130,130)" stroke="rgb(130,130,130)" stroke-width="1.51"></path><path d="M-54,-93L-116,-117L-104,-10Z" fill="rgb(255,255,255)" stroke="rgb(255,255,255)" stroke-width="1.51"></path><path d="M-104,-10L-116,-117L-105,130Z" fill="rgb(255,255,255)" stroke="rgb(255,255,255)" stroke-width="1.51"></path><path d="M104,-111L-116,-117L-54,-93Z" fill="rgb(255,255,255)" stroke="rgb(255,255,255)" stroke-width="1.51"></path><path d="M270,-118L-116,-117L104,-111Z" fill="rgb(246,246,246)" stroke="rgb(246,246,246)" stroke-width="1.51"></path><path d="M644,482L694,492L714,413Z" fill="rgb(0,0,0)" stroke="rgb(0,0,0)" stroke-width="1.51"></path><path d="M550,514L694,492L644,482Z" fill="rgb(0,0,0)" stroke="rgb(0,0,0)" stroke-width="1.51"></path><path d="M-124,417L-108,498L-26,443Z" fill="rgb(119,119,119)" stroke="rgb(119,119,119)" stroke-width="1.51"></path></svg>