<svg width="600" height="400" xmlns="http://www.w3.org/2000/svg"><path d="M262,200L262,125L187,199Z" fill="rgb(110,197,191)" stroke="rgb(110,197,191)" stroke-width="1.51"></path><path d="M262,125L187,124L187,199Z" fill="rgb(135,207,187)" stroke="rgb(135,207,187)" stroke-width="1.51"></path><path d="M187,199L187,274L262,200Z" fill="rgb(104,187,190)" stroke="rgb(104,187,190)" stroke-width="1.51"></path><path d="M262,200L337,199L262,125Z" fill="rgb(91,190,194)" stroke="rgb(91,190,194)" stroke-width="1.51"></path><path d="M337,274L337,199L262,200Z" fill="rgb(56,170,195)" stroke="rgb(56,170,195)" stroke-width="1.51"></path><path d="M262,125L262,50L187,124Z" fill="rgb(162,217,185)" stroke="rgb(162,217,185)" stroke-width="1.51"></path><path d="M337,199L337,125L262,125Z" fill="rgb(100,190,191)" stroke="rgb(100,190,191)" stroke-width="1.51"></path><path d="M337,125L262,50L262,125Z" fill="rgb(147,209,188)" stroke="rgb(147,209,188)" stroke-width="1.51"></path><path d="M187,274L262,275L262,200Z" fill="rgb(85,172,191)" stroke="rgb(85,172,191)" stroke-width="1.51"></path><path d="M112,125L112,199L187,199Z" fill="rgb(159,215,186)" stroke="rgb(159,215,186)" stroke-width="1.51"></path><path d="M187,199L112,199L187,274Z" fill="rgb(133,195,188)" stroke="rgb(133,195,188)" stroke-width="1.51"></path><path d="M187,124L112,125L187,199Z" fill="rgb(160,216,184)" stroke="rgb(160,216,184)" stroke-width="1.51"></path><path d="M112,49L112,125L187,124Z" fill="rgb(203,234,180)" stroke="rgb(203,234,180)" stroke-width="1.51"></path><path d="M262,50L187,49L187,124Z" fill="rgb(182,225,183)" stroke="rgb(182,225,183)" stroke-width="1.51"></path><path d="M262,275L337,274L262,200Z" fill="rgb(59,165,194)" stroke="rgb(59,165,194)" stroke-width="1.51"></path><path d="M112,199L112,275L187,274Z" fill="rgb(139,189,187)" stroke="rgb(139,189,187)" stroke-width="1.51"></path><path d="M187,349L262,349L262,275Z" fill="rgb(88,135,174)" stroke="rgb(88,135,174)" stroke-width="1.51"></path><path d="M337,125L337,49L262,50Z" fill="rgb(154,208,188)" stroke="rgb(154,208,188)" stroke-width="1.51"></path><path d="M262,50L262,-25L187,49Z" fill="rgb(187,226,193)" stroke="rgb(187,226,193)" stroke-width="1.51"></path><path d="M187,49L112,49L187,124Z" fill="rgb(204,234,180)" stroke="rgb(204,234,180)" stroke-width="1.51"></path><path d="M262,275L262,349L337,274Z" fill="rgb(63,139,182)" stroke="rgb(63,139,182)" stroke-width="1.51"></path><path d="M187,349L262,275L187,274Z" fill="rgb(99,150,178)" stroke="rgb(99,150,178)" stroke-width="1.51"></path><path d="M112,275L187,349L187,274Z" fill="rgb(125,158,176)" stroke="rgb(125,158,176)" stroke-width="1.51"></path><path d="M337,274L412,199L337,199Z" fill="rgb(45,157,194)" stroke="rgb(45,157,194)" stroke-width="1.51"></path><path d="M337,199L412,199L337,125Z" fill="rgb(76,172,193)" stroke="rgb(76,172,193)" stroke-width="1.51"></path><path d="M337,125L412,124L337,49Z" fill="rgb(137,191,188)" stroke="rgb(137,191,188)" stroke-width="1.51"></path><path d="M412,199L412,124L337,125Z" fill="rgb(91,170,188)" stroke="rgb(91,170,188)" stroke-width="1.51"></path><path d="M337,49L262,-25L262,50Z" fill="rgb(173,219,197)" stroke="rgb(173,219,197)" stroke-width="1.51"></path><path d="M187,49L112,-25L112,49Z" fill="rgb(226,244,189)" stroke="rgb(226,244,189)" stroke-width="1.51"></path><path d="M112,199L37,199L112,275Z" fill="rgb(158,204,187)" stroke="rgb(158,204,187)" stroke-width="1.51"></path><path d="M112,125L37,199L112,199Z" fill="rgb(173,220,186)" stroke="rgb(173,220,186)" stroke-width="1.51"></path><path d="M37,125L37,199L112,125Z" fill="rgb(187,227,186)" stroke="rgb(187,227,186)" stroke-width="1.51"></path><path d="M112,49L37,125L112,125Z" fill="rgb(215,239,179)" stroke="rgb(215,239,179)" stroke-width="1.51"></path><path d="M262,-25L187,-26L187,49Z" fill="rgb(200,233,201)" stroke="rgb(200,233,201)" stroke-width="1.51"></path><path d="M337,274L412,274L412,199Z" fill="rgb(31,141,190)" stroke="rgb(31,141,190)" stroke-width="1.51"></path><path d="M412,349L412,274L337,274Z" fill="rgb(35,116,178)" stroke="rgb(35,116,178)" stroke-width="1.51"></path><path d="M112,275L112,349L187,349Z" fill="rgb(135,151,171)" stroke="rgb(135,151,171)" stroke-width="1.51"></path><path d="M37,275L112,349L112,275Z" fill="rgb(149,166,176)" stroke="rgb(149,166,176)" stroke-width="1.51"></path><path d="M337,49L337,-26L262,-25Z" fill="rgb(171,215,206)" stroke="rgb(171,215,206)" stroke-width="1.51"></path><path d="M412,124L412,50L337,49Z" fill="rgb(146,187,185)" stroke="rgb(146,187,185)" stroke-width="1.51"></path><path d="M262,349L337,350L337,274Z" fill="rgb(57,124,177)" stroke="rgb(57,124,177)" stroke-width="1.51"></path><path d="M262,424L337,350L262,349Z" fill="rgb(60,111,156)" stroke="rgb(60,111,156)" stroke-width="1.51"></path><path d="M262,424L262,349L187,349Z" fill="rgb(81,117,155)" stroke="rgb(81,117,155)" stroke-width="1.51"></path><path d="M112,49L37,49L37,125Z" fill="rgb(230,245,181)" stroke="rgb(230,245,181)" stroke-width="1.51"></path><path d="M187,-26L112,-25L187,49Z" fill="rgb(222,242,199)" stroke="rgb(222,242,199)" stroke-width="1.51"></path><path d="M37,199L37,275L112,275Z" fill="rgb(158,195,190)" stroke="rgb(158,195,190)" stroke-width="1.51"></path><path d="M262,-25L187,-100L187,-26Z" fill="rgb(200,233,201)" stroke="rgb(200,233,201)" stroke-width="1.51"></path><path d="M412,-26L337,-26L337,49Z" fill="rgb(165,202,206)" stroke="rgb(165,202,206)" stroke-width="1.51"></path><path d="M112,-25L37,49L112,49Z" fill="rgb(239,249,188)" stroke="rgb(239,249,188)" stroke-width="1.51"></path><path d="M187,424L262,424L187,349Z" fill="rgb(84,113,137)" stroke="rgb(84,113,137)" stroke-width="1.51"></path><path d="M412,424L412,349L337,350Z" fill="rgb(35,88,153)" stroke="rgb(35,88,153)" stroke-width="1.51"></path><path d="M337,350L412,349L337,274Z" fill="rgb(44,112,176)" stroke="rgb(44,112,176)" stroke-width="1.51"></path><path d="M112,349L187,424L187,349Z" fill="rgb(116,129,152)" stroke="rgb(116,129,152)" stroke-width="1.51"></path><path d="M112,424L187,424L112,349Z" fill="rgb(116,124,135)" stroke="rgb(116,124,135)" stroke-width="1.51"></path><path d="M412,124L487,124L412,50Z" fill="rgb(133,165,178)" stroke="rgb(133,165,178)" stroke-width="1.51"></path><path d="M412,199L487,199L412,124Z" fill="rgb(76,147,182)" stroke="rgb(76,147,182)" stroke-width="1.51"></path><path d="M412,274L487,199L412,199Z" fill="rgb(46,133,183)" stroke="rgb(46,133,183)" stroke-width="1.51"></path><path d="M487,275L487,199L412,274Z" fill="rgb(38,116,179)" stroke="rgb(38,116,179)" stroke-width="1.51"></path><path d="M37,275L37,349L112,349Z" fill="rgb(153,156,174)" stroke="rgb(153,156,174)" stroke-width="1.51"></path><path d="M487,199L487,124L412,124Z" fill="rgb(93,144,177)" stroke="rgb(93,144,177)" stroke-width="1.51"></path><path d="M412,50L412,-26L337,49Z" fill="rgb(159,192,194)" stroke="rgb(159,192,194)" stroke-width="1.51"></path><path d="M187,-26L112,-100L112,-25Z" fill="rgb(231,246,198)" stroke="rgb(231,246,198)" stroke-width="1.51"></path><path d="M112,-25L37,-26L37,49Z" fill="rgb(248,252,201)" stroke="rgb(248,252,201)" stroke-width="1.51"></path><path d="M262,-101L187,-100L262,-25Z" fill="rgb(191,228,203)" stroke="rgb(191,228,203)" stroke-width="1.51"></path><path d="M487,50L412,-26L412,50Z" fill="rgb(156,174,186)" stroke="rgb(156,174,186)" stroke-width="1.51"></path><path d="M337,-26L262,-101L262,-25Z" fill="rgb(177,220,206)" stroke="rgb(177,220,206)" stroke-width="1.51"></path><path d="M37,199L-38,200L37,275Z" fill="rgb(167,208,203)" stroke="rgb(167,208,203)" stroke-width="1.51"></path><path d="M37,275L-38,349L37,349Z" fill="rgb(157,159,186)" stroke="rgb(157,159,186)" stroke-width="1.51"></path><path d="M37,125L-38,200L37,199Z" fill="rgb(182,224,202)" stroke="rgb(182,224,202)" stroke-width="1.51"></path><path d="M-38,124L-38,200L37,125Z" fill="rgb(194,230,202)" stroke="rgb(194,230,202)" stroke-width="1.51"></path><path d="M37,49L-38,124L37,125Z" fill="rgb(226,244,195)" stroke="rgb(226,244,195)" stroke-width="1.51"></path><path d="M337,-100L262,-101L337,-26Z" fill="rgb(171,215,206)" stroke="rgb(171,215,206)" stroke-width="1.51"></path><path d="M37,49L-38,49L-38,124Z" fill="rgb(237,248,197)" stroke="rgb(237,248,197)" stroke-width="1.51"></path><path d="M112,-100L37,-26L112,-25Z" fill="rgb(243,251,197)" stroke="rgb(243,251,197)" stroke-width="1.51"></path><path d="M37,349L112,424L112,349Z" fill="rgb(138,136,151)" stroke="rgb(138,136,151)" stroke-width="1.51"></path><path d="M487,124L487,50L412,50Z" fill="rgb(143,160,175)" stroke="rgb(143,160,175)" stroke-width="1.51"></path><path d="M412,349L487,275L412,274Z" fill="rgb(35,99,170)" stroke="rgb(35,99,170)" stroke-width="1.51"></path><path d="M412,-26L337,-100L337,-26Z" fill="rgb(165,202,206)" stroke="rgb(165,202,206)" stroke-width="1.51"></path><path d="M262,424L337,425L337,350Z" fill="rgb(43,98,140)" stroke="rgb(43,98,140)" stroke-width="1.51"></path><path d="M412,349L487,350L487,275Z" fill="rgb(37,80,162)" stroke="rgb(37,80,162)" stroke-width="1.51"></path><path d="M262,499L337,425L262,424Z" fill="rgb(52,103,140)" stroke="rgb(52,103,140)" stroke-width="1.51"></path><path d="M262,499L262,424L187,424Z" fill="rgb(72,109,138)" stroke="rgb(72,109,138)" stroke-width="1.51"></path><path d="M-38,200L-38,274L37,275Z" fill="rgb(163,198,205)" stroke="rgb(163,198,205)" stroke-width="1.51"></path><path d="M262,-101L112,-100L187,-100Z" fill="rgb(211,237,200)" stroke="rgb(211,237,200)" stroke-width="1.51"></path><path d="M187,-100L112,-100L187,-26Z" fill="rgb(222,242,199)" stroke="rgb(222,242,199)" stroke-width="1.51"></path><path d="M-38,-25L-38,49L37,49Z" fill="rgb(251,254,207)" stroke="rgb(251,254,207)" stroke-width="1.51"></path><path d="M337,425L412,424L337,350Z" fill="rgb(30,87,139)" stroke="rgb(30,87,139)" stroke-width="1.51"></path><path d="M412,424L487,350L412,349Z" fill="rgb(32,71,145)" stroke="rgb(32,71,145)" stroke-width="1.51"></path><path d="M-38,274L-38,349L37,275Z" fill="rgb(159,171,194)" stroke="rgb(159,171,194)" stroke-width="1.51"></path><path d="M37,349L37,425L112,424Z" fill="rgb(132,130,138)" stroke="rgb(132,130,138)" stroke-width="1.51"></path><path d="M412,-26L412,-101L337,-100Z" fill="rgb(163,194,204)" stroke="rgb(163,194,204)" stroke-width="1.51"></path><path d="M487,50L487,-26L412,-26Z" fill="rgb(159,166,193)" stroke="rgb(159,166,193)" stroke-width="1.51"></path><path d="M37,-26L-38,-25L37,49Z" fill="rgb(254,255,214)" stroke="rgb(254,255,214)" stroke-width="1.51"></path><path d="M112,-100L37,-100L37,-26Z" fill="rgb(248,252,201)" stroke="rgb(248,252,201)" stroke-width="1.51"></path><path d="M-38,-101L37,-100L112,-100Z" fill="rgb(251,254,207)" stroke="rgb(251,254,207)" stroke-width="1.51"></path><path d="M-38,424L37,425L37,349Z" fill="rgb(136,132,150)" stroke="rgb(136,132,150)" stroke-width="1.51"></path><path d="M187,500L262,499L187,424Z" fill="rgb(83,113,137)" stroke="rgb(83,113,137)" stroke-width="1.51"></path><path d="M37,-100L-38,-25L37,-26Z" fill="rgb(254,255,214)" stroke="rgb(254,255,214)" stroke-width="1.51"></path><path d="M487,-26L412,-101L412,-26Z" fill="rgb(160,175,196)" stroke="rgb(160,175,196)" stroke-width="1.51"></path><path d="M337,-100L412,-101L262,-101Z" fill="rgb(168,209,206)" stroke="rgb(168,209,206)" stroke-width="1.51"></path><path d="M187,500L187,424L112,424Z" fill="rgb(107,121,135)" stroke="rgb(107,121,135)" stroke-width="1.51"></path><path d="M337,425L412,499L412,424Z" fill="rgb(26,81,137)" stroke="rgb(26,81,137)" stroke-width="1.51"></path><path d="M487,124L562,124L487,50Z" fill="rgb(132,141,168)" stroke="rgb(132,141,168)" stroke-width="1.51"></path><path d="M487,50L562,49L487,-26Z" fill="rgb(154,149,177)" stroke="rgb(154,149,177)" stroke-width="1.51"></path><path d="M487,199L562,124L487,124Z" fill="rgb(94,130,170)" stroke="rgb(94,130,170)" stroke-width="1.51"></path><path d="M487,275L562,200L487,199Z" fill="rgb(54,111,173)" stroke="rgb(54,111,173)" stroke-width="1.51"></path><path d="M562,274L562,200L487,275Z" fill="rgb(41,96,165)" stroke="rgb(41,96,165)" stroke-width="1.51"></path><path d="M562,200L562,124L487,199Z" fill="rgb(77,118,166)" stroke="rgb(77,118,166)" stroke-width="1.51"></path><path d="M112,500L187,500L112,424Z" fill="rgb(116,124,135)" stroke="rgb(116,124,135)" stroke-width="1.51"></path><path d="M-38,274L-113,274L-38,349Z" fill="rgb(159,171,194)" stroke="rgb(159,171,194)" stroke-width="1.51"></path><path d="M-38,200L-113,274L-38,274Z" fill="rgb(164,198,205)" stroke="rgb(164,198,205)" stroke-width="1.51"></path><path d="M-38,124L-113,199L-38,200Z" fill="rgb(184,224,205)" stroke="rgb(184,224,205)" stroke-width="1.51"></path><path d="M-113,125L-113,199L-38,124Z" fill="rgb(194,230,202)" stroke="rgb(194,230,202)" stroke-width="1.51"></path><path d="M-113,125L-38,124L-113,50Z" fill="rgb(227,244,198)" stroke="rgb(227,244,198)" stroke-width="1.51"></path><path d="M-113,50L-38,124L-38,49Z" fill="rgb(237,248,198)" stroke="rgb(237,248,198)" stroke-width="1.51"></path><path d="M562,350L562,274L487,275Z" fill="rgb(35,71,153)" stroke="rgb(35,71,153)" stroke-width="1.51"></path><path d="M262,499L337,500L337,425Z" fill="rgb(43,98,140)" stroke="rgb(43,98,140)" stroke-width="1.51"></path><path d="M412,424L487,425L487,350Z" fill="rgb(23,57,125)" stroke="rgb(23,57,125)" stroke-width="1.51"></path><path d="M187,500L337,500L262,499Z" fill="rgb(63,106,139)" stroke="rgb(63,106,139)" stroke-width="1.51"></path><path d="M562,124L562,49L487,50Z" fill="rgb(138,138,161)" stroke="rgb(138,138,161)" stroke-width="1.51"></path><path d="M-113,199L-113,274L-38,200Z" fill="rgb(168,209,206)" stroke="rgb(168,209,206)" stroke-width="1.51"></path><path d="M-38,349L-38,424L37,349Z" fill="rgb(148,140,169)" stroke="rgb(148,140,169)" stroke-width="1.51"></path><path d="M37,425L112,500L112,424Z" fill="rgb(128,129,134)" stroke="rgb(128,129,134)" stroke-width="1.51"></path><path d="M-113,-25L-113,50L-38,49Z" fill="rgb(251,254,207)" stroke="rgb(251,254,207)" stroke-width="1.51"></path><path d="M37,425L37,500L112,500Z" fill="rgb(132,130,137)" stroke="rgb(132,130,137)" stroke-width="1.51"></path><path d="M-113,350L-38,424L-38,349Z" fill="rgb(147,140,168)" stroke="rgb(147,140,168)" stroke-width="1.51"></path><path d="M487,350L562,350L487,275Z" fill="rgb(38,66,155)" stroke="rgb(38,66,155)" stroke-width="1.51"></path><path d="M412,499L487,425L412,424Z" fill="rgb(23,65,129)" stroke="rgb(23,65,129)" stroke-width="1.51"></path><path d="M562,-100L487,-101L487,-26Z" fill="rgb(157,151,186)" stroke="rgb(157,151,186)" stroke-width="1.51"></path><path d="M487,-26L487,-101L412,-101Z" fill="rgb(159,166,193)" stroke="rgb(159,166,193)" stroke-width="1.51"></path><path d="M-38,-25L-113,-25L-38,49Z" fill="rgb(255,255,217)" stroke="rgb(255,255,217)" stroke-width="1.51"></path><path d="M37,-100L-38,-101L-38,-25Z" fill="rgb(255,255,217)" stroke="rgb(255,255,217)" stroke-width="1.51"></path><path d="M262,-101L-38,-101L112,-100Z" fill="rgb(237,248,198)" stroke="rgb(237,248,198)" stroke-width="1.51"></path><path d="M337,500L412,499L337,425Z" fill="rgb(30,87,139)" stroke="rgb(30,87,139)" stroke-width="1.51"></path><path d="M487,425L562,350L487,350Z" fill="rgb(30,49,134)" stroke="rgb(30,49,134)" stroke-width="1.51"></path><path d="M562,49L562,-26L487,-26Z" fill="rgb(154,144,179)" stroke="rgb(154,144,179)" stroke-width="1.51"></path><path d="M-38,500L37,500L37,425Z" fill="rgb(136,132,149)" stroke="rgb(136,132,149)" stroke-width="1.51"></path><path d="M-113,-100L-113,-25L-38,-25Z" fill="rgb(255,255,217)" stroke="rgb(255,255,217)" stroke-width="1.51"></path><path d="M-113,274L-113,350L-38,349Z" fill="rgb(158,159,189)" stroke="rgb(158,159,189)" stroke-width="1.51"></path><path d="M-38,424L-38,500L37,425Z" fill="rgb(137,132,152)" stroke="rgb(137,132,152)" stroke-width="1.51"></path><path d="M562,124L637,50L562,49Z" fill="rgb(125,129,140)" stroke="rgb(125,129,140)" stroke-width="1.51"></path><path d="M562,49L637,-26L562,-26Z" fill="rgb(141,135,157)" stroke="rgb(141,135,157)" stroke-width="1.51"></path><path d="M562,200L637,199L562,124Z" fill="rgb(66,109,145)" stroke="rgb(66,109,145)" stroke-width="1.51"></path><path d="M562,274L637,199L562,200Z" fill="rgb(40,96,145)" stroke="rgb(40,96,145)" stroke-width="1.51"></path><path d="M637,275L637,199L562,274Z" fill="rgb(27,84,138)" stroke="rgb(27,84,138)" stroke-width="1.51"></path><path d="M637,199L637,125L562,124Z" fill="rgb(76,111,137)" stroke="rgb(76,111,137)" stroke-width="1.51"></path><path d="M337,500L487,499L412,499Z" fill="rgb(25,73,133)" stroke="rgb(25,73,133)" stroke-width="1.51"></path><path d="M412,499L487,499L487,425Z" fill="rgb(23,57,125)" stroke="rgb(23,57,125)" stroke-width="1.51"></path><path d="M487,425L562,425L562,350Z" fill="rgb(20,38,113)" stroke="rgb(20,38,113)" stroke-width="1.51"></path><path d="M637,125L637,50L562,124Z" fill="rgb(112,123,135)" stroke="rgb(112,123,135)" stroke-width="1.51"></path><path d="M562,350L637,275L562,274Z" fill="rgb(25,63,132)" stroke="rgb(25,63,132)" stroke-width="1.51"></path><path d="M637,349L637,275L562,350Z" fill="rgb(23,50,122)" stroke="rgb(23,50,122)" stroke-width="1.51"></path><path d="M637,-26L562,-100L562,-26Z" fill="rgb(141,135,157)" stroke="rgb(141,135,157)" stroke-width="1.51"></path><path d="M562,-26L562,-100L487,-26Z" fill="rgb(154,144,179)" stroke="rgb(154,144,179)" stroke-width="1.51"></path><path d="M487,499L562,425L487,425Z" fill="rgb(23,44,119)" stroke="rgb(23,44,119)" stroke-width="1.51"></path><path d="M-113,350L-113,424L-38,424Z" fill="rgb(138,132,152)" stroke="rgb(138,132,152)" stroke-width="1.51"></path><path d="M-113,424L-38,500L-38,424Z" fill="rgb(137,132,152)" stroke="rgb(137,132,152)" stroke-width="1.51"></path><path d="M-38,-101L-113,-100L-38,-25Z" fill="rgb(255,255,217)" stroke="rgb(255,255,217)" stroke-width="1.51"></path><path d="M637,425L637,349L562,350Z" fill="rgb(16,34,103)" stroke="rgb(16,34,103)" stroke-width="1.51"></path><path d="M637,50L637,-26L562,49Z" fill="rgb(134,131,143)" stroke="rgb(134,131,143)" stroke-width="1.51"></path><path d="M562,425L637,425L562,350Z" fill="rgb(10,31,93)" stroke="rgb(10,31,93)" stroke-width="1.51"></path><path d="M487,499L562,500L562,425Z" fill="rgb(20,38,113)" stroke="rgb(20,38,113)" stroke-width="1.51"></path><path d="M337,500L562,500L487,499Z" fill="rgb(23,57,125)" stroke="rgb(23,57,125)" stroke-width="1.51"></path><path d="M-113,424L-113,500L-38,500Z" fill="rgb(137,132,152)" stroke="rgb(137,132,152)" stroke-width="1.51"></path><path d="M637,125L712,124L637,50Z" fill="rgb(112,123,135)" stroke="rgb(112,123,135)" stroke-width="1.51"></path><path d="M637,50L712,-25L637,-26Z" fill="rgb(137,132,152)" stroke="rgb(137,132,152)" stroke-width="1.51"></path><path d="M637,199L712,200L637,125Z" fill="rgb(63,106,139)" stroke="rgb(63,106,139)" stroke-width="1.51"></path><path d="M637,275L712,200L637,199Z" fill="rgb(37,93,140)" stroke="rgb(37,93,140)" stroke-width="1.51"></path><path d="M712,275L712,200L637,275Z" fill="rgb(26,84,138)" stroke="rgb(26,84,138)" stroke-width="1.51"></path><path d="M712,275L637,275L637,349Z" fill="rgb(22,60,127)" stroke="rgb(22,60,127)" stroke-width="1.51"></path><path d="M712,-25L637,-100L637,-26Z" fill="rgb(137,132,152)" stroke="rgb(137,132,152)" stroke-width="1.51"></path><path d="M637,-26L637,-100L562,-100Z" fill="rgb(137,132,152)" stroke="rgb(137,132,152)" stroke-width="1.51"></path><path d="M562,-100L637,-100L487,-101Z" fill="rgb(147,139,168)" stroke="rgb(147,139,168)" stroke-width="1.51"></path><path d="M637,499L637,425L562,425Z" fill="rgb(8,29,88)" stroke="rgb(8,29,88)" stroke-width="1.51"></path><path d="M712,200L712,124L637,125Z" fill="rgb(76,111,137)" stroke="rgb(76,111,137)" stroke-width="1.51"></path><path d="M712,124L712,50L637,50Z" fill="rgb(122,126,135)" stroke="rgb(122,126,135)" stroke-width="1.51"></path><path d="M712,350L712,275L637,349Z" fill="rgb(23,50,122)" stroke="rgb(23,50,122)" stroke-width="1.51"></path><path d="M712,50L712,-25L637,50Z" fill="rgb(134,131,143)" stroke="rgb(134,131,143)" stroke-width="1.51"></path><path d="M637,425L712,350L637,349Z" fill="rgb(16,34,103)" stroke="rgb(16,34,103)" stroke-width="1.51"></path><path d="M637,425L712,425L712,350Z" fill="rgb(8,29,88)" stroke="rgb(8,29,88)" stroke-width="1.51"></path><path d="M562,500L637,499L562,425Z" fill="rgb(10,31,93)" stroke="rgb(10,31,93)" stroke-width="1.51"></path><path d="M637,499L712,425L637,425Z" fill="rgb(8,29,88)" stroke="rgb(8,29,88)" stroke-width="1.51"></path><path d="M712,-25L712,-101L637,-100Z" fill="rgb(137,132,152)" stroke="rgb(137,132,152)" stroke-width="1.51"></path><path d="M637,-100L712,-101L487,-101Z" fill="rgb(137,132,152)" stroke="rgb(137,132,152)" stroke-width="1.51"></path><path d="M637,499L712,499L712,425Z" fill="rgb(8,29,88)" stroke="rgb(8,29,88)" stroke-width="1.51"></path><path d="M562,500L712,499L637,499Z" fill="rgb(8,29,88)" stroke="rgb(8,29,88)" stroke-width="1.51"></path></svg>