<svg width="600" height="400" xmlns="http://www.w3.org/2000/svg"><path d="M335,199L263,126L261,200Z" fill="rgb(249,124,168)" stroke="rgb(249,124,168)" stroke-width="1.51"></path><path d="M335,199L337,124L263,126Z" fill="rgb(247,130,170)" stroke="rgb(247,130,170)" stroke-width="1.51"></path><path d="M263,126L189,198L261,200Z" fill="rgb(250,142,174)" stroke="rgb(250,142,174)" stroke-width="1.51"></path><path d="M261,200L263,274L335,199Z" fill="rgb(241,99,161)" stroke="rgb(241,99,161)" stroke-width="1.51"></path><path d="M187,276L263,274L261,200Z" fill="rgb(236,107,165)" stroke="rgb(236,107,165)" stroke-width="1.51"></path><path d="M263,274L338,273L335,199Z" fill="rgb(233,77,155)" stroke="rgb(233,77,155)" stroke-width="1.51"></path><path d="M335,199L414,198L337,124Z" fill="rgb(238,102,162)" stroke="rgb(238,102,162)" stroke-width="1.51"></path><path d="M263,126L188,124L189,198Z" fill="rgb(250,163,182)" stroke="rgb(250,163,182)" stroke-width="1.51"></path><path d="M261,50L188,124L263,126Z" fill="rgb(251,174,185)" stroke="rgb(251,174,185)" stroke-width="1.51"></path><path d="M337,124L261,50L263,126Z" fill="rgb(251,157,178)" stroke="rgb(251,157,178)" stroke-width="1.51"></path><path d="M337,124L339,50L261,50Z" fill="rgb(251,157,183)" stroke="rgb(251,157,183)" stroke-width="1.51"></path><path d="M412,123L339,50L337,124Z" fill="rgb(241,137,173)" stroke="rgb(241,137,173)" stroke-width="1.51"></path><path d="M338,273L414,198L335,199Z" fill="rgb(230,72,155)" stroke="rgb(230,72,155)" stroke-width="1.51"></path><path d="M414,198L412,123L337,124Z" fill="rgb(233,110,164)" stroke="rgb(233,110,164)" stroke-width="1.51"></path><path d="M189,198L187,276L261,200Z" fill="rgb(243,126,170)" stroke="rgb(243,126,170)" stroke-width="1.51"></path><path d="M336,350L412,276L338,273Z" fill="rgb(200,39,139)" stroke="rgb(200,39,139)" stroke-width="1.51"></path><path d="M112,199L187,276L189,198Z" fill="rgb(245,140,173)" stroke="rgb(245,140,173)" stroke-width="1.51"></path><path d="M261,50L187,50L188,124Z" fill="rgb(253,189,195)" stroke="rgb(253,189,195)" stroke-width="1.51"></path><path d="M188,124L113,125L189,198Z" fill="rgb(251,175,186)" stroke="rgb(251,175,186)" stroke-width="1.51"></path><path d="M336,350L338,273L263,274Z" fill="rgb(209,60,142)" stroke="rgb(209,60,142)" stroke-width="1.51"></path><path d="M338,273L412,276L414,198Z" fill="rgb(217,49,149)" stroke="rgb(217,49,149)" stroke-width="1.51"></path><path d="M412,123L412,50L339,50Z" fill="rgb(236,138,177)" stroke="rgb(236,138,177)" stroke-width="1.51"></path><path d="M487,50L412,50L412,123Z" fill="rgb(221,127,168)" stroke="rgb(221,127,168)" stroke-width="1.51"></path><path d="M187,276L263,348L263,274Z" fill="rgb(213,91,152)" stroke="rgb(213,91,152)" stroke-width="1.51"></path><path d="M187,50L113,125L188,124Z" fill="rgb(252,194,191)" stroke="rgb(252,194,191)" stroke-width="1.51"></path><path d="M113,125L112,199L189,198Z" fill="rgb(251,168,184)" stroke="rgb(251,168,184)" stroke-width="1.51"></path><path d="M263,348L336,350L263,274Z" fill="rgb(198,67,144)" stroke="rgb(198,67,144)" stroke-width="1.51"></path><path d="M261,50L262,-25L187,50Z" fill="rgb(254,194,205)" stroke="rgb(254,194,205)" stroke-width="1.51"></path><path d="M339,50L262,-25L261,50Z" fill="rgb(254,177,197)" stroke="rgb(254,177,197)" stroke-width="1.51"></path><path d="M336,-27L262,-25L339,50Z" fill="rgb(254,175,200)" stroke="rgb(254,175,200)" stroke-width="1.51"></path><path d="M414,198L489,124L412,123Z" fill="rgb(216,99,155)" stroke="rgb(216,99,155)" stroke-width="1.51"></path><path d="M486,275L488,199L414,198Z" fill="rgb(200,49,140)" stroke="rgb(200,49,140)" stroke-width="1.51"></path><path d="M412,-26L336,-27L339,50Z" fill="rgb(246,162,197)" stroke="rgb(246,162,197)" stroke-width="1.51"></path><path d="M488,199L489,124L414,198Z" fill="rgb(207,81,148)" stroke="rgb(207,81,148)" stroke-width="1.51"></path><path d="M412,50L412,-26L339,50Z" fill="rgb(238,151,189)" stroke="rgb(238,151,189)" stroke-width="1.51"></path><path d="M187,276L185,349L263,348Z" fill="rgb(200,97,153)" stroke="rgb(200,97,153)" stroke-width="1.51"></path><path d="M260,425L338,424L336,350Z" fill="rgb(158,48,133)" stroke="rgb(158,48,133)" stroke-width="1.51"></path><path d="M112,276L185,349L187,276Z" fill="rgb(215,114,158)" stroke="rgb(215,114,158)" stroke-width="1.51"></path><path d="M112,199L112,276L187,276Z" fill="rgb(239,135,174)" stroke="rgb(239,135,174)" stroke-width="1.51"></path><path d="M336,350L413,349L412,276Z" fill="rgb(180,26,135)" stroke="rgb(180,26,135)" stroke-width="1.51"></path><path d="M412,276L486,275L414,198Z" fill="rgb(201,36,140)" stroke="rgb(201,36,140)" stroke-width="1.51"></path><path d="M187,50L112,49L113,125Z" fill="rgb(253,206,202)" stroke="rgb(253,206,202)" stroke-width="1.51"></path><path d="M113,125L38,124L112,199Z" fill="rgb(252,190,198)" stroke="rgb(252,190,198)" stroke-width="1.51"></path><path d="M187,-26L112,49L187,50Z" fill="rgb(254,214,211)" stroke="rgb(254,214,211)" stroke-width="1.51"></path><path d="M413,349L486,275L412,276Z" fill="rgb(178,7,128)" stroke="rgb(178,7,128)" stroke-width="1.51"></path><path d="M263,-101L187,-26L262,-25Z" fill="rgb(255,200,210)" stroke="rgb(255,200,210)" stroke-width="1.51"></path><path d="M262,-25L187,-26L187,50Z" fill="rgb(255,207,213)" stroke="rgb(255,207,213)" stroke-width="1.51"></path><path d="M489,124L487,50L412,123Z" fill="rgb(211,117,159)" stroke="rgb(211,117,159)" stroke-width="1.51"></path><path d="M487,-25L412,-26L412,50Z" fill="rgb(224,146,185)" stroke="rgb(224,146,185)" stroke-width="1.51"></path><path d="M112,276L113,349L185,349Z" fill="rgb(202,116,160)" stroke="rgb(202,116,160)" stroke-width="1.51"></path><path d="M260,425L336,350L263,348Z" fill="rgb(173,62,139)" stroke="rgb(173,62,139)" stroke-width="1.51"></path><path d="M112,49L38,124L113,125Z" fill="rgb(253,208,204)" stroke="rgb(253,208,204)" stroke-width="1.51"></path><path d="M112,199L38,274L112,276Z" fill="rgb(241,145,183)" stroke="rgb(241,145,183)" stroke-width="1.51"></path><path d="M112,276L39,351L113,349Z" fill="rgb(203,125,169)" stroke="rgb(203,125,169)" stroke-width="1.51"></path><path d="M260,425L263,348L185,349Z" fill="rgb(174,81,146)" stroke="rgb(174,81,146)" stroke-width="1.51"></path><path d="M336,350L338,424L413,349Z" fill="rgb(162,32,133)" stroke="rgb(162,32,133)" stroke-width="1.51"></path><path d="M186,423L260,425L185,349Z" fill="rgb(162,86,145)" stroke="rgb(162,86,145)" stroke-width="1.51"></path><path d="M38,124L36,199L112,199Z" fill="rgb(253,182,198)" stroke="rgb(253,182,198)" stroke-width="1.51"></path><path d="M562,198L561,125L488,199Z" fill="rgb(181,74,144)" stroke="rgb(181,74,144)" stroke-width="1.51"></path><path d="M413,349L486,349L486,275Z" fill="rgb(158,0,124)" stroke="rgb(158,0,124)" stroke-width="1.51"></path><path d="M488,424L486,349L413,349Z" fill="rgb(133,0,119)" stroke="rgb(133,0,119)" stroke-width="1.51"></path><path d="M112,49L36,48L38,124Z" fill="rgb(253,220,216)" stroke="rgb(253,220,216)" stroke-width="1.51"></path><path d="M187,-26L111,-24L112,49Z" fill="rgb(254,224,220)" stroke="rgb(254,224,220)" stroke-width="1.51"></path><path d="M489,124L563,51L487,50Z" fill="rgb(193,118,163)" stroke="rgb(193,118,163)" stroke-width="1.51"></path><path d="M488,199L561,125L489,124Z" fill="rgb(190,91,151)" stroke="rgb(190,91,151)" stroke-width="1.51"></path><path d="M562,198L488,199L562,273Z" fill="rgb(174,45,137)" stroke="rgb(174,45,137)" stroke-width="1.51"></path><path d="M562,273L488,199L486,275Z" fill="rgb(176,29,135)" stroke="rgb(176,29,135)" stroke-width="1.51"></path><path d="M412,-26L337,-100L336,-27Z" fill="rgb(246,163,197)" stroke="rgb(246,163,197)" stroke-width="1.51"></path><path d="M336,-27L263,-101L262,-25Z" fill="rgb(255,183,203)" stroke="rgb(255,183,203)" stroke-width="1.51"></path><path d="M187,-26L114,-102L111,-24Z" fill="rgb(254,224,220)" stroke="rgb(254,224,220)" stroke-width="1.51"></path><path d="M337,-100L263,-101L336,-27Z" fill="rgb(254,176,200)" stroke="rgb(254,176,200)" stroke-width="1.51"></path><path d="M487,50L487,-25L412,50Z" fill="rgb(214,136,178)" stroke="rgb(214,136,178)" stroke-width="1.51"></path><path d="M412,-26L411,-101L337,-100Z" fill="rgb(240,157,194)" stroke="rgb(240,157,194)" stroke-width="1.51"></path><path d="M560,-26L487,-25L487,50Z" fill="rgb(197,136,180)" stroke="rgb(197,136,180)" stroke-width="1.51"></path><path d="M36,199L38,274L112,199Z" fill="rgb(248,160,190)" stroke="rgb(248,160,190)" stroke-width="1.51"></path><path d="M113,349L186,423L185,349Z" fill="rgb(176,102,152)" stroke="rgb(176,102,152)" stroke-width="1.51"></path><path d="M112,425L186,423L113,349Z" fill="rgb(163,103,152)" stroke="rgb(163,103,152)" stroke-width="1.51"></path><path d="M338,424L411,425L413,349Z" fill="rgb(144,20,127)" stroke="rgb(144,20,127)" stroke-width="1.51"></path><path d="M337,499L411,425L338,424Z" fill="rgb(150,30,130)" stroke="rgb(150,30,130)" stroke-width="1.51"></path><path d="M-39,126L-38,198L36,199Z" fill="rgb(255,192,206)" stroke="rgb(255,192,206)" stroke-width="1.51"></path><path d="M111,-24L36,48L112,49Z" fill="rgb(254,228,224)" stroke="rgb(254,228,224)" stroke-width="1.51"></path><path d="M563,348L562,273L486,275Z" fill="rgb(145,0,122)" stroke="rgb(145,0,122)" stroke-width="1.51"></path><path d="M563,348L486,275L486,349Z" fill="rgb(140,0,122)" stroke="rgb(140,0,122)" stroke-width="1.51"></path><path d="M111,-24L36,-24L36,48Z" fill="rgb(254,237,234)" stroke="rgb(254,237,234)" stroke-width="1.51"></path><path d="M263,-101L186,-100L187,-26Z" fill="rgb(255,207,213)" stroke="rgb(255,207,213)" stroke-width="1.51"></path><path d="M337,-100L411,-101L263,-101Z" fill="rgb(250,169,199)" stroke="rgb(250,169,199)" stroke-width="1.51"></path><path d="M487,-102L411,-101L412,-26Z" fill="rgb(224,146,185)" stroke="rgb(224,146,185)" stroke-width="1.51"></path><path d="M635,123L561,125L562,198Z" fill="rgb(166,84,145)" stroke="rgb(166,84,145)" stroke-width="1.51"></path><path d="M635,123L563,51L561,125Z" fill="rgb(167,102,150)" stroke="rgb(167,102,150)" stroke-width="1.51"></path><path d="M561,125L563,51L489,124Z" fill="rgb(184,108,155)" stroke="rgb(184,108,155)" stroke-width="1.51"></path><path d="M-36,351L39,351L38,274Z" fill="rgb(205,137,179)" stroke="rgb(205,137,179)" stroke-width="1.51"></path><path d="M38,274L39,351L112,276Z" fill="rgb(218,134,174)" stroke="rgb(218,134,174)" stroke-width="1.51"></path><path d="M39,351L112,425L113,349Z" fill="rgb(176,116,164)" stroke="rgb(176,116,164)" stroke-width="1.51"></path><path d="M186,499L261,499L260,425Z" fill="rgb(161,78,142)" stroke="rgb(161,78,142)" stroke-width="1.51"></path><path d="M37,-101L36,-24L111,-24Z" fill="rgb(254,237,234)" stroke="rgb(254,237,234)" stroke-width="1.51"></path><path d="M411,425L488,424L413,349Z" fill="rgb(129,2,118)" stroke="rgb(129,2,118)" stroke-width="1.51"></path><path d="M639,198L635,123L562,198Z" fill="rgb(161,69,139)" stroke="rgb(161,69,139)" stroke-width="1.51"></path><path d="M488,424L563,348L486,349Z" fill="rgb(115,0,117)" stroke="rgb(115,0,117)" stroke-width="1.51"></path><path d="M186,-100L114,-102L187,-26Z" fill="rgb(255,219,216)" stroke="rgb(255,219,216)" stroke-width="1.51"></path><path d="M263,-101L114,-102L186,-100Z" fill="rgb(254,213,214)" stroke="rgb(254,213,214)" stroke-width="1.51"></path><path d="M487,-102L114,-102L263,-101Z" fill="rgb(255,183,203)" stroke="rgb(255,183,203)" stroke-width="1.51"></path><path d="M563,51L560,-26L487,50Z" fill="rgb(186,127,174)" stroke="rgb(186,127,174)" stroke-width="1.51"></path><path d="M487,-25L487,-102L412,-26Z" fill="rgb(215,142,183)" stroke="rgb(215,142,183)" stroke-width="1.51"></path><path d="M411,-101L487,-102L263,-101Z" fill="rgb(240,156,194)" stroke="rgb(240,156,194)" stroke-width="1.51"></path><path d="M560,-26L487,-102L487,-25Z" fill="rgb(197,136,180)" stroke="rgb(197,136,180)" stroke-width="1.51"></path><path d="M260,425L337,499L338,424Z" fill="rgb(158,48,133)" stroke="rgb(158,48,133)" stroke-width="1.51"></path><path d="M411,425L413,501L488,424Z" fill="rgb(128,2,118)" stroke="rgb(128,2,118)" stroke-width="1.51"></path><path d="M186,499L260,425L186,423Z" fill="rgb(162,85,145)" stroke="rgb(162,85,145)" stroke-width="1.51"></path><path d="M36,199L-37,273L38,274Z" fill="rgb(244,158,194)" stroke="rgb(244,158,194)" stroke-width="1.51"></path><path d="M-39,126L36,199L38,124Z" fill="rgb(254,201,210)" stroke="rgb(254,201,210)" stroke-width="1.51"></path><path d="M-39,126L38,124L36,48Z" fill="rgb(254,220,216)" stroke="rgb(254,220,216)" stroke-width="1.51"></path><path d="M261,499L337,499L260,425Z" fill="rgb(160,58,136)" stroke="rgb(160,58,136)" stroke-width="1.51"></path><path d="M-39,48L-39,126L36,48Z" fill="rgb(254,229,225)" stroke="rgb(254,229,225)" stroke-width="1.51"></path><path d="M639,198L562,198L638,273Z" fill="rgb(154,40,131)" stroke="rgb(154,40,131)" stroke-width="1.51"></path><path d="M563,51L638,-25L560,-26Z" fill="rgb(169,127,174)" stroke="rgb(169,127,174)" stroke-width="1.51"></path><path d="M638,273L562,198L562,273Z" fill="rgb(152,26,130)" stroke="rgb(152,26,130)" stroke-width="1.51"></path><path d="M-38,198L-37,273L36,199Z" fill="rgb(250,170,199)" stroke="rgb(250,170,199)" stroke-width="1.51"></path><path d="M-114,274L-37,273L-38,198Z" fill="rgb(244,160,196)" stroke="rgb(244,160,196)" stroke-width="1.51"></path><path d="M112,425L186,499L186,423Z" fill="rgb(163,98,148)" stroke="rgb(163,98,148)" stroke-width="1.51"></path><path d="M-37,-25L36,48L36,-24Z" fill="rgb(255,245,241)" stroke="rgb(255,245,241)" stroke-width="1.51"></path><path d="M-37,-25L-39,48L36,48Z" fill="rgb(255,241,238)" stroke="rgb(255,241,238)" stroke-width="1.51"></path><path d="M337,499L413,501L411,425Z" fill="rgb(143,20,127)" stroke="rgb(143,20,127)" stroke-width="1.51"></path><path d="M636,349L638,273L563,348Z" fill="rgb(112,0,115)" stroke="rgb(112,0,115)" stroke-width="1.51"></path><path d="M261,499L413,501L337,499Z" fill="rgb(153,40,131)" stroke="rgb(153,40,131)" stroke-width="1.51"></path><path d="M114,501L413,501L261,499Z" fill="rgb(161,68,139)" stroke="rgb(161,68,139)" stroke-width="1.51"></path><path d="M563,348L638,273L562,273Z" fill="rgb(129,0,118)" stroke="rgb(129,0,118)" stroke-width="1.51"></path><path d="M563,426L563,348L488,424Z" fill="rgb(94,0,111)" stroke="rgb(94,0,111)" stroke-width="1.51"></path><path d="M560,-26L562,-100L487,-102Z" fill="rgb(187,133,179)" stroke="rgb(187,133,179)" stroke-width="1.51"></path><path d="M635,123L637,51L563,51Z" fill="rgb(163,108,156)" stroke="rgb(163,108,156)" stroke-width="1.51"></path><path d="M711,126L637,51L635,123Z" fill="rgb(163,101,150)" stroke="rgb(163,101,150)" stroke-width="1.51"></path><path d="M112,425L114,501L186,499Z" fill="rgb(163,103,152)" stroke="rgb(163,103,152)" stroke-width="1.51"></path><path d="M39,351L37,425L112,425Z" fill="rgb(164,116,165)" stroke="rgb(164,116,165)" stroke-width="1.51"></path><path d="M-36,351L37,425L39,351Z" fill="rgb(177,127,175)" stroke="rgb(177,127,175)" stroke-width="1.51"></path><path d="M114,-102L37,-101L111,-24Z" fill="rgb(254,233,229)" stroke="rgb(254,233,229)" stroke-width="1.51"></path><path d="M562,500L563,426L488,424Z" fill="rgb(94,0,111)" stroke="rgb(94,0,111)" stroke-width="1.51"></path><path d="M636,-99L562,-100L560,-26Z" fill="rgb(170,127,174)" stroke="rgb(170,127,174)" stroke-width="1.51"></path><path d="M-37,273L-36,351L38,274Z" fill="rgb(220,143,183)" stroke="rgb(220,143,183)" stroke-width="1.51"></path><path d="M-112,349L-36,351L-37,273Z" fill="rgb(206,139,182)" stroke="rgb(206,139,182)" stroke-width="1.51"></path><path d="M36,500L114,501L112,425Z" fill="rgb(163,112,161)" stroke="rgb(163,112,161)" stroke-width="1.51"></path><path d="M186,499L114,501L261,499Z" fill="rgb(162,91,147)" stroke="rgb(162,91,147)" stroke-width="1.51"></path><path d="M37,-101L-37,-25L36,-24Z" fill="rgb(255,245,241)" stroke="rgb(255,245,241)" stroke-width="1.51"></path><path d="M636,424L636,349L563,348Z" fill="rgb(86,0,109)" stroke="rgb(86,0,109)" stroke-width="1.51"></path><path d="M413,501L488,501L488,424Z" fill="rgb(120,0,116)" stroke="rgb(120,0,116)" stroke-width="1.51"></path><path d="M637,51L638,-25L563,51Z" fill="rgb(164,119,168)" stroke="rgb(164,119,168)" stroke-width="1.51"></path><path d="M710,48L638,-25L637,51Z" fill="rgb(164,120,168)" stroke="rgb(164,120,168)" stroke-width="1.51"></path><path d="M-114,126L-39,126L-111,48Z" fill="rgb(254,222,217)" stroke="rgb(254,222,217)" stroke-width="1.51"></path><path d="M-114,126L-114,198L-39,126Z" fill="rgb(255,203,212)" stroke="rgb(255,203,212)" stroke-width="1.51"></path><path d="M-39,126L-114,198L-38,198Z" fill="rgb(255,192,206)" stroke="rgb(255,192,206)" stroke-width="1.51"></path><path d="M-111,48L-39,126L-39,48Z" fill="rgb(254,229,225)" stroke="rgb(254,229,225)" stroke-width="1.51"></path><path d="M639,198L711,126L635,123Z" fill="rgb(161,82,144)" stroke="rgb(161,82,144)" stroke-width="1.51"></path><path d="M713,198L711,126L639,198Z" fill="rgb(161,68,139)" stroke="rgb(161,68,139)" stroke-width="1.51"></path><path d="M713,198L639,198L713,273Z" fill="rgb(154,40,131)" stroke="rgb(154,40,131)" stroke-width="1.51"></path><path d="M713,273L639,198L638,273Z" fill="rgb(148,25,129)" stroke="rgb(148,25,129)" stroke-width="1.51"></path><path d="M-37,-25L-111,48L-39,48Z" fill="rgb(255,241,238)" stroke="rgb(255,241,238)" stroke-width="1.51"></path><path d="M-114,-26L-111,48L-37,-25Z" fill="rgb(255,247,243)" stroke="rgb(255,247,243)" stroke-width="1.51"></path><path d="M37,425L36,500L112,425Z" fill="rgb(164,116,165)" stroke="rgb(164,116,165)" stroke-width="1.51"></path><path d="M-36,351L-40,423L37,425Z" fill="rgb(165,125,173)" stroke="rgb(165,125,173)" stroke-width="1.51"></path><path d="M-112,349L-40,423L-36,351Z" fill="rgb(179,130,177)" stroke="rgb(179,130,177)" stroke-width="1.51"></path><path d="M-37,500L36,500L37,425Z" fill="rgb(165,123,172)" stroke="rgb(165,123,172)" stroke-width="1.51"></path><path d="M-114,198L-114,274L-38,198Z" fill="rgb(250,170,199)" stroke="rgb(250,170,199)" stroke-width="1.51"></path><path d="M711,348L713,273L638,273Z" fill="rgb(126,0,117)" stroke="rgb(126,0,117)" stroke-width="1.51"></path><path d="M563,426L636,424L563,348Z" fill="rgb(78,0,107)" stroke="rgb(78,0,107)" stroke-width="1.51"></path><path d="M638,499L636,424L563,426Z" fill="rgb(73,0,106)" stroke="rgb(73,0,106)" stroke-width="1.51"></path><path d="M488,501L562,500L488,424Z" fill="rgb(103,0,113)" stroke="rgb(103,0,113)" stroke-width="1.51"></path><path d="M713,-27L710,48L711,126Z" fill="rgb(163,114,163)" stroke="rgb(163,114,163)" stroke-width="1.51"></path><path d="M711,126L710,48L637,51Z" fill="rgb(163,108,156)" stroke="rgb(163,108,156)" stroke-width="1.51"></path><path d="M37,-101L-40,-100L-37,-25Z" fill="rgb(255,247,243)" stroke="rgb(255,247,243)" stroke-width="1.51"></path><path d="M713,-27L636,-99L638,-25Z" fill="rgb(165,125,173)" stroke="rgb(165,125,173)" stroke-width="1.51"></path><path d="M638,-25L636,-99L560,-26Z" fill="rgb(165,125,173)" stroke="rgb(165,125,173)" stroke-width="1.51"></path><path d="M562,-100L712,-101L487,-102Z" fill="rgb(169,127,174)" stroke="rgb(169,127,174)" stroke-width="1.51"></path><path d="M711,348L638,273L636,349Z" fill="rgb(112,0,115)" stroke="rgb(112,0,115)" stroke-width="1.51"></path><path d="M-114,274L-112,349L-37,273Z" fill="rgb(220,144,184)" stroke="rgb(220,144,184)" stroke-width="1.51"></path><path d="M636,424L711,348L636,349Z" fill="rgb(86,0,109)" stroke="rgb(86,0,109)" stroke-width="1.51"></path><path d="M713,424L711,348L636,424Z" fill="rgb(74,0,106)" stroke="rgb(74,0,106)" stroke-width="1.51"></path><path d="M-111,48L-114,-26L-114,126Z" fill="rgb(254,235,232)" stroke="rgb(254,235,232)" stroke-width="1.51"></path><path d="M-40,-100L-114,-26L-37,-25Z" fill="rgb(255,247,243)" stroke="rgb(255,247,243)" stroke-width="1.51"></path><path d="M710,48L713,-27L638,-25Z" fill="rgb(165,125,173)" stroke="rgb(165,125,173)" stroke-width="1.51"></path><path d="M713,198L713,-27L711,126Z" fill="rgb(163,101,150)" stroke="rgb(163,101,150)" stroke-width="1.51"></path><path d="M-40,423L-37,500L37,425Z" fill="rgb(165,125,173)" stroke="rgb(165,125,173)" stroke-width="1.51"></path><path d="M36,500L-37,500L114,501Z" fill="rgb(164,119,168)" stroke="rgb(164,119,168)" stroke-width="1.51"></path><path d="M-112,500L-37,500L-40,423Z" fill="rgb(165,125,173)" stroke="rgb(165,125,173)" stroke-width="1.51"></path><path d="M712,499L638,499L562,500Z" fill="rgb(73,0,106)" stroke="rgb(73,0,106)" stroke-width="1.51"></path><path d="M562,500L638,499L563,426Z" fill="rgb(77,0,107)" stroke="rgb(77,0,107)" stroke-width="1.51"></path><path d="M-40,-100L-111,-101L-114,-26Z" fill="rgb(255,247,243)" stroke="rgb(255,247,243)" stroke-width="1.51"></path><path d="M37,-101L-111,-101L-40,-100Z" fill="rgb(255,247,243)" stroke="rgb(255,247,243)" stroke-width="1.51"></path><path d="M114,-102L-111,-101L37,-101Z" fill="rgb(255,245,241)" stroke="rgb(255,245,241)" stroke-width="1.51"></path><path d="M-114,-26L-115,426L-114,126Z" fill="rgb(255,191,206)" stroke="rgb(255,191,206)" stroke-width="1.51"></path><path d="M-114,126L-115,426L-114,198Z" fill="rgb(244,159,196)" stroke="rgb(244,159,196)" stroke-width="1.51"></path><path d="M-114,198L-115,426L-114,274Z" fill="rgb(220,143,183)" stroke="rgb(220,143,183)" stroke-width="1.51"></path><path d="M-114,274L-115,426L-112,349Z" fill="rgb(191,134,180)" stroke="rgb(191,134,180)" stroke-width="1.51"></path><path d="M-112,349L-115,426L-40,423Z" fill="rgb(165,125,173)" stroke="rgb(165,125,173)" stroke-width="1.51"></path><path d="M638,499L713,424L636,424Z" fill="rgb(73,0,106)" stroke="rgb(73,0,106)" stroke-width="1.51"></path><path d="M711,348L713,424L713,273Z" fill="rgb(99,0,113)" stroke="rgb(99,0,113)" stroke-width="1.51"></path><path d="M713,-27L712,-101L636,-99Z" fill="rgb(165,125,173)" stroke="rgb(165,125,173)" stroke-width="1.51"></path><path d="M636,-99L712,-101L562,-100Z" fill="rgb(165,125,173)" stroke="rgb(165,125,173)" stroke-width="1.51"></path><path d="M-115,426L-112,500L-40,423Z" fill="rgb(165,125,173)" stroke="rgb(165,125,173)" stroke-width="1.51"></path><path d="M-37,500L-112,500L114,501Z" fill="rgb(165,125,173)" stroke="rgb(165,125,173)" stroke-width="1.51"></path><path d="M638,499L712,499L713,424Z" fill="rgb(73,0,106)" stroke="rgb(73,0,106)" stroke-width="1.51"></path><path d="M488,501L712,499L562,500Z" fill="rgb(78,0,107)" stroke="rgb(78,0,107)" stroke-width="1.51"></path></svg>