<svg width="600" height="400" xmlns="http://www.w3.org/2000/svg"><path d="M275,182L330,185L283,131Z" fill="rgb(128,176,212)" stroke="rgb(128,176,212)" stroke-width="1.51"></path><path d="M330,185L347,128L283,131Z" fill="rgb(133,176,211)" stroke="rgb(133,176,211)" stroke-width="1.51"></path><path d="M275,182L284,265L330,185Z" fill="rgb(101,167,206)" stroke="rgb(101,167,206)" stroke-width="1.51"></path><path d="M284,265L325,271L330,185Z" fill="rgb(81,157,200)" stroke="rgb(81,157,200)" stroke-width="1.51"></path><path d="M422,181L415,130L347,128Z" fill="rgb(115,165,199)" stroke="rgb(115,165,199)" stroke-width="1.51"></path><path d="M347,128L350,57L283,131Z" fill="rgb(151,183,216)" stroke="rgb(151,183,216)" stroke-width="1.51"></path><path d="M347,128L415,130L350,57Z" fill="rgb(140,176,211)" stroke="rgb(140,176,211)" stroke-width="1.51"></path><path d="M422,181L347,128L330,185Z" fill="rgb(110,165,205)" stroke="rgb(110,165,205)" stroke-width="1.51"></path><path d="M415,269L422,181L330,185Z" fill="rgb(72,152,192)" stroke="rgb(72,152,192)" stroke-width="1.51"></path><path d="M283,131L171,111L275,182Z" fill="rgb(163,188,218)" stroke="rgb(163,188,218)" stroke-width="1.51"></path><path d="M275,182L209,265L284,265Z" fill="rgb(109,165,205)" stroke="rgb(109,165,205)" stroke-width="1.51"></path><path d="M350,57L244,35L283,131Z" fill="rgb(169,194,222)" stroke="rgb(169,194,222)" stroke-width="1.51"></path><path d="M168,212L209,265L275,182Z" fill="rgb(131,175,211)" stroke="rgb(131,175,211)" stroke-width="1.51"></path><path d="M284,265L340,327L325,271Z" fill="rgb(64,148,177)" stroke="rgb(64,148,177)" stroke-width="1.51"></path><path d="M244,35L171,111L283,131Z" fill="rgb(186,199,225)" stroke="rgb(186,199,225)" stroke-width="1.51"></path><path d="M171,111L168,212L275,182Z" fill="rgb(162,188,219)" stroke="rgb(162,188,219)" stroke-width="1.51"></path><path d="M415,130L426,71L350,57Z" fill="rgb(141,177,204)" stroke="rgb(141,177,204)" stroke-width="1.51"></path><path d="M357,-38L245,-26L244,35Z" fill="rgb(190,210,231)" stroke="rgb(190,210,231)" stroke-width="1.51"></path><path d="M502,135L426,71L415,130Z" fill="rgb(121,166,183)" stroke="rgb(121,166,183)" stroke-width="1.51"></path><path d="M325,271L415,269L330,185Z" fill="rgb(66,149,195)" stroke="rgb(66,149,195)" stroke-width="1.51"></path><path d="M244,35L172,68L171,111Z" fill="rgb(204,208,229)" stroke="rgb(204,208,229)" stroke-width="1.51"></path><path d="M171,111L112,109L168,212Z" fill="rgb(190,200,225)" stroke="rgb(190,200,225)" stroke-width="1.51"></path><path d="M325,271L340,327L415,269Z" fill="rgb(47,141,172)" stroke="rgb(47,141,172)" stroke-width="1.51"></path><path d="M279,350L340,327L284,265Z" fill="rgb(64,146,165)" stroke="rgb(64,146,165)" stroke-width="1.51"></path><path d="M415,269L468,220L422,181Z" fill="rgb(56,145,174)" stroke="rgb(56,145,174)" stroke-width="1.51"></path><path d="M422,181L502,135L415,130Z" fill="rgb(104,160,179)" stroke="rgb(104,160,179)" stroke-width="1.51"></path><path d="M209,265L279,350L284,265Z" fill="rgb(90,155,179)" stroke="rgb(90,155,179)" stroke-width="1.51"></path><path d="M357,-38L244,35L350,57Z" fill="rgb(176,200,226)" stroke="rgb(176,200,226)" stroke-width="1.51"></path><path d="M244,35L197,-37L172,68Z" fill="rgb(213,216,234)" stroke="rgb(213,216,234)" stroke-width="1.51"></path><path d="M134,46L112,109L172,68Z" fill="rgb(217,214,233)" stroke="rgb(217,214,233)" stroke-width="1.51"></path><path d="M172,68L112,109L171,111Z" fill="rgb(209,210,230)" stroke="rgb(209,210,230)" stroke-width="1.51"></path><path d="M468,220L502,135L422,181Z" fill="rgb(82,151,170)" stroke="rgb(82,151,170)" stroke-width="1.51"></path><path d="M197,-37L134,46L172,68Z" fill="rgb(222,220,236)" stroke="rgb(222,220,236)" stroke-width="1.51"></path><path d="M403,-24L357,-38L350,57Z" fill="rgb(167,195,222)" stroke="rgb(167,195,222)" stroke-width="1.51"></path><path d="M403,-24L350,57L426,71Z" fill="rgb(155,185,211)" stroke="rgb(155,185,211)" stroke-width="1.51"></path><path d="M482,30L403,-24L426,71Z" fill="rgb(147,183,195)" stroke="rgb(147,183,195)" stroke-width="1.51"></path><path d="M209,265L169,365L279,350Z" fill="rgb(101,154,164)" stroke="rgb(101,154,164)" stroke-width="1.51"></path><path d="M168,212L126,278L209,265Z" fill="rgb(135,174,208)" stroke="rgb(135,174,208)" stroke-width="1.51"></path><path d="M95,219L126,278L168,212Z" fill="rgb(150,182,215)" stroke="rgb(150,182,215)" stroke-width="1.51"></path><path d="M112,109L95,219L168,212Z" fill="rgb(175,196,223)" stroke="rgb(175,196,223)" stroke-width="1.51"></path><path d="M340,327L395,358L415,269Z" fill="rgb(34,132,152)" stroke="rgb(34,132,152)" stroke-width="1.51"></path><path d="M415,269L503,273L468,220Z" fill="rgb(34,135,159)" stroke="rgb(34,135,159)" stroke-width="1.51"></path><path d="M322,420L395,358L340,327Z" fill="rgb(43,122,134)" stroke="rgb(43,122,134)" stroke-width="1.51"></path><path d="M502,135L482,30L426,71Z" fill="rgb(130,169,178)" stroke="rgb(130,169,178)" stroke-width="1.51"></path><path d="M177,-88L197,-37L245,-26Z" fill="rgb(216,220,236)" stroke="rgb(216,220,236)" stroke-width="1.51"></path><path d="M245,-26L197,-37L244,35Z" fill="rgb(209,217,234)" stroke="rgb(209,217,234)" stroke-width="1.51"></path><path d="M468,220L583,186L502,135Z" fill="rgb(77,143,151)" stroke="rgb(77,143,151)" stroke-width="1.51"></path><path d="M481,332L503,273L415,269Z" fill="rgb(12,128,137)" stroke="rgb(12,128,137)" stroke-width="1.51"></path><path d="M126,278L169,365L209,265Z" fill="rgb(120,166,180)" stroke="rgb(120,166,180)" stroke-width="1.51"></path><path d="M279,350L322,420L340,327Z" fill="rgb(56,130,139)" stroke="rgb(56,130,139)" stroke-width="1.51"></path><path d="M133,364L169,365L126,278Z" fill="rgb(122,162,165)" stroke="rgb(122,162,165)" stroke-width="1.51"></path><path d="M169,365L272,404L279,350Z" fill="rgb(86,137,142)" stroke="rgb(86,137,142)" stroke-width="1.51"></path><path d="M492,417L481,332L395,358Z" fill="rgb(5,110,104)" stroke="rgb(5,110,104)" stroke-width="1.51"></path><path d="M395,358L481,332L415,269Z" fill="rgb(17,127,135)" stroke="rgb(17,127,135)" stroke-width="1.51"></path><path d="M482,30L478,-23L403,-24Z" fill="rgb(149,187,191)" stroke="rgb(149,187,191)" stroke-width="1.51"></path><path d="M433,-104L336,-96L357,-38Z" fill="rgb(165,194,222)" stroke="rgb(165,194,222)" stroke-width="1.51"></path><path d="M564,-13L478,-23L482,30Z" fill="rgb(143,179,172)" stroke="rgb(143,179,172)" stroke-width="1.51"></path><path d="M95,219L38,279L126,278Z" fill="rgb(151,181,210)" stroke="rgb(151,181,210)" stroke-width="1.51"></path><path d="M112,109L53,202L95,219Z" fill="rgb(185,200,226)" stroke="rgb(185,200,226)" stroke-width="1.51"></path><path d="M43,129L53,202L112,109Z" fill="rgb(203,209,231)" stroke="rgb(203,209,231)" stroke-width="1.51"></path><path d="M357,-38L336,-96L245,-26Z" fill="rgb(180,205,228)" stroke="rgb(180,205,228)" stroke-width="1.51"></path><path d="M433,-104L357,-38L403,-24Z" fill="rgb(161,192,213)" stroke="rgb(161,192,213)" stroke-width="1.51"></path><path d="M272,404L322,420L279,350Z" fill="rgb(61,122,130)" stroke="rgb(61,122,130)" stroke-width="1.51"></path><path d="M568,103L541,50L502,135Z" fill="rgb(118,155,154)" stroke="rgb(118,155,154)" stroke-width="1.51"></path><path d="M502,135L541,50L482,30Z" fill="rgb(128,166,165)" stroke="rgb(128,166,165)" stroke-width="1.51"></path><path d="M55,30L43,129L112,109Z" fill="rgb(226,220,236)" stroke="rgb(226,220,236)" stroke-width="1.51"></path><path d="M55,30L112,109L134,46Z" fill="rgb(228,221,238)" stroke="rgb(228,221,238)" stroke-width="1.51"></path><path d="M169,365L203,440L272,404Z" fill="rgb(91,129,133)" stroke="rgb(91,129,133)" stroke-width="1.51"></path><path d="M272,404L317,489L322,420Z" fill="rgb(55,117,126)" stroke="rgb(55,117,126)" stroke-width="1.51"></path><path d="M58,338L133,364L126,278Z" fill="rgb(131,168,172)" stroke="rgb(131,168,172)" stroke-width="1.51"></path><path d="M583,186L568,103L502,135Z" fill="rgb(97,143,146)" stroke="rgb(97,143,146)" stroke-width="1.51"></path><path d="M558,257L468,220L503,273Z" fill="rgb(36,128,144)" stroke="rgb(36,128,144)" stroke-width="1.51"></path><path d="M569,339L558,257L503,273Z" fill="rgb(14,115,114)" stroke="rgb(14,115,114)" stroke-width="1.51"></path><path d="M197,-37L110,-35L134,46Z" fill="rgb(232,228,240)" stroke="rgb(232,228,240)" stroke-width="1.51"></path><path d="M177,-88L110,-35L197,-37Z" fill="rgb(228,226,239)" stroke="rgb(228,226,239)" stroke-width="1.51"></path><path d="M272,-123L177,-88L245,-26Z" fill="rgb(208,217,235)" stroke="rgb(208,217,235)" stroke-width="1.51"></path><path d="M558,257L583,186L468,220Z" fill="rgb(52,130,141)" stroke="rgb(52,130,141)" stroke-width="1.51"></path><path d="M110,-35L55,30L134,46Z" fill="rgb(238,230,242)" stroke="rgb(238,230,242)" stroke-width="1.51"></path><path d="M336,-96L272,-123L245,-26Z" fill="rgb(189,209,231)" stroke="rgb(189,209,231)" stroke-width="1.51"></path><path d="M322,420L411,429L395,358Z" fill="rgb(32,106,119)" stroke="rgb(32,106,119)" stroke-width="1.51"></path><path d="M481,332L569,339L503,273Z" fill="rgb(4,116,108)" stroke="rgb(4,116,108)" stroke-width="1.51"></path><path d="M53,202L38,279L95,219Z" fill="rgb(163,190,220)" stroke="rgb(163,190,220)" stroke-width="1.51"></path><path d="M-42,200L38,279L53,202Z" fill="rgb(172,198,224)" stroke="rgb(172,198,224)" stroke-width="1.51"></path><path d="M336,-96L433,-104L272,-123Z" fill="rgb(172,199,225)" stroke="rgb(172,199,225)" stroke-width="1.51"></path><path d="M478,-23L433,-104L403,-24Z" fill="rgb(152,188,197)" stroke="rgb(152,188,197)" stroke-width="1.51"></path><path d="M493,-118L433,-104L478,-23Z" fill="rgb(147,184,187)" stroke="rgb(147,184,187)" stroke-width="1.51"></path><path d="M322,420L399,500L411,429Z" fill="rgb(31,106,119)" stroke="rgb(31,106,119)" stroke-width="1.51"></path><path d="M98,440L203,440L169,365Z" fill="rgb(106,136,136)" stroke="rgb(106,136,136)" stroke-width="1.51"></path><path d="M98,440L169,365L133,364Z" fill="rgb(113,144,142)" stroke="rgb(113,144,142)" stroke-width="1.51"></path><path d="M38,279L58,338L126,278Z" fill="rgb(141,178,189)" stroke="rgb(141,178,189)" stroke-width="1.51"></path><path d="M541,50L564,-13L482,30Z" fill="rgb(136,171,163)" stroke="rgb(136,171,163)" stroke-width="1.51"></path><path d="M637,70L564,-13L541,50Z" fill="rgb(127,154,148)" stroke="rgb(127,154,148)" stroke-width="1.51"></path><path d="M637,70L541,50L568,103Z" fill="rgb(117,147,144)" stroke="rgb(117,147,144)" stroke-width="1.51"></path><path d="M110,-35L58,-36L55,30Z" fill="rgb(245,236,245)" stroke="rgb(245,236,245)" stroke-width="1.51"></path><path d="M-58,117L-42,200L43,129Z" fill="rgb(211,218,235)" stroke="rgb(211,218,235)" stroke-width="1.51"></path><path d="M97,-94L58,-36L110,-35Z" fill="rgb(243,235,244)" stroke="rgb(243,235,244)" stroke-width="1.51"></path><path d="M411,429L492,417L395,358Z" fill="rgb(13,101,100)" stroke="rgb(13,101,100)" stroke-width="1.51"></path><path d="M558,257L636,219L583,186Z" fill="rgb(47,115,126)" stroke="rgb(47,115,126)" stroke-width="1.51"></path><path d="M492,417L569,339L481,332Z" fill="rgb(2,104,88)" stroke="rgb(2,104,88)" stroke-width="1.51"></path><path d="M177,-88L97,-94L110,-35Z" fill="rgb(235,230,242)" stroke="rgb(235,230,242)" stroke-width="1.51"></path><path d="M272,-123L97,-94L177,-88Z" fill="rgb(223,223,238)" stroke="rgb(223,223,238)" stroke-width="1.51"></path><path d="M203,440L242,483L272,404Z" fill="rgb(82,126,131)" stroke="rgb(82,126,131)" stroke-width="1.51"></path><path d="M411,429L504,496L492,417Z" fill="rgb(4,96,88)" stroke="rgb(4,96,88)" stroke-width="1.51"></path><path d="M190,510L242,483L203,440Z" fill="rgb(92,130,133)" stroke="rgb(92,130,133)" stroke-width="1.51"></path><path d="M242,483L317,489L272,404Z" fill="rgb(66,121,128)" stroke="rgb(66,121,128)" stroke-width="1.51"></path><path d="M433,-104L493,-118L272,-123Z" fill="rgb(160,192,212)" stroke="rgb(160,192,212)" stroke-width="1.51"></path><path d="M544,-113L493,-118L478,-23Z" fill="rgb(143,179,173)" stroke="rgb(143,179,173)" stroke-width="1.51"></path><path d="M651,146L637,70L568,103Z" fill="rgb(106,136,136)" stroke="rgb(106,136,136)" stroke-width="1.51"></path><path d="M622,279L636,219L558,257Z" fill="rgb(31,106,119)" stroke="rgb(31,106,119)" stroke-width="1.51"></path><path d="M569,339L622,279L558,257Z" fill="rgb(11,104,103)" stroke="rgb(11,104,103)" stroke-width="1.51"></path><path d="M564,-13L544,-113L478,-23Z" fill="rgb(140,175,165)" stroke="rgb(140,175,165)" stroke-width="1.51"></path><path d="M651,146L568,103L583,186Z" fill="rgb(90,129,132)" stroke="rgb(90,129,132)" stroke-width="1.51"></path><path d="M58,338L98,440L133,364Z" fill="rgb(122,151,147)" stroke="rgb(122,151,147)" stroke-width="1.51"></path><path d="M636,219L651,146L583,186Z" fill="rgb(67,121,128)" stroke="rgb(67,121,128)" stroke-width="1.51"></path><path d="M38,279L-50,366L58,338Z" fill="rgb(143,179,177)" stroke="rgb(143,179,177)" stroke-width="1.51"></path><path d="M58,338L31,413L98,440Z" fill="rgb(124,148,143)" stroke="rgb(124,148,143)" stroke-width="1.51"></path><path d="M43,129L-42,200L53,202Z" fill="rgb(194,210,231)" stroke="rgb(194,210,231)" stroke-width="1.51"></path><path d="M-29,47L43,129L55,30Z" fill="rgb(237,230,242)" stroke="rgb(237,230,242)" stroke-width="1.51"></path><path d="M-23,-43L-29,47L55,30Z" fill="rgb(253,244,250)" stroke="rgb(253,244,250)" stroke-width="1.51"></path><path d="M-23,-43L55,30L58,-36Z" fill="rgb(251,243,249)" stroke="rgb(251,243,249)" stroke-width="1.51"></path><path d="M190,510L399,500L317,489Z" fill="rgb(55,117,127)" stroke="rgb(55,117,127)" stroke-width="1.51"></path><path d="M317,489L399,500L322,420Z" fill="rgb(42,111,122)" stroke="rgb(42,111,122)" stroke-width="1.51"></path><path d="M-42,200L-40,268L38,279Z" fill="rgb(166,194,222)" stroke="rgb(166,194,222)" stroke-width="1.51"></path><path d="M660,-88L544,-113L564,-13Z" fill="rgb(132,158,149)" stroke="rgb(132,158,149)" stroke-width="1.51"></path><path d="M-29,47L-58,117L43,129Z" fill="rgb(232,228,240)" stroke="rgb(232,228,240)" stroke-width="1.51"></path><path d="M-42,200L-105,263L-40,268Z" fill="rgb(168,196,223)" stroke="rgb(168,196,223)" stroke-width="1.51"></path><path d="M53,480L122,477L98,440Z" fill="rgb(119,143,140)" stroke="rgb(119,143,140)" stroke-width="1.51"></path><path d="M98,440L122,477L203,440Z" fill="rgb(110,138,137)" stroke="rgb(110,138,137)" stroke-width="1.51"></path><path d="M242,483L190,510L317,489Z" fill="rgb(78,124,130)" stroke="rgb(78,124,130)" stroke-width="1.51"></path><path d="M122,477L190,510L203,440Z" fill="rgb(103,134,135)" stroke="rgb(103,134,135)" stroke-width="1.51"></path><path d="M-50,366L31,413L58,338Z" fill="rgb(135,165,156)" stroke="rgb(135,165,156)" stroke-width="1.51"></path><path d="M569,339L640,367L622,279Z" fill="rgb(3,93,81)" stroke="rgb(3,93,81)" stroke-width="1.51"></path><path d="M492,417L549,442L569,339Z" fill="rgb(1,86,68)" stroke="rgb(1,86,68)" stroke-width="1.51"></path><path d="M504,496L549,442L492,417Z" fill="rgb(2,90,74)" stroke="rgb(2,90,74)" stroke-width="1.51"></path><path d="M26,-119L-23,-43L58,-36Z" fill="rgb(252,244,249)" stroke="rgb(252,244,249)" stroke-width="1.51"></path><path d="M-111,56L-108,133L-58,117Z" fill="rgb(230,227,240)" stroke="rgb(230,227,240)" stroke-width="1.51"></path><path d="M399,500L504,496L411,429Z" fill="rgb(11,100,98)" stroke="rgb(11,100,98)" stroke-width="1.51"></path><path d="M568,520L504,496L399,500Z" fill="rgb(3,93,82)" stroke="rgb(3,93,82)" stroke-width="1.51"></path><path d="M97,-94L26,-119L58,-36Z" fill="rgb(247,238,246)" stroke="rgb(247,238,246)" stroke-width="1.51"></path><path d="M272,-123L26,-119L97,-94Z" fill="rgb(235,230,241)" stroke="rgb(235,230,241)" stroke-width="1.51"></path><path d="M549,442L640,367L569,339Z" fill="rgb(1,80,63)" stroke="rgb(1,80,63)" stroke-width="1.51"></path><path d="M705,269L712,220L636,219Z" fill="rgb(40,109,122)" stroke="rgb(40,109,122)" stroke-width="1.51"></path><path d="M636,219L712,220L651,146Z" fill="rgb(59,119,127)" stroke="rgb(59,119,127)" stroke-width="1.51"></path><path d="M656,420L640,367L549,442Z" fill="rgb(1,70,54)" stroke="rgb(1,70,54)" stroke-width="1.51"></path><path d="M637,70L657,-26L564,-13Z" fill="rgb(128,153,145)" stroke="rgb(128,153,145)" stroke-width="1.51"></path><path d="M724,69L657,-26L637,70Z" fill="rgb(124,147,143)" stroke="rgb(124,147,143)" stroke-width="1.51"></path><path d="M31,413L53,480L98,440Z" fill="rgb(124,147,142)" stroke="rgb(124,147,142)" stroke-width="1.51"></path><path d="M122,477L53,480L190,510Z" fill="rgb(114,140,139)" stroke="rgb(114,140,139)" stroke-width="1.51"></path><path d="M-42,478L53,480L31,413Z" fill="rgb(128,153,145)" stroke="rgb(128,153,145)" stroke-width="1.51"></path><path d="M-92,339L-50,366L-40,268Z" fill="rgb(145,182,180)" stroke="rgb(145,182,180)" stroke-width="1.51"></path><path d="M-40,268L-50,366L38,279Z" fill="rgb(149,186,191)" stroke="rgb(149,186,191)" stroke-width="1.51"></path><path d="M651,146L724,69L637,70Z" fill="rgb(110,138,137)" stroke="rgb(110,138,137)" stroke-width="1.51"></path><path d="M705,269L636,219L622,279Z" fill="rgb(30,105,117)" stroke="rgb(30,105,117)" stroke-width="1.51"></path><path d="M-58,117L-108,133L-42,200Z" fill="rgb(211,218,235)" stroke="rgb(211,218,235)" stroke-width="1.51"></path><path d="M-111,56L-58,117L-29,47Z" fill="rgb(239,232,243)" stroke="rgb(239,232,243)" stroke-width="1.51"></path><path d="M713,346L705,269L622,279Z" fill="rgb(6,99,95)" stroke="rgb(6,99,95)" stroke-width="1.51"></path><path d="M-123,197L-105,263L-42,200Z" fill="rgb(176,202,226)" stroke="rgb(176,202,226)" stroke-width="1.51"></path><path d="M-108,133L-123,197L-42,200Z" fill="rgb(196,212,232)" stroke="rgb(196,212,232)" stroke-width="1.51"></path><path d="M-108,-40L-111,56L-29,47Z" fill="rgb(251,242,248)" stroke="rgb(251,242,248)" stroke-width="1.51"></path><path d="M-108,-40L-29,47L-23,-43Z" fill="rgb(255,247,251)" stroke="rgb(255,247,251)" stroke-width="1.51"></path><path d="M-111,56L-123,197L-108,133Z" fill="rgb(220,222,238)" stroke="rgb(220,222,238)" stroke-width="1.51"></path><path d="M26,-119L-22,-118L-23,-43Z" fill="rgb(255,247,251)" stroke="rgb(255,247,251)" stroke-width="1.51"></path><path d="M712,220L733,142L651,146Z" fill="rgb(76,124,130)" stroke="rgb(76,124,130)" stroke-width="1.51"></path><path d="M713,346L733,142L712,220Z" fill="rgb(40,109,122)" stroke="rgb(40,109,122)" stroke-width="1.51"></path><path d="M733,142L724,69L651,146Z" fill="rgb(101,133,135)" stroke="rgb(101,133,135)" stroke-width="1.51"></path><path d="M-130,408L-92,339L-105,263Z" fill="rgb(143,179,173)" stroke="rgb(143,179,173)" stroke-width="1.51"></path><path d="M-105,263L-92,339L-40,268Z" fill="rgb(153,188,199)" stroke="rgb(153,188,199)" stroke-width="1.51"></path><path d="M-50,366L-47,426L31,413Z" fill="rgb(130,155,146)" stroke="rgb(130,155,146)" stroke-width="1.51"></path><path d="M657,-26L660,-88L564,-13Z" fill="rgb(130,155,146)" stroke="rgb(130,155,146)" stroke-width="1.51"></path><path d="M690,-45L660,-88L657,-26Z" fill="rgb(130,155,146)" stroke="rgb(130,155,146)" stroke-width="1.51"></path><path d="M724,69L690,-45L657,-26Z" fill="rgb(130,155,146)" stroke="rgb(130,155,146)" stroke-width="1.51"></path><path d="M646,478L656,420L549,442Z" fill="rgb(1,70,54)" stroke="rgb(1,70,54)" stroke-width="1.51"></path><path d="M640,367L713,346L622,279Z" fill="rgb(3,93,80)" stroke="rgb(3,93,80)" stroke-width="1.51"></path><path d="M-130,408L-47,426L-50,366Z" fill="rgb(130,155,146)" stroke="rgb(130,155,146)" stroke-width="1.51"></path><path d="M504,496L568,520L549,442Z" fill="rgb(1,85,68)" stroke="rgb(1,85,68)" stroke-width="1.51"></path><path d="M190,510L568,520L399,500Z" fill="rgb(29,105,116)" stroke="rgb(29,105,116)" stroke-width="1.51"></path><path d="M699,413L713,346L640,367Z" fill="rgb(1,79,62)" stroke="rgb(1,79,62)" stroke-width="1.51"></path><path d="M705,269L713,346L712,220Z" fill="rgb(19,102,105)" stroke="rgb(19,102,105)" stroke-width="1.51"></path><path d="M-111,56L-126,-99L-123,197Z" fill="rgb(245,236,245)" stroke="rgb(245,236,245)" stroke-width="1.51"></path><path d="M-22,-118L-108,-40L-23,-43Z" fill="rgb(255,247,251)" stroke="rgb(255,247,251)" stroke-width="1.51"></path><path d="M656,420L699,413L640,367Z" fill="rgb(1,70,54)" stroke="rgb(1,70,54)" stroke-width="1.51"></path><path d="M568,520L646,478L549,442Z" fill="rgb(1,73,57)" stroke="rgb(1,73,57)" stroke-width="1.51"></path><path d="M646,478L699,413L656,420Z" fill="rgb(1,70,54)" stroke="rgb(1,70,54)" stroke-width="1.51"></path><path d="M-47,426L-42,478L31,413Z" fill="rgb(130,155,146)" stroke="rgb(130,155,146)" stroke-width="1.51"></path><path d="M53,480L-99,522L190,510Z" fill="rgb(125,149,143)" stroke="rgb(125,149,143)" stroke-width="1.51"></path><path d="M-130,408L-42,478L-47,426Z" fill="rgb(130,155,146)" stroke="rgb(130,155,146)" stroke-width="1.51"></path><path d="M690,-45L721,-103L660,-88Z" fill="rgb(130,155,146)" stroke="rgb(130,155,146)" stroke-width="1.51"></path><path d="M660,-88L721,-103L544,-113Z" fill="rgb(130,155,146)" stroke="rgb(130,155,146)" stroke-width="1.51"></path><path d="M544,-113L721,-103L493,-118Z" fill="rgb(132,159,150)" stroke="rgb(132,159,150)" stroke-width="1.51"></path><path d="M724,69L721,-103L690,-45Z" fill="rgb(130,155,146)" stroke="rgb(130,155,146)" stroke-width="1.51"></path><path d="M733,142L721,-103L724,69Z" fill="rgb(124,148,143)" stroke="rgb(124,148,143)" stroke-width="1.51"></path><path d="M-92,339L-130,408L-50,366Z" fill="rgb(136,167,158)" stroke="rgb(136,167,158)" stroke-width="1.51"></path><path d="M-123,197L-130,408L-105,263Z" fill="rgb(153,188,199)" stroke="rgb(153,188,199)" stroke-width="1.51"></path><path d="M-22,-118L-126,-99L-108,-40Z" fill="rgb(255,247,251)" stroke="rgb(255,247,251)" stroke-width="1.51"></path><path d="M-108,-40L-126,-99L-111,56Z" fill="rgb(255,247,251)" stroke="rgb(255,247,251)" stroke-width="1.51"></path><path d="M-123,197L-126,-99L-130,408Z" fill="rgb(201,214,233)" stroke="rgb(201,214,233)" stroke-width="1.51"></path><path d="M-42,478L-99,522L53,480Z" fill="rgb(130,155,146)" stroke="rgb(130,155,146)" stroke-width="1.51"></path><path d="M190,510L-99,522L568,520Z" fill="rgb(89,128,132)" stroke="rgb(89,128,132)" stroke-width="1.51"></path><path d="M-130,408L-99,522L-42,478Z" fill="rgb(130,155,146)" stroke="rgb(130,155,146)" stroke-width="1.51"></path><path d="M646,478L724,505L699,413Z" fill="rgb(1,70,54)" stroke="rgb(1,70,54)" stroke-width="1.51"></path><path d="M699,413L724,505L713,346Z" fill="rgb(1,70,54)" stroke="rgb(1,70,54)" stroke-width="1.51"></path><path d="M713,346L724,505L733,142Z" fill="rgb(3,93,80)" stroke="rgb(3,93,80)" stroke-width="1.51"></path><path d="M568,520L724,505L646,478Z" fill="rgb(1,70,54)" stroke="rgb(1,70,54)" stroke-width="1.51"></path></svg>