<svg width="600" height="400" xmlns="http://www.w3.org/2000/svg"><path d="M330,194L335,274L402,204Z" fill="rgb(141,124,185)" stroke="rgb(141,124,185)" stroke-width="1.51"></path><path d="M335,274L423,279L402,204Z" fill="rgb(140,103,175)" stroke="rgb(140,103,175)" stroke-width="1.51"></path><path d="M330,194L253,275L335,274Z" fill="rgb(141,128,187)" stroke="rgb(141,128,187)" stroke-width="1.51"></path><path d="M253,196L253,275L330,194Z" fill="rgb(143,146,196)" stroke="rgb(143,146,196)" stroke-width="1.51"></path><path d="M335,274L409,345L423,279Z" fill="rgb(138,84,165)" stroke="rgb(138,84,165)" stroke-width="1.51"></path><path d="M410,119L326,117L330,194Z" fill="rgb(152,154,201)" stroke="rgb(152,154,201)" stroke-width="1.51"></path><path d="M330,194L254,123L253,196Z" fill="rgb(148,166,207)" stroke="rgb(148,166,207)" stroke-width="1.51"></path><path d="M264,347L335,350L335,274Z" fill="rgb(140,98,168)" stroke="rgb(140,98,168)" stroke-width="1.51"></path><path d="M335,350L409,345L335,274Z" fill="rgb(138,83,161)" stroke="rgb(138,83,161)" stroke-width="1.51"></path><path d="M402,204L410,119L330,194Z" fill="rgb(146,138,192)" stroke="rgb(146,138,192)" stroke-width="1.51"></path><path d="M488,202L410,119L402,204Z" fill="rgb(146,123,184)" stroke="rgb(146,123,184)" stroke-width="1.51"></path><path d="M423,279L488,202L402,204Z" fill="rgb(140,100,173)" stroke="rgb(140,100,173)" stroke-width="1.51"></path><path d="M480,347L477,280L423,279Z" fill="rgb(136,62,154)" stroke="rgb(136,62,154)" stroke-width="1.51"></path><path d="M477,280L488,202L423,279Z" fill="rgb(138,82,163)" stroke="rgb(138,82,163)" stroke-width="1.51"></path><path d="M253,275L264,347L335,274Z" fill="rgb(143,114,180)" stroke="rgb(143,114,180)" stroke-width="1.51"></path><path d="M326,117L254,123L330,194Z" fill="rgb(151,169,208)" stroke="rgb(151,169,208)" stroke-width="1.51"></path><path d="M570,266L568,206L488,202Z" fill="rgb(132,79,150)" stroke="rgb(132,79,150)" stroke-width="1.51"></path><path d="M409,345L480,347L423,279Z" fill="rgb(135,60,150)" stroke="rgb(135,60,150)" stroke-width="1.51"></path><path d="M403,435L480,347L409,345Z" fill="rgb(120,46,129)" stroke="rgb(120,46,129)" stroke-width="1.51"></path><path d="M488,202L496,136L410,119Z" fill="rgb(150,124,183)" stroke="rgb(150,124,183)" stroke-width="1.51"></path><path d="M568,206L496,136L488,202Z" fill="rgb(144,101,165)" stroke="rgb(144,101,165)" stroke-width="1.51"></path><path d="M253,196L186,265L253,275Z" fill="rgb(150,148,197)" stroke="rgb(150,148,197)" stroke-width="1.51"></path><path d="M253,275L192,342L264,347Z" fill="rgb(149,118,179)" stroke="rgb(149,118,179)" stroke-width="1.51"></path><path d="M190,132L187,200L253,196Z" fill="rgb(157,180,214)" stroke="rgb(157,180,214)" stroke-width="1.51"></path><path d="M187,200L186,265L253,196Z" fill="rgb(153,163,205)" stroke="rgb(153,163,205)" stroke-width="1.51"></path><path d="M410,119L415,60L326,117Z" fill="rgb(167,156,202)" stroke="rgb(167,156,202)" stroke-width="1.51"></path><path d="M326,117L268,53L254,123Z" fill="rgb(169,185,217)" stroke="rgb(169,185,217)" stroke-width="1.51"></path><path d="M498,54L415,60L410,119Z" fill="rgb(174,146,197)" stroke="rgb(174,146,197)" stroke-width="1.51"></path><path d="M335,350L332,421L409,345Z" fill="rgb(126,70,141)" stroke="rgb(126,70,141)" stroke-width="1.51"></path><path d="M264,347L332,421L335,350Z" fill="rgb(126,84,147)" stroke="rgb(126,84,147)" stroke-width="1.51"></path><path d="M261,419L332,421L264,347Z" fill="rgb(116,84,138)" stroke="rgb(116,84,138)" stroke-width="1.51"></path><path d="M415,60L331,43L326,117Z" fill="rgb(175,169,209)" stroke="rgb(175,169,209)" stroke-width="1.51"></path><path d="M254,123L190,132L253,196Z" fill="rgb(157,186,217)" stroke="rgb(157,186,217)" stroke-width="1.51"></path><path d="M176,47L190,132L254,123Z" fill="rgb(179,202,226)" stroke="rgb(179,202,226)" stroke-width="1.51"></path><path d="M186,265L192,342L253,275Z" fill="rgb(154,132,189)" stroke="rgb(154,132,189)" stroke-width="1.51"></path><path d="M331,43L268,53L326,117Z" fill="rgb(175,184,217)" stroke="rgb(175,184,217)" stroke-width="1.51"></path><path d="M332,421L403,435L409,345Z" fill="rgb(109,56,123)" stroke="rgb(109,56,123)" stroke-width="1.51"></path><path d="M570,266L488,202L477,280Z" fill="rgb(137,73,153)" stroke="rgb(137,73,153)" stroke-width="1.51"></path><path d="M569,351L477,280L480,347Z" fill="rgb(132,37,135)" stroke="rgb(132,37,135)" stroke-width="1.51"></path><path d="M569,351L570,266L477,280Z" fill="rgb(128,43,136)" stroke="rgb(128,43,136)" stroke-width="1.51"></path><path d="M195,418L261,419L264,347Z" fill="rgb(122,96,144)" stroke="rgb(122,96,144)" stroke-width="1.51"></path><path d="M340,500L403,496L403,435Z" fill="rgb(109,56,123)" stroke="rgb(109,56,123)" stroke-width="1.51"></path><path d="M415,60L418,-29L331,43Z" fill="rgb(189,170,211)" stroke="rgb(189,170,211)" stroke-width="1.51"></path><path d="M496,136L498,54L410,119Z" fill="rgb(165,134,189)" stroke="rgb(165,134,189)" stroke-width="1.51"></path><path d="M563,121L498,54L496,136Z" fill="rgb(165,122,177)" stroke="rgb(165,122,177)" stroke-width="1.51"></path><path d="M568,206L563,121L496,136Z" fill="rgb(143,107,163)" stroke="rgb(143,107,163)" stroke-width="1.51"></path><path d="M555,416L569,351L480,347Z" fill="rgb(114,9,110)" stroke="rgb(114,9,110)" stroke-width="1.51"></path><path d="M403,435L496,432L480,347Z" fill="rgb(106,32,113)" stroke="rgb(106,32,113)" stroke-width="1.51"></path><path d="M186,265L119,269L192,342Z" fill="rgb(163,139,193)" stroke="rgb(163,139,193)" stroke-width="1.51"></path><path d="M192,342L195,418L264,347Z" fill="rgb(141,107,160)" stroke="rgb(141,107,160)" stroke-width="1.51"></path><path d="M114,206L119,269L186,265Z" fill="rgb(169,161,205)" stroke="rgb(169,161,205)" stroke-width="1.51"></path><path d="M114,206L186,265L187,200Z" fill="rgb(164,168,208)" stroke="rgb(164,168,208)" stroke-width="1.51"></path><path d="M190,132L114,206L187,200Z" fill="rgb(167,186,217)" stroke="rgb(167,186,217)" stroke-width="1.51"></path><path d="M107,114L114,206L190,132Z" fill="rgb(178,201,225)" stroke="rgb(178,201,225)" stroke-width="1.51"></path><path d="M118,345L195,418L192,342Z" fill="rgb(151,114,165)" stroke="rgb(151,114,165)" stroke-width="1.51"></path><path d="M340,500L403,435L332,421Z" fill="rgb(110,63,126)" stroke="rgb(110,63,126)" stroke-width="1.51"></path><path d="M268,53L176,47L254,123Z" fill="rgb(182,204,227)" stroke="rgb(182,204,227)" stroke-width="1.51"></path><path d="M267,-18L176,47L268,53Z" fill="rgb(195,212,231)" stroke="rgb(195,212,231)" stroke-width="1.51"></path><path d="M496,432L555,416L480,347Z" fill="rgb(104,14,103)" stroke="rgb(104,14,103)" stroke-width="1.51"></path><path d="M496,432L553,489L555,416Z" fill="rgb(99,4,96)" stroke="rgb(99,4,96)" stroke-width="1.51"></path><path d="M403,435L493,501L496,432Z" fill="rgb(106,31,112)" stroke="rgb(106,31,112)" stroke-width="1.51"></path><path d="M340,500L332,421L256,492Z" fill="rgb(111,78,133)" stroke="rgb(111,78,133)" stroke-width="1.51"></path><path d="M479,-15L418,-29L415,60Z" fill="rgb(192,160,206)" stroke="rgb(192,160,206)" stroke-width="1.51"></path><path d="M331,43L267,-18L268,53Z" fill="rgb(189,199,224)" stroke="rgb(189,199,224)" stroke-width="1.51"></path><path d="M479,-15L415,60L498,54Z" fill="rgb(186,149,199)" stroke="rgb(186,149,199)" stroke-width="1.51"></path><path d="M328,-34L267,-18L331,43Z" fill="rgb(193,197,224)" stroke="rgb(193,197,224)" stroke-width="1.51"></path><path d="M568,206L643,127L563,121Z" fill="rgb(125,99,146)" stroke="rgb(125,99,146)" stroke-width="1.51"></path><path d="M570,266L627,268L568,206Z" fill="rgb(114,61,128)" stroke="rgb(114,61,128)" stroke-width="1.51"></path><path d="M569,351L627,268L570,266Z" fill="rgb(111,39,119)" stroke="rgb(111,39,119)" stroke-width="1.51"></path><path d="M643,349L627,268L569,351Z" fill="rgb(104,24,108)" stroke="rgb(104,24,108)" stroke-width="1.51"></path><path d="M119,269L118,345L192,342Z" fill="rgb(168,133,188)" stroke="rgb(168,133,188)" stroke-width="1.51"></path><path d="M48,263L118,345L119,269Z" fill="rgb(178,150,200)" stroke="rgb(178,150,200)" stroke-width="1.51"></path><path d="M418,-29L328,-34L331,43Z" fill="rgb(194,182,217)" stroke="rgb(194,182,217)" stroke-width="1.51"></path><path d="M256,492L332,421L261,419Z" fill="rgb(114,84,136)" stroke="rgb(114,84,136)" stroke-width="1.51"></path><path d="M567,46L479,-15L498,54Z" fill="rgb(186,138,187)" stroke="rgb(186,138,187)" stroke-width="1.51"></path><path d="M563,121L567,46L498,54Z" fill="rgb(166,124,173)" stroke="rgb(166,124,173)" stroke-width="1.51"></path><path d="M645,49L567,46L563,121Z" fill="rgb(148,116,156)" stroke="rgb(148,116,156)" stroke-width="1.51"></path><path d="M195,418L256,492L261,419Z" fill="rgb(120,95,142)" stroke="rgb(120,95,142)" stroke-width="1.51"></path><path d="M176,510L256,492L195,418Z" fill="rgb(125,100,145)" stroke="rgb(125,100,145)" stroke-width="1.51"></path><path d="M114,206L48,263L119,269Z" fill="rgb(179,169,210)" stroke="rgb(179,169,210)" stroke-width="1.51"></path><path d="M176,47L107,114L190,132Z" fill="rgb(191,210,230)" stroke="rgb(191,210,230)" stroke-width="1.51"></path><path d="M627,268L647,193L568,206Z" fill="rgb(111,70,130)" stroke="rgb(111,70,130)" stroke-width="1.51"></path><path d="M403,496L493,501L403,435Z" fill="rgb(107,41,117)" stroke="rgb(107,41,117)" stroke-width="1.51"></path><path d="M340,500L493,501L403,496Z" fill="rgb(108,47,119)" stroke="rgb(108,47,119)" stroke-width="1.51"></path><path d="M647,193L643,127L568,206Z" fill="rgb(117,89,139)" stroke="rgb(117,89,139)" stroke-width="1.51"></path><path d="M630,421L643,349L569,351Z" fill="rgb(90,2,87)" stroke="rgb(90,2,87)" stroke-width="1.51"></path><path d="M627,268L706,267L647,193Z" fill="rgb(110,61,126)" stroke="rgb(110,61,126)" stroke-width="1.51"></path><path d="M630,421L569,351L555,416Z" fill="rgb(84,1,82)" stroke="rgb(84,1,82)" stroke-width="1.51"></path><path d="M176,47L106,58L107,114Z" fill="rgb(205,221,236)" stroke="rgb(205,221,236)" stroke-width="1.51"></path><path d="M117,-15L106,58L176,47Z" fill="rgb(216,229,240)" stroke="rgb(216,229,240)" stroke-width="1.51"></path><path d="M35,198L114,206L107,114Z" fill="rgb(185,202,225)" stroke="rgb(185,202,225)" stroke-width="1.51"></path><path d="M35,198L48,263L114,206Z" fill="rgb(184,183,217)" stroke="rgb(184,183,217)" stroke-width="1.51"></path><path d="M493,501L553,489L496,432Z" fill="rgb(103,12,101)" stroke="rgb(103,12,101)" stroke-width="1.51"></path><path d="M328,-34L260,-106L267,-18Z" fill="rgb(196,204,227)" stroke="rgb(196,204,227)" stroke-width="1.51"></path><path d="M267,-18L178,-35L176,47Z" fill="rgb(207,222,237)" stroke="rgb(207,222,237)" stroke-width="1.51"></path><path d="M418,-29L340,-90L328,-34Z" fill="rgb(194,182,217)" stroke="rgb(194,182,217)" stroke-width="1.51"></path><path d="M402,-109L340,-90L418,-29Z" fill="rgb(194,174,213)" stroke="rgb(194,174,213)" stroke-width="1.51"></path><path d="M260,-106L178,-35L267,-18Z" fill="rgb(202,217,234)" stroke="rgb(202,217,234)" stroke-width="1.51"></path><path d="M40,356L104,433L118,345Z" fill="rgb(162,124,167)" stroke="rgb(162,124,167)" stroke-width="1.51"></path><path d="M118,345L104,433L195,418Z" fill="rgb(139,110,151)" stroke="rgb(139,110,151)" stroke-width="1.51"></path><path d="M30,116L35,198L107,114Z" fill="rgb(196,215,233)" stroke="rgb(196,215,233)" stroke-width="1.51"></path><path d="M553,489L630,421L555,416Z" fill="rgb(84,1,81)" stroke="rgb(84,1,81)" stroke-width="1.51"></path><path d="M122,499L176,510L195,418Z" fill="rgb(134,107,148)" stroke="rgb(134,107,148)" stroke-width="1.51"></path><path d="M256,492L176,510L340,500Z" fill="rgb(117,90,139)" stroke="rgb(117,90,139)" stroke-width="1.51"></path><path d="M340,500L176,510L493,501Z" fill="rgb(111,69,129)" stroke="rgb(111,69,129)" stroke-width="1.51"></path><path d="M483,-95L402,-109L418,-29Z" fill="rgb(193,161,207)" stroke="rgb(193,161,207)" stroke-width="1.51"></path><path d="M567,46L569,-31L479,-15Z" fill="rgb(186,138,182)" stroke="rgb(186,138,182)" stroke-width="1.51"></path><path d="M645,49L569,-31L567,46Z" fill="rgb(160,124,160)" stroke="rgb(160,124,160)" stroke-width="1.51"></path><path d="M643,127L645,49L563,121Z" fill="rgb(137,108,149)" stroke="rgb(137,108,149)" stroke-width="1.51"></path><path d="M701,55L645,49L643,127Z" fill="rgb(143,113,152)" stroke="rgb(143,113,152)" stroke-width="1.51"></path><path d="M483,-95L418,-29L479,-15Z" fill="rgb(193,155,203)" stroke="rgb(193,155,203)" stroke-width="1.51"></path><path d="M48,263L40,356L118,345Z" fill="rgb(183,143,193)" stroke="rgb(183,143,193)" stroke-width="1.51"></path><path d="M-39,282L40,356L48,263Z" fill="rgb(191,156,204)" stroke="rgb(191,156,204)" stroke-width="1.51"></path><path d="M647,193L714,195L643,127Z" fill="rgb(117,90,139)" stroke="rgb(117,90,139)" stroke-width="1.51"></path><path d="M643,349L706,267L627,268Z" fill="rgb(107,38,116)" stroke="rgb(107,38,116)" stroke-width="1.51"></path><path d="M709,349L706,267L643,349Z" fill="rgb(104,25,108)" stroke="rgb(104,25,108)" stroke-width="1.51"></path><path d="M41,59L30,116L107,114Z" fill="rgb(211,226,238)" stroke="rgb(211,226,238)" stroke-width="1.51"></path><path d="M178,-35L117,-15L176,47Z" fill="rgb(218,230,241)" stroke="rgb(218,230,241)" stroke-width="1.51"></path><path d="M119,-97L117,-15L178,-35Z" fill="rgb(222,233,242)" stroke="rgb(222,233,242)" stroke-width="1.51"></path><path d="M569,-31L483,-95L479,-15Z" fill="rgb(192,144,190)" stroke="rgb(192,144,190)" stroke-width="1.51"></path><path d="M35,198L-31,198L48,263Z" fill="rgb(191,189,220)" stroke="rgb(191,189,220)" stroke-width="1.51"></path><path d="M41,59L107,114L106,58Z" fill="rgb(213,227,239)" stroke="rgb(213,227,239)" stroke-width="1.51"></path><path d="M340,-90L260,-106L328,-34Z" fill="rgb(193,197,224)" stroke="rgb(193,197,224)" stroke-width="1.51"></path><path d="M402,-109L260,-106L340,-90Z" fill="rgb(194,190,220)" stroke="rgb(194,190,220)" stroke-width="1.51"></path><path d="M706,267L714,195L647,193Z" fill="rgb(111,72,130)" stroke="rgb(111,72,130)" stroke-width="1.51"></path><path d="M104,433L122,499L195,418Z" fill="rgb(138,110,150)" stroke="rgb(138,110,150)" stroke-width="1.51"></path><path d="M33,499L122,499L104,433Z" fill="rgb(149,118,155)" stroke="rgb(149,118,155)" stroke-width="1.51"></path><path d="M45,-21L41,59L106,58Z" fill="rgb(230,240,246)" stroke="rgb(230,240,246)" stroke-width="1.51"></path><path d="M703,422L709,349L643,349Z" fill="rgb(90,2,88)" stroke="rgb(90,2,88)" stroke-width="1.51"></path><path d="M706,267L709,349L714,195Z" fill="rgb(108,49,120)" stroke="rgb(108,49,120)" stroke-width="1.51"></path><path d="M641,-93L562,-92L569,-31Z" fill="rgb(165,128,163)" stroke="rgb(165,128,163)" stroke-width="1.51"></path><path d="M714,195L709,114L643,127Z" fill="rgb(123,99,144)" stroke="rgb(123,99,144)" stroke-width="1.51"></path><path d="M40,356L46,423L104,433Z" fill="rgb(153,120,156)" stroke="rgb(153,120,156)" stroke-width="1.51"></path><path d="M630,421L703,422L643,349Z" fill="rgb(78,0,76)" stroke="rgb(78,0,76)" stroke-width="1.51"></path><path d="M553,489L635,490L630,421Z" fill="rgb(77,0,75)" stroke="rgb(77,0,75)" stroke-width="1.51"></path><path d="M493,501L635,490L553,489Z" fill="rgb(90,2,87)" stroke="rgb(90,2,87)" stroke-width="1.51"></path><path d="M117,-15L45,-21L106,58Z" fill="rgb(231,240,246)" stroke="rgb(231,240,246)" stroke-width="1.51"></path><path d="M260,-106L191,-108L178,-35Z" fill="rgb(206,222,236)" stroke="rgb(206,222,236)" stroke-width="1.51"></path><path d="M402,-109L191,-108L260,-106Z" fill="rgb(196,204,227)" stroke="rgb(196,204,227)" stroke-width="1.51"></path><path d="M647,-30L569,-31L645,49Z" fill="rgb(162,126,160)" stroke="rgb(162,126,160)" stroke-width="1.51"></path><path d="M569,-31L562,-92L483,-95Z" fill="rgb(186,138,182)" stroke="rgb(186,138,182)" stroke-width="1.51"></path><path d="M483,-95L562,-92L402,-109Z" fill="rgb(192,150,197)" stroke="rgb(192,150,197)" stroke-width="1.51"></path><path d="M709,114L701,55L643,127Z" fill="rgb(137,109,149)" stroke="rgb(137,109,149)" stroke-width="1.51"></path><path d="M701,55L647,-30L645,49Z" fill="rgb(157,123,158)" stroke="rgb(157,123,158)" stroke-width="1.51"></path><path d="M635,490L703,422L630,421Z" fill="rgb(77,0,75)" stroke="rgb(77,0,75)" stroke-width="1.51"></path><path d="M-33,117L-31,198L30,116Z" fill="rgb(205,221,236)" stroke="rgb(205,221,236)" stroke-width="1.51"></path><path d="M30,116L-31,198L35,198Z" fill="rgb(198,210,231)" stroke="rgb(198,210,231)" stroke-width="1.51"></path><path d="M40,356L-42,350L46,423Z" fill="rgb(174,131,172)" stroke="rgb(174,131,172)" stroke-width="1.51"></path><path d="M-31,198L-39,282L48,263Z" fill="rgb(194,178,215)" stroke="rgb(194,178,215)" stroke-width="1.51"></path><path d="M119,-97L45,-21L117,-15Z" fill="rgb(232,241,247)" stroke="rgb(232,241,247)" stroke-width="1.51"></path><path d="M41,59L-33,117L30,116Z" fill="rgb(218,230,241)" stroke="rgb(218,230,241)" stroke-width="1.51"></path><path d="M191,-108L119,-97L178,-35Z" fill="rgb(216,229,240)" stroke="rgb(216,229,240)" stroke-width="1.51"></path><path d="M-31,198L-108,268L-39,282Z" fill="rgb(194,178,215)" stroke="rgb(194,178,215)" stroke-width="1.51"></path><path d="M-42,49L-33,117L41,59Z" fill="rgb(228,237,245)" stroke="rgb(228,237,245)" stroke-width="1.51"></path><path d="M-39,282L-42,350L40,356Z" fill="rgb(192,147,194)" stroke="rgb(192,147,194)" stroke-width="1.51"></path><path d="M46,423L33,499L104,433Z" fill="rgb(153,121,157)" stroke="rgb(153,121,157)" stroke-width="1.51"></path><path d="M-112,354L-42,350L-39,282Z" fill="rgb(192,147,195)" stroke="rgb(192,147,195)" stroke-width="1.51"></path><path d="M-47,435L33,499L46,423Z" fill="rgb(161,125,160)" stroke="rgb(161,125,160)" stroke-width="1.51"></path><path d="M122,499L33,499L176,510Z" fill="rgb(144,114,152)" stroke="rgb(144,114,152)" stroke-width="1.51"></path><path d="M703,-36L641,-93L647,-30Z" fill="rgb(162,126,160)" stroke="rgb(162,126,160)" stroke-width="1.51"></path><path d="M647,-30L641,-93L569,-31Z" fill="rgb(162,126,160)" stroke="rgb(162,126,160)" stroke-width="1.51"></path><path d="M562,-92L721,-111L402,-109Z" fill="rgb(177,133,174)" stroke="rgb(177,133,174)" stroke-width="1.51"></path><path d="M701,55L703,-36L647,-30Z" fill="rgb(162,126,160)" stroke="rgb(162,126,160)" stroke-width="1.51"></path><path d="M721,-111L703,-36L701,55Z" fill="rgb(162,126,160)" stroke="rgb(162,126,160)" stroke-width="1.51"></path><path d="M721,-111L701,55L709,114Z" fill="rgb(158,124,159)" stroke="rgb(158,124,159)" stroke-width="1.51"></path><path d="M-113,207L-108,268L-31,198Z" fill="rgb(194,189,220)" stroke="rgb(194,189,220)" stroke-width="1.51"></path><path d="M45,-21L-42,49L41,59Z" fill="rgb(239,246,250)" stroke="rgb(239,246,250)" stroke-width="1.51"></path><path d="M-42,-29L-42,49L45,-21Z" fill="rgb(247,252,253)" stroke="rgb(247,252,253)" stroke-width="1.51"></path><path d="M635,490L720,503L703,422Z" fill="rgb(77,0,75)" stroke="rgb(77,0,75)" stroke-width="1.51"></path><path d="M703,422L720,503L709,349Z" fill="rgb(77,0,75)" stroke="rgb(77,0,75)" stroke-width="1.51"></path><path d="M709,349L720,503L714,195Z" fill="rgb(102,7,99)" stroke="rgb(102,7,99)" stroke-width="1.51"></path><path d="M493,501L720,503L635,490Z" fill="rgb(77,0,75)" stroke="rgb(77,0,75)" stroke-width="1.51"></path><path d="M176,510L720,503L493,501Z" fill="rgb(106,31,112)" stroke="rgb(106,31,112)" stroke-width="1.51"></path><path d="M-42,350L-47,435L46,423Z" fill="rgb(162,126,160)" stroke="rgb(162,126,160)" stroke-width="1.51"></path><path d="M-110,425L-47,435L-42,350Z" fill="rgb(162,126,160)" stroke="rgb(162,126,160)" stroke-width="1.51"></path><path d="M119,-97L38,-95L45,-21Z" fill="rgb(237,245,249)" stroke="rgb(237,245,249)" stroke-width="1.51"></path><path d="M-38,-110L38,-95L119,-97Z" fill="rgb(241,248,250)" stroke="rgb(241,248,250)" stroke-width="1.51"></path><path d="M-113,207L-31,198L-124,130Z" fill="rgb(198,208,230)" stroke="rgb(198,208,230)" stroke-width="1.51"></path><path d="M-124,130L-31,198L-33,117Z" fill="rgb(203,220,235)" stroke="rgb(203,220,235)" stroke-width="1.51"></path><path d="M38,-95L-42,-29L45,-21Z" fill="rgb(245,250,252)" stroke="rgb(245,250,252)" stroke-width="1.51"></path><path d="M-111,47L-124,130L-33,117Z" fill="rgb(220,232,242)" stroke="rgb(220,232,242)" stroke-width="1.51"></path><path d="M-111,510L-35,508L-47,435Z" fill="rgb(162,126,160)" stroke="rgb(162,126,160)" stroke-width="1.51"></path><path d="M-47,435L-35,508L33,499Z" fill="rgb(162,126,160)" stroke="rgb(162,126,160)" stroke-width="1.51"></path><path d="M33,499L-35,508L176,510Z" fill="rgb(154,121,157)" stroke="rgb(154,121,157)" stroke-width="1.51"></path><path d="M-108,268L-112,354L-39,282Z" fill="rgb(193,157,204)" stroke="rgb(193,157,204)" stroke-width="1.51"></path><path d="M-113,207L-112,354L-108,268Z" fill="rgb(193,167,209)" stroke="rgb(193,167,209)" stroke-width="1.51"></path><path d="M-113,207L-124,130L-112,354Z" fill="rgb(194,186,219)" stroke="rgb(194,186,219)" stroke-width="1.51"></path><path d="M-111,47L-33,117L-42,49Z" fill="rgb(229,238,245)" stroke="rgb(229,238,245)" stroke-width="1.51"></path><path d="M703,-36L721,-111L641,-93Z" fill="rgb(162,126,160)" stroke="rgb(162,126,160)" stroke-width="1.51"></path><path d="M641,-93L721,-111L562,-92Z" fill="rgb(162,126,160)" stroke="rgb(162,126,160)" stroke-width="1.51"></path><path d="M402,-109L-38,-110L191,-108Z" fill="rgb(212,226,238)" stroke="rgb(212,226,238)" stroke-width="1.51"></path><path d="M714,195L721,-111L709,114Z" fill="rgb(147,116,154)" stroke="rgb(147,116,154)" stroke-width="1.51"></path><path d="M720,503L721,-111L714,195Z" fill="rgb(113,81,135)" stroke="rgb(113,81,135)" stroke-width="1.51"></path><path d="M-109,-18L-111,47L-42,49Z" fill="rgb(241,248,250)" stroke="rgb(241,248,250)" stroke-width="1.51"></path><path d="M-112,354L-110,425L-42,350Z" fill="rgb(176,133,173)" stroke="rgb(176,133,173)" stroke-width="1.51"></path><path d="M-111,510L-110,425L-112,354Z" fill="rgb(162,126,160)" stroke="rgb(162,126,160)" stroke-width="1.51"></path><path d="M-42,-29L-109,-18L-42,49Z" fill="rgb(247,252,253)" stroke="rgb(247,252,253)" stroke-width="1.51"></path><path d="M38,-95L-38,-110L-42,-29Z" fill="rgb(247,252,253)" stroke="rgb(247,252,253)" stroke-width="1.51"></path><path d="M191,-108L-38,-110L119,-97Z" fill="rgb(232,241,247)" stroke="rgb(232,241,247)" stroke-width="1.51"></path><path d="M721,-111L-38,-110L402,-109Z" fill="rgb(194,182,217)" stroke="rgb(194,182,217)" stroke-width="1.51"></path><path d="M-116,-108L-109,-18L-42,-29Z" fill="rgb(247,252,253)" stroke="rgb(247,252,253)" stroke-width="1.51"></path><path d="M-111,47L-109,-18L-124,130Z" fill="rgb(235,243,248)" stroke="rgb(235,243,248)" stroke-width="1.51"></path><path d="M-35,508L-111,510L176,510Z" fill="rgb(161,125,160)" stroke="rgb(161,125,160)" stroke-width="1.51"></path><path d="M-110,425L-111,510L-47,435Z" fill="rgb(162,126,160)" stroke="rgb(162,126,160)" stroke-width="1.51"></path><path d="M-124,130L-111,510L-112,354Z" fill="rgb(192,146,194)" stroke="rgb(192,146,194)" stroke-width="1.51"></path><path d="M-38,-110L-116,-108L-42,-29Z" fill="rgb(247,252,253)" stroke="rgb(247,252,253)" stroke-width="1.51"></path><path d="M-109,-18L-116,-108L-124,130Z" fill="rgb(247,252,253)" stroke="rgb(247,252,253)" stroke-width="1.51"></path></svg>