<svg width="600" height="400" xmlns="http://www.w3.org/2000/svg"><path d="M276,200L342,253L324,202Z" fill="rgb(150,146,196)" stroke="rgb(150,146,196)" stroke-width="1.51"></path><path d="M276,200L243,270L342,253Z" fill="rgb(148,145,196)" stroke="rgb(148,145,196)" stroke-width="1.51"></path><path d="M243,270L329,341L342,253Z" fill="rgb(134,122,184)" stroke="rgb(134,122,184)" stroke-width="1.51"></path><path d="M168,200L177,277L243,270Z" fill="rgb(165,162,206)" stroke="rgb(165,162,206)" stroke-width="1.51"></path><path d="M324,202L250,137L276,200Z" fill="rgb(167,165,206)" stroke="rgb(167,165,206)" stroke-width="1.51"></path><path d="M243,270L271,352L329,341Z" fill="rgb(133,113,180)" stroke="rgb(133,113,180)" stroke-width="1.51"></path><path d="M342,253L416,224L324,202Z" fill="rgb(138,134,191)" stroke="rgb(138,134,191)" stroke-width="1.51"></path><path d="M324,202L338,102L250,137Z" fill="rgb(173,171,210)" stroke="rgb(173,171,210)" stroke-width="1.51"></path><path d="M427,262L416,224L342,253Z" fill="rgb(126,120,184)" stroke="rgb(126,120,184)" stroke-width="1.51"></path><path d="M243,270L202,337L271,352Z" fill="rgb(142,123,186)" stroke="rgb(142,123,186)" stroke-width="1.51"></path><path d="M168,200L243,270L276,200Z" fill="rgb(165,163,206)" stroke="rgb(165,163,206)" stroke-width="1.51"></path><path d="M407,333L427,262L342,253Z" fill="rgb(119,105,176)" stroke="rgb(119,105,176)" stroke-width="1.51"></path><path d="M250,137L168,200L276,200Z" fill="rgb(178,177,213)" stroke="rgb(178,177,213)" stroke-width="1.51"></path><path d="M177,277L202,337L243,270Z" fill="rgb(152,140,194)" stroke="rgb(152,140,194)" stroke-width="1.51"></path><path d="M329,341L407,333L342,253Z" fill="rgb(118,102,174)" stroke="rgb(118,102,174)" stroke-width="1.51"></path><path d="M350,435L407,333L329,341Z" fill="rgb(106,80,162)" stroke="rgb(106,80,162)" stroke-width="1.51"></path><path d="M430,136L338,102L324,202Z" fill="rgb(161,159,205)" stroke="rgb(161,159,205)" stroke-width="1.51"></path><path d="M250,137L190,130L168,200Z" fill="rgb(191,191,221)" stroke="rgb(191,191,221)" stroke-width="1.51"></path><path d="M184,43L190,130L250,137Z" fill="rgb(205,206,228)" stroke="rgb(205,206,228)" stroke-width="1.51"></path><path d="M416,224L430,136L324,202Z" fill="rgb(145,139,193)" stroke="rgb(145,139,193)" stroke-width="1.51"></path><path d="M470,194L430,136L416,224Z" fill="rgb(138,126,186)" stroke="rgb(138,126,186)" stroke-width="1.51"></path><path d="M505,266L470,194L427,262Z" fill="rgb(118,101,173)" stroke="rgb(118,101,173)" stroke-width="1.51"></path><path d="M427,262L470,194L416,224Z" fill="rgb(126,113,180)" stroke="rgb(126,113,180)" stroke-width="1.51"></path><path d="M271,352L350,435L329,341Z" fill="rgb(114,86,165)" stroke="rgb(114,86,165)" stroke-width="1.51"></path><path d="M202,337L237,412L271,352Z" fill="rgb(133,105,177)" stroke="rgb(133,105,177)" stroke-width="1.51"></path><path d="M177,277L128,361L202,337Z" fill="rgb(154,134,192)" stroke="rgb(154,134,192)" stroke-width="1.51"></path><path d="M202,337L174,424L237,412Z" fill="rgb(135,105,176)" stroke="rgb(135,105,176)" stroke-width="1.51"></path><path d="M168,200L107,260L177,277Z" fill="rgb(175,171,211)" stroke="rgb(175,171,211)" stroke-width="1.51"></path><path d="M97,198L107,260L168,200Z" fill="rgb(186,183,217)" stroke="rgb(186,183,217)" stroke-width="1.51"></path><path d="M338,102L251,27L250,137Z" fill="rgb(194,192,221)" stroke="rgb(194,192,221)" stroke-width="1.51"></path><path d="M407,44L342,50L338,102Z" fill="rgb(183,179,215)" stroke="rgb(183,179,215)" stroke-width="1.51"></path><path d="M237,412L350,435L271,352Z" fill="rgb(117,86,164)" stroke="rgb(117,86,164)" stroke-width="1.51"></path><path d="M135,114L97,198L168,200Z" fill="rgb(199,198,224)" stroke="rgb(199,198,224)" stroke-width="1.51"></path><path d="M190,130L135,114L168,200Z" fill="rgb(200,201,227)" stroke="rgb(200,201,227)" stroke-width="1.51"></path><path d="M184,43L135,114L190,130Z" fill="rgb(215,215,234)" stroke="rgb(215,215,234)" stroke-width="1.51"></path><path d="M494,362L505,266L427,262Z" fill="rgb(104,76,160)" stroke="rgb(104,76,160)" stroke-width="1.51"></path><path d="M494,362L427,262L407,333Z" fill="rgb(103,76,160)" stroke="rgb(103,76,160)" stroke-width="1.51"></path><path d="M107,260L128,361L177,277Z" fill="rgb(165,149,200)" stroke="rgb(165,149,200)" stroke-width="1.51"></path><path d="M342,50L251,27L338,102Z" fill="rgb(194,191,220)" stroke="rgb(194,191,220)" stroke-width="1.51"></path><path d="M128,361L174,424L202,337Z" fill="rgb(145,116,182)" stroke="rgb(145,116,182)" stroke-width="1.51"></path><path d="M237,412L242,486L350,435Z" fill="rgb(118,88,165)" stroke="rgb(118,88,165)" stroke-width="1.51"></path><path d="M430,136L407,44L338,102Z" fill="rgb(172,166,209)" stroke="rgb(172,166,209)" stroke-width="1.51"></path><path d="M470,194L492,128L430,136Z" fill="rgb(145,129,189)" stroke="rgb(145,129,189)" stroke-width="1.51"></path><path d="M583,190L492,128L470,194Z" fill="rgb(133,109,179)" stroke="rgb(133,109,179)" stroke-width="1.51"></path><path d="M342,50L254,-11L251,27Z" fill="rgb(205,203,227)" stroke="rgb(205,203,227)" stroke-width="1.51"></path><path d="M473,28L407,44L430,136Z" fill="rgb(171,157,204)" stroke="rgb(171,157,204)" stroke-width="1.51"></path><path d="M251,27L184,43L250,137Z" fill="rgb(209,208,230)" stroke="rgb(209,208,230)" stroke-width="1.51"></path><path d="M350,435L413,438L407,333Z" fill="rgb(96,65,153)" stroke="rgb(96,65,153)" stroke-width="1.51"></path><path d="M468,415L494,362L407,333Z" fill="rgb(91,53,148)" stroke="rgb(91,53,148)" stroke-width="1.51"></path><path d="M413,438L468,415L407,333Z" fill="rgb(90,54,148)" stroke="rgb(90,54,148)" stroke-width="1.51"></path><path d="M184,43L109,74L135,114Z" fill="rgb(224,223,238)" stroke="rgb(224,223,238)" stroke-width="1.51"></path><path d="M135,114L44,149L97,198Z" fill="rgb(210,209,231)" stroke="rgb(210,209,231)" stroke-width="1.51"></path><path d="M205,483L242,486L237,412Z" fill="rgb(129,99,172)" stroke="rgb(129,99,172)" stroke-width="1.51"></path><path d="M350,435L418,500L413,438Z" fill="rgb(95,64,152)" stroke="rgb(95,64,152)" stroke-width="1.51"></path><path d="M251,27L207,-7L184,43Z" fill="rgb(219,219,236)" stroke="rgb(219,219,236)" stroke-width="1.51"></path><path d="M184,43L100,-36L109,74Z" fill="rgb(234,233,243)" stroke="rgb(234,233,243)" stroke-width="1.51"></path><path d="M360,-44L254,-11L342,50Z" fill="rgb(201,198,225)" stroke="rgb(201,198,225)" stroke-width="1.51"></path><path d="M107,260L60,334L128,361Z" fill="rgb(166,146,199)" stroke="rgb(166,146,199)" stroke-width="1.51"></path><path d="M128,361L107,414L174,424Z" fill="rgb(146,113,181)" stroke="rgb(146,113,181)" stroke-width="1.51"></path><path d="M97,198L43,250L107,260Z" fill="rgb(187,183,217)" stroke="rgb(187,183,217)" stroke-width="1.51"></path><path d="M26,224L43,250L97,198Z" fill="rgb(193,189,220)" stroke="rgb(193,189,220)" stroke-width="1.51"></path><path d="M43,250L60,334L107,260Z" fill="rgb(178,165,209)" stroke="rgb(178,165,209)" stroke-width="1.51"></path><path d="M174,424L205,483L237,412Z" fill="rgb(133,103,174)" stroke="rgb(133,103,174)" stroke-width="1.51"></path><path d="M60,334L107,414L128,361Z" fill="rgb(157,127,189)" stroke="rgb(157,127,189)" stroke-width="1.51"></path><path d="M123,502L205,483L174,424Z" fill="rgb(141,109,178)" stroke="rgb(141,109,178)" stroke-width="1.51"></path><path d="M254,-11L207,-7L251,27Z" fill="rgb(217,216,235)" stroke="rgb(217,216,235)" stroke-width="1.51"></path><path d="M109,74L44,149L135,114Z" fill="rgb(222,221,236)" stroke="rgb(222,221,236)" stroke-width="1.51"></path><path d="M44,149L26,224L97,198Z" fill="rgb(203,200,225)" stroke="rgb(203,200,225)" stroke-width="1.51"></path><path d="M43,250L-25,299L60,334Z" fill="rgb(179,163,208)" stroke="rgb(179,163,208)" stroke-width="1.51"></path><path d="M407,44L392,-17L342,50Z" fill="rgb(186,181,216)" stroke="rgb(186,181,216)" stroke-width="1.51"></path><path d="M465,-27L392,-17L407,44Z" fill="rgb(184,172,212)" stroke="rgb(184,172,212)" stroke-width="1.51"></path><path d="M505,266L583,190L470,194Z" fill="rgb(119,93,170)" stroke="rgb(119,93,170)" stroke-width="1.51"></path><path d="M568,341L567,290L505,266Z" fill="rgb(93,57,150)" stroke="rgb(93,57,150)" stroke-width="1.51"></path><path d="M568,341L505,266L494,362Z" fill="rgb(91,52,149)" stroke="rgb(91,52,149)" stroke-width="1.51"></path><path d="M586,74L473,28L492,128Z" fill="rgb(159,133,193)" stroke="rgb(159,133,193)" stroke-width="1.51"></path><path d="M492,128L473,28L430,136Z" fill="rgb(161,144,197)" stroke="rgb(161,144,197)" stroke-width="1.51"></path><path d="M413,438L485,502L468,415Z" fill="rgb(85,45,143)" stroke="rgb(85,45,143)" stroke-width="1.51"></path><path d="M556,417L568,341L494,362Z" fill="rgb(77,29,137)" stroke="rgb(77,29,137)" stroke-width="1.51"></path><path d="M345,524L418,500L350,435Z" fill="rgb(99,70,156)" stroke="rgb(99,70,156)" stroke-width="1.51"></path><path d="M556,417L494,362L468,415Z" fill="rgb(77,30,137)" stroke="rgb(77,30,137)" stroke-width="1.51"></path><path d="M123,502L345,524L242,486Z" fill="rgb(127,96,171)" stroke="rgb(127,96,171)" stroke-width="1.51"></path><path d="M242,486L345,524L350,435Z" fill="rgb(111,80,161)" stroke="rgb(111,80,161)" stroke-width="1.51"></path><path d="M567,290L583,190L505,266Z" fill="rgb(105,79,161)" stroke="rgb(105,79,161)" stroke-width="1.51"></path><path d="M636,281L583,190L567,290Z" fill="rgb(97,69,155)" stroke="rgb(97,69,155)" stroke-width="1.51"></path><path d="M399,-119L360,-44L392,-17Z" fill="rgb(189,183,218)" stroke="rgb(189,183,218)" stroke-width="1.51"></path><path d="M392,-17L360,-44L342,50Z" fill="rgb(192,188,220)" stroke="rgb(192,188,220)" stroke-width="1.51"></path><path d="M170,-89L100,-36L207,-7Z" fill="rgb(233,232,243)" stroke="rgb(233,232,243)" stroke-width="1.51"></path><path d="M555,477L556,417L468,415Z" fill="rgb(74,22,134)" stroke="rgb(74,22,134)" stroke-width="1.51"></path><path d="M44,149L-13,205L26,224Z" fill="rgb(205,202,227)" stroke="rgb(205,202,227)" stroke-width="1.51"></path><path d="M26,224L-25,299L43,250Z" fill="rgb(187,181,216)" stroke="rgb(187,181,216)" stroke-width="1.51"></path><path d="M-20,148L-13,205L44,149Z" fill="rgb(214,213,233)" stroke="rgb(214,213,233)" stroke-width="1.51"></path><path d="M583,190L586,113L492,128Z" fill="rgb(137,110,179)" stroke="rgb(137,110,179)" stroke-width="1.51"></path><path d="M473,28L465,-27L407,44Z" fill="rgb(178,161,207)" stroke="rgb(178,161,207)" stroke-width="1.51"></path><path d="M558,-23L465,-27L473,28Z" fill="rgb(173,149,201)" stroke="rgb(173,149,201)" stroke-width="1.51"></path><path d="M205,483L123,502L242,486Z" fill="rgb(136,105,176)" stroke="rgb(136,105,176)" stroke-width="1.51"></path><path d="M107,414L123,502L174,424Z" fill="rgb(146,114,181)" stroke="rgb(146,114,181)" stroke-width="1.51"></path><path d="M60,496L123,502L107,414Z" fill="rgb(152,118,183)" stroke="rgb(152,118,183)" stroke-width="1.51"></path><path d="M18,424L107,414L60,334Z" fill="rgb(157,124,187)" stroke="rgb(157,124,187)" stroke-width="1.51"></path><path d="M109,74L45,50L44,149Z" fill="rgb(231,230,242)" stroke="rgb(231,230,242)" stroke-width="1.51"></path><path d="M100,-36L45,50L109,74Z" fill="rgb(240,239,246)" stroke="rgb(240,239,246)" stroke-width="1.51"></path><path d="M418,500L485,502L413,438Z" fill="rgb(87,50,145)" stroke="rgb(87,50,145)" stroke-width="1.51"></path><path d="M345,524L485,502L418,500Z" fill="rgb(91,57,149)" stroke="rgb(91,57,149)" stroke-width="1.51"></path><path d="M-13,205L-25,299L26,224Z" fill="rgb(192,188,220)" stroke="rgb(192,188,220)" stroke-width="1.51"></path><path d="M-13,205L-92,194L-25,299Z" fill="rgb(195,191,222)" stroke="rgb(195,191,222)" stroke-width="1.51"></path><path d="M45,50L-20,148L44,149Z" fill="rgb(228,228,240)" stroke="rgb(228,228,240)" stroke-width="1.51"></path><path d="M586,113L586,74L492,128Z" fill="rgb(148,119,185)" stroke="rgb(148,119,185)" stroke-width="1.51"></path><path d="M-42,349L18,424L60,334Z" fill="rgb(165,135,194)" stroke="rgb(165,135,194)" stroke-width="1.51"></path><path d="M45,50L-46,74L-20,148Z" fill="rgb(237,236,245)" stroke="rgb(237,236,245)" stroke-width="1.51"></path><path d="M207,-7L100,-36L184,43Z" fill="rgb(232,232,242)" stroke="rgb(232,232,242)" stroke-width="1.51"></path><path d="M170,-89L207,-7L243,-122Z" fill="rgb(223,223,238)" stroke="rgb(223,223,238)" stroke-width="1.51"></path><path d="M583,190L629,146L586,113Z" fill="rgb(129,99,172)" stroke="rgb(129,99,172)" stroke-width="1.51"></path><path d="M586,113L625,63L586,74Z" fill="rgb(148,115,181)" stroke="rgb(148,115,181)" stroke-width="1.51"></path><path d="M568,341L636,281L567,290Z" fill="rgb(86,47,144)" stroke="rgb(86,47,144)" stroke-width="1.51"></path><path d="M655,358L636,281L568,341Z" fill="rgb(80,34,138)" stroke="rgb(80,34,138)" stroke-width="1.51"></path><path d="M644,208L629,146L583,190Z" fill="rgb(119,89,166)" stroke="rgb(119,89,166)" stroke-width="1.51"></path><path d="M636,281L644,208L583,190Z" fill="rgb(105,76,159)" stroke="rgb(105,76,159)" stroke-width="1.51"></path><path d="M556,417L655,358L568,341Z" fill="rgb(70,16,131)" stroke="rgb(70,16,131)" stroke-width="1.51"></path><path d="M485,502L555,477L468,415Z" fill="rgb(77,30,137)" stroke="rgb(77,30,137)" stroke-width="1.51"></path><path d="M18,424L60,496L107,414Z" fill="rgb(156,122,185)" stroke="rgb(156,122,185)" stroke-width="1.51"></path><path d="M123,502L-128,500L345,524Z" fill="rgb(149,116,182)" stroke="rgb(149,116,182)" stroke-width="1.51"></path><path d="M347,-114L254,-11L360,-44Z" fill="rgb(201,197,224)" stroke="rgb(201,197,224)" stroke-width="1.51"></path><path d="M243,-122L207,-7L254,-11Z" fill="rgb(218,217,235)" stroke="rgb(218,217,235)" stroke-width="1.51"></path><path d="M399,-119L347,-114L360,-44Z" fill="rgb(191,187,220)" stroke="rgb(191,187,220)" stroke-width="1.51"></path><path d="M-25,299L-42,349L60,334Z" fill="rgb(174,151,202)" stroke="rgb(174,151,202)" stroke-width="1.51"></path><path d="M18,424L-47,484L60,496Z" fill="rgb(160,126,188)" stroke="rgb(160,126,188)" stroke-width="1.51"></path><path d="M-131,254L-42,349L-25,299Z" fill="rgb(180,162,208)" stroke="rgb(180,162,208)" stroke-width="1.51"></path><path d="M347,-114L243,-122L254,-11Z" fill="rgb(208,206,229)" stroke="rgb(208,206,229)" stroke-width="1.51"></path><path d="M625,63L558,-23L586,74Z" fill="rgb(157,124,187)" stroke="rgb(157,124,187)" stroke-width="1.51"></path><path d="M586,74L558,-23L473,28Z" fill="rgb(165,135,194)" stroke="rgb(165,135,194)" stroke-width="1.51"></path><path d="M465,-27L399,-119L392,-17Z" fill="rgb(184,172,213)" stroke="rgb(184,172,213)" stroke-width="1.51"></path><path d="M629,146L625,63L586,113Z" fill="rgb(142,110,179)" stroke="rgb(142,110,179)" stroke-width="1.51"></path><path d="M713,132L625,63L629,146Z" fill="rgb(140,109,178)" stroke="rgb(140,109,178)" stroke-width="1.51"></path><path d="M347,-114L399,-119L243,-122Z" fill="rgb(199,195,223)" stroke="rgb(199,195,223)" stroke-width="1.51"></path><path d="M486,-94L399,-119L465,-27Z" fill="rgb(180,163,208)" stroke="rgb(180,163,208)" stroke-width="1.51"></path><path d="M660,440L655,358L556,417Z" fill="rgb(63,0,125)" stroke="rgb(63,0,125)" stroke-width="1.51"></path><path d="M706,272L697,184L644,208Z" fill="rgb(107,77,159)" stroke="rgb(107,77,159)" stroke-width="1.51"></path><path d="M60,-83L37,-38L100,-36Z" fill="rgb(246,245,249)" stroke="rgb(246,245,249)" stroke-width="1.51"></path><path d="M100,-36L37,-38L45,50Z" fill="rgb(246,245,250)" stroke="rgb(246,245,250)" stroke-width="1.51"></path><path d="M95,-96L100,-36L170,-89Z" fill="rgb(239,238,246)" stroke="rgb(239,238,246)" stroke-width="1.51"></path><path d="M-20,148L-92,194L-13,205Z" fill="rgb(210,208,230)" stroke="rgb(210,208,230)" stroke-width="1.51"></path><path d="M-24,-30L-46,74L45,50Z" fill="rgb(248,246,250)" stroke="rgb(248,246,250)" stroke-width="1.51"></path><path d="M558,-23L486,-94L465,-27Z" fill="rgb(173,148,201)" stroke="rgb(173,148,201)" stroke-width="1.51"></path><path d="M-42,349L-56,400L18,424Z" fill="rgb(163,130,190)" stroke="rgb(163,130,190)" stroke-width="1.51"></path><path d="M-113,373L-56,400L-42,349Z" fill="rgb(166,134,193)" stroke="rgb(166,134,193)" stroke-width="1.51"></path><path d="M243,-122L95,-96L170,-89Z" fill="rgb(231,230,242)" stroke="rgb(231,230,242)" stroke-width="1.51"></path><path d="M-108,132L-92,194L-20,148Z" fill="rgb(217,216,235)" stroke="rgb(217,216,235)" stroke-width="1.51"></path><path d="M95,-96L60,-83L100,-36Z" fill="rgb(244,242,248)" stroke="rgb(244,242,248)" stroke-width="1.51"></path><path d="M37,-38L-24,-30L45,50Z" fill="rgb(250,249,252)" stroke="rgb(250,249,252)" stroke-width="1.51"></path><path d="M644,208L697,184L629,146Z" fill="rgb(120,89,166)" stroke="rgb(120,89,166)" stroke-width="1.51"></path><path d="M706,272L644,208L636,281Z" fill="rgb(97,68,154)" stroke="rgb(97,68,154)" stroke-width="1.51"></path><path d="M655,358L706,272L636,281Z" fill="rgb(85,45,143)" stroke="rgb(85,45,143)" stroke-width="1.51"></path><path d="M555,477L629,477L556,417Z" fill="rgb(66,6,127)" stroke="rgb(66,6,127)" stroke-width="1.51"></path><path d="M485,502L629,477L555,477Z" fill="rgb(69,14,130)" stroke="rgb(69,14,130)" stroke-width="1.51"></path><path d="M694,364L706,272L655,358Z" fill="rgb(79,32,137)" stroke="rgb(79,32,137)" stroke-width="1.51"></path><path d="M629,477L660,440L556,417Z" fill="rgb(63,0,125)" stroke="rgb(63,0,125)" stroke-width="1.51"></path><path d="M660,440L694,364L655,358Z" fill="rgb(66,6,127)" stroke="rgb(66,6,127)" stroke-width="1.51"></path><path d="M-33,-77L-24,-30L37,-38Z" fill="rgb(252,251,253)" stroke="rgb(252,251,253)" stroke-width="1.51"></path><path d="M-46,74L-108,132L-20,148Z" fill="rgb(229,229,241)" stroke="rgb(229,229,241)" stroke-width="1.51"></path><path d="M-98,52L-108,132L-46,74Z" fill="rgb(238,237,245)" stroke="rgb(238,237,245)" stroke-width="1.51"></path><path d="M-92,194L-131,254L-25,299Z" fill="rgb(190,187,219)" stroke="rgb(190,187,219)" stroke-width="1.51"></path><path d="M-56,400L-47,484L18,424Z" fill="rgb(161,127,189)" stroke="rgb(161,127,189)" stroke-width="1.51"></path><path d="M-94,426L-47,484L-56,400Z" fill="rgb(161,127,189)" stroke="rgb(161,127,189)" stroke-width="1.51"></path><path d="M706,272L713,132L697,184Z" fill="rgb(115,84,163)" stroke="rgb(115,84,163)" stroke-width="1.51"></path><path d="M697,184L713,132L629,146Z" fill="rgb(128,98,171)" stroke="rgb(128,98,171)" stroke-width="1.51"></path><path d="M635,-44L561,-108L558,-23Z" fill="rgb(163,130,191)" stroke="rgb(163,130,191)" stroke-width="1.51"></path><path d="M-108,132L-131,254L-92,194Z" fill="rgb(207,204,228)" stroke="rgb(207,204,228)" stroke-width="1.51"></path><path d="M-131,254L-113,373L-42,349Z" fill="rgb(175,152,203)" stroke="rgb(175,152,203)" stroke-width="1.51"></path><path d="M-113,373L-94,426L-56,400Z" fill="rgb(161,127,189)" stroke="rgb(161,127,189)" stroke-width="1.51"></path><path d="M486,-94L561,-108L399,-119Z" fill="rgb(175,154,203)" stroke="rgb(175,154,203)" stroke-width="1.51"></path><path d="M558,-23L561,-108L486,-94Z" fill="rgb(169,140,197)" stroke="rgb(169,140,197)" stroke-width="1.51"></path><path d="M635,-44L558,-23L625,63Z" fill="rgb(161,127,189)" stroke="rgb(161,127,189)" stroke-width="1.51"></path><path d="M-108,132L-120,-21L-131,254Z" fill="rgb(228,228,241)" stroke="rgb(228,228,241)" stroke-width="1.51"></path><path d="M-24,-30L-98,52L-46,74Z" fill="rgb(248,246,250)" stroke="rgb(248,246,250)" stroke-width="1.51"></path><path d="M713,132L698,57L625,63Z" fill="rgb(148,115,181)" stroke="rgb(148,115,181)" stroke-width="1.51"></path><path d="M698,57L635,-44L625,63Z" fill="rgb(158,124,187)" stroke="rgb(158,124,187)" stroke-width="1.51"></path><path d="M660,440L715,400L694,364Z" fill="rgb(63,0,125)" stroke="rgb(63,0,125)" stroke-width="1.51"></path><path d="M694,364L715,400L706,272Z" fill="rgb(75,25,135)" stroke="rgb(75,25,135)" stroke-width="1.51"></path><path d="M706,272L715,400L713,132Z" fill="rgb(94,61,151)" stroke="rgb(94,61,151)" stroke-width="1.51"></path><path d="M703,497L715,400L660,440Z" fill="rgb(63,0,125)" stroke="rgb(63,0,125)" stroke-width="1.51"></path><path d="M-24,-30L-120,-21L-98,52Z" fill="rgb(252,251,253)" stroke="rgb(252,251,253)" stroke-width="1.51"></path><path d="M60,-83L-33,-77L37,-38Z" fill="rgb(250,249,252)" stroke="rgb(250,249,252)" stroke-width="1.51"></path><path d="M-119,-119L-33,-77L60,-83Z" fill="rgb(252,251,253)" stroke="rgb(252,251,253)" stroke-width="1.51"></path><path d="M-119,-119L60,-83L95,-96Z" fill="rgb(251,250,252)" stroke="rgb(251,250,252)" stroke-width="1.51"></path><path d="M629,477L703,497L660,440Z" fill="rgb(63,0,125)" stroke="rgb(63,0,125)" stroke-width="1.51"></path><path d="M485,502L703,497L629,477Z" fill="rgb(63,0,125)" stroke="rgb(63,0,125)" stroke-width="1.51"></path><path d="M345,524L703,497L485,502Z" fill="rgb(76,27,136)" stroke="rgb(76,27,136)" stroke-width="1.51"></path><path d="M704,-109L636,-101L635,-44Z" fill="rgb(161,127,189)" stroke="rgb(161,127,189)" stroke-width="1.51"></path><path d="M635,-44L636,-101L561,-108Z" fill="rgb(161,127,189)" stroke="rgb(161,127,189)" stroke-width="1.51"></path><path d="M-33,-77L-120,-21L-24,-30Z" fill="rgb(252,251,253)" stroke="rgb(252,251,253)" stroke-width="1.51"></path><path d="M-98,52L-120,-21L-108,132Z" fill="rgb(244,243,248)" stroke="rgb(244,243,248)" stroke-width="1.51"></path><path d="M-47,484L-128,500L60,496Z" fill="rgb(161,127,189)" stroke="rgb(161,127,189)" stroke-width="1.51"></path><path d="M60,496L-128,500L123,502Z" fill="rgb(160,126,188)" stroke="rgb(160,126,188)" stroke-width="1.51"></path><path d="M-94,426L-128,500L-47,484Z" fill="rgb(161,127,189)" stroke="rgb(161,127,189)" stroke-width="1.51"></path><path d="M-113,373L-128,500L-94,426Z" fill="rgb(161,127,189)" stroke="rgb(161,127,189)" stroke-width="1.51"></path><path d="M-131,254L-128,500L-113,373Z" fill="rgb(165,134,193)" stroke="rgb(165,134,193)" stroke-width="1.51"></path><path d="M698,57L715,-42L635,-44Z" fill="rgb(161,127,189)" stroke="rgb(161,127,189)" stroke-width="1.51"></path><path d="M713,132L715,-42L698,57Z" fill="rgb(155,121,185)" stroke="rgb(155,121,185)" stroke-width="1.51"></path><path d="M715,400L715,-42L713,132Z" fill="rgb(125,95,170)" stroke="rgb(125,95,170)" stroke-width="1.51"></path><path d="M715,-42L704,-109L635,-44Z" fill="rgb(161,127,189)" stroke="rgb(161,127,189)" stroke-width="1.51"></path><path d="M636,-101L704,-109L561,-108Z" fill="rgb(161,127,189)" stroke="rgb(161,127,189)" stroke-width="1.51"></path><path d="M561,-108L704,-109L399,-119Z" fill="rgb(167,136,194)" stroke="rgb(167,136,194)" stroke-width="1.51"></path><path d="M-33,-77L-119,-119L-120,-21Z" fill="rgb(252,251,253)" stroke="rgb(252,251,253)" stroke-width="1.51"></path><path d="M-120,-21L-119,-119L-131,254Z" fill="rgb(247,245,250)" stroke="rgb(247,245,250)" stroke-width="1.51"></path><path d="M243,-122L-119,-119L95,-96Z" fill="rgb(245,244,249)" stroke="rgb(245,244,249)" stroke-width="1.51"></path></svg>