<svg width="600" height="400" xmlns="http://www.w3.org/2000/svg"><path d="M335,180L404,141L356,133Z" fill="rgb(255,136,59)" stroke="rgb(255,136,59)" stroke-width="1.51"></path><path d="M335,180L405,209L404,141Z" fill="rgb(253,121,53)" stroke="rgb(253,121,53)" stroke-width="1.51"></path><path d="M335,180L321,263L405,209Z" fill="rgb(253,110,50)" stroke="rgb(253,110,50)" stroke-width="1.51"></path><path d="M321,263L393,277L405,209Z" fill="rgb(252,80,42)" stroke="rgb(252,80,42)" stroke-width="1.51"></path><path d="M404,141L426,54L356,133Z" fill="rgb(254,146,72)" stroke="rgb(254,146,72)" stroke-width="1.51"></path><path d="M405,209L482,138L404,141Z" fill="rgb(246,116,51)" stroke="rgb(246,116,51)" stroke-width="1.51"></path><path d="M496,196L482,138L405,209Z" fill="rgb(239,102,47)" stroke="rgb(239,102,47)" stroke-width="1.51"></path><path d="M335,180L262,219L321,263Z" fill="rgb(253,128,55)" stroke="rgb(253,128,55)" stroke-width="1.51"></path><path d="M254,107L262,219L335,180Z" fill="rgb(254,157,66)" stroke="rgb(254,157,66)" stroke-width="1.51"></path><path d="M507,278L496,196L405,209Z" fill="rgb(235,73,40)" stroke="rgb(235,73,40)" stroke-width="1.51"></path><path d="M482,138L426,54L404,141Z" fill="rgb(247,136,67)" stroke="rgb(247,136,67)" stroke-width="1.51"></path><path d="M356,133L254,107L335,180Z" fill="rgb(254,159,70)" stroke="rgb(254,159,70)" stroke-width="1.51"></path><path d="M426,54L336,48L356,133Z" fill="rgb(255,159,88)" stroke="rgb(255,159,88)" stroke-width="1.51"></path><path d="M281,55L254,107L356,133Z" fill="rgb(255,181,90)" stroke="rgb(255,181,90)" stroke-width="1.51"></path><path d="M336,48L281,55L356,133Z" fill="rgb(255,176,94)" stroke="rgb(255,176,94)" stroke-width="1.51"></path><path d="M318,343L394,339L393,277Z" fill="rgb(232,57,38)" stroke="rgb(232,57,38)" stroke-width="1.51"></path><path d="M262,219L257,261L321,263Z" fill="rgb(254,119,53)" stroke="rgb(254,119,53)" stroke-width="1.51"></path><path d="M199,275L257,261L262,219Z" fill="rgb(254,129,57)" stroke="rgb(254,129,57)" stroke-width="1.51"></path><path d="M426,54L406,-6L336,48Z" fill="rgb(255,164,105)" stroke="rgb(255,164,105)" stroke-width="1.51"></path><path d="M482,138L470,39L426,54Z" fill="rgb(245,141,81)" stroke="rgb(245,141,81)" stroke-width="1.51"></path><path d="M552,129L470,39L482,138Z" fill="rgb(232,131,73)" stroke="rgb(232,131,73)" stroke-width="1.51"></path><path d="M393,277L507,278L405,209Z" fill="rgb(241,59,36)" stroke="rgb(241,59,36)" stroke-width="1.51"></path><path d="M318,343L393,277L321,263Z" fill="rgb(242,77,39)" stroke="rgb(242,77,39)" stroke-width="1.51"></path><path d="M394,339L507,278L393,277Z" fill="rgb(231,37,30)" stroke="rgb(231,37,30)" stroke-width="1.51"></path><path d="M254,107L201,134L262,219Z" fill="rgb(254,174,74)" stroke="rgb(254,174,74)" stroke-width="1.51"></path><path d="M172,54L201,134L254,107Z" fill="rgb(254,202,102)" stroke="rgb(254,202,102)" stroke-width="1.51"></path><path d="M470,39L406,-6L426,54Z" fill="rgb(253,156,101)" stroke="rgb(253,156,101)" stroke-width="1.51"></path><path d="M336,48L263,-8L281,55Z" fill="rgb(255,195,118)" stroke="rgb(255,195,118)" stroke-width="1.51"></path><path d="M496,196L552,129L482,138Z" fill="rgb(228,108,54)" stroke="rgb(228,108,54)" stroke-width="1.51"></path><path d="M564,194L552,129L496,196Z" fill="rgb(218,97,53)" stroke="rgb(218,97,53)" stroke-width="1.51"></path><path d="M257,261L318,343L321,263Z" fill="rgb(244,99,45)" stroke="rgb(244,99,45)" stroke-width="1.51"></path><path d="M507,278L564,194L496,196Z" fill="rgb(222,72,45)" stroke="rgb(222,72,45)" stroke-width="1.51"></path><path d="M257,261L273,358L318,343Z" fill="rgb(233,97,48)" stroke="rgb(233,97,48)" stroke-width="1.51"></path><path d="M172,213L199,275L262,219Z" fill="rgb(255,145,65)" stroke="rgb(255,145,65)" stroke-width="1.51"></path><path d="M406,-6L352,-36L336,48Z" fill="rgb(255,176,121)" stroke="rgb(255,176,121)" stroke-width="1.51"></path><path d="M281,55L172,54L254,107Z" fill="rgb(255,201,108)" stroke="rgb(255,201,108)" stroke-width="1.51"></path><path d="M201,134L172,213L262,219Z" fill="rgb(254,168,74)" stroke="rgb(254,168,74)" stroke-width="1.51"></path><path d="M352,-36L263,-8L336,48Z" fill="rgb(255,193,129)" stroke="rgb(255,193,129)" stroke-width="1.51"></path><path d="M199,275L273,358L257,261Z" fill="rgb(243,112,49)" stroke="rgb(243,112,49)" stroke-width="1.51"></path><path d="M322,413L430,409L394,339Z" fill="rgb(196,42,41)" stroke="rgb(196,42,41)" stroke-width="1.51"></path><path d="M406,-6L419,-88L352,-36Z" fill="rgb(255,169,119)" stroke="rgb(255,169,119)" stroke-width="1.51"></path><path d="M470,39L486,-17L406,-6Z" fill="rgb(252,156,110)" stroke="rgb(252,156,110)" stroke-width="1.51"></path><path d="M576,46L486,-17L470,39Z" fill="rgb(235,146,105)" stroke="rgb(235,146,105)" stroke-width="1.51"></path><path d="M507,278L582,262L564,194Z" fill="rgb(209,51,42)" stroke="rgb(209,51,42)" stroke-width="1.51"></path><path d="M647,132L576,46L552,129Z" fill="rgb(197,119,75)" stroke="rgb(197,119,75)" stroke-width="1.51"></path><path d="M546,356L582,262L507,278Z" fill="rgb(200,15,34)" stroke="rgb(200,15,34)" stroke-width="1.51"></path><path d="M201,134L129,122L172,213Z" fill="rgb(254,191,91)" stroke="rgb(254,191,91)" stroke-width="1.51"></path><path d="M263,-8L172,54L281,55Z" fill="rgb(255,207,124)" stroke="rgb(255,207,124)" stroke-width="1.51"></path><path d="M552,129L576,46L470,39Z" fill="rgb(225,134,87)" stroke="rgb(225,134,87)" stroke-width="1.51"></path><path d="M647,132L552,129L564,194Z" fill="rgb(196,100,57)" stroke="rgb(196,100,57)" stroke-width="1.51"></path><path d="M394,339L506,369L507,278Z" fill="rgb(211,16,33)" stroke="rgb(211,16,33)" stroke-width="1.51"></path><path d="M430,409L506,369L394,339Z" fill="rgb(195,18,35)" stroke="rgb(195,18,35)" stroke-width="1.51"></path><path d="M322,413L394,339L318,343Z" fill="rgb(211,64,44)" stroke="rgb(211,64,44)" stroke-width="1.51"></path><path d="M273,358L322,413L318,343Z" fill="rgb(208,82,49)" stroke="rgb(208,82,49)" stroke-width="1.51"></path><path d="M244,429L322,413L273,358Z" fill="rgb(190,84,52)" stroke="rgb(190,84,52)" stroke-width="1.51"></path><path d="M172,54L129,122L201,134Z" fill="rgb(254,211,112)" stroke="rgb(254,211,112)" stroke-width="1.51"></path><path d="M114,263L174,352L199,275Z" fill="rgb(247,136,68)" stroke="rgb(247,136,68)" stroke-width="1.51"></path><path d="M545,431L546,356L506,369Z" fill="rgb(164,0,38)" stroke="rgb(164,0,38)" stroke-width="1.51"></path><path d="M506,369L546,356L507,278Z" fill="rgb(196,5,36)" stroke="rgb(196,5,36)" stroke-width="1.51"></path><path d="M430,409L473,408L506,369Z" fill="rgb(175,8,36)" stroke="rgb(175,8,36)" stroke-width="1.51"></path><path d="M545,431L473,408L469,486Z" fill="rgb(165,4,37)" stroke="rgb(165,4,37)" stroke-width="1.51"></path><path d="M486,-17L419,-88L406,-6Z" fill="rgb(255,160,113)" stroke="rgb(255,160,113)" stroke-width="1.51"></path><path d="M352,-36L335,-89L263,-8Z" fill="rgb(255,193,129)" stroke="rgb(255,193,129)" stroke-width="1.51"></path><path d="M495,-97L419,-88L486,-17Z" fill="rgb(248,155,113)" stroke="rgb(248,155,113)" stroke-width="1.51"></path><path d="M419,-88L335,-89L352,-36Z" fill="rgb(255,175,121)" stroke="rgb(255,175,121)" stroke-width="1.51"></path><path d="M263,-8L179,-24L172,54Z" fill="rgb(255,220,143)" stroke="rgb(255,220,143)" stroke-width="1.51"></path><path d="M576,46L557,-22L486,-17Z" fill="rgb(225,145,114)" stroke="rgb(225,145,114)" stroke-width="1.51"></path><path d="M199,275L174,352L273,358Z" fill="rgb(232,115,56)" stroke="rgb(232,115,56)" stroke-width="1.51"></path><path d="M114,263L199,275L172,213Z" fill="rgb(255,151,76)" stroke="rgb(255,151,76)" stroke-width="1.51"></path><path d="M655,194L564,194L582,262Z" fill="rgb(189,68,48)" stroke="rgb(189,68,48)" stroke-width="1.51"></path><path d="M655,194L647,132L564,194Z" fill="rgb(190,89,54)" stroke="rgb(190,89,54)" stroke-width="1.51"></path><path d="M576,46L635,-37L557,-22Z" fill="rgb(202,138,115)" stroke="rgb(202,138,115)" stroke-width="1.51"></path><path d="M272,-110L179,-24L263,-8Z" fill="rgb(255,213,139)" stroke="rgb(255,213,139)" stroke-width="1.51"></path><path d="M172,54L113,30L129,122Z" fill="rgb(255,224,135)" stroke="rgb(255,224,135)" stroke-width="1.51"></path><path d="M97,219L114,263L172,213Z" fill="rgb(255,167,89)" stroke="rgb(255,167,89)" stroke-width="1.51"></path><path d="M653,260L655,194L582,262Z" fill="rgb(189,53,44)" stroke="rgb(189,53,44)" stroke-width="1.51"></path><path d="M129,122L97,219L172,213Z" fill="rgb(255,188,96)" stroke="rgb(255,188,96)" stroke-width="1.51"></path><path d="M647,132L630,48L576,46Z" fill="rgb(194,123,86)" stroke="rgb(194,123,86)" stroke-width="1.51"></path><path d="M174,352L244,429L273,358Z" fill="rgb(204,101,57)" stroke="rgb(204,101,57)" stroke-width="1.51"></path><path d="M469,486L473,408L430,409Z" fill="rgb(175,10,35)" stroke="rgb(175,10,35)" stroke-width="1.51"></path><path d="M419,-88L272,-110L335,-89Z" fill="rgb(255,185,126)" stroke="rgb(255,185,126)" stroke-width="1.51"></path><path d="M557,-22L495,-97L486,-17Z" fill="rgb(236,149,115)" stroke="rgb(236,149,115)" stroke-width="1.51"></path><path d="M562,-102L495,-97L557,-22Z" fill="rgb(226,146,115)" stroke="rgb(226,146,115)" stroke-width="1.51"></path><path d="M648,336L653,260L582,262Z" fill="rgb(180,23,37)" stroke="rgb(180,23,37)" stroke-width="1.51"></path><path d="M33,217L44,255L97,219Z" fill="rgb(255,176,108)" stroke="rgb(255,176,108)" stroke-width="1.51"></path><path d="M179,-24L113,30L172,54Z" fill="rgb(255,231,151)" stroke="rgb(255,231,151)" stroke-width="1.51"></path><path d="M335,-89L272,-110L263,-8Z" fill="rgb(255,201,133)" stroke="rgb(255,201,133)" stroke-width="1.51"></path><path d="M179,-24L123,-28L113,30Z" fill="rgb(255,237,165)" stroke="rgb(255,237,165)" stroke-width="1.51"></path><path d="M495,-97L272,-110L419,-88Z" fill="rgb(255,169,118)" stroke="rgb(255,169,118)" stroke-width="1.51"></path><path d="M473,408L545,431L506,369Z" fill="rgb(162,2,38)" stroke="rgb(162,2,38)" stroke-width="1.51"></path><path d="M546,356L648,336L582,262Z" fill="rgb(173,7,36)" stroke="rgb(173,7,36)" stroke-width="1.51"></path><path d="M469,486L430,409L402,506Z" fill="rgb(179,21,36)" stroke="rgb(179,21,36)" stroke-width="1.51"></path><path d="M402,506L430,409L322,413Z" fill="rgb(187,40,41)" stroke="rgb(187,40,41)" stroke-width="1.51"></path><path d="M174,352L203,432L244,429Z" fill="rgb(191,103,62)" stroke="rgb(191,103,62)" stroke-width="1.51"></path><path d="M120,368L203,432L174,352Z" fill="rgb(203,118,72)" stroke="rgb(203,118,72)" stroke-width="1.51"></path><path d="M130,-106L123,-28L179,-24Z" fill="rgb(255,237,163)" stroke="rgb(255,237,163)" stroke-width="1.51"></path><path d="M645,412L648,336L546,356Z" fill="rgb(147,0,38)" stroke="rgb(147,0,38)" stroke-width="1.51"></path><path d="M51,339L120,368L114,263Z" fill="rgb(239,141,87)" stroke="rgb(239,141,87)" stroke-width="1.51"></path><path d="M114,263L120,368L174,352Z" fill="rgb(236,135,77)" stroke="rgb(236,135,77)" stroke-width="1.51"></path><path d="M647,132L698,65L630,48Z" fill="rgb(194,122,83)" stroke="rgb(194,122,83)" stroke-width="1.51"></path><path d="M635,-37L562,-102L557,-22Z" fill="rgb(204,139,115)" stroke="rgb(204,139,115)" stroke-width="1.51"></path><path d="M655,194L695,113L647,132Z" fill="rgb(191,100,59)" stroke="rgb(191,100,59)" stroke-width="1.51"></path><path d="M718,218L695,113L655,194Z" fill="rgb(190,89,54)" stroke="rgb(190,89,54)" stroke-width="1.51"></path><path d="M718,218L655,194L653,260Z" fill="rgb(189,63,46)" stroke="rgb(189,63,46)" stroke-width="1.51"></path><path d="M495,-97L646,-116L272,-110Z" fill="rgb(247,154,113)" stroke="rgb(247,154,113)" stroke-width="1.51"></path><path d="M635,-37L576,46L630,48Z" fill="rgb(196,133,107)" stroke="rgb(196,133,107)" stroke-width="1.51"></path><path d="M402,506L322,413L355,518Z" fill="rgb(189,51,43)" stroke="rgb(189,51,43)" stroke-width="1.51"></path><path d="M716,-19L635,-37L630,48Z" fill="rgb(197,137,115)" stroke="rgb(197,137,115)" stroke-width="1.51"></path><path d="M355,518L322,413L249,508Z" fill="rgb(189,75,50)" stroke="rgb(189,75,50)" stroke-width="1.51"></path><path d="M695,113L698,65L647,132Z" fill="rgb(193,117,75)" stroke="rgb(193,117,75)" stroke-width="1.51"></path><path d="M97,219L44,255L114,263Z" fill="rgb(255,165,97)" stroke="rgb(255,165,97)" stroke-width="1.51"></path><path d="M33,217L97,219L23,129Z" fill="rgb(255,197,119)" stroke="rgb(255,197,119)" stroke-width="1.51"></path><path d="M97,219L129,122L23,129Z" fill="rgb(255,204,115)" stroke="rgb(255,204,115)" stroke-width="1.51"></path><path d="M23,129L129,122L37,42Z" fill="rgb(255,229,144)" stroke="rgb(255,229,144)" stroke-width="1.51"></path><path d="M695,113L718,218L698,65Z" fill="rgb(192,106,64)" stroke="rgb(192,106,64)" stroke-width="1.51"></path><path d="M730,282L718,218L653,260Z" fill="rgb(187,41,41)" stroke="rgb(187,41,41)" stroke-width="1.51"></path><path d="M249,508L322,413L244,429Z" fill="rgb(190,86,53)" stroke="rgb(190,86,53)" stroke-width="1.51"></path><path d="M646,-116L168,-114L272,-110Z" fill="rgb(255,178,122)" stroke="rgb(255,178,122)" stroke-width="1.51"></path><path d="M272,-110L168,-114L179,-24Z" fill="rgb(255,221,146)" stroke="rgb(255,221,146)" stroke-width="1.51"></path><path d="M37,42L113,30L28,-17Z" fill="rgb(255,244,179)" stroke="rgb(255,244,179)" stroke-width="1.51"></path><path d="M37,42L129,122L113,30Z" fill="rgb(255,231,149)" stroke="rgb(255,231,149)" stroke-width="1.51"></path><path d="M28,-17L113,30L123,-28Z" fill="rgb(255,244,179)" stroke="rgb(255,244,179)" stroke-width="1.51"></path><path d="M194,501L249,508L203,432Z" fill="rgb(191,101,60)" stroke="rgb(191,101,60)" stroke-width="1.51"></path><path d="M203,432L249,508L244,429Z" fill="rgb(191,97,57)" stroke="rgb(191,97,57)" stroke-width="1.51"></path><path d="M648,336L730,282L653,260Z" fill="rgb(178,18,36)" stroke="rgb(178,18,36)" stroke-width="1.51"></path><path d="M545,431L645,412L546,356Z" fill="rgb(136,0,38)" stroke="rgb(136,0,38)" stroke-width="1.51"></path><path d="M560,510L645,412L545,431Z" fill="rgb(134,0,38)" stroke="rgb(134,0,38)" stroke-width="1.51"></path><path d="M-35,330L51,339L44,255Z" fill="rgb(249,153,107)" stroke="rgb(249,153,107)" stroke-width="1.51"></path><path d="M44,255L51,339L114,263Z" fill="rgb(253,153,95)" stroke="rgb(253,153,95)" stroke-width="1.51"></path><path d="M103,437L194,501L203,432Z" fill="rgb(192,114,72)" stroke="rgb(192,114,72)" stroke-width="1.51"></path><path d="M168,-114L130,-106L179,-24Z" fill="rgb(255,233,159)" stroke="rgb(255,233,159)" stroke-width="1.51"></path><path d="M697,360L730,282L648,336Z" fill="rgb(167,5,37)" stroke="rgb(167,5,37)" stroke-width="1.51"></path><path d="M718,218L716,-19L698,65Z" fill="rgb(194,121,81)" stroke="rgb(194,121,81)" stroke-width="1.51"></path><path d="M645,412L697,360L648,336Z" fill="rgb(146,0,38)" stroke="rgb(146,0,38)" stroke-width="1.51"></path><path d="M103,437L203,432L120,368Z" fill="rgb(193,119,79)" stroke="rgb(193,119,79)" stroke-width="1.51"></path><path d="M25,426L103,437L120,368Z" fill="rgb(195,127,93)" stroke="rgb(195,127,93)" stroke-width="1.51"></path><path d="M469,486L560,510L545,431Z" fill="rgb(158,0,38)" stroke="rgb(158,0,38)" stroke-width="1.51"></path><path d="M645,412L708,419L697,360Z" fill="rgb(130,0,38)" stroke="rgb(130,0,38)" stroke-width="1.51"></path><path d="M402,506L560,510L469,486Z" fill="rgb(170,7,36)" stroke="rgb(170,7,36)" stroke-width="1.51"></path><path d="M355,518L560,510L402,506Z" fill="rgb(178,18,36)" stroke="rgb(178,18,36)" stroke-width="1.51"></path><path d="M698,65L716,-19L630,48Z" fill="rgb(196,131,102)" stroke="rgb(196,131,102)" stroke-width="1.51"></path><path d="M635,-37L646,-116L562,-102Z" fill="rgb(197,137,115)" stroke="rgb(197,137,115)" stroke-width="1.51"></path><path d="M730,282L716,-19L718,218Z" fill="rgb(191,95,56)" stroke="rgb(191,95,56)" stroke-width="1.51"></path><path d="M37,42L-24,112L23,129Z" fill="rgb(255,235,160)" stroke="rgb(255,235,160)" stroke-width="1.51"></path><path d="M32,-107L28,-17L123,-28Z" fill="rgb(255,247,186)" stroke="rgb(255,247,186)" stroke-width="1.51"></path><path d="M715,-110L646,-116L635,-37Z" fill="rgb(197,137,115)" stroke="rgb(197,137,115)" stroke-width="1.51"></path><path d="M562,-102L646,-116L495,-97Z" fill="rgb(212,142,115)" stroke="rgb(212,142,115)" stroke-width="1.51"></path><path d="M-30,55L-24,112L37,42Z" fill="rgb(255,242,174)" stroke="rgb(255,242,174)" stroke-width="1.51"></path><path d="M23,129L-33,205L33,217Z" fill="rgb(255,203,132)" stroke="rgb(255,203,132)" stroke-width="1.51"></path><path d="M33,217L-57,260L44,255Z" fill="rgb(255,175,120)" stroke="rgb(255,175,120)" stroke-width="1.51"></path><path d="M51,339L25,426L120,368Z" fill="rgb(211,134,98)" stroke="rgb(211,134,98)" stroke-width="1.51"></path><path d="M-24,112L-33,205L23,129Z" fill="rgb(255,217,141)" stroke="rgb(255,217,141)" stroke-width="1.51"></path><path d="M645,511L708,419L645,412Z" fill="rgb(128,0,38)" stroke="rgb(128,0,38)" stroke-width="1.51"></path><path d="M697,360L708,419L730,282Z" fill="rgb(156,0,38)" stroke="rgb(156,0,38)" stroke-width="1.51"></path><path d="M-98,195L-57,260L-33,205Z" fill="rgb(255,188,127)" stroke="rgb(255,188,127)" stroke-width="1.51"></path><path d="M28,-17L-30,55L37,42Z" fill="rgb(255,248,189)" stroke="rgb(255,248,189)" stroke-width="1.51"></path><path d="M103,437L98,508L194,501Z" fill="rgb(194,121,81)" stroke="rgb(194,121,81)" stroke-width="1.51"></path><path d="M-25,407L25,426L51,339Z" fill="rgb(203,137,110)" stroke="rgb(203,137,110)" stroke-width="1.51"></path><path d="M560,510L645,511L645,412Z" fill="rgb(128,0,38)" stroke="rgb(128,0,38)" stroke-width="1.51"></path><path d="M355,518L645,511L560,510Z" fill="rgb(160,1,38)" stroke="rgb(160,1,38)" stroke-width="1.51"></path><path d="M23,496L98,508L103,437Z" fill="rgb(195,128,95)" stroke="rgb(195,128,95)" stroke-width="1.51"></path><path d="M194,501L98,508L249,508Z" fill="rgb(192,110,69)" stroke="rgb(192,110,69)" stroke-width="1.51"></path><path d="M249,508L98,508L355,518Z" fill="rgb(191,96,57)" stroke="rgb(191,96,57)" stroke-width="1.51"></path><path d="M-57,260L-35,330L44,255Z" fill="rgb(255,163,115)" stroke="rgb(255,163,115)" stroke-width="1.51"></path><path d="M130,-106L32,-107L123,-28Z" fill="rgb(255,243,177)" stroke="rgb(255,243,177)" stroke-width="1.51"></path><path d="M28,-17L-49,-13L-30,55Z" fill="rgb(255,253,200)" stroke="rgb(255,253,200)" stroke-width="1.51"></path><path d="M168,-114L32,-107L130,-106Z" fill="rgb(255,241,173)" stroke="rgb(255,241,173)" stroke-width="1.51"></path><path d="M716,-19L715,-110L635,-37Z" fill="rgb(197,137,115)" stroke="rgb(197,137,115)" stroke-width="1.51"></path><path d="M730,282L715,-110L716,-19Z" fill="rgb(195,128,95)" stroke="rgb(195,128,95)" stroke-width="1.51"></path><path d="M-33,205L-57,260L33,217Z" fill="rgb(255,185,126)" stroke="rgb(255,185,126)" stroke-width="1.51"></path><path d="M-98,195L-33,205L-24,112Z" fill="rgb(255,209,137)" stroke="rgb(255,209,137)" stroke-width="1.51"></path><path d="M-125,143L-98,195L-24,112Z" fill="rgb(255,216,140)" stroke="rgb(255,216,140)" stroke-width="1.51"></path><path d="M-32,-103L-49,-13L28,-17Z" fill="rgb(255,255,204)" stroke="rgb(255,255,204)" stroke-width="1.51"></path><path d="M25,426L23,496L103,437Z" fill="rgb(196,131,101)" stroke="rgb(196,131,101)" stroke-width="1.51"></path><path d="M-35,330L-25,407L51,339Z" fill="rgb(226,146,115)" stroke="rgb(226,146,115)" stroke-width="1.51"></path><path d="M-95,368L-25,407L-35,330Z" fill="rgb(219,144,115)" stroke="rgb(219,144,115)" stroke-width="1.51"></path><path d="M-57,260L-101,266L-35,330Z" fill="rgb(255,162,114)" stroke="rgb(255,162,114)" stroke-width="1.51"></path><path d="M-125,143L-24,112L-114,50Z" fill="rgb(255,235,161)" stroke="rgb(255,235,161)" stroke-width="1.51"></path><path d="M645,511L714,503L708,419Z" fill="rgb(128,0,38)" stroke="rgb(128,0,38)" stroke-width="1.51"></path><path d="M708,419L714,503L730,282Z" fill="rgb(128,0,38)" stroke="rgb(128,0,38)" stroke-width="1.51"></path><path d="M-22,483L23,496L25,426Z" fill="rgb(197,136,113)" stroke="rgb(197,136,113)" stroke-width="1.51"></path><path d="M-98,195L-101,266L-57,260Z" fill="rgb(255,178,122)" stroke="rgb(255,178,122)" stroke-width="1.51"></path><path d="M32,-107L-32,-103L28,-17Z" fill="rgb(255,254,201)" stroke="rgb(255,254,201)" stroke-width="1.51"></path><path d="M-114,50L-24,112L-30,55Z" fill="rgb(255,241,173)" stroke="rgb(255,241,173)" stroke-width="1.51"></path><path d="M-114,50L-30,55L-49,-13Z" fill="rgb(255,249,190)" stroke="rgb(255,249,190)" stroke-width="1.51"></path><path d="M-98,195L-125,143L-101,266Z" fill="rgb(255,198,131)" stroke="rgb(255,198,131)" stroke-width="1.51"></path><path d="M-113,-8L-114,50L-49,-13Z" fill="rgb(255,253,199)" stroke="rgb(255,253,199)" stroke-width="1.51"></path><path d="M-25,407L-22,483L25,426Z" fill="rgb(197,137,115)" stroke="rgb(197,137,115)" stroke-width="1.51"></path><path d="M-120,425L-22,483L-25,407Z" fill="rgb(197,137,115)" stroke="rgb(197,137,115)" stroke-width="1.51"></path><path d="M-101,266L-95,368L-35,330Z" fill="rgb(244,153,113)" stroke="rgb(244,153,113)" stroke-width="1.51"></path><path d="M-120,425L-95,368L-101,266Z" fill="rgb(230,147,115)" stroke="rgb(230,147,115)" stroke-width="1.51"></path><path d="M-124,-110L-113,-8L-49,-13Z" fill="rgb(255,255,204)" stroke="rgb(255,255,204)" stroke-width="1.51"></path><path d="M-114,50L-124,-110L-125,143Z" fill="rgb(255,250,192)" stroke="rgb(255,250,192)" stroke-width="1.51"></path><path d="M-95,368L-120,425L-25,407Z" fill="rgb(197,137,115)" stroke="rgb(197,137,115)" stroke-width="1.51"></path><path d="M-125,143L-120,425L-101,266Z" fill="rgb(255,164,116)" stroke="rgb(255,164,116)" stroke-width="1.51"></path><path d="M168,-114L-124,-110L32,-107Z" fill="rgb(255,252,196)" stroke="rgb(255,252,196)" stroke-width="1.51"></path><path d="M32,-107L-124,-110L-32,-103Z" fill="rgb(255,255,204)" stroke="rgb(255,255,204)" stroke-width="1.51"></path><path d="M-32,-103L-124,-110L-49,-13Z" fill="rgb(255,255,204)" stroke="rgb(255,255,204)" stroke-width="1.51"></path><path d="M-113,-8L-124,-110L-114,50Z" fill="rgb(255,255,204)" stroke="rgb(255,255,204)" stroke-width="1.51"></path><path d="M-22,483L-129,503L23,496Z" fill="rgb(197,137,115)" stroke="rgb(197,137,115)" stroke-width="1.51"></path><path d="M23,496L-129,503L98,508Z" fill="rgb(197,137,115)" stroke="rgb(197,137,115)" stroke-width="1.51"></path><path d="M98,508L-129,503L355,518Z" fill="rgb(194,124,87)" stroke="rgb(194,124,87)" stroke-width="1.51"></path><path d="M-120,425L-129,503L-22,483Z" fill="rgb(197,137,115)" stroke="rgb(197,137,115)" stroke-width="1.51"></path><path d="M-125,143L-129,503L-120,425Z" fill="rgb(227,146,115)" stroke="rgb(227,146,115)" stroke-width="1.51"></path><path d="M-124,-110L-129,503L-125,143Z" fill="rgb(255,206,135)" stroke="rgb(255,206,135)" stroke-width="1.51"></path></svg>