<svg width="600" height="400" xmlns="http://www.w3.org/2000/svg"><path d="M326,200L267,202L271,272Z" fill="rgb(237,239,240)" stroke="rgb(237,239,240)" stroke-width="1.51"></path><path d="M271,272L346,268L326,200Z" fill="rgb(219,233,241)" stroke="rgb(219,233,241)" stroke-width="1.51"></path><path d="M271,272L271,339L346,268Z" fill="rgb(188,212,229)" stroke="rgb(188,212,229)" stroke-width="1.51"></path><path d="M192,284L271,339L271,272Z" fill="rgb(189,197,207)" stroke="rgb(189,197,207)" stroke-width="1.51"></path><path d="M326,200L325,123L267,202Z" fill="rgb(247,237,231)" stroke="rgb(247,237,231)" stroke-width="1.51"></path><path d="M400,128L325,123L326,200Z" fill="rgb(236,219,211)" stroke="rgb(236,219,211)" stroke-width="1.51"></path><path d="M267,202L192,284L271,272Z" fill="rgb(224,220,218)" stroke="rgb(224,220,218)" stroke-width="1.51"></path><path d="M183,187L192,284L267,202Z" fill="rgb(240,216,206)" stroke="rgb(240,216,206)" stroke-width="1.51"></path><path d="M194,132L183,187L267,202Z" fill="rgb(252,212,192)" stroke="rgb(252,212,192)" stroke-width="1.51"></path><path d="M346,268L425,209L326,200Z" fill="rgb(213,230,241)" stroke="rgb(213,230,241)" stroke-width="1.51"></path><path d="M423,286L425,209L346,268Z" fill="rgb(179,213,231)" stroke="rgb(179,213,231)" stroke-width="1.51"></path><path d="M271,339L333,361L346,268Z" fill="rgb(159,192,219)" stroke="rgb(159,192,219)" stroke-width="1.51"></path><path d="M325,123L249,114L267,202Z" fill="rgb(251,219,203)" stroke="rgb(251,219,203)" stroke-width="1.51"></path><path d="M413,346L423,286L346,268Z" fill="rgb(143,191,220)" stroke="rgb(143,191,220)" stroke-width="1.51"></path><path d="M249,114L194,132L267,202Z" fill="rgb(253,210,187)" stroke="rgb(253,210,187)" stroke-width="1.51"></path><path d="M425,209L400,128L326,200Z" fill="rgb(219,224,228)" stroke="rgb(219,224,228)" stroke-width="1.51"></path><path d="M325,123L257,37L249,114Z" fill="rgb(242,176,158)" stroke="rgb(242,176,158)" stroke-width="1.51"></path><path d="M333,361L413,346L346,268Z" fill="rgb(141,183,216)" stroke="rgb(141,183,216)" stroke-width="1.51"></path><path d="M192,284L174,350L271,339Z" fill="rgb(173,168,181)" stroke="rgb(173,168,181)" stroke-width="1.51"></path><path d="M276,432L345,415L333,361Z" fill="rgb(127,138,169)" stroke="rgb(127,138,169)" stroke-width="1.51"></path><path d="M117,263L174,350L192,284Z" fill="rgb(188,160,161)" stroke="rgb(188,160,161)" stroke-width="1.51"></path><path d="M183,187L117,263L192,284Z" fill="rgb(227,186,175)" stroke="rgb(227,186,175)" stroke-width="1.51"></path><path d="M102,210L117,263L183,187Z" fill="rgb(233,176,164)" stroke="rgb(233,176,164)" stroke-width="1.51"></path><path d="M494,279L425,209L423,286Z" fill="rgb(148,194,221)" stroke="rgb(148,194,221)" stroke-width="1.51"></path><path d="M494,279L477,194L425,209Z" fill="rgb(159,196,222)" stroke="rgb(159,196,222)" stroke-width="1.51"></path><path d="M425,209L477,194L400,128Z" fill="rgb(194,208,218)" stroke="rgb(194,208,218)" stroke-width="1.51"></path><path d="M333,361L345,415L413,346Z" fill="rgb(123,151,192)" stroke="rgb(123,151,192)" stroke-width="1.51"></path><path d="M276,432L333,361L271,339Z" fill="rgb(145,156,190)" stroke="rgb(145,156,190)" stroke-width="1.51"></path><path d="M106,129L102,210L183,187Z" fill="rgb(240,169,149)" stroke="rgb(240,169,149)" stroke-width="1.51"></path><path d="M178,425L276,432L271,339Z" fill="rgb(139,129,149)" stroke="rgb(139,129,149)" stroke-width="1.51"></path><path d="M486,359L494,279L423,286Z" fill="rgb(90,159,202)" stroke="rgb(90,159,202)" stroke-width="1.51"></path><path d="M486,359L423,286L413,346Z" fill="rgb(93,157,201)" stroke="rgb(93,157,201)" stroke-width="1.51"></path><path d="M344,36L257,37L325,123Z" fill="rgb(231,161,150)" stroke="rgb(231,161,150)" stroke-width="1.51"></path><path d="M249,114L194,54L194,132Z" fill="rgb(241,163,134)" stroke="rgb(241,163,134)" stroke-width="1.51"></path><path d="M194,132L106,129L183,187Z" fill="rgb(245,175,146)" stroke="rgb(245,175,146)" stroke-width="1.51"></path><path d="M410,62L344,36L325,123Z" fill="rgb(220,160,152)" stroke="rgb(220,160,152)" stroke-width="1.51"></path><path d="M410,62L325,123L400,128Z" fill="rgb(220,179,171)" stroke="rgb(220,179,171)" stroke-width="1.51"></path><path d="M489,137L410,62L400,128Z" fill="rgb(196,167,165)" stroke="rgb(196,167,165)" stroke-width="1.51"></path><path d="M257,37L194,54L249,114Z" fill="rgb(233,147,126)" stroke="rgb(233,147,126)" stroke-width="1.51"></path><path d="M477,194L489,137L400,128Z" fill="rgb(186,188,197)" stroke="rgb(186,188,197)" stroke-width="1.51"></path><path d="M562,191L489,137L477,194Z" fill="rgb(164,175,201)" stroke="rgb(164,175,201)" stroke-width="1.51"></path><path d="M194,54L106,129L194,132Z" fill="rgb(235,144,113)" stroke="rgb(235,144,113)" stroke-width="1.51"></path><path d="M174,350L178,425L271,339Z" fill="rgb(155,136,157)" stroke="rgb(155,136,157)" stroke-width="1.51"></path><path d="M103,347L178,425L174,350Z" fill="rgb(150,107,126)" stroke="rgb(150,107,126)" stroke-width="1.51"></path><path d="M46,341L103,347L117,263Z" fill="rgb(162,113,126)" stroke="rgb(162,113,126)" stroke-width="1.51"></path><path d="M117,263L103,347L174,350Z" fill="rgb(168,131,141)" stroke="rgb(168,131,141)" stroke-width="1.51"></path><path d="M416,430L486,359L413,346Z" fill="rgb(78,126,175)" stroke="rgb(78,126,175)" stroke-width="1.51"></path><path d="M345,415L416,430L413,346Z" fill="rgb(98,127,165)" stroke="rgb(98,127,165)" stroke-width="1.51"></path><path d="M338,507L416,430L345,415Z" fill="rgb(110,131,165)" stroke="rgb(110,131,165)" stroke-width="1.51"></path><path d="M257,37L174,-16L194,54Z" fill="rgb(202,110,97)" stroke="rgb(202,110,97)" stroke-width="1.51"></path><path d="M194,54L107,44L106,129Z" fill="rgb(216,103,81)" stroke="rgb(216,103,81)" stroke-width="1.51"></path><path d="M344,36L265,-16L257,37Z" fill="rgb(201,133,130)" stroke="rgb(201,133,130)" stroke-width="1.51"></path><path d="M340,-17L265,-16L344,36Z" fill="rgb(178,125,129)" stroke="rgb(178,125,129)" stroke-width="1.51"></path><path d="M414,-17L340,-17L344,36Z" fill="rgb(163,118,126)" stroke="rgb(163,118,126)" stroke-width="1.51"></path><path d="M414,-17L344,36L410,62Z" fill="rgb(182,124,128)" stroke="rgb(182,124,128)" stroke-width="1.51"></path><path d="M102,210L39,265L117,263Z" fill="rgb(210,146,142)" stroke="rgb(210,146,142)" stroke-width="1.51"></path><path d="M39,200L39,265L102,210Z" fill="rgb(214,140,136)" stroke="rgb(214,140,136)" stroke-width="1.51"></path><path d="M106,129L39,200L102,210Z" fill="rgb(229,148,134)" stroke="rgb(229,148,134)" stroke-width="1.51"></path><path d="M489,137L483,42L410,62Z" fill="rgb(176,133,139)" stroke="rgb(176,133,139)" stroke-width="1.51"></path><path d="M573,284L562,191L494,279Z" fill="rgb(122,157,202)" stroke="rgb(122,157,202)" stroke-width="1.51"></path><path d="M494,279L562,191L477,194Z" fill="rgb(148,178,213)" stroke="rgb(148,178,213)" stroke-width="1.51"></path><path d="M489,137L564,57L483,42Z" fill="rgb(159,111,129)" stroke="rgb(159,111,129)" stroke-width="1.51"></path><path d="M174,-16L107,44L194,54Z" fill="rgb(195,85,73)" stroke="rgb(195,85,73)" stroke-width="1.51"></path><path d="M106,129L46,125L39,200Z" fill="rgb(221,126,111)" stroke="rgb(221,126,111)" stroke-width="1.51"></path><path d="M276,432L338,507L345,415Z" fill="rgb(126,138,169)" stroke="rgb(126,138,169)" stroke-width="1.51"></path><path d="M178,425L266,505L276,432Z" fill="rgb(138,127,148)" stroke="rgb(138,127,148)" stroke-width="1.51"></path><path d="M39,265L46,341L117,263Z" fill="rgb(177,120,127)" stroke="rgb(177,120,127)" stroke-width="1.51"></path><path d="M103,347L110,438L178,425Z" fill="rgb(130,77,94)" stroke="rgb(130,77,94)" stroke-width="1.51"></path><path d="M178,425L178,502L266,505Z" fill="rgb(138,114,130)" stroke="rgb(138,114,130)" stroke-width="1.51"></path><path d="M552,362L573,284L494,279Z" fill="rgb(67,131,188)" stroke="rgb(67,131,188)" stroke-width="1.51"></path><path d="M416,430L489,431L486,359Z" fill="rgb(53,101,148)" stroke="rgb(53,101,148)" stroke-width="1.51"></path><path d="M417,497L489,431L416,430Z" fill="rgb(68,110,153)" stroke="rgb(68,110,153)" stroke-width="1.51"></path><path d="M266,505L338,507L276,432Z" fill="rgb(133,139,167)" stroke="rgb(133,139,167)" stroke-width="1.51"></path><path d="M107,44L46,125L106,129Z" fill="rgb(212,97,79)" stroke="rgb(212,97,79)" stroke-width="1.51"></path><path d="M41,415L110,438L103,347Z" fill="rgb(120,56,78)" stroke="rgb(120,56,78)" stroke-width="1.51"></path><path d="M562,191L554,132L489,137Z" fill="rgb(162,156,182)" stroke="rgb(162,156,182)" stroke-width="1.51"></path><path d="M483,42L414,-17L410,62Z" fill="rgb(163,112,122)" stroke="rgb(163,112,122)" stroke-width="1.51"></path><path d="M552,362L494,279L486,359Z" fill="rgb(55,128,185)" stroke="rgb(55,128,185)" stroke-width="1.51"></path><path d="M180,-95L174,-16L265,-16Z" fill="rgb(176,99,91)" stroke="rgb(176,99,91)" stroke-width="1.51"></path><path d="M265,-16L174,-16L257,37Z" fill="rgb(181,111,105)" stroke="rgb(181,111,105)" stroke-width="1.51"></path><path d="M489,431L552,362L486,359Z" fill="rgb(36,96,155)" stroke="rgb(36,96,155)" stroke-width="1.51"></path><path d="M338,507L417,497L416,430Z" fill="rgb(98,125,162)" stroke="rgb(98,125,162)" stroke-width="1.51"></path><path d="M110,438L178,502L178,425Z" fill="rgb(134,90,105)" stroke="rgb(134,90,105)" stroke-width="1.51"></path><path d="M110,438L112,507L178,502Z" fill="rgb(130,79,95)" stroke="rgb(130,79,95)" stroke-width="1.51"></path><path d="M46,341L41,415L103,347Z" fill="rgb(135,70,100)" stroke="rgb(135,70,100)" stroke-width="1.51"></path><path d="M-29,338L41,415L46,341Z" fill="rgb(109,61,96)" stroke="rgb(109,61,96)" stroke-width="1.51"></path><path d="M483,42L485,-25L414,-17Z" fill="rgb(121,90,111)" stroke="rgb(121,90,111)" stroke-width="1.51"></path><path d="M554,132L564,57L489,137Z" fill="rgb(160,125,146)" stroke="rgb(160,125,146)" stroke-width="1.51"></path><path d="M628,118L564,57L554,132Z" fill="rgb(141,97,115)" stroke="rgb(141,97,115)" stroke-width="1.51"></path><path d="M628,118L554,132L562,191Z" fill="rgb(146,128,149)" stroke="rgb(146,128,149)" stroke-width="1.51"></path><path d="M340,-17L274,-90L265,-16Z" fill="rgb(181,126,127)" stroke="rgb(181,126,127)" stroke-width="1.51"></path><path d="M343,-96L274,-90L340,-17Z" fill="rgb(176,125,129)" stroke="rgb(176,125,129)" stroke-width="1.51"></path><path d="M551,-17L485,-25L483,42Z" fill="rgb(106,73,103)" stroke="rgb(106,73,103)" stroke-width="1.51"></path><path d="M338,507L474,507L417,497Z" fill="rgb(87,120,159)" stroke="rgb(87,120,159)" stroke-width="1.51"></path><path d="M417,497L474,507L489,431Z" fill="rgb(55,103,149)" stroke="rgb(55,103,149)" stroke-width="1.51"></path><path d="M489,431L563,428L552,362Z" fill="rgb(21,76,135)" stroke="rgb(21,76,135)" stroke-width="1.51"></path><path d="M105,-29L39,40L107,44Z" fill="rgb(164,36,46)" stroke="rgb(164,36,46)" stroke-width="1.51"></path><path d="M107,44L39,40L46,125Z" fill="rgb(193,58,56)" stroke="rgb(193,58,56)" stroke-width="1.51"></path><path d="M46,125L-30,189L39,200Z" fill="rgb(193,123,117)" stroke="rgb(193,123,117)" stroke-width="1.51"></path><path d="M343,-96L340,-17L414,-17Z" fill="rgb(162,118,126)" stroke="rgb(162,118,126)" stroke-width="1.51"></path><path d="M174,-16L105,-29L107,44Z" fill="rgb(159,57,57)" stroke="rgb(159,57,57)" stroke-width="1.51"></path><path d="M109,-87L105,-29L174,-16Z" fill="rgb(160,58,57)" stroke="rgb(160,58,57)" stroke-width="1.51"></path><path d="M557,496L563,428L489,431Z" fill="rgb(21,76,134)" stroke="rgb(21,76,134)" stroke-width="1.51"></path><path d="M625,361L636,274L573,284Z" fill="rgb(55,103,149)" stroke="rgb(55,103,149)" stroke-width="1.51"></path><path d="M32,499L112,507L110,438Z" fill="rgb(120,56,78)" stroke="rgb(120,56,78)" stroke-width="1.51"></path><path d="M178,502L112,507L266,505Z" fill="rgb(138,105,118)" stroke="rgb(138,105,118)" stroke-width="1.51"></path><path d="M266,505L112,507L338,507Z" fill="rgb(138,127,147)" stroke="rgb(138,127,147)" stroke-width="1.51"></path><path d="M-26,122L-30,189L46,125Z" fill="rgb(178,104,97)" stroke="rgb(178,104,97)" stroke-width="1.51"></path><path d="M39,200L-33,266L39,265Z" fill="rgb(173,122,128)" stroke="rgb(173,122,128)" stroke-width="1.51"></path><path d="M39,265L-29,338L46,341Z" fill="rgb(129,91,112)" stroke="rgb(129,91,112)" stroke-width="1.51"></path><path d="M-30,189L-33,266L39,200Z" fill="rgb(173,124,129)" stroke="rgb(173,124,129)" stroke-width="1.51"></path><path d="M415,-109L343,-96L414,-17Z" fill="rgb(152,113,123)" stroke="rgb(152,113,123)" stroke-width="1.51"></path><path d="M573,284L638,207L562,191Z" fill="rgb(122,140,173)" stroke="rgb(122,140,173)" stroke-width="1.51"></path><path d="M625,361L573,284L552,362Z" fill="rgb(36,94,151)" stroke="rgb(36,94,151)" stroke-width="1.51"></path><path d="M636,274L638,207L573,284Z" fill="rgb(102,127,163)" stroke="rgb(102,127,163)" stroke-width="1.51"></path><path d="M-33,266L-29,338L39,265Z" fill="rgb(133,100,116)" stroke="rgb(133,100,116)" stroke-width="1.51"></path><path d="M41,415L32,499L110,438Z" fill="rgb(114,46,71)" stroke="rgb(114,46,71)" stroke-width="1.51"></path><path d="M39,40L-26,122L46,125Z" fill="rgb(176,71,65)" stroke="rgb(176,71,65)" stroke-width="1.51"></path><path d="M564,57L551,-17L483,42Z" fill="rgb(128,73,104)" stroke="rgb(128,73,104)" stroke-width="1.51"></path><path d="M638,207L628,118L562,191Z" fill="rgb(137,131,154)" stroke="rgb(137,131,154)" stroke-width="1.51"></path><path d="M563,428L625,361L552,362Z" fill="rgb(15,67,124)" stroke="rgb(15,67,124)" stroke-width="1.51"></path><path d="M274,-90L180,-95L265,-16Z" fill="rgb(180,114,109)" stroke="rgb(180,114,109)" stroke-width="1.51"></path><path d="M343,-96L180,-95L274,-90Z" fill="rgb(180,120,118)" stroke="rgb(180,120,118)" stroke-width="1.51"></path><path d="M634,-13L551,-17L564,57Z" fill="rgb(91,44,74)" stroke="rgb(91,44,74)" stroke-width="1.51"></path><path d="M485,-25L415,-109L414,-17Z" fill="rgb(131,99,116)" stroke="rgb(131,99,116)" stroke-width="1.51"></path><path d="M343,-96L415,-109L180,-95Z" fill="rgb(177,125,130)" stroke="rgb(177,125,130)" stroke-width="1.51"></path><path d="M475,-112L415,-109L485,-25Z" fill="rgb(122,91,112)" stroke="rgb(122,91,112)" stroke-width="1.51"></path><path d="M563,428L634,430L625,361Z" fill="rgb(5,48,97)" stroke="rgb(5,48,97)" stroke-width="1.51"></path><path d="M474,507L557,496L489,431Z" fill="rgb(31,86,140)" stroke="rgb(31,86,140)" stroke-width="1.51"></path><path d="M723,56L624,58L628,118Z" fill="rgb(127,70,88)" stroke="rgb(127,70,88)" stroke-width="1.51"></path><path d="M628,118L624,58L564,57Z" fill="rgb(127,71,88)" stroke="rgb(127,71,88)" stroke-width="1.51"></path><path d="M-119,355L-27,420L-29,338Z" fill="rgb(92,53,88)" stroke="rgb(92,53,88)" stroke-width="1.51"></path><path d="M-29,338L-27,420L41,415Z" fill="rgb(81,39,70)" stroke="rgb(81,39,70)" stroke-width="1.51"></path><path d="M39,40L-49,58L-26,122Z" fill="rgb(154,47,50)" stroke="rgb(154,47,50)" stroke-width="1.51"></path><path d="M105,-29L25,-27L39,40Z" fill="rgb(137,9,37)" stroke="rgb(137,9,37)" stroke-width="1.51"></path><path d="M180,-95L109,-87L174,-16Z" fill="rgb(166,73,67)" stroke="rgb(166,73,67)" stroke-width="1.51"></path><path d="M-27,420L32,499L41,415Z" fill="rgb(85,36,65)" stroke="rgb(85,36,65)" stroke-width="1.51"></path><path d="M36,-90L25,-27L105,-29Z" fill="rgb(137,9,37)" stroke="rgb(137,9,37)" stroke-width="1.51"></path><path d="M632,494L634,430L563,428Z" fill="rgb(5,48,97)" stroke="rgb(5,48,97)" stroke-width="1.51"></path><path d="M724,277L702,208L636,274Z" fill="rgb(103,128,163)" stroke="rgb(103,128,163)" stroke-width="1.51"></path><path d="M636,274L702,208L638,207Z" fill="rgb(118,135,167)" stroke="rgb(118,135,167)" stroke-width="1.51"></path><path d="M-120,129L-109,207L-30,189Z" fill="rgb(180,119,117)" stroke="rgb(180,119,117)" stroke-width="1.51"></path><path d="M-30,189L-109,207L-33,266Z" fill="rgb(173,123,128)" stroke="rgb(173,123,128)" stroke-width="1.51"></path><path d="M-33,266L-122,278L-29,338Z" fill="rgb(130,98,115)" stroke="rgb(130,98,115)" stroke-width="1.51"></path><path d="M-28,-14L-49,58L39,40Z" fill="rgb(129,6,36)" stroke="rgb(129,6,36)" stroke-width="1.51"></path><path d="M557,-91L485,-25L551,-17Z" fill="rgb(100,64,99)" stroke="rgb(100,64,99)" stroke-width="1.51"></path><path d="M557,-91L475,-112L485,-25Z" fill="rgb(106,73,103)" stroke="rgb(106,73,103)" stroke-width="1.51"></path><path d="M638,207L719,134L628,118Z" fill="rgb(138,123,142)" stroke="rgb(138,123,142)" stroke-width="1.51"></path><path d="M705,342L636,274L625,361Z" fill="rgb(36,92,143)" stroke="rgb(36,92,143)" stroke-width="1.51"></path><path d="M-120,129L-30,189L-26,122Z" fill="rgb(178,105,98)" stroke="rgb(178,105,98)" stroke-width="1.51"></path><path d="M25,-27L-28,-14L39,40Z" fill="rgb(110,1,32)" stroke="rgb(110,1,32)" stroke-width="1.51"></path><path d="M-49,58L-120,129L-26,122Z" fill="rgb(166,73,67)" stroke="rgb(166,73,67)" stroke-width="1.51"></path><path d="M36,-90L-28,-14L25,-27Z" fill="rgb(109,1,32)" stroke="rgb(109,1,32)" stroke-width="1.51"></path><path d="M634,-13L564,57L624,58Z" fill="rgb(108,44,70)" stroke="rgb(108,44,70)" stroke-width="1.51"></path><path d="M634,-13L557,-91L551,-17Z" fill="rgb(83,42,74)" stroke="rgb(83,42,74)" stroke-width="1.51"></path><path d="M-110,435L-31,492L-27,420Z" fill="rgb(76,33,63)" stroke="rgb(76,33,63)" stroke-width="1.51"></path><path d="M-27,420L-31,492L32,499Z" fill="rgb(76,33,63)" stroke="rgb(76,33,63)" stroke-width="1.51"></path><path d="M109,-87L36,-90L105,-29Z" fill="rgb(146,30,43)" stroke="rgb(146,30,43)" stroke-width="1.51"></path><path d="M-48,-112L36,-90L109,-87Z" fill="rgb(123,5,35)" stroke="rgb(123,5,35)" stroke-width="1.51"></path><path d="M-48,-112L109,-87L180,-95Z" fill="rgb(145,29,42)" stroke="rgb(145,29,42)" stroke-width="1.51"></path><path d="M723,56L634,-13L624,58Z" fill="rgb(108,44,70)" stroke="rgb(108,44,70)" stroke-width="1.51"></path><path d="M703,434L705,342L625,361Z" fill="rgb(12,62,116)" stroke="rgb(12,62,116)" stroke-width="1.51"></path><path d="M-109,207L-122,278L-33,266Z" fill="rgb(158,116,125)" stroke="rgb(158,116,125)" stroke-width="1.51"></path><path d="M634,430L703,434L625,361Z" fill="rgb(5,48,97)" stroke="rgb(5,48,97)" stroke-width="1.51"></path><path d="M557,496L632,494L563,428Z" fill="rgb(8,55,106)" stroke="rgb(8,55,106)" stroke-width="1.51"></path><path d="M721,511L632,494L557,496Z" fill="rgb(5,48,97)" stroke="rgb(5,48,97)" stroke-width="1.51"></path><path d="M702,208L719,134L638,207Z" fill="rgb(135,135,160)" stroke="rgb(135,135,160)" stroke-width="1.51"></path><path d="M705,342L724,277L636,274Z" fill="rgb(64,108,152)" stroke="rgb(64,108,152)" stroke-width="1.51"></path><path d="M-109,207L-120,129L-122,278Z" fill="rgb(179,126,130)" stroke="rgb(179,126,130)" stroke-width="1.51"></path><path d="M-102,39L-120,129L-49,58Z" fill="rgb(155,48,51)" stroke="rgb(155,48,51)" stroke-width="1.51"></path><path d="M724,277L719,134L702,208Z" fill="rgb(129,139,169)" stroke="rgb(129,139,169)" stroke-width="1.51"></path><path d="M-122,278L-119,355L-29,338Z" fill="rgb(110,81,106)" stroke="rgb(110,81,106)" stroke-width="1.51"></path><path d="M-120,-33L-102,39L-28,-14Z" fill="rgb(103,0,31)" stroke="rgb(103,0,31)" stroke-width="1.51"></path><path d="M-28,-14L-102,39L-49,58Z" fill="rgb(128,6,35)" stroke="rgb(128,6,35)" stroke-width="1.51"></path><path d="M705,342L703,434L724,277Z" fill="rgb(24,79,136)" stroke="rgb(24,79,136)" stroke-width="1.51"></path><path d="M632,494L703,434L634,430Z" fill="rgb(5,48,97)" stroke="rgb(5,48,97)" stroke-width="1.51"></path><path d="M-119,355L-110,435L-27,420Z" fill="rgb(76,33,63)" stroke="rgb(76,33,63)" stroke-width="1.51"></path><path d="M719,134L723,56L628,118Z" fill="rgb(134,90,104)" stroke="rgb(134,90,104)" stroke-width="1.51"></path><path d="M634,-13L629,-106L557,-91Z" fill="rgb(76,33,63)" stroke="rgb(76,33,63)" stroke-width="1.51"></path><path d="M724,277L723,56L719,134Z" fill="rgb(138,125,144)" stroke="rgb(138,125,144)" stroke-width="1.51"></path><path d="M701,-102L629,-106L634,-13Z" fill="rgb(76,33,63)" stroke="rgb(76,33,63)" stroke-width="1.51"></path><path d="M557,-91L629,-106L475,-112Z" fill="rgb(93,54,89)" stroke="rgb(93,54,89)" stroke-width="1.51"></path><path d="M723,56L707,-21L634,-13Z" fill="rgb(83,35,64)" stroke="rgb(83,35,64)" stroke-width="1.51"></path><path d="M-31,492L-107,504L32,499Z" fill="rgb(76,33,63)" stroke="rgb(76,33,63)" stroke-width="1.51"></path><path d="M32,499L-107,504L112,507Z" fill="rgb(84,36,65)" stroke="rgb(84,36,65)" stroke-width="1.51"></path><path d="M-110,435L-107,504L-31,492Z" fill="rgb(76,33,63)" stroke="rgb(76,33,63)" stroke-width="1.51"></path><path d="M-119,355L-107,504L-110,435Z" fill="rgb(76,33,63)" stroke="rgb(76,33,63)" stroke-width="1.51"></path><path d="M36,-90L-48,-112L-28,-14Z" fill="rgb(103,0,31)" stroke="rgb(103,0,31)" stroke-width="1.51"></path><path d="M415,-109L-48,-112L180,-95Z" fill="rgb(173,88,79)" stroke="rgb(173,88,79)" stroke-width="1.51"></path><path d="M475,-112L-48,-112L415,-109Z" fill="rgb(181,123,123)" stroke="rgb(181,123,123)" stroke-width="1.51"></path><path d="M-48,-112L-120,-33L-28,-14Z" fill="rgb(103,0,31)" stroke="rgb(103,0,31)" stroke-width="1.51"></path><path d="M-102,39L-120,-33L-120,129Z" fill="rgb(142,18,39)" stroke="rgb(142,18,39)" stroke-width="1.51"></path><path d="M-120,129L-120,-33L-122,278Z" fill="rgb(174,90,81)" stroke="rgb(174,90,81)" stroke-width="1.51"></path><path d="M632,494L721,511L703,434Z" fill="rgb(5,48,97)" stroke="rgb(5,48,97)" stroke-width="1.51"></path><path d="M703,434L721,511L724,277Z" fill="rgb(5,48,97)" stroke="rgb(5,48,97)" stroke-width="1.51"></path><path d="M474,507L721,511L557,496Z" fill="rgb(8,55,106)" stroke="rgb(8,55,106)" stroke-width="1.51"></path><path d="M338,507L721,511L474,507Z" fill="rgb(30,84,139)" stroke="rgb(30,84,139)" stroke-width="1.51"></path><path d="M112,507L721,511L338,507Z" fill="rgb(98,125,162)" stroke="rgb(98,125,162)" stroke-width="1.51"></path><path d="M723,56L701,-102L707,-21Z" fill="rgb(76,33,63)" stroke="rgb(76,33,63)" stroke-width="1.51"></path><path d="M707,-21L701,-102L634,-13Z" fill="rgb(76,33,63)" stroke="rgb(76,33,63)" stroke-width="1.51"></path><path d="M-48,-112L-107,-112L-120,-33Z" fill="rgb(103,0,31)" stroke="rgb(103,0,31)" stroke-width="1.51"></path></svg>