<svg width="600" height="400" xmlns="http://www.w3.org/2000/svg"><path d="M265,198L271,130L172,142Z" fill="rgb(245,229,190)" stroke="rgb(245,229,190)" stroke-width="1.51"></path><path d="M172,142L172,209L265,198Z" fill="rgb(240,223,188)" stroke="rgb(240,223,188)" stroke-width="1.51"></path><path d="M172,209L215,253L265,198Z" fill="rgb(232,228,202)" stroke="rgb(232,228,202)" stroke-width="1.51"></path><path d="M271,130L194,70L172,142Z" fill="rgb(228,199,137)" stroke="rgb(228,199,137)" stroke-width="1.51"></path><path d="M172,142L112,145L172,209Z" fill="rgb(229,198,144)" stroke="rgb(229,198,144)" stroke-width="1.51"></path><path d="M104,68L112,145L172,142Z" fill="rgb(210,165,90)" stroke="rgb(210,165,90)" stroke-width="1.51"></path><path d="M215,253L271,267L265,198Z" fill="rgb(224,234,217)" stroke="rgb(224,234,217)" stroke-width="1.51"></path><path d="M360,122L330,74L271,130Z" fill="rgb(227,207,170)" stroke="rgb(227,207,170)" stroke-width="1.51"></path><path d="M271,130L234,42L194,70Z" fill="rgb(221,177,116)" stroke="rgb(221,177,116)" stroke-width="1.51"></path><path d="M172,209L131,253L215,253Z" fill="rgb(215,210,172)" stroke="rgb(215,210,172)" stroke-width="1.51"></path><path d="M215,253L262,341L271,267Z" fill="rgb(185,215,194)" stroke="rgb(185,215,194)" stroke-width="1.51"></path><path d="M88,180L131,253L172,209Z" fill="rgb(220,189,148)" stroke="rgb(220,189,148)" stroke-width="1.51"></path><path d="M271,130L330,74L234,42Z" fill="rgb(224,185,137)" stroke="rgb(224,185,137)" stroke-width="1.51"></path><path d="M360,122L271,130L265,198Z" fill="rgb(244,233,210)" stroke="rgb(244,233,210)" stroke-width="1.51"></path><path d="M112,145L88,180L172,209Z" fill="rgb(224,184,133)" stroke="rgb(224,184,133)" stroke-width="1.51"></path><path d="M356,220L360,122L265,198Z" fill="rgb(236,239,229)" stroke="rgb(236,239,229)" stroke-width="1.51"></path><path d="M271,267L356,220L265,198Z" fill="rgb(229,241,238)" stroke="rgb(229,241,238)" stroke-width="1.51"></path><path d="M131,-19L104,68L194,70Z" fill="rgb(172,117,44)" stroke="rgb(172,117,44)" stroke-width="1.51"></path><path d="M194,70L104,68L172,142Z" fill="rgb(208,159,83)" stroke="rgb(208,159,83)" stroke-width="1.51"></path><path d="M112,145L45,127L88,180Z" fill="rgb(202,159,100)" stroke="rgb(202,159,100)" stroke-width="1.51"></path><path d="M271,267L350,272L356,220Z" fill="rgb(202,233,227)" stroke="rgb(202,233,227)" stroke-width="1.51"></path><path d="M411,260L390,213L356,220Z" fill="rgb(190,230,223)" stroke="rgb(190,230,223)" stroke-width="1.51"></path><path d="M356,220L390,213L360,122Z" fill="rgb(218,235,225)" stroke="rgb(218,235,225)" stroke-width="1.51"></path><path d="M104,68L45,127L112,145Z" fill="rgb(191,142,70)" stroke="rgb(191,142,70)" stroke-width="1.51"></path><path d="M15,281L118,340L131,253Z" fill="rgb(153,146,104)" stroke="rgb(153,146,104)" stroke-width="1.51"></path><path d="M271,267L343,334L350,272Z" fill="rgb(171,216,209)" stroke="rgb(171,216,209)" stroke-width="1.51"></path><path d="M175,378L262,341L215,253Z" fill="rgb(154,182,153)" stroke="rgb(154,182,153)" stroke-width="1.51"></path><path d="M234,42L215,-28L194,70Z" fill="rgb(181,141,86)" stroke="rgb(181,141,86)" stroke-width="1.51"></path><path d="M256,-49L215,-28L234,42Z" fill="rgb(163,133,92)" stroke="rgb(163,133,92)" stroke-width="1.51"></path><path d="M330,74L315,-20L234,42Z" fill="rgb(192,155,121)" stroke="rgb(192,155,121)" stroke-width="1.51"></path><path d="M428,36L315,-20L330,74Z" fill="rgb(173,150,117)" stroke="rgb(173,150,117)" stroke-width="1.51"></path><path d="M428,36L330,74L360,122Z" fill="rgb(197,176,132)" stroke="rgb(197,176,132)" stroke-width="1.51"></path><path d="M104,68L25,31L45,127Z" fill="rgb(161,101,26)" stroke="rgb(161,101,26)" stroke-width="1.51"></path><path d="M215,-28L131,-19L194,70Z" fill="rgb(158,121,64)" stroke="rgb(158,121,64)" stroke-width="1.51"></path><path d="M390,213L430,149L360,122Z" fill="rgb(206,225,203)" stroke="rgb(206,225,203)" stroke-width="1.51"></path><path d="M131,253L118,340L215,253Z" fill="rgb(179,184,141)" stroke="rgb(179,184,141)" stroke-width="1.51"></path><path d="M15,281L131,253L88,180Z" fill="rgb(188,163,124)" stroke="rgb(188,163,124)" stroke-width="1.51"></path><path d="M262,341L343,334L271,267Z" fill="rgb(161,201,193)" stroke="rgb(161,201,193)" stroke-width="1.51"></path><path d="M350,272L411,260L356,220Z" fill="rgb(183,227,220)" stroke="rgb(183,227,220)" stroke-width="1.51"></path><path d="M390,213L498,228L430,149Z" fill="rgb(178,216,209)" stroke="rgb(178,216,209)" stroke-width="1.51"></path><path d="M315,-20L256,-49L234,42Z" fill="rgb(166,137,106)" stroke="rgb(166,137,106)" stroke-width="1.51"></path><path d="M215,-28L188,-99L131,-19Z" fill="rgb(151,116,61)" stroke="rgb(151,116,61)" stroke-width="1.51"></path><path d="M420,339L411,260L350,272Z" fill="rgb(135,204,194)" stroke="rgb(135,204,194)" stroke-width="1.51"></path><path d="M45,127L10,185L88,180Z" fill="rgb(190,150,103)" stroke="rgb(190,150,103)" stroke-width="1.51"></path><path d="M-48,177L10,185L-57,106Z" fill="rgb(163,133,92)" stroke="rgb(163,133,92)" stroke-width="1.51"></path><path d="M118,340L175,378L215,253Z" fill="rgb(148,165,126)" stroke="rgb(148,165,126)" stroke-width="1.51"></path><path d="M262,341L318,401L343,334Z" fill="rgb(133,172,166)" stroke="rgb(133,172,166)" stroke-width="1.51"></path><path d="M131,-19L25,31L104,68Z" fill="rgb(141,86,18)" stroke="rgb(141,86,18)" stroke-width="1.51"></path><path d="M430,149L428,36L360,122Z" fill="rgb(187,189,146)" stroke="rgb(187,189,146)" stroke-width="1.51"></path><path d="M118,340L132,405L175,378Z" fill="rgb(120,120,77)" stroke="rgb(120,120,77)" stroke-width="1.51"></path><path d="M10,185L15,281L88,180Z" fill="rgb(180,150,120)" stroke="rgb(180,150,120)" stroke-width="1.51"></path><path d="M315,-20L287,-77L256,-49Z" fill="rgb(166,139,112)" stroke="rgb(166,139,112)" stroke-width="1.51"></path><path d="M256,-49L188,-99L215,-28Z" fill="rgb(160,129,84)" stroke="rgb(160,129,84)" stroke-width="1.51"></path><path d="M359,-117L287,-77L315,-20Z" fill="rgb(160,138,116)" stroke="rgb(160,138,116)" stroke-width="1.51"></path><path d="M343,334L420,339L350,272Z" fill="rgb(128,193,185)" stroke="rgb(128,193,185)" stroke-width="1.51"></path><path d="M250,425L318,401L262,341Z" fill="rgb(127,152,138)" stroke="rgb(127,152,138)" stroke-width="1.51"></path><path d="M287,-77L188,-99L256,-49Z" fill="rgb(165,135,96)" stroke="rgb(165,135,96)" stroke-width="1.51"></path><path d="M131,-19L34,-48L25,31Z" fill="rgb(113,66,9)" stroke="rgb(113,66,9)" stroke-width="1.51"></path><path d="M22,357L132,405L118,340Z" fill="rgb(108,101,60)" stroke="rgb(108,101,60)" stroke-width="1.51"></path><path d="M175,378L250,425L262,341Z" fill="rgb(129,149,123)" stroke="rgb(129,149,123)" stroke-width="1.51"></path><path d="M411,260L498,228L390,213Z" fill="rgb(161,215,207)" stroke="rgb(161,215,207)" stroke-width="1.51"></path><path d="M416,402L420,339L343,334Z" fill="rgb(92,159,151)" stroke="rgb(92,159,151)" stroke-width="1.51"></path><path d="M170,421L250,425L175,378Z" fill="rgb(119,130,95)" stroke="rgb(119,130,95)" stroke-width="1.51"></path><path d="M132,405L170,421L175,378Z" fill="rgb(113,114,72)" stroke="rgb(113,114,72)" stroke-width="1.51"></path><path d="M428,36L435,-21L315,-20Z" fill="rgb(132,129,102)" stroke="rgb(132,129,102)" stroke-width="1.51"></path><path d="M430,149L475,52L428,36Z" fill="rgb(161,156,110)" stroke="rgb(161,156,110)" stroke-width="1.51"></path><path d="M515,96L475,52L430,149Z" fill="rgb(151,159,117)" stroke="rgb(151,159,117)" stroke-width="1.51"></path><path d="M10,185L-48,253L15,281Z" fill="rgb(147,136,111)" stroke="rgb(147,136,111)" stroke-width="1.51"></path><path d="M-57,106L10,185L45,127Z" fill="rgb(158,125,79)" stroke="rgb(158,125,79)" stroke-width="1.51"></path><path d="M475,52L435,-21L428,36Z" fill="rgb(123,123,89)" stroke="rgb(123,123,89)" stroke-width="1.51"></path><path d="M188,-99L99,-90L131,-19Z" fill="rgb(141,97,37)" stroke="rgb(141,97,37)" stroke-width="1.51"></path><path d="M502,294L498,228L411,260Z" fill="rgb(117,189,180)" stroke="rgb(117,189,180)" stroke-width="1.51"></path><path d="M99,-90L34,-48L131,-19Z" fill="rgb(123,75,16)" stroke="rgb(123,75,16)" stroke-width="1.51"></path><path d="M25,31L-57,106L45,127Z" fill="rgb(141,94,33)" stroke="rgb(141,94,33)" stroke-width="1.51"></path><path d="M-27,336L22,357L15,281Z" fill="rgb(89,97,71)" stroke="rgb(89,97,71)" stroke-width="1.51"></path><path d="M15,281L22,357L118,340Z" fill="rgb(113,111,75)" stroke="rgb(113,111,75)" stroke-width="1.51"></path><path d="M-45,42L-57,106L25,31Z" fill="rgb(123,75,16)" stroke="rgb(123,75,16)" stroke-width="1.51"></path><path d="M-48,177L-48,253L10,185Z" fill="rgb(164,140,117)" stroke="rgb(164,140,117)" stroke-width="1.51"></path><path d="M-134,218L-48,253L-48,177Z" fill="rgb(159,138,115)" stroke="rgb(159,138,115)" stroke-width="1.51"></path><path d="M-48,-45L-45,42L25,31Z" fill="rgb(90,51,6)" stroke="rgb(90,51,6)" stroke-width="1.51"></path><path d="M562,152L515,96L430,149Z" fill="rgb(146,169,135)" stroke="rgb(146,169,135)" stroke-width="1.51"></path><path d="M480,-97L428,-84L435,-21Z" fill="rgb(105,112,85)" stroke="rgb(105,112,85)" stroke-width="1.51"></path><path d="M22,357L33,427L132,405Z" fill="rgb(86,75,37)" stroke="rgb(86,75,37)" stroke-width="1.51"></path><path d="M-48,253L-27,336L15,281Z" fill="rgb(111,117,89)" stroke="rgb(111,117,89)" stroke-width="1.51"></path><path d="M287,-77L359,-117L188,-99Z" fill="rgb(166,138,110)" stroke="rgb(166,138,110)" stroke-width="1.51"></path><path d="M-56,-99L24,-83L99,-90Z" fill="rgb(94,54,6)" stroke="rgb(94,54,6)" stroke-width="1.51"></path><path d="M428,-84L359,-117L315,-20Z" fill="rgb(144,134,109)" stroke="rgb(144,134,109)" stroke-width="1.51"></path><path d="M498,228L562,152L430,149Z" fill="rgb(152,187,171)" stroke="rgb(152,187,171)" stroke-width="1.51"></path><path d="M420,339L502,294L411,260Z" fill="rgb(98,182,171)" stroke="rgb(98,182,171)" stroke-width="1.51"></path><path d="M486,334L502,294L420,339Z" fill="rgb(60,154,146)" stroke="rgb(60,154,146)" stroke-width="1.51"></path><path d="M318,401L416,402L343,334Z" fill="rgb(106,155,147)" stroke="rgb(106,155,147)" stroke-width="1.51"></path><path d="M337,475L416,402L318,401Z" fill="rgb(101,143,133)" stroke="rgb(101,143,133)" stroke-width="1.51"></path><path d="M416,402L486,334L420,339Z" fill="rgb(61,144,134)" stroke="rgb(61,144,134)" stroke-width="1.51"></path><path d="M34,-48L-48,-45L25,31Z" fill="rgb(85,49,6)" stroke="rgb(85,49,6)" stroke-width="1.51"></path><path d="M99,-90L24,-83L34,-48Z" fill="rgb(108,62,8)" stroke="rgb(108,62,8)" stroke-width="1.51"></path><path d="M-56,-99L99,-90L188,-99Z" fill="rgb(118,70,13)" stroke="rgb(118,70,13)" stroke-width="1.51"></path><path d="M435,-21L428,-84L315,-20Z" fill="rgb(132,129,102)" stroke="rgb(132,129,102)" stroke-width="1.51"></path><path d="M500,-9L435,-21L475,52Z" fill="rgb(100,106,78)" stroke="rgb(100,106,78)" stroke-width="1.51"></path><path d="M-97,73L-94,119L-57,106Z" fill="rgb(144,101,43)" stroke="rgb(144,101,43)" stroke-width="1.51"></path><path d="M-57,106L-94,119L-48,177Z" fill="rgb(157,123,74)" stroke="rgb(157,123,74)" stroke-width="1.51"></path><path d="M-48,253L-89,331L-27,336Z" fill="rgb(99,107,80)" stroke="rgb(99,107,80)" stroke-width="1.51"></path><path d="M-97,73L-57,106L-45,42Z" fill="rgb(132,83,22)" stroke="rgb(132,83,22)" stroke-width="1.51"></path><path d="M554,67L500,-9L475,52Z" fill="rgb(107,104,68)" stroke="rgb(107,104,68)" stroke-width="1.51"></path><path d="M-9,408L33,427L22,357Z" fill="rgb(65,61,32)" stroke="rgb(65,61,32)" stroke-width="1.51"></path><path d="M132,405L102,488L170,421Z" fill="rgb(109,102,58)" stroke="rgb(109,102,58)" stroke-width="1.51"></path><path d="M246,497L337,475L250,425Z" fill="rgb(123,146,131)" stroke="rgb(123,146,131)" stroke-width="1.51"></path><path d="M-121,-45L-97,73L-45,42Z" fill="rgb(100,57,7)" stroke="rgb(100,57,7)" stroke-width="1.51"></path><path d="M246,497L250,425L170,421Z" fill="rgb(122,136,108)" stroke="rgb(122,136,108)" stroke-width="1.51"></path><path d="M250,425L337,475L318,401Z" fill="rgb(122,148,140)" stroke="rgb(122,148,140)" stroke-width="1.51"></path><path d="M197,527L246,497L170,421Z" fill="rgb(120,131,98)" stroke="rgb(120,131,98)" stroke-width="1.51"></path><path d="M515,96L554,67L475,52Z" fill="rgb(126,122,79)" stroke="rgb(126,122,79)" stroke-width="1.51"></path><path d="M590,283L559,205L498,228Z" fill="rgb(110,162,155)" stroke="rgb(110,162,155)" stroke-width="1.51"></path><path d="M590,283L498,228L502,294Z" fill="rgb(88,161,151)" stroke="rgb(88,161,151)" stroke-width="1.51"></path><path d="M559,205L562,152L498,228Z" fill="rgb(135,171,163)" stroke="rgb(135,171,163)" stroke-width="1.51"></path><path d="M-89,331L-9,408L-27,336Z" fill="rgb(71,77,51)" stroke="rgb(71,77,51)" stroke-width="1.51"></path><path d="M-27,336L-9,408L22,357Z" fill="rgb(68,72,47)" stroke="rgb(68,72,47)" stroke-width="1.51"></path><path d="M24,-83L-48,-45L34,-48Z" fill="rgb(85,49,6)" stroke="rgb(85,49,6)" stroke-width="1.51"></path><path d="M562,152L554,67L515,96Z" fill="rgb(127,134,94)" stroke="rgb(127,134,94)" stroke-width="1.51"></path><path d="M18,474L102,488L33,427Z" fill="rgb(80,70,33)" stroke="rgb(80,70,33)" stroke-width="1.51"></path><path d="M33,427L102,488L132,405Z" fill="rgb(94,83,42)" stroke="rgb(94,83,42)" stroke-width="1.51"></path><path d="M-118,286L-89,331L-48,253Z" fill="rgb(111,117,89)" stroke="rgb(111,117,89)" stroke-width="1.51"></path><path d="M-134,218L-48,177L-94,119Z" fill="rgb(165,136,101)" stroke="rgb(165,136,101)" stroke-width="1.51"></path><path d="M545,-54L480,-97L500,-9Z" fill="rgb(80,87,62)" stroke="rgb(80,87,62)" stroke-width="1.51"></path><path d="M500,-9L480,-97L435,-21Z" fill="rgb(93,102,76)" stroke="rgb(93,102,76)" stroke-width="1.51"></path><path d="M428,-84L480,-97L359,-117Z" fill="rgb(117,122,94)" stroke="rgb(117,122,94)" stroke-width="1.51"></path><path d="M-97,73L-134,218L-94,119Z" fill="rgb(157,124,76)" stroke="rgb(157,124,76)" stroke-width="1.51"></path><path d="M-134,218L-118,286L-48,253Z" fill="rgb(139,132,106)" stroke="rgb(139,132,106)" stroke-width="1.51"></path><path d="M102,488L197,527L170,421Z" fill="rgb(112,113,71)" stroke="rgb(112,113,71)" stroke-width="1.51"></path><path d="M246,497L405,520L337,475Z" fill="rgb(112,145,136)" stroke="rgb(112,145,136)" stroke-width="1.51"></path><path d="M-9,408L18,474L33,427Z" fill="rgb(63,59,30)" stroke="rgb(63,59,30)" stroke-width="1.51"></path><path d="M102,488L-24,499L197,527Z" fill="rgb(96,84,42)" stroke="rgb(96,84,42)" stroke-width="1.51"></path><path d="M-24,499L18,474L-9,408Z" fill="rgb(57,55,29)" stroke="rgb(57,55,29)" stroke-width="1.51"></path><path d="M24,-83L-56,-99L-48,-45Z" fill="rgb(84,48,5)" stroke="rgb(84,48,5)" stroke-width="1.51"></path><path d="M-48,-45L-121,-45L-45,42Z" fill="rgb(84,48,5)" stroke="rgb(84,48,5)" stroke-width="1.51"></path><path d="M-97,73L-121,-45L-134,218Z" fill="rgb(137,88,26)" stroke="rgb(137,88,26)" stroke-width="1.51"></path><path d="M359,-117L-56,-99L188,-99Z" fill="rgb(148,109,52)" stroke="rgb(148,109,52)" stroke-width="1.51"></path><path d="M486,334L551,365L502,294Z" fill="rgb(35,130,122)" stroke="rgb(35,130,122)" stroke-width="1.51"></path><path d="M640,180L634,101L562,152Z" fill="rgb(122,135,104)" stroke="rgb(122,135,104)" stroke-width="1.51"></path><path d="M510,439L551,365L486,334Z" fill="rgb(13,101,92)" stroke="rgb(13,101,92)" stroke-width="1.51"></path><path d="M510,439L486,334L416,402Z" fill="rgb(34,112,102)" stroke="rgb(34,112,102)" stroke-width="1.51"></path><path d="M554,67L545,-54L500,-9Z" fill="rgb(74,79,53)" stroke="rgb(74,79,53)" stroke-width="1.51"></path><path d="M624,-9L545,-54L554,67Z" fill="rgb(64,65,38)" stroke="rgb(64,65,38)" stroke-width="1.51"></path><path d="M551,365L590,283L502,294Z" fill="rgb(38,127,118)" stroke="rgb(38,127,118)" stroke-width="1.51"></path><path d="M562,152L634,101L554,67Z" fill="rgb(117,121,80)" stroke="rgb(117,121,80)" stroke-width="1.51"></path><path d="M405,520L416,402L337,475Z" fill="rgb(85,136,125)" stroke="rgb(85,136,125)" stroke-width="1.51"></path><path d="M484,506L510,439L416,402Z" fill="rgb(33,108,97)" stroke="rgb(33,108,97)" stroke-width="1.51"></path><path d="M-115,-81L-121,-45L-48,-45Z" fill="rgb(84,48,5)" stroke="rgb(84,48,5)" stroke-width="1.51"></path><path d="M197,527L405,520L246,497Z" fill="rgb(123,146,133)" stroke="rgb(123,146,133)" stroke-width="1.51"></path><path d="M510,439L555,401L551,365Z" fill="rgb(1,81,71)" stroke="rgb(1,81,71)" stroke-width="1.51"></path><path d="M551,365L609,361L590,283Z" fill="rgb(17,100,91)" stroke="rgb(17,100,91)" stroke-width="1.51"></path><path d="M640,180L562,152L559,205Z" fill="rgb(127,150,134)" stroke="rgb(127,150,134)" stroke-width="1.51"></path><path d="M666,259L640,180L590,283Z" fill="rgb(99,142,132)" stroke="rgb(99,142,132)" stroke-width="1.51"></path><path d="M590,283L640,180L559,205Z" fill="rgb(110,146,138)" stroke="rgb(110,146,138)" stroke-width="1.51"></path><path d="M-56,-99L-115,-81L-48,-45Z" fill="rgb(84,48,5)" stroke="rgb(84,48,5)" stroke-width="1.51"></path><path d="M691,66L633,78L634,101Z" fill="rgb(107,96,51)" stroke="rgb(107,96,51)" stroke-width="1.51"></path><path d="M634,101L633,78L554,67Z" fill="rgb(107,96,51)" stroke="rgb(107,96,51)" stroke-width="1.51"></path><path d="M18,474L-24,499L102,488Z" fill="rgb(71,64,32)" stroke="rgb(71,64,32)" stroke-width="1.51"></path><path d="M-134,452L-24,499L-9,408Z" fill="rgb(57,55,29)" stroke="rgb(57,55,29)" stroke-width="1.51"></path><path d="M-134,452L-9,408L-89,331Z" fill="rgb(58,57,30)" stroke="rgb(58,57,30)" stroke-width="1.51"></path><path d="M405,520L484,506L416,402Z" fill="rgb(56,122,110)" stroke="rgb(56,122,110)" stroke-width="1.51"></path><path d="M587,526L622,400L555,401Z" fill="rgb(0,64,52)" stroke="rgb(0,64,52)" stroke-width="1.51"></path><path d="M555,401L609,361L551,365Z" fill="rgb(1,82,72)" stroke="rgb(1,82,72)" stroke-width="1.51"></path><path d="M622,400L609,361L555,401Z" fill="rgb(0,68,56)" stroke="rgb(0,68,56)" stroke-width="1.51"></path><path d="M545,-54L571,-120L480,-97Z" fill="rgb(73,78,53)" stroke="rgb(73,78,53)" stroke-width="1.51"></path><path d="M633,78L624,-9L554,67Z" fill="rgb(87,75,36)" stroke="rgb(87,75,36)" stroke-width="1.51"></path><path d="M660,-93L571,-120L545,-54Z" fill="rgb(59,58,32)" stroke="rgb(59,58,32)" stroke-width="1.51"></path><path d="M480,-97L571,-120L359,-117Z" fill="rgb(94,103,76)" stroke="rgb(94,103,76)" stroke-width="1.51"></path><path d="M609,361L666,259L590,283Z" fill="rgb(46,115,104)" stroke="rgb(46,115,104)" stroke-width="1.51"></path><path d="M739,98L691,66L634,101Z" fill="rgb(108,101,57)" stroke="rgb(108,101,57)" stroke-width="1.51"></path><path d="M633,78L691,66L624,-9Z" fill="rgb(86,75,36)" stroke="rgb(86,75,36)" stroke-width="1.51"></path><path d="M-134,218L-134,452L-118,286Z" fill="rgb(91,99,74)" stroke="rgb(91,99,74)" stroke-width="1.51"></path><path d="M-118,286L-134,452L-89,331Z" fill="rgb(72,78,52)" stroke="rgb(72,78,52)" stroke-width="1.51"></path><path d="M609,361L734,337L666,259Z" fill="rgb(27,104,94)" stroke="rgb(27,104,94)" stroke-width="1.51"></path><path d="M587,526L555,401L510,439Z" fill="rgb(1,77,66)" stroke="rgb(1,77,66)" stroke-width="1.51"></path><path d="M739,98L634,101L640,180Z" fill="rgb(118,127,90)" stroke="rgb(118,127,90)" stroke-width="1.51"></path><path d="M624,-9L660,-93L545,-54Z" fill="rgb(57,55,29)" stroke="rgb(57,55,29)" stroke-width="1.51"></path><path d="M734,337L694,250L666,259Z" fill="rgb(63,127,115)" stroke="rgb(63,127,115)" stroke-width="1.51"></path><path d="M666,259L694,250L640,180Z" fill="rgb(106,144,134)" stroke="rgb(106,144,134)" stroke-width="1.51"></path><path d="M702,-28L660,-93L624,-9Z" fill="rgb(57,55,29)" stroke="rgb(57,55,29)" stroke-width="1.51"></path><path d="M-134,452L-141,517L-24,499Z" fill="rgb(57,55,29)" stroke="rgb(57,55,29)" stroke-width="1.51"></path><path d="M-24,499L-141,517L197,527Z" fill="rgb(62,59,30)" stroke="rgb(62,59,30)" stroke-width="1.51"></path><path d="M-134,218L-141,517L-134,452Z" fill="rgb(58,57,31)" stroke="rgb(58,57,31)" stroke-width="1.51"></path><path d="M691,66L702,-28L624,-9Z" fill="rgb(63,60,30)" stroke="rgb(63,60,30)" stroke-width="1.51"></path><path d="M694,250L737,179L640,180Z" fill="rgb(121,147,139)" stroke="rgb(121,147,139)" stroke-width="1.51"></path><path d="M734,337L737,179L694,250Z" fill="rgb(87,137,126)" stroke="rgb(87,137,126)" stroke-width="1.51"></path><path d="M739,98L702,-28L691,66Z" fill="rgb(87,75,36)" stroke="rgb(87,75,36)" stroke-width="1.51"></path><path d="M622,400L734,337L609,361Z" fill="rgb(1,77,67)" stroke="rgb(1,77,67)" stroke-width="1.51"></path><path d="M484,506L587,526L510,439Z" fill="rgb(6,85,75)" stroke="rgb(6,85,75)" stroke-width="1.51"></path><path d="M405,520L587,526L484,506Z" fill="rgb(21,99,89)" stroke="rgb(21,99,89)" stroke-width="1.51"></path><path d="M197,527L587,526L405,520Z" fill="rgb(79,134,123)" stroke="rgb(79,134,123)" stroke-width="1.51"></path><path d="M737,179L739,98L640,180Z" fill="rgb(123,139,111)" stroke="rgb(123,139,111)" stroke-width="1.51"></path><path d="M717,436L734,337L622,400Z" fill="rgb(0,64,53)" stroke="rgb(0,64,53)" stroke-width="1.51"></path><path d="M737,179L734,337L739,98Z" fill="rgb(120,147,139)" stroke="rgb(120,147,139)" stroke-width="1.51"></path><path d="M702,-28L709,-91L660,-93Z" fill="rgb(57,55,29)" stroke="rgb(57,55,29)" stroke-width="1.51"></path><path d="M660,-93L709,-91L571,-120Z" fill="rgb(57,55,29)" stroke="rgb(57,55,29)" stroke-width="1.51"></path><path d="M739,98L709,-91L702,-28Z" fill="rgb(57,55,29)" stroke="rgb(57,55,29)" stroke-width="1.51"></path><path d="M587,526L656,508L622,400Z" fill="rgb(0,60,48)" stroke="rgb(0,60,48)" stroke-width="1.51"></path><path d="M656,508L717,436L622,400Z" fill="rgb(0,60,48)" stroke="rgb(0,60,48)" stroke-width="1.51"></path><path d="M656,508L721,477L717,436Z" fill="rgb(0,60,48)" stroke="rgb(0,60,48)" stroke-width="1.51"></path><path d="M717,436L721,477L734,337Z" fill="rgb(0,60,48)" stroke="rgb(0,60,48)" stroke-width="1.51"></path></svg>