<svg width="600" height="400" xmlns="http://www.w3.org/2000/svg"><path d="M263,200L339,274L337,198Z" fill="rgb(245,251,176)" stroke="rgb(245,251,176)" stroke-width="1.51"></path><path d="M263,200L263,275L339,274Z" fill="rgb(236,244,168)" stroke="rgb(236,244,168)" stroke-width="1.51"></path><path d="M263,275L264,349L339,274Z" fill="rgb(200,229,173)" stroke="rgb(200,229,173)" stroke-width="1.51"></path><path d="M339,274L413,199L337,198Z" fill="rgb(234,247,161)" stroke="rgb(234,247,161)" stroke-width="1.51"></path><path d="M264,349L339,349L339,274Z" fill="rgb(179,220,175)" stroke="rgb(179,220,175)" stroke-width="1.51"></path><path d="M339,274L414,276L413,199Z" fill="rgb(210,236,157)" stroke="rgb(210,236,157)" stroke-width="1.51"></path><path d="M413,124L336,123L337,198Z" fill="rgb(242,227,139)" stroke="rgb(242,227,139)" stroke-width="1.51"></path><path d="M337,198L336,123L263,200Z" fill="rgb(253,244,170)" stroke="rgb(253,244,170)" stroke-width="1.51"></path><path d="M339,349L414,276L339,274Z" fill="rgb(185,225,159)" stroke="rgb(185,225,159)" stroke-width="1.51"></path><path d="M263,200L187,199L263,275Z" fill="rgb(248,236,152)" stroke="rgb(248,236,152)" stroke-width="1.51"></path><path d="M263,275L189,348L264,349Z" fill="rgb(186,206,154)" stroke="rgb(186,206,154)" stroke-width="1.51"></path><path d="M260,124L187,199L263,200Z" fill="rgb(255,228,147)" stroke="rgb(255,228,147)" stroke-width="1.51"></path><path d="M336,123L260,124L263,200Z" fill="rgb(255,229,153)" stroke="rgb(255,229,153)" stroke-width="1.51"></path><path d="M187,199L186,275L263,275Z" fill="rgb(237,220,137)" stroke="rgb(237,220,137)" stroke-width="1.51"></path><path d="M186,275L189,348L263,275Z" fill="rgb(203,205,143)" stroke="rgb(203,205,143)" stroke-width="1.51"></path><path d="M413,199L413,124L337,198Z" fill="rgb(230,235,157)" stroke="rgb(230,235,157)" stroke-width="1.51"></path><path d="M487,126L413,124L413,199Z" fill="rgb(208,213,146)" stroke="rgb(208,213,146)" stroke-width="1.51"></path><path d="M260,124L187,126L187,199Z" fill="rgb(254,206,123)" stroke="rgb(254,206,123)" stroke-width="1.51"></path><path d="M187,199L113,201L186,275Z" fill="rgb(249,203,127)" stroke="rgb(249,203,127)" stroke-width="1.51"></path><path d="M411,424L414,351L339,349Z" fill="rgb(147,173,171)" stroke="rgb(147,173,171)" stroke-width="1.51"></path><path d="M339,349L414,351L414,276Z" fill="rgb(154,209,164)" stroke="rgb(154,209,164)" stroke-width="1.51"></path><path d="M264,349L336,423L339,349Z" fill="rgb(170,182,184)" stroke="rgb(170,182,184)" stroke-width="1.51"></path><path d="M262,426L336,423L264,349Z" fill="rgb(179,160,174)" stroke="rgb(179,160,174)" stroke-width="1.51"></path><path d="M487,273L413,199L414,276Z" fill="rgb(186,226,160)" stroke="rgb(186,226,160)" stroke-width="1.51"></path><path d="M487,273L487,201L413,199Z" fill="rgb(185,225,166)" stroke="rgb(185,225,166)" stroke-width="1.51"></path><path d="M487,348L487,273L414,276Z" fill="rgb(132,205,165)" stroke="rgb(132,205,165)" stroke-width="1.51"></path><path d="M336,123L261,50L260,124Z" fill="rgb(255,195,129)" stroke="rgb(255,195,129)" stroke-width="1.51"></path><path d="M260,124L185,50L187,126Z" fill="rgb(252,172,100)" stroke="rgb(252,172,100)" stroke-width="1.51"></path><path d="M413,124L338,50L336,123Z" fill="rgb(243,194,116)" stroke="rgb(243,194,116)" stroke-width="1.51"></path><path d="M338,50L261,50L336,123Z" fill="rgb(252,181,124)" stroke="rgb(252,181,124)" stroke-width="1.51"></path><path d="M111,126L113,201L187,199Z" fill="rgb(255,183,116)" stroke="rgb(255,183,116)" stroke-width="1.51"></path><path d="M186,275L112,350L189,348Z" fill="rgb(191,175,129)" stroke="rgb(191,175,129)" stroke-width="1.51"></path><path d="M111,126L187,199L187,126Z" fill="rgb(253,184,108)" stroke="rgb(253,184,108)" stroke-width="1.51"></path><path d="M113,201L113,274L186,275Z" fill="rgb(238,186,114)" stroke="rgb(238,186,114)" stroke-width="1.51"></path><path d="M187,423L262,426L264,349Z" fill="rgb(181,148,154)" stroke="rgb(181,148,154)" stroke-width="1.51"></path><path d="M187,423L264,349L189,348Z" fill="rgb(178,158,153)" stroke="rgb(178,158,153)" stroke-width="1.51"></path><path d="M413,124L413,48L338,50Z" fill="rgb(230,172,112)" stroke="rgb(230,172,112)" stroke-width="1.51"></path><path d="M487,201L487,126L413,199Z" fill="rgb(194,219,162)" stroke="rgb(194,219,162)" stroke-width="1.51"></path><path d="M414,351L487,348L414,276Z" fill="rgb(127,200,166)" stroke="rgb(127,200,166)" stroke-width="1.51"></path><path d="M489,425L487,348L414,351Z" fill="rgb(104,158,173)" stroke="rgb(104,158,173)" stroke-width="1.51"></path><path d="M336,423L411,424L339,349Z" fill="rgb(167,159,161)" stroke="rgb(167,159,161)" stroke-width="1.51"></path><path d="M336,500L411,424L336,423Z" fill="rgb(168,159,161)" stroke="rgb(168,159,161)" stroke-width="1.51"></path><path d="M112,350L187,423L189,348Z" fill="rgb(180,136,137)" stroke="rgb(180,136,137)" stroke-width="1.51"></path><path d="M338,50L336,-26L261,50Z" fill="rgb(228,155,126)" stroke="rgb(228,155,126)" stroke-width="1.51"></path><path d="M488,49L413,48L413,124Z" fill="rgb(209,163,115)" stroke="rgb(209,163,115)" stroke-width="1.51"></path><path d="M261,50L185,50L260,124Z" fill="rgb(250,164,101)" stroke="rgb(250,164,101)" stroke-width="1.51"></path><path d="M186,-24L185,50L261,50Z" fill="rgb(226,129,96)" stroke="rgb(226,129,96)" stroke-width="1.51"></path><path d="M185,50L111,126L187,126Z" fill="rgb(250,149,84)" stroke="rgb(250,149,84)" stroke-width="1.51"></path><path d="M113,201L37,200L113,274Z" fill="rgb(240,171,118)" stroke="rgb(240,171,118)" stroke-width="1.51"></path><path d="M36,274L112,350L113,274Z" fill="rgb(198,153,118)" stroke="rgb(198,153,118)" stroke-width="1.51"></path><path d="M113,274L112,350L186,275Z" fill="rgb(206,172,119)" stroke="rgb(206,172,119)" stroke-width="1.51"></path><path d="M487,201L562,200L487,126Z" fill="rgb(178,199,170)" stroke="rgb(178,199,170)" stroke-width="1.51"></path><path d="M487,273L561,273L487,201Z" fill="rgb(157,201,168)" stroke="rgb(157,201,168)" stroke-width="1.51"></path><path d="M487,348L561,273L487,273Z" fill="rgb(115,186,172)" stroke="rgb(115,186,172)" stroke-width="1.51"></path><path d="M561,273L562,200L487,201Z" fill="rgb(163,192,180)" stroke="rgb(163,192,180)" stroke-width="1.51"></path><path d="M487,126L488,49L413,124Z" fill="rgb(200,175,123)" stroke="rgb(200,175,123)" stroke-width="1.51"></path><path d="M112,350L114,424L187,423Z" fill="rgb(181,103,123)" stroke="rgb(181,103,123)" stroke-width="1.51"></path><path d="M264,500L336,500L262,426Z" fill="rgb(179,160,174)" stroke="rgb(179,160,174)" stroke-width="1.51"></path><path d="M561,124L488,49L487,126Z" fill="rgb(185,155,131)" stroke="rgb(185,155,131)" stroke-width="1.51"></path><path d="M413,48L336,-26L338,50Z" fill="rgb(217,152,112)" stroke="rgb(217,152,112)" stroke-width="1.51"></path><path d="M413,-27L336,-26L413,48Z" fill="rgb(190,135,110)" stroke="rgb(190,135,110)" stroke-width="1.51"></path><path d="M411,424L489,425L414,351Z" fill="rgb(129,145,165)" stroke="rgb(129,145,165)" stroke-width="1.51"></path><path d="M262,426L336,500L336,423Z" fill="rgb(177,162,176)" stroke="rgb(177,162,176)" stroke-width="1.51"></path><path d="M264,500L262,426L189,498Z" fill="rgb(181,148,154)" stroke="rgb(181,148,154)" stroke-width="1.51"></path><path d="M189,498L262,426L187,423Z" fill="rgb(182,137,145)" stroke="rgb(182,137,145)" stroke-width="1.51"></path><path d="M487,348L562,348L561,273Z" fill="rgb(83,164,178)" stroke="rgb(83,164,178)" stroke-width="1.51"></path><path d="M412,500L489,425L411,424Z" fill="rgb(130,145,165)" stroke="rgb(130,145,165)" stroke-width="1.51"></path><path d="M336,-26L264,-27L261,50Z" fill="rgb(212,140,121)" stroke="rgb(212,140,121)" stroke-width="1.51"></path><path d="M186,-24L112,49L185,50Z" fill="rgb(222,103,81)" stroke="rgb(222,103,81)" stroke-width="1.51"></path><path d="M185,50L112,49L111,126Z" fill="rgb(244,116,72)" stroke="rgb(244,116,72)" stroke-width="1.51"></path><path d="M36,124L37,200L111,126Z" fill="rgb(237,143,103)" stroke="rgb(237,143,103)" stroke-width="1.51"></path><path d="M111,126L37,200L113,201Z" fill="rgb(246,164,115)" stroke="rgb(246,164,115)" stroke-width="1.51"></path><path d="M112,350L38,423L114,424Z" fill="rgb(172,83,120)" stroke="rgb(172,83,120)" stroke-width="1.51"></path><path d="M37,200L36,274L113,274Z" fill="rgb(224,159,116)" stroke="rgb(224,159,116)" stroke-width="1.51"></path><path d="M562,200L561,124L487,126Z" fill="rgb(175,174,161)" stroke="rgb(175,174,161)" stroke-width="1.51"></path><path d="M489,425L562,348L487,348Z" fill="rgb(79,139,180)" stroke="rgb(79,139,180)" stroke-width="1.51"></path><path d="M638,273L637,198L562,200Z" fill="rgb(173,160,168)" stroke="rgb(173,160,168)" stroke-width="1.51"></path><path d="M114,424L189,498L187,423Z" fill="rgb(182,115,129)" stroke="rgb(182,115,129)" stroke-width="1.51"></path><path d="M264,-27L186,-24L261,50Z" fill="rgb(209,127,101)" stroke="rgb(209,127,101)" stroke-width="1.51"></path><path d="M336,500L412,500L411,424Z" fill="rgb(156,154,163)" stroke="rgb(156,154,163)" stroke-width="1.51"></path><path d="M336,-26L337,-99L264,-27Z" fill="rgb(210,143,122)" stroke="rgb(210,143,122)" stroke-width="1.51"></path><path d="M487,-24L413,-27L413,48Z" fill="rgb(169,126,113)" stroke="rgb(169,126,113)" stroke-width="1.51"></path><path d="M37,200L-39,274L36,274Z" fill="rgb(200,141,111)" stroke="rgb(200,141,111)" stroke-width="1.51"></path><path d="M36,51L36,124L111,126Z" fill="rgb(232,106,81)" stroke="rgb(232,106,81)" stroke-width="1.51"></path><path d="M36,274L36,351L112,350Z" fill="rgb(177,135,122)" stroke="rgb(177,135,122)" stroke-width="1.51"></path><path d="M114,424L111,499L189,498Z" fill="rgb(181,102,123)" stroke="rgb(181,102,123)" stroke-width="1.51"></path><path d="M562,-24L487,-24L488,49Z" fill="rgb(143,102,120)" stroke="rgb(143,102,120)" stroke-width="1.51"></path><path d="M488,49L487,-24L413,48Z" fill="rgb(175,134,117)" stroke="rgb(175,134,117)" stroke-width="1.51"></path><path d="M489,425L561,425L562,348Z" fill="rgb(81,110,175)" stroke="rgb(81,110,175)" stroke-width="1.51"></path><path d="M562,498L561,425L489,425Z" fill="rgb(81,109,175)" stroke="rgb(81,109,175)" stroke-width="1.51"></path><path d="M36,351L38,423L112,350Z" fill="rgb(164,96,128)" stroke="rgb(164,96,128)" stroke-width="1.51"></path><path d="M112,49L36,51L111,126Z" fill="rgb(234,94,72)" stroke="rgb(234,94,72)" stroke-width="1.51"></path><path d="M186,-24L111,-24L112,49Z" fill="rgb(202,76,72)" stroke="rgb(202,76,72)" stroke-width="1.51"></path><path d="M110,-101L111,-24L186,-24Z" fill="rgb(202,76,72)" stroke="rgb(202,76,72)" stroke-width="1.51"></path><path d="M412,500L489,500L489,425Z" fill="rgb(115,140,165)" stroke="rgb(115,140,165)" stroke-width="1.51"></path><path d="M38,423L111,499L114,424Z" fill="rgb(172,82,119)" stroke="rgb(172,82,119)" stroke-width="1.51"></path><path d="M189,498L111,499L264,500Z" fill="rgb(183,127,137)" stroke="rgb(183,127,137)" stroke-width="1.51"></path><path d="M111,-24L36,51L112,49Z" fill="rgb(210,65,74)" stroke="rgb(210,65,74)" stroke-width="1.51"></path><path d="M561,124L564,48L488,49Z" fill="rgb(177,124,129)" stroke="rgb(177,124,129)" stroke-width="1.51"></path><path d="M638,124L564,48L561,124Z" fill="rgb(181,114,128)" stroke="rgb(181,114,128)" stroke-width="1.51"></path><path d="M637,198L561,124L562,200Z" fill="rgb(179,160,166)" stroke="rgb(179,160,166)" stroke-width="1.51"></path><path d="M412,-101L337,-99L413,-27Z" fill="rgb(190,135,110)" stroke="rgb(190,135,110)" stroke-width="1.51"></path><path d="M413,-27L337,-99L336,-26Z" fill="rgb(200,139,108)" stroke="rgb(200,139,108)" stroke-width="1.51"></path><path d="M264,-27L260,-100L186,-24Z" fill="rgb(209,126,101)" stroke="rgb(209,126,101)" stroke-width="1.51"></path><path d="M638,273L562,200L561,273Z" fill="rgb(160,163,165)" stroke="rgb(160,163,165)" stroke-width="1.51"></path><path d="M638,273L561,273L562,348Z" fill="rgb(121,149,168)" stroke="rgb(121,149,168)" stroke-width="1.51"></path><path d="M638,350L638,273L562,348Z" fill="rgb(104,134,166)" stroke="rgb(104,134,166)" stroke-width="1.51"></path><path d="M337,-99L260,-100L264,-27Z" fill="rgb(212,140,121)" stroke="rgb(212,140,121)" stroke-width="1.51"></path><path d="M36,351L-36,424L38,423Z" fill="rgb(142,58,114)" stroke="rgb(142,58,114)" stroke-width="1.51"></path><path d="M36,274L-38,351L36,351Z" fill="rgb(154,118,117)" stroke="rgb(154,118,117)" stroke-width="1.51"></path><path d="M-40,200L-39,274L37,200Z" fill="rgb(206,141,115)" stroke="rgb(206,141,115)" stroke-width="1.51"></path><path d="M-40,200L37,200L-39,126Z" fill="rgb(211,134,111)" stroke="rgb(211,134,111)" stroke-width="1.51"></path><path d="M-39,126L37,200L36,124Z" fill="rgb(214,126,98)" stroke="rgb(214,126,98)" stroke-width="1.51"></path><path d="M712,198L638,124L637,198Z" fill="rgb(180,153,163)" stroke="rgb(180,153,163)" stroke-width="1.51"></path><path d="M637,198L638,124L561,124Z" fill="rgb(181,141,149)" stroke="rgb(181,141,149)" stroke-width="1.51"></path><path d="M637,423L638,350L562,348Z" fill="rgb(86,98,171)" stroke="rgb(86,98,171)" stroke-width="1.51"></path><path d="M637,423L562,348L561,425Z" fill="rgb(91,87,165)" stroke="rgb(91,87,165)" stroke-width="1.51"></path><path d="M337,-99L412,-101L260,-100Z" fill="rgb(206,141,115)" stroke="rgb(206,141,115)" stroke-width="1.51"></path><path d="M488,-99L412,-101L413,-27Z" fill="rgb(169,126,113)" stroke="rgb(169,126,113)" stroke-width="1.51"></path><path d="M488,-99L413,-27L487,-24Z" fill="rgb(159,122,113)" stroke="rgb(159,122,113)" stroke-width="1.51"></path><path d="M36,51L-39,126L36,124Z" fill="rgb(209,88,76)" stroke="rgb(209,88,76)" stroke-width="1.51"></path><path d="M-39,274L-38,351L36,274Z" fill="rgb(164,124,113)" stroke="rgb(164,124,113)" stroke-width="1.51"></path><path d="M38,423L36,499L111,499Z" fill="rgb(165,73,121)" stroke="rgb(165,73,121)" stroke-width="1.51"></path><path d="M-112,349L-38,351L-39,274Z" fill="rgb(149,115,114)" stroke="rgb(149,115,114)" stroke-width="1.51"></path><path d="M260,-100L186,-102L186,-24Z" fill="rgb(208,115,92)" stroke="rgb(208,115,92)" stroke-width="1.51"></path><path d="M111,-24L36,-26L36,51Z" fill="rgb(186,38,73)" stroke="rgb(186,38,73)" stroke-width="1.51"></path><path d="M36,51L-39,48L-39,126Z" fill="rgb(199,62,69)" stroke="rgb(199,62,69)" stroke-width="1.51"></path><path d="M412,-101L186,-102L260,-100Z" fill="rgb(212,140,120)" stroke="rgb(212,140,120)" stroke-width="1.51"></path><path d="M564,48L562,-24L488,49Z" fill="rgb(152,101,129)" stroke="rgb(152,101,129)" stroke-width="1.51"></path><path d="M636,48L562,-24L564,48Z" fill="rgb(153,73,120)" stroke="rgb(153,73,120)" stroke-width="1.51"></path><path d="M489,500L562,498L489,425Z" fill="rgb(93,121,171)" stroke="rgb(93,121,171)" stroke-width="1.51"></path><path d="M-36,424L36,499L38,423Z" fill="rgb(142,57,114)" stroke="rgb(142,57,114)" stroke-width="1.51"></path><path d="M111,499L36,499L264,500Z" fill="rgb(181,102,122)" stroke="rgb(181,102,122)" stroke-width="1.51"></path><path d="M110,-101L36,-26L111,-24Z" fill="rgb(192,50,71)" stroke="rgb(192,50,71)" stroke-width="1.51"></path><path d="M636,499L637,423L561,425Z" fill="rgb(94,79,162)" stroke="rgb(94,79,162)" stroke-width="1.51"></path><path d="M562,-24L488,-99L487,-24Z" fill="rgb(143,102,120)" stroke="rgb(143,102,120)" stroke-width="1.51"></path><path d="M562,-24L564,-99L488,-99Z" fill="rgb(135,89,124)" stroke="rgb(135,89,124)" stroke-width="1.51"></path><path d="M638,124L636,48L564,48Z" fill="rgb(178,90,118)" stroke="rgb(178,90,118)" stroke-width="1.51"></path><path d="M-38,351L-36,424L36,351Z" fill="rgb(136,76,120)" stroke="rgb(136,76,120)" stroke-width="1.51"></path><path d="M186,-102L110,-101L186,-24Z" fill="rgb(205,91,78)" stroke="rgb(205,91,78)" stroke-width="1.51"></path><path d="M-38,-27L-39,48L36,-26Z" fill="rgb(158,1,66)" stroke="rgb(158,1,66)" stroke-width="1.51"></path><path d="M36,-26L-39,48L36,51Z" fill="rgb(179,32,71)" stroke="rgb(179,32,71)" stroke-width="1.51"></path><path d="M-39,126L-115,199L-40,200Z" fill="rgb(211,134,111)" stroke="rgb(211,134,111)" stroke-width="1.51"></path><path d="M638,273L712,198L637,198Z" fill="rgb(173,160,169)" stroke="rgb(173,160,169)" stroke-width="1.51"></path><path d="M638,124L712,50L636,48Z" fill="rgb(178,90,118)" stroke="rgb(178,90,118)" stroke-width="1.51"></path><path d="M638,350L711,276L638,273Z" fill="rgb(123,143,165)" stroke="rgb(123,143,165)" stroke-width="1.51"></path><path d="M711,351L711,276L638,350Z" fill="rgb(103,133,166)" stroke="rgb(103,133,166)" stroke-width="1.51"></path><path d="M711,276L712,198L638,273Z" fill="rgb(162,156,162)" stroke="rgb(162,156,162)" stroke-width="1.51"></path><path d="M-112,123L-115,199L-39,126Z" fill="rgb(209,121,97)" stroke="rgb(209,121,97)" stroke-width="1.51"></path><path d="M-40,200L-115,276L-39,274Z" fill="rgb(195,137,109)" stroke="rgb(195,137,109)" stroke-width="1.51"></path><path d="M-38,351L-112,424L-36,424Z" fill="rgb(137,54,112)" stroke="rgb(137,54,112)" stroke-width="1.51"></path><path d="M-115,199L-115,276L-40,200Z" fill="rgb(205,141,115)" stroke="rgb(205,141,115)" stroke-width="1.51"></path><path d="M710,423L711,351L638,350Z" fill="rgb(86,98,170)" stroke="rgb(86,98,170)" stroke-width="1.51"></path><path d="M562,498L636,499L561,425Z" fill="rgb(92,86,165)" stroke="rgb(92,86,165)" stroke-width="1.51"></path><path d="M489,500L636,499L562,498Z" fill="rgb(86,97,170)" stroke="rgb(86,97,170)" stroke-width="1.51"></path><path d="M710,423L638,350L637,423Z" fill="rgb(94,80,162)" stroke="rgb(94,80,162)" stroke-width="1.51"></path><path d="M711,276L714,124L712,198Z" fill="rgb(179,163,179)" stroke="rgb(179,163,179)" stroke-width="1.51"></path><path d="M488,-99L636,-101L412,-101Z" fill="rgb(143,103,119)" stroke="rgb(143,103,119)" stroke-width="1.51"></path><path d="M639,-24L564,-99L562,-24Z" fill="rgb(137,61,115)" stroke="rgb(137,61,115)" stroke-width="1.51"></path><path d="M639,-24L562,-24L636,48Z" fill="rgb(137,53,112)" stroke="rgb(137,53,112)" stroke-width="1.51"></path><path d="M712,50L639,-24L636,48Z" fill="rgb(154,65,117)" stroke="rgb(154,65,117)" stroke-width="1.51"></path><path d="M110,-101L36,-99L36,-26Z" fill="rgb(185,38,73)" stroke="rgb(185,38,73)" stroke-width="1.51"></path><path d="M-115,276L-112,349L-39,274Z" fill="rgb(164,124,113)" stroke="rgb(164,124,113)" stroke-width="1.51"></path><path d="M-36,424L-40,498L36,499Z" fill="rgb(137,53,112)" stroke="rgb(137,53,112)" stroke-width="1.51"></path><path d="M711,351L714,124L711,276Z" fill="rgb(161,156,162)" stroke="rgb(161,156,162)" stroke-width="1.51"></path><path d="M712,198L714,124L638,124Z" fill="rgb(181,141,149)" stroke="rgb(181,141,149)" stroke-width="1.51"></path><path d="M-114,48L-112,123L-39,48Z" fill="rgb(198,61,69)" stroke="rgb(198,61,69)" stroke-width="1.51"></path><path d="M-39,48L-112,123L-39,126Z" fill="rgb(204,83,75)" stroke="rgb(204,83,75)" stroke-width="1.51"></path><path d="M-112,424L-40,498L-36,424Z" fill="rgb(137,53,112)" stroke="rgb(137,53,112)" stroke-width="1.51"></path><path d="M36,-99L-38,-27L36,-26Z" fill="rgb(163,11,68)" stroke="rgb(163,11,68)" stroke-width="1.51"></path><path d="M711,498L710,423L637,423Z" fill="rgb(94,79,162)" stroke="rgb(94,79,162)" stroke-width="1.51"></path><path d="M714,124L712,50L638,124Z" fill="rgb(182,108,125)" stroke="rgb(182,108,125)" stroke-width="1.51"></path><path d="M-112,349L-112,424L-38,351Z" fill="rgb(136,77,120)" stroke="rgb(136,77,120)" stroke-width="1.51"></path><path d="M-115,276L-112,424L-112,349Z" fill="rgb(139,96,122)" stroke="rgb(139,96,122)" stroke-width="1.51"></path><path d="M-112,123L-114,48L-115,199Z" fill="rgb(207,104,84)" stroke="rgb(207,104,84)" stroke-width="1.51"></path><path d="M-114,-25L-114,48L-39,48Z" fill="rgb(174,26,70)" stroke="rgb(174,26,70)" stroke-width="1.51"></path><path d="M711,-26L636,-101L639,-24Z" fill="rgb(137,53,112)" stroke="rgb(137,53,112)" stroke-width="1.51"></path><path d="M639,-24L636,-101L564,-99Z" fill="rgb(137,53,112)" stroke="rgb(137,53,112)" stroke-width="1.51"></path><path d="M564,-99L636,-101L488,-99Z" fill="rgb(136,76,120)" stroke="rgb(136,76,120)" stroke-width="1.51"></path><path d="M412,-101L712,-102L186,-102Z" fill="rgb(169,126,113)" stroke="rgb(169,126,113)" stroke-width="1.51"></path><path d="M-38,-27L-114,-25L-39,48Z" fill="rgb(158,1,66)" stroke="rgb(158,1,66)" stroke-width="1.51"></path><path d="M36,-99L-37,-102L-38,-27Z" fill="rgb(158,1,66)" stroke="rgb(158,1,66)" stroke-width="1.51"></path><path d="M110,-101L-37,-102L36,-99Z" fill="rgb(174,26,70)" stroke="rgb(174,26,70)" stroke-width="1.51"></path><path d="M186,-102L-37,-102L110,-101Z" fill="rgb(192,51,71)" stroke="rgb(192,51,71)" stroke-width="1.51"></path><path d="M636,499L711,498L637,423Z" fill="rgb(94,79,162)" stroke="rgb(94,79,162)" stroke-width="1.51"></path><path d="M710,423L711,498L711,351Z" fill="rgb(94,79,162)" stroke="rgb(94,79,162)" stroke-width="1.51"></path><path d="M711,351L711,498L714,124Z" fill="rgb(104,134,166)" stroke="rgb(104,134,166)" stroke-width="1.51"></path><path d="M712,50L711,-26L639,-24Z" fill="rgb(137,53,112)" stroke="rgb(137,53,112)" stroke-width="1.51"></path><path d="M712,-102L711,-26L712,50Z" fill="rgb(137,53,112)" stroke="rgb(137,53,112)" stroke-width="1.51"></path><path d="M-40,498L-112,499L36,499Z" fill="rgb(137,53,112)" stroke="rgb(137,53,112)" stroke-width="1.51"></path><path d="M36,499L-112,499L264,500Z" fill="rgb(165,73,121)" stroke="rgb(165,73,121)" stroke-width="1.51"></path><path d="M-112,424L-112,499L-40,498Z" fill="rgb(137,53,112)" stroke="rgb(137,53,112)" stroke-width="1.51"></path><path d="M-115,276L-112,499L-112,424Z" fill="rgb(137,54,112)" stroke="rgb(137,54,112)" stroke-width="1.51"></path><path d="M-113,-101L-114,-25L-38,-27Z" fill="rgb(158,1,66)" stroke="rgb(158,1,66)" stroke-width="1.51"></path><path d="M-114,48L-114,-25L-115,199Z" fill="rgb(198,61,69)" stroke="rgb(198,61,69)" stroke-width="1.51"></path><path d="M714,124L712,-102L712,50Z" fill="rgb(153,65,117)" stroke="rgb(153,65,117)" stroke-width="1.51"></path><path d="M711,-26L712,-102L636,-101Z" fill="rgb(137,53,112)" stroke="rgb(137,53,112)" stroke-width="1.51"></path><path d="M636,-101L712,-102L412,-101Z" fill="rgb(137,62,115)" stroke="rgb(137,62,115)" stroke-width="1.51"></path><path d="M-37,-102L-113,-101L-38,-27Z" fill="rgb(158,1,66)" stroke="rgb(158,1,66)" stroke-width="1.51"></path></svg>