<svg width="600" height="400" xmlns="http://www.w3.org/2000/svg"><path d="M263,199L337,125L263,125Z" fill="rgb(142,181,214)" stroke="rgb(142,181,214)" stroke-width="1.51"></path><path d="M263,199L337,199L337,125Z" fill="rgb(118,172,209)" stroke="rgb(118,172,209)" stroke-width="1.51"></path><path d="M263,199L336,274L337,199Z" fill="rgb(89,161,202)" stroke="rgb(89,161,202)" stroke-width="1.51"></path><path d="M263,199L263,274L336,274Z" fill="rgb(88,158,200)" stroke="rgb(88,158,200)" stroke-width="1.51"></path><path d="M412,199L412,125L337,199Z" fill="rgb(98,160,198)" stroke="rgb(98,160,198)" stroke-width="1.51"></path><path d="M337,199L412,125L337,125Z" fill="rgb(121,168,207)" stroke="rgb(121,168,207)" stroke-width="1.51"></path><path d="M412,274L412,199L337,199Z" fill="rgb(67,149,191)" stroke="rgb(67,149,191)" stroke-width="1.51"></path><path d="M412,125L338,50L337,125Z" fill="rgb(144,178,213)" stroke="rgb(144,178,213)" stroke-width="1.51"></path><path d="M337,125L338,50L263,125Z" fill="rgb(156,187,217)" stroke="rgb(156,187,217)" stroke-width="1.51"></path><path d="M338,50L261,49L263,125Z" fill="rgb(171,195,222)" stroke="rgb(171,195,222)" stroke-width="1.51"></path><path d="M263,125L186,124L263,199Z" fill="rgb(162,188,218)" stroke="rgb(162,188,218)" stroke-width="1.51"></path><path d="M263,199L188,274L263,274Z" fill="rgb(112,165,205)" stroke="rgb(112,165,205)" stroke-width="1.51"></path><path d="M261,49L186,124L263,125Z" fill="rgb(183,197,224)" stroke="rgb(183,197,224)" stroke-width="1.51"></path><path d="M186,124L186,200L263,199Z" fill="rgb(156,186,217)" stroke="rgb(156,186,217)" stroke-width="1.51"></path><path d="M186,200L188,274L263,199Z" fill="rgb(131,174,211)" stroke="rgb(131,174,211)" stroke-width="1.51"></path><path d="M336,274L412,274L337,199Z" fill="rgb(60,146,193)" stroke="rgb(60,146,193)" stroke-width="1.51"></path><path d="M412,125L413,51L338,50Z" fill="rgb(146,179,209)" stroke="rgb(146,179,209)" stroke-width="1.51"></path><path d="M488,125L413,51L412,125Z" fill="rgb(128,170,188)" stroke="rgb(128,170,188)" stroke-width="1.51"></path><path d="M488,125L412,125L412,199Z" fill="rgb(105,160,182)" stroke="rgb(105,160,182)" stroke-width="1.51"></path><path d="M261,49L186,50L186,124Z" fill="rgb(198,205,228)" stroke="rgb(198,205,228)" stroke-width="1.51"></path><path d="M336,274L337,348L412,274Z" fill="rgb(42,139,167)" stroke="rgb(42,139,167)" stroke-width="1.51"></path><path d="M263,274L337,348L336,274Z" fill="rgb(61,147,171)" stroke="rgb(61,147,171)" stroke-width="1.51"></path><path d="M263,350L337,348L263,274Z" fill="rgb(71,145,160)" stroke="rgb(71,145,160)" stroke-width="1.51"></path><path d="M412,274L486,201L412,199Z" fill="rgb(55,145,173)" stroke="rgb(55,145,173)" stroke-width="1.51"></path><path d="M488,274L486,201L412,274Z" fill="rgb(36,135,161)" stroke="rgb(36,135,161)" stroke-width="1.51"></path><path d="M188,274L263,350L263,274Z" fill="rgb(97,157,177)" stroke="rgb(97,157,177)" stroke-width="1.51"></path><path d="M486,201L488,125L412,199Z" fill="rgb(84,152,171)" stroke="rgb(84,152,171)" stroke-width="1.51"></path><path d="M186,124L112,124L186,200Z" fill="rgb(185,197,224)" stroke="rgb(185,197,224)" stroke-width="1.51"></path><path d="M186,200L113,275L188,274Z" fill="rgb(137,175,210)" stroke="rgb(137,175,210)" stroke-width="1.51"></path><path d="M186,50L112,124L186,124Z" fill="rgb(205,207,229)" stroke="rgb(205,207,229)" stroke-width="1.51"></path><path d="M338,50L338,-26L261,49Z" fill="rgb(176,201,226)" stroke="rgb(176,201,226)" stroke-width="1.51"></path><path d="M261,49L188,-26L186,50Z" fill="rgb(210,215,233)" stroke="rgb(210,215,233)" stroke-width="1.51"></path><path d="M412,-25L338,-26L338,50Z" fill="rgb(168,196,222)" stroke="rgb(168,196,222)" stroke-width="1.51"></path><path d="M412,-25L338,50L413,51Z" fill="rgb(158,188,214)" stroke="rgb(158,188,214)" stroke-width="1.51"></path><path d="M338,-26L261,-26L261,49Z" fill="rgb(188,209,230)" stroke="rgb(188,209,230)" stroke-width="1.51"></path><path d="M186,50L113,49L112,124Z" fill="rgb(218,215,234)" stroke="rgb(218,215,234)" stroke-width="1.51"></path><path d="M112,124L111,200L186,200Z" fill="rgb(176,195,223)" stroke="rgb(176,195,223)" stroke-width="1.51"></path><path d="M188,274L186,350L263,350Z" fill="rgb(104,155,166)" stroke="rgb(104,155,166)" stroke-width="1.51"></path><path d="M487,49L412,-25L413,51Z" fill="rgb(147,183,195)" stroke="rgb(147,183,195)" stroke-width="1.51"></path><path d="M337,348L411,350L412,274Z" fill="rgb(33,131,148)" stroke="rgb(33,131,148)" stroke-width="1.51"></path><path d="M336,424L411,350L337,348Z" fill="rgb(40,118,131)" stroke="rgb(40,118,131)" stroke-width="1.51"></path><path d="M188,-26L113,49L186,50Z" fill="rgb(224,221,237)" stroke="rgb(224,221,237)" stroke-width="1.51"></path><path d="M111,200L113,275L186,200Z" fill="rgb(153,184,216)" stroke="rgb(153,184,216)" stroke-width="1.51"></path><path d="M488,125L487,49L413,51Z" fill="rgb(132,171,181)" stroke="rgb(132,171,181)" stroke-width="1.51"></path><path d="M261,-26L188,-26L261,49Z" fill="rgb(207,216,234)" stroke="rgb(207,216,234)" stroke-width="1.51"></path><path d="M487,349L488,274L412,274Z" fill="rgb(4,127,134)" stroke="rgb(4,127,134)" stroke-width="1.51"></path><path d="M563,199L562,123L488,125Z" fill="rgb(95,145,148)" stroke="rgb(95,145,148)" stroke-width="1.51"></path><path d="M113,275L186,350L188,274Z" fill="rgb(122,167,182)" stroke="rgb(122,167,182)" stroke-width="1.51"></path><path d="M487,49L487,-25L412,-25Z" fill="rgb(148,186,189)" stroke="rgb(148,186,189)" stroke-width="1.51"></path><path d="M413,-101L337,-100L338,-26Z" fill="rgb(168,196,222)" stroke="rgb(168,196,222)" stroke-width="1.51"></path><path d="M562,-25L487,-25L487,49Z" fill="rgb(142,178,171)" stroke="rgb(142,178,171)" stroke-width="1.51"></path><path d="M411,350L487,349L412,274Z" fill="rgb(13,125,130)" stroke="rgb(13,125,130)" stroke-width="1.51"></path><path d="M411,350L487,424L487,349Z" fill="rgb(4,107,100)" stroke="rgb(4,107,100)" stroke-width="1.51"></path><path d="M263,350L336,424L337,348Z" fill="rgb(55,126,136)" stroke="rgb(55,126,136)" stroke-width="1.51"></path><path d="M262,424L336,424L263,350Z" fill="rgb(62,119,127)" stroke="rgb(62,119,127)" stroke-width="1.51"></path><path d="M413,-101L338,-26L412,-25Z" fill="rgb(163,193,217)" stroke="rgb(163,193,217)" stroke-width="1.51"></path><path d="M338,-26L337,-100L261,-26Z" fill="rgb(180,205,228)" stroke="rgb(180,205,228)" stroke-width="1.51"></path><path d="M261,-26L187,-100L188,-26Z" fill="rgb(214,219,236)" stroke="rgb(214,219,236)" stroke-width="1.51"></path><path d="M111,200L37,275L113,275Z" fill="rgb(154,183,215)" stroke="rgb(154,183,215)" stroke-width="1.51"></path><path d="M113,275L113,350L186,350Z" fill="rgb(124,165,171)" stroke="rgb(124,165,171)" stroke-width="1.51"></path><path d="M37,125L38,200L111,200Z" fill="rgb(189,204,228)" stroke="rgb(189,204,228)" stroke-width="1.51"></path><path d="M37,125L111,200L112,124Z" fill="rgb(199,206,229)" stroke="rgb(199,206,229)" stroke-width="1.51"></path><path d="M186,350L262,424L263,350Z" fill="rgb(87,137,141)" stroke="rgb(87,137,141)" stroke-width="1.51"></path><path d="M488,125L561,50L487,49Z" fill="rgb(127,165,163)" stroke="rgb(127,165,163)" stroke-width="1.51"></path><path d="M563,199L488,125L486,201Z" fill="rgb(81,145,153)" stroke="rgb(81,145,153)" stroke-width="1.51"></path><path d="M563,199L486,201L562,274Z" fill="rgb(50,129,140)" stroke="rgb(50,129,140)" stroke-width="1.51"></path><path d="M186,350L188,425L262,424Z" fill="rgb(91,129,133)" stroke="rgb(91,129,133)" stroke-width="1.51"></path><path d="M38,349L113,350L113,275Z" fill="rgb(134,171,174)" stroke="rgb(134,171,174)" stroke-width="1.51"></path><path d="M38,49L37,125L112,124Z" fill="rgb(224,219,236)" stroke="rgb(224,219,236)" stroke-width="1.51"></path><path d="M562,274L486,201L488,274Z" fill="rgb(37,128,143)" stroke="rgb(37,128,143)" stroke-width="1.51"></path><path d="M113,49L38,49L112,124Z" fill="rgb(227,220,236)" stroke="rgb(227,220,236)" stroke-width="1.51"></path><path d="M188,-26L112,-26L113,49Z" fill="rgb(234,229,241)" stroke="rgb(234,229,241)" stroke-width="1.51"></path><path d="M187,-100L112,-26L188,-26Z" fill="rgb(228,226,239)" stroke="rgb(228,226,239)" stroke-width="1.51"></path><path d="M337,-100L262,-102L261,-26Z" fill="rgb(188,209,230)" stroke="rgb(188,209,230)" stroke-width="1.51"></path><path d="M562,123L561,50L488,125Z" fill="rgb(117,155,153)" stroke="rgb(117,155,153)" stroke-width="1.51"></path><path d="M562,349L562,274L488,274Z" fill="rgb(6,115,111)" stroke="rgb(6,115,111)" stroke-width="1.51"></path><path d="M112,-26L38,49L113,49Z" fill="rgb(238,230,242)" stroke="rgb(238,230,242)" stroke-width="1.51"></path><path d="M262,-102L187,-100L261,-26Z" fill="rgb(207,216,234)" stroke="rgb(207,216,234)" stroke-width="1.51"></path><path d="M113,350L188,425L186,350Z" fill="rgb(110,146,146)" stroke="rgb(110,146,146)" stroke-width="1.51"></path><path d="M262,424L336,499L336,424Z" fill="rgb(53,116,126)" stroke="rgb(53,116,126)" stroke-width="1.51"></path><path d="M336,424L412,425L411,350Z" fill="rgb(29,105,116)" stroke="rgb(29,105,116)" stroke-width="1.51"></path><path d="M487,349L562,349L488,274Z" fill="rgb(4,115,105)" stroke="rgb(4,115,105)" stroke-width="1.51"></path><path d="M336,499L412,425L336,424Z" fill="rgb(37,108,121)" stroke="rgb(37,108,121)" stroke-width="1.51"></path><path d="M38,200L37,275L111,200Z" fill="rgb(166,192,221)" stroke="rgb(166,192,221)" stroke-width="1.51"></path><path d="M113,350L111,425L188,425Z" fill="rgb(111,139,138)" stroke="rgb(111,139,138)" stroke-width="1.51"></path><path d="M-38,200L37,275L38,200Z" fill="rgb(173,199,224)" stroke="rgb(173,199,224)" stroke-width="1.51"></path><path d="M337,-100L413,-101L262,-102Z" fill="rgb(174,201,226)" stroke="rgb(174,201,226)" stroke-width="1.51"></path><path d="M487,-25L413,-101L412,-25Z" fill="rgb(152,189,198)" stroke="rgb(152,189,198)" stroke-width="1.51"></path><path d="M487,-101L413,-101L487,-25Z" fill="rgb(148,186,189)" stroke="rgb(148,186,189)" stroke-width="1.51"></path><path d="M37,275L38,349L113,275Z" fill="rgb(142,179,189)" stroke="rgb(142,179,189)" stroke-width="1.51"></path><path d="M412,425L487,424L411,350Z" fill="rgb(11,100,99)" stroke="rgb(11,100,99)" stroke-width="1.51"></path><path d="M561,50L562,-25L487,49Z" fill="rgb(135,168,161)" stroke="rgb(135,168,161)" stroke-width="1.51"></path><path d="M637,51L562,-25L561,50Z" fill="rgb(128,154,147)" stroke="rgb(128,154,147)" stroke-width="1.51"></path><path d="M637,51L561,50L562,123Z" fill="rgb(117,145,143)" stroke="rgb(117,145,143)" stroke-width="1.51"></path><path d="M487,424L562,349L487,349Z" fill="rgb(2,100,84)" stroke="rgb(2,100,84)" stroke-width="1.51"></path><path d="M562,274L637,200L563,199Z" fill="rgb(46,115,127)" stroke="rgb(46,115,127)" stroke-width="1.51"></path><path d="M111,-100L38,-26L112,-26Z" fill="rgb(243,235,244)" stroke="rgb(243,235,244)" stroke-width="1.51"></path><path d="M112,-26L38,-26L38,49Z" fill="rgb(247,238,246)" stroke="rgb(247,238,246)" stroke-width="1.51"></path><path d="M-39,124L-38,200L37,125Z" fill="rgb(211,218,235)" stroke="rgb(211,218,235)" stroke-width="1.51"></path><path d="M413,-101L487,-101L262,-102Z" fill="rgb(163,193,217)" stroke="rgb(163,193,217)" stroke-width="1.51"></path><path d="M561,-101L487,-101L487,-25Z" fill="rgb(142,178,171)" stroke="rgb(142,178,171)" stroke-width="1.51"></path><path d="M187,-100L111,-100L112,-26Z" fill="rgb(234,229,241)" stroke="rgb(234,229,241)" stroke-width="1.51"></path><path d="M262,-102L111,-100L187,-100Z" fill="rgb(222,223,238)" stroke="rgb(222,223,238)" stroke-width="1.51"></path><path d="M38,349L111,425L113,350Z" fill="rgb(125,154,150)" stroke="rgb(125,154,150)" stroke-width="1.51"></path><path d="M261,499L262,424L188,425Z" fill="rgb(83,126,131)" stroke="rgb(83,126,131)" stroke-width="1.51"></path><path d="M261,499L336,499L262,424Z" fill="rgb(62,120,127)" stroke="rgb(62,120,127)" stroke-width="1.51"></path><path d="M412,425L488,499L487,424Z" fill="rgb(4,97,91)" stroke="rgb(4,97,91)" stroke-width="1.51"></path><path d="M563,199L638,126L562,123Z" fill="rgb(90,131,135)" stroke="rgb(90,131,135)" stroke-width="1.51"></path><path d="M636,275L637,200L562,274Z" fill="rgb(32,106,120)" stroke="rgb(32,106,120)" stroke-width="1.51"></path><path d="M187,500L261,499L188,425Z" fill="rgb(91,129,133)" stroke="rgb(91,129,133)" stroke-width="1.51"></path><path d="M637,200L638,126L563,199Z" fill="rgb(73,123,129)" stroke="rgb(73,123,129)" stroke-width="1.51"></path><path d="M37,275L-39,350L38,349Z" fill="rgb(144,181,179)" stroke="rgb(144,181,179)" stroke-width="1.51"></path><path d="M37,125L-38,200L38,200Z" fill="rgb(195,211,231)" stroke="rgb(195,211,231)" stroke-width="1.51"></path><path d="M-39,124L37,125L-38,49Z" fill="rgb(231,228,240)" stroke="rgb(231,228,240)" stroke-width="1.51"></path><path d="M-38,49L37,125L38,49Z" fill="rgb(237,231,242)" stroke="rgb(237,231,242)" stroke-width="1.51"></path><path d="M562,349L636,275L562,274Z" fill="rgb(5,102,98)" stroke="rgb(5,102,98)" stroke-width="1.51"></path><path d="M637,200L712,201L638,126Z" fill="rgb(73,123,129)" stroke="rgb(73,123,129)" stroke-width="1.51"></path><path d="M638,126L637,51L562,123Z" fill="rgb(108,137,137)" stroke="rgb(108,137,137)" stroke-width="1.51"></path><path d="M336,499L411,500L412,425Z" fill="rgb(29,105,116)" stroke="rgb(29,105,116)" stroke-width="1.51"></path><path d="M187,500L411,500L336,499Z" fill="rgb(53,116,126)" stroke="rgb(53,116,126)" stroke-width="1.51"></path><path d="M-38,200L-38,274L37,275Z" fill="rgb(165,194,222)" stroke="rgb(165,194,222)" stroke-width="1.51"></path><path d="M38,349L37,424L111,425Z" fill="rgb(123,147,142)" stroke="rgb(123,147,142)" stroke-width="1.51"></path><path d="M-113,274L-38,274L-38,200Z" fill="rgb(166,194,222)" stroke="rgb(166,194,222)" stroke-width="1.51"></path><path d="M-37,-26L38,49L38,-26Z" fill="rgb(253,245,250)" stroke="rgb(253,245,250)" stroke-width="1.51"></path><path d="M-37,-26L-38,49L38,49Z" fill="rgb(250,242,248)" stroke="rgb(250,242,248)" stroke-width="1.51"></path><path d="M261,499L187,500L336,499Z" fill="rgb(73,123,129)" stroke="rgb(73,123,129)" stroke-width="1.51"></path><path d="M113,498L187,500L188,425Z" fill="rgb(105,136,136)" stroke="rgb(105,136,136)" stroke-width="1.51"></path><path d="M638,-100L561,-101L562,-25Z" fill="rgb(132,158,150)" stroke="rgb(132,158,150)" stroke-width="1.51"></path><path d="M562,-25L561,-101L487,-25Z" fill="rgb(139,173,163)" stroke="rgb(139,173,163)" stroke-width="1.51"></path><path d="M487,-101L561,-101L262,-102Z" fill="rgb(152,189,198)" stroke="rgb(152,189,198)" stroke-width="1.51"></path><path d="M562,349L637,350L636,275Z" fill="rgb(3,94,83)" stroke="rgb(3,94,83)" stroke-width="1.51"></path><path d="M487,424L561,425L562,349Z" fill="rgb(1,86,68)" stroke="rgb(1,86,68)" stroke-width="1.51"></path><path d="M488,499L561,425L487,424Z" fill="rgb(2,91,75)" stroke="rgb(2,91,75)" stroke-width="1.51"></path><path d="M111,425L113,498L188,425Z" fill="rgb(111,139,138)" stroke="rgb(111,139,138)" stroke-width="1.51"></path><path d="M-39,350L37,424L38,349Z" fill="rgb(134,164,156)" stroke="rgb(134,164,156)" stroke-width="1.51"></path><path d="M111,-100L36,-101L38,-26Z" fill="rgb(247,238,246)" stroke="rgb(247,238,246)" stroke-width="1.51"></path><path d="M262,-102L36,-101L111,-100Z" fill="rgb(234,229,241)" stroke="rgb(234,229,241)" stroke-width="1.51"></path><path d="M38,499L113,498L111,425Z" fill="rgb(119,144,140)" stroke="rgb(119,144,140)" stroke-width="1.51"></path><path d="M36,-101L-37,-26L38,-26Z" fill="rgb(253,245,250)" stroke="rgb(253,245,250)" stroke-width="1.51"></path><path d="M411,500L488,499L412,425Z" fill="rgb(11,100,99)" stroke="rgb(11,100,99)" stroke-width="1.51"></path><path d="M561,425L637,350L562,349Z" fill="rgb(1,83,65)" stroke="rgb(1,83,65)" stroke-width="1.51"></path><path d="M712,274L712,201L637,200Z" fill="rgb(45,112,123)" stroke="rgb(45,112,123)" stroke-width="1.51"></path><path d="M638,424L637,350L561,425Z" fill="rgb(1,70,54)" stroke="rgb(1,70,54)" stroke-width="1.51"></path><path d="M637,51L638,-26L562,-25Z" fill="rgb(130,155,146)" stroke="rgb(130,155,146)" stroke-width="1.51"></path><path d="M711,-26L638,-26L637,51Z" fill="rgb(130,155,146)" stroke="rgb(130,155,146)" stroke-width="1.51"></path><path d="M-38,274L-39,350L37,275Z" fill="rgb(149,187,193)" stroke="rgb(149,187,193)" stroke-width="1.51"></path><path d="M-112,349L-39,350L-38,274Z" fill="rgb(145,182,180)" stroke="rgb(145,182,180)" stroke-width="1.51"></path><path d="M638,126L713,125L637,51Z" fill="rgb(108,137,137)" stroke="rgb(108,137,137)" stroke-width="1.51"></path><path d="M712,274L637,200L636,275Z" fill="rgb(32,106,120)" stroke="rgb(32,106,120)" stroke-width="1.51"></path><path d="M-39,124L-113,199L-38,200Z" fill="rgb(197,213,232)" stroke="rgb(197,213,232)" stroke-width="1.51"></path><path d="M-113,50L-113,125L-39,124Z" fill="rgb(231,228,240)" stroke="rgb(231,228,240)" stroke-width="1.51"></path><path d="M-113,50L-39,124L-38,49Z" fill="rgb(238,232,243)" stroke="rgb(238,232,243)" stroke-width="1.51"></path><path d="M-113,125L-113,199L-39,124Z" fill="rgb(211,218,235)" stroke="rgb(211,218,235)" stroke-width="1.51"></path><path d="M712,201L713,125L638,126Z" fill="rgb(87,128,132)" stroke="rgb(87,128,132)" stroke-width="1.51"></path><path d="M37,424L38,499L111,425Z" fill="rgb(123,147,142)" stroke="rgb(123,147,142)" stroke-width="1.51"></path><path d="M113,498L38,499L187,500Z" fill="rgb(115,141,139)" stroke="rgb(115,141,139)" stroke-width="1.51"></path><path d="M-38,498L38,499L37,424Z" fill="rgb(129,153,145)" stroke="rgb(129,153,145)" stroke-width="1.51"></path><path d="M712,349L712,274L636,275Z" fill="rgb(5,99,95)" stroke="rgb(5,99,95)" stroke-width="1.51"></path><path d="M712,201L712,274L713,125Z" fill="rgb(56,118,127)" stroke="rgb(56,118,127)" stroke-width="1.51"></path><path d="M36,-101L-37,-101L-37,-26Z" fill="rgb(255,247,251)" stroke="rgb(255,247,251)" stroke-width="1.51"></path><path d="M-113,-26L-113,50L-38,49Z" fill="rgb(250,242,248)" stroke="rgb(250,242,248)" stroke-width="1.51"></path><path d="M262,-102L-37,-101L36,-101Z" fill="rgb(243,235,244)" stroke="rgb(243,235,244)" stroke-width="1.51"></path><path d="M488,499L562,500L561,425Z" fill="rgb(1,86,68)" stroke="rgb(1,86,68)" stroke-width="1.51"></path><path d="M637,350L712,349L636,275Z" fill="rgb(3,94,83)" stroke="rgb(3,94,83)" stroke-width="1.51"></path><path d="M411,500L562,500L488,499Z" fill="rgb(3,94,83)" stroke="rgb(3,94,83)" stroke-width="1.51"></path><path d="M638,-26L638,-100L562,-25Z" fill="rgb(130,155,146)" stroke="rgb(130,155,146)" stroke-width="1.51"></path><path d="M711,-26L638,-100L638,-26Z" fill="rgb(130,155,146)" stroke="rgb(130,155,146)" stroke-width="1.51"></path><path d="M637,498L638,424L561,425Z" fill="rgb(1,70,54)" stroke="rgb(1,70,54)" stroke-width="1.51"></path><path d="M-113,-26L-38,49L-37,-26Z" fill="rgb(255,247,251)" stroke="rgb(255,247,251)" stroke-width="1.51"></path><path d="M-39,350L-38,425L37,424Z" fill="rgb(130,155,146)" stroke="rgb(130,155,146)" stroke-width="1.51"></path><path d="M-113,199L-113,274L-38,200Z" fill="rgb(174,201,226)" stroke="rgb(174,201,226)" stroke-width="1.51"></path><path d="M713,125L713,50L637,51Z" fill="rgb(115,141,139)" stroke="rgb(115,141,139)" stroke-width="1.51"></path><path d="M-114,424L-38,425L-39,350Z" fill="rgb(130,155,146)" stroke="rgb(130,155,146)" stroke-width="1.51"></path><path d="M713,50L711,-26L637,51Z" fill="rgb(126,150,144)" stroke="rgb(126,150,144)" stroke-width="1.51"></path><path d="M-113,274L-112,349L-38,274Z" fill="rgb(150,187,194)" stroke="rgb(150,187,194)" stroke-width="1.51"></path><path d="M711,424L712,349L637,350Z" fill="rgb(1,79,63)" stroke="rgb(1,79,63)" stroke-width="1.51"></path><path d="M712,274L712,349L713,125Z" fill="rgb(33,106,120)" stroke="rgb(33,106,120)" stroke-width="1.51"></path><path d="M-37,-101L-113,-26L-37,-26Z" fill="rgb(255,247,251)" stroke="rgb(255,247,251)" stroke-width="1.51"></path><path d="M638,424L711,424L637,350Z" fill="rgb(1,70,54)" stroke="rgb(1,70,54)" stroke-width="1.51"></path><path d="M562,500L637,498L561,425Z" fill="rgb(1,73,57)" stroke="rgb(1,73,57)" stroke-width="1.51"></path><path d="M-38,425L-38,498L37,424Z" fill="rgb(130,155,146)" stroke="rgb(130,155,146)" stroke-width="1.51"></path><path d="M-114,424L-38,498L-38,425Z" fill="rgb(130,155,146)" stroke="rgb(130,155,146)" stroke-width="1.51"></path><path d="M637,498L711,424L638,424Z" fill="rgb(1,70,54)" stroke="rgb(1,70,54)" stroke-width="1.51"></path><path d="M713,50L712,-101L711,-26Z" fill="rgb(130,155,146)" stroke="rgb(130,155,146)" stroke-width="1.51"></path><path d="M711,-26L712,-101L638,-100Z" fill="rgb(130,155,146)" stroke="rgb(130,155,146)" stroke-width="1.51"></path><path d="M638,-100L712,-101L561,-101Z" fill="rgb(130,155,146)" stroke="rgb(130,155,146)" stroke-width="1.51"></path><path d="M561,-101L712,-101L262,-102Z" fill="rgb(142,178,171)" stroke="rgb(142,178,171)" stroke-width="1.51"></path><path d="M-37,-101L-114,-100L-113,-26Z" fill="rgb(255,247,251)" stroke="rgb(255,247,251)" stroke-width="1.51"></path><path d="M-113,-26L-114,-100L-113,50Z" fill="rgb(255,247,251)" stroke="rgb(255,247,251)" stroke-width="1.51"></path><path d="M-113,50L-114,-100L-113,125Z" fill="rgb(250,241,248)" stroke="rgb(250,241,248)" stroke-width="1.51"></path><path d="M-113,125L-114,-100L-113,199Z" fill="rgb(238,232,243)" stroke="rgb(238,232,243)" stroke-width="1.51"></path><path d="M-113,199L-114,424L-113,274Z" fill="rgb(150,187,194)" stroke="rgb(150,187,194)" stroke-width="1.51"></path><path d="M-114,-100L-114,424L-113,199Z" fill="rgb(197,213,232)" stroke="rgb(197,213,232)" stroke-width="1.51"></path><path d="M-113,274L-114,424L-112,349Z" fill="rgb(141,176,167)" stroke="rgb(141,176,167)" stroke-width="1.51"></path><path d="M-112,349L-114,424L-39,350Z" fill="rgb(136,166,157)" stroke="rgb(136,166,157)" stroke-width="1.51"></path><path d="M-114,424L-112,501L-38,498Z" fill="rgb(130,155,146)" stroke="rgb(130,155,146)" stroke-width="1.51"></path><path d="M-38,498L-112,501L38,499Z" fill="rgb(130,155,146)" stroke="rgb(130,155,146)" stroke-width="1.51"></path><path d="M38,499L-112,501L187,500Z" fill="rgb(126,150,144)" stroke="rgb(126,150,144)" stroke-width="1.51"></path><path d="M187,500L-112,501L411,500Z" fill="rgb(105,136,136)" stroke="rgb(105,136,136)" stroke-width="1.51"></path><path d="M411,500L-112,501L562,500Z" fill="rgb(62,119,127)" stroke="rgb(62,119,127)" stroke-width="1.51"></path><path d="M637,498L713,500L711,424Z" fill="rgb(1,70,54)" stroke="rgb(1,70,54)" stroke-width="1.51"></path><path d="M711,424L713,500L712,349Z" fill="rgb(1,70,54)" stroke="rgb(1,70,54)" stroke-width="1.51"></path><path d="M712,349L713,500L713,125Z" fill="rgb(3,94,83)" stroke="rgb(3,94,83)" stroke-width="1.51"></path><path d="M562,500L713,500L637,498Z" fill="rgb(1,70,54)" stroke="rgb(1,70,54)" stroke-width="1.51"></path><path d="M-112,501L713,500L562,500Z" fill="rgb(28,105,116)" stroke="rgb(28,105,116)" stroke-width="1.51"></path></svg>