<svg width="600" height="400" xmlns="http://www.w3.org/2000/svg"><path d="M262,197L266,128L192,196Z" fill="rgb(178,177,214)" stroke="rgb(178,177,214)" stroke-width="1.51"></path><path d="M266,128L191,124L192,196Z" fill="rgb(189,190,221)" stroke="rgb(189,190,221)" stroke-width="1.51"></path><path d="M258,44L190,52L191,124Z" fill="rgb(211,211,231)" stroke="rgb(211,211,231)" stroke-width="1.51"></path><path d="M266,128L258,44L191,124Z" fill="rgb(201,201,225)" stroke="rgb(201,201,225)" stroke-width="1.51"></path><path d="M339,197L337,123L266,128Z" fill="rgb(170,169,208)" stroke="rgb(170,169,208)" stroke-width="1.51"></path><path d="M262,197L339,197L266,128Z" fill="rgb(168,165,206)" stroke="rgb(168,165,206)" stroke-width="1.51"></path><path d="M191,124L114,125L192,196Z" fill="rgb(200,201,227)" stroke="rgb(200,201,227)" stroke-width="1.51"></path><path d="M190,52L114,125L191,124Z" fill="rgb(215,215,234)" stroke="rgb(215,215,234)" stroke-width="1.51"></path><path d="M191,277L267,273L262,197Z" fill="rgb(156,154,201)" stroke="rgb(156,154,201)" stroke-width="1.51"></path><path d="M262,197L267,273L339,197Z" fill="rgb(154,150,199)" stroke="rgb(154,150,199)" stroke-width="1.51"></path><path d="M191,277L262,197L192,196Z" fill="rgb(168,166,207)" stroke="rgb(168,166,207)" stroke-width="1.51"></path><path d="M342,54L258,44L266,128Z" fill="rgb(195,192,221)" stroke="rgb(195,192,221)" stroke-width="1.51"></path><path d="M112,276L191,277L192,196Z" fill="rgb(170,167,209)" stroke="rgb(170,167,209)" stroke-width="1.51"></path><path d="M114,125L109,198L192,196Z" fill="rgb(197,197,224)" stroke="rgb(197,197,224)" stroke-width="1.51"></path><path d="M337,123L342,54L266,128Z" fill="rgb(184,182,216)" stroke="rgb(184,182,216)" stroke-width="1.51"></path><path d="M414,125L342,54L337,123Z" fill="rgb(175,172,212)" stroke="rgb(175,172,212)" stroke-width="1.51"></path><path d="M190,52L116,45L114,125Z" fill="rgb(225,224,238)" stroke="rgb(225,224,238)" stroke-width="1.51"></path><path d="M114,125L37,121L109,198Z" fill="rgb(212,212,232)" stroke="rgb(212,212,232)" stroke-width="1.51"></path><path d="M182,-30L116,45L190,52Z" fill="rgb(229,229,240)" stroke="rgb(229,229,240)" stroke-width="1.51"></path><path d="M339,197L414,125L337,123Z" fill="rgb(161,159,204)" stroke="rgb(161,159,204)" stroke-width="1.51"></path><path d="M267,273L339,279L339,197Z" fill="rgb(140,136,192)" stroke="rgb(140,136,192)" stroke-width="1.51"></path><path d="M262,347L339,279L267,273Z" fill="rgb(135,119,183)" stroke="rgb(135,119,183)" stroke-width="1.51"></path><path d="M109,198L112,276L192,196Z" fill="rgb(182,180,215)" stroke="rgb(182,180,215)" stroke-width="1.51"></path><path d="M191,277L262,347L267,273Z" fill="rgb(145,131,189)" stroke="rgb(145,131,189)" stroke-width="1.51"></path><path d="M258,44L259,-26L190,52Z" fill="rgb(215,214,233)" stroke="rgb(215,214,233)" stroke-width="1.51"></path><path d="M334,-28L259,-26L258,44Z" fill="rgb(208,206,228)" stroke="rgb(208,206,228)" stroke-width="1.51"></path><path d="M182,354L262,347L191,277Z" fill="rgb(145,125,188)" stroke="rgb(145,125,188)" stroke-width="1.51"></path><path d="M413,202L414,125L339,197Z" fill="rgb(149,144,196)" stroke="rgb(149,144,196)" stroke-width="1.51"></path><path d="M410,275L413,202L339,197Z" fill="rgb(134,129,188)" stroke="rgb(134,129,188)" stroke-width="1.51"></path><path d="M37,51L37,121L114,125Z" fill="rgb(229,228,240)" stroke="rgb(229,228,240)" stroke-width="1.51"></path><path d="M109,198L36,275L112,276Z" fill="rgb(182,178,215)" stroke="rgb(182,178,215)" stroke-width="1.51"></path><path d="M259,-26L182,-30L190,52Z" fill="rgb(223,223,238)" stroke="rgb(223,223,238)" stroke-width="1.51"></path><path d="M116,45L37,51L114,125Z" fill="rgb(232,230,241)" stroke="rgb(232,230,241)" stroke-width="1.51"></path><path d="M37,121L34,201L109,198Z" fill="rgb(208,206,229)" stroke="rgb(208,206,229)" stroke-width="1.51"></path><path d="M116,346L182,354L191,277Z" fill="rgb(155,134,193)" stroke="rgb(155,134,193)" stroke-width="1.51"></path><path d="M116,346L191,277L112,276Z" fill="rgb(164,149,200)" stroke="rgb(164,149,200)" stroke-width="1.51"></path><path d="M339,279L410,275L339,197Z" fill="rgb(131,127,187)" stroke="rgb(131,127,187)" stroke-width="1.51"></path><path d="M339,348L410,275L339,279Z" fill="rgb(120,105,176)" stroke="rgb(120,105,176)" stroke-width="1.51"></path><path d="M259,-26L261,-96L182,-30Z" fill="rgb(218,218,235)" stroke="rgb(218,218,235)" stroke-width="1.51"></path><path d="M342,54L334,-28L258,44Z" fill="rgb(200,196,223)" stroke="rgb(200,196,223)" stroke-width="1.51"></path><path d="M410,-25L334,-28L342,54Z" fill="rgb(192,189,220)" stroke="rgb(192,189,220)" stroke-width="1.51"></path><path d="M41,344L116,346L112,276Z" fill="rgb(167,145,199)" stroke="rgb(167,145,199)" stroke-width="1.51"></path><path d="M262,347L339,348L339,279Z" fill="rgb(125,105,176)" stroke="rgb(125,105,176)" stroke-width="1.51"></path><path d="M334,421L339,348L262,347Z" fill="rgb(116,88,166)" stroke="rgb(116,88,166)" stroke-width="1.51"></path><path d="M414,125L415,47L342,54Z" fill="rgb(176,170,210)" stroke="rgb(176,170,210)" stroke-width="1.51"></path><path d="M40,-30L37,51L116,45Z" fill="rgb(243,242,247)" stroke="rgb(243,242,247)" stroke-width="1.51"></path><path d="M-38,128L-33,204L34,201Z" fill="rgb(211,209,231)" stroke="rgb(211,209,231)" stroke-width="1.51"></path><path d="M182,-30L115,-30L116,45Z" fill="rgb(236,236,245)" stroke="rgb(236,236,245)" stroke-width="1.51"></path><path d="M34,201L36,275L109,198Z" fill="rgb(192,189,220)" stroke="rgb(192,189,220)" stroke-width="1.51"></path><path d="M334,-28L261,-96L259,-26Z" fill="rgb(208,205,228)" stroke="rgb(208,205,228)" stroke-width="1.51"></path><path d="M182,-30L110,-106L115,-30Z" fill="rgb(237,236,245)" stroke="rgb(237,236,245)" stroke-width="1.51"></path><path d="M336,-104L261,-96L334,-28Z" fill="rgb(203,199,225)" stroke="rgb(203,199,225)" stroke-width="1.51"></path><path d="M415,47L410,-25L342,54Z" fill="rgb(185,178,216)" stroke="rgb(185,178,216)" stroke-width="1.51"></path><path d="M36,275L41,344L112,276Z" fill="rgb(175,158,205)" stroke="rgb(175,158,205)" stroke-width="1.51"></path><path d="M116,346L182,420L182,354Z" fill="rgb(147,118,184)" stroke="rgb(147,118,184)" stroke-width="1.51"></path><path d="M414,125L483,46L415,47Z" fill="rgb(170,156,204)" stroke="rgb(170,156,204)" stroke-width="1.51"></path><path d="M415,47L483,46L410,-25Z" fill="rgb(178,164,208)" stroke="rgb(178,164,208)" stroke-width="1.51"></path><path d="M413,202L487,202L414,125Z" fill="rgb(142,128,188)" stroke="rgb(142,128,188)" stroke-width="1.51"></path><path d="M488,274L487,202L413,202Z" fill="rgb(123,106,177)" stroke="rgb(123,106,177)" stroke-width="1.51"></path><path d="M488,274L413,202L410,275Z" fill="rgb(119,107,176)" stroke="rgb(119,107,176)" stroke-width="1.51"></path><path d="M487,202L488,124L414,125Z" fill="rgb(146,130,190)" stroke="rgb(146,130,190)" stroke-width="1.51"></path><path d="M182,354L182,420L262,347Z" fill="rgb(137,109,178)" stroke="rgb(137,109,178)" stroke-width="1.51"></path><path d="M107,430L182,420L116,346Z" fill="rgb(147,114,181)" stroke="rgb(147,114,181)" stroke-width="1.51"></path><path d="M34,201L-33,204L36,275Z" fill="rgb(196,192,222)" stroke="rgb(196,192,222)" stroke-width="1.51"></path><path d="M36,275L-33,345L41,344Z" fill="rgb(174,152,202)" stroke="rgb(174,152,202)" stroke-width="1.51"></path><path d="M-38,128L34,201L37,121Z" fill="rgb(219,219,236)" stroke="rgb(219,219,236)" stroke-width="1.51"></path><path d="M339,348L412,354L410,275Z" fill="rgb(111,89,168)" stroke="rgb(111,89,168)" stroke-width="1.51"></path><path d="M182,420L266,424L262,347Z" fill="rgb(127,97,171)" stroke="rgb(127,97,171)" stroke-width="1.51"></path><path d="M-35,54L-38,128L37,121Z" fill="rgb(234,234,244)" stroke="rgb(234,234,244)" stroke-width="1.51"></path><path d="M115,-30L40,-30L116,45Z" fill="rgb(243,242,248)" stroke="rgb(243,242,248)" stroke-width="1.51"></path><path d="M36,-95L40,-30L115,-30Z" fill="rgb(246,245,249)" stroke="rgb(246,245,249)" stroke-width="1.51"></path><path d="M334,421L412,354L339,348Z" fill="rgb(106,79,161)" stroke="rgb(106,79,161)" stroke-width="1.51"></path><path d="M-35,54L37,121L37,51Z" fill="rgb(239,238,246)" stroke="rgb(239,238,246)" stroke-width="1.51"></path><path d="M261,-96L192,-106L182,-30Z" fill="rgb(222,222,238)" stroke="rgb(222,222,238)" stroke-width="1.51"></path><path d="M488,124L483,46L414,125Z" fill="rgb(162,145,198)" stroke="rgb(162,145,198)" stroke-width="1.51"></path><path d="M266,424L334,421L262,347Z" fill="rgb(117,86,164)" stroke="rgb(117,86,164)" stroke-width="1.51"></path><path d="M-38,-22L-35,54L37,51Z" fill="rgb(248,247,251)" stroke="rgb(248,247,251)" stroke-width="1.51"></path><path d="M486,344L488,274L410,275Z" fill="rgb(105,79,162)" stroke="rgb(105,79,162)" stroke-width="1.51"></path><path d="M563,196L561,121L488,124Z" fill="rgb(138,112,180)" stroke="rgb(138,112,180)" stroke-width="1.51"></path><path d="M261,-96L336,-104L192,-106Z" fill="rgb(212,210,231)" stroke="rgb(212,210,231)" stroke-width="1.51"></path><path d="M410,-25L336,-104L334,-28Z" fill="rgb(193,189,221)" stroke="rgb(193,189,221)" stroke-width="1.51"></path><path d="M416,-106L336,-104L410,-25Z" fill="rgb(189,182,217)" stroke="rgb(189,182,217)" stroke-width="1.51"></path><path d="M-33,204L-38,279L36,275Z" fill="rgb(190,185,219)" stroke="rgb(190,185,219)" stroke-width="1.51"></path><path d="M-112,271L-38,279L-33,204Z" fill="rgb(190,185,219)" stroke="rgb(190,185,219)" stroke-width="1.51"></path><path d="M192,-106L110,-106L182,-30Z" fill="rgb(232,232,243)" stroke="rgb(232,232,243)" stroke-width="1.51"></path><path d="M39,420L107,430L116,346Z" fill="rgb(153,120,184)" stroke="rgb(153,120,184)" stroke-width="1.51"></path><path d="M182,420L266,496L266,424Z" fill="rgb(127,96,171)" stroke="rgb(127,96,171)" stroke-width="1.51"></path><path d="M39,420L116,346L41,344Z" fill="rgb(161,130,191)" stroke="rgb(161,130,191)" stroke-width="1.51"></path><path d="M412,354L486,344L410,275Z" fill="rgb(103,75,160)" stroke="rgb(103,75,160)" stroke-width="1.51"></path><path d="M416,424L486,344L412,354Z" fill="rgb(93,57,150)" stroke="rgb(93,57,150)" stroke-width="1.51"></path><path d="M110,-106L36,-95L115,-30Z" fill="rgb(244,242,248)" stroke="rgb(244,242,248)" stroke-width="1.51"></path><path d="M40,-30L-38,-22L37,51Z" fill="rgb(251,250,252)" stroke="rgb(251,250,252)" stroke-width="1.51"></path><path d="M-38,279L-33,345L36,275Z" fill="rgb(180,163,208)" stroke="rgb(180,163,208)" stroke-width="1.51"></path><path d="M-33,345L39,420L41,344Z" fill="rgb(165,134,193)" stroke="rgb(165,134,193)" stroke-width="1.51"></path><path d="M36,-95L-38,-22L40,-30Z" fill="rgb(251,250,252)" stroke="rgb(251,250,252)" stroke-width="1.51"></path><path d="M-35,54L-110,120L-38,128Z" fill="rgb(235,234,244)" stroke="rgb(235,234,244)" stroke-width="1.51"></path><path d="M483,46L489,-29L410,-25Z" fill="rgb(178,159,206)" stroke="rgb(178,159,206)" stroke-width="1.51"></path><path d="M558,53L489,-29L483,46Z" fill="rgb(169,143,198)" stroke="rgb(169,143,198)" stroke-width="1.51"></path><path d="M558,53L483,46L488,124Z" fill="rgb(161,135,194)" stroke="rgb(161,135,194)" stroke-width="1.51"></path><path d="M334,421L416,424L412,354Z" fill="rgb(96,66,153)" stroke="rgb(96,66,153)" stroke-width="1.51"></path><path d="M340,504L416,424L334,421Z" fill="rgb(101,71,156)" stroke="rgb(101,71,156)" stroke-width="1.51"></path><path d="M266,496L334,421L266,424Z" fill="rgb(116,85,164)" stroke="rgb(116,85,164)" stroke-width="1.51"></path><path d="M336,-104L416,-106L192,-106Z" fill="rgb(202,198,225)" stroke="rgb(202,198,225)" stroke-width="1.51"></path><path d="M489,-29L416,-106L410,-25Z" fill="rgb(181,166,210)" stroke="rgb(181,166,210)" stroke-width="1.51"></path><path d="M563,196L488,124L487,202Z" fill="rgb(133,108,178)" stroke="rgb(133,108,178)" stroke-width="1.51"></path><path d="M563,196L487,202L558,274Z" fill="rgb(114,88,167)" stroke="rgb(114,88,167)" stroke-width="1.51"></path><path d="M558,274L487,202L488,274Z" fill="rgb(109,86,167)" stroke="rgb(109,86,167)" stroke-width="1.51"></path><path d="M182,503L182,420L107,430Z" fill="rgb(143,111,179)" stroke="rgb(143,111,179)" stroke-width="1.51"></path><path d="M182,503L266,496L182,420Z" fill="rgb(132,102,174)" stroke="rgb(132,102,174)" stroke-width="1.51"></path><path d="M-38,128L-111,195L-33,204Z" fill="rgb(212,210,231)" stroke="rgb(212,210,231)" stroke-width="1.51"></path><path d="M-38,279L-115,349L-33,345Z" fill="rgb(175,152,203)" stroke="rgb(175,152,203)" stroke-width="1.51"></path><path d="M-119,51L-110,120L-35,54Z" fill="rgb(240,239,246)" stroke="rgb(240,239,246)" stroke-width="1.51"></path><path d="M-110,120L-111,195L-38,128Z" fill="rgb(220,220,237)" stroke="rgb(220,220,237)" stroke-width="1.51"></path><path d="M110,499L182,503L107,430Z" fill="rgb(147,114,181)" stroke="rgb(147,114,181)" stroke-width="1.51"></path><path d="M561,121L558,53L488,124Z" fill="rgb(152,125,187)" stroke="rgb(152,125,187)" stroke-width="1.51"></path><path d="M486,344L558,274L488,274Z" fill="rgb(98,66,156)" stroke="rgb(98,66,156)" stroke-width="1.51"></path><path d="M564,353L558,274L486,344Z" fill="rgb(89,48,147)" stroke="rgb(89,48,147)" stroke-width="1.51"></path><path d="M-111,195L-112,271L-33,204Z" fill="rgb(198,194,223)" stroke="rgb(198,194,223)" stroke-width="1.51"></path><path d="M-33,345L-40,422L39,420Z" fill="rgb(162,128,190)" stroke="rgb(162,128,190)" stroke-width="1.51"></path><path d="M33,500L107,430L39,420Z" fill="rgb(156,122,186)" stroke="rgb(156,122,186)" stroke-width="1.51"></path><path d="M33,500L110,499L107,430Z" fill="rgb(154,120,184)" stroke="rgb(154,120,184)" stroke-width="1.51"></path><path d="M182,503L340,504L266,496Z" fill="rgb(121,91,167)" stroke="rgb(121,91,167)" stroke-width="1.51"></path><path d="M266,496L340,504L334,421Z" fill="rgb(111,80,161)" stroke="rgb(111,80,161)" stroke-width="1.51"></path><path d="M-110,120L-119,51L-111,195Z" fill="rgb(228,228,240)" stroke="rgb(228,228,240)" stroke-width="1.51"></path><path d="M-111,195L-119,51L-112,271Z" fill="rgb(213,211,232)" stroke="rgb(213,211,232)" stroke-width="1.51"></path><path d="M-38,-22L-119,51L-35,54Z" fill="rgb(248,247,251)" stroke="rgb(248,247,251)" stroke-width="1.51"></path><path d="M-116,-21L-119,51L-38,-22Z" fill="rgb(252,250,253)" stroke="rgb(252,250,253)" stroke-width="1.51"></path><path d="M559,-106L483,-106L489,-29Z" fill="rgb(172,146,200)" stroke="rgb(172,146,200)" stroke-width="1.51"></path><path d="M489,-29L483,-106L416,-106Z" fill="rgb(178,159,206)" stroke="rgb(178,159,206)" stroke-width="1.51"></path><path d="M484,501L492,425L416,424Z" fill="rgb(83,42,142)" stroke="rgb(83,42,142)" stroke-width="1.51"></path><path d="M416,424L492,425L486,344Z" fill="rgb(84,43,142)" stroke="rgb(84,43,142)" stroke-width="1.51"></path><path d="M-115,349L-40,422L-33,345Z" fill="rgb(166,135,194)" stroke="rgb(166,135,194)" stroke-width="1.51"></path><path d="M36,-95L-41,-102L-38,-22Z" fill="rgb(252,251,253)" stroke="rgb(252,251,253)" stroke-width="1.51"></path><path d="M110,-106L-41,-102L36,-95Z" fill="rgb(249,247,251)" stroke="rgb(249,247,251)" stroke-width="1.51"></path><path d="M558,53L565,-26L489,-29Z" fill="rgb(169,139,196)" stroke="rgb(169,139,196)" stroke-width="1.51"></path><path d="M643,46L565,-26L558,53Z" fill="rgb(159,126,188)" stroke="rgb(159,126,188)" stroke-width="1.51"></path><path d="M636,124L558,53L561,121Z" fill="rgb(146,115,182)" stroke="rgb(146,115,182)" stroke-width="1.51"></path><path d="M492,425L564,353L486,344Z" fill="rgb(81,35,140)" stroke="rgb(81,35,140)" stroke-width="1.51"></path><path d="M640,203L636,124L563,196Z" fill="rgb(122,91,167)" stroke="rgb(122,91,167)" stroke-width="1.51"></path><path d="M563,196L636,124L561,121Z" fill="rgb(132,102,174)" stroke="rgb(132,102,174)" stroke-width="1.51"></path><path d="M-114,-95L-116,-21L-38,-22Z" fill="rgb(252,251,253)" stroke="rgb(252,251,253)" stroke-width="1.51"></path><path d="M340,504L411,503L416,424Z" fill="rgb(96,65,153)" stroke="rgb(96,65,153)" stroke-width="1.51"></path><path d="M-112,271L-115,349L-38,279Z" fill="rgb(180,163,208)" stroke="rgb(180,163,208)" stroke-width="1.51"></path><path d="M-119,51L-115,349L-112,271Z" fill="rgb(198,194,223)" stroke="rgb(198,194,223)" stroke-width="1.51"></path><path d="M-40,422L33,500L39,420Z" fill="rgb(160,126,188)" stroke="rgb(160,126,188)" stroke-width="1.51"></path><path d="M110,499L33,500L182,503Z" fill="rgb(150,117,183)" stroke="rgb(150,117,183)" stroke-width="1.51"></path><path d="M-41,503L33,500L-40,422Z" fill="rgb(161,127,189)" stroke="rgb(161,127,189)" stroke-width="1.51"></path><path d="M640,203L563,196L637,275Z" fill="rgb(106,76,159)" stroke="rgb(106,76,159)" stroke-width="1.51"></path><path d="M637,275L563,196L558,274Z" fill="rgb(100,72,157)" stroke="rgb(100,72,157)" stroke-width="1.51"></path><path d="M632,351L637,275L558,274Z" fill="rgb(86,46,144)" stroke="rgb(86,46,144)" stroke-width="1.51"></path><path d="M565,-26L559,-106L489,-29Z" fill="rgb(169,139,196)" stroke="rgb(169,139,196)" stroke-width="1.51"></path><path d="M634,-102L559,-106L565,-26Z" fill="rgb(163,130,190)" stroke="rgb(163,130,190)" stroke-width="1.51"></path><path d="M411,503L484,501L416,424Z" fill="rgb(88,51,146)" stroke="rgb(88,51,146)" stroke-width="1.51"></path><path d="M492,425L564,423L564,353Z" fill="rgb(72,19,132)" stroke="rgb(72,19,132)" stroke-width="1.51"></path><path d="M564,353L632,351L558,274Z" fill="rgb(81,38,141)" stroke="rgb(81,38,141)" stroke-width="1.51"></path><path d="M-41,-102L-114,-95L-38,-22Z" fill="rgb(252,251,253)" stroke="rgb(252,251,253)" stroke-width="1.51"></path><path d="M-116,-21L-114,-95L-119,51Z" fill="rgb(252,251,253)" stroke="rgb(252,251,253)" stroke-width="1.51"></path><path d="M566,495L564,423L492,425Z" fill="rgb(72,18,132)" stroke="rgb(72,18,132)" stroke-width="1.51"></path><path d="M-117,494L-115,420L-115,349Z" fill="rgb(161,127,189)" stroke="rgb(161,127,189)" stroke-width="1.51"></path><path d="M-115,349L-115,420L-40,422Z" fill="rgb(161,128,189)" stroke="rgb(161,128,189)" stroke-width="1.51"></path><path d="M715,125L643,46L636,124Z" fill="rgb(145,113,180)" stroke="rgb(145,113,180)" stroke-width="1.51"></path><path d="M636,124L643,46L558,53Z" fill="rgb(150,117,182)" stroke="rgb(150,117,182)" stroke-width="1.51"></path><path d="M-117,494L-41,503L-40,422Z" fill="rgb(161,127,189)" stroke="rgb(161,127,189)" stroke-width="1.51"></path><path d="M33,500L-41,503L182,503Z" fill="rgb(156,122,186)" stroke="rgb(156,122,186)" stroke-width="1.51"></path><path d="M182,503L-41,503L340,504Z" fill="rgb(142,110,179)" stroke="rgb(142,110,179)" stroke-width="1.51"></path><path d="M643,46L634,-24L565,-26Z" fill="rgb(161,127,189)" stroke="rgb(161,127,189)" stroke-width="1.51"></path><path d="M564,423L632,351L564,353Z" fill="rgb(70,16,131)" stroke="rgb(70,16,131)" stroke-width="1.51"></path><path d="M564,423L637,426L632,351Z" fill="rgb(63,0,125)" stroke="rgb(63,0,125)" stroke-width="1.51"></path><path d="M484,501L566,495L492,425Z" fill="rgb(75,27,135)" stroke="rgb(75,27,135)" stroke-width="1.51"></path><path d="M-115,420L-117,494L-40,422Z" fill="rgb(161,127,189)" stroke="rgb(161,127,189)" stroke-width="1.51"></path><path d="M-119,51L-117,494L-115,349Z" fill="rgb(180,164,208)" stroke="rgb(180,164,208)" stroke-width="1.51"></path><path d="M710,-30L634,-102L634,-24Z" fill="rgb(161,127,189)" stroke="rgb(161,127,189)" stroke-width="1.51"></path><path d="M634,-24L634,-102L565,-26Z" fill="rgb(161,127,189)" stroke="rgb(161,127,189)" stroke-width="1.51"></path><path d="M566,495L637,426L564,423Z" fill="rgb(65,3,126)" stroke="rgb(65,3,126)" stroke-width="1.51"></path><path d="M716,203L640,203L715,276Z" fill="rgb(105,75,158)" stroke="rgb(105,75,158)" stroke-width="1.51"></path><path d="M716,203L715,125L640,203Z" fill="rgb(121,90,167)" stroke="rgb(121,90,167)" stroke-width="1.51"></path><path d="M640,203L715,125L636,124Z" fill="rgb(129,99,172)" stroke="rgb(129,99,172)" stroke-width="1.51"></path><path d="M640,203L637,275L715,276Z" fill="rgb(98,69,155)" stroke="rgb(98,69,155)" stroke-width="1.51"></path><path d="M643,46L710,-30L634,-24Z" fill="rgb(161,127,189)" stroke="rgb(161,127,189)" stroke-width="1.51"></path><path d="M715,276L637,275L710,352Z" fill="rgb(86,46,144)" stroke="rgb(86,46,144)" stroke-width="1.51"></path><path d="M710,352L637,275L632,351Z" fill="rgb(80,35,139)" stroke="rgb(80,35,139)" stroke-width="1.51"></path><path d="M716,203L716,47L715,125Z" fill="rgb(137,105,176)" stroke="rgb(137,105,176)" stroke-width="1.51"></path><path d="M715,125L716,47L643,46Z" fill="rgb(150,117,182)" stroke="rgb(150,117,182)" stroke-width="1.51"></path><path d="M716,47L710,-30L643,46Z" fill="rgb(158,124,187)" stroke="rgb(158,124,187)" stroke-width="1.51"></path><path d="M637,426L710,352L632,351Z" fill="rgb(68,11,129)" stroke="rgb(68,11,129)" stroke-width="1.51"></path><path d="M637,426L717,428L710,352Z" fill="rgb(63,0,125)" stroke="rgb(63,0,125)" stroke-width="1.51"></path><path d="M566,495L635,502L637,426Z" fill="rgb(63,0,125)" stroke="rgb(63,0,125)" stroke-width="1.51"></path><path d="M484,501L635,502L566,495Z" fill="rgb(69,12,129)" stroke="rgb(69,12,129)" stroke-width="1.51"></path><path d="M411,503L635,502L484,501Z" fill="rgb(76,28,136)" stroke="rgb(76,28,136)" stroke-width="1.51"></path><path d="M340,504L635,502L411,503Z" fill="rgb(84,43,142)" stroke="rgb(84,43,142)" stroke-width="1.51"></path><path d="M716,47L707,-101L710,-30Z" fill="rgb(161,127,189)" stroke="rgb(161,127,189)" stroke-width="1.51"></path><path d="M710,-30L707,-101L634,-102Z" fill="rgb(161,127,189)" stroke="rgb(161,127,189)" stroke-width="1.51"></path><path d="M634,-102L707,-101L559,-106Z" fill="rgb(161,127,189)" stroke="rgb(161,127,189)" stroke-width="1.51"></path><path d="M717,500L717,428L637,426Z" fill="rgb(63,0,125)" stroke="rgb(63,0,125)" stroke-width="1.51"></path><path d="M710,352L717,428L715,276Z" fill="rgb(73,22,133)" stroke="rgb(73,22,133)" stroke-width="1.51"></path><path d="M715,276L717,428L716,203Z" fill="rgb(85,45,143)" stroke="rgb(85,45,143)" stroke-width="1.51"></path><path d="M716,203L717,428L716,47Z" fill="rgb(106,76,159)" stroke="rgb(106,76,159)" stroke-width="1.51"></path><path d="M635,502L717,500L637,426Z" fill="rgb(63,0,125)" stroke="rgb(63,0,125)" stroke-width="1.51"></path></svg>