<svg width="600" height="400" xmlns="http://www.w3.org/2000/svg"><path d="M315,189L319,117L251,178Z" fill="rgb(246,238,219)" stroke="rgb(246,238,219)" stroke-width="1.51"></path><path d="M319,117L239,143L251,178Z" fill="rgb(243,228,195)" stroke="rgb(243,228,195)" stroke-width="1.51"></path><path d="M319,117L243,55L239,143Z" fill="rgb(231,203,155)" stroke="rgb(231,203,155)" stroke-width="1.51"></path><path d="M319,117L313,36L243,55Z" fill="rgb(217,178,136)" stroke="rgb(217,178,136)" stroke-width="1.51"></path><path d="M239,143L181,208L251,178Z" fill="rgb(243,229,195)" stroke="rgb(243,229,195)" stroke-width="1.51"></path><path d="M263,294L361,268L315,189Z" fill="rgb(208,235,231)" stroke="rgb(208,235,231)" stroke-width="1.51"></path><path d="M172,100L181,208L239,143Z" fill="rgb(236,214,161)" stroke="rgb(236,214,161)" stroke-width="1.51"></path><path d="M319,117L393,67L313,36Z" fill="rgb(206,178,136)" stroke="rgb(206,178,136)" stroke-width="1.51"></path><path d="M315,189L404,103L319,117Z" fill="rgb(224,223,193)" stroke="rgb(224,223,193)" stroke-width="1.51"></path><path d="M243,55L172,100L239,143Z" fill="rgb(224,189,126)" stroke="rgb(224,189,126)" stroke-width="1.51"></path><path d="M404,103L393,67L319,117Z" fill="rgb(203,191,149)" stroke="rgb(203,191,149)" stroke-width="1.51"></path><path d="M315,189L435,214L404,103Z" fill="rgb(210,229,210)" stroke="rgb(210,229,210)" stroke-width="1.51"></path><path d="M263,294L315,189L251,178Z" fill="rgb(234,240,231)" stroke="rgb(234,240,231)" stroke-width="1.51"></path><path d="M181,208L263,294L251,178Z" fill="rgb(230,232,209)" stroke="rgb(230,232,209)" stroke-width="1.51"></path><path d="M181,208L172,258L263,294Z" fill="rgb(208,217,186)" stroke="rgb(208,217,186)" stroke-width="1.51"></path><path d="M108,254L172,258L181,208Z" fill="rgb(211,199,159)" stroke="rgb(211,199,159)" stroke-width="1.51"></path><path d="M361,268L435,214L315,189Z" fill="rgb(203,234,229)" stroke="rgb(203,234,229)" stroke-width="1.51"></path><path d="M313,36L243,-10L243,55Z" fill="rgb(187,150,110)" stroke="rgb(187,150,110)" stroke-width="1.51"></path><path d="M243,55L162,34L172,100Z" fill="rgb(200,154,85)" stroke="rgb(200,154,85)" stroke-width="1.51"></path><path d="M316,-42L243,-10L313,36Z" fill="rgb(166,139,114)" stroke="rgb(166,139,114)" stroke-width="1.51"></path><path d="M172,100L123,121L181,208Z" fill="rgb(226,193,131)" stroke="rgb(226,193,131)" stroke-width="1.51"></path><path d="M135,31L123,121L172,100Z" fill="rgb(200,144,65)" stroke="rgb(200,144,65)" stroke-width="1.51"></path><path d="M212,-16L162,34L243,55Z" fill="rgb(176,136,80)" stroke="rgb(176,136,80)" stroke-width="1.51"></path><path d="M243,-10L212,-16L243,55Z" fill="rgb(170,137,93)" stroke="rgb(170,137,93)" stroke-width="1.51"></path><path d="M419,355L435,277L361,268Z" fill="rgb(120,195,185)" stroke="rgb(120,195,185)" stroke-width="1.51"></path><path d="M361,268L435,277L435,214Z" fill="rgb(159,218,208)" stroke="rgb(159,218,208)" stroke-width="1.51"></path><path d="M494,180L483,136L435,214Z" fill="rgb(162,198,183)" stroke="rgb(162,198,183)" stroke-width="1.51"></path><path d="M435,214L483,136L404,103Z" fill="rgb(178,205,177)" stroke="rgb(178,205,177)" stroke-width="1.51"></path><path d="M404,103L506,65L393,67Z" fill="rgb(166,160,114)" stroke="rgb(166,160,114)" stroke-width="1.51"></path><path d="M131,-3L135,31L162,34Z" fill="rgb(157,108,42)" stroke="rgb(157,108,42)" stroke-width="1.51"></path><path d="M162,34L135,31L172,100Z" fill="rgb(185,133,60)" stroke="rgb(185,133,60)" stroke-width="1.51"></path><path d="M436,-32L316,-42L313,36Z" fill="rgb(149,136,111)" stroke="rgb(149,136,111)" stroke-width="1.51"></path><path d="M243,-10L192,-100L212,-16Z" fill="rgb(159,127,82)" stroke="rgb(159,127,82)" stroke-width="1.51"></path><path d="M436,-32L313,36L393,67Z" fill="rgb(157,142,109)" stroke="rgb(157,142,109)" stroke-width="1.51"></path><path d="M263,294L351,346L361,268Z" fill="rgb(160,207,200)" stroke="rgb(160,207,200)" stroke-width="1.51"></path><path d="M252,366L351,346L263,294Z" fill="rgb(148,187,178)" stroke="rgb(148,187,178)" stroke-width="1.51"></path><path d="M123,121L93,219L181,208Z" fill="rgb(226,189,142)" stroke="rgb(226,189,142)" stroke-width="1.51"></path><path d="M44,198L93,219L123,121Z" fill="rgb(209,168,121)" stroke="rgb(209,168,121)" stroke-width="1.51"></path><path d="M465,264L494,180L435,214Z" fill="rgb(152,202,196)" stroke="rgb(152,202,196)" stroke-width="1.51"></path><path d="M93,219L108,254L181,208Z" fill="rgb(212,186,144)" stroke="rgb(212,186,144)" stroke-width="1.51"></path><path d="M177,362L252,366L263,294Z" fill="rgb(147,175,150)" stroke="rgb(147,175,150)" stroke-width="1.51"></path><path d="M435,277L465,264L435,214Z" fill="rgb(140,204,195)" stroke="rgb(140,204,195)" stroke-width="1.51"></path><path d="M513,372L465,264L435,277Z" fill="rgb(75,165,156)" stroke="rgb(75,165,156)" stroke-width="1.51"></path><path d="M177,362L263,294L172,258Z" fill="rgb(167,190,158)" stroke="rgb(167,190,158)" stroke-width="1.51"></path><path d="M39,59L48,124L123,121Z" fill="rgb(179,125,53)" stroke="rgb(179,125,53)" stroke-width="1.51"></path><path d="M212,-16L131,-3L162,34Z" fill="rgb(153,113,56)" stroke="rgb(153,113,56)" stroke-width="1.51"></path><path d="M192,-100L131,-3L212,-16Z" fill="rgb(151,116,62)" stroke="rgb(151,116,62)" stroke-width="1.51"></path><path d="M558,100L506,65L483,136Z" fill="rgb(135,142,101)" stroke="rgb(135,142,101)" stroke-width="1.51"></path><path d="M483,136L506,65L404,103Z" fill="rgb(156,165,123)" stroke="rgb(156,165,123)" stroke-width="1.51"></path><path d="M506,65L436,-32L393,67Z" fill="rgb(132,128,91)" stroke="rgb(132,128,91)" stroke-width="1.51"></path><path d="M108,333L177,362L172,258Z" fill="rgb(150,160,118)" stroke="rgb(150,160,118)" stroke-width="1.51"></path><path d="M351,346L419,355L361,268Z" fill="rgb(119,186,178)" stroke="rgb(119,186,178)" stroke-width="1.51"></path><path d="M395,444L419,355L351,346Z" fill="rgb(88,147,136)" stroke="rgb(88,147,136)" stroke-width="1.51"></path><path d="M39,59L123,121L135,31Z" fill="rgb(176,114,35)" stroke="rgb(176,114,35)" stroke-width="1.51"></path><path d="M93,219L47,274L108,254Z" fill="rgb(182,162,122)" stroke="rgb(182,162,122)" stroke-width="1.51"></path><path d="M108,254L108,333L172,258Z" fill="rgb(175,171,125)" stroke="rgb(175,171,125)" stroke-width="1.51"></path><path d="M48,124L44,198L123,121Z" fill="rgb(197,153,95)" stroke="rgb(197,153,95)" stroke-width="1.51"></path><path d="M436,-32L401,-77L316,-42Z" fill="rgb(136,130,104)" stroke="rgb(136,130,104)" stroke-width="1.51"></path><path d="M316,-42L282,-111L243,-10Z" fill="rgb(166,138,111)" stroke="rgb(166,138,111)" stroke-width="1.51"></path><path d="M47,274L108,333L108,254Z" fill="rgb(156,149,106)" stroke="rgb(156,149,106)" stroke-width="1.51"></path><path d="M343,-126L282,-111L316,-42Z" fill="rgb(162,139,116)" stroke="rgb(162,139,116)" stroke-width="1.51"></path><path d="M252,366L259,415L351,346Z" fill="rgb(131,161,151)" stroke="rgb(131,161,151)" stroke-width="1.51"></path><path d="M166,408L259,415L252,366Z" fill="rgb(124,140,112)" stroke="rgb(124,140,112)" stroke-width="1.51"></path><path d="M166,408L252,366L177,362Z" fill="rgb(127,142,108)" stroke="rgb(127,142,108)" stroke-width="1.51"></path><path d="M48,124L-27,129L44,198Z" fill="rgb(173,137,90)" stroke="rgb(173,137,90)" stroke-width="1.51"></path><path d="M41,0L39,59L135,31Z" fill="rgb(138,81,13)" stroke="rgb(138,81,13)" stroke-width="1.51"></path><path d="M41,0L135,31L131,-3Z" fill="rgb(135,84,21)" stroke="rgb(135,84,21)" stroke-width="1.51"></path><path d="M282,-111L192,-100L243,-10Z" fill="rgb(164,134,95)" stroke="rgb(164,134,95)" stroke-width="1.51"></path><path d="M44,198L47,274L93,219Z" fill="rgb(185,157,121)" stroke="rgb(185,157,121)" stroke-width="1.51"></path><path d="M494,180L558,100L483,136Z" fill="rgb(144,168,137)" stroke="rgb(144,168,137)" stroke-width="1.51"></path><path d="M506,65L498,-46L436,-32Z" fill="rgb(89,98,73)" stroke="rgb(89,98,73)" stroke-width="1.51"></path><path d="M436,-32L465,-97L401,-77Z" fill="rgb(112,117,89)" stroke="rgb(112,117,89)" stroke-width="1.51"></path><path d="M567,192L558,100L494,180Z" fill="rgb(138,164,141)" stroke="rgb(138,164,141)" stroke-width="1.51"></path><path d="M567,192L494,180L465,264Z" fill="rgb(138,183,178)" stroke="rgb(138,183,178)" stroke-width="1.51"></path><path d="M558,100L553,59L506,65Z" fill="rgb(119,114,71)" stroke="rgb(119,114,71)" stroke-width="1.51"></path><path d="M545,298L567,192L465,264Z" fill="rgb(106,168,160)" stroke="rgb(106,168,160)" stroke-width="1.51"></path><path d="M401,-77L343,-126L316,-42Z" fill="rgb(149,136,112)" stroke="rgb(149,136,112)" stroke-width="1.51"></path><path d="M282,-111L343,-126L192,-100Z" fill="rgb(166,138,107)" stroke="rgb(166,138,107)" stroke-width="1.51"></path><path d="M108,333L166,408L177,362Z" fill="rgb(124,128,87)" stroke="rgb(124,128,87)" stroke-width="1.51"></path><path d="M125,447L166,408L108,333Z" fill="rgb(110,104,59)" stroke="rgb(110,104,59)" stroke-width="1.51"></path><path d="M545,-15L498,-46L506,65Z" fill="rgb(79,85,59)" stroke="rgb(79,85,59)" stroke-width="1.51"></path><path d="M401,-77L465,-97L343,-126Z" fill="rgb(127,126,99)" stroke="rgb(127,126,99)" stroke-width="1.51"></path><path d="M108,-95L41,0L131,-3Z" fill="rgb(125,77,17)" stroke="rgb(125,77,17)" stroke-width="1.51"></path><path d="M513,372L545,298L465,264Z" fill="rgb(53,145,137)" stroke="rgb(53,145,137)" stroke-width="1.51"></path><path d="M419,355L513,372L435,277Z" fill="rgb(63,153,144)" stroke="rgb(63,153,144)" stroke-width="1.51"></path><path d="M259,415L360,446L351,346Z" fill="rgb(114,146,137)" stroke="rgb(114,146,137)" stroke-width="1.51"></path><path d="M331,508L360,446L259,415Z" fill="rgb(116,146,138)" stroke="rgb(116,146,138)" stroke-width="1.51"></path><path d="M498,-46L465,-97L436,-32Z" fill="rgb(96,104,78)" stroke="rgb(96,104,78)" stroke-width="1.51"></path><path d="M192,-100L108,-95L131,-3Z" fill="rgb(142,99,40)" stroke="rgb(142,99,40)" stroke-width="1.51"></path><path d="M14,-106L108,-95L-31,-123Z" fill="rgb(98,56,7)" stroke="rgb(98,56,7)" stroke-width="1.51"></path><path d="M498,-46L550,-84L465,-97Z" fill="rgb(82,89,64)" stroke="rgb(82,89,64)" stroke-width="1.51"></path><path d="M553,59L545,-15L506,65Z" fill="rgb(99,94,58)" stroke="rgb(99,94,58)" stroke-width="1.51"></path><path d="M643,-9L545,-15L553,59Z" fill="rgb(69,67,38)" stroke="rgb(69,67,38)" stroke-width="1.51"></path><path d="M360,446L395,444L351,346Z" fill="rgb(95,141,130)" stroke="rgb(95,141,130)" stroke-width="1.51"></path><path d="M481,419L513,372L419,355Z" fill="rgb(36,117,108)" stroke="rgb(36,117,108)" stroke-width="1.51"></path><path d="M39,59L-27,129L48,124Z" fill="rgb(155,111,49)" stroke="rgb(155,111,49)" stroke-width="1.51"></path><path d="M44,198L-45,211L47,274Z" fill="rgb(161,142,115)" stroke="rgb(161,142,115)" stroke-width="1.51"></path><path d="M-41,75L-27,129L39,59Z" fill="rgb(139,93,32)" stroke="rgb(139,93,32)" stroke-width="1.51"></path><path d="M-25,300L47,371L47,274Z" fill="rgb(105,109,78)" stroke="rgb(105,109,78)" stroke-width="1.51"></path><path d="M47,274L47,371L108,333Z" fill="rgb(120,116,78)" stroke="rgb(120,116,78)" stroke-width="1.51"></path><path d="M395,444L481,419L419,355Z" fill="rgb(58,124,112)" stroke="rgb(58,124,112)" stroke-width="1.51"></path><path d="M47,371L125,447L108,333Z" fill="rgb(103,94,52)" stroke="rgb(103,94,52)" stroke-width="1.51"></path><path d="M166,408L203,515L259,415Z" fill="rgb(121,133,101)" stroke="rgb(121,133,101)" stroke-width="1.51"></path><path d="M-63,-15L-41,75L41,0Z" fill="rgb(97,56,7)" stroke="rgb(97,56,7)" stroke-width="1.51"></path><path d="M41,0L-41,75L39,59Z" fill="rgb(121,70,11)" stroke="rgb(121,70,11)" stroke-width="1.51"></path><path d="M-107,196L-45,211L-27,129Z" fill="rgb(165,137,105)" stroke="rgb(165,137,105)" stroke-width="1.51"></path><path d="M-27,129L-45,211L44,198Z" fill="rgb(166,137,106)" stroke="rgb(166,137,106)" stroke-width="1.51"></path><path d="M513,372L579,333L545,298Z" fill="rgb(21,115,107)" stroke="rgb(21,115,107)" stroke-width="1.51"></path><path d="M545,298L654,300L567,192Z" fill="rgb(82,139,128)" stroke="rgb(82,139,128)" stroke-width="1.51"></path><path d="M558,437L579,333L513,372Z" fill="rgb(1,87,78)" stroke="rgb(1,87,78)" stroke-width="1.51"></path><path d="M558,100L655,68L553,59Z" fill="rgb(106,97,52)" stroke="rgb(106,97,52)" stroke-width="1.51"></path><path d="M567,192L632,141L558,100Z" fill="rgb(125,141,111)" stroke="rgb(125,141,111)" stroke-width="1.51"></path><path d="M654,175L632,141L567,192Z" fill="rgb(124,143,123)" stroke="rgb(124,143,123)" stroke-width="1.51"></path><path d="M-45,211L-25,300L47,274Z" fill="rgb(132,129,102)" stroke="rgb(132,129,102)" stroke-width="1.51"></path><path d="M545,-15L550,-84L498,-46Z" fill="rgb(73,79,54)" stroke="rgb(73,79,54)" stroke-width="1.51"></path><path d="M465,-97L637,-120L343,-126Z" fill="rgb(89,98,72)" stroke="rgb(89,98,72)" stroke-width="1.51"></path><path d="M643,-9L550,-84L545,-15Z" fill="rgb(61,62,36)" stroke="rgb(61,62,36)" stroke-width="1.51"></path><path d="M255,525L331,508L259,415Z" fill="rgb(123,146,133)" stroke="rgb(123,146,133)" stroke-width="1.51"></path><path d="M360,446L388,504L395,444Z" fill="rgb(88,138,127)" stroke="rgb(88,138,127)" stroke-width="1.51"></path><path d="M395,444L474,509L481,419Z" fill="rgb(46,116,105)" stroke="rgb(46,116,105)" stroke-width="1.51"></path><path d="M-24,424L37,411L47,371Z" fill="rgb(66,61,30)" stroke="rgb(66,61,30)" stroke-width="1.51"></path><path d="M47,371L37,411L125,447Z" fill="rgb(87,76,36)" stroke="rgb(87,76,36)" stroke-width="1.51"></path><path d="M632,141L655,68L558,100Z" fill="rgb(113,112,70)" stroke="rgb(113,112,70)" stroke-width="1.51"></path><path d="M654,300L654,175L567,192Z" fill="rgb(110,145,136)" stroke="rgb(110,145,136)" stroke-width="1.51"></path><path d="M331,508L388,504L360,446Z" fill="rgb(100,142,133)" stroke="rgb(100,142,133)" stroke-width="1.51"></path><path d="M481,419L558,437L513,372Z" fill="rgb(11,89,79)" stroke="rgb(11,89,79)" stroke-width="1.51"></path><path d="M107,523L203,515L125,447Z" fill="rgb(110,107,64)" stroke="rgb(110,107,64)" stroke-width="1.51"></path><path d="M125,447L203,515L166,408Z" fill="rgb(114,117,76)" stroke="rgb(114,117,76)" stroke-width="1.51"></path><path d="M203,515L255,525L259,415Z" fill="rgb(124,141,117)" stroke="rgb(124,141,117)" stroke-width="1.51"></path><path d="M331,508L255,525L388,504Z" fill="rgb(113,146,137)" stroke="rgb(113,146,137)" stroke-width="1.51"></path><path d="M700,63L655,68L712,144Z" fill="rgb(109,104,60)" stroke="rgb(109,104,60)" stroke-width="1.51"></path><path d="M108,-95L14,-106L41,0Z" fill="rgb(108,63,8)" stroke="rgb(108,63,8)" stroke-width="1.51"></path><path d="M-31,-123L108,-95L192,-100Z" fill="rgb(123,75,16)" stroke="rgb(123,75,16)" stroke-width="1.51"></path><path d="M-89,295L-47,348L-25,300Z" fill="rgb(93,102,76)" stroke="rgb(93,102,76)" stroke-width="1.51"></path><path d="M-25,300L-47,348L47,371Z" fill="rgb(80,87,61)" stroke="rgb(80,87,61)" stroke-width="1.51"></path><path d="M-41,75L-103,124L-27,129Z" fill="rgb(148,109,53)" stroke="rgb(148,109,53)" stroke-width="1.51"></path><path d="M-45,211L-89,295L-25,300Z" fill="rgb(127,126,99)" stroke="rgb(127,126,99)" stroke-width="1.51"></path><path d="M14,-106L-63,-15L41,0Z" fill="rgb(84,48,5)" stroke="rgb(84,48,5)" stroke-width="1.51"></path><path d="M655,68L643,-9L553,59Z" fill="rgb(83,72,34)" stroke="rgb(83,72,34)" stroke-width="1.51"></path><path d="M-125,71L-103,124L-41,75Z" fill="rgb(140,94,35)" stroke="rgb(140,94,35)" stroke-width="1.51"></path><path d="M579,333L654,300L545,298Z" fill="rgb(37,113,102)" stroke="rgb(37,113,102)" stroke-width="1.51"></path><path d="M474,509L558,437L481,419Z" fill="rgb(16,94,84)" stroke="rgb(16,94,84)" stroke-width="1.51"></path><path d="M660,370L654,300L579,333Z" fill="rgb(17,95,85)" stroke="rgb(17,95,85)" stroke-width="1.51"></path><path d="M654,175L712,144L632,141Z" fill="rgb(123,139,112)" stroke="rgb(123,139,112)" stroke-width="1.51"></path><path d="M-103,124L-107,196L-27,129Z" fill="rgb(162,130,87)" stroke="rgb(162,130,87)" stroke-width="1.51"></path><path d="M654,300L687,186L654,175Z" fill="rgb(111,145,136)" stroke="rgb(111,145,136)" stroke-width="1.51"></path><path d="M655,68L700,63L643,-9Z" fill="rgb(84,73,34)" stroke="rgb(84,73,34)" stroke-width="1.51"></path><path d="M388,504L474,509L395,444Z" fill="rgb(65,129,117)" stroke="rgb(65,129,117)" stroke-width="1.51"></path><path d="M255,525L474,509L388,504Z" fill="rgb(93,140,130)" stroke="rgb(93,140,130)" stroke-width="1.51"></path><path d="M-107,196L-89,295L-45,211Z" fill="rgb(150,136,112)" stroke="rgb(150,136,112)" stroke-width="1.51"></path><path d="M26,486L125,447L37,411Z" fill="rgb(85,73,35)" stroke="rgb(85,73,35)" stroke-width="1.51"></path><path d="M26,486L107,523L125,447Z" fill="rgb(93,82,41)" stroke="rgb(93,82,41)" stroke-width="1.51"></path><path d="M203,515L107,523L255,525Z" fill="rgb(117,127,90)" stroke="rgb(117,127,90)" stroke-width="1.51"></path><path d="M-47,348L-24,424L47,371Z" fill="rgb(63,65,39)" stroke="rgb(63,65,39)" stroke-width="1.51"></path><path d="M-91,407L-24,424L-47,348Z" fill="rgb(59,59,33)" stroke="rgb(59,59,33)" stroke-width="1.51"></path><path d="M712,144L655,68L632,141Z" fill="rgb(116,123,83)" stroke="rgb(116,123,83)" stroke-width="1.51"></path><path d="M14,-106L-31,-123L-63,-15Z" fill="rgb(84,48,5)" stroke="rgb(84,48,5)" stroke-width="1.51"></path><path d="M343,-126L-31,-123L192,-100Z" fill="rgb(149,111,55)" stroke="rgb(149,111,55)" stroke-width="1.51"></path><path d="M-103,124L-125,71L-107,196Z" fill="rgb(155,122,71)" stroke="rgb(155,122,71)" stroke-width="1.51"></path><path d="M-63,-15L-125,71L-41,75Z" fill="rgb(114,66,10)" stroke="rgb(114,66,10)" stroke-width="1.51"></path><path d="M-120,-33L-125,71L-63,-15Z" fill="rgb(89,51,6)" stroke="rgb(89,51,6)" stroke-width="1.51"></path><path d="M687,186L712,144L654,175Z" fill="rgb(124,143,122)" stroke="rgb(124,143,122)" stroke-width="1.51"></path><path d="M715,296L712,144L687,186Z" fill="rgb(118,147,139)" stroke="rgb(118,147,139)" stroke-width="1.51"></path><path d="M-24,424L26,486L37,411Z" fill="rgb(63,59,30)" stroke="rgb(63,59,30)" stroke-width="1.51"></path><path d="M654,300L715,296L687,186Z" fill="rgb(82,135,124)" stroke="rgb(82,135,124)" stroke-width="1.51"></path><path d="M644,410L660,370L579,333Z" fill="rgb(1,75,64)" stroke="rgb(1,75,64)" stroke-width="1.51"></path><path d="M644,410L579,333L558,437Z" fill="rgb(0,65,54)" stroke="rgb(0,65,54)" stroke-width="1.51"></path><path d="M614,478L644,410L558,437Z" fill="rgb(0,60,48)" stroke="rgb(0,60,48)" stroke-width="1.51"></path><path d="M730,-36L637,-120L643,-9Z" fill="rgb(57,55,29)" stroke="rgb(57,55,29)" stroke-width="1.51"></path><path d="M643,-9L637,-120L550,-84Z" fill="rgb(57,55,29)" stroke="rgb(57,55,29)" stroke-width="1.51"></path><path d="M550,-84L637,-120L465,-97Z" fill="rgb(68,72,46)" stroke="rgb(68,72,46)" stroke-width="1.51"></path><path d="M474,509L561,506L558,437Z" fill="rgb(4,84,74)" stroke="rgb(4,84,74)" stroke-width="1.51"></path><path d="M255,525L561,506L474,509Z" fill="rgb(59,125,112)" stroke="rgb(59,125,112)" stroke-width="1.51"></path><path d="M-31,-123L-120,-33L-63,-15Z" fill="rgb(84,48,5)" stroke="rgb(84,48,5)" stroke-width="1.51"></path><path d="M727,333L654,300L660,370Z" fill="rgb(17,95,85)" stroke="rgb(17,95,85)" stroke-width="1.51"></path><path d="M727,333L715,296L654,300Z" fill="rgb(37,110,99)" stroke="rgb(37,110,99)" stroke-width="1.51"></path><path d="M-24,424L-49,483L26,486Z" fill="rgb(57,55,29)" stroke="rgb(57,55,29)" stroke-width="1.51"></path><path d="M-126,372L-91,407L-47,348Z" fill="rgb(65,68,42)" stroke="rgb(65,68,42)" stroke-width="1.51"></path><path d="M-126,372L-47,348L-89,295Z" fill="rgb(81,88,62)" stroke="rgb(81,88,62)" stroke-width="1.51"></path><path d="M-126,372L-89,295L-107,196Z" fill="rgb(113,118,90)" stroke="rgb(113,118,90)" stroke-width="1.51"></path><path d="M687,440L727,333L660,370Z" fill="rgb(0,69,58)" stroke="rgb(0,69,58)" stroke-width="1.51"></path><path d="M561,506L614,478L558,437Z" fill="rgb(0,67,56)" stroke="rgb(0,67,56)" stroke-width="1.51"></path><path d="M-125,71L-126,372L-107,196Z" fill="rgb(160,138,116)" stroke="rgb(160,138,116)" stroke-width="1.51"></path><path d="M-91,407L-49,483L-24,424Z" fill="rgb(57,55,29)" stroke="rgb(57,55,29)" stroke-width="1.51"></path><path d="M26,486L-49,483L107,523Z" fill="rgb(69,63,31)" stroke="rgb(69,63,31)" stroke-width="1.51"></path><path d="M-98,483L-49,483L-91,407Z" fill="rgb(57,55,29)" stroke="rgb(57,55,29)" stroke-width="1.51"></path><path d="M687,440L660,370L644,410Z" fill="rgb(0,60,48)" stroke="rgb(0,60,48)" stroke-width="1.51"></path><path d="M715,296L727,333L712,144Z" fill="rgb(85,136,125)" stroke="rgb(85,136,125)" stroke-width="1.51"></path><path d="M727,333L730,-36L712,144Z" fill="rgb(122,136,107)" stroke="rgb(122,136,107)" stroke-width="1.51"></path><path d="M712,144L730,-36L700,63Z" fill="rgb(93,82,41)" stroke="rgb(93,82,41)" stroke-width="1.51"></path><path d="M700,63L730,-36L643,-9Z" fill="rgb(61,58,29)" stroke="rgb(61,58,29)" stroke-width="1.51"></path><path d="M711,484L687,440L614,478Z" fill="rgb(0,60,48)" stroke="rgb(0,60,48)" stroke-width="1.51"></path><path d="M614,478L687,440L644,410Z" fill="rgb(0,60,48)" stroke="rgb(0,60,48)" stroke-width="1.51"></path><path d="M-31,-123L-130,-118L-120,-33Z" fill="rgb(84,48,5)" stroke="rgb(84,48,5)" stroke-width="1.51"></path><path d="M-120,-33L-130,-118L-125,71Z" fill="rgb(84,48,5)" stroke="rgb(84,48,5)" stroke-width="1.51"></path><path d="M-125,71L-130,-118L-126,372Z" fill="rgb(148,108,52)" stroke="rgb(148,108,52)" stroke-width="1.51"></path><path d="M730,-36L711,-123L637,-120Z" fill="rgb(57,55,29)" stroke="rgb(57,55,29)" stroke-width="1.51"></path><path d="M637,-120L711,-123L343,-126Z" fill="rgb(65,68,42)" stroke="rgb(65,68,42)" stroke-width="1.51"></path><path d="M-49,483L-98,483L107,523Z" fill="rgb(57,55,29)" stroke="rgb(57,55,29)" stroke-width="1.51"></path><path d="M-126,372L-98,483L-91,407Z" fill="rgb(57,55,29)" stroke="rgb(57,55,29)" stroke-width="1.51"></path><path d="M687,440L711,484L727,333Z" fill="rgb(0,60,48)" stroke="rgb(0,60,48)" stroke-width="1.51"></path><path d="M561,506L711,484L614,478Z" fill="rgb(0,60,48)" stroke="rgb(0,60,48)" stroke-width="1.51"></path></svg>