<svg width="600" height="400" xmlns="http://www.w3.org/2000/svg"><path d="M261,200L188,273L261,273Z" fill="rgb(238,229,193)" stroke="rgb(238,229,193)" stroke-width="1.51"></path><path d="M261,200L187,199L188,273Z" fill="rgb(249,224,173)" stroke="rgb(249,224,173)" stroke-width="1.51"></path><path d="M261,200L262,125L187,199Z" fill="rgb(255,228,151)" stroke="rgb(255,228,151)" stroke-width="1.51"></path><path d="M338,200L262,125L261,200Z" fill="rgb(255,242,171)" stroke="rgb(255,242,171)" stroke-width="1.51"></path><path d="M188,273L262,348L261,273Z" fill="rgb(208,209,183)" stroke="rgb(208,209,183)" stroke-width="1.51"></path><path d="M261,273L336,274L261,200Z" fill="rgb(236,242,213)" stroke="rgb(236,242,213)" stroke-width="1.51"></path><path d="M262,348L336,274L261,273Z" fill="rgb(205,222,202)" stroke="rgb(205,222,202)" stroke-width="1.51"></path><path d="M111,201L113,275L188,273Z" fill="rgb(241,184,158)" stroke="rgb(241,184,158)" stroke-width="1.51"></path><path d="M188,273L187,349L262,348Z" fill="rgb(195,184,166)" stroke="rgb(195,184,166)" stroke-width="1.51"></path><path d="M113,275L187,349L188,273Z" fill="rgb(212,177,156)" stroke="rgb(212,177,156)" stroke-width="1.51"></path><path d="M187,199L111,201L188,273Z" fill="rgb(251,202,156)" stroke="rgb(251,202,156)" stroke-width="1.51"></path><path d="M111,125L111,201L187,199Z" fill="rgb(255,183,117)" stroke="rgb(255,183,117)" stroke-width="1.51"></path><path d="M336,274L338,200L261,200Z" fill="rgb(244,250,214)" stroke="rgb(244,250,214)" stroke-width="1.51"></path><path d="M262,125L186,123L187,199Z" fill="rgb(255,206,126)" stroke="rgb(255,206,126)" stroke-width="1.51"></path><path d="M186,123L111,125L187,199Z" fill="rgb(254,183,109)" stroke="rgb(254,183,109)" stroke-width="1.51"></path><path d="M338,200L337,123L262,125Z" fill="rgb(253,231,167)" stroke="rgb(253,231,167)" stroke-width="1.51"></path><path d="M262,125L188,50L186,123Z" fill="rgb(252,172,101)" stroke="rgb(252,172,101)" stroke-width="1.51"></path><path d="M113,275L111,350L187,349Z" fill="rgb(198,149,141)" stroke="rgb(198,149,141)" stroke-width="1.51"></path><path d="M38,348L111,350L113,275Z" fill="rgb(192,129,127)" stroke="rgb(192,129,127)" stroke-width="1.51"></path><path d="M411,274L411,199L338,200Z" fill="rgb(220,239,234)" stroke="rgb(220,239,234)" stroke-width="1.51"></path><path d="M262,348L338,350L336,274Z" fill="rgb(186,209,206)" stroke="rgb(186,209,206)" stroke-width="1.51"></path><path d="M262,424L338,350L262,348Z" fill="rgb(169,168,178)" stroke="rgb(169,168,178)" stroke-width="1.51"></path><path d="M262,424L262,348L187,349Z" fill="rgb(171,155,159)" stroke="rgb(171,155,159)" stroke-width="1.51"></path><path d="M111,201L38,275L113,275Z" fill="rgb(235,162,144)" stroke="rgb(235,162,144)" stroke-width="1.51"></path><path d="M111,125L38,200L111,201Z" fill="rgb(247,161,104)" stroke="rgb(247,161,104)" stroke-width="1.51"></path><path d="M186,123L113,49L111,125Z" fill="rgb(248,135,78)" stroke="rgb(248,135,78)" stroke-width="1.51"></path><path d="M262,49L188,50L262,125Z" fill="rgb(251,164,101)" stroke="rgb(251,164,101)" stroke-width="1.51"></path><path d="M411,274L338,200L336,274Z" fill="rgb(218,239,246)" stroke="rgb(218,239,246)" stroke-width="1.51"></path><path d="M338,200L411,199L337,123Z" fill="rgb(241,238,204)" stroke="rgb(241,238,204)" stroke-width="1.51"></path><path d="M338,350L411,274L336,274Z" fill="rgb(185,218,234)" stroke="rgb(185,218,234)" stroke-width="1.51"></path><path d="M38,200L38,275L111,201Z" fill="rgb(239,157,129)" stroke="rgb(239,157,129)" stroke-width="1.51"></path><path d="M337,123L262,49L262,125Z" fill="rgb(255,195,130)" stroke="rgb(255,195,130)" stroke-width="1.51"></path><path d="M186,425L262,424L187,349Z" fill="rgb(166,123,141)" stroke="rgb(166,123,141)" stroke-width="1.51"></path><path d="M111,350L186,425L187,349Z" fill="rgb(175,123,132)" stroke="rgb(175,123,132)" stroke-width="1.51"></path><path d="M111,350L111,424L186,425Z" fill="rgb(165,87,116)" stroke="rgb(165,87,116)" stroke-width="1.51"></path><path d="M38,275L38,348L113,275Z" fill="rgb(202,133,127)" stroke="rgb(202,133,127)" stroke-width="1.51"></path><path d="M111,125L37,124L38,200Z" fill="rgb(239,138,84)" stroke="rgb(239,138,84)" stroke-width="1.51"></path><path d="M188,50L113,49L186,123Z" fill="rgb(246,129,75)" stroke="rgb(246,129,75)" stroke-width="1.51"></path><path d="M188,-25L113,49L188,50Z" fill="rgb(225,102,62)" stroke="rgb(225,102,62)" stroke-width="1.51"></path><path d="M338,350L412,348L411,274Z" fill="rgb(158,198,224)" stroke="rgb(158,198,224)" stroke-width="1.51"></path><path d="M486,200L413,124L411,199Z" fill="rgb(211,220,195)" stroke="rgb(211,220,195)" stroke-width="1.51"></path><path d="M411,425L412,348L338,350Z" fill="rgb(136,160,205)" stroke="rgb(136,160,205)" stroke-width="1.51"></path><path d="M413,124L338,50L337,123Z" fill="rgb(246,192,163)" stroke="rgb(246,192,163)" stroke-width="1.51"></path><path d="M337,123L338,50L262,49Z" fill="rgb(253,179,131)" stroke="rgb(253,179,131)" stroke-width="1.51"></path><path d="M113,49L37,124L111,125Z" fill="rgb(239,112,66)" stroke="rgb(239,112,66)" stroke-width="1.51"></path><path d="M38,200L-38,201L38,275Z" fill="rgb(218,143,126)" stroke="rgb(218,143,126)" stroke-width="1.51"></path><path d="M38,275L-38,275L38,348Z" fill="rgb(181,119,124)" stroke="rgb(181,119,124)" stroke-width="1.51"></path><path d="M37,424L111,424L111,350Z" fill="rgb(158,65,104)" stroke="rgb(158,65,104)" stroke-width="1.51"></path><path d="M262,424L337,425L338,350Z" fill="rgb(159,148,178)" stroke="rgb(159,148,178)" stroke-width="1.51"></path><path d="M263,501L337,425L262,424Z" fill="rgb(163,145,168)" stroke="rgb(163,145,168)" stroke-width="1.51"></path><path d="M411,199L413,124L337,123Z" fill="rgb(234,220,186)" stroke="rgb(234,220,186)" stroke-width="1.51"></path><path d="M486,200L411,199L411,274Z" fill="rgb(199,226,227)" stroke="rgb(199,226,227)" stroke-width="1.51"></path><path d="M263,-25L188,-25L262,49Z" fill="rgb(214,127,87)" stroke="rgb(214,127,87)" stroke-width="1.51"></path><path d="M262,49L188,-25L188,50Z" fill="rgb(229,126,78)" stroke="rgb(229,126,78)" stroke-width="1.51"></path><path d="M487,275L486,200L411,274Z" fill="rgb(173,211,230)" stroke="rgb(173,211,230)" stroke-width="1.51"></path><path d="M338,50L263,-25L262,49Z" fill="rgb(234,151,106)" stroke="rgb(234,151,106)" stroke-width="1.51"></path><path d="M338,-25L263,-25L338,50Z" fill="rgb(216,142,115)" stroke="rgb(216,142,115)" stroke-width="1.51"></path><path d="M-37,126L-38,201L38,200Z" fill="rgb(216,134,96)" stroke="rgb(216,134,96)" stroke-width="1.51"></path><path d="M38,348L37,424L111,350Z" fill="rgb(163,79,105)" stroke="rgb(163,79,105)" stroke-width="1.51"></path><path d="M111,500L187,500L186,425Z" fill="rgb(166,100,123)" stroke="rgb(166,100,123)" stroke-width="1.51"></path><path d="M-39,349L37,424L38,348Z" fill="rgb(143,67,102)" stroke="rgb(143,67,102)" stroke-width="1.51"></path><path d="M412,348L487,275L411,274Z" fill="rgb(151,200,224)" stroke="rgb(151,200,224)" stroke-width="1.51"></path><path d="M337,425L411,425L338,350Z" fill="rgb(141,143,198)" stroke="rgb(141,143,198)" stroke-width="1.51"></path><path d="M413,124L413,50L338,50Z" fill="rgb(235,169,150)" stroke="rgb(235,169,150)" stroke-width="1.51"></path><path d="M487,50L413,50L413,124Z" fill="rgb(215,157,143)" stroke="rgb(215,157,143)" stroke-width="1.51"></path><path d="M-38,201L-38,275L38,275Z" fill="rgb(203,135,134)" stroke="rgb(203,135,134)" stroke-width="1.51"></path><path d="M486,349L487,275L412,348Z" fill="rgb(123,176,211)" stroke="rgb(123,176,211)" stroke-width="1.51"></path><path d="M37,124L-37,126L38,200Z" fill="rgb(218,125,82)" stroke="rgb(218,125,82)" stroke-width="1.51"></path><path d="M113,49L36,49L37,124Z" fill="rgb(228,78,51)" stroke="rgb(228,78,51)" stroke-width="1.51"></path><path d="M111,-24L36,49L113,49Z" fill="rgb(212,58,45)" stroke="rgb(212,58,45)" stroke-width="1.51"></path><path d="M186,425L187,500L262,424Z" fill="rgb(165,122,141)" stroke="rgb(165,122,141)" stroke-width="1.51"></path><path d="M337,425L411,500L411,425Z" fill="rgb(131,139,195)" stroke="rgb(131,139,195)" stroke-width="1.51"></path><path d="M111,500L186,425L111,424Z" fill="rgb(165,87,116)" stroke="rgb(165,87,116)" stroke-width="1.51"></path><path d="M187,500L263,501L262,424Z" fill="rgb(164,133,150)" stroke="rgb(164,133,150)" stroke-width="1.51"></path><path d="M36,49L-37,126L37,124Z" fill="rgb(213,88,59)" stroke="rgb(213,88,59)" stroke-width="1.51"></path><path d="M188,-25L111,-24L113,49Z" fill="rgb(206,77,56)" stroke="rgb(206,77,56)" stroke-width="1.51"></path><path d="M486,424L486,349L412,348Z" fill="rgb(101,139,193)" stroke="rgb(101,139,193)" stroke-width="1.51"></path><path d="M413,50L338,-25L338,50Z" fill="rgb(224,147,137)" stroke="rgb(224,147,137)" stroke-width="1.51"></path><path d="M562,201L488,125L486,200Z" fill="rgb(183,188,180)" stroke="rgb(183,188,180)" stroke-width="1.51"></path><path d="M486,200L488,125L413,124Z" fill="rgb(203,198,175)" stroke="rgb(203,198,175)" stroke-width="1.51"></path><path d="M-38,275L-39,349L38,348Z" fill="rgb(161,103,117)" stroke="rgb(161,103,117)" stroke-width="1.51"></path><path d="M-112,276L-39,349L-38,275Z" fill="rgb(175,116,124)" stroke="rgb(175,116,124)" stroke-width="1.51"></path><path d="M37,424L111,500L111,424Z" fill="rgb(158,64,103)" stroke="rgb(158,64,103)" stroke-width="1.51"></path><path d="M187,500L111,500L263,501Z" fill="rgb(166,112,131)" stroke="rgb(166,112,131)" stroke-width="1.51"></path><path d="M36,500L111,500L37,424Z" fill="rgb(153,53,97)" stroke="rgb(153,53,97)" stroke-width="1.51"></path><path d="M263,501L336,501L337,425Z" fill="rgb(159,147,178)" stroke="rgb(159,147,178)" stroke-width="1.51"></path><path d="M111,-24L38,-25L36,49Z" fill="rgb(190,30,39)" stroke="rgb(190,30,39)" stroke-width="1.51"></path><path d="M36,49L-39,49L-37,126Z" fill="rgb(202,62,50)" stroke="rgb(202,62,50)" stroke-width="1.51"></path><path d="M111,-99L38,-25L111,-24Z" fill="rgb(196,47,45)" stroke="rgb(196,47,45)" stroke-width="1.51"></path><path d="M411,425L486,424L412,348Z" fill="rgb(108,128,188)" stroke="rgb(108,128,188)" stroke-width="1.51"></path><path d="M563,274L562,201L487,275Z" fill="rgb(145,175,213)" stroke="rgb(145,175,213)" stroke-width="1.51"></path><path d="M486,499L486,424L411,425Z" fill="rgb(96,118,183)" stroke="rgb(96,118,183)" stroke-width="1.51"></path><path d="M488,125L487,50L413,124Z" fill="rgb(207,165,149)" stroke="rgb(207,165,149)" stroke-width="1.51"></path><path d="M413,50L412,-26L338,-25Z" fill="rgb(198,133,132)" stroke="rgb(198,133,132)" stroke-width="1.51"></path><path d="M-39,349L-37,425L37,424Z" fill="rgb(128,38,93)" stroke="rgb(128,38,93)" stroke-width="1.51"></path><path d="M337,-99L261,-99L263,-25Z" fill="rgb(217,140,104)" stroke="rgb(217,140,104)" stroke-width="1.51"></path><path d="M263,-25L261,-99L188,-25Z" fill="rgb(214,127,87)" stroke="rgb(214,127,87)" stroke-width="1.51"></path><path d="M188,-25L111,-99L111,-24Z" fill="rgb(206,77,56)" stroke="rgb(206,77,56)" stroke-width="1.51"></path><path d="M486,-25L412,-26L413,50Z" fill="rgb(180,121,126)" stroke="rgb(180,121,126)" stroke-width="1.51"></path><path d="M336,501L411,500L337,425Z" fill="rgb(142,143,199)" stroke="rgb(142,143,199)" stroke-width="1.51"></path><path d="M-37,-26L-39,49L36,49Z" fill="rgb(180,19,39)" stroke="rgb(180,19,39)" stroke-width="1.51"></path><path d="M-113,200L-112,276L-38,201Z" fill="rgb(212,140,126)" stroke="rgb(212,140,126)" stroke-width="1.51"></path><path d="M-38,201L-112,276L-38,275Z" fill="rgb(203,135,134)" stroke="rgb(203,135,134)" stroke-width="1.51"></path><path d="M-37,425L36,500L37,424Z" fill="rgb(133,40,93)" stroke="rgb(133,40,93)" stroke-width="1.51"></path><path d="M111,500L-113,501L263,501Z" fill="rgb(158,64,103)" stroke="rgb(158,64,103)" stroke-width="1.51"></path><path d="M337,-99L263,-25L338,-25Z" fill="rgb(216,142,115)" stroke="rgb(216,142,115)" stroke-width="1.51"></path><path d="M-39,349L-114,426L-37,425Z" fill="rgb(128,38,93)" stroke="rgb(128,38,93)" stroke-width="1.51"></path><path d="M-113,200L-38,201L-37,126Z" fill="rgb(216,134,96)" stroke="rgb(216,134,96)" stroke-width="1.51"></path><path d="M487,275L562,201L486,200Z" fill="rgb(169,193,211)" stroke="rgb(169,193,211)" stroke-width="1.51"></path><path d="M488,125L561,125L487,50Z" fill="rgb(189,144,140)" stroke="rgb(189,144,140)" stroke-width="1.51"></path><path d="M563,274L487,275L561,349Z" fill="rgb(110,157,201)" stroke="rgb(110,157,201)" stroke-width="1.51"></path><path d="M-114,124L-113,200L-37,126Z" fill="rgb(213,122,82)" stroke="rgb(213,122,82)" stroke-width="1.51"></path><path d="M261,-99L188,-102L188,-25Z" fill="rgb(212,117,77)" stroke="rgb(212,117,77)" stroke-width="1.51"></path><path d="M561,349L487,275L486,349Z" fill="rgb(102,155,200)" stroke="rgb(102,155,200)" stroke-width="1.51"></path><path d="M261,-99L337,-99L188,-102Z" fill="rgb(216,134,95)" stroke="rgb(216,134,95)" stroke-width="1.51"></path><path d="M412,-26L337,-99L338,-25Z" fill="rgb(208,137,135)" stroke="rgb(208,137,135)" stroke-width="1.51"></path><path d="M188,-102L111,-99L188,-25Z" fill="rgb(209,92,62)" stroke="rgb(209,92,62)" stroke-width="1.51"></path><path d="M38,-25L-37,-26L36,49Z" fill="rgb(170,7,38)" stroke="rgb(170,7,38)" stroke-width="1.51"></path><path d="M-112,276L-112,348L-39,349Z" fill="rgb(161,103,117)" stroke="rgb(161,103,117)" stroke-width="1.51"></path><path d="M-37,425L-38,500L36,500Z" fill="rgb(128,38,93)" stroke="rgb(128,38,93)" stroke-width="1.51"></path><path d="M-114,426L-112,348L-112,276Z" fill="rgb(148,85,109)" stroke="rgb(148,85,109)" stroke-width="1.51"></path><path d="M561,49L561,125L637,124Z" fill="rgb(169,102,123)" stroke="rgb(169,102,123)" stroke-width="1.51"></path><path d="M562,201L561,125L488,125Z" fill="rgb(176,164,160)" stroke="rgb(176,164,160)" stroke-width="1.51"></path><path d="M486,424L561,349L486,349Z" fill="rgb(79,119,182)" stroke="rgb(79,119,182)" stroke-width="1.51"></path><path d="M561,425L561,349L486,424Z" fill="rgb(63,88,166)" stroke="rgb(63,88,166)" stroke-width="1.51"></path><path d="M-113,200L-114,426L-112,276Z" fill="rgb(175,116,124)" stroke="rgb(175,116,124)" stroke-width="1.51"></path><path d="M-39,49L-114,124L-37,126Z" fill="rgb(207,85,59)" stroke="rgb(207,85,59)" stroke-width="1.51"></path><path d="M561,49L486,-25L487,50Z" fill="rgb(169,100,114)" stroke="rgb(169,100,114)" stroke-width="1.51"></path><path d="M487,50L486,-25L413,50Z" fill="rgb(187,122,123)" stroke="rgb(187,122,123)" stroke-width="1.51"></path><path d="M412,-26L412,-102L337,-99Z" fill="rgb(199,133,132)" stroke="rgb(199,133,132)" stroke-width="1.51"></path><path d="M-39,49L-113,49L-114,124Z" fill="rgb(202,61,50)" stroke="rgb(202,61,50)" stroke-width="1.51"></path><path d="M37,-100L-37,-26L38,-25Z" fill="rgb(170,7,38)" stroke="rgb(170,7,38)" stroke-width="1.51"></path><path d="M411,500L486,499L411,425Z" fill="rgb(108,126,188)" stroke="rgb(108,126,188)" stroke-width="1.51"></path><path d="M-114,426L-38,500L-37,425Z" fill="rgb(128,38,93)" stroke="rgb(128,38,93)" stroke-width="1.51"></path><path d="M36,500L-113,501L111,500Z" fill="rgb(132,40,93)" stroke="rgb(132,40,93)" stroke-width="1.51"></path><path d="M188,-102L37,-100L111,-99Z" fill="rgb(202,62,50)" stroke="rgb(202,62,50)" stroke-width="1.51"></path><path d="M111,-99L37,-100L38,-25Z" fill="rgb(190,30,39)" stroke="rgb(190,30,39)" stroke-width="1.51"></path><path d="M561,125L561,49L487,50Z" fill="rgb(178,114,124)" stroke="rgb(178,114,124)" stroke-width="1.51"></path><path d="M636,198L561,125L562,201Z" fill="rgb(166,146,162)" stroke="rgb(166,146,162)" stroke-width="1.51"></path><path d="M486,499L561,425L486,424Z" fill="rgb(74,98,172)" stroke="rgb(74,98,172)" stroke-width="1.51"></path><path d="M636,276L636,198L563,274Z" fill="rgb(136,141,197)" stroke="rgb(136,141,197)" stroke-width="1.51"></path><path d="M-114,-26L-39,49L-37,-26Z" fill="rgb(165,0,38)" stroke="rgb(165,0,38)" stroke-width="1.51"></path><path d="M-114,-26L-113,49L-39,49Z" fill="rgb(180,19,39)" stroke="rgb(180,19,39)" stroke-width="1.51"></path><path d="M487,-100L412,-26L486,-25Z" fill="rgb(170,112,121)" stroke="rgb(170,112,121)" stroke-width="1.51"></path><path d="M487,-100L412,-102L412,-26Z" fill="rgb(180,121,126)" stroke="rgb(180,121,126)" stroke-width="1.51"></path><path d="M337,-99L412,-102L188,-102Z" fill="rgb(216,142,115)" stroke="rgb(216,142,115)" stroke-width="1.51"></path><path d="M-112,348L-114,426L-39,349Z" fill="rgb(137,64,101)" stroke="rgb(137,64,101)" stroke-width="1.51"></path><path d="M-114,124L-114,426L-113,200Z" fill="rgb(203,135,134)" stroke="rgb(203,135,134)" stroke-width="1.51"></path><path d="M563,274L636,198L562,201Z" fill="rgb(153,153,192)" stroke="rgb(153,153,192)" stroke-width="1.51"></path><path d="M636,276L563,274L561,349Z" fill="rgb(103,129,189)" stroke="rgb(103,129,189)" stroke-width="1.51"></path><path d="M637,350L636,276L561,349Z" fill="rgb(84,109,177)" stroke="rgb(84,109,177)" stroke-width="1.51"></path><path d="M561,425L637,350L561,349Z" fill="rgb(60,81,163)" stroke="rgb(60,81,163)" stroke-width="1.51"></path><path d="M486,499L561,498L561,425Z" fill="rgb(63,87,166)" stroke="rgb(63,87,166)" stroke-width="1.51"></path><path d="M37,-100L-39,-99L-37,-26Z" fill="rgb(165,0,38)" stroke="rgb(165,0,38)" stroke-width="1.51"></path><path d="M-112,-101L-39,-99L37,-100Z" fill="rgb(165,0,38)" stroke="rgb(165,0,38)" stroke-width="1.51"></path><path d="M562,-25L486,-25L561,49Z" fill="rgb(143,79,107)" stroke="rgb(143,79,107)" stroke-width="1.51"></path><path d="M562,-25L487,-100L486,-25Z" fill="rgb(152,91,112)" stroke="rgb(152,91,112)" stroke-width="1.51"></path><path d="M638,49L562,-25L561,49Z" fill="rgb(146,56,98)" stroke="rgb(146,56,98)" stroke-width="1.51"></path><path d="M713,198L637,124L636,198Z" fill="rgb(164,138,159)" stroke="rgb(164,138,159)" stroke-width="1.51"></path><path d="M636,198L637,124L561,125Z" fill="rgb(165,127,145)" stroke="rgb(165,127,145)" stroke-width="1.51"></path><path d="M637,424L637,350L561,425Z" fill="rgb(49,55,149)" stroke="rgb(49,55,149)" stroke-width="1.51"></path><path d="M636,276L713,274L636,198Z" fill="rgb(136,141,197)" stroke="rgb(136,141,197)" stroke-width="1.51"></path><path d="M-39,-99L-114,-26L-37,-26Z" fill="rgb(165,0,38)" stroke="rgb(165,0,38)" stroke-width="1.51"></path><path d="M-113,49L-114,-26L-114,124Z" fill="rgb(193,39,42)" stroke="rgb(193,39,42)" stroke-width="1.51"></path><path d="M-38,500L-113,501L36,500Z" fill="rgb(128,38,93)" stroke="rgb(128,38,93)" stroke-width="1.51"></path><path d="M-114,426L-113,501L-38,500Z" fill="rgb(128,38,93)" stroke="rgb(128,38,93)" stroke-width="1.51"></path><path d="M561,498L637,424L561,425Z" fill="rgb(52,61,153)" stroke="rgb(52,61,153)" stroke-width="1.51"></path><path d="M637,124L638,49L561,49Z" fill="rgb(163,74,110)" stroke="rgb(163,74,110)" stroke-width="1.51"></path><path d="M562,-25L562,-100L487,-100Z" fill="rgb(143,79,106)" stroke="rgb(143,79,106)" stroke-width="1.51"></path><path d="M713,125L638,49L637,124Z" fill="rgb(166,94,120)" stroke="rgb(166,94,120)" stroke-width="1.51"></path><path d="M713,274L636,276L713,348Z" fill="rgb(102,122,185)" stroke="rgb(102,122,185)" stroke-width="1.51"></path><path d="M-39,-99L-112,-101L-114,-26Z" fill="rgb(165,0,38)" stroke="rgb(165,0,38)" stroke-width="1.51"></path><path d="M188,-102L-112,-101L37,-100Z" fill="rgb(180,20,39)" stroke="rgb(180,20,39)" stroke-width="1.51"></path><path d="M636,-100L562,-100L562,-25Z" fill="rgb(131,47,96)" stroke="rgb(131,47,96)" stroke-width="1.51"></path><path d="M487,-100L562,-100L412,-102Z" fill="rgb(161,102,117)" stroke="rgb(161,102,117)" stroke-width="1.51"></path><path d="M638,49L638,-24L562,-25Z" fill="rgb(128,38,93)" stroke="rgb(128,38,93)" stroke-width="1.51"></path><path d="M713,348L636,276L637,350Z" fill="rgb(84,109,178)" stroke="rgb(84,109,178)" stroke-width="1.51"></path><path d="M561,498L638,499L637,424Z" fill="rgb(49,54,149)" stroke="rgb(49,54,149)" stroke-width="1.51"></path><path d="M486,499L638,499L561,498Z" fill="rgb(57,74,159)" stroke="rgb(57,74,159)" stroke-width="1.51"></path><path d="M411,500L638,499L486,499Z" fill="rgb(74,98,172)" stroke="rgb(74,98,172)" stroke-width="1.51"></path><path d="M336,501L638,499L411,500Z" fill="rgb(96,118,183)" stroke="rgb(96,118,183)" stroke-width="1.51"></path><path d="M713,348L637,350L711,424Z" fill="rgb(58,75,159)" stroke="rgb(58,75,159)" stroke-width="1.51"></path><path d="M638,49L711,-24L638,-24Z" fill="rgb(128,38,93)" stroke="rgb(128,38,93)" stroke-width="1.51"></path><path d="M713,274L713,198L636,198Z" fill="rgb(151,145,188)" stroke="rgb(151,145,188)" stroke-width="1.51"></path><path d="M713,198L713,125L637,124Z" fill="rgb(165,127,145)" stroke="rgb(165,127,145)" stroke-width="1.51"></path><path d="M711,424L637,350L637,424Z" fill="rgb(49,55,149)" stroke="rgb(49,55,149)" stroke-width="1.51"></path><path d="M638,499L711,424L637,424Z" fill="rgb(49,54,149)" stroke="rgb(49,54,149)" stroke-width="1.51"></path><path d="M713,125L713,48L638,49Z" fill="rgb(163,74,110)" stroke="rgb(163,74,110)" stroke-width="1.51"></path><path d="M638,-24L636,-100L562,-25Z" fill="rgb(128,38,93)" stroke="rgb(128,38,93)" stroke-width="1.51"></path><path d="M711,-24L636,-100L638,-24Z" fill="rgb(128,38,93)" stroke="rgb(128,38,93)" stroke-width="1.51"></path><path d="M562,-100L636,-100L412,-102Z" fill="rgb(143,79,107)" stroke="rgb(143,79,107)" stroke-width="1.51"></path><path d="M713,48L711,-24L638,49Z" fill="rgb(143,46,95)" stroke="rgb(143,46,95)" stroke-width="1.51"></path><path d="M638,499L712,499L711,424Z" fill="rgb(49,54,149)" stroke="rgb(49,54,149)" stroke-width="1.51"></path><path d="M711,424L712,499L713,348Z" fill="rgb(49,54,149)" stroke="rgb(49,54,149)" stroke-width="1.51"></path><path d="M336,501L712,499L638,499Z" fill="rgb(57,74,159)" stroke="rgb(57,74,159)" stroke-width="1.51"></path><path d="M713,48L713,-100L711,-24Z" fill="rgb(128,38,93)" stroke="rgb(128,38,93)" stroke-width="1.51"></path><path d="M711,-24L713,-100L636,-100Z" fill="rgb(128,38,93)" stroke="rgb(128,38,93)" stroke-width="1.51"></path><path d="M636,-100L713,-100L412,-102Z" fill="rgb(131,47,96)" stroke="rgb(131,47,96)" stroke-width="1.51"></path></svg>