<svg width="600" height="400" xmlns="http://www.w3.org/2000/svg"><path d="M339,201L401,288L415,195Z" fill="rgb(42,149,192)" stroke="rgb(42,149,192)" stroke-width="1.51"></path><path d="M339,201L328,286L401,288Z" fill="rgb(37,145,191)" stroke="rgb(37,145,191)" stroke-width="1.51"></path><path d="M328,286L343,330L401,288Z" fill="rgb(41,123,180)" stroke="rgb(41,123,180)" stroke-width="1.51"></path><path d="M401,288L490,290L415,195Z" fill="rgb(35,120,181)" stroke="rgb(35,120,181)" stroke-width="1.51"></path><path d="M343,330L407,352L401,288Z" fill="rgb(40,107,174)" stroke="rgb(40,107,174)" stroke-width="1.51"></path><path d="M339,201L263,261L328,286Z" fill="rgb(49,161,194)" stroke="rgb(49,161,194)" stroke-width="1.51"></path><path d="M328,286L267,340L343,330Z" fill="rgb(56,126,178)" stroke="rgb(56,126,178)" stroke-width="1.51"></path><path d="M407,352L490,290L401,288Z" fill="rgb(36,96,169)" stroke="rgb(36,96,169)" stroke-width="1.51"></path><path d="M507,215L468,147L415,195Z" fill="rgb(69,137,180)" stroke="rgb(69,137,180)" stroke-width="1.51"></path><path d="M391,103L330,114L339,201Z" fill="rgb(104,183,190)" stroke="rgb(104,183,190)" stroke-width="1.51"></path><path d="M490,290L507,215L415,195Z" fill="rgb(46,119,178)" stroke="rgb(46,119,178)" stroke-width="1.51"></path><path d="M339,201L256,188L263,261Z" fill="rgb(69,177,195)" stroke="rgb(69,177,195)" stroke-width="1.51"></path><path d="M391,103L339,201L415,195Z" fill="rgb(80,168,190)" stroke="rgb(80,168,190)" stroke-width="1.51"></path><path d="M330,114L256,188L339,201Z" fill="rgb(88,187,193)" stroke="rgb(88,187,193)" stroke-width="1.51"></path><path d="M468,147L391,103L415,195Z" fill="rgb(93,157,182)" stroke="rgb(93,157,182)" stroke-width="1.51"></path><path d="M343,330L392,442L407,352Z" fill="rgb(36,89,154)" stroke="rgb(36,89,154)" stroke-width="1.51"></path><path d="M263,261L267,340L328,286Z" fill="rgb(64,141,182)" stroke="rgb(64,141,182)" stroke-width="1.51"></path><path d="M197,289L267,340L263,261Z" fill="rgb(84,147,180)" stroke="rgb(84,147,180)" stroke-width="1.51"></path><path d="M490,290L561,257L507,215Z" fill="rgb(43,98,170)" stroke="rgb(43,98,170)" stroke-width="1.51"></path><path d="M407,352L497,351L490,290Z" fill="rgb(37,77,160)" stroke="rgb(37,77,160)" stroke-width="1.51"></path><path d="M330,114L270,116L256,188Z" fill="rgb(116,198,190)" stroke="rgb(116,198,190)" stroke-width="1.51"></path><path d="M315,51L270,116L330,114Z" fill="rgb(146,207,189)" stroke="rgb(146,207,189)" stroke-width="1.51"></path><path d="M507,215L547,139L468,147Z" fill="rgb(83,127,172)" stroke="rgb(83,127,172)" stroke-width="1.51"></path><path d="M497,351L561,257L490,290Z" fill="rgb(38,76,159)" stroke="rgb(38,76,159)" stroke-width="1.51"></path><path d="M192,198L197,289L263,261Z" fill="rgb(96,176,190)" stroke="rgb(96,176,190)" stroke-width="1.51"></path><path d="M192,198L263,261L256,188Z" fill="rgb(93,185,192)" stroke="rgb(93,185,192)" stroke-width="1.51"></path><path d="M205,134L192,198L256,188Z" fill="rgb(119,201,189)" stroke="rgb(119,201,189)" stroke-width="1.51"></path><path d="M484,61L390,39L391,103Z" fill="rgb(147,175,180)" stroke="rgb(147,175,180)" stroke-width="1.51"></path><path d="M575,189L547,139L507,215Z" fill="rgb(72,116,164)" stroke="rgb(72,116,164)" stroke-width="1.51"></path><path d="M391,103L315,51L330,114Z" fill="rgb(143,197,188)" stroke="rgb(143,197,188)" stroke-width="1.51"></path><path d="M270,116L205,134L256,188Z" fill="rgb(124,203,188)" stroke="rgb(124,203,188)" stroke-width="1.51"></path><path d="M390,39L315,51L391,103Z" fill="rgb(152,196,187)" stroke="rgb(152,196,187)" stroke-width="1.51"></path><path d="M484,61L391,103L468,147Z" fill="rgb(129,160,177)" stroke="rgb(129,160,177)" stroke-width="1.51"></path><path d="M561,257L575,189L507,215Z" fill="rgb(51,104,161)" stroke="rgb(51,104,161)" stroke-width="1.51"></path><path d="M181,48L205,134L270,116Z" fill="rgb(169,220,183)" stroke="rgb(169,220,183)" stroke-width="1.51"></path><path d="M547,139L484,61L468,147Z" fill="rgb(120,141,171)" stroke="rgb(120,141,171)" stroke-width="1.51"></path><path d="M322,447L392,442L343,330Z" fill="rgb(33,89,139)" stroke="rgb(33,89,139)" stroke-width="1.51"></path><path d="M407,352L465,429L497,351Z" fill="rgb(29,64,140)" stroke="rgb(29,64,140)" stroke-width="1.51"></path><path d="M322,447L343,330L267,340Z" fill="rgb(53,107,158)" stroke="rgb(53,107,158)" stroke-width="1.51"></path><path d="M392,442L465,429L407,352Z" fill="rgb(24,69,131)" stroke="rgb(24,69,131)" stroke-width="1.51"></path><path d="M614,332L616,257L561,257Z" fill="rgb(25,69,132)" stroke="rgb(25,69,132)" stroke-width="1.51"></path><path d="M268,440L322,447L267,340Z" fill="rgb(52,103,140)" stroke="rgb(52,103,140)" stroke-width="1.51"></path><path d="M283,-8L271,43L315,51Z" fill="rgb(172,218,195)" stroke="rgb(172,218,195)" stroke-width="1.51"></path><path d="M315,51L271,43L270,116Z" fill="rgb(161,214,187)" stroke="rgb(161,214,187)" stroke-width="1.51"></path><path d="M186,410L268,440L267,340Z" fill="rgb(72,110,140)" stroke="rgb(72,110,140)" stroke-width="1.51"></path><path d="M561,257L616,257L575,189Z" fill="rgb(37,92,146)" stroke="rgb(37,92,146)" stroke-width="1.51"></path><path d="M626,117L540,49L547,139Z" fill="rgb(119,128,147)" stroke="rgb(119,128,147)" stroke-width="1.51"></path><path d="M580,369L561,257L497,351Z" fill="rgb(34,59,144)" stroke="rgb(34,59,144)" stroke-width="1.51"></path><path d="M567,420L580,369L497,351Z" fill="rgb(24,41,120)" stroke="rgb(24,41,120)" stroke-width="1.51"></path><path d="M322,447L347,477L392,442Z" fill="rgb(33,89,139)" stroke="rgb(33,89,139)" stroke-width="1.51"></path><path d="M392,442L409,479L465,429Z" fill="rgb(24,69,131)" stroke="rgb(24,69,131)" stroke-width="1.51"></path><path d="M269,498L347,477L322,447Z" fill="rgb(43,98,140)" stroke="rgb(43,98,140)" stroke-width="1.51"></path><path d="M465,429L567,420L497,351Z" fill="rgb(23,45,119)" stroke="rgb(23,45,119)" stroke-width="1.51"></path><path d="M347,477L409,479L392,442Z" fill="rgb(26,82,137)" stroke="rgb(26,82,137)" stroke-width="1.51"></path><path d="M547,139L540,49L484,61Z" fill="rgb(138,140,166)" stroke="rgb(138,140,166)" stroke-width="1.51"></path><path d="M413,-44L333,-29L390,39Z" fill="rgb(163,197,205)" stroke="rgb(163,197,205)" stroke-width="1.51"></path><path d="M626,117L547,139L575,189Z" fill="rgb(82,115,144)" stroke="rgb(82,115,144)" stroke-width="1.51"></path><path d="M131,268L165,365L197,289Z" fill="rgb(125,155,175)" stroke="rgb(125,155,175)" stroke-width="1.51"></path><path d="M197,289L165,365L267,340Z" fill="rgb(101,137,172)" stroke="rgb(101,137,172)" stroke-width="1.51"></path><path d="M192,198L131,268L197,289Z" fill="rgb(122,182,188)" stroke="rgb(122,182,188)" stroke-width="1.51"></path><path d="M112,185L131,268L192,198Z" fill="rgb(142,201,188)" stroke="rgb(142,201,188)" stroke-width="1.51"></path><path d="M580,369L614,332L561,257Z" fill="rgb(26,55,129)" stroke="rgb(26,55,129)" stroke-width="1.51"></path><path d="M616,257L635,191L575,189Z" fill="rgb(41,97,140)" stroke="rgb(41,97,140)" stroke-width="1.51"></path><path d="M722,203L635,191L616,257Z" fill="rgb(40,95,140)" stroke="rgb(40,95,140)" stroke-width="1.51"></path><path d="M165,365L186,410L267,340Z" fill="rgb(96,122,154)" stroke="rgb(96,122,154)" stroke-width="1.51"></path><path d="M268,440L269,498L322,447Z" fill="rgb(52,103,140)" stroke="rgb(52,103,140)" stroke-width="1.51"></path><path d="M561,488L567,420L465,429Z" fill="rgb(22,39,115)" stroke="rgb(22,39,115)" stroke-width="1.51"></path><path d="M580,369L639,424L614,332Z" fill="rgb(16,34,102)" stroke="rgb(16,34,102)" stroke-width="1.51"></path><path d="M205,134L112,185L192,198Z" fill="rgb(146,210,187)" stroke="rgb(146,210,187)" stroke-width="1.51"></path><path d="M271,43L181,48L270,116Z" fill="rgb(174,221,184)" stroke="rgb(174,221,184)" stroke-width="1.51"></path><path d="M333,-29L283,-8L315,51Z" fill="rgb(171,215,205)" stroke="rgb(171,215,205)" stroke-width="1.51"></path><path d="M333,-29L315,51L390,39Z" fill="rgb(165,204,199)" stroke="rgb(165,204,199)" stroke-width="1.51"></path><path d="M486,-19L390,39L484,61Z" fill="rgb(155,167,183)" stroke="rgb(155,167,183)" stroke-width="1.51"></path><path d="M92,110L112,185L205,134Z" fill="rgb(174,222,183)" stroke="rgb(174,222,183)" stroke-width="1.51"></path><path d="M635,191L626,117L575,189Z" fill="rgb(68,108,138)" stroke="rgb(68,108,138)" stroke-width="1.51"></path><path d="M177,-22L181,48L271,43Z" fill="rgb(197,232,193)" stroke="rgb(197,232,193)" stroke-width="1.51"></path><path d="M544,-18L486,-19L540,49Z" fill="rgb(157,147,183)" stroke="rgb(157,147,183)" stroke-width="1.51"></path><path d="M540,49L486,-19L484,61Z" fill="rgb(154,152,176)" stroke="rgb(154,152,176)" stroke-width="1.51"></path><path d="M486,-19L413,-44L390,39Z" fill="rgb(160,178,197)" stroke="rgb(160,178,197)" stroke-width="1.51"></path><path d="M194,505L269,498L268,440Z" fill="rgb(69,109,138)" stroke="rgb(69,109,138)" stroke-width="1.51"></path><path d="M347,477L480,519L409,479Z" fill="rgb(25,73,133)" stroke="rgb(25,73,133)" stroke-width="1.51"></path><path d="M131,268L99,338L165,365Z" fill="rgb(137,151,172)" stroke="rgb(137,151,172)" stroke-width="1.51"></path><path d="M165,365L120,432L186,410Z" fill="rgb(109,122,135)" stroke="rgb(109,122,135)" stroke-width="1.51"></path><path d="M186,410L194,505L268,440Z" fill="rgb(81,112,137)" stroke="rgb(81,112,137)" stroke-width="1.51"></path><path d="M42,261L99,338L131,268Z" fill="rgb(149,172,178)" stroke="rgb(149,172,178)" stroke-width="1.51"></path><path d="M409,479L480,519L465,429Z" fill="rgb(22,60,127)" stroke="rgb(22,60,127)" stroke-width="1.51"></path><path d="M269,498L480,519L347,477Z" fill="rgb(30,87,139)" stroke="rgb(30,87,139)" stroke-width="1.51"></path><path d="M486,-19L433,-106L413,-44Z" fill="rgb(159,172,195)" stroke="rgb(159,172,195)" stroke-width="1.51"></path><path d="M616,-7L544,-18L540,49Z" fill="rgb(145,138,163)" stroke="rgb(145,138,163)" stroke-width="1.51"></path><path d="M480,519L561,488L465,429Z" fill="rgb(23,46,120)" stroke="rgb(23,46,120)" stroke-width="1.51"></path><path d="M567,420L639,424L580,369Z" fill="rgb(9,30,90)" stroke="rgb(9,30,90)" stroke-width="1.51"></path><path d="M112,185L45,215L131,268Z" fill="rgb(156,204,187)" stroke="rgb(156,204,187)" stroke-width="1.51"></path><path d="M181,48L92,110L205,134Z" fill="rgb(196,231,181)" stroke="rgb(196,231,181)" stroke-width="1.51"></path><path d="M626,117L624,33L540,49Z" fill="rgb(126,128,136)" stroke="rgb(126,128,136)" stroke-width="1.51"></path><path d="M705,32L624,33L626,117Z" fill="rgb(127,128,134)" stroke="rgb(127,128,134)" stroke-width="1.51"></path><path d="M561,488L639,424L567,420Z" fill="rgb(10,30,92)" stroke="rgb(10,30,92)" stroke-width="1.51"></path><path d="M734,294L722,203L616,257Z" fill="rgb(27,84,138)" stroke="rgb(27,84,138)" stroke-width="1.51"></path><path d="M333,-29L334,-83L283,-8Z" fill="rgb(171,214,206)" stroke="rgb(171,214,206)" stroke-width="1.51"></path><path d="M283,-8L177,-22L271,43Z" fill="rgb(188,227,202)" stroke="rgb(188,227,202)" stroke-width="1.51"></path><path d="M181,48L96,31L92,110Z" fill="rgb(220,241,179)" stroke="rgb(220,241,179)" stroke-width="1.51"></path><path d="M413,-44L334,-83L333,-29Z" fill="rgb(165,202,206)" stroke="rgb(165,202,206)" stroke-width="1.51"></path><path d="M433,-106L334,-83L413,-44Z" fill="rgb(162,191,203)" stroke="rgb(162,191,203)" stroke-width="1.51"></path><path d="M99,338L120,432L165,365Z" fill="rgb(126,131,148)" stroke="rgb(126,131,148)" stroke-width="1.51"></path><path d="M120,432L194,505L186,410Z" fill="rgb(105,120,135)" stroke="rgb(105,120,135)" stroke-width="1.51"></path><path d="M269,498L129,521L480,519Z" fill="rgb(49,102,140)" stroke="rgb(49,102,140)" stroke-width="1.51"></path><path d="M205,-101L177,-22L283,-8Z" fill="rgb(195,231,202)" stroke="rgb(195,231,202)" stroke-width="1.51"></path><path d="M92,110L45,215L112,185Z" fill="rgb(176,221,185)" stroke="rgb(176,221,185)" stroke-width="1.51"></path><path d="M99,338L50,405L120,432Z" fill="rgb(131,131,140)" stroke="rgb(131,131,140)" stroke-width="1.51"></path><path d="M45,215L42,261L131,268Z" fill="rgb(157,195,187)" stroke="rgb(157,195,187)" stroke-width="1.51"></path><path d="M624,33L616,-7L540,49Z" fill="rgb(136,132,146)" stroke="rgb(136,132,146)" stroke-width="1.51"></path><path d="M487,-124L433,-106L486,-19Z" fill="rgb(158,165,192)" stroke="rgb(158,165,192)" stroke-width="1.51"></path><path d="M635,191L710,136L626,117Z" fill="rgb(77,112,137)" stroke="rgb(77,112,137)" stroke-width="1.51"></path><path d="M624,33L705,32L616,-7Z" fill="rgb(135,131,145)" stroke="rgb(135,131,145)" stroke-width="1.51"></path><path d="M722,329L616,257L614,332Z" fill="rgb(22,58,126)" stroke="rgb(22,58,126)" stroke-width="1.51"></path><path d="M722,203L710,136L635,191Z" fill="rgb(61,106,139)" stroke="rgb(61,106,139)" stroke-width="1.51"></path><path d="M487,-124L486,-19L544,-18Z" fill="rgb(158,153,187)" stroke="rgb(158,153,187)" stroke-width="1.51"></path><path d="M127,-17L96,31L181,48Z" fill="rgb(228,244,189)" stroke="rgb(228,244,189)" stroke-width="1.51"></path><path d="M92,110L23,111L45,215Z" fill="rgb(191,229,188)" stroke="rgb(191,229,188)" stroke-width="1.51"></path><path d="M639,424L722,329L614,332Z" fill="rgb(19,37,111)" stroke="rgb(19,37,111)" stroke-width="1.51"></path><path d="M722,329L734,294L616,257Z" fill="rgb(23,64,128)" stroke="rgb(23,64,128)" stroke-width="1.51"></path><path d="M177,-22L127,-17L181,48Z" fill="rgb(222,242,198)" stroke="rgb(222,242,198)" stroke-width="1.51"></path><path d="M110,-87L127,-17L177,-22Z" fill="rgb(230,245,198)" stroke="rgb(230,245,198)" stroke-width="1.51"></path><path d="M46,-37L60,66L96,31Z" fill="rgb(244,251,191)" stroke="rgb(244,251,191)" stroke-width="1.51"></path><path d="M96,31L60,66L92,110Z" fill="rgb(228,244,178)" stroke="rgb(228,244,178)" stroke-width="1.51"></path><path d="M42,261L41,372L99,338Z" fill="rgb(153,156,175)" stroke="rgb(153,156,175)" stroke-width="1.51"></path><path d="M120,432L129,521L194,505Z" fill="rgb(113,123,135)" stroke="rgb(113,123,135)" stroke-width="1.51"></path><path d="M699,499L656,482L561,488Z" fill="rgb(8,29,88)" stroke="rgb(8,29,88)" stroke-width="1.51"></path><path d="M561,488L656,482L639,424Z" fill="rgb(8,29,88)" stroke="rgb(8,29,88)" stroke-width="1.51"></path><path d="M639,424L732,405L722,329Z" fill="rgb(12,32,96)" stroke="rgb(12,32,96)" stroke-width="1.51"></path><path d="M41,372L50,405L99,338Z" fill="rgb(143,138,155)" stroke="rgb(143,138,155)" stroke-width="1.51"></path><path d="M433,-106L256,-120L334,-83Z" fill="rgb(168,208,206)" stroke="rgb(168,208,206)" stroke-width="1.51"></path><path d="M583,-88L487,-124L544,-18Z" fill="rgb(154,144,179)" stroke="rgb(154,144,179)" stroke-width="1.51"></path><path d="M334,-83L256,-120L283,-8Z" fill="rgb(176,220,206)" stroke="rgb(176,220,206)" stroke-width="1.51"></path><path d="M487,-124L256,-120L433,-106Z" fill="rgb(163,192,203)" stroke="rgb(163,192,203)" stroke-width="1.51"></path><path d="M60,66L23,111L92,110Z" fill="rgb(222,242,183)" stroke="rgb(222,242,183)" stroke-width="1.51"></path><path d="M45,215L-25,266L42,261Z" fill="rgb(162,198,200)" stroke="rgb(162,198,200)" stroke-width="1.51"></path><path d="M42,261L-25,266L41,372Z" fill="rgb(157,169,189)" stroke="rgb(157,169,189)" stroke-width="1.51"></path><path d="M-17,59L23,111L60,66Z" fill="rgb(233,246,192)" stroke="rgb(233,246,192)" stroke-width="1.51"></path><path d="M39,488L129,521L120,432Z" fill="rgb(126,128,134)" stroke="rgb(126,128,134)" stroke-width="1.51"></path><path d="M194,505L129,521L269,498Z" fill="rgb(90,115,136)" stroke="rgb(90,115,136)" stroke-width="1.51"></path><path d="M256,-120L205,-101L283,-8Z" fill="rgb(187,227,204)" stroke="rgb(187,227,204)" stroke-width="1.51"></path><path d="M620,-99L583,-88L616,-7Z" fill="rgb(137,132,152)" stroke="rgb(137,132,152)" stroke-width="1.51"></path><path d="M616,-7L583,-88L544,-18Z" fill="rgb(142,136,160)" stroke="rgb(142,136,160)" stroke-width="1.51"></path><path d="M710,136L705,32L626,117Z" fill="rgb(114,123,135)" stroke="rgb(114,123,135)" stroke-width="1.51"></path><path d="M724,-43L705,32L710,136Z" fill="rgb(132,130,137)" stroke="rgb(132,130,137)" stroke-width="1.51"></path><path d="M724,-43L710,136L722,203Z" fill="rgb(113,123,135)" stroke="rgb(113,123,135)" stroke-width="1.51"></path><path d="M656,482L732,405L639,424Z" fill="rgb(8,29,88)" stroke="rgb(8,29,88)" stroke-width="1.51"></path><path d="M722,329L732,405L734,294Z" fill="rgb(23,43,119)" stroke="rgb(23,43,119)" stroke-width="1.51"></path><path d="M-53,184L-25,266L45,215Z" fill="rgb(169,210,206)" stroke="rgb(169,210,206)" stroke-width="1.51"></path><path d="M-32,436L39,488L50,405Z" fill="rgb(136,131,147)" stroke="rgb(136,131,147)" stroke-width="1.51"></path><path d="M656,482L699,499L732,405Z" fill="rgb(8,29,88)" stroke="rgb(8,29,88)" stroke-width="1.51"></path><path d="M480,519L699,499L561,488Z" fill="rgb(12,32,95)" stroke="rgb(12,32,95)" stroke-width="1.51"></path><path d="M583,-88L620,-99L487,-124Z" fill="rgb(147,139,168)" stroke="rgb(147,139,168)" stroke-width="1.51"></path><path d="M724,-43L620,-99L616,-7Z" fill="rgb(137,132,152)" stroke="rgb(137,132,152)" stroke-width="1.51"></path><path d="M205,-101L110,-87L177,-22Z" fill="rgb(221,242,199)" stroke="rgb(221,242,199)" stroke-width="1.51"></path><path d="M127,-17L46,-37L96,31Z" fill="rgb(243,250,197)" stroke="rgb(243,250,197)" stroke-width="1.51"></path><path d="M59,-112L110,-87L205,-101Z" fill="rgb(234,247,198)" stroke="rgb(234,247,198)" stroke-width="1.51"></path><path d="M-32,436L50,405L41,372Z" fill="rgb(135,132,147)" stroke="rgb(135,132,147)" stroke-width="1.51"></path><path d="M50,405L39,488L120,432Z" fill="rgb(131,130,135)" stroke="rgb(131,130,135)" stroke-width="1.51"></path><path d="M110,-87L46,-37L127,-17Z" fill="rgb(241,250,197)" stroke="rgb(241,250,197)" stroke-width="1.51"></path><path d="M23,111L-53,184L45,215Z" fill="rgb(185,225,203)" stroke="rgb(185,225,203)" stroke-width="1.51"></path><path d="M46,-37L-17,59L60,66Z" fill="rgb(247,252,198)" stroke="rgb(247,252,198)" stroke-width="1.51"></path><path d="M-45,125L-53,184L23,111Z" fill="rgb(201,233,201)" stroke="rgb(201,233,201)" stroke-width="1.51"></path><path d="M-25,266L-42,366L41,372Z" fill="rgb(158,154,187)" stroke="rgb(158,154,187)" stroke-width="1.51"></path><path d="M-17,59L-45,125L23,111Z" fill="rgb(228,244,198)" stroke="rgb(228,244,198)" stroke-width="1.51"></path><path d="M-107,264L-42,366L-25,266Z" fill="rgb(159,171,194)" stroke="rgb(159,171,194)" stroke-width="1.51"></path><path d="M705,32L724,-43L616,-7Z" fill="rgb(137,132,152)" stroke="rgb(137,132,152)" stroke-width="1.51"></path><path d="M733,-98L724,-43L722,203Z" fill="rgb(135,131,144)" stroke="rgb(135,131,144)" stroke-width="1.51"></path><path d="M-42,366L-32,436L41,372Z" fill="rgb(141,135,157)" stroke="rgb(141,135,157)" stroke-width="1.51"></path><path d="M46,-37L-42,-15L-17,59Z" fill="rgb(255,255,216)" stroke="rgb(255,255,216)" stroke-width="1.51"></path><path d="M110,-87L59,-112L46,-37Z" fill="rgb(247,252,198)" stroke="rgb(247,252,198)" stroke-width="1.51"></path><path d="M256,-120L59,-112L205,-101Z" fill="rgb(217,240,199)" stroke="rgb(217,240,199)" stroke-width="1.51"></path><path d="M-53,184L-107,264L-25,266Z" fill="rgb(166,203,206)" stroke="rgb(166,203,206)" stroke-width="1.51"></path><path d="M-42,366L-133,421L-32,436Z" fill="rgb(137,132,152)" stroke="rgb(137,132,152)" stroke-width="1.51"></path><path d="M-103,112L-101,193L-53,184Z" fill="rgb(189,227,203)" stroke="rgb(189,227,203)" stroke-width="1.51"></path><path d="M-103,112L-53,184L-45,125Z" fill="rgb(200,233,201)" stroke="rgb(200,233,201)" stroke-width="1.51"></path><path d="M-103,112L-45,125L-17,59Z" fill="rgb(228,244,198)" stroke="rgb(228,244,198)" stroke-width="1.51"></path><path d="M724,-43L733,-98L620,-99Z" fill="rgb(137,132,152)" stroke="rgb(137,132,152)" stroke-width="1.51"></path><path d="M620,-99L733,-98L487,-124Z" fill="rgb(137,132,152)" stroke="rgb(137,132,152)" stroke-width="1.51"></path><path d="M734,294L733,-98L722,203Z" fill="rgb(89,115,136)" stroke="rgb(89,115,136)" stroke-width="1.51"></path><path d="M-101,193L-107,264L-53,184Z" fill="rgb(171,213,206)" stroke="rgb(171,213,206)" stroke-width="1.51"></path><path d="M-51,-123L-42,-15L46,-37Z" fill="rgb(255,255,217)" stroke="rgb(255,255,217)" stroke-width="1.51"></path><path d="M39,488L-28,519L129,521Z" fill="rgb(133,131,141)" stroke="rgb(133,131,141)" stroke-width="1.51"></path><path d="M-32,436L-28,519L39,488Z" fill="rgb(137,132,152)" stroke="rgb(137,132,152)" stroke-width="1.51"></path><path d="M-114,502L-28,519L-32,436Z" fill="rgb(137,132,152)" stroke="rgb(137,132,152)" stroke-width="1.51"></path><path d="M-101,193L-129,70L-107,264Z" fill="rgb(183,224,205)" stroke="rgb(183,224,205)" stroke-width="1.51"></path><path d="M-129,70L-103,112L-17,59Z" fill="rgb(235,247,198)" stroke="rgb(235,247,198)" stroke-width="1.51"></path><path d="M-107,264L-119,362L-42,366Z" fill="rgb(158,156,188)" stroke="rgb(158,156,188)" stroke-width="1.51"></path><path d="M-129,70L-119,362L-107,264Z" fill="rgb(167,205,206)" stroke="rgb(167,205,206)" stroke-width="1.51"></path><path d="M-103,112L-129,70L-101,193Z" fill="rgb(211,237,200)" stroke="rgb(211,237,200)" stroke-width="1.51"></path><path d="M-42,-15L-129,70L-17,59Z" fill="rgb(248,253,202)" stroke="rgb(248,253,202)" stroke-width="1.51"></path><path d="M-119,362L-133,421L-42,366Z" fill="rgb(144,138,163)" stroke="rgb(144,138,163)" stroke-width="1.51"></path><path d="M-129,70L-133,421L-119,362Z" fill="rgb(160,179,198)" stroke="rgb(160,179,198)" stroke-width="1.51"></path><path d="M-51,-123L-111,-27L-42,-15Z" fill="rgb(255,255,217)" stroke="rgb(255,255,217)" stroke-width="1.51"></path><path d="M-42,-15L-111,-27L-129,70Z" fill="rgb(254,255,213)" stroke="rgb(254,255,213)" stroke-width="1.51"></path><path d="M-133,421L-114,502L-32,436Z" fill="rgb(137,132,152)" stroke="rgb(137,132,152)" stroke-width="1.51"></path><path d="M59,-112L-51,-123L46,-37Z" fill="rgb(253,254,212)" stroke="rgb(253,254,212)" stroke-width="1.51"></path><path d="M256,-120L-51,-123L59,-112Z" fill="rgb(243,250,197)" stroke="rgb(243,250,197)" stroke-width="1.51"></path><path d="M487,-124L-51,-123L256,-120Z" fill="rgb(192,229,202)" stroke="rgb(192,229,202)" stroke-width="1.51"></path><path d="M-51,-123L-117,-122L-111,-27Z" fill="rgb(255,255,217)" stroke="rgb(255,255,217)" stroke-width="1.51"></path><path d="M-111,-27L-117,-122L-129,70Z" fill="rgb(255,255,217)" stroke="rgb(255,255,217)" stroke-width="1.51"></path></svg>