<svg width="600" height="400" xmlns="http://www.w3.org/2000/svg"><path d="M318,188L357,123L286,147Z" fill="rgb(132,203,132)" stroke="rgb(132,203,132)" stroke-width="1.51"></path><path d="M318,188L420,139L357,123Z" fill="rgb(119,196,125)" stroke="rgb(119,196,125)" stroke-width="1.51"></path><path d="M286,147L254,222L318,188Z" fill="rgb(127,201,127)" stroke="rgb(127,201,127)" stroke-width="1.51"></path><path d="M318,188L422,225L420,139Z" fill="rgb(98,184,109)" stroke="rgb(98,184,109)" stroke-width="1.51"></path><path d="M357,123L276,48L286,147Z" fill="rgb(154,213,152)" stroke="rgb(154,213,152)" stroke-width="1.51"></path><path d="M286,147L182,189L254,222Z" fill="rgb(141,208,137)" stroke="rgb(141,208,137)" stroke-width="1.51"></path><path d="M323,29L276,48L357,123Z" fill="rgb(163,216,162)" stroke="rgb(163,216,162)" stroke-width="1.51"></path><path d="M405,31L323,29L357,123Z" fill="rgb(152,209,156)" stroke="rgb(152,209,156)" stroke-width="1.51"></path><path d="M404,261L422,225L318,188Z" fill="rgb(78,176,98)" stroke="rgb(78,176,98)" stroke-width="1.51"></path><path d="M276,48L205,104L286,147Z" fill="rgb(171,221,166)" stroke="rgb(171,221,166)" stroke-width="1.51"></path><path d="M316,286L404,261L318,188Z" fill="rgb(79,177,99)" stroke="rgb(79,177,99)" stroke-width="1.51"></path><path d="M254,222L316,286L318,188Z" fill="rgb(102,188,111)" stroke="rgb(102,188,111)" stroke-width="1.51"></path><path d="M420,139L405,31L357,123Z" fill="rgb(133,199,139)" stroke="rgb(133,199,139)" stroke-width="1.51"></path><path d="M420,139L466,47L405,31Z" fill="rgb(135,193,141)" stroke="rgb(135,193,141)" stroke-width="1.51"></path><path d="M502,223L468,119L420,139Z" fill="rgb(96,173,104)" stroke="rgb(96,173,104)" stroke-width="1.51"></path><path d="M254,222L243,270L316,286Z" fill="rgb(99,184,110)" stroke="rgb(99,184,110)" stroke-width="1.51"></path><path d="M195,285L243,270L254,222Z" fill="rgb(112,190,120)" stroke="rgb(112,190,120)" stroke-width="1.51"></path><path d="M205,104L182,189L286,147Z" fill="rgb(163,218,156)" stroke="rgb(163,218,156)" stroke-width="1.51"></path><path d="M276,48L210,48L205,104Z" fill="rgb(189,229,182)" stroke="rgb(189,229,182)" stroke-width="1.51"></path><path d="M205,104L137,133L182,189Z" fill="rgb(177,224,170)" stroke="rgb(177,224,170)" stroke-width="1.51"></path><path d="M282,-39L210,48L276,48Z" fill="rgb(192,229,188)" stroke="rgb(192,229,188)" stroke-width="1.51"></path><path d="M468,119L466,47L420,139Z" fill="rgb(122,185,128)" stroke="rgb(122,185,128)" stroke-width="1.51"></path><path d="M323,29L282,-39L276,48Z" fill="rgb(183,224,180)" stroke="rgb(183,224,180)" stroke-width="1.51"></path><path d="M405,31L337,-38L323,29Z" fill="rgb(166,215,169)" stroke="rgb(166,215,169)" stroke-width="1.51"></path><path d="M436,-28L337,-38L405,31Z" fill="rgb(158,208,164)" stroke="rgb(158,208,164)" stroke-width="1.51"></path><path d="M245,344L346,355L316,286Z" fill="rgb(72,158,85)" stroke="rgb(72,158,85)" stroke-width="1.51"></path><path d="M182,189L195,285L254,222Z" fill="rgb(129,200,132)" stroke="rgb(129,200,132)" stroke-width="1.51"></path><path d="M111,53L137,133L205,104Z" fill="rgb(200,234,193)" stroke="rgb(200,234,193)" stroke-width="1.51"></path><path d="M182,189L122,223L195,285Z" fill="rgb(140,205,142)" stroke="rgb(140,205,142)" stroke-width="1.51"></path><path d="M422,225L502,223L420,139Z" fill="rgb(81,169,95)" stroke="rgb(81,169,95)" stroke-width="1.51"></path><path d="M468,119L544,110L466,47Z" fill="rgb(119,178,123)" stroke="rgb(119,178,123)" stroke-width="1.51"></path><path d="M499,253L502,223L422,225Z" fill="rgb(57,154,81)" stroke="rgb(57,154,81)" stroke-width="1.51"></path><path d="M337,-38L282,-39L323,29Z" fill="rgb(179,222,178)" stroke="rgb(179,222,178)" stroke-width="1.51"></path><path d="M210,48L111,53L205,104Z" fill="rgb(202,235,195)" stroke="rgb(202,235,195)" stroke-width="1.51"></path><path d="M491,359L499,253L404,261Z" fill="rgb(36,139,68)" stroke="rgb(36,139,68)" stroke-width="1.51"></path><path d="M404,261L499,253L422,225Z" fill="rgb(54,157,83)" stroke="rgb(54,157,83)" stroke-width="1.51"></path><path d="M316,286L387,356L404,261Z" fill="rgb(53,155,81)" stroke="rgb(53,155,81)" stroke-width="1.51"></path><path d="M245,344L316,286L243,270Z" fill="rgb(90,172,101)" stroke="rgb(90,172,101)" stroke-width="1.51"></path><path d="M466,47L436,-28L405,31Z" fill="rgb(147,197,153)" stroke="rgb(147,197,153)" stroke-width="1.51"></path><path d="M195,285L245,344L243,270Z" fill="rgb(102,177,110)" stroke="rgb(102,177,110)" stroke-width="1.51"></path><path d="M346,355L387,356L316,286Z" fill="rgb(53,149,76)" stroke="rgb(53,149,76)" stroke-width="1.51"></path><path d="M137,133L122,223L182,189Z" fill="rgb(167,219,162)" stroke="rgb(167,219,162)" stroke-width="1.51"></path><path d="M195,285L199,361L245,344Z" fill="rgb(99,170,106)" stroke="rgb(99,170,106)" stroke-width="1.51"></path><path d="M560,174L468,119L502,223Z" fill="rgb(84,161,93)" stroke="rgb(84,161,93)" stroke-width="1.51"></path><path d="M560,174L544,110L468,119Z" fill="rgb(98,164,103)" stroke="rgb(98,164,103)" stroke-width="1.51"></path><path d="M466,47L496,-34L436,-28Z" fill="rgb(145,192,151)" stroke="rgb(145,192,151)" stroke-width="1.51"></path><path d="M390,-82L351,-80L337,-38Z" fill="rgb(166,215,170)" stroke="rgb(166,215,170)" stroke-width="1.51"></path><path d="M337,-38L351,-80L282,-39Z" fill="rgb(176,221,176)" stroke="rgb(176,221,176)" stroke-width="1.51"></path><path d="M248,-102L194,-43L282,-39Z" fill="rgb(200,232,195)" stroke="rgb(200,232,195)" stroke-width="1.51"></path><path d="M282,-39L194,-43L210,48Z" fill="rgb(204,234,198)" stroke="rgb(204,234,198)" stroke-width="1.51"></path><path d="M577,259L560,174L502,223Z" fill="rgb(55,141,73)" stroke="rgb(55,141,73)" stroke-width="1.51"></path><path d="M137,133L50,201L122,223Z" fill="rgb(174,222,170)" stroke="rgb(174,222,170)" stroke-width="1.51"></path><path d="M117,-7L111,53L210,48Z" fill="rgb(219,241,213)" stroke="rgb(219,241,213)" stroke-width="1.51"></path><path d="M436,-28L390,-82L337,-38Z" fill="rgb(159,210,165)" stroke="rgb(159,210,165)" stroke-width="1.51"></path><path d="M613,131L548,51L544,110Z" fill="rgb(107,157,110)" stroke="rgb(107,157,110)" stroke-width="1.51"></path><path d="M544,110L548,51L466,47Z" fill="rgb(122,174,125)" stroke="rgb(122,174,125)" stroke-width="1.51"></path><path d="M436,-28L477,-126L390,-82Z" fill="rgb(151,199,157)" stroke="rgb(151,199,157)" stroke-width="1.51"></path><path d="M106,293L199,361L195,285Z" fill="rgb(116,179,121)" stroke="rgb(116,179,121)" stroke-width="1.51"></path><path d="M287,445L353,438L346,355Z" fill="rgb(51,125,66)" stroke="rgb(51,125,66)" stroke-width="1.51"></path><path d="M353,438L415,399L387,356Z" fill="rgb(31,117,58)" stroke="rgb(31,117,58)" stroke-width="1.51"></path><path d="M548,51L496,-34L466,47Z" fill="rgb(135,183,139)" stroke="rgb(135,183,139)" stroke-width="1.51"></path><path d="M194,-43L117,-7L210,48Z" fill="rgb(217,240,212)" stroke="rgb(217,240,212)" stroke-width="1.51"></path><path d="M477,-126L248,-102L351,-80Z" fill="rgb(166,215,170)" stroke="rgb(166,215,170)" stroke-width="1.51"></path><path d="M351,-80L248,-102L282,-39Z" fill="rgb(185,225,182)" stroke="rgb(185,225,182)" stroke-width="1.51"></path><path d="M194,-43L91,-115L117,-7Z" fill="rgb(226,244,222)" stroke="rgb(226,244,222)" stroke-width="1.51"></path><path d="M27,251L106,293L122,223Z" fill="rgb(148,205,153)" stroke="rgb(148,205,153)" stroke-width="1.51"></path><path d="M122,223L106,293L195,285Z" fill="rgb(134,197,139)" stroke="rgb(134,197,139)" stroke-width="1.51"></path><path d="M387,356L491,359L404,261Z" fill="rgb(33,136,66)" stroke="rgb(33,136,66)" stroke-width="1.51"></path><path d="M499,253L577,259L502,223Z" fill="rgb(41,140,69)" stroke="rgb(41,140,69)" stroke-width="1.51"></path><path d="M353,438L387,356L346,355Z" fill="rgb(40,127,64)" stroke="rgb(40,127,64)" stroke-width="1.51"></path><path d="M415,399L491,359L387,356Z" fill="rgb(23,118,56)" stroke="rgb(23,118,56)" stroke-width="1.51"></path><path d="M248,-102L203,-92L194,-43Z" fill="rgb(207,236,202)" stroke="rgb(207,236,202)" stroke-width="1.51"></path><path d="M491,359L577,259L499,253Z" fill="rgb(24,127,59)" stroke="rgb(24,127,59)" stroke-width="1.51"></path><path d="M628,36L561,-6L548,51Z" fill="rgb(123,160,127)" stroke="rgb(123,160,127)" stroke-width="1.51"></path><path d="M27,111L50,201L137,133Z" fill="rgb(196,232,190)" stroke="rgb(196,232,190)" stroke-width="1.51"></path><path d="M27,111L137,133L111,53Z" fill="rgb(211,238,205)" stroke="rgb(211,238,205)" stroke-width="1.51"></path><path d="M548,51L561,-6L496,-34Z" fill="rgb(134,176,137)" stroke="rgb(134,176,137)" stroke-width="1.51"></path><path d="M496,-34L477,-126L436,-28Z" fill="rgb(145,191,150)" stroke="rgb(145,191,150)" stroke-width="1.51"></path><path d="M613,131L544,110L560,174Z" fill="rgb(91,150,95)" stroke="rgb(91,150,95)" stroke-width="1.51"></path><path d="M620,193L613,131L560,174Z" fill="rgb(76,136,82)" stroke="rgb(76,136,82)" stroke-width="1.51"></path><path d="M287,445L346,355L245,344Z" fill="rgb(65,138,76)" stroke="rgb(65,138,76)" stroke-width="1.51"></path><path d="M566,402L567,367L491,359Z" fill="rgb(0,93,37)" stroke="rgb(0,93,37)" stroke-width="1.51"></path><path d="M577,259L620,193L560,174Z" fill="rgb(57,132,70)" stroke="rgb(57,132,70)" stroke-width="1.51"></path><path d="M198,425L245,344L199,361Z" fill="rgb(90,151,94)" stroke="rgb(90,151,94)" stroke-width="1.51"></path><path d="M198,425L287,445L245,344Z" fill="rgb(77,137,83)" stroke="rgb(77,137,83)" stroke-width="1.51"></path><path d="M17,37L27,111L111,53Z" fill="rgb(227,244,222)" stroke="rgb(227,244,222)" stroke-width="1.51"></path><path d="M88,437L198,425L199,361Z" fill="rgb(99,146,101)" stroke="rgb(99,146,101)" stroke-width="1.51"></path><path d="M106,293L89,340L199,361Z" fill="rgb(120,177,124)" stroke="rgb(120,177,124)" stroke-width="1.51"></path><path d="M34,342L89,340L106,293Z" fill="rgb(132,184,136)" stroke="rgb(132,184,136)" stroke-width="1.51"></path><path d="M390,-82L477,-126L351,-80Z" fill="rgb(156,205,162)" stroke="rgb(156,205,162)" stroke-width="1.51"></path><path d="M575,-93L477,-126L496,-34Z" fill="rgb(137,182,141)" stroke="rgb(137,182,141)" stroke-width="1.51"></path><path d="M50,201L27,251L122,223Z" fill="rgb(164,215,164)" stroke="rgb(164,215,164)" stroke-width="1.51"></path><path d="M-21,200L27,251L50,201Z" fill="rgb(173,219,173)" stroke="rgb(173,219,173)" stroke-width="1.51"></path><path d="M561,-6L575,-93L496,-34Z" fill="rgb(133,173,137)" stroke="rgb(133,173,137)" stroke-width="1.51"></path><path d="M613,131L628,36L548,51Z" fill="rgb(110,151,113)" stroke="rgb(110,151,113)" stroke-width="1.51"></path><path d="M713,134L628,36L613,131Z" fill="rgb(102,147,104)" stroke="rgb(102,147,104)" stroke-width="1.51"></path><path d="M577,259L642,297L620,193Z" fill="rgb(33,117,59)" stroke="rgb(33,117,59)" stroke-width="1.51"></path><path d="M491,359L567,367L577,259Z" fill="rgb(9,110,47)" stroke="rgb(9,110,47)" stroke-width="1.51"></path><path d="M472,441L491,359L415,399Z" fill="rgb(15,101,46)" stroke="rgb(15,101,46)" stroke-width="1.51"></path><path d="M424,519L472,441L415,399Z" fill="rgb(20,105,49)" stroke="rgb(20,105,49)" stroke-width="1.51"></path><path d="M470,494L472,441L424,519Z" fill="rgb(15,101,46)" stroke="rgb(15,101,46)" stroke-width="1.51"></path><path d="M27,111L-21,200L50,201Z" fill="rgb(194,229,189)" stroke="rgb(194,229,189)" stroke-width="1.51"></path><path d="M117,-7L17,37L111,53Z" fill="rgb(232,246,227)" stroke="rgb(232,246,227)" stroke-width="1.51"></path><path d="M34,-43L17,37L117,-7Z" fill="rgb(241,250,237)" stroke="rgb(241,250,237)" stroke-width="1.51"></path><path d="M638,-5L575,-93L561,-6Z" fill="rgb(126,159,130)" stroke="rgb(126,159,130)" stroke-width="1.51"></path><path d="M628,36L638,-5L561,-6Z" fill="rgb(123,156,126)" stroke="rgb(123,156,126)" stroke-width="1.51"></path><path d="M693,-20L638,-5L722,26Z" fill="rgb(125,156,128)" stroke="rgb(125,156,128)" stroke-width="1.51"></path><path d="M567,367L642,297L577,259Z" fill="rgb(14,101,46)" stroke="rgb(14,101,46)" stroke-width="1.51"></path><path d="M472,441L566,402L491,359Z" fill="rgb(3,91,38)" stroke="rgb(3,91,38)" stroke-width="1.51"></path><path d="M633,372L642,297L567,367Z" fill="rgb(1,90,36)" stroke="rgb(1,90,36)" stroke-width="1.51"></path><path d="M620,193L713,134L613,131Z" fill="rgb(82,139,86)" stroke="rgb(82,139,86)" stroke-width="1.51"></path><path d="M50,-87L34,-43L117,-7Z" fill="rgb(239,249,235)" stroke="rgb(239,249,235)" stroke-width="1.51"></path><path d="M89,340L88,437L199,361Z" fill="rgb(111,158,113)" stroke="rgb(111,158,113)" stroke-width="1.51"></path><path d="M27,251L34,342L106,293Z" fill="rgb(142,194,147)" stroke="rgb(142,194,147)" stroke-width="1.51"></path><path d="M287,445L324,499L353,438Z" fill="rgb(53,126,67)" stroke="rgb(53,126,67)" stroke-width="1.51"></path><path d="M273,516L324,499L287,445Z" fill="rgb(62,130,72)" stroke="rgb(62,130,72)" stroke-width="1.51"></path><path d="M273,516L287,445L198,425Z" fill="rgb(75,135,81)" stroke="rgb(75,135,81)" stroke-width="1.51"></path><path d="M27,251L-21,259L34,342Z" fill="rgb(150,200,156)" stroke="rgb(150,200,156)" stroke-width="1.51"></path><path d="M-41,102L-21,200L27,111Z" fill="rgb(209,237,204)" stroke="rgb(209,237,204)" stroke-width="1.51"></path><path d="M-41,102L27,111L17,37Z" fill="rgb(228,245,224)" stroke="rgb(228,245,224)" stroke-width="1.51"></path><path d="M477,-126L91,-115L248,-102Z" fill="rgb(191,228,188)" stroke="rgb(191,228,188)" stroke-width="1.51"></path><path d="M248,-102L91,-115L203,-92Z" fill="rgb(216,240,211)" stroke="rgb(216,240,211)" stroke-width="1.51"></path><path d="M203,-92L91,-115L194,-43Z" fill="rgb(220,241,215)" stroke="rgb(220,241,215)" stroke-width="1.51"></path><path d="M91,-115L50,-87L117,-7Z" fill="rgb(236,248,232)" stroke="rgb(236,248,232)" stroke-width="1.51"></path><path d="M-21,200L-21,259L27,251Z" fill="rgb(167,216,171)" stroke="rgb(167,216,171)" stroke-width="1.51"></path><path d="M-37,38L17,37L-51,-44Z" fill="rgb(245,252,243)" stroke="rgb(245,252,243)" stroke-width="1.51"></path><path d="M-37,38L-41,102L17,37Z" fill="rgb(236,248,231)" stroke="rgb(236,248,231)" stroke-width="1.51"></path><path d="M-21,200L-94,267L-21,259Z" fill="rgb(165,214,169)" stroke="rgb(165,214,169)" stroke-width="1.51"></path><path d="M188,523L273,516L198,425Z" fill="rgb(84,140,89)" stroke="rgb(84,140,89)" stroke-width="1.51"></path><path d="M34,342L88,437L89,340Z" fill="rgb(123,165,125)" stroke="rgb(123,165,125)" stroke-width="1.51"></path><path d="M110,494L88,437L45,449Z" fill="rgb(115,152,117)" stroke="rgb(115,152,117)" stroke-width="1.51"></path><path d="M472,441L548,487L566,402Z" fill="rgb(0,87,35)" stroke="rgb(0,87,35)" stroke-width="1.51"></path><path d="M424,519L415,399L353,438Z" fill="rgb(28,113,55)" stroke="rgb(28,113,55)" stroke-width="1.51"></path><path d="M424,519L353,438L324,499Z" fill="rgb(36,119,60)" stroke="rgb(36,119,60)" stroke-width="1.51"></path><path d="M566,402L633,372L567,367Z" fill="rgb(0,79,31)" stroke="rgb(0,79,31)" stroke-width="1.51"></path><path d="M624,443L633,372L566,402Z" fill="rgb(0,68,27)" stroke="rgb(0,68,27)" stroke-width="1.51"></path><path d="M-51,-44L17,37L34,-43Z" fill="rgb(247,252,245)" stroke="rgb(247,252,245)" stroke-width="1.51"></path><path d="M273,516L424,519L324,499Z" fill="rgb(46,123,64)" stroke="rgb(46,123,64)" stroke-width="1.51"></path><path d="M723,187L620,193L642,297Z" fill="rgb(47,123,64)" stroke="rgb(47,123,64)" stroke-width="1.51"></path><path d="M723,187L713,134L620,193Z" fill="rgb(73,135,80)" stroke="rgb(73,135,80)" stroke-width="1.51"></path><path d="M725,297L723,187L642,297Z" fill="rgb(30,114,56)" stroke="rgb(30,114,56)" stroke-width="1.51"></path><path d="M273,516L188,523L424,519Z" fill="rgb(62,130,71)" stroke="rgb(62,130,71)" stroke-width="1.51"></path><path d="M110,494L188,523L198,425Z" fill="rgb(98,145,101)" stroke="rgb(98,145,101)" stroke-width="1.51"></path><path d="M638,-5L632,-122L575,-93Z" fill="rgb(125,156,128)" stroke="rgb(125,156,128)" stroke-width="1.51"></path><path d="M722,26L638,-5L628,36Z" fill="rgb(122,155,125)" stroke="rgb(122,155,125)" stroke-width="1.51"></path><path d="M722,26L628,36L713,134Z" fill="rgb(112,151,114)" stroke="rgb(112,151,114)" stroke-width="1.51"></path><path d="M424,519L548,487L470,494Z" fill="rgb(10,97,43)" stroke="rgb(10,97,43)" stroke-width="1.51"></path><path d="M470,494L548,487L472,441Z" fill="rgb(6,93,40)" stroke="rgb(6,93,40)" stroke-width="1.51"></path><path d="M633,372L688,330L642,297Z" fill="rgb(5,93,39)" stroke="rgb(5,93,39)" stroke-width="1.51"></path><path d="M734,412L688,330L633,372Z" fill="rgb(0,79,32)" stroke="rgb(0,79,32)" stroke-width="1.51"></path><path d="M88,437L110,494L198,425Z" fill="rgb(105,148,108)" stroke="rgb(105,148,108)" stroke-width="1.51"></path><path d="M45,449L88,437L34,342Z" fill="rgb(119,154,121)" stroke="rgb(119,154,121)" stroke-width="1.51"></path><path d="M693,-20L632,-122L638,-5Z" fill="rgb(125,156,128)" stroke="rgb(125,156,128)" stroke-width="1.51"></path><path d="M575,-93L632,-122L477,-126Z" fill="rgb(131,168,134)" stroke="rgb(131,168,134)" stroke-width="1.51"></path><path d="M-39,365L45,449L34,342Z" fill="rgb(127,162,130)" stroke="rgb(127,162,130)" stroke-width="1.51"></path><path d="M693,-20L708,-110L632,-122Z" fill="rgb(125,156,128)" stroke="rgb(125,156,128)" stroke-width="1.51"></path><path d="M723,187L722,26L713,134Z" fill="rgb(96,144,99)" stroke="rgb(96,144,99)" stroke-width="1.51"></path><path d="M548,487L624,443L566,402Z" fill="rgb(0,73,29)" stroke="rgb(0,73,29)" stroke-width="1.51"></path><path d="M-110,29L-113,123L-41,102Z" fill="rgb(228,245,223)" stroke="rgb(228,245,223)" stroke-width="1.51"></path><path d="M-52,-120L-51,-44L34,-43Z" fill="rgb(247,252,245)" stroke="rgb(247,252,245)" stroke-width="1.51"></path><path d="M-52,-120L34,-43L50,-87Z" fill="rgb(246,252,243)" stroke="rgb(246,252,243)" stroke-width="1.51"></path><path d="M-94,267L-21,200L-119,222Z" fill="rgb(170,217,172)" stroke="rgb(170,217,172)" stroke-width="1.51"></path><path d="M-94,267L-39,365L-21,259Z" fill="rgb(149,196,154)" stroke="rgb(149,196,154)" stroke-width="1.51"></path><path d="M-21,259L-39,365L34,342Z" fill="rgb(143,189,148)" stroke="rgb(143,189,148)" stroke-width="1.51"></path><path d="M734,412L725,297L688,330Z" fill="rgb(1,89,36)" stroke="rgb(1,89,36)" stroke-width="1.51"></path><path d="M688,330L725,297L642,297Z" fill="rgb(14,100,45)" stroke="rgb(14,100,45)" stroke-width="1.51"></path><path d="M723,187L734,412L722,26Z" fill="rgb(56,127,68)" stroke="rgb(56,127,68)" stroke-width="1.51"></path><path d="M-113,123L-21,200L-41,102Z" fill="rgb(207,236,203)" stroke="rgb(207,236,203)" stroke-width="1.51"></path><path d="M-110,29L-41,102L-37,38Z" fill="rgb(236,248,232)" stroke="rgb(236,248,232)" stroke-width="1.51"></path><path d="M-113,123L-119,222L-21,200Z" fill="rgb(191,228,187)" stroke="rgb(191,228,187)" stroke-width="1.51"></path><path d="M-42,449L21,482L45,449Z" fill="rgb(124,156,127)" stroke="rgb(124,156,127)" stroke-width="1.51"></path><path d="M45,449L21,482L110,494Z" fill="rgb(118,154,121)" stroke="rgb(118,154,121)" stroke-width="1.51"></path><path d="M110,494L-41,509L188,523Z" fill="rgb(114,152,116)" stroke="rgb(114,152,116)" stroke-width="1.51"></path><path d="M-42,449L45,449L-39,365Z" fill="rgb(125,156,128)" stroke="rgb(125,156,128)" stroke-width="1.51"></path><path d="M-42,449L-39,365L-133,439Z" fill="rgb(125,156,128)" stroke="rgb(125,156,128)" stroke-width="1.51"></path><path d="M-113,123L-135,-87L-119,222Z" fill="rgb(227,244,223)" stroke="rgb(227,244,223)" stroke-width="1.51"></path><path d="M-100,-27L-110,29L-37,38Z" fill="rgb(245,251,242)" stroke="rgb(245,251,242)" stroke-width="1.51"></path><path d="M-51,-44L-100,-27L-37,38Z" fill="rgb(247,252,245)" stroke="rgb(247,252,245)" stroke-width="1.51"></path><path d="M-135,-87L-100,-27L-51,-44Z" fill="rgb(247,252,245)" stroke="rgb(247,252,245)" stroke-width="1.51"></path><path d="M722,26L708,-110L693,-20Z" fill="rgb(125,156,128)" stroke="rgb(125,156,128)" stroke-width="1.51"></path><path d="M91,-115L-52,-120L50,-87Z" fill="rgb(244,251,241)" stroke="rgb(244,251,241)" stroke-width="1.51"></path><path d="M477,-126L-52,-120L91,-115Z" fill="rgb(218,240,213)" stroke="rgb(218,240,213)" stroke-width="1.51"></path><path d="M-130,351L-39,365L-94,267Z" fill="rgb(141,186,146)" stroke="rgb(141,186,146)" stroke-width="1.51"></path><path d="M548,487L630,525L624,443Z" fill="rgb(0,68,27)" stroke="rgb(0,68,27)" stroke-width="1.51"></path><path d="M624,443L734,412L633,372Z" fill="rgb(0,68,27)" stroke="rgb(0,68,27)" stroke-width="1.51"></path><path d="M424,519L630,525L548,487Z" fill="rgb(0,86,34)" stroke="rgb(0,86,34)" stroke-width="1.51"></path><path d="M188,523L630,525L424,519Z" fill="rgb(25,109,52)" stroke="rgb(25,109,52)" stroke-width="1.51"></path><path d="M729,503L734,412L624,443Z" fill="rgb(0,68,27)" stroke="rgb(0,68,27)" stroke-width="1.51"></path><path d="M725,297L734,412L723,187Z" fill="rgb(17,103,48)" stroke="rgb(17,103,48)" stroke-width="1.51"></path><path d="M-119,222L-130,351L-94,267Z" fill="rgb(153,202,159)" stroke="rgb(153,202,159)" stroke-width="1.51"></path><path d="M-135,-87L-130,351L-119,222Z" fill="rgb(199,232,195)" stroke="rgb(199,232,195)" stroke-width="1.51"></path><path d="M-42,449L-41,509L21,482Z" fill="rgb(125,156,128)" stroke="rgb(125,156,128)" stroke-width="1.51"></path><path d="M21,482L-41,509L110,494Z" fill="rgb(122,155,125)" stroke="rgb(122,155,125)" stroke-width="1.51"></path><path d="M-110,478L-41,509L-42,449Z" fill="rgb(125,156,128)" stroke="rgb(125,156,128)" stroke-width="1.51"></path><path d="M-110,29L-135,-87L-113,123Z" fill="rgb(243,251,240)" stroke="rgb(243,251,240)" stroke-width="1.51"></path><path d="M-100,-27L-135,-87L-110,29Z" fill="rgb(247,252,245)" stroke="rgb(247,252,245)" stroke-width="1.51"></path><path d="M-52,-120L-135,-87L-51,-44Z" fill="rgb(247,252,245)" stroke="rgb(247,252,245)" stroke-width="1.51"></path><path d="M630,525L729,503L624,443Z" fill="rgb(0,68,27)" stroke="rgb(0,68,27)" stroke-width="1.51"></path><path d="M-135,-87L-133,439L-130,351Z" fill="rgb(168,216,171)" stroke="rgb(168,216,171)" stroke-width="1.51"></path><path d="M-130,351L-133,439L-39,365Z" fill="rgb(128,163,132)" stroke="rgb(128,163,132)" stroke-width="1.51"></path><path d="M-133,439L-110,478L-42,449Z" fill="rgb(125,156,128)" stroke="rgb(125,156,128)" stroke-width="1.51"></path></svg>