<svg width="600" height="400" xmlns="http://www.w3.org/2000/svg"><path d="M345,181L359,242L412,231Z" fill="rgb(232,246,164)" stroke="rgb(232,246,164)" stroke-width="1.51"></path><path d="M359,242L417,242L412,231Z" fill="rgb(213,238,157)" stroke="rgb(213,238,157)" stroke-width="1.51"></path><path d="M475,198L413,146L412,231Z" fill="rgb(207,232,172)" stroke="rgb(207,232,172)" stroke-width="1.51"></path><path d="M412,231L413,146L345,181Z" fill="rgb(228,239,165)" stroke="rgb(228,239,165)" stroke-width="1.51"></path><path d="M417,242L462,242L412,231Z" fill="rgb(197,230,159)" stroke="rgb(197,230,159)" stroke-width="1.51"></path><path d="M462,242L475,198L412,231Z" fill="rgb(191,229,167)" stroke="rgb(191,229,167)" stroke-width="1.51"></path><path d="M413,146L345,95L345,181Z" fill="rgb(240,221,136)" stroke="rgb(240,221,136)" stroke-width="1.51"></path><path d="M345,181L275,257L359,242Z" fill="rgb(241,250,170)" stroke="rgb(241,250,170)" stroke-width="1.51"></path><path d="M359,242L416,334L417,242Z" fill="rgb(188,227,161)" stroke="rgb(188,227,161)" stroke-width="1.51"></path><path d="M417,242L416,334L462,242Z" fill="rgb(171,220,163)" stroke="rgb(171,220,163)" stroke-width="1.51"></path><path d="M233,167L275,257L345,181Z" fill="rgb(255,251,183)" stroke="rgb(255,251,183)" stroke-width="1.51"></path><path d="M475,198L456,113L413,146Z" fill="rgb(203,212,148)" stroke="rgb(203,212,148)" stroke-width="1.51"></path><path d="M413,146L456,113L345,95Z" fill="rgb(225,200,128)" stroke="rgb(225,200,128)" stroke-width="1.51"></path><path d="M335,335L416,334L359,242Z" fill="rgb(179,223,160)" stroke="rgb(179,223,160)" stroke-width="1.51"></path><path d="M275,257L335,335L359,242Z" fill="rgb(211,237,170)" stroke="rgb(211,237,170)" stroke-width="1.51"></path><path d="M345,95L281,102L345,181Z" fill="rgb(252,217,139)" stroke="rgb(252,217,139)" stroke-width="1.51"></path><path d="M395,24L305,77L345,95Z" fill="rgb(241,174,114)" stroke="rgb(241,174,114)" stroke-width="1.51"></path><path d="M345,95L305,77L281,102Z" fill="rgb(254,192,128)" stroke="rgb(254,192,128)" stroke-width="1.51"></path><path d="M281,102L233,167L345,181Z" fill="rgb(255,230,153)" stroke="rgb(255,230,153)" stroke-width="1.51"></path><path d="M281,102L262,73L233,167Z" fill="rgb(255,200,123)" stroke="rgb(255,200,123)" stroke-width="1.51"></path><path d="M305,77L262,73L281,102Z" fill="rgb(255,183,121)" stroke="rgb(255,183,121)" stroke-width="1.51"></path><path d="M462,242L542,275L475,198Z" fill="rgb(169,213,164)" stroke="rgb(169,213,164)" stroke-width="1.51"></path><path d="M475,198L556,117L456,113Z" fill="rgb(185,191,148)" stroke="rgb(185,191,148)" stroke-width="1.51"></path><path d="M481,369L542,275L462,242Z" fill="rgb(122,195,169)" stroke="rgb(122,195,169)" stroke-width="1.51"></path><path d="M456,113L395,24L345,95Z" fill="rgb(227,172,113)" stroke="rgb(227,172,113)" stroke-width="1.51"></path><path d="M305,77L245,-41L262,73Z" fill="rgb(237,155,120)" stroke="rgb(237,155,120)" stroke-width="1.51"></path><path d="M233,167L197,197L275,257Z" fill="rgb(253,236,159)" stroke="rgb(253,236,159)" stroke-width="1.51"></path><path d="M275,257L273,378L335,335Z" fill="rgb(182,221,177)" stroke="rgb(182,221,177)" stroke-width="1.51"></path><path d="M171,135L197,197L233,167Z" fill="rgb(255,210,129)" stroke="rgb(255,210,129)" stroke-width="1.51"></path><path d="M335,335L370,394L416,334Z" fill="rgb(152,190,173)" stroke="rgb(152,190,173)" stroke-width="1.51"></path><path d="M416,334L481,369L462,242Z" fill="rgb(124,201,165)" stroke="rgb(124,201,165)" stroke-width="1.51"></path><path d="M273,378L370,394L335,335Z" fill="rgb(166,185,181)" stroke="rgb(166,185,181)" stroke-width="1.51"></path><path d="M370,394L481,369L416,334Z" fill="rgb(125,173,176)" stroke="rgb(125,173,176)" stroke-width="1.51"></path><path d="M542,275L569,172L475,198Z" fill="rgb(167,197,182)" stroke="rgb(167,197,182)" stroke-width="1.51"></path><path d="M456,113L488,42L395,24Z" fill="rgb(200,154,118)" stroke="rgb(200,154,118)" stroke-width="1.51"></path><path d="M197,197L194,262L275,257Z" fill="rgb(244,227,139)" stroke="rgb(244,227,139)" stroke-width="1.51"></path><path d="M556,117L488,42L456,113Z" fill="rgb(188,154,125)" stroke="rgb(188,154,125)" stroke-width="1.51"></path><path d="M569,172L556,117L475,198Z" fill="rgb(174,183,167)" stroke="rgb(174,183,167)" stroke-width="1.51"></path><path d="M194,262L273,378L275,257Z" fill="rgb(201,218,155)" stroke="rgb(201,218,155)" stroke-width="1.51"></path><path d="M197,197L132,226L194,262Z" fill="rgb(248,209,128)" stroke="rgb(248,209,128)" stroke-width="1.51"></path><path d="M262,73L171,135L233,167Z" fill="rgb(254,195,114)" stroke="rgb(254,195,114)" stroke-width="1.51"></path><path d="M488,42L470,2L395,24Z" fill="rgb(179,135,117)" stroke="rgb(179,135,117)" stroke-width="1.51"></path><path d="M552,51L470,2L488,42Z" fill="rgb(167,122,124)" stroke="rgb(167,122,124)" stroke-width="1.51"></path><path d="M470,2L418,-15L395,24Z" fill="rgb(176,130,113)" stroke="rgb(176,130,113)" stroke-width="1.51"></path><path d="M245,-41L196,27L262,73Z" fill="rgb(223,135,103)" stroke="rgb(223,135,103)" stroke-width="1.51"></path><path d="M542,275L620,196L569,172Z" fill="rgb(171,173,177)" stroke="rgb(171,173,177)" stroke-width="1.51"></path><path d="M481,369L569,335L542,275Z" fill="rgb(83,165,178)" stroke="rgb(83,165,178)" stroke-width="1.51"></path><path d="M556,117L552,51L488,42Z" fill="rgb(176,125,129)" stroke="rgb(176,125,129)" stroke-width="1.51"></path><path d="M621,59L552,51L556,117Z" fill="rgb(179,104,123)" stroke="rgb(179,104,123)" stroke-width="1.51"></path><path d="M569,172L655,153L556,117Z" fill="rgb(181,144,150)" stroke="rgb(181,144,150)" stroke-width="1.51"></path><path d="M651,272L620,196L542,275Z" fill="rgb(163,156,162)" stroke="rgb(163,156,162)" stroke-width="1.51"></path><path d="M481,369L571,394L569,335Z" fill="rgb(57,132,187)" stroke="rgb(57,132,187)" stroke-width="1.51"></path><path d="M408,453L493,420L481,369Z" fill="rgb(117,140,165)" stroke="rgb(117,140,165)" stroke-width="1.51"></path><path d="M408,453L481,369L370,394Z" fill="rgb(139,148,165)" stroke="rgb(139,148,165)" stroke-width="1.51"></path><path d="M194,262L177,352L273,378Z" fill="rgb(185,191,148)" stroke="rgb(185,191,148)" stroke-width="1.51"></path><path d="M171,135L132,226L197,197Z" fill="rgb(255,202,131)" stroke="rgb(255,202,131)" stroke-width="1.51"></path><path d="M171,135L141,131L132,226Z" fill="rgb(254,185,112)" stroke="rgb(254,185,112)" stroke-width="1.51"></path><path d="M108,82L141,131L171,135Z" fill="rgb(250,150,85)" stroke="rgb(250,150,85)" stroke-width="1.51"></path><path d="M196,27L171,135L262,73Z" fill="rgb(250,155,92)" stroke="rgb(250,155,92)" stroke-width="1.51"></path><path d="M354,520L408,453L370,394Z" fill="rgb(160,156,162)" stroke="rgb(160,156,162)" stroke-width="1.51"></path><path d="M273,378L256,446L370,394Z" fill="rgb(179,163,179)" stroke="rgb(179,163,179)" stroke-width="1.51"></path><path d="M87,265L177,352L194,262Z" fill="rgb(210,182,123)" stroke="rgb(210,182,123)" stroke-width="1.51"></path><path d="M319,-56L305,77L395,24Z" fill="rgb(215,148,116)" stroke="rgb(215,148,116)" stroke-width="1.51"></path><path d="M418,-15L319,-56L395,24Z" fill="rgb(194,137,109)" stroke="rgb(194,137,109)" stroke-width="1.51"></path><path d="M366,-92L319,-56L418,-15Z" fill="rgb(198,138,109)" stroke="rgb(198,138,109)" stroke-width="1.51"></path><path d="M569,335L651,272L542,275Z" fill="rgb(125,151,168)" stroke="rgb(125,151,168)" stroke-width="1.51"></path><path d="M493,420L571,394L481,369Z" fill="rgb(90,124,173)" stroke="rgb(90,124,173)" stroke-width="1.51"></path><path d="M559,532L571,394L493,420Z" fill="rgb(80,108,175)" stroke="rgb(80,108,175)" stroke-width="1.51"></path><path d="M177,352L256,446L273,378Z" fill="rgb(179,152,155)" stroke="rgb(179,152,155)" stroke-width="1.51"></path><path d="M408,453L443,475L493,420Z" fill="rgb(124,143,165)" stroke="rgb(124,143,165)" stroke-width="1.51"></path><path d="M458,509L443,475L354,520Z" fill="rgb(140,149,165)" stroke="rgb(140,149,165)" stroke-width="1.51"></path><path d="M639,380L651,272L569,335Z" fill="rgb(101,130,167)" stroke="rgb(101,130,167)" stroke-width="1.51"></path><path d="M319,-56L245,-41L305,77Z" fill="rgb(212,141,121)" stroke="rgb(212,141,121)" stroke-width="1.51"></path><path d="M620,196L655,153L569,172Z" fill="rgb(180,153,163)" stroke="rgb(180,153,163)" stroke-width="1.51"></path><path d="M708,188L655,153L620,196Z" fill="rgb(180,155,166)" stroke="rgb(180,155,166)" stroke-width="1.51"></path><path d="M593,-37L499,-72L470,2Z" fill="rgb(140,98,121)" stroke="rgb(140,98,121)" stroke-width="1.51"></path><path d="M401,-128L366,-92L418,-15Z" fill="rgb(187,134,111)" stroke="rgb(187,134,111)" stroke-width="1.51"></path><path d="M655,153L621,59L556,117Z" fill="rgb(182,116,130)" stroke="rgb(182,116,130)" stroke-width="1.51"></path><path d="M319,-56L246,-130L245,-41Z" fill="rgb(211,135,114)" stroke="rgb(211,135,114)" stroke-width="1.51"></path><path d="M499,-72L418,-15L470,2Z" fill="rgb(159,122,113)" stroke="rgb(159,122,113)" stroke-width="1.51"></path><path d="M35,179L87,265L132,226Z" fill="rgb(240,170,119)" stroke="rgb(240,170,119)" stroke-width="1.51"></path><path d="M196,27L108,82L171,135Z" fill="rgb(248,132,77)" stroke="rgb(248,132,77)" stroke-width="1.51"></path><path d="M117,-8L108,82L196,27Z" fill="rgb(226,96,78)" stroke="rgb(226,96,78)" stroke-width="1.51"></path><path d="M132,226L87,265L194,262Z" fill="rgb(237,186,115)" stroke="rgb(237,186,115)" stroke-width="1.51"></path><path d="M175,452L255,478L256,446Z" fill="rgb(181,144,151)" stroke="rgb(181,144,151)" stroke-width="1.51"></path><path d="M35,179L132,226L141,131Z" fill="rgb(250,170,115)" stroke="rgb(250,170,115)" stroke-width="1.51"></path><path d="M256,446L354,520L370,394Z" fill="rgb(174,161,171)" stroke="rgb(174,161,171)" stroke-width="1.51"></path><path d="M175,452L256,446L177,352Z" fill="rgb(182,133,142)" stroke="rgb(182,133,142)" stroke-width="1.51"></path><path d="M593,-37L470,2L552,51Z" fill="rgb(139,92,125)" stroke="rgb(139,92,125)" stroke-width="1.51"></path><path d="M658,442L639,380L571,394Z" fill="rgb(94,79,162)" stroke="rgb(94,79,162)" stroke-width="1.51"></path><path d="M571,394L639,380L569,335Z" fill="rgb(83,105,173)" stroke="rgb(83,105,173)" stroke-width="1.51"></path><path d="M443,475L458,509L493,420Z" fill="rgb(115,140,165)" stroke="rgb(115,140,165)" stroke-width="1.51"></path><path d="M354,520L443,475L408,453Z" fill="rgb(148,151,164)" stroke="rgb(148,151,164)" stroke-width="1.51"></path><path d="M255,478L354,520L256,446Z" fill="rgb(179,160,174)" stroke="rgb(179,160,174)" stroke-width="1.51"></path><path d="M255,478L178,496L354,520Z" fill="rgb(180,153,163)" stroke="rgb(180,153,163)" stroke-width="1.51"></path><path d="M90,402L175,452L177,352Z" fill="rgb(182,107,125)" stroke="rgb(182,107,125)" stroke-width="1.51"></path><path d="M245,-41L168,-36L196,27Z" fill="rgb(208,112,90)" stroke="rgb(208,112,90)" stroke-width="1.51"></path><path d="M163,-130L168,-36L245,-41Z" fill="rgb(207,107,86)" stroke="rgb(207,107,86)" stroke-width="1.51"></path><path d="M621,59L593,-37L552,51Z" fill="rgb(153,72,120)" stroke="rgb(153,72,120)" stroke-width="1.51"></path><path d="M592,-68L593,-37L637,-27Z" fill="rgb(137,53,112)" stroke="rgb(137,53,112)" stroke-width="1.51"></path><path d="M723,96L698,40L621,59Z" fill="rgb(174,85,119)" stroke="rgb(174,85,119)" stroke-width="1.51"></path><path d="M651,272L708,188L620,196Z" fill="rgb(174,161,171)" stroke="rgb(174,161,171)" stroke-width="1.51"></path><path d="M737,300L708,188L651,272Z" fill="rgb(159,155,162)" stroke="rgb(159,155,162)" stroke-width="1.51"></path><path d="M366,-92L246,-130L319,-56Z" fill="rgb(211,142,122)" stroke="rgb(211,142,122)" stroke-width="1.51"></path><path d="M499,-72L401,-128L418,-15Z" fill="rgb(168,126,113)" stroke="rgb(168,126,113)" stroke-width="1.51"></path><path d="M592,-68L401,-128L499,-72Z" fill="rgb(147,110,117)" stroke="rgb(147,110,117)" stroke-width="1.51"></path><path d="M168,-36L117,-8L196,27Z" fill="rgb(205,91,78)" stroke="rgb(205,91,78)" stroke-width="1.51"></path><path d="M108,82L42,138L141,131Z" fill="rgb(243,132,83)" stroke="rgb(243,132,83)" stroke-width="1.51"></path><path d="M87,265L89,379L177,352Z" fill="rgb(189,147,120)" stroke="rgb(189,147,120)" stroke-width="1.51"></path><path d="M64,47L42,138L108,82Z" fill="rgb(233,100,76)" stroke="rgb(233,100,76)" stroke-width="1.51"></path><path d="M87,265L17,336L89,379Z" fill="rgb(177,135,122)" stroke="rgb(177,135,122)" stroke-width="1.51"></path><path d="M42,138L35,179L141,131Z" fill="rgb(240,146,102)" stroke="rgb(240,146,102)" stroke-width="1.51"></path><path d="M593,-37L592,-68L499,-72Z" fill="rgb(136,77,120)" stroke="rgb(136,77,120)" stroke-width="1.51"></path><path d="M637,-27L593,-37L621,59Z" fill="rgb(137,53,112)" stroke="rgb(137,53,112)" stroke-width="1.51"></path><path d="M698,40L637,-27L621,59Z" fill="rgb(153,65,117)" stroke="rgb(153,65,117)" stroke-width="1.51"></path><path d="M89,379L90,402L177,352Z" fill="rgb(179,111,124)" stroke="rgb(179,111,124)" stroke-width="1.51"></path><path d="M69,407L90,402L89,379Z" fill="rgb(171,84,121)" stroke="rgb(171,84,121)" stroke-width="1.51"></path><path d="M117,-8L64,47L108,82Z" fill="rgb(223,77,76)" stroke="rgb(223,77,76)" stroke-width="1.51"></path><path d="M133,467L178,496L175,452Z" fill="rgb(182,114,129)" stroke="rgb(182,114,129)" stroke-width="1.51"></path><path d="M175,452L178,496L255,478Z" fill="rgb(182,133,142)" stroke="rgb(182,133,142)" stroke-width="1.51"></path><path d="M90,402L133,467L175,452Z" fill="rgb(181,100,121)" stroke="rgb(181,100,121)" stroke-width="1.51"></path><path d="M723,96L621,59L655,153Z" fill="rgb(182,111,127)" stroke="rgb(182,111,127)" stroke-width="1.51"></path><path d="M639,380L710,348L651,272Z" fill="rgb(98,127,169)" stroke="rgb(98,127,169)" stroke-width="1.51"></path><path d="M716,403L710,348L639,380Z" fill="rgb(87,96,169)" stroke="rgb(87,96,169)" stroke-width="1.51"></path><path d="M35,179L22,256L87,265Z" fill="rgb(225,157,116)" stroke="rgb(225,157,116)" stroke-width="1.51"></path><path d="M401,-128L246,-130L366,-92Z" fill="rgb(205,141,115)" stroke="rgb(205,141,115)" stroke-width="1.51"></path><path d="M168,-36L82,-94L117,-8Z" fill="rgb(201,67,69)" stroke="rgb(201,67,69)" stroke-width="1.51"></path><path d="M737,300L723,96L708,188Z" fill="rgb(179,161,176)" stroke="rgb(179,161,176)" stroke-width="1.51"></path><path d="M708,188L723,96L655,153Z" fill="rgb(181,139,147)" stroke="rgb(181,139,147)" stroke-width="1.51"></path><path d="M559,532L658,442L571,394Z" fill="rgb(94,81,163)" stroke="rgb(94,81,163)" stroke-width="1.51"></path><path d="M90,402L69,407L133,467Z" fill="rgb(174,85,119)" stroke="rgb(174,85,119)" stroke-width="1.51"></path><path d="M17,336L69,407L89,379Z" fill="rgb(162,96,129)" stroke="rgb(162,96,129)" stroke-width="1.51"></path><path d="M716,403L737,300L710,348Z" fill="rgb(87,115,173)" stroke="rgb(87,115,173)" stroke-width="1.51"></path><path d="M710,348L737,300L651,272Z" fill="rgb(117,140,165)" stroke="rgb(117,140,165)" stroke-width="1.51"></path><path d="M458,509L559,532L493,420Z" fill="rgb(97,125,169)" stroke="rgb(97,125,169)" stroke-width="1.51"></path><path d="M354,520L559,532L458,509Z" fill="rgb(119,141,165)" stroke="rgb(119,141,165)" stroke-width="1.51"></path><path d="M22,256L17,336L87,265Z" fill="rgb(192,142,118)" stroke="rgb(192,142,118)" stroke-width="1.51"></path><path d="M723,96L688,-30L698,40Z" fill="rgb(161,71,120)" stroke="rgb(161,71,120)" stroke-width="1.51"></path><path d="M698,40L688,-30L637,-27Z" fill="rgb(137,53,112)" stroke="rgb(137,53,112)" stroke-width="1.51"></path><path d="M637,-27L666,-86L592,-68Z" fill="rgb(137,53,112)" stroke="rgb(137,53,112)" stroke-width="1.51"></path><path d="M658,442L716,403L639,380Z" fill="rgb(94,79,162)" stroke="rgb(94,79,162)" stroke-width="1.51"></path><path d="M710,481L716,403L658,442Z" fill="rgb(94,79,162)" stroke="rgb(94,79,162)" stroke-width="1.51"></path><path d="M246,-130L163,-130L245,-41Z" fill="rgb(208,119,95)" stroke="rgb(208,119,95)" stroke-width="1.51"></path><path d="M117,-8L33,-16L64,47Z" fill="rgb(193,48,73)" stroke="rgb(193,48,73)" stroke-width="1.51"></path><path d="M22,256L-23,261L17,336Z" fill="rgb(176,130,113)" stroke="rgb(176,130,113)" stroke-width="1.51"></path><path d="M35,179L-23,261L22,256Z" fill="rgb(208,144,113)" stroke="rgb(208,144,113)" stroke-width="1.51"></path><path d="M-71,232L-23,261L35,179Z" fill="rgb(206,141,115)" stroke="rgb(206,141,115)" stroke-width="1.51"></path><path d="M-26,114L35,179L42,138Z" fill="rgb(216,123,96)" stroke="rgb(216,123,96)" stroke-width="1.51"></path><path d="M688,-30L666,-86L637,-27Z" fill="rgb(137,53,112)" stroke="rgb(137,53,112)" stroke-width="1.51"></path><path d="M592,-68L666,-86L401,-128Z" fill="rgb(135,81,122)" stroke="rgb(135,81,122)" stroke-width="1.51"></path><path d="M82,-94L33,-16L117,-8Z" fill="rgb(190,47,71)" stroke="rgb(190,47,71)" stroke-width="1.51"></path><path d="M64,47L-26,114L42,138Z" fill="rgb(216,93,78)" stroke="rgb(216,93,78)" stroke-width="1.51"></path><path d="M-57,48L-26,114L64,47Z" fill="rgb(197,59,70)" stroke="rgb(197,59,70)" stroke-width="1.51"></path><path d="M559,532L650,523L658,442Z" fill="rgb(94,79,162)" stroke="rgb(94,79,162)" stroke-width="1.51"></path><path d="M163,-130L82,-94L168,-36Z" fill="rgb(202,77,72)" stroke="rgb(202,77,72)" stroke-width="1.51"></path><path d="M650,523L710,481L658,442Z" fill="rgb(94,79,162)" stroke="rgb(94,79,162)" stroke-width="1.51"></path><path d="M716,403L710,481L737,300Z" fill="rgb(93,83,164)" stroke="rgb(93,83,164)" stroke-width="1.51"></path><path d="M688,-30L692,-91L666,-86Z" fill="rgb(137,53,112)" stroke="rgb(137,53,112)" stroke-width="1.51"></path><path d="M666,-86L692,-91L401,-128Z" fill="rgb(137,62,115)" stroke="rgb(137,62,115)" stroke-width="1.51"></path><path d="M723,96L692,-91L688,-30Z" fill="rgb(137,53,112)" stroke="rgb(137,53,112)" stroke-width="1.51"></path><path d="M-23,261L-34,353L17,336Z" fill="rgb(153,119,113)" stroke="rgb(153,119,113)" stroke-width="1.51"></path><path d="M17,336L-11,410L69,407Z" fill="rgb(148,76,121)" stroke="rgb(148,76,121)" stroke-width="1.51"></path><path d="M69,407L18,530L133,467Z" fill="rgb(168,77,120)" stroke="rgb(168,77,120)" stroke-width="1.51"></path><path d="M-83,270L-34,353L-23,261Z" fill="rgb(167,126,113)" stroke="rgb(167,126,113)" stroke-width="1.51"></path><path d="M-34,353L-11,410L17,336Z" fill="rgb(135,83,123)" stroke="rgb(135,83,123)" stroke-width="1.51"></path><path d="M133,467L18,530L178,496Z" fill="rgb(178,89,118)" stroke="rgb(178,89,118)" stroke-width="1.51"></path><path d="M-70,-68L34,-75L-127,-104Z" fill="rgb(158,1,66)" stroke="rgb(158,1,66)" stroke-width="1.51"></path><path d="M82,-94L34,-75L33,-16Z" fill="rgb(180,33,72)" stroke="rgb(180,33,72)" stroke-width="1.51"></path><path d="M33,-16L-57,48L64,47Z" fill="rgb(182,35,72)" stroke="rgb(182,35,72)" stroke-width="1.51"></path><path d="M-113,142L-71,232L-26,114Z" fill="rgb(210,129,103)" stroke="rgb(210,129,103)" stroke-width="1.51"></path><path d="M-26,114L-71,232L35,179Z" fill="rgb(211,134,111)" stroke="rgb(211,134,111)" stroke-width="1.51"></path><path d="M-40,-15L-57,48L33,-16Z" fill="rgb(162,8,67)" stroke="rgb(162,8,67)" stroke-width="1.51"></path><path d="M-71,232L-83,270L-23,261Z" fill="rgb(192,136,110)" stroke="rgb(192,136,110)" stroke-width="1.51"></path><path d="M-117,418L-11,483L-11,410Z" fill="rgb(137,53,112)" stroke="rgb(137,53,112)" stroke-width="1.51"></path><path d="M-134,169L-83,270L-71,232Z" fill="rgb(206,141,115)" stroke="rgb(206,141,115)" stroke-width="1.51"></path><path d="M34,-75L-40,-15L33,-16Z" fill="rgb(162,8,67)" stroke="rgb(162,8,67)" stroke-width="1.51"></path><path d="M-117,418L-11,410L-34,353Z" fill="rgb(137,60,114)" stroke="rgb(137,60,114)" stroke-width="1.51"></path><path d="M-11,410L-11,483L69,407Z" fill="rgb(144,58,114)" stroke="rgb(144,58,114)" stroke-width="1.51"></path><path d="M178,496L18,530L354,520Z" fill="rgb(182,125,135)" stroke="rgb(182,125,135)" stroke-width="1.51"></path><path d="M-11,483L18,530L69,407Z" fill="rgb(148,61,116)" stroke="rgb(148,61,116)" stroke-width="1.51"></path><path d="M354,520L18,530L559,532Z" fill="rgb(177,162,176)" stroke="rgb(177,162,176)" stroke-width="1.51"></path><path d="M-117,27L-113,142L-57,48Z" fill="rgb(198,61,69)" stroke="rgb(198,61,69)" stroke-width="1.51"></path><path d="M-57,48L-113,142L-26,114Z" fill="rgb(204,86,76)" stroke="rgb(204,86,76)" stroke-width="1.51"></path><path d="M-117,27L-134,169L-113,142Z" fill="rgb(206,96,80)" stroke="rgb(206,96,80)" stroke-width="1.51"></path><path d="M-113,142L-134,169L-71,232Z" fill="rgb(211,136,114)" stroke="rgb(211,136,114)" stroke-width="1.51"></path><path d="M-83,270L-136,341L-34,353Z" fill="rgb(151,118,114)" stroke="rgb(151,118,114)" stroke-width="1.51"></path><path d="M-40,-15L-81,-29L-57,48Z" fill="rgb(159,2,66)" stroke="rgb(159,2,66)" stroke-width="1.51"></path><path d="M-70,-68L-81,-29L-40,-15Z" fill="rgb(158,1,66)" stroke="rgb(158,1,66)" stroke-width="1.51"></path><path d="M-70,-68L-40,-15L34,-75Z" fill="rgb(158,1,66)" stroke="rgb(158,1,66)" stroke-width="1.51"></path><path d="M-127,-104L34,-75L82,-94Z" fill="rgb(158,1,66)" stroke="rgb(158,1,66)" stroke-width="1.51"></path><path d="M-81,-29L-117,27L-57,48Z" fill="rgb(168,19,69)" stroke="rgb(168,19,69)" stroke-width="1.51"></path><path d="M-127,-104L-117,27L-81,-29Z" fill="rgb(158,1,66)" stroke="rgb(158,1,66)" stroke-width="1.51"></path><path d="M-134,169L-136,341L-83,270Z" fill="rgb(189,135,110)" stroke="rgb(189,135,110)" stroke-width="1.51"></path><path d="M-11,483L-142,521L18,530Z" fill="rgb(137,53,112)" stroke="rgb(137,53,112)" stroke-width="1.51"></path><path d="M-136,341L-117,418L-34,353Z" fill="rgb(135,79,122)" stroke="rgb(135,79,122)" stroke-width="1.51"></path><path d="M-70,-68L-127,-104L-81,-29Z" fill="rgb(158,1,66)" stroke="rgb(158,1,66)" stroke-width="1.51"></path><path d="M-117,27L-127,-104L-134,169Z" fill="rgb(179,31,71)" stroke="rgb(179,31,71)" stroke-width="1.51"></path><path d="M163,-130L-127,-104L82,-94Z" fill="rgb(176,28,71)" stroke="rgb(176,28,71)" stroke-width="1.51"></path><path d="M-136,341L-142,521L-117,418Z" fill="rgb(137,53,112)" stroke="rgb(137,53,112)" stroke-width="1.51"></path><path d="M-117,418L-142,521L-11,483Z" fill="rgb(137,53,112)" stroke="rgb(137,53,112)" stroke-width="1.51"></path><path d="M-134,169L-142,521L-136,341Z" fill="rgb(142,101,120)" stroke="rgb(142,101,120)" stroke-width="1.51"></path></svg>