<svg width="600" height="400" xmlns="http://www.w3.org/2000/svg"><path d="M279,212L322,260L322,215Z" fill="rgb(137,137,137)" stroke="rgb(137,137,137)" stroke-width="1.51"></path><path d="M279,212L264,291L322,260Z" fill="rgb(134,134,134)" stroke="rgb(134,134,134)" stroke-width="1.51"></path><path d="M279,212L204,257L264,291Z" fill="rgb(144,144,144)" stroke="rgb(144,144,144)" stroke-width="1.51"></path><path d="M322,215L337,127L279,212Z" fill="rgb(153,153,153)" stroke="rgb(153,153,153)" stroke-width="1.51"></path><path d="M399,281L396,191L322,215Z" fill="rgb(122,122,122)" stroke="rgb(122,122,122)" stroke-width="1.51"></path><path d="M322,260L399,281L322,215Z" fill="rgb(121,121,121)" stroke="rgb(121,121,121)" stroke-width="1.51"></path><path d="M354,354L399,281L322,260Z" fill="rgb(103,103,103)" stroke="rgb(103,103,103)" stroke-width="1.51"></path><path d="M264,291L354,354L322,260Z" fill="rgb(111,111,111)" stroke="rgb(111,111,111)" stroke-width="1.51"></path><path d="M204,257L251,338L264,291Z" fill="rgb(131,131,131)" stroke="rgb(131,131,131)" stroke-width="1.51"></path><path d="M396,191L337,127L322,215Z" fill="rgb(146,146,146)" stroke="rgb(146,146,146)" stroke-width="1.51"></path><path d="M279,212L175,211L204,257Z" fill="rgb(160,160,160)" stroke="rgb(160,160,160)" stroke-width="1.51"></path><path d="M337,127L276,120L279,212Z" fill="rgb(169,169,169)" stroke="rgb(169,169,169)" stroke-width="1.51"></path><path d="M186,131L175,211L279,212Z" fill="rgb(177,177,177)" stroke="rgb(177,177,177)" stroke-width="1.51"></path><path d="M204,257L175,353L251,338Z" fill="rgb(128,128,128)" stroke="rgb(128,128,128)" stroke-width="1.51"></path><path d="M251,338L354,354L264,291Z" fill="rgb(103,103,103)" stroke="rgb(103,103,103)" stroke-width="1.51"></path><path d="M276,120L186,131L279,212Z" fill="rgb(181,181,181)" stroke="rgb(181,181,181)" stroke-width="1.51"></path><path d="M479,112L410,115L396,191Z" fill="rgb(141,141,141)" stroke="rgb(141,141,141)" stroke-width="1.51"></path><path d="M354,354L412,353L399,281Z" fill="rgb(81,81,81)" stroke="rgb(81,81,81)" stroke-width="1.51"></path><path d="M396,191L410,115L337,127Z" fill="rgb(151,151,151)" stroke="rgb(151,151,151)" stroke-width="1.51"></path><path d="M343,58L252,65L276,120Z" fill="rgb(190,190,190)" stroke="rgb(190,190,190)" stroke-width="1.51"></path><path d="M493,211L396,191L399,281Z" fill="rgb(110,110,110)" stroke="rgb(110,110,110)" stroke-width="1.51"></path><path d="M251,338L327,422L354,354Z" fill="rgb(80,80,80)" stroke="rgb(80,80,80)" stroke-width="1.51"></path><path d="M124,262L175,353L204,257Z" fill="rgb(147,147,147)" stroke="rgb(147,147,147)" stroke-width="1.51"></path><path d="M175,211L124,262L204,257Z" fill="rgb(164,164,164)" stroke="rgb(164,164,164)" stroke-width="1.51"></path><path d="M113,190L124,262L175,211Z" fill="rgb(177,177,177)" stroke="rgb(177,177,177)" stroke-width="1.51"></path><path d="M276,120L252,65L186,131Z" fill="rgb(198,198,198)" stroke="rgb(198,198,198)" stroke-width="1.51"></path><path d="M343,58L276,120L337,127Z" fill="rgb(178,178,178)" stroke="rgb(178,178,178)" stroke-width="1.51"></path><path d="M410,115L343,58L337,127Z" fill="rgb(167,167,167)" stroke="rgb(167,167,167)" stroke-width="1.51"></path><path d="M354,354L412,410L412,353Z" fill="rgb(63,63,63)" stroke="rgb(63,63,63)" stroke-width="1.51"></path><path d="M263,424L327,422L251,338Z" fill="rgb(79,79,79)" stroke="rgb(79,79,79)" stroke-width="1.51"></path><path d="M196,431L263,424L251,338Z" fill="rgb(88,88,88)" stroke="rgb(88,88,88)" stroke-width="1.51"></path><path d="M186,131L113,190L175,211Z" fill="rgb(190,190,190)" stroke="rgb(190,190,190)" stroke-width="1.51"></path><path d="M105,119L113,190L186,131Z" fill="rgb(206,206,206)" stroke="rgb(206,206,206)" stroke-width="1.51"></path><path d="M493,292L493,211L399,281Z" fill="rgb(91,91,91)" stroke="rgb(91,91,91)" stroke-width="1.51"></path><path d="M412,353L493,292L399,281Z" fill="rgb(81,81,81)" stroke="rgb(81,81,81)" stroke-width="1.51"></path><path d="M470,366L493,292L412,353Z" fill="rgb(62,62,62)" stroke="rgb(62,62,62)" stroke-width="1.51"></path><path d="M327,422L412,410L354,354Z" fill="rgb(61,61,61)" stroke="rgb(61,61,61)" stroke-width="1.51"></path><path d="M412,410L470,366L412,353Z" fill="rgb(54,54,54)" stroke="rgb(54,54,54)" stroke-width="1.51"></path><path d="M478,67L415,56L410,115Z" fill="rgb(155,155,155)" stroke="rgb(155,155,155)" stroke-width="1.51"></path><path d="M410,115L415,56L343,58Z" fill="rgb(167,167,167)" stroke="rgb(167,167,167)" stroke-width="1.51"></path><path d="M124,262L104,332L175,353Z" fill="rgb(140,140,140)" stroke="rgb(140,140,140)" stroke-width="1.51"></path><path d="M175,353L196,431L251,338Z" fill="rgb(103,103,103)" stroke="rgb(103,103,103)" stroke-width="1.51"></path><path d="M31,260L104,332L124,262Z" fill="rgb(161,161,161)" stroke="rgb(161,161,161)" stroke-width="1.51"></path><path d="M121,411L196,431L175,353Z" fill="rgb(101,101,101)" stroke="rgb(101,101,101)" stroke-width="1.51"></path><path d="M263,424L248,498L327,422Z" fill="rgb(78,78,78)" stroke="rgb(78,78,78)" stroke-width="1.51"></path><path d="M493,211L479,112L396,191Z" fill="rgb(123,123,123)" stroke="rgb(123,123,123)" stroke-width="1.51"></path><path d="M252,65L188,46L186,131Z" fill="rgb(210,210,210)" stroke="rgb(210,210,210)" stroke-width="1.51"></path><path d="M270,-9L188,46L252,65Z" fill="rgb(214,214,214)" stroke="rgb(214,214,214)" stroke-width="1.51"></path><path d="M270,-9L252,65L343,58Z" fill="rgb(199,199,199)" stroke="rgb(199,199,199)" stroke-width="1.51"></path><path d="M188,46L105,119L186,131Z" fill="rgb(215,215,215)" stroke="rgb(215,215,215)" stroke-width="1.51"></path><path d="M113,190L39,211L124,262Z" fill="rgb(184,184,184)" stroke="rgb(184,184,184)" stroke-width="1.51"></path><path d="M479,112L478,67L410,115Z" fill="rgb(145,145,145)" stroke="rgb(145,145,145)" stroke-width="1.51"></path><path d="M568,139L478,67L479,112Z" fill="rgb(125,125,125)" stroke="rgb(125,125,125)" stroke-width="1.51"></path><path d="M345,-27L270,-9L343,58Z" fill="rgb(195,195,195)" stroke="rgb(195,195,195)" stroke-width="1.51"></path><path d="M345,-27L343,58L415,56Z" fill="rgb(180,180,180)" stroke="rgb(180,180,180)" stroke-width="1.51"></path><path d="M104,332L121,411L175,353Z" fill="rgb(117,117,117)" stroke="rgb(117,117,117)" stroke-width="1.51"></path><path d="M555,355L570,288L493,292Z" fill="rgb(50,50,50)" stroke="rgb(50,50,50)" stroke-width="1.51"></path><path d="M412,410L486,413L470,366Z" fill="rgb(42,42,42)" stroke="rgb(42,42,42)" stroke-width="1.51"></path><path d="M402,501L486,413L412,410Z" fill="rgb(46,46,46)" stroke="rgb(46,46,46)" stroke-width="1.51"></path><path d="M402,501L412,410L327,422Z" fill="rgb(57,57,57)" stroke="rgb(57,57,57)" stroke-width="1.51"></path><path d="M493,211L568,139L479,112Z" fill="rgb(111,111,111)" stroke="rgb(111,111,111)" stroke-width="1.51"></path><path d="M493,292L558,213L493,211Z" fill="rgb(81,81,81)" stroke="rgb(81,81,81)" stroke-width="1.51"></path><path d="M570,288L558,213L493,292Z" fill="rgb(66,66,66)" stroke="rgb(66,66,66)" stroke-width="1.51"></path><path d="M45,107L39,211L113,190Z" fill="rgb(207,207,207)" stroke="rgb(207,207,207)" stroke-width="1.51"></path><path d="M104,332L27,366L121,411Z" fill="rgb(122,122,122)" stroke="rgb(122,122,122)" stroke-width="1.51"></path><path d="M196,431L248,498L263,424Z" fill="rgb(88,88,88)" stroke="rgb(88,88,88)" stroke-width="1.51"></path><path d="M191,501L248,498L196,431Z" fill="rgb(92,92,92)" stroke="rgb(92,92,92)" stroke-width="1.51"></path><path d="M399,-34L345,-27L415,56Z" fill="rgb(180,180,180)" stroke="rgb(180,180,180)" stroke-width="1.51"></path><path d="M39,211L31,260L124,262Z" fill="rgb(179,179,179)" stroke="rgb(179,179,179)" stroke-width="1.51"></path><path d="M105,119L45,107L113,190Z" fill="rgb(215,215,215)" stroke="rgb(215,215,215)" stroke-width="1.51"></path><path d="M188,46L100,51L105,119Z" fill="rgb(226,226,226)" stroke="rgb(226,226,226)" stroke-width="1.51"></path><path d="M113,-19L100,51L188,46Z" fill="rgb(234,234,234)" stroke="rgb(234,234,234)" stroke-width="1.51"></path><path d="M248,498L340,507L327,422Z" fill="rgb(72,72,72)" stroke="rgb(72,72,72)" stroke-width="1.51"></path><path d="M555,355L493,292L470,366Z" fill="rgb(48,48,48)" stroke="rgb(48,48,48)" stroke-width="1.51"></path><path d="M181,-97L185,-16L270,-9Z" fill="rgb(224,224,224)" stroke="rgb(224,224,224)" stroke-width="1.51"></path><path d="M270,-9L185,-16L188,46Z" fill="rgb(223,223,223)" stroke="rgb(223,223,223)" stroke-width="1.51"></path><path d="M549,407L555,355L470,366Z" fill="rgb(29,29,29)" stroke="rgb(29,29,29)" stroke-width="1.51"></path><path d="M340,507L402,501L327,422Z" fill="rgb(62,62,62)" stroke="rgb(62,62,62)" stroke-width="1.51"></path><path d="M486,413L549,407L470,366Z" fill="rgb(30,30,30)" stroke="rgb(30,30,30)" stroke-width="1.51"></path><path d="M102,487L191,501L196,431Z" fill="rgb(100,100,100)" stroke="rgb(100,100,100)" stroke-width="1.51"></path><path d="M248,498L191,501L340,507Z" fill="rgb(82,82,82)" stroke="rgb(82,82,82)" stroke-width="1.51"></path><path d="M-41,199L-35,275L31,260Z" fill="rgb(185,185,185)" stroke="rgb(185,185,185)" stroke-width="1.51"></path><path d="M100,51L45,107L105,119Z" fill="rgb(228,228,228)" stroke="rgb(228,228,228)" stroke-width="1.51"></path><path d="M650,205L568,139L558,213Z" fill="rgb(80,80,80)" stroke="rgb(80,80,80)" stroke-width="1.51"></path><path d="M558,213L568,139L493,211Z" fill="rgb(91,91,91)" stroke="rgb(91,91,91)" stroke-width="1.51"></path><path d="M126,-98L113,-19L185,-16Z" fill="rgb(237,237,237)" stroke="rgb(237,237,237)" stroke-width="1.51"></path><path d="M500,-22L399,-34L415,56Z" fill="rgb(167,167,167)" stroke="rgb(167,167,167)" stroke-width="1.51"></path><path d="M500,-22L415,56L478,67Z" fill="rgb(154,154,154)" stroke="rgb(154,154,154)" stroke-width="1.51"></path><path d="M31,260L27,366L104,332Z" fill="rgb(149,149,149)" stroke="rgb(149,149,149)" stroke-width="1.51"></path><path d="M121,411L102,487L196,431Z" fill="rgb(104,104,104)" stroke="rgb(104,104,104)" stroke-width="1.51"></path><path d="M569,485L549,407L486,413Z" fill="rgb(20,20,20)" stroke="rgb(20,20,20)" stroke-width="1.51"></path><path d="M650,342L648,264L570,288Z" fill="rgb(43,43,43)" stroke="rgb(43,43,43)" stroke-width="1.51"></path><path d="M100,51L39,35L45,107Z" fill="rgb(238,238,238)" stroke="rgb(238,238,238)" stroke-width="1.51"></path><path d="M185,-16L113,-19L188,46Z" fill="rgb(233,233,233)" stroke="rgb(233,233,233)" stroke-width="1.51"></path><path d="M277,-117L270,-9L345,-27Z" fill="rgb(202,202,202)" stroke="rgb(202,202,202)" stroke-width="1.51"></path><path d="M27,366L42,423L121,411Z" fill="rgb(113,113,113)" stroke="rgb(113,113,113)" stroke-width="1.51"></path><path d="M42,423L102,487L121,411Z" fill="rgb(111,111,111)" stroke="rgb(111,111,111)" stroke-width="1.51"></path><path d="M578,44L500,-22L478,67Z" fill="rgb(136,136,136)" stroke="rgb(136,136,136)" stroke-width="1.51"></path><path d="M113,-19L39,35L100,51Z" fill="rgb(242,242,242)" stroke="rgb(242,242,242)" stroke-width="1.51"></path><path d="M-41,199L31,260L39,211Z" fill="rgb(191,191,191)" stroke="rgb(191,191,191)" stroke-width="1.51"></path><path d="M31,260L-35,275L27,366Z" fill="rgb(163,163,163)" stroke="rgb(163,163,163)" stroke-width="1.51"></path><path d="M27,366L-50,418L42,423Z" fill="rgb(118,118,118)" stroke="rgb(118,118,118)" stroke-width="1.51"></path><path d="M-41,199L39,211L-55,142Z" fill="rgb(208,208,208)" stroke="rgb(208,208,208)" stroke-width="1.51"></path><path d="M421,-85L348,-97L399,-34Z" fill="rgb(179,179,179)" stroke="rgb(179,179,179)" stroke-width="1.51"></path><path d="M399,-34L348,-97L345,-27Z" fill="rgb(185,185,185)" stroke="rgb(185,185,185)" stroke-width="1.51"></path><path d="M568,139L578,44L478,67Z" fill="rgb(120,120,120)" stroke="rgb(120,120,120)" stroke-width="1.51"></path><path d="M623,57L578,44L568,139Z" fill="rgb(109,109,109)" stroke="rgb(109,109,109)" stroke-width="1.51"></path><path d="M-55,142L39,211L45,107Z" fill="rgb(219,219,219)" stroke="rgb(219,219,219)" stroke-width="1.51"></path><path d="M402,501L504,513L486,413Z" fill="rgb(39,39,39)" stroke="rgb(39,39,39)" stroke-width="1.51"></path><path d="M340,507L504,513L402,501Z" fill="rgb(50,50,50)" stroke="rgb(50,50,50)" stroke-width="1.51"></path><path d="M500,-22L421,-85L399,-34Z" fill="rgb(166,166,166)" stroke="rgb(166,166,166)" stroke-width="1.51"></path><path d="M570,288L648,264L558,213Z" fill="rgb(58,58,58)" stroke="rgb(58,58,58)" stroke-width="1.51"></path><path d="M650,342L570,288L555,355Z" fill="rgb(33,33,33)" stroke="rgb(33,33,33)" stroke-width="1.51"></path><path d="M650,342L555,355L549,407Z" fill="rgb(20,20,20)" stroke="rgb(20,20,20)" stroke-width="1.51"></path><path d="M648,264L650,205L558,213Z" fill="rgb(65,65,65)" stroke="rgb(65,65,65)" stroke-width="1.51"></path><path d="M277,-117L181,-97L270,-9Z" fill="rgb(217,217,217)" stroke="rgb(217,217,217)" stroke-width="1.51"></path><path d="M113,-19L43,-33L39,35Z" fill="rgb(248,248,248)" stroke="rgb(248,248,248)" stroke-width="1.51"></path><path d="M495,-96L277,-117L348,-97Z" fill="rgb(183,183,183)" stroke="rgb(183,183,183)" stroke-width="1.51"></path><path d="M348,-97L277,-117L345,-27Z" fill="rgb(195,195,195)" stroke="rgb(195,195,195)" stroke-width="1.51"></path><path d="M650,205L639,125L568,139Z" fill="rgb(88,88,88)" stroke="rgb(88,88,88)" stroke-width="1.51"></path><path d="M-35,275L-55,332L27,366Z" fill="rgb(151,151,151)" stroke="rgb(151,151,151)" stroke-width="1.51"></path><path d="M42,423L37,512L102,487Z" fill="rgb(114,114,114)" stroke="rgb(114,114,114)" stroke-width="1.51"></path><path d="M-128,289L-55,332L-35,275Z" fill="rgb(165,165,165)" stroke="rgb(165,165,165)" stroke-width="1.51"></path><path d="M646,438L650,342L549,407Z" fill="rgb(2,3,2)" stroke="rgb(2,3,2)" stroke-width="1.51"></path><path d="M648,264L705,213L650,205Z" fill="rgb(65,65,65)" stroke="rgb(65,65,65)" stroke-width="1.51"></path><path d="M504,513L569,485L486,413Z" fill="rgb(24,24,24)" stroke="rgb(24,24,24)" stroke-width="1.51"></path><path d="M-41,199L-103,198L-35,275Z" fill="rgb(192,192,192)" stroke="rgb(192,192,192)" stroke-width="1.51"></path><path d="M-39,47L-55,142L45,107Z" fill="rgb(236,236,236)" stroke="rgb(236,236,236)" stroke-width="1.51"></path><path d="M639,125L623,57L568,139Z" fill="rgb(101,101,101)" stroke="rgb(101,101,101)" stroke-width="1.51"></path><path d="M578,44L576,-22L500,-22Z" fill="rgb(131,131,131)" stroke="rgb(131,131,131)" stroke-width="1.51"></path><path d="M500,-22L495,-96L421,-85Z" fill="rgb(156,156,156)" stroke="rgb(156,156,156)" stroke-width="1.51"></path><path d="M39,35L-39,47L45,107Z" fill="rgb(243,243,243)" stroke="rgb(243,243,243)" stroke-width="1.51"></path><path d="M126,-98L43,-33L113,-19Z" fill="rgb(244,244,244)" stroke="rgb(244,244,244)" stroke-width="1.51"></path><path d="M277,-117L126,-98L181,-97Z" fill="rgb(227,227,227)" stroke="rgb(227,227,227)" stroke-width="1.51"></path><path d="M181,-97L126,-98L185,-16Z" fill="rgb(233,233,233)" stroke="rgb(233,233,233)" stroke-width="1.51"></path><path d="M-23,507L37,512L42,423Z" fill="rgb(117,117,117)" stroke="rgb(117,117,117)" stroke-width="1.51"></path><path d="M102,487L37,512L191,501Z" fill="rgb(108,108,108)" stroke="rgb(108,108,108)" stroke-width="1.51"></path><path d="M191,501L37,512L340,507Z" fill="rgb(96,96,96)" stroke="rgb(96,96,96)" stroke-width="1.51"></path><path d="M340,507L37,512L504,513Z" fill="rgb(74,74,74)" stroke="rgb(74,74,74)" stroke-width="1.51"></path><path d="M622,-20L576,-22L578,44Z" fill="rgb(121,121,121)" stroke="rgb(121,121,121)" stroke-width="1.51"></path><path d="M421,-85L495,-96L348,-97Z" fill="rgb(171,171,171)" stroke="rgb(171,171,171)" stroke-width="1.51"></path><path d="M567,-87L495,-96L500,-22Z" fill="rgb(139,139,139)" stroke="rgb(139,139,139)" stroke-width="1.51"></path><path d="M-22,-16L-39,47L39,35Z" fill="rgb(251,251,251)" stroke="rgb(251,251,251)" stroke-width="1.51"></path><path d="M-55,332L-50,418L27,366Z" fill="rgb(129,129,129)" stroke="rgb(129,129,129)" stroke-width="1.51"></path><path d="M569,485L646,438L549,407Z" fill="rgb(4,5,4)" stroke="rgb(4,5,4)" stroke-width="1.51"></path><path d="M-99,140L-103,198L-55,142Z" fill="rgb(217,217,217)" stroke="rgb(217,217,217)" stroke-width="1.51"></path><path d="M-55,142L-103,198L-41,199Z" fill="rgb(210,210,210)" stroke="rgb(210,210,210)" stroke-width="1.51"></path><path d="M-55,332L-123,365L-50,418Z" fill="rgb(129,129,129)" stroke="rgb(129,129,129)" stroke-width="1.51"></path><path d="M650,205L730,133L639,125Z" fill="rgb(89,89,89)" stroke="rgb(89,89,89)" stroke-width="1.51"></path><path d="M639,125L697,62L623,57Z" fill="rgb(106,106,106)" stroke="rgb(106,106,106)" stroke-width="1.51"></path><path d="M719,282L705,213L648,264Z" fill="rgb(57,57,57)" stroke="rgb(57,57,57)" stroke-width="1.51"></path><path d="M719,282L648,264L650,342Z" fill="rgb(44,44,44)" stroke="rgb(44,44,44)" stroke-width="1.51"></path><path d="M43,-33L-22,-16L39,35Z" fill="rgb(253,253,253)" stroke="rgb(253,253,253)" stroke-width="1.51"></path><path d="M-39,47L-99,140L-55,142Z" fill="rgb(233,233,233)" stroke="rgb(233,233,233)" stroke-width="1.51"></path><path d="M31,-99L-22,-16L43,-33Z" fill="rgb(253,253,253)" stroke="rgb(253,253,253)" stroke-width="1.51"></path><path d="M-124,40L-99,140L-39,47Z" fill="rgb(241,241,241)" stroke="rgb(241,241,241)" stroke-width="1.51"></path><path d="M504,513L624,491L569,485Z" fill="rgb(12,12,12)" stroke="rgb(12,12,12)" stroke-width="1.51"></path><path d="M569,485L624,491L646,438Z" fill="rgb(0,0,0)" stroke="rgb(0,0,0)" stroke-width="1.51"></path><path d="M576,-22L567,-87L500,-22Z" fill="rgb(132,132,132)" stroke="rgb(132,132,132)" stroke-width="1.51"></path><path d="M623,57L622,-20L578,44Z" fill="rgb(115,115,115)" stroke="rgb(115,115,115)" stroke-width="1.51"></path><path d="M697,62L622,-20L623,57Z" fill="rgb(115,115,115)" stroke="rgb(115,115,115)" stroke-width="1.51"></path><path d="M-50,418L-23,507L42,423Z" fill="rgb(119,119,119)" stroke="rgb(119,119,119)" stroke-width="1.51"></path><path d="M627,-85L567,-87L576,-22Z" fill="rgb(121,121,121)" stroke="rgb(121,121,121)" stroke-width="1.51"></path><path d="M721,344L650,342L710,414Z" fill="rgb(17,17,17)" stroke="rgb(17,17,17)" stroke-width="1.51"></path><path d="M721,344L719,282L650,342Z" fill="rgb(33,33,33)" stroke="rgb(33,33,33)" stroke-width="1.51"></path><path d="M-50,418L-112,426L-23,507Z" fill="rgb(119,119,119)" stroke="rgb(119,119,119)" stroke-width="1.51"></path><path d="M-103,198L-128,289L-35,275Z" fill="rgb(181,181,181)" stroke="rgb(181,181,181)" stroke-width="1.51"></path><path d="M-124,40L-128,289L-103,198Z" fill="rgb(211,211,211)" stroke="rgb(211,211,211)" stroke-width="1.51"></path><path d="M277,-117L31,-99L126,-98Z" fill="rgb(237,237,237)" stroke="rgb(237,237,237)" stroke-width="1.51"></path><path d="M126,-98L31,-99L43,-33Z" fill="rgb(248,248,248)" stroke="rgb(248,248,248)" stroke-width="1.51"></path><path d="M622,-20L627,-85L576,-22Z" fill="rgb(119,119,119)" stroke="rgb(119,119,119)" stroke-width="1.51"></path><path d="M730,133L697,62L639,125Z" fill="rgb(101,101,101)" stroke="rgb(101,101,101)" stroke-width="1.51"></path><path d="M730,133L650,205L705,213Z" fill="rgb(79,79,79)" stroke="rgb(79,79,79)" stroke-width="1.51"></path><path d="M710,414L650,342L646,438Z" fill="rgb(1,1,1)" stroke="rgb(1,1,1)" stroke-width="1.51"></path><path d="M-128,289L-123,365L-55,332Z" fill="rgb(149,149,149)" stroke="rgb(149,149,149)" stroke-width="1.51"></path><path d="M721,344L730,133L719,282Z" fill="rgb(57,57,57)" stroke="rgb(57,57,57)" stroke-width="1.51"></path><path d="M719,282L730,133L705,213Z" fill="rgb(70,70,70)" stroke="rgb(70,70,70)" stroke-width="1.51"></path><path d="M724,512L710,414L646,438Z" fill="rgb(0,0,0)" stroke="rgb(0,0,0)" stroke-width="1.51"></path><path d="M-123,365L-112,426L-50,418Z" fill="rgb(119,119,119)" stroke="rgb(119,119,119)" stroke-width="1.51"></path><path d="M722,-25L627,-85L622,-20Z" fill="rgb(119,119,119)" stroke="rgb(119,119,119)" stroke-width="1.51"></path><path d="M567,-87L719,-112L495,-96Z" fill="rgb(121,121,121)" stroke="rgb(121,121,121)" stroke-width="1.51"></path><path d="M495,-96L719,-112L277,-117Z" fill="rgb(147,147,147)" stroke="rgb(147,147,147)" stroke-width="1.51"></path><path d="M-99,140L-124,40L-103,198Z" fill="rgb(228,228,228)" stroke="rgb(228,228,228)" stroke-width="1.51"></path><path d="M-119,-40L-124,40L-39,47Z" fill="rgb(252,252,252)" stroke="rgb(252,252,252)" stroke-width="1.51"></path><path d="M-119,-40L-39,47L-22,-16Z" fill="rgb(255,255,255)" stroke="rgb(255,255,255)" stroke-width="1.51"></path><path d="M31,-99L-42,-90L-22,-16Z" fill="rgb(255,255,255)" stroke="rgb(255,255,255)" stroke-width="1.51"></path><path d="M697,62L722,-25L622,-20Z" fill="rgb(118,118,118)" stroke="rgb(118,118,118)" stroke-width="1.51"></path><path d="M730,133L722,-25L697,62Z" fill="rgb(111,111,111)" stroke="rgb(111,111,111)" stroke-width="1.51"></path><path d="M-42,-90L-119,-40L-22,-16Z" fill="rgb(255,255,255)" stroke="rgb(255,255,255)" stroke-width="1.51"></path><path d="M-23,507L-118,517L37,512Z" fill="rgb(119,119,119)" stroke="rgb(119,119,119)" stroke-width="1.51"></path><path d="M37,512L-118,517L504,513Z" fill="rgb(104,104,104)" stroke="rgb(104,104,104)" stroke-width="1.51"></path><path d="M-112,426L-118,517L-23,507Z" fill="rgb(119,119,119)" stroke="rgb(119,119,119)" stroke-width="1.51"></path><path d="M-123,365L-118,517L-112,426Z" fill="rgb(119,119,119)" stroke="rgb(119,119,119)" stroke-width="1.51"></path><path d="M-128,289L-118,517L-123,365Z" fill="rgb(122,122,122)" stroke="rgb(122,122,122)" stroke-width="1.51"></path><path d="M624,491L724,512L646,438Z" fill="rgb(0,0,0)" stroke="rgb(0,0,0)" stroke-width="1.51"></path><path d="M710,414L724,512L721,344Z" fill="rgb(0,0,0)" stroke="rgb(0,0,0)" stroke-width="1.51"></path><path d="M721,344L724,512L730,133Z" fill="rgb(31,31,31)" stroke="rgb(31,31,31)" stroke-width="1.51"></path><path d="M504,513L724,512L624,491Z" fill="rgb(0,0,0)" stroke="rgb(0,0,0)" stroke-width="1.51"></path><path d="M-118,517L724,512L504,513Z" fill="rgb(58,58,58)" stroke="rgb(58,58,58)" stroke-width="1.51"></path><path d="M-42,-90L-111,-86L-119,-40Z" fill="rgb(255,255,255)" stroke="rgb(255,255,255)" stroke-width="1.51"></path><path d="M31,-99L-111,-86L-42,-90Z" fill="rgb(255,255,255)" stroke="rgb(255,255,255)" stroke-width="1.51"></path><path d="M730,133L719,-112L722,-25Z" fill="rgb(119,119,119)" stroke="rgb(119,119,119)" stroke-width="1.51"></path><path d="M722,-25L719,-112L627,-85Z" fill="rgb(119,119,119)" stroke="rgb(119,119,119)" stroke-width="1.51"></path><path d="M627,-85L719,-112L567,-87Z" fill="rgb(119,119,119)" stroke="rgb(119,119,119)" stroke-width="1.51"></path></svg>