<svg width="600" height="400" xmlns="http://www.w3.org/2000/svg"><path d="M274,216L201,267L261,265Z" fill="rgb(110,191,119)" stroke="rgb(110,191,119)" stroke-width="1.51"></path><path d="M274,216L206,180L201,267Z" fill="rgb(129,201,130)" stroke="rgb(129,201,130)" stroke-width="1.51"></path><path d="M201,267L258,330L261,265Z" fill="rgb(101,180,111)" stroke="rgb(101,180,111)" stroke-width="1.51"></path><path d="M359,288L341,190L274,216Z" fill="rgb(93,184,106)" stroke="rgb(93,184,106)" stroke-width="1.51"></path><path d="M201,267L190,336L258,330Z" fill="rgb(103,175,110)" stroke="rgb(103,175,110)" stroke-width="1.51"></path><path d="M121,273L190,336L201,267Z" fill="rgb(120,186,126)" stroke="rgb(120,186,126)" stroke-width="1.51"></path><path d="M274,216L240,117L206,180Z" fill="rgb(147,211,143)" stroke="rgb(147,211,143)" stroke-width="1.51"></path><path d="M105,200L121,273L201,267Z" fill="rgb(139,204,144)" stroke="rgb(139,204,144)" stroke-width="1.51"></path><path d="M105,200L201,267L206,180Z" fill="rgb(146,209,146)" stroke="rgb(146,209,146)" stroke-width="1.51"></path><path d="M274,216L328,134L240,117Z" fill="rgb(142,208,139)" stroke="rgb(142,208,139)" stroke-width="1.51"></path><path d="M359,288L274,216L261,265Z" fill="rgb(91,182,104)" stroke="rgb(91,182,104)" stroke-width="1.51"></path><path d="M128,116L105,200L206,180Z" fill="rgb(174,223,169)" stroke="rgb(174,223,169)" stroke-width="1.51"></path><path d="M240,117L197,103L206,180Z" fill="rgb(170,221,163)" stroke="rgb(170,221,163)" stroke-width="1.51"></path><path d="M341,190L328,134L274,216Z" fill="rgb(121,198,123)" stroke="rgb(121,198,123)" stroke-width="1.51"></path><path d="M240,117L250,62L197,103Z" fill="rgb(181,225,174)" stroke="rgb(181,225,174)" stroke-width="1.51"></path><path d="M328,336L359,288L261,265Z" fill="rgb(74,166,92)" stroke="rgb(74,166,92)" stroke-width="1.51"></path><path d="M332,415L328,336L258,330Z" fill="rgb(63,146,77)" stroke="rgb(63,146,77)" stroke-width="1.51"></path><path d="M258,330L328,336L261,265Z" fill="rgb(82,167,95)" stroke="rgb(82,167,95)" stroke-width="1.51"></path><path d="M197,103L128,116L206,180Z" fill="rgb(180,225,173)" stroke="rgb(180,225,173)" stroke-width="1.51"></path><path d="M190,336L176,416L258,330Z" fill="rgb(94,159,99)" stroke="rgb(94,159,99)" stroke-width="1.51"></path><path d="M121,273L114,350L190,336Z" fill="rgb(120,180,125)" stroke="rgb(120,180,125)" stroke-width="1.51"></path><path d="M18,343L114,350L121,273Z" fill="rgb(131,184,136)" stroke="rgb(131,184,136)" stroke-width="1.51"></path><path d="M328,134L250,62L240,117Z" fill="rgb(165,218,160)" stroke="rgb(165,218,160)" stroke-width="1.51"></path><path d="M197,103L173,35L128,116Z" fill="rgb(200,234,193)" stroke="rgb(200,234,193)" stroke-width="1.51"></path><path d="M417,292L410,219L359,288Z" fill="rgb(56,161,85)" stroke="rgb(56,161,85)" stroke-width="1.51"></path><path d="M359,288L410,219L341,190Z" fill="rgb(77,176,98)" stroke="rgb(77,176,98)" stroke-width="1.51"></path><path d="M341,190L387,105L328,134Z" fill="rgb(126,199,130)" stroke="rgb(126,199,130)" stroke-width="1.51"></path><path d="M105,200L43,206L121,273Z" fill="rgb(160,213,161)" stroke="rgb(160,213,161)" stroke-width="1.51"></path><path d="M32,109L43,206L105,200Z" fill="rgb(188,227,183)" stroke="rgb(188,227,183)" stroke-width="1.51"></path><path d="M114,350L176,416L190,336Z" fill="rgb(105,161,109)" stroke="rgb(105,161,109)" stroke-width="1.51"></path><path d="M428,348L417,292L359,288Z" fill="rgb(43,146,74)" stroke="rgb(43,146,74)" stroke-width="1.51"></path><path d="M428,348L359,288L328,336Z" fill="rgb(46,148,75)" stroke="rgb(46,148,75)" stroke-width="1.51"></path><path d="M328,134L356,70L250,62Z" fill="rgb(159,214,156)" stroke="rgb(159,214,156)" stroke-width="1.51"></path><path d="M410,219L387,105L341,190Z" fill="rgb(105,188,115)" stroke="rgb(105,188,115)" stroke-width="1.51"></path><path d="M250,62L173,35L197,103Z" fill="rgb(195,231,188)" stroke="rgb(195,231,188)" stroke-width="1.51"></path><path d="M128,116L32,109L105,200Z" fill="rgb(196,232,189)" stroke="rgb(196,232,189)" stroke-width="1.51"></path><path d="M173,-7L173,35L246,-16Z" fill="rgb(211,237,206)" stroke="rgb(211,237,206)" stroke-width="1.51"></path><path d="M387,105L356,70L328,134Z" fill="rgb(140,205,144)" stroke="rgb(140,205,144)" stroke-width="1.51"></path><path d="M266,449L332,415L258,330Z" fill="rgb(65,132,74)" stroke="rgb(65,132,74)" stroke-width="1.51"></path><path d="M43,206L17,258L121,273Z" fill="rgb(156,210,160)" stroke="rgb(156,210,160)" stroke-width="1.51"></path><path d="M114,350L128,420L176,416Z" fill="rgb(105,150,108)" stroke="rgb(105,150,108)" stroke-width="1.51"></path><path d="M61,418L128,420L114,350Z" fill="rgb(112,152,114)" stroke="rgb(112,152,114)" stroke-width="1.51"></path><path d="M176,416L266,449L258,330Z" fill="rgb(81,139,86)" stroke="rgb(81,139,86)" stroke-width="1.51"></path><path d="M284,480L266,449L209,490Z" fill="rgb(75,135,81)" stroke="rgb(75,135,81)" stroke-width="1.51"></path><path d="M173,35L97,44L128,116Z" fill="rgb(213,239,206)" stroke="rgb(213,239,206)" stroke-width="1.51"></path><path d="M-30,210L-13,272L17,258Z" fill="rgb(163,213,168)" stroke="rgb(163,213,168)" stroke-width="1.51"></path><path d="M417,292L486,269L410,219Z" fill="rgb(50,154,80)" stroke="rgb(50,154,80)" stroke-width="1.51"></path><path d="M406,400L428,348L328,336Z" fill="rgb(34,132,64)" stroke="rgb(34,132,64)" stroke-width="1.51"></path><path d="M97,44L32,109L128,116Z" fill="rgb(215,240,209)" stroke="rgb(215,240,209)" stroke-width="1.51"></path><path d="M17,258L18,343L121,273Z" fill="rgb(144,195,149)" stroke="rgb(144,195,149)" stroke-width="1.51"></path><path d="M173,35L136,-21L97,44Z" fill="rgb(223,242,217)" stroke="rgb(223,242,217)" stroke-width="1.51"></path><path d="M246,-16L173,35L250,62Z" fill="rgb(200,233,195)" stroke="rgb(200,233,195)" stroke-width="1.51"></path><path d="M430,493L406,400L332,415Z" fill="rgb(30,115,56)" stroke="rgb(30,115,56)" stroke-width="1.51"></path><path d="M332,415L406,400L328,336Z" fill="rgb(43,128,64)" stroke="rgb(43,128,64)" stroke-width="1.51"></path><path d="M17,258L-13,272L18,343Z" fill="rgb(149,198,155)" stroke="rgb(149,198,155)" stroke-width="1.51"></path><path d="M-30,210L17,258L43,206Z" fill="rgb(171,218,173)" stroke="rgb(171,218,173)" stroke-width="1.51"></path><path d="M332,-5L246,-16L250,62Z" fill="rgb(188,227,184)" stroke="rgb(188,227,184)" stroke-width="1.51"></path><path d="M209,490L266,449L176,416Z" fill="rgb(85,140,89)" stroke="rgb(85,140,89)" stroke-width="1.51"></path><path d="M18,343L61,418L114,350Z" fill="rgb(124,167,127)" stroke="rgb(124,167,127)" stroke-width="1.51"></path><path d="M266,449L284,480L332,415Z" fill="rgb(62,130,72)" stroke="rgb(62,130,72)" stroke-width="1.51"></path><path d="M209,490L176,416L101,475Z" fill="rgb(99,145,101)" stroke="rgb(99,145,101)" stroke-width="1.51"></path><path d="M-13,108L-30,210L43,206Z" fill="rgb(194,230,190)" stroke="rgb(194,230,190)" stroke-width="1.51"></path><path d="M97,44L26,75L32,109Z" fill="rgb(224,243,219)" stroke="rgb(224,243,219)" stroke-width="1.51"></path><path d="M-29,63L26,75L-49,-4Z" fill="rgb(239,249,235)" stroke="rgb(239,249,235)" stroke-width="1.51"></path><path d="M356,70L332,-5L250,62Z" fill="rgb(172,219,170)" stroke="rgb(172,219,170)" stroke-width="1.51"></path><path d="M399,35L332,-5L356,70Z" fill="rgb(159,211,163)" stroke="rgb(159,211,163)" stroke-width="1.51"></path><path d="M387,105L399,35L356,70Z" fill="rgb(145,205,150)" stroke="rgb(145,205,150)" stroke-width="1.51"></path><path d="M500,30L399,35L387,105Z" fill="rgb(140,195,146)" stroke="rgb(140,195,146)" stroke-width="1.51"></path><path d="M487,143L387,105L410,219Z" fill="rgb(104,181,113)" stroke="rgb(104,181,113)" stroke-width="1.51"></path><path d="M495,327L486,269L417,292Z" fill="rgb(34,137,67)" stroke="rgb(34,137,67)" stroke-width="1.51"></path><path d="M495,327L417,292L428,348Z" fill="rgb(29,132,64)" stroke="rgb(29,132,64)" stroke-width="1.51"></path><path d="M101,475L176,416L128,420Z" fill="rgb(105,148,107)" stroke="rgb(105,148,107)" stroke-width="1.51"></path><path d="M-13,108L43,206L32,109Z" fill="rgb(205,235,200)" stroke="rgb(205,235,200)" stroke-width="1.51"></path><path d="M173,-7L136,-21L173,35Z" fill="rgb(220,242,215)" stroke="rgb(220,242,215)" stroke-width="1.51"></path><path d="M210,-121L136,-21L173,-7Z" fill="rgb(217,240,213)" stroke="rgb(217,240,213)" stroke-width="1.51"></path><path d="M508,216L487,143L410,219Z" fill="rgb(80,165,92)" stroke="rgb(80,165,92)" stroke-width="1.51"></path><path d="M-29,63L-13,108L26,75Z" fill="rgb(229,245,224)" stroke="rgb(229,245,224)" stroke-width="1.51"></path><path d="M26,75L-13,108L32,109Z" fill="rgb(222,243,217)" stroke="rgb(222,243,217)" stroke-width="1.51"></path><path d="M61,418L101,475L128,420Z" fill="rgb(112,151,115)" stroke="rgb(112,151,115)" stroke-width="1.51"></path><path d="M486,269L508,216L410,219Z" fill="rgb(57,155,82)" stroke="rgb(57,155,82)" stroke-width="1.51"></path><path d="M479,402L495,327L428,348Z" fill="rgb(15,116,52)" stroke="rgb(15,116,52)" stroke-width="1.51"></path><path d="M486,269L562,262L508,216Z" fill="rgb(39,140,69)" stroke="rgb(39,140,69)" stroke-width="1.51"></path><path d="M284,480L317,503L332,415Z" fill="rgb(56,127,68)" stroke="rgb(56,127,68)" stroke-width="1.51"></path><path d="M406,400L479,402L428,348Z" fill="rgb(21,112,52)" stroke="rgb(21,112,52)" stroke-width="1.51"></path><path d="M209,490L317,503L284,480Z" fill="rgb(69,133,77)" stroke="rgb(69,133,77)" stroke-width="1.51"></path><path d="M430,493L479,402L406,400Z" fill="rgb(19,105,49)" stroke="rgb(19,105,49)" stroke-width="1.51"></path><path d="M18,343L-41,411L61,418Z" fill="rgb(125,160,128)" stroke="rgb(125,160,128)" stroke-width="1.51"></path><path d="M61,418L34,515L101,475Z" fill="rgb(117,153,120)" stroke="rgb(117,153,120)" stroke-width="1.51"></path><path d="M-13,272L-56,337L18,343Z" fill="rgb(144,190,149)" stroke="rgb(144,190,149)" stroke-width="1.51"></path><path d="M-98,297L-56,337L-13,272Z" fill="rgb(147,195,153)" stroke="rgb(147,195,153)" stroke-width="1.51"></path><path d="M-98,297L-13,272L-30,210Z" fill="rgb(159,209,164)" stroke="rgb(159,209,164)" stroke-width="1.51"></path><path d="M43,-50L26,75L97,44Z" fill="rgb(237,248,232)" stroke="rgb(237,248,232)" stroke-width="1.51"></path><path d="M-126,113L-131,201L-30,210Z" fill="rgb(194,230,190)" stroke="rgb(194,230,190)" stroke-width="1.51"></path><path d="M136,-21L43,-50L97,44Z" fill="rgb(235,247,231)" stroke="rgb(235,247,231)" stroke-width="1.51"></path><path d="M246,-16L242,-83L173,-7Z" fill="rgb(206,235,201)" stroke="rgb(206,235,201)" stroke-width="1.51"></path><path d="M318,-88L242,-83L246,-16Z" fill="rgb(192,229,188)" stroke="rgb(192,229,188)" stroke-width="1.51"></path><path d="M318,-88L246,-16L332,-5Z" fill="rgb(184,224,181)" stroke="rgb(184,224,181)" stroke-width="1.51"></path><path d="M-56,337L-41,411L18,343Z" fill="rgb(133,173,136)" stroke="rgb(133,173,136)" stroke-width="1.51"></path><path d="M399,35L403,-46L332,-5Z" fill="rgb(161,212,167)" stroke="rgb(161,212,167)" stroke-width="1.51"></path><path d="M471,-21L403,-46L399,35Z" fill="rgb(152,201,158)" stroke="rgb(152,201,158)" stroke-width="1.51"></path><path d="M317,503L430,493L332,415Z" fill="rgb(39,120,61)" stroke="rgb(39,120,61)" stroke-width="1.51"></path><path d="M403,-46L318,-88L332,-5Z" fill="rgb(168,216,171)" stroke="rgb(168,216,171)" stroke-width="1.51"></path><path d="M487,143L500,30L387,105Z" fill="rgb(124,185,129)" stroke="rgb(124,185,129)" stroke-width="1.51"></path><path d="M508,216L544,124L487,143Z" fill="rgb(88,162,96)" stroke="rgb(88,162,96)" stroke-width="1.51"></path><path d="M575,216L544,124L508,216Z" fill="rgb(73,149,83)" stroke="rgb(73,149,83)" stroke-width="1.51"></path><path d="M562,262L486,269L495,327Z" fill="rgb(28,130,61)" stroke="rgb(28,130,61)" stroke-width="1.51"></path><path d="M580,337L562,262L495,327Z" fill="rgb(16,115,52)" stroke="rgb(16,115,52)" stroke-width="1.51"></path><path d="M580,337L495,327L479,402Z" fill="rgb(2,108,44)" stroke="rgb(2,108,44)" stroke-width="1.51"></path><path d="M-56,337L-106,348L-41,411Z" fill="rgb(132,172,136)" stroke="rgb(132,172,136)" stroke-width="1.51"></path><path d="M-131,201L-98,297L-30,210Z" fill="rgb(168,216,171)" stroke="rgb(168,216,171)" stroke-width="1.51"></path><path d="M544,124L500,30L487,143Z" fill="rgb(114,173,118)" stroke="rgb(114,173,118)" stroke-width="1.51"></path><path d="M111,-87L43,-50L136,-21Z" fill="rgb(234,247,230)" stroke="rgb(234,247,230)" stroke-width="1.51"></path><path d="M210,-121L111,-87L136,-21Z" fill="rgb(223,243,218)" stroke="rgb(223,243,218)" stroke-width="1.51"></path><path d="M210,-121L173,-7L242,-83Z" fill="rgb(209,237,204)" stroke="rgb(209,237,204)" stroke-width="1.51"></path><path d="M-41,411L34,515L61,418Z" fill="rgb(123,155,126)" stroke="rgb(123,155,126)" stroke-width="1.51"></path><path d="M101,475L34,515L209,490Z" fill="rgb(108,150,111)" stroke="rgb(108,150,111)" stroke-width="1.51"></path><path d="M209,490L34,515L317,503Z" fill="rgb(93,143,96)" stroke="rgb(93,143,96)" stroke-width="1.51"></path><path d="M562,262L575,216L508,216Z" fill="rgb(48,137,70)" stroke="rgb(48,137,70)" stroke-width="1.51"></path><path d="M500,30L471,-21L399,35Z" fill="rgb(144,193,150)" stroke="rgb(144,193,150)" stroke-width="1.51"></path><path d="M403,-46L415,-76L318,-88Z" fill="rgb(161,211,167)" stroke="rgb(161,211,167)" stroke-width="1.51"></path><path d="M318,-88L210,-121L242,-83Z" fill="rgb(195,230,191)" stroke="rgb(195,230,191)" stroke-width="1.51"></path><path d="M-98,297L-106,348L-56,337Z" fill="rgb(141,186,146)" stroke="rgb(141,186,146)" stroke-width="1.51"></path><path d="M-41,411L-25,519L34,515Z" fill="rgb(125,156,128)" stroke="rgb(125,156,128)" stroke-width="1.51"></path><path d="M318,-88L489,-101L210,-121Z" fill="rgb(172,218,174)" stroke="rgb(172,218,174)" stroke-width="1.51"></path><path d="M471,-21L415,-76L403,-46Z" fill="rgb(152,200,157)" stroke="rgb(152,200,157)" stroke-width="1.51"></path><path d="M-126,113L-13,108L-111,72Z" fill="rgb(224,243,219)" stroke="rgb(224,243,219)" stroke-width="1.51"></path><path d="M-126,113L-30,210L-13,108Z" fill="rgb(207,236,202)" stroke="rgb(207,236,202)" stroke-width="1.51"></path><path d="M-98,297L-131,201L-106,348Z" fill="rgb(152,201,159)" stroke="rgb(152,201,159)" stroke-width="1.51"></path><path d="M43,-50L-49,-4L26,75Z" fill="rgb(245,251,242)" stroke="rgb(245,251,242)" stroke-width="1.51"></path><path d="M111,-87L61,-91L43,-50Z" fill="rgb(239,249,235)" stroke="rgb(239,249,235)" stroke-width="1.51"></path><path d="M210,-121L61,-91L111,-87Z" fill="rgb(228,245,223)" stroke="rgb(228,245,223)" stroke-width="1.51"></path><path d="M-34,-78L-49,-4L43,-50Z" fill="rgb(247,252,245)" stroke="rgb(247,252,245)" stroke-width="1.51"></path><path d="M555,433L580,337L479,402Z" fill="rgb(0,88,35)" stroke="rgb(0,88,35)" stroke-width="1.51"></path><path d="M562,262L619,254L575,216Z" fill="rgb(38,123,62)" stroke="rgb(38,123,62)" stroke-width="1.51"></path><path d="M-111,72L-13,108L-29,63Z" fill="rgb(229,245,224)" stroke="rgb(229,245,224)" stroke-width="1.51"></path><path d="M-49,-4L-111,72L-29,63Z" fill="rgb(239,249,236)" stroke="rgb(239,249,236)" stroke-width="1.51"></path><path d="M-131,201L-110,407L-106,348Z" fill="rgb(143,190,149)" stroke="rgb(143,190,149)" stroke-width="1.51"></path><path d="M-106,348L-110,407L-41,411Z" fill="rgb(127,161,131)" stroke="rgb(127,161,131)" stroke-width="1.51"></path><path d="M509,505L555,433L479,402Z" fill="rgb(2,90,37)" stroke="rgb(2,90,37)" stroke-width="1.51"></path><path d="M-126,519L-25,519L-41,411Z" fill="rgb(125,156,128)" stroke="rgb(125,156,128)" stroke-width="1.51"></path><path d="M556,515L509,505L317,503Z" fill="rgb(14,101,45)" stroke="rgb(14,101,45)" stroke-width="1.51"></path><path d="M661,351L619,254L580,337Z" fill="rgb(12,98,44)" stroke="rgb(12,98,44)" stroke-width="1.51"></path><path d="M580,337L619,254L562,262Z" fill="rgb(23,111,52)" stroke="rgb(23,111,52)" stroke-width="1.51"></path><path d="M575,216L621,141L544,124Z" fill="rgb(81,143,86)" stroke="rgb(81,143,86)" stroke-width="1.51"></path><path d="M544,124L569,36L500,30Z" fill="rgb(121,170,124)" stroke="rgb(121,170,124)" stroke-width="1.51"></path><path d="M471,-21L489,-101L415,-76Z" fill="rgb(147,194,152)" stroke="rgb(147,194,152)" stroke-width="1.51"></path><path d="M500,30L579,-21L471,-21Z" fill="rgb(137,181,141)" stroke="rgb(137,181,141)" stroke-width="1.51"></path><path d="M621,141L569,36L544,124Z" fill="rgb(105,154,107)" stroke="rgb(105,154,107)" stroke-width="1.51"></path><path d="M556,515L317,503L34,515Z" fill="rgb(59,129,70)" stroke="rgb(59,129,70)" stroke-width="1.51"></path><path d="M317,503L509,505L430,493Z" fill="rgb(24,109,52)" stroke="rgb(24,109,52)" stroke-width="1.51"></path><path d="M430,493L509,505L479,402Z" fill="rgb(11,98,43)" stroke="rgb(11,98,43)" stroke-width="1.51"></path><path d="M656,178L621,141L575,216Z" fill="rgb(70,133,78)" stroke="rgb(70,133,78)" stroke-width="1.51"></path><path d="M-49,-4L-105,-8L-111,72Z" fill="rgb(244,251,241)" stroke="rgb(244,251,241)" stroke-width="1.51"></path><path d="M61,-91L-34,-78L43,-50Z" fill="rgb(244,251,241)" stroke="rgb(244,251,241)" stroke-width="1.51"></path><path d="M-111,-92L-34,-78L61,-91Z" fill="rgb(247,252,245)" stroke="rgb(247,252,245)" stroke-width="1.51"></path><path d="M-34,-78L-105,-8L-49,-4Z" fill="rgb(247,252,245)" stroke="rgb(247,252,245)" stroke-width="1.51"></path><path d="M-111,72L-105,-8L-126,113Z" fill="rgb(236,248,231)" stroke="rgb(236,248,231)" stroke-width="1.51"></path><path d="M415,-76L489,-101L318,-88Z" fill="rgb(156,205,162)" stroke="rgb(156,205,162)" stroke-width="1.51"></path><path d="M579,-21L489,-101L471,-21Z" fill="rgb(138,182,142)" stroke="rgb(138,182,142)" stroke-width="1.51"></path><path d="M613,477L615,402L555,433Z" fill="rgb(0,69,27)" stroke="rgb(0,69,27)" stroke-width="1.51"></path><path d="M555,433L615,402L580,337Z" fill="rgb(0,76,30)" stroke="rgb(0,76,30)" stroke-width="1.51"></path><path d="M619,254L656,178L575,216Z" fill="rgb(52,125,66)" stroke="rgb(52,125,66)" stroke-width="1.51"></path><path d="M650,31L579,-21L569,36Z" fill="rgb(122,155,126)" stroke="rgb(122,155,126)" stroke-width="1.51"></path><path d="M569,36L579,-21L500,30Z" fill="rgb(130,171,133)" stroke="rgb(130,171,133)" stroke-width="1.51"></path><path d="M730,224L656,178L619,254Z" fill="rgb(51,125,66)" stroke="rgb(51,125,66)" stroke-width="1.51"></path><path d="M650,31L569,36L621,141Z" fill="rgb(110,150,113)" stroke="rgb(110,150,113)" stroke-width="1.51"></path><path d="M-25,519L556,515L34,515Z" fill="rgb(92,143,95)" stroke="rgb(92,143,95)" stroke-width="1.51"></path><path d="M509,505L556,515L555,433Z" fill="rgb(0,84,34)" stroke="rgb(0,84,34)" stroke-width="1.51"></path><path d="M725,442L661,351L615,402Z" fill="rgb(0,68,27)" stroke="rgb(0,68,27)" stroke-width="1.51"></path><path d="M615,402L661,351L580,337Z" fill="rgb(0,83,33)" stroke="rgb(0,83,33)" stroke-width="1.51"></path><path d="M556,515L613,477L555,433Z" fill="rgb(0,74,30)" stroke="rgb(0,74,30)" stroke-width="1.51"></path><path d="M-131,201L-126,519L-110,407Z" fill="rgb(130,168,134)" stroke="rgb(130,168,134)" stroke-width="1.51"></path><path d="M-110,407L-126,519L-41,411Z" fill="rgb(125,156,128)" stroke="rgb(125,156,128)" stroke-width="1.51"></path><path d="M579,-21L586,-110L489,-101Z" fill="rgb(132,171,136)" stroke="rgb(132,171,136)" stroke-width="1.51"></path><path d="M687,142L650,31L621,141Z" fill="rgb(100,146,103)" stroke="rgb(100,146,103)" stroke-width="1.51"></path><path d="M656,178L687,142L621,141Z" fill="rgb(81,138,86)" stroke="rgb(81,138,86)" stroke-width="1.51"></path><path d="M730,224L687,142L656,178Z" fill="rgb(69,133,77)" stroke="rgb(69,133,77)" stroke-width="1.51"></path><path d="M-34,-78L-111,-92L-105,-8Z" fill="rgb(247,252,245)" stroke="rgb(247,252,245)" stroke-width="1.51"></path><path d="M-105,-8L-111,-92L-126,113Z" fill="rgb(246,252,244)" stroke="rgb(246,252,244)" stroke-width="1.51"></path><path d="M210,-121L-111,-92L61,-91Z" fill="rgb(241,250,237)" stroke="rgb(241,250,237)" stroke-width="1.51"></path><path d="M650,31L632,-32L579,-21Z" fill="rgb(125,156,128)" stroke="rgb(125,156,128)" stroke-width="1.51"></path><path d="M703,-20L632,-32L650,31Z" fill="rgb(125,156,128)" stroke="rgb(125,156,128)" stroke-width="1.51"></path><path d="M632,-32L586,-110L579,-21Z" fill="rgb(125,157,128)" stroke="rgb(125,157,128)" stroke-width="1.51"></path><path d="M489,-101L586,-110L210,-121Z" fill="rgb(152,200,158)" stroke="rgb(152,200,158)" stroke-width="1.51"></path><path d="M725,442L717,327L661,351Z" fill="rgb(0,78,31)" stroke="rgb(0,78,31)" stroke-width="1.51"></path><path d="M661,351L717,327L619,254Z" fill="rgb(13,99,45)" stroke="rgb(13,99,45)" stroke-width="1.51"></path><path d="M731,266L730,224L619,254Z" fill="rgb(34,118,59)" stroke="rgb(34,118,59)" stroke-width="1.51"></path><path d="M687,142L716,74L650,31Z" fill="rgb(107,149,109)" stroke="rgb(107,149,109)" stroke-width="1.51"></path><path d="M717,327L731,266L619,254Z" fill="rgb(23,108,51)" stroke="rgb(23,108,51)" stroke-width="1.51"></path><path d="M632,-32L647,-111L586,-110Z" fill="rgb(125,156,128)" stroke="rgb(125,156,128)" stroke-width="1.51"></path><path d="M730,224L716,74L687,142Z" fill="rgb(84,140,88)" stroke="rgb(84,140,88)" stroke-width="1.51"></path><path d="M716,74L703,-20L650,31Z" fill="rgb(120,154,123)" stroke="rgb(120,154,123)" stroke-width="1.51"></path><path d="M613,477L725,442L615,402Z" fill="rgb(0,68,27)" stroke="rgb(0,68,27)" stroke-width="1.51"></path><path d="M717,327L725,442L731,266Z" fill="rgb(1,90,36)" stroke="rgb(1,90,36)" stroke-width="1.51"></path><path d="M732,490L725,442L613,477Z" fill="rgb(0,68,27)" stroke="rgb(0,68,27)" stroke-width="1.51"></path><path d="M703,-20L647,-111L632,-32Z" fill="rgb(125,156,128)" stroke="rgb(125,156,128)" stroke-width="1.51"></path><path d="M586,-110L698,-117L210,-121Z" fill="rgb(140,185,145)" stroke="rgb(140,185,145)" stroke-width="1.51"></path><path d="M556,515L732,490L613,477Z" fill="rgb(0,68,27)" stroke="rgb(0,68,27)" stroke-width="1.51"></path><path d="M725,442L732,490L731,266Z" fill="rgb(0,68,27)" stroke="rgb(0,68,27)" stroke-width="1.51"></path><path d="M703,-20L698,-117L647,-111Z" fill="rgb(125,156,128)" stroke="rgb(125,156,128)" stroke-width="1.51"></path><path d="M647,-111L698,-117L586,-110Z" fill="rgb(125,156,128)" stroke="rgb(125,156,128)" stroke-width="1.51"></path><path d="M716,74L698,-117L703,-20Z" fill="rgb(125,156,128)" stroke="rgb(125,156,128)" stroke-width="1.51"></path></svg>