<svg width="600" height="400" xmlns="http://www.w3.org/2000/svg"><path d="M281,202L259,248L330,208Z" fill="rgb(109,165,205)" stroke="rgb(109,165,205)" stroke-width="1.51"></path><path d="M259,248L326,276L330,208Z" fill="rgb(91,157,200)" stroke="rgb(91,157,200)" stroke-width="1.51"></path><path d="M326,276L381,227L330,208Z" fill="rgb(78,152,197)" stroke="rgb(78,152,197)" stroke-width="1.51"></path><path d="M281,202L215,187L259,248Z" fill="rgb(127,172,209)" stroke="rgb(127,172,209)" stroke-width="1.51"></path><path d="M247,118L215,187L281,202Z" fill="rgb(150,182,215)" stroke="rgb(150,182,215)" stroke-width="1.51"></path><path d="M326,276L413,252L381,227Z" fill="rgb(55,144,192)" stroke="rgb(55,144,192)" stroke-width="1.51"></path><path d="M276,372L322,365L326,276Z" fill="rgb(69,130,177)" stroke="rgb(69,130,177)" stroke-width="1.51"></path><path d="M215,187L198,289L259,248Z" fill="rgb(122,168,207)" stroke="rgb(122,168,207)" stroke-width="1.51"></path><path d="M326,276L409,351L413,252Z" fill="rgb(37,128,184)" stroke="rgb(37,128,184)" stroke-width="1.51"></path><path d="M276,372L326,276L259,248Z" fill="rgb(82,142,193)" stroke="rgb(82,142,193)" stroke-width="1.51"></path><path d="M330,208L351,119L281,202Z" fill="rgb(122,170,208)" stroke="rgb(122,170,208)" stroke-width="1.51"></path><path d="M381,227L351,119L330,208Z" fill="rgb(106,163,203)" stroke="rgb(106,163,203)" stroke-width="1.51"></path><path d="M399,80L351,119L438,99Z" fill="rgb(138,171,209)" stroke="rgb(138,171,209)" stroke-width="1.51"></path><path d="M351,119L247,118L281,202Z" fill="rgb(146,180,214)" stroke="rgb(146,180,214)" stroke-width="1.51"></path><path d="M198,289L276,372L259,248Z" fill="rgb(99,147,195)" stroke="rgb(99,147,195)" stroke-width="1.51"></path><path d="M247,118L198,142L215,187Z" fill="rgb(168,189,219)" stroke="rgb(168,189,219)" stroke-width="1.51"></path><path d="M215,187L101,266L198,289Z" fill="rgb(136,174,210)" stroke="rgb(136,174,210)" stroke-width="1.51"></path><path d="M322,365L409,351L326,276Z" fill="rgb(48,124,175)" stroke="rgb(48,124,175)" stroke-width="1.51"></path><path d="M322,365L356,395L409,351Z" fill="rgb(39,111,156)" stroke="rgb(39,111,156)" stroke-width="1.51"></path><path d="M276,372L356,395L322,365Z" fill="rgb(59,115,156)" stroke="rgb(59,115,156)" stroke-width="1.51"></path><path d="M413,252L472,228L381,227Z" fill="rgb(56,137,189)" stroke="rgb(56,137,189)" stroke-width="1.51"></path><path d="M518,267L472,228L413,252Z" fill="rgb(37,125,180)" stroke="rgb(37,125,180)" stroke-width="1.51"></path><path d="M198,289L157,351L276,372Z" fill="rgb(106,142,185)" stroke="rgb(106,142,185)" stroke-width="1.51"></path><path d="M358,478L411,419L356,395Z" fill="rgb(28,98,138)" stroke="rgb(28,98,138)" stroke-width="1.51"></path><path d="M101,266L157,351L198,289Z" fill="rgb(129,158,203)" stroke="rgb(129,158,203)" stroke-width="1.51"></path><path d="M351,119L311,58L247,118Z" fill="rgb(164,189,218)" stroke="rgb(164,189,218)" stroke-width="1.51"></path><path d="M247,118L247,48L198,142Z" fill="rgb(184,197,224)" stroke="rgb(184,197,224)" stroke-width="1.51"></path><path d="M399,80L311,58L351,119Z" fill="rgb(152,183,215)" stroke="rgb(152,183,215)" stroke-width="1.51"></path><path d="M438,99L351,119L381,227Z" fill="rgb(116,163,204)" stroke="rgb(116,163,204)" stroke-width="1.51"></path><path d="M485,155L438,99L381,227Z" fill="rgb(103,151,198)" stroke="rgb(103,151,198)" stroke-width="1.51"></path><path d="M311,58L247,48L247,118Z" fill="rgb(181,198,224)" stroke="rgb(181,198,224)" stroke-width="1.51"></path><path d="M94,198L101,266L215,187Z" fill="rgb(159,186,217)" stroke="rgb(159,186,217)" stroke-width="1.51"></path><path d="M94,198L215,187L198,142Z" fill="rgb(170,191,220)" stroke="rgb(170,191,220)" stroke-width="1.51"></path><path d="M472,228L485,155L381,227Z" fill="rgb(75,140,192)" stroke="rgb(75,140,192)" stroke-width="1.51"></path><path d="M356,395L411,419L409,351Z" fill="rgb(25,99,143)" stroke="rgb(25,99,143)" stroke-width="1.51"></path><path d="M486,367L518,267L413,252Z" fill="rgb(10,110,171)" stroke="rgb(10,110,171)" stroke-width="1.51"></path><path d="M241,452L356,395L276,372Z" fill="rgb(66,111,146)" stroke="rgb(66,111,146)" stroke-width="1.51"></path><path d="M88,135L94,198L198,142Z" fill="rgb(188,201,226)" stroke="rgb(188,201,226)" stroke-width="1.51"></path><path d="M472,228L555,213L485,155Z" fill="rgb(73,132,179)" stroke="rgb(73,132,179)" stroke-width="1.51"></path><path d="M486,367L413,252L409,351Z" fill="rgb(14,110,169)" stroke="rgb(14,110,169)" stroke-width="1.51"></path><path d="M184,433L241,452L276,372Z" fill="rgb(87,118,151)" stroke="rgb(87,118,151)" stroke-width="1.51"></path><path d="M483,402L486,367L409,351Z" fill="rgb(4,91,144)" stroke="rgb(4,91,144)" stroke-width="1.51"></path><path d="M157,351L184,433L276,372Z" fill="rgb(98,127,161)" stroke="rgb(98,127,161)" stroke-width="1.51"></path><path d="M114,370L184,433L157,351Z" fill="rgb(114,134,165)" stroke="rgb(114,134,165)" stroke-width="1.51"></path><path d="M101,266L114,370L157,351Z" fill="rgb(131,156,195)" stroke="rgb(131,156,195)" stroke-width="1.51"></path><path d="M156,29L88,135L198,142Z" fill="rgb(208,209,230)" stroke="rgb(208,209,230)" stroke-width="1.51"></path><path d="M607,260L555,213L518,267Z" fill="rgb(34,109,154)" stroke="rgb(34,109,154)" stroke-width="1.51"></path><path d="M411,419L483,402L409,351Z" fill="rgb(11,90,137)" stroke="rgb(11,90,137)" stroke-width="1.51"></path><path d="M411,419L473,501L483,402Z" fill="rgb(3,82,129)" stroke="rgb(3,82,129)" stroke-width="1.51"></path><path d="M241,452L358,478L356,395Z" fill="rgb(56,107,143)" stroke="rgb(56,107,143)" stroke-width="1.51"></path><path d="M399,80L353,-8L311,58Z" fill="rgb(164,191,220)" stroke="rgb(164,191,220)" stroke-width="1.51"></path><path d="M311,58L282,-24L247,48Z" fill="rgb(189,206,228)" stroke="rgb(189,206,228)" stroke-width="1.51"></path><path d="M457,39L353,-8L399,80Z" fill="rgb(154,182,215)" stroke="rgb(154,182,215)" stroke-width="1.51"></path><path d="M457,39L399,80L438,99Z" fill="rgb(141,169,209)" stroke="rgb(141,169,209)" stroke-width="1.51"></path><path d="M101,266L66,336L114,370Z" fill="rgb(137,161,199)" stroke="rgb(137,161,199)" stroke-width="1.51"></path><path d="M107,509L211,482L184,433Z" fill="rgb(106,126,155)" stroke="rgb(106,126,155)" stroke-width="1.51"></path><path d="M12,269L66,336L101,266Z" fill="rgb(149,174,212)" stroke="rgb(149,174,212)" stroke-width="1.51"></path><path d="M38,190L101,266L94,198Z" fill="rgb(170,194,222)" stroke="rgb(170,194,222)" stroke-width="1.51"></path><path d="M489,2L457,39L586,56Z" fill="rgb(142,162,196)" stroke="rgb(142,162,196)" stroke-width="1.51"></path><path d="M485,155L457,39L438,99Z" fill="rgb(129,158,201)" stroke="rgb(129,158,201)" stroke-width="1.51"></path><path d="M358,478L388,479L411,419Z" fill="rgb(25,96,137)" stroke="rgb(25,96,137)" stroke-width="1.51"></path><path d="M518,267L555,213L472,228Z" fill="rgb(47,121,171)" stroke="rgb(47,121,171)" stroke-width="1.51"></path><path d="M554,323L518,267L486,367Z" fill="rgb(4,98,153)" stroke="rgb(4,98,153)" stroke-width="1.51"></path><path d="M247,48L156,29L198,142Z" fill="rgb(202,208,230)" stroke="rgb(202,208,230)" stroke-width="1.51"></path><path d="M191,-35L156,29L247,48Z" fill="rgb(216,219,236)" stroke="rgb(216,219,236)" stroke-width="1.51"></path><path d="M241,452L278,507L358,478Z" fill="rgb(66,111,146)" stroke="rgb(66,111,146)" stroke-width="1.51"></path><path d="M358,478L278,507L388,479Z" fill="rgb(46,103,142)" stroke="rgb(46,103,142)" stroke-width="1.51"></path><path d="M184,433L211,482L241,452Z" fill="rgb(93,120,152)" stroke="rgb(93,120,152)" stroke-width="1.51"></path><path d="M103,438L184,433L114,370Z" fill="rgb(114,130,158)" stroke="rgb(114,130,158)" stroke-width="1.51"></path><path d="M88,135L55,147L94,198Z" fill="rgb(197,207,229)" stroke="rgb(197,207,229)" stroke-width="1.51"></path><path d="M46,34L55,147L88,135Z" fill="rgb(222,220,236)" stroke="rgb(222,220,236)" stroke-width="1.51"></path><path d="M353,-8L282,-24L311,58Z" fill="rgb(182,203,227)" stroke="rgb(182,203,227)" stroke-width="1.51"></path><path d="M569,418L554,323L486,367Z" fill="rgb(3,81,126)" stroke="rgb(3,81,126)" stroke-width="1.51"></path><path d="M55,147L38,190L94,198Z" fill="rgb(190,206,228)" stroke="rgb(190,206,228)" stroke-width="1.51"></path><path d="M211,482L278,507L241,452Z" fill="rgb(83,117,150)" stroke="rgb(83,117,150)" stroke-width="1.51"></path><path d="M156,29L127,23L88,135Z" fill="rgb(223,221,236)" stroke="rgb(223,221,236)" stroke-width="1.51"></path><path d="M140,-34L127,23L156,29Z" fill="rgb(232,228,240)" stroke="rgb(232,228,240)" stroke-width="1.51"></path><path d="M40,413L103,438L114,370Z" fill="rgb(122,137,161)" stroke="rgb(122,137,161)" stroke-width="1.51"></path><path d="M66,336L40,413L114,370Z" fill="rgb(131,148,177)" stroke="rgb(131,148,177)" stroke-width="1.51"></path><path d="M38,190L12,269L101,266Z" fill="rgb(163,191,220)" stroke="rgb(163,191,220)" stroke-width="1.51"></path><path d="M631,334L590,294L554,323Z" fill="rgb(3,81,128)" stroke="rgb(3,81,128)" stroke-width="1.51"></path><path d="M554,323L590,294L518,267Z" fill="rgb(8,96,148)" stroke="rgb(8,96,148)" stroke-width="1.51"></path><path d="M282,-24L191,-35L247,48Z" fill="rgb(207,216,234)" stroke="rgb(207,216,234)" stroke-width="1.51"></path><path d="M341,-113L265,-73L282,-24Z" fill="rgb(189,208,230)" stroke="rgb(189,208,230)" stroke-width="1.51"></path><path d="M457,39L440,-49L353,-8Z" fill="rgb(159,184,217)" stroke="rgb(159,184,217)" stroke-width="1.51"></path><path d="M586,56L457,39L485,155Z" fill="rgb(129,153,190)" stroke="rgb(129,153,190)" stroke-width="1.51"></path><path d="M585,122L485,155L555,213Z" fill="rgb(90,131,172)" stroke="rgb(90,131,172)" stroke-width="1.51"></path><path d="M590,294L607,260L518,267Z" fill="rgb(21,98,145)" stroke="rgb(21,98,145)" stroke-width="1.51"></path><path d="M650,219L585,122L555,213Z" fill="rgb(72,113,148)" stroke="rgb(72,113,148)" stroke-width="1.51"></path><path d="M278,507L473,501L388,479Z" fill="rgb(27,97,138)" stroke="rgb(27,97,138)" stroke-width="1.51"></path><path d="M388,479L473,501L411,419Z" fill="rgb(15,88,133)" stroke="rgb(15,88,133)" stroke-width="1.51"></path><path d="M483,402L569,418L486,367Z" fill="rgb(3,76,119)" stroke="rgb(3,76,119)" stroke-width="1.51"></path><path d="M103,438L107,509L184,433Z" fill="rgb(114,130,158)" stroke="rgb(114,130,158)" stroke-width="1.51"></path><path d="M-59,352L40,413L66,336Z" fill="rgb(140,157,184)" stroke="rgb(140,157,184)" stroke-width="1.51"></path><path d="M282,-24L265,-73L191,-35Z" fill="rgb(205,215,234)" stroke="rgb(205,215,234)" stroke-width="1.51"></path><path d="M341,-113L282,-24L353,-8Z" fill="rgb(180,203,227)" stroke="rgb(180,203,227)" stroke-width="1.51"></path><path d="M12,269L-59,352L66,336Z" fill="rgb(151,172,206)" stroke="rgb(151,172,206)" stroke-width="1.51"></path><path d="M38,190L-16,248L12,269Z" fill="rgb(170,197,223)" stroke="rgb(170,197,223)" stroke-width="1.51"></path><path d="M-23,172L-16,248L38,190Z" fill="rgb(187,206,229)" stroke="rgb(187,206,229)" stroke-width="1.51"></path><path d="M-23,172L38,190L55,147Z" fill="rgb(199,211,231)" stroke="rgb(199,211,231)" stroke-width="1.51"></path><path d="M127,23L46,34L88,135Z" fill="rgb(230,226,240)" stroke="rgb(230,226,240)" stroke-width="1.51"></path><path d="M191,-35L140,-34L156,29Z" fill="rgb(228,226,239)" stroke="rgb(228,226,239)" stroke-width="1.51"></path><path d="M159,-81L140,-34L191,-35Z" fill="rgb(228,226,239)" stroke="rgb(228,226,239)" stroke-width="1.51"></path><path d="M489,2L440,-49L457,39Z" fill="rgb(153,175,210)" stroke="rgb(153,175,210)" stroke-width="1.51"></path><path d="M563,471L569,418L483,402Z" fill="rgb(3,70,109)" stroke="rgb(3,70,109)" stroke-width="1.51"></path><path d="M590,294L631,334L607,260Z" fill="rgb(6,85,131)" stroke="rgb(6,85,131)" stroke-width="1.51"></path><path d="M57,-1L46,34L127,23Z" fill="rgb(241,236,245)" stroke="rgb(241,236,245)" stroke-width="1.51"></path><path d="M-26,130L-23,172L55,147Z" fill="rgb(210,218,235)" stroke="rgb(210,218,235)" stroke-width="1.51"></path><path d="M67,514L107,509L103,438Z" fill="rgb(122,136,160)" stroke="rgb(122,136,160)" stroke-width="1.51"></path><path d="M211,482L107,509L278,507Z" fill="rgb(97,122,153)" stroke="rgb(97,122,153)" stroke-width="1.51"></path><path d="M585,122L586,56L485,155Z" fill="rgb(114,138,173)" stroke="rgb(114,138,173)" stroke-width="1.51"></path><path d="M489,2L473,-91L440,-49Z" fill="rgb(153,174,209)" stroke="rgb(153,174,209)" stroke-width="1.51"></path><path d="M640,67L586,56L585,122Z" fill="rgb(116,132,158)" stroke="rgb(116,132,158)" stroke-width="1.51"></path><path d="M569,418L631,334L554,323Z" fill="rgb(3,73,115)" stroke="rgb(3,73,115)" stroke-width="1.51"></path><path d="M607,260L650,219L555,213Z" fill="rgb(44,103,141)" stroke="rgb(44,103,141)" stroke-width="1.51"></path><path d="M46,34L-26,130L55,147Z" fill="rgb(227,225,238)" stroke="rgb(227,225,238)" stroke-width="1.51"></path><path d="M140,-34L57,-1L127,23Z" fill="rgb(239,234,244)" stroke="rgb(239,234,244)" stroke-width="1.51"></path><path d="M-30,48L-26,130L46,34Z" fill="rgb(239,234,244)" stroke="rgb(239,234,244)" stroke-width="1.51"></path><path d="M569,418L666,413L631,334Z" fill="rgb(2,60,94)" stroke="rgb(2,60,94)" stroke-width="1.51"></path><path d="M473,501L563,471L483,402Z" fill="rgb(3,75,118)" stroke="rgb(3,75,118)" stroke-width="1.51"></path><path d="M722,294L650,219L607,260Z" fill="rgb(25,96,137)" stroke="rgb(25,96,137)" stroke-width="1.51"></path><path d="M265,-73L159,-81L191,-35Z" fill="rgb(216,220,236)" stroke="rgb(216,220,236)" stroke-width="1.51"></path><path d="M140,-34L101,-75L57,-1Z" fill="rgb(241,235,244)" stroke="rgb(241,235,244)" stroke-width="1.51"></path><path d="M394,-107L341,-113L353,-8Z" fill="rgb(169,196,222)" stroke="rgb(169,196,222)" stroke-width="1.51"></path><path d="M265,-73L341,-113L159,-81Z" fill="rgb(202,214,232)" stroke="rgb(202,214,232)" stroke-width="1.51"></path><path d="M586,56L564,-3L489,2Z" fill="rgb(139,156,185)" stroke="rgb(139,156,185)" stroke-width="1.51"></path><path d="M440,-49L394,-107L353,-8Z" fill="rgb(162,189,220)" stroke="rgb(162,189,220)" stroke-width="1.51"></path><path d="M643,1L564,-3L586,56Z" fill="rgb(131,143,166)" stroke="rgb(131,143,166)" stroke-width="1.51"></path><path d="M473,-91L394,-107L440,-49Z" fill="rgb(156,180,215)" stroke="rgb(156,180,215)" stroke-width="1.51"></path><path d="M40,413L67,514L103,438Z" fill="rgb(125,139,162)" stroke="rgb(125,139,162)" stroke-width="1.51"></path><path d="M107,509L67,514L278,507Z" fill="rgb(111,128,156)" stroke="rgb(111,128,156)" stroke-width="1.51"></path><path d="M278,507L630,522L473,501Z" fill="rgb(3,82,128)" stroke="rgb(3,82,128)" stroke-width="1.51"></path><path d="M-39,510L67,514L40,413Z" fill="rgb(131,143,165)" stroke="rgb(131,143,165)" stroke-width="1.51"></path><path d="M650,219L650,113L585,122Z" fill="rgb(89,119,151)" stroke="rgb(89,119,151)" stroke-width="1.51"></path><path d="M564,-3L473,-91L489,2Z" fill="rgb(148,167,199)" stroke="rgb(148,167,199)" stroke-width="1.51"></path><path d="M159,-81L101,-75L140,-34Z" fill="rgb(234,230,242)" stroke="rgb(234,230,242)" stroke-width="1.51"></path><path d="M-10,-43L-30,48L46,34Z" fill="rgb(252,245,250)" stroke="rgb(252,245,250)" stroke-width="1.51"></path><path d="M23,-93L101,-75L159,-81Z" fill="rgb(242,236,245)" stroke="rgb(242,236,245)" stroke-width="1.51"></path><path d="M-16,248L-59,352L12,269Z" fill="rgb(157,180,215)" stroke="rgb(157,180,215)" stroke-width="1.51"></path><path d="M-108,290L-59,352L-16,248Z" fill="rgb(155,178,214)" stroke="rgb(155,178,214)" stroke-width="1.51"></path><path d="M-92,216L-16,248L-23,172Z" fill="rgb(182,204,227)" stroke="rgb(182,204,227)" stroke-width="1.51"></path><path d="M564,-3L571,-130L473,-91Z" fill="rgb(145,162,191)" stroke="rgb(145,162,191)" stroke-width="1.51"></path><path d="M650,113L640,67L585,122Z" fill="rgb(110,128,156)" stroke="rgb(110,128,156)" stroke-width="1.51"></path><path d="M-10,-43L46,34L57,-1Z" fill="rgb(251,243,249)" stroke="rgb(251,243,249)" stroke-width="1.51"></path><path d="M-26,130L-92,216L-23,172Z" fill="rgb(200,213,233)" stroke="rgb(200,213,233)" stroke-width="1.51"></path><path d="M-129,97L-92,216L-26,130Z" fill="rgb(212,218,236)" stroke="rgb(212,218,236)" stroke-width="1.51"></path><path d="M631,334L722,294L607,260Z" fill="rgb(6,85,131)" stroke="rgb(6,85,131)" stroke-width="1.51"></path><path d="M650,219L718,150L650,113Z" fill="rgb(84,117,150)" stroke="rgb(84,117,150)" stroke-width="1.51"></path><path d="M563,471L666,413L569,418Z" fill="rgb(2,56,88)" stroke="rgb(2,56,88)" stroke-width="1.51"></path><path d="M-59,352L-52,441L40,413Z" fill="rgb(133,145,166)" stroke="rgb(133,145,166)" stroke-width="1.51"></path><path d="M-101,451L-52,441L-59,352Z" fill="rgb(133,145,166)" stroke="rgb(133,145,166)" stroke-width="1.51"></path><path d="M-92,216L-108,290L-16,248Z" fill="rgb(165,194,222)" stroke="rgb(165,194,222)" stroke-width="1.51"></path><path d="M743,71L643,1L640,67Z" fill="rgb(125,139,162)" stroke="rgb(125,139,162)" stroke-width="1.51"></path><path d="M640,67L643,1L586,56Z" fill="rgb(126,140,163)" stroke="rgb(126,140,163)" stroke-width="1.51"></path><path d="M-30,48L-129,97L-26,130Z" fill="rgb(234,230,241)" stroke="rgb(234,230,241)" stroke-width="1.51"></path><path d="M23,-93L-10,-43L57,-1Z" fill="rgb(252,244,249)" stroke="rgb(252,244,249)" stroke-width="1.51"></path><path d="M723,322L722,294L631,334Z" fill="rgb(3,80,125)" stroke="rgb(3,80,125)" stroke-width="1.51"></path><path d="M650,113L743,71L640,67Z" fill="rgb(115,131,158)" stroke="rgb(115,131,158)" stroke-width="1.51"></path><path d="M735,201L718,150L650,219Z" fill="rgb(69,112,146)" stroke="rgb(69,112,146)" stroke-width="1.51"></path><path d="M722,294L735,201L650,219Z" fill="rgb(39,101,140)" stroke="rgb(39,101,140)" stroke-width="1.51"></path><path d="M666,413L723,322L631,334Z" fill="rgb(3,71,111)" stroke="rgb(3,71,111)" stroke-width="1.51"></path><path d="M666,413L710,409L723,322Z" fill="rgb(2,62,97)" stroke="rgb(2,62,97)" stroke-width="1.51"></path><path d="M563,471L630,522L666,413Z" fill="rgb(2,56,88)" stroke="rgb(2,56,88)" stroke-width="1.51"></path><path d="M473,501L630,522L563,471Z" fill="rgb(2,66,103)" stroke="rgb(2,66,103)" stroke-width="1.51"></path><path d="M67,514L630,522L278,507Z" fill="rgb(53,106,143)" stroke="rgb(53,106,143)" stroke-width="1.51"></path><path d="M101,-75L23,-93L57,-1Z" fill="rgb(247,240,247)" stroke="rgb(247,240,247)" stroke-width="1.51"></path><path d="M341,-113L23,-93L159,-81Z" fill="rgb(225,224,238)" stroke="rgb(225,224,238)" stroke-width="1.51"></path><path d="M-101,451L-39,510L-52,441Z" fill="rgb(133,145,166)" stroke="rgb(133,145,166)" stroke-width="1.51"></path><path d="M-52,441L-39,510L40,413Z" fill="rgb(133,145,166)" stroke="rgb(133,145,166)" stroke-width="1.51"></path><path d="M723,322L735,201L722,294Z" fill="rgb(20,92,135)" stroke="rgb(20,92,135)" stroke-width="1.51"></path><path d="M-92,216L-138,324L-108,290Z" fill="rgb(159,185,217)" stroke="rgb(159,185,217)" stroke-width="1.51"></path><path d="M-10,-43L-86,28L-30,48Z" fill="rgb(253,245,250)" stroke="rgb(253,245,250)" stroke-width="1.51"></path><path d="M-126,3L-86,28L-90,-81Z" fill="rgb(255,247,251)" stroke="rgb(255,247,251)" stroke-width="1.51"></path><path d="M714,469L710,409L666,413Z" fill="rgb(2,56,88)" stroke="rgb(2,56,88)" stroke-width="1.51"></path><path d="M-108,290L-138,324L-59,352Z" fill="rgb(151,171,205)" stroke="rgb(151,171,205)" stroke-width="1.51"></path><path d="M-129,97L-138,324L-92,216Z" fill="rgb(182,204,227)" stroke="rgb(182,204,227)" stroke-width="1.51"></path><path d="M-86,28L-129,97L-30,48Z" fill="rgb(243,237,245)" stroke="rgb(243,237,245)" stroke-width="1.51"></path><path d="M-138,324L-101,451L-59,352Z" fill="rgb(140,155,180)" stroke="rgb(140,155,180)" stroke-width="1.51"></path><path d="M341,-113L-51,-99L23,-93Z" fill="rgb(240,234,244)" stroke="rgb(240,234,244)" stroke-width="1.51"></path><path d="M394,-107L571,-130L341,-113Z" fill="rgb(156,180,215)" stroke="rgb(156,180,215)" stroke-width="1.51"></path><path d="M473,-91L571,-130L394,-107Z" fill="rgb(151,172,206)" stroke="rgb(151,172,206)" stroke-width="1.51"></path><path d="M667,-93L571,-130L564,-3Z" fill="rgb(133,145,166)" stroke="rgb(133,145,166)" stroke-width="1.51"></path><path d="M630,522L714,469L666,413Z" fill="rgb(2,56,88)" stroke="rgb(2,56,88)" stroke-width="1.51"></path><path d="M710,409L714,469L723,322Z" fill="rgb(2,56,88)" stroke="rgb(2,56,88)" stroke-width="1.51"></path><path d="M723,322L714,469L735,201Z" fill="rgb(3,77,120)" stroke="rgb(3,77,120)" stroke-width="1.51"></path><path d="M643,1L667,-93L564,-3Z" fill="rgb(133,145,166)" stroke="rgb(133,145,166)" stroke-width="1.51"></path><path d="M718,150L743,71L650,113Z" fill="rgb(106,126,155)" stroke="rgb(106,126,155)" stroke-width="1.51"></path><path d="M735,201L743,71L718,150Z" fill="rgb(94,121,152)" stroke="rgb(94,121,152)" stroke-width="1.51"></path><path d="M-86,28L-126,3L-129,97Z" fill="rgb(247,240,247)" stroke="rgb(247,240,247)" stroke-width="1.51"></path><path d="M-129,97L-126,3L-138,324Z" fill="rgb(214,219,236)" stroke="rgb(214,219,236)" stroke-width="1.51"></path><path d="M-90,-81L-86,28L-10,-43Z" fill="rgb(255,247,251)" stroke="rgb(255,247,251)" stroke-width="1.51"></path><path d="M23,-93L-51,-99L-10,-43Z" fill="rgb(255,247,251)" stroke="rgb(255,247,251)" stroke-width="1.51"></path><path d="M571,-130L-51,-99L341,-113Z" fill="rgb(192,209,230)" stroke="rgb(192,209,230)" stroke-width="1.51"></path><path d="M-138,324L-137,468L-101,451Z" fill="rgb(133,145,166)" stroke="rgb(133,145,166)" stroke-width="1.51"></path><path d="M-101,451L-137,468L-39,510Z" fill="rgb(133,145,166)" stroke="rgb(133,145,166)" stroke-width="1.51"></path><path d="M734,-50L667,-93L643,1Z" fill="rgb(133,145,166)" stroke="rgb(133,145,166)" stroke-width="1.51"></path><path d="M-51,-99L-90,-81L-10,-43Z" fill="rgb(255,247,251)" stroke="rgb(255,247,251)" stroke-width="1.51"></path><path d="M743,71L734,-50L643,1Z" fill="rgb(132,144,166)" stroke="rgb(132,144,166)" stroke-width="1.51"></path><path d="M743,71L738,-130L734,-50Z" fill="rgb(133,145,166)" stroke="rgb(133,145,166)" stroke-width="1.51"></path><path d="M734,-50L738,-130L667,-93Z" fill="rgb(133,145,166)" stroke="rgb(133,145,166)" stroke-width="1.51"></path><path d="M667,-93L738,-130L571,-130Z" fill="rgb(133,145,166)" stroke="rgb(133,145,166)" stroke-width="1.51"></path></svg>