<svg width="600" height="400" xmlns="http://www.w3.org/2000/svg"><path d="M253,186L199,208L251,262Z" fill="rgb(126,173,209)" stroke="rgb(126,173,209)" stroke-width="1.51"></path><path d="M199,208L176,284L251,262Z" fill="rgb(122,168,206)" stroke="rgb(122,168,206)" stroke-width="1.51"></path><path d="M253,186L182,135L199,208Z" fill="rgb(155,185,217)" stroke="rgb(155,185,217)" stroke-width="1.51"></path><path d="M199,208L96,201L176,284Z" fill="rgb(146,180,214)" stroke="rgb(146,180,214)" stroke-width="1.51"></path><path d="M251,262L352,203L253,186Z" fill="rgb(103,166,206)" stroke="rgb(103,166,206)" stroke-width="1.51"></path><path d="M271,348L336,277L251,262Z" fill="rgb(74,151,175)" stroke="rgb(74,151,175)" stroke-width="1.51"></path><path d="M253,186L272,115L182,135Z" fill="rgb(164,188,219)" stroke="rgb(164,188,219)" stroke-width="1.51"></path><path d="M328,132L272,115L253,186Z" fill="rgb(146,182,215)" stroke="rgb(146,182,215)" stroke-width="1.51"></path><path d="M336,277L352,203L251,262Z" fill="rgb(78,155,199)" stroke="rgb(78,155,199)" stroke-width="1.51"></path><path d="M175,339L271,348L251,262Z" fill="rgb(97,154,169)" stroke="rgb(97,154,169)" stroke-width="1.51"></path><path d="M352,203L328,132L253,186Z" fill="rgb(118,172,209)" stroke="rgb(118,172,209)" stroke-width="1.51"></path><path d="M176,284L175,339L251,262Z" fill="rgb(112,163,182)" stroke="rgb(112,163,182)" stroke-width="1.51"></path><path d="M182,135L96,201L199,208Z" fill="rgb(167,191,220)" stroke="rgb(167,191,220)" stroke-width="1.51"></path><path d="M176,284L104,277L175,339Z" fill="rgb(125,169,183)" stroke="rgb(125,169,183)" stroke-width="1.51"></path><path d="M96,201L104,277L176,284Z" fill="rgb(145,178,210)" stroke="rgb(145,178,210)" stroke-width="1.51"></path><path d="M271,348L327,363L336,277Z" fill="rgb(60,141,156)" stroke="rgb(60,141,156)" stroke-width="1.51"></path><path d="M404,273L408,207L352,203Z" fill="rgb(64,148,190)" stroke="rgb(64,148,190)" stroke-width="1.51"></path><path d="M263,434L327,363L271,348Z" fill="rgb(64,127,134)" stroke="rgb(64,127,134)" stroke-width="1.51"></path><path d="M352,203L423,111L328,132Z" fill="rgb(120,168,206)" stroke="rgb(120,168,206)" stroke-width="1.51"></path><path d="M404,273L352,203L336,277Z" fill="rgb(58,146,192)" stroke="rgb(58,146,192)" stroke-width="1.51"></path><path d="M406,361L404,273L336,277Z" fill="rgb(34,135,160)" stroke="rgb(34,135,160)" stroke-width="1.51"></path><path d="M182,135L103,109L96,201Z" fill="rgb(192,202,226)" stroke="rgb(192,202,226)" stroke-width="1.51"></path><path d="M196,40L103,109L182,135Z" fill="rgb(207,208,229)" stroke="rgb(207,208,229)" stroke-width="1.51"></path><path d="M179,433L263,434L271,348Z" fill="rgb(83,126,131)" stroke="rgb(83,126,131)" stroke-width="1.51"></path><path d="M104,277L98,340L175,339Z" fill="rgb(128,167,174)" stroke="rgb(128,167,174)" stroke-width="1.51"></path><path d="M50,337L98,340L104,277Z" fill="rgb(136,172,178)" stroke="rgb(136,172,178)" stroke-width="1.51"></path><path d="M272,115L196,40L182,135Z" fill="rgb(191,200,226)" stroke="rgb(191,200,226)" stroke-width="1.51"></path><path d="M326,35L246,38L272,115Z" fill="rgb(177,198,224)" stroke="rgb(177,198,224)" stroke-width="1.51"></path><path d="M326,35L272,115L328,132Z" fill="rgb(158,188,218)" stroke="rgb(158,188,218)" stroke-width="1.51"></path><path d="M246,38L196,40L272,115Z" fill="rgb(193,203,227)" stroke="rgb(193,203,227)" stroke-width="1.51"></path><path d="M96,201L38,211L104,277Z" fill="rgb(162,189,219)" stroke="rgb(162,189,219)" stroke-width="1.51"></path><path d="M36,133L38,211L96,201Z" fill="rgb(186,203,227)" stroke="rgb(186,203,227)" stroke-width="1.51"></path><path d="M423,111L326,35L328,132Z" fill="rgb(147,180,213)" stroke="rgb(147,180,213)" stroke-width="1.51"></path><path d="M38,211L35,282L104,277Z" fill="rgb(156,185,213)" stroke="rgb(156,185,213)" stroke-width="1.51"></path><path d="M179,433L271,348L175,339Z" fill="rgb(98,141,143)" stroke="rgb(98,141,143)" stroke-width="1.51"></path><path d="M103,109L36,133L96,201Z" fill="rgb(202,207,230)" stroke="rgb(202,207,230)" stroke-width="1.51"></path><path d="M196,40L102,54L103,109Z" fill="rgb(220,216,234)" stroke="rgb(220,216,234)" stroke-width="1.51"></path><path d="M118,414L179,433L175,339Z" fill="rgb(107,138,138)" stroke="rgb(107,138,138)" stroke-width="1.51"></path><path d="M118,414L175,339L98,340Z" fill="rgb(119,154,152)" stroke="rgb(119,154,152)" stroke-width="1.51"></path><path d="M408,207L423,111L352,203Z" fill="rgb(97,160,195)" stroke="rgb(97,160,195)" stroke-width="1.51"></path><path d="M471,132L423,111L408,207Z" fill="rgb(106,160,183)" stroke="rgb(106,160,183)" stroke-width="1.51"></path><path d="M404,273L472,291L408,207Z" fill="rgb(39,138,169)" stroke="rgb(39,138,169)" stroke-width="1.51"></path><path d="M327,363L406,361L336,277Z" fill="rgb(44,133,149)" stroke="rgb(44,133,149)" stroke-width="1.51"></path><path d="M351,410L406,361L327,363Z" fill="rgb(39,116,130)" stroke="rgb(39,116,130)" stroke-width="1.51"></path><path d="M35,282L50,337L104,277Z" fill="rgb(142,179,189)" stroke="rgb(142,179,189)" stroke-width="1.51"></path><path d="M263,434L351,410L327,363Z" fill="rgb(52,116,125)" stroke="rgb(52,116,125)" stroke-width="1.51"></path><path d="M38,211L-23,258L35,282Z" fill="rgb(163,192,220)" stroke="rgb(163,192,220)" stroke-width="1.51"></path><path d="M46,61L36,133L103,109Z" fill="rgb(223,219,236)" stroke="rgb(223,219,236)" stroke-width="1.51"></path><path d="M39,417L118,414L98,340Z" fill="rgb(122,148,145)" stroke="rgb(122,148,145)" stroke-width="1.51"></path><path d="M196,40L119,-9L102,54Z" fill="rgb(228,223,238)" stroke="rgb(228,223,238)" stroke-width="1.51"></path><path d="M246,38L249,-11L196,40Z" fill="rgb(204,213,232)" stroke="rgb(204,213,232)" stroke-width="1.51"></path><path d="M326,35L249,-11L246,38Z" fill="rgb(189,207,229)" stroke="rgb(189,207,229)" stroke-width="1.51"></path><path d="M406,361L472,291L404,273Z" fill="rgb(17,130,142)" stroke="rgb(17,130,142)" stroke-width="1.51"></path><path d="M102,54L46,61L103,109Z" fill="rgb(228,221,237)" stroke="rgb(228,221,237)" stroke-width="1.51"></path><path d="M31,-11L46,61L102,54Z" fill="rgb(241,231,243)" stroke="rgb(241,231,243)" stroke-width="1.51"></path><path d="M423,111L426,33L326,35Z" fill="rgb(150,181,209)" stroke="rgb(150,181,209)" stroke-width="1.51"></path><path d="M501,215L471,132L408,207Z" fill="rgb(77,150,170)" stroke="rgb(77,150,170)" stroke-width="1.51"></path><path d="M191,-34L119,-9L196,40Z" fill="rgb(226,225,239)" stroke="rgb(226,225,239)" stroke-width="1.51"></path><path d="M249,-11L191,-34L196,40Z" fill="rgb(214,219,236)" stroke="rgb(214,219,236)" stroke-width="1.51"></path><path d="M35,282L-52,351L50,337Z" fill="rgb(144,180,180)" stroke="rgb(144,180,180)" stroke-width="1.51"></path><path d="M100,491L178,486L118,414Z" fill="rgb(112,139,138)" stroke="rgb(112,139,138)" stroke-width="1.51"></path><path d="M-42,194L-23,258L38,211Z" fill="rgb(176,202,226)" stroke="rgb(176,202,226)" stroke-width="1.51"></path><path d="M-42,194L38,211L36,133Z" fill="rgb(193,210,231)" stroke="rgb(193,210,231)" stroke-width="1.51"></path><path d="M472,291L501,215L408,207Z" fill="rgb(44,138,163)" stroke="rgb(44,138,163)" stroke-width="1.51"></path><path d="M347,496L398,434L351,410Z" fill="rgb(36,107,121)" stroke="rgb(36,107,121)" stroke-width="1.51"></path><path d="M351,410L398,434L406,361Z" fill="rgb(30,105,117)" stroke="rgb(30,105,117)" stroke-width="1.51"></path><path d="M406,361L488,359L472,291Z" fill="rgb(5,120,117)" stroke="rgb(5,120,117)" stroke-width="1.51"></path><path d="M472,61L426,33L423,111Z" fill="rgb(137,175,189)" stroke="rgb(137,175,189)" stroke-width="1.51"></path><path d="M326,35L348,-27L249,-11Z" fill="rgb(181,206,228)" stroke="rgb(181,206,228)" stroke-width="1.51"></path><path d="M249,-11L267,-115L191,-34Z" fill="rgb(207,216,234)" stroke="rgb(207,216,234)" stroke-width="1.51"></path><path d="M179,433L178,486L263,434Z" fill="rgb(93,130,133)" stroke="rgb(93,130,133)" stroke-width="1.51"></path><path d="M263,434L347,496L351,410Z" fill="rgb(50,115,125)" stroke="rgb(50,115,125)" stroke-width="1.51"></path><path d="M118,414L178,486L179,433Z" fill="rgb(106,136,136)" stroke="rgb(106,136,136)" stroke-width="1.51"></path><path d="M39,417L98,340L50,337Z" fill="rgb(130,162,156)" stroke="rgb(130,162,156)" stroke-width="1.51"></path><path d="M426,33L348,-27L326,35Z" fill="rgb(165,193,221)" stroke="rgb(165,193,221)" stroke-width="1.51"></path><path d="M-31,418L39,417L50,337Z" fill="rgb(130,157,148)" stroke="rgb(130,157,148)" stroke-width="1.51"></path><path d="M178,486L274,498L263,434Z" fill="rgb(83,126,131)" stroke="rgb(83,126,131)" stroke-width="1.51"></path><path d="M-43,130L-42,194L36,133Z" fill="rgb(209,217,234)" stroke="rgb(209,217,234)" stroke-width="1.51"></path><path d="M546,276L549,197L501,215Z" fill="rgb(48,129,140)" stroke="rgb(48,129,140)" stroke-width="1.51"></path><path d="M471,408L488,359L406,361Z" fill="rgb(5,108,102)" stroke="rgb(5,108,102)" stroke-width="1.51"></path><path d="M426,33L427,-28L348,-27Z" fill="rgb(160,192,212)" stroke="rgb(160,192,212)" stroke-width="1.51"></path><path d="M471,132L472,61L423,111Z" fill="rgb(124,167,181)" stroke="rgb(124,167,181)" stroke-width="1.51"></path><path d="M555,64L472,61L471,132Z" fill="rgb(125,164,167)" stroke="rgb(125,164,167)" stroke-width="1.51"></path><path d="M398,434L471,408L406,361Z" fill="rgb(17,101,103)" stroke="rgb(17,101,103)" stroke-width="1.51"></path><path d="M274,498L347,496L263,434Z" fill="rgb(58,118,127)" stroke="rgb(58,118,127)" stroke-width="1.51"></path><path d="M-31,41L-43,130L46,61Z" fill="rgb(238,232,243)" stroke="rgb(238,232,243)" stroke-width="1.51"></path><path d="M46,61L-43,130L36,133Z" fill="rgb(226,224,238)" stroke="rgb(226,224,238)" stroke-width="1.51"></path><path d="M483,503L471,408L398,434Z" fill="rgb(4,99,95)" stroke="rgb(4,99,95)" stroke-width="1.51"></path><path d="M39,417L100,491L118,414Z" fill="rgb(120,144,141)" stroke="rgb(120,144,141)" stroke-width="1.51"></path><path d="M178,486L100,491L274,498Z" fill="rgb(99,133,135)" stroke="rgb(99,133,135)" stroke-width="1.51"></path><path d="M119,-9L31,-11L102,54Z" fill="rgb(242,233,244)" stroke="rgb(242,233,244)" stroke-width="1.51"></path><path d="M122,-85L31,-11L119,-9Z" fill="rgb(242,234,244)" stroke="rgb(242,234,244)" stroke-width="1.51"></path><path d="M501,215L549,197L471,132Z" fill="rgb(77,144,154)" stroke="rgb(77,144,154)" stroke-width="1.51"></path><path d="M546,276L501,215L472,291Z" fill="rgb(32,127,140)" stroke="rgb(32,127,140)" stroke-width="1.51"></path><path d="M546,276L472,291L488,359Z" fill="rgb(5,119,116)" stroke="rgb(5,119,116)" stroke-width="1.51"></path><path d="M566,346L546,276L488,359Z" fill="rgb(3,111,98)" stroke="rgb(3,111,98)" stroke-width="1.51"></path><path d="M180,-112L122,-85L191,-34Z" fill="rgb(227,226,239)" stroke="rgb(227,226,239)" stroke-width="1.51"></path><path d="M480,-15L427,-28L426,33Z" fill="rgb(151,188,195)" stroke="rgb(151,188,195)" stroke-width="1.51"></path><path d="M480,-15L426,33L472,61Z" fill="rgb(143,180,187)" stroke="rgb(143,180,187)" stroke-width="1.51"></path><path d="M-23,258L-52,351L35,282Z" fill="rgb(150,188,195)" stroke="rgb(150,188,195)" stroke-width="1.51"></path><path d="M39,417L32,488L100,491Z" fill="rgb(124,147,143)" stroke="rgb(124,147,143)" stroke-width="1.51"></path><path d="M-106,276L-52,351L-23,258Z" fill="rgb(151,188,196)" stroke="rgb(151,188,196)" stroke-width="1.51"></path><path d="M-106,276L-23,258L-42,194Z" fill="rgb(168,196,222)" stroke="rgb(168,196,222)" stroke-width="1.51"></path><path d="M31,-11L-31,41L46,61Z" fill="rgb(247,238,246)" stroke="rgb(247,238,246)" stroke-width="1.51"></path><path d="M347,496L411,503L398,434Z" fill="rgb(29,105,116)" stroke="rgb(29,105,116)" stroke-width="1.51"></path><path d="M274,498L411,503L347,496Z" fill="rgb(43,111,122)" stroke="rgb(43,111,122)" stroke-width="1.51"></path><path d="M191,-34L122,-85L119,-9Z" fill="rgb(232,228,241)" stroke="rgb(232,228,241)" stroke-width="1.51"></path><path d="M341,-93L249,-11L348,-27Z" fill="rgb(180,205,228)" stroke="rgb(180,205,228)" stroke-width="1.51"></path><path d="M-52,351L-31,418L50,337Z" fill="rgb(137,168,159)" stroke="rgb(137,168,159)" stroke-width="1.51"></path><path d="M425,-97L341,-93L348,-27Z" fill="rgb(166,195,222)" stroke="rgb(166,195,222)" stroke-width="1.51"></path><path d="M-31,418L32,488L39,417Z" fill="rgb(129,153,145)" stroke="rgb(129,153,145)" stroke-width="1.51"></path><path d="M341,-93L267,-115L249,-11Z" fill="rgb(188,209,230)" stroke="rgb(188,209,230)" stroke-width="1.51"></path><path d="M267,-115L180,-112L191,-34Z" fill="rgb(214,219,236)" stroke="rgb(214,219,236)" stroke-width="1.51"></path><path d="M555,64L480,-15L472,61Z" fill="rgb(137,172,171)" stroke="rgb(137,172,171)" stroke-width="1.51"></path><path d="M427,-28L425,-97L348,-27Z" fill="rgb(160,192,212)" stroke="rgb(160,192,212)" stroke-width="1.51"></path><path d="M625,125L570,139L636,189Z" fill="rgb(87,128,132)" stroke="rgb(87,128,132)" stroke-width="1.51"></path><path d="M549,197L570,139L471,132Z" fill="rgb(92,146,150)" stroke="rgb(92,146,150)" stroke-width="1.51"></path><path d="M-43,130L-108,197L-42,194Z" fill="rgb(198,213,232)" stroke="rgb(198,213,232)" stroke-width="1.51"></path><path d="M-52,351L-98,361L-31,418Z" fill="rgb(135,164,156)" stroke="rgb(135,164,156)" stroke-width="1.51"></path><path d="M-127,122L-108,197L-43,130Z" fill="rgb(211,218,235)" stroke="rgb(211,218,235)" stroke-width="1.51"></path><path d="M-108,197L-106,276L-42,194Z" fill="rgb(175,202,226)" stroke="rgb(175,202,226)" stroke-width="1.51"></path><path d="M549,433L566,346L488,359Z" fill="rgb(1,94,76)" stroke="rgb(1,94,76)" stroke-width="1.51"></path><path d="M636,189L570,139L549,197Z" fill="rgb(74,127,133)" stroke="rgb(74,127,133)" stroke-width="1.51"></path><path d="M549,433L488,359L471,408Z" fill="rgb(3,92,78)" stroke="rgb(3,92,78)" stroke-width="1.51"></path><path d="M570,139L555,64L471,132Z" fill="rgb(112,154,154)" stroke="rgb(112,154,154)" stroke-width="1.51"></path><path d="M-106,276L-98,361L-52,351Z" fill="rgb(144,181,177)" stroke="rgb(144,181,177)" stroke-width="1.51"></path><path d="M-31,418L-25,498L32,488Z" fill="rgb(130,155,146)" stroke="rgb(130,155,146)" stroke-width="1.51"></path><path d="M341,-93L425,-97L267,-115Z" fill="rgb(172,200,225)" stroke="rgb(172,200,225)" stroke-width="1.51"></path><path d="M494,-94L425,-97L427,-28Z" fill="rgb(150,187,194)" stroke="rgb(150,187,194)" stroke-width="1.51"></path><path d="M494,-94L427,-28L480,-15Z" fill="rgb(147,184,187)" stroke="rgb(147,184,187)" stroke-width="1.51"></path><path d="M411,503L483,503L398,434Z" fill="rgb(14,101,101)" stroke="rgb(14,101,101)" stroke-width="1.51"></path><path d="M-113,37L-127,122L-43,130Z" fill="rgb(232,228,241)" stroke="rgb(232,228,241)" stroke-width="1.51"></path><path d="M31,-11L-34,-34L-31,41Z" fill="rgb(255,247,251)" stroke="rgb(255,247,251)" stroke-width="1.51"></path><path d="M47,-114L-34,-34L31,-11Z" fill="rgb(253,245,250)" stroke="rgb(253,245,250)" stroke-width="1.51"></path><path d="M47,-114L31,-11L122,-85Z" fill="rgb(246,237,246)" stroke="rgb(246,237,246)" stroke-width="1.51"></path><path d="M483,503L549,433L471,408Z" fill="rgb(3,92,78)" stroke="rgb(3,92,78)" stroke-width="1.51"></path><path d="M-108,197L-127,122L-106,276Z" fill="rgb(184,208,229)" stroke="rgb(184,208,229)" stroke-width="1.51"></path><path d="M-105,509L-97,437L-98,361Z" fill="rgb(130,155,146)" stroke="rgb(130,155,146)" stroke-width="1.51"></path><path d="M-113,37L-43,130L-31,41Z" fill="rgb(240,233,243)" stroke="rgb(240,233,243)" stroke-width="1.51"></path><path d="M-97,437L-25,498L-31,418Z" fill="rgb(130,155,146)" stroke="rgb(130,155,146)" stroke-width="1.51"></path><path d="M32,488L-25,498L100,491Z" fill="rgb(126,150,144)" stroke="rgb(126,150,144)" stroke-width="1.51"></path><path d="M100,491L-105,509L274,498Z" fill="rgb(119,144,140)" stroke="rgb(119,144,140)" stroke-width="1.51"></path><path d="M274,498L-105,509L411,503Z" fill="rgb(97,132,134)" stroke="rgb(97,132,134)" stroke-width="1.51"></path><path d="M267,-115L47,-114L180,-112Z" fill="rgb(227,226,239)" stroke="rgb(227,226,239)" stroke-width="1.51"></path><path d="M180,-112L47,-114L122,-85Z" fill="rgb(238,232,242)" stroke="rgb(238,232,242)" stroke-width="1.51"></path><path d="M-105,509L-98,361L-106,276Z" fill="rgb(134,162,153)" stroke="rgb(134,162,153)" stroke-width="1.51"></path><path d="M-98,361L-97,437L-31,418Z" fill="rgb(130,155,146)" stroke="rgb(130,155,146)" stroke-width="1.51"></path><path d="M-100,-27L-31,41L-34,-34Z" fill="rgb(255,247,251)" stroke="rgb(255,247,251)" stroke-width="1.51"></path><path d="M-100,-27L-113,37L-31,41Z" fill="rgb(252,243,249)" stroke="rgb(252,243,249)" stroke-width="1.51"></path><path d="M573,-12L494,-94L480,-15Z" fill="rgb(142,178,170)" stroke="rgb(142,178,170)" stroke-width="1.51"></path><path d="M570,139L625,125L555,64Z" fill="rgb(107,140,141)" stroke="rgb(107,140,141)" stroke-width="1.51"></path><path d="M636,189L549,197L546,276Z" fill="rgb(48,119,130)" stroke="rgb(48,119,130)" stroke-width="1.51"></path><path d="M636,189L546,276L649,280Z" fill="rgb(33,107,120)" stroke="rgb(33,107,120)" stroke-width="1.51"></path><path d="M649,280L546,276L566,346Z" fill="rgb(4,102,97)" stroke="rgb(4,102,97)" stroke-width="1.51"></path><path d="M425,-97L494,-94L267,-115Z" fill="rgb(161,192,214)" stroke="rgb(161,192,214)" stroke-width="1.51"></path><path d="M573,-12L480,-15L555,64Z" fill="rgb(137,171,162)" stroke="rgb(137,171,162)" stroke-width="1.51"></path><path d="M644,65L573,-12L555,64Z" fill="rgb(125,150,145)" stroke="rgb(125,150,145)" stroke-width="1.51"></path><path d="M644,364L649,280L566,346Z" fill="rgb(3,93,80)" stroke="rgb(3,93,80)" stroke-width="1.51"></path><path d="M-112,-100L-100,-27L-34,-34Z" fill="rgb(255,247,251)" stroke="rgb(255,247,251)" stroke-width="1.51"></path><path d="M549,433L644,364L566,346Z" fill="rgb(1,80,63)" stroke="rgb(1,80,63)" stroke-width="1.51"></path><path d="M483,503L568,490L549,433Z" fill="rgb(1,87,69)" stroke="rgb(1,87,69)" stroke-width="1.51"></path><path d="M651,417L644,364L549,433Z" fill="rgb(1,70,54)" stroke="rgb(1,70,54)" stroke-width="1.51"></path><path d="M625,125L644,65L555,64Z" fill="rgb(113,140,138)" stroke="rgb(113,140,138)" stroke-width="1.51"></path><path d="M714,131L644,65L625,125Z" fill="rgb(105,136,136)" stroke="rgb(105,136,136)" stroke-width="1.51"></path><path d="M714,131L625,125L636,189Z" fill="rgb(88,128,132)" stroke="rgb(88,128,132)" stroke-width="1.51"></path><path d="M47,-114L-47,-115L-34,-34Z" fill="rgb(255,247,251)" stroke="rgb(255,247,251)" stroke-width="1.51"></path><path d="M267,-115L-47,-115L47,-114Z" fill="rgb(243,235,244)" stroke="rgb(243,235,244)" stroke-width="1.51"></path><path d="M-97,437L-105,509L-25,498Z" fill="rgb(130,155,146)" stroke="rgb(130,155,146)" stroke-width="1.51"></path><path d="M-25,498L-105,509L100,491Z" fill="rgb(130,155,146)" stroke="rgb(130,155,146)" stroke-width="1.51"></path><path d="M411,503L710,509L483,503Z" fill="rgb(1,86,69)" stroke="rgb(1,86,69)" stroke-width="1.51"></path><path d="M-127,122L-105,509L-106,276Z" fill="rgb(149,187,192)" stroke="rgb(149,187,192)" stroke-width="1.51"></path><path d="M631,-90L570,-88L573,-12Z" fill="rgb(131,157,149)" stroke="rgb(131,157,149)" stroke-width="1.51"></path><path d="M573,-12L570,-88L494,-94Z" fill="rgb(138,170,161)" stroke="rgb(138,170,161)" stroke-width="1.51"></path><path d="M494,-94L724,-99L267,-115Z" fill="rgb(144,180,177)" stroke="rgb(144,180,177)" stroke-width="1.51"></path><path d="M568,490L651,417L549,433Z" fill="rgb(1,72,56)" stroke="rgb(1,72,56)" stroke-width="1.51"></path><path d="M712,359L718,269L649,280Z" fill="rgb(4,98,93)" stroke="rgb(4,98,93)" stroke-width="1.51"></path><path d="M644,65L632,-12L573,-12Z" fill="rgb(128,152,145)" stroke="rgb(128,152,145)" stroke-width="1.51"></path><path d="M-47,-115L-112,-100L-34,-34Z" fill="rgb(255,247,251)" stroke="rgb(255,247,251)" stroke-width="1.51"></path><path d="M-100,-27L-112,-100L-113,37Z" fill="rgb(255,247,251)" stroke="rgb(255,247,251)" stroke-width="1.51"></path><path d="M-113,37L-112,-100L-127,122Z" fill="rgb(251,243,249)" stroke="rgb(251,243,249)" stroke-width="1.51"></path><path d="M649,280L722,203L636,189Z" fill="rgb(45,112,123)" stroke="rgb(45,112,123)" stroke-width="1.51"></path><path d="M644,65L711,34L632,-12Z" fill="rgb(125,149,144)" stroke="rgb(125,149,144)" stroke-width="1.51"></path><path d="M712,359L649,280L644,364Z" fill="rgb(3,92,78)" stroke="rgb(3,92,78)" stroke-width="1.51"></path><path d="M718,269L722,203L649,280Z" fill="rgb(32,106,119)" stroke="rgb(32,106,119)" stroke-width="1.51"></path><path d="M722,203L714,131L636,189Z" fill="rgb(73,123,129)" stroke="rgb(73,123,129)" stroke-width="1.51"></path><path d="M711,414L712,359L644,364Z" fill="rgb(1,78,61)" stroke="rgb(1,78,61)" stroke-width="1.51"></path><path d="M568,490L638,501L651,417Z" fill="rgb(1,70,54)" stroke="rgb(1,70,54)" stroke-width="1.51"></path><path d="M483,503L638,501L568,490Z" fill="rgb(1,79,62)" stroke="rgb(1,79,62)" stroke-width="1.51"></path><path d="M711,414L644,364L651,417Z" fill="rgb(1,70,54)" stroke="rgb(1,70,54)" stroke-width="1.51"></path><path d="M710,-19L631,-90L632,-12Z" fill="rgb(130,155,146)" stroke="rgb(130,155,146)" stroke-width="1.51"></path><path d="M632,-12L631,-90L573,-12Z" fill="rgb(130,155,146)" stroke="rgb(130,155,146)" stroke-width="1.51"></path><path d="M570,-88L631,-90L494,-94Z" fill="rgb(135,164,156)" stroke="rgb(135,164,156)" stroke-width="1.51"></path><path d="M724,-99L711,34L714,131Z" fill="rgb(127,151,144)" stroke="rgb(127,151,144)" stroke-width="1.51"></path><path d="M714,131L711,34L644,65Z" fill="rgb(115,141,139)" stroke="rgb(115,141,139)" stroke-width="1.51"></path><path d="M710,509L711,414L651,417Z" fill="rgb(1,70,54)" stroke="rgb(1,70,54)" stroke-width="1.51"></path><path d="M712,359L711,414L718,269Z" fill="rgb(2,89,73)" stroke="rgb(2,89,73)" stroke-width="1.51"></path><path d="M718,269L710,509L722,203Z" fill="rgb(3,93,82)" stroke="rgb(3,93,82)" stroke-width="1.51"></path><path d="M711,34L710,-19L632,-12Z" fill="rgb(130,155,146)" stroke="rgb(130,155,146)" stroke-width="1.51"></path><path d="M724,-99L710,-19L711,34Z" fill="rgb(130,155,146)" stroke="rgb(130,155,146)" stroke-width="1.51"></path><path d="M638,501L710,509L651,417Z" fill="rgb(1,70,54)" stroke="rgb(1,70,54)" stroke-width="1.51"></path><path d="M711,414L710,509L718,269Z" fill="rgb(1,71,55)" stroke="rgb(1,71,55)" stroke-width="1.51"></path><path d="M483,503L710,509L638,501Z" fill="rgb(1,70,54)" stroke="rgb(1,70,54)" stroke-width="1.51"></path><path d="M-105,509L710,509L411,503Z" fill="rgb(44,112,123)" stroke="rgb(44,112,123)" stroke-width="1.51"></path><path d="M710,-19L724,-99L631,-90Z" fill="rgb(130,155,146)" stroke="rgb(130,155,146)" stroke-width="1.51"></path><path d="M631,-90L724,-99L494,-94Z" fill="rgb(130,155,146)" stroke="rgb(130,155,146)" stroke-width="1.51"></path><path d="M722,203L724,-99L714,131Z" fill="rgb(114,140,139)" stroke="rgb(114,140,139)" stroke-width="1.51"></path></svg>