<svg width="600" height="400" xmlns="http://www.w3.org/2000/svg"><path d="M282,220L351,183L262,150Z" fill="rgb(253,147,68)" stroke="rgb(253,147,68)" stroke-width="1.51"></path><path d="M351,183L362,120L262,150Z" fill="rgb(252,151,78)" stroke="rgb(252,151,78)" stroke-width="1.51"></path><path d="M351,183L390,178L362,120Z" fill="rgb(249,139,64)" stroke="rgb(249,139,64)" stroke-width="1.51"></path><path d="M402,250L390,178L351,183Z" fill="rgb(246,120,39)" stroke="rgb(246,120,39)" stroke-width="1.51"></path><path d="M282,220L347,256L351,183Z" fill="rgb(249,128,46)" stroke="rgb(249,128,46)" stroke-width="1.51"></path><path d="M282,220L241,283L347,256Z" fill="rgb(247,125,45)" stroke="rgb(247,125,45)" stroke-width="1.51"></path><path d="M170,205L241,283L282,220Z" fill="rgb(250,144,69)" stroke="rgb(250,144,69)" stroke-width="1.51"></path><path d="M347,256L402,250L351,183Z" fill="rgb(244,115,32)" stroke="rgb(244,115,32)" stroke-width="1.51"></path><path d="M359,328L402,250L347,256Z" fill="rgb(235,98,16)" stroke="rgb(235,98,16)" stroke-width="1.51"></path><path d="M362,120L281,51L262,150Z" fill="rgb(255,172,107)" stroke="rgb(255,172,107)" stroke-width="1.51"></path><path d="M420,70L341,57L362,120Z" fill="rgb(253,162,102)" stroke="rgb(253,162,102)" stroke-width="1.51"></path><path d="M341,57L281,51L362,120Z" fill="rgb(255,174,115)" stroke="rgb(255,174,115)" stroke-width="1.51"></path><path d="M262,150L170,205L282,220Z" fill="rgb(253,158,84)" stroke="rgb(253,158,84)" stroke-width="1.51"></path><path d="M187,75L185,120L262,150Z" fill="rgb(254,189,131)" stroke="rgb(254,189,131)" stroke-width="1.51"></path><path d="M185,120L170,205L262,150Z" fill="rgb(254,176,110)" stroke="rgb(254,176,110)" stroke-width="1.51"></path><path d="M390,178L434,131L362,120Z" fill="rgb(246,139,69)" stroke="rgb(246,139,69)" stroke-width="1.51"></path><path d="M487,183L434,131L390,178Z" fill="rgb(239,123,54)" stroke="rgb(239,123,54)" stroke-width="1.51"></path><path d="M281,51L187,75L262,150Z" fill="rgb(254,189,132)" stroke="rgb(254,189,132)" stroke-width="1.51"></path><path d="M97,140L105,224L170,205Z" fill="rgb(255,182,124)" stroke="rgb(255,182,124)" stroke-width="1.51"></path><path d="M434,131L420,70L362,120Z" fill="rgb(247,149,87)" stroke="rgb(247,149,87)" stroke-width="1.51"></path><path d="M265,339L359,328L347,256Z" fill="rgb(229,100,27)" stroke="rgb(229,100,27)" stroke-width="1.51"></path><path d="M241,283L265,339L347,256Z" fill="rgb(238,114,40)" stroke="rgb(238,114,40)" stroke-width="1.51"></path><path d="M168,330L265,339L241,283Z" fill="rgb(228,122,58)" stroke="rgb(228,122,58)" stroke-width="1.51"></path><path d="M170,205L162,281L241,283Z" fill="rgb(249,146,79)" stroke="rgb(249,146,79)" stroke-width="1.51"></path><path d="M402,250L487,183L390,178Z" fill="rgb(239,111,35)" stroke="rgb(239,111,35)" stroke-width="1.51"></path><path d="M434,131L497,118L420,70Z" fill="rgb(240,141,83)" stroke="rgb(240,141,83)" stroke-width="1.51"></path><path d="M491,284L487,183L402,250Z" fill="rgb(227,92,16)" stroke="rgb(227,92,16)" stroke-width="1.51"></path><path d="M487,183L497,118L434,131Z" fill="rgb(229,124,62)" stroke="rgb(229,124,62)" stroke-width="1.51"></path><path d="M170,205L105,224L162,281Z" fill="rgb(253,163,101)" stroke="rgb(253,163,101)" stroke-width="1.51"></path><path d="M97,140L170,205L185,120Z" fill="rgb(254,190,132)" stroke="rgb(254,190,132)" stroke-width="1.51"></path><path d="M162,281L168,330L241,283Z" fill="rgb(240,134,72)" stroke="rgb(240,134,72)" stroke-width="1.51"></path><path d="M137,355L168,330L162,281Z" fill="rgb(228,136,83)" stroke="rgb(228,136,83)" stroke-width="1.51"></path><path d="M281,51L250,-23L187,75Z" fill="rgb(255,201,156)" stroke="rgb(255,201,156)" stroke-width="1.51"></path><path d="M350,-29L250,-23L281,51Z" fill="rgb(255,194,149)" stroke="rgb(255,194,149)" stroke-width="1.51"></path><path d="M350,-29L281,51L341,57Z" fill="rgb(255,184,134)" stroke="rgb(255,184,134)" stroke-width="1.51"></path><path d="M106,63L97,140L185,120Z" fill="rgb(254,208,164)" stroke="rgb(254,208,164)" stroke-width="1.51"></path><path d="M106,63L185,120L187,75Z" fill="rgb(254,209,164)" stroke="rgb(254,209,164)" stroke-width="1.51"></path><path d="M420,70L350,-29L341,57Z" fill="rgb(255,172,122)" stroke="rgb(255,172,122)" stroke-width="1.51"></path><path d="M437,-20L350,-29L420,70Z" fill="rgb(254,170,125)" stroke="rgb(254,170,125)" stroke-width="1.51"></path><path d="M105,224L101,251L162,281Z" fill="rgb(253,161,102)" stroke="rgb(253,161,102)" stroke-width="1.51"></path><path d="M52,253L101,251L105,224Z" fill="rgb(255,170,115)" stroke="rgb(255,170,115)" stroke-width="1.51"></path><path d="M430,366L491,284L402,250Z" fill="rgb(219,74,2)" stroke="rgb(219,74,2)" stroke-width="1.51"></path><path d="M487,183L559,105L497,118Z" fill="rgb(216,121,65)" stroke="rgb(216,121,65)" stroke-width="1.51"></path><path d="M161,-4L106,63L187,75Z" fill="rgb(254,219,185)" stroke="rgb(254,219,185)" stroke-width="1.51"></path><path d="M359,328L430,366L402,250Z" fill="rgb(218,82,7)" stroke="rgb(218,82,7)" stroke-width="1.51"></path><path d="M265,339L337,401L359,328Z" fill="rgb(205,91,27)" stroke="rgb(205,91,27)" stroke-width="1.51"></path><path d="M243,450L337,401L265,339Z" fill="rgb(190,94,37)" stroke="rgb(190,94,37)" stroke-width="1.51"></path><path d="M337,401L430,366L359,328Z" fill="rgb(197,77,10)" stroke="rgb(197,77,10)" stroke-width="1.51"></path><path d="M250,-23L161,-4L187,75Z" fill="rgb(255,213,176)" stroke="rgb(255,213,176)" stroke-width="1.51"></path><path d="M497,118L498,43L420,70Z" fill="rgb(235,145,95)" stroke="rgb(235,145,95)" stroke-width="1.51"></path><path d="M498,43L437,-20L420,70Z" fill="rgb(246,157,113)" stroke="rgb(246,157,113)" stroke-width="1.51"></path><path d="M200,439L243,450L265,339Z" fill="rgb(189,103,51)" stroke="rgb(189,103,51)" stroke-width="1.51"></path><path d="M101,251L137,355L162,281Z" fill="rgb(243,147,92)" stroke="rgb(243,147,92)" stroke-width="1.51"></path><path d="M430,366L481,343L491,284Z" fill="rgb(195,64,2)" stroke="rgb(195,64,2)" stroke-width="1.51"></path><path d="M176,-122L104,-41L161,-4Z" fill="rgb(255,227,199)" stroke="rgb(255,227,199)" stroke-width="1.51"></path><path d="M350,-29L317,-78L250,-23Z" fill="rgb(255,192,146)" stroke="rgb(255,192,146)" stroke-width="1.51"></path><path d="M411,-99L317,-78L350,-29Z" fill="rgb(255,180,133)" stroke="rgb(255,180,133)" stroke-width="1.51"></path><path d="M101,251L30,334L137,355Z" fill="rgb(237,149,103)" stroke="rgb(237,149,103)" stroke-width="1.51"></path><path d="M22,209L52,253L105,224Z" fill="rgb(255,178,126)" stroke="rgb(255,178,126)" stroke-width="1.51"></path><path d="M22,209L105,224L97,140Z" fill="rgb(255,189,137)" stroke="rgb(255,189,137)" stroke-width="1.51"></path><path d="M106,63L42,134L97,140Z" fill="rgb(255,214,175)" stroke="rgb(255,214,175)" stroke-width="1.51"></path><path d="M39,38L42,134L106,63Z" fill="rgb(254,225,196)" stroke="rgb(254,225,196)" stroke-width="1.51"></path><path d="M498,43L507,-36L437,-20Z" fill="rgb(237,156,120)" stroke="rgb(237,156,120)" stroke-width="1.51"></path><path d="M497,118L537,48L498,43Z" fill="rgb(221,140,96)" stroke="rgb(221,140,96)" stroke-width="1.51"></path><path d="M567,220L559,105L487,183Z" fill="rgb(207,106,47)" stroke="rgb(207,106,47)" stroke-width="1.51"></path><path d="M567,220L487,183L491,284Z" fill="rgb(209,88,21)" stroke="rgb(209,88,21)" stroke-width="1.51"></path><path d="M559,105L537,48L497,118Z" fill="rgb(213,133,86)" stroke="rgb(213,133,86)" stroke-width="1.51"></path><path d="M564,289L567,220L491,284Z" fill="rgb(195,73,7)" stroke="rgb(195,73,7)" stroke-width="1.51"></path><path d="M200,439L265,339L168,330Z" fill="rgb(203,114,60)" stroke="rgb(203,114,60)" stroke-width="1.51"></path><path d="M337,401L411,435L430,366Z" fill="rgb(179,67,9)" stroke="rgb(179,67,9)" stroke-width="1.51"></path><path d="M430,366L490,440L481,343Z" fill="rgb(172,56,3)" stroke="rgb(172,56,3)" stroke-width="1.51"></path><path d="M328,518L411,435L337,401Z" fill="rgb(184,75,16)" stroke="rgb(184,75,16)" stroke-width="1.51"></path><path d="M137,355L200,439L168,330Z" fill="rgb(203,123,75)" stroke="rgb(203,123,75)" stroke-width="1.51"></path><path d="M123,400L200,439L137,355Z" fill="rgb(193,122,79)" stroke="rgb(193,122,79)" stroke-width="1.51"></path><path d="M42,134L22,209L97,140Z" fill="rgb(255,200,155)" stroke="rgb(255,200,155)" stroke-width="1.51"></path><path d="M557,339L564,289L491,284Z" fill="rgb(186,61,2)" stroke="rgb(186,61,2)" stroke-width="1.51"></path><path d="M557,339L491,284L481,343Z" fill="rgb(185,61,3)" stroke="rgb(185,61,3)" stroke-width="1.51"></path><path d="M30,334L101,251L52,253Z" fill="rgb(250,161,114)" stroke="rgb(250,161,114)" stroke-width="1.51"></path><path d="M30,334L123,400L137,355Z" fill="rgb(211,137,97)" stroke="rgb(211,137,97)" stroke-width="1.51"></path><path d="M581,-9L507,-36L537,48Z" fill="rgb(215,147,116)" stroke="rgb(215,147,116)" stroke-width="1.51"></path><path d="M537,48L507,-36L498,43Z" fill="rgb(223,148,113)" stroke="rgb(223,148,113)" stroke-width="1.51"></path><path d="M437,-20L411,-99L350,-29Z" fill="rgb(255,171,127)" stroke="rgb(255,171,127)" stroke-width="1.51"></path><path d="M161,-4L104,-41L106,63Z" fill="rgb(255,229,204)" stroke="rgb(255,229,204)" stroke-width="1.51"></path><path d="M176,-122L161,-4L250,-23Z" fill="rgb(255,216,181)" stroke="rgb(255,216,181)" stroke-width="1.51"></path><path d="M467,-76L411,-99L437,-20Z" fill="rgb(250,163,123)" stroke="rgb(250,163,123)" stroke-width="1.51"></path><path d="M317,-78L283,-124L250,-23Z" fill="rgb(255,196,152)" stroke="rgb(255,196,152)" stroke-width="1.51"></path><path d="M42,134L-52,201L22,209Z" fill="rgb(255,199,155)" stroke="rgb(255,199,155)" stroke-width="1.51"></path><path d="M104,-41L39,38L106,63Z" fill="rgb(255,233,212)" stroke="rgb(255,233,212)" stroke-width="1.51"></path><path d="M411,-99L283,-124L317,-78Z" fill="rgb(255,185,139)" stroke="rgb(255,185,139)" stroke-width="1.51"></path><path d="M507,-36L467,-76L437,-20Z" fill="rgb(240,158,120)" stroke="rgb(240,158,120)" stroke-width="1.51"></path><path d="M567,410L557,339L481,343Z" fill="rgb(158,51,4)" stroke="rgb(158,51,4)" stroke-width="1.51"></path><path d="M243,450L253,478L337,401Z" fill="rgb(189,94,38)" stroke="rgb(189,94,38)" stroke-width="1.51"></path><path d="M200,439L253,478L243,450Z" fill="rgb(190,104,52)" stroke="rgb(190,104,52)" stroke-width="1.51"></path><path d="M171,508L253,478L200,439Z" fill="rgb(191,109,60)" stroke="rgb(191,109,60)" stroke-width="1.51"></path><path d="M-47,253L30,334L52,253Z" fill="rgb(252,166,123)" stroke="rgb(252,166,123)" stroke-width="1.51"></path><path d="M411,435L490,440L430,366Z" fill="rgb(172,57,4)" stroke="rgb(172,57,4)" stroke-width="1.51"></path><path d="M479,496L490,440L411,435Z" fill="rgb(168,54,4)" stroke="rgb(168,54,4)" stroke-width="1.51"></path><path d="M283,-124L176,-122L250,-23Z" fill="rgb(255,207,167)" stroke="rgb(255,207,167)" stroke-width="1.51"></path><path d="M48,-91L29,-4L104,-41Z" fill="rgb(255,239,223)" stroke="rgb(255,239,223)" stroke-width="1.51"></path><path d="M104,-41L29,-4L39,38Z" fill="rgb(255,239,224)" stroke="rgb(255,239,224)" stroke-width="1.51"></path><path d="M-57,123L-52,201L42,134Z" fill="rgb(255,208,169)" stroke="rgb(255,208,169)" stroke-width="1.51"></path><path d="M567,220L631,129L559,105Z" fill="rgb(193,107,54)" stroke="rgb(193,107,54)" stroke-width="1.51"></path><path d="M626,65L581,-9L537,48Z" fill="rgb(202,137,105)" stroke="rgb(202,137,105)" stroke-width="1.51"></path><path d="M641,180L631,129L567,220Z" fill="rgb(189,97,42)" stroke="rgb(189,97,42)" stroke-width="1.51"></path><path d="M613,298L567,220L564,289Z" fill="rgb(183,67,7)" stroke="rgb(183,67,7)" stroke-width="1.51"></path><path d="M557,339L613,298L564,289Z" fill="rgb(172,56,3)" stroke="rgb(172,56,3)" stroke-width="1.51"></path><path d="M629,369L613,298L557,339Z" fill="rgb(154,49,4)" stroke="rgb(154,49,4)" stroke-width="1.51"></path><path d="M507,-36L573,-121L467,-76Z" fill="rgb(223,151,117)" stroke="rgb(223,151,117)" stroke-width="1.51"></path><path d="M626,65L537,48L559,105Z" fill="rgb(201,131,92)" stroke="rgb(201,131,92)" stroke-width="1.51"></path><path d="M613,298L641,180L567,220Z" fill="rgb(184,78,19)" stroke="rgb(184,78,19)" stroke-width="1.51"></path><path d="M703,38L626,65L631,129Z" fill="rgb(194,127,89)" stroke="rgb(194,127,89)" stroke-width="1.51"></path><path d="M631,129L626,65L559,105Z" fill="rgb(192,122,80)" stroke="rgb(192,122,80)" stroke-width="1.51"></path><path d="M253,478L328,518L337,401Z" fill="rgb(188,88,30)" stroke="rgb(188,88,30)" stroke-width="1.51"></path><path d="M578,481L567,410L490,440Z" fill="rgb(141,44,4)" stroke="rgb(141,44,4)" stroke-width="1.51"></path><path d="M490,440L567,410L481,343Z" fill="rgb(151,48,4)" stroke="rgb(151,48,4)" stroke-width="1.51"></path><path d="M22,209L-47,253L52,253Z" fill="rgb(255,179,132)" stroke="rgb(255,179,132)" stroke-width="1.51"></path><path d="M-57,123L42,134L-51,52Z" fill="rgb(255,225,197)" stroke="rgb(255,225,197)" stroke-width="1.51"></path><path d="M123,504L200,439L123,400Z" fill="rgb(192,122,80)" stroke="rgb(192,122,80)" stroke-width="1.51"></path><path d="M123,504L171,508L200,439Z" fill="rgb(192,119,75)" stroke="rgb(192,119,75)" stroke-width="1.51"></path><path d="M253,478L171,508L328,518Z" fill="rgb(190,100,46)" stroke="rgb(190,100,46)" stroke-width="1.51"></path><path d="M-52,201L-47,253L22,209Z" fill="rgb(255,186,140)" stroke="rgb(255,186,140)" stroke-width="1.51"></path><path d="M30,334L26,445L123,400Z" fill="rgb(199,135,103)" stroke="rgb(199,135,103)" stroke-width="1.51"></path><path d="M328,518L392,525L411,435Z" fill="rgb(182,71,11)" stroke="rgb(182,71,11)" stroke-width="1.51"></path><path d="M171,508L392,525L328,518Z" fill="rgb(188,90,32)" stroke="rgb(188,90,32)" stroke-width="1.51"></path><path d="M-47,253L-18,341L30,334Z" fill="rgb(242,159,121)" stroke="rgb(242,159,121)" stroke-width="1.51"></path><path d="M-51,52L42,134L39,38Z" fill="rgb(255,231,207)" stroke="rgb(255,231,207)" stroke-width="1.51"></path><path d="M392,525L479,496L411,435Z" fill="rgb(174,60,6)" stroke="rgb(174,60,6)" stroke-width="1.51"></path><path d="M29,-4L-51,52L39,38Z" fill="rgb(255,240,225)" stroke="rgb(255,240,225)" stroke-width="1.51"></path><path d="M176,-122L90,-122L104,-41Z" fill="rgb(255,230,206)" stroke="rgb(255,230,206)" stroke-width="1.51"></path><path d="M283,-124L90,-122L176,-122Z" fill="rgb(255,219,186)" stroke="rgb(255,219,186)" stroke-width="1.51"></path><path d="M626,65L621,-7L581,-9Z" fill="rgb(197,137,109)" stroke="rgb(197,137,109)" stroke-width="1.51"></path><path d="M581,-9L573,-121L507,-36Z" fill="rgb(212,145,116)" stroke="rgb(212,145,116)" stroke-width="1.51"></path><path d="M703,38L621,-7L626,65Z" fill="rgb(197,135,105)" stroke="rgb(197,135,105)" stroke-width="1.51"></path><path d="M90,-122L48,-91L104,-41Z" fill="rgb(255,236,219)" stroke="rgb(255,236,219)" stroke-width="1.51"></path><path d="M26,445L123,504L123,400Z" fill="rgb(195,130,96)" stroke="rgb(195,130,96)" stroke-width="1.51"></path><path d="M-29,-28L-51,52L29,-4Z" fill="rgb(255,244,233)" stroke="rgb(255,244,233)" stroke-width="1.51"></path><path d="M567,410L629,369L557,339Z" fill="rgb(141,44,4)" stroke="rgb(141,44,4)" stroke-width="1.51"></path><path d="M721,277L694,182L641,180Z" fill="rgb(187,85,26)" stroke="rgb(187,85,26)" stroke-width="1.51"></path><path d="M659,423L629,369L567,410Z" fill="rgb(127,39,4)" stroke="rgb(127,39,4)" stroke-width="1.51"></path><path d="M-27,424L26,445L30,334Z" fill="rgb(198,139,112)" stroke="rgb(198,139,112)" stroke-width="1.51"></path><path d="M48,-91L-29,-28L29,-4Z" fill="rgb(255,243,232)" stroke="rgb(255,243,232)" stroke-width="1.51"></path><path d="M641,180L694,182L631,129Z" fill="rgb(189,101,48)" stroke="rgb(189,101,48)" stroke-width="1.51"></path><path d="M721,277L641,180L613,298Z" fill="rgb(182,71,10)" stroke="rgb(182,71,10)" stroke-width="1.51"></path><path d="M-18,341L-27,424L30,334Z" fill="rgb(213,146,116)" stroke="rgb(213,146,116)" stroke-width="1.51"></path><path d="M-47,253L-88,268L-18,341Z" fill="rgb(251,165,124)" stroke="rgb(251,165,124)" stroke-width="1.51"></path><path d="M-52,201L-88,268L-47,253Z" fill="rgb(255,179,133)" stroke="rgb(255,179,133)" stroke-width="1.51"></path><path d="M-114,194L-88,268L-52,201Z" fill="rgb(255,186,140)" stroke="rgb(255,186,140)" stroke-width="1.51"></path><path d="M-114,194L-52,201L-57,123Z" fill="rgb(255,202,160)" stroke="rgb(255,202,160)" stroke-width="1.51"></path><path d="M662,-85L573,-121L581,-9Z" fill="rgb(198,139,113)" stroke="rgb(198,139,113)" stroke-width="1.51"></path><path d="M467,-76L573,-121L411,-99Z" fill="rgb(236,156,119)" stroke="rgb(236,156,119)" stroke-width="1.51"></path><path d="M411,-99L573,-121L283,-124Z" fill="rgb(252,167,125)" stroke="rgb(252,167,125)" stroke-width="1.51"></path><path d="M618,489L578,481L479,496Z" fill="rgb(137,43,4)" stroke="rgb(137,43,4)" stroke-width="1.51"></path><path d="M479,496L578,481L490,440Z" fill="rgb(149,47,4)" stroke="rgb(149,47,4)" stroke-width="1.51"></path><path d="M26,445L30,488L123,504Z" fill="rgb(196,134,103)" stroke="rgb(196,134,103)" stroke-width="1.51"></path><path d="M-124,375L-27,424L-18,341Z" fill="rgb(207,143,115)" stroke="rgb(207,143,115)" stroke-width="1.51"></path><path d="M-20,476L30,488L26,445Z" fill="rgb(198,139,111)" stroke="rgb(198,139,111)" stroke-width="1.51"></path><path d="M-125,116L-57,123L-51,52Z" fill="rgb(255,227,200)" stroke="rgb(255,227,200)" stroke-width="1.51"></path><path d="M-125,116L-114,194L-57,123Z" fill="rgb(255,211,173)" stroke="rgb(255,211,173)" stroke-width="1.51"></path><path d="M-29,-28L-93,30L-51,52Z" fill="rgb(255,242,230)" stroke="rgb(255,242,230)" stroke-width="1.51"></path><path d="M621,-7L662,-85L581,-9Z" fill="rgb(198,139,113)" stroke="rgb(198,139,113)" stroke-width="1.51"></path><path d="M738,114L703,38L631,129Z" fill="rgb(193,124,83)" stroke="rgb(193,124,83)" stroke-width="1.51"></path><path d="M711,372L613,298L629,369Z" fill="rgb(148,47,4)" stroke="rgb(148,47,4)" stroke-width="1.51"></path><path d="M711,372L721,277L613,298Z" fill="rgb(163,52,4)" stroke="rgb(163,52,4)" stroke-width="1.51"></path><path d="M694,182L738,114L631,129Z" fill="rgb(190,109,58)" stroke="rgb(190,109,58)" stroke-width="1.51"></path><path d="M-93,30L-125,116L-51,52Z" fill="rgb(255,234,213)" stroke="rgb(255,234,213)" stroke-width="1.51"></path><path d="M618,489L659,423L567,410Z" fill="rgb(127,39,4)" stroke="rgb(127,39,4)" stroke-width="1.51"></path><path d="M721,277L738,114L694,182Z" fill="rgb(189,92,36)" stroke="rgb(189,92,36)" stroke-width="1.51"></path><path d="M-27,424L-20,476L26,445Z" fill="rgb(198,139,113)" stroke="rgb(198,139,113)" stroke-width="1.51"></path><path d="M-89,439L-20,476L-27,424Z" fill="rgb(198,139,113)" stroke="rgb(198,139,113)" stroke-width="1.51"></path><path d="M-124,375L-18,341L-88,268Z" fill="rgb(232,155,119)" stroke="rgb(232,155,119)" stroke-width="1.51"></path><path d="M392,525L618,489L479,496Z" fill="rgb(155,50,4)" stroke="rgb(155,50,4)" stroke-width="1.51"></path><path d="M578,481L618,489L567,410Z" fill="rgb(130,40,4)" stroke="rgb(130,40,4)" stroke-width="1.51"></path><path d="M734,-8L662,-85L621,-7Z" fill="rgb(198,139,113)" stroke="rgb(198,139,113)" stroke-width="1.51"></path><path d="M734,-8L621,-7L703,38Z" fill="rgb(198,139,112)" stroke="rgb(198,139,112)" stroke-width="1.51"></path><path d="M716,443L711,372L659,423Z" fill="rgb(127,39,4)" stroke="rgb(127,39,4)" stroke-width="1.51"></path><path d="M659,423L711,372L629,369Z" fill="rgb(131,41,4)" stroke="rgb(131,41,4)" stroke-width="1.51"></path><path d="M-29,-28L-110,-47L-93,30Z" fill="rgb(255,245,235)" stroke="rgb(255,245,235)" stroke-width="1.51"></path><path d="M-93,30L-110,-47L-125,116Z" fill="rgb(255,240,225)" stroke="rgb(255,240,225)" stroke-width="1.51"></path><path d="M48,-91L-51,-118L-29,-28Z" fill="rgb(255,245,235)" stroke="rgb(255,245,235)" stroke-width="1.51"></path><path d="M90,-122L-51,-118L48,-91Z" fill="rgb(255,242,229)" stroke="rgb(255,242,229)" stroke-width="1.51"></path><path d="M738,114L734,-8L703,38Z" fill="rgb(196,133,101)" stroke="rgb(196,133,101)" stroke-width="1.51"></path><path d="M-51,-118L-110,-47L-29,-28Z" fill="rgb(255,245,235)" stroke="rgb(255,245,235)" stroke-width="1.51"></path><path d="M-114,194L-124,375L-88,268Z" fill="rgb(252,167,125)" stroke="rgb(252,167,125)" stroke-width="1.51"></path><path d="M-125,116L-124,375L-114,194Z" fill="rgb(255,183,137)" stroke="rgb(255,183,137)" stroke-width="1.51"></path><path d="M-124,375L-89,439L-27,424Z" fill="rgb(198,139,113)" stroke="rgb(198,139,113)" stroke-width="1.51"></path><path d="M-51,-118L-91,-114L-110,-47Z" fill="rgb(255,245,235)" stroke="rgb(255,245,235)" stroke-width="1.51"></path><path d="M618,489L716,443L659,423Z" fill="rgb(127,39,4)" stroke="rgb(127,39,4)" stroke-width="1.51"></path><path d="M711,372L731,477L721,277Z" fill="rgb(136,42,4)" stroke="rgb(136,42,4)" stroke-width="1.51"></path><path d="M721,277L731,477L738,114Z" fill="rgb(173,58,5)" stroke="rgb(173,58,5)" stroke-width="1.51"></path><path d="M-89,439L-102,480L-20,476Z" fill="rgb(198,139,113)" stroke="rgb(198,139,113)" stroke-width="1.51"></path><path d="M-20,476L-102,480L30,488Z" fill="rgb(198,139,113)" stroke="rgb(198,139,113)" stroke-width="1.51"></path><path d="M30,488L-102,480L123,504Z" fill="rgb(198,138,110)" stroke="rgb(198,138,110)" stroke-width="1.51"></path><path d="M-124,375L-102,480L-89,439Z" fill="rgb(198,139,113)" stroke="rgb(198,139,113)" stroke-width="1.51"></path><path d="M734,-8L720,-112L662,-85Z" fill="rgb(198,139,113)" stroke="rgb(198,139,113)" stroke-width="1.51"></path><path d="M662,-85L720,-112L573,-121Z" fill="rgb(198,139,113)" stroke="rgb(198,139,113)" stroke-width="1.51"></path><path d="M618,489L731,477L716,443Z" fill="rgb(127,39,4)" stroke="rgb(127,39,4)" stroke-width="1.51"></path><path d="M716,443L731,477L711,372Z" fill="rgb(127,39,4)" stroke="rgb(127,39,4)" stroke-width="1.51"></path><path d="M392,525L731,477L618,489Z" fill="rgb(132,41,4)" stroke="rgb(132,41,4)" stroke-width="1.51"></path></svg>