<svg width="600" height="400" xmlns="http://www.w3.org/2000/svg"><path d="M333,189L404,134L337,123Z" fill="rgb(121,177,214)" stroke="rgb(121,177,214)" stroke-width="1.51"></path><path d="M333,189L406,190L404,134Z" fill="rgb(104,166,209)" stroke="rgb(104,166,209)" stroke-width="1.51"></path><path d="M333,189L345,266L406,190Z" fill="rgb(85,158,205)" stroke="rgb(85,158,205)" stroke-width="1.51"></path><path d="M337,123L258,125L333,189Z" fill="rgb(133,186,219)" stroke="rgb(133,186,219)" stroke-width="1.51"></path><path d="M333,189L256,264L345,266Z" fill="rgb(88,161,206)" stroke="rgb(88,161,206)" stroke-width="1.51"></path><path d="M258,125L255,192L333,189Z" fill="rgb(130,186,219)" stroke="rgb(130,186,219)" stroke-width="1.51"></path><path d="M345,266L415,264L406,190Z" fill="rgb(68,146,198)" stroke="rgb(68,146,198)" stroke-width="1.51"></path><path d="M485,128L410,44L404,134Z" fill="rgb(129,167,212)" stroke="rgb(129,167,212)" stroke-width="1.51"></path><path d="M410,44L330,44L337,123Z" fill="rgb(149,189,223)" stroke="rgb(149,189,223)" stroke-width="1.51"></path><path d="M337,123L270,41L258,125Z" fill="rgb(160,199,228)" stroke="rgb(160,199,228)" stroke-width="1.51"></path><path d="M404,134L410,44L337,123Z" fill="rgb(137,180,218)" stroke="rgb(137,180,218)" stroke-width="1.51"></path><path d="M485,128L404,134L406,190Z" fill="rgb(108,160,205)" stroke="rgb(108,160,205)" stroke-width="1.51"></path><path d="M481,209L485,128L406,190Z" fill="rgb(90,148,199)" stroke="rgb(90,148,199)" stroke-width="1.51"></path><path d="M415,264L481,209L406,190Z" fill="rgb(69,141,196)" stroke="rgb(69,141,196)" stroke-width="1.51"></path><path d="M330,44L270,41L337,123Z" fill="rgb(160,199,228)" stroke="rgb(160,199,228)" stroke-width="1.51"></path><path d="M251,-16L270,41L330,44Z" fill="rgb(180,212,234)" stroke="rgb(180,212,234)" stroke-width="1.51"></path><path d="M255,192L256,264L333,189Z" fill="rgb(109,173,213)" stroke="rgb(109,173,213)" stroke-width="1.51"></path><path d="M485,128L490,49L410,44Z" fill="rgb(133,165,210)" stroke="rgb(133,165,210)" stroke-width="1.51"></path><path d="M571,60L490,49L485,128Z" fill="rgb(126,152,200)" stroke="rgb(126,152,200)" stroke-width="1.51"></path><path d="M258,125L198,128L255,192Z" fill="rgb(155,200,224)" stroke="rgb(155,200,224)" stroke-width="1.51"></path><path d="M255,192L176,202L256,264Z" fill="rgb(125,181,216)" stroke="rgb(125,181,216)" stroke-width="1.51"></path><path d="M179,57L198,128L258,125Z" fill="rgb(180,211,232)" stroke="rgb(180,211,232)" stroke-width="1.51"></path><path d="M481,209L551,195L485,128Z" fill="rgb(85,136,190)" stroke="rgb(85,136,190)" stroke-width="1.51"></path><path d="M415,264L487,279L481,209Z" fill="rgb(50,127,188)" stroke="rgb(50,127,188)" stroke-width="1.51"></path><path d="M420,338L487,279L415,264Z" fill="rgb(38,117,183)" stroke="rgb(38,117,183)" stroke-width="1.51"></path><path d="M420,338L415,264L345,266Z" fill="rgb(51,129,190)" stroke="rgb(51,129,190)" stroke-width="1.51"></path><path d="M327,358L420,338L345,266Z" fill="rgb(53,125,185)" stroke="rgb(53,125,185)" stroke-width="1.51"></path><path d="M554,284L551,195L481,209Z" fill="rgb(55,117,179)" stroke="rgb(55,117,179)" stroke-width="1.51"></path><path d="M410,44L405,-28L330,44Z" fill="rgb(158,193,224)" stroke="rgb(158,193,224)" stroke-width="1.51"></path><path d="M476,-17L405,-28L410,44Z" fill="rgb(156,184,220)" stroke="rgb(156,184,220)" stroke-width="1.51"></path><path d="M405,-28L344,-35L330,44Z" fill="rgb(168,200,228)" stroke="rgb(168,200,228)" stroke-width="1.51"></path><path d="M198,128L176,202L255,192Z" fill="rgb(151,196,224)" stroke="rgb(151,196,224)" stroke-width="1.51"></path><path d="M551,195L562,133L485,128Z" fill="rgb(96,137,188)" stroke="rgb(96,137,188)" stroke-width="1.51"></path><path d="M258,342L327,358L345,266Z" fill="rgb(70,134,191)" stroke="rgb(70,134,191)" stroke-width="1.51"></path><path d="M258,342L345,266L256,264Z" fill="rgb(84,148,200)" stroke="rgb(84,148,200)" stroke-width="1.51"></path><path d="M563,-30L476,-17L490,49Z" fill="rgb(147,165,208)" stroke="rgb(147,165,208)" stroke-width="1.51"></path><path d="M490,49L476,-17L410,44Z" fill="rgb(146,173,215)" stroke="rgb(146,173,215)" stroke-width="1.51"></path><path d="M270,41L179,57L258,125Z" fill="rgb(181,212,233)" stroke="rgb(181,212,233)" stroke-width="1.51"></path><path d="M344,-35L251,-16L330,44Z" fill="rgb(179,210,234)" stroke="rgb(179,210,234)" stroke-width="1.51"></path><path d="M176,202L198,285L256,264Z" fill="rgb(121,175,213)" stroke="rgb(121,175,213)" stroke-width="1.51"></path><path d="M198,128L117,122L176,202Z" fill="rgb(174,209,230)" stroke="rgb(174,209,230)" stroke-width="1.51"></path><path d="M251,-16L179,57L270,41Z" fill="rgb(194,220,237)" stroke="rgb(194,220,237)" stroke-width="1.51"></path><path d="M198,285L258,342L256,264Z" fill="rgb(102,155,203)" stroke="rgb(102,155,203)" stroke-width="1.51"></path><path d="M487,279L554,284L481,209Z" fill="rgb(43,114,179)" stroke="rgb(43,114,179)" stroke-width="1.51"></path><path d="M551,195L640,196L562,133Z" fill="rgb(79,118,167)" stroke="rgb(79,118,167)" stroke-width="1.51"></path><path d="M496,349L554,284L487,279Z" fill="rgb(24,98,169)" stroke="rgb(24,98,169)" stroke-width="1.51"></path><path d="M562,133L571,60L485,128Z" fill="rgb(115,142,191)" stroke="rgb(115,142,191)" stroke-width="1.51"></path><path d="M642,113L571,60L562,133Z" fill="rgb(110,130,174)" stroke="rgb(110,130,174)" stroke-width="1.51"></path><path d="M420,338L496,349L487,279Z" fill="rgb(27,102,172)" stroke="rgb(27,102,172)" stroke-width="1.51"></path><path d="M486,431L496,349L420,338Z" fill="rgb(20,85,154)" stroke="rgb(20,85,154)" stroke-width="1.51"></path><path d="M344,-35L328,-90L251,-16Z" fill="rgb(179,210,234)" stroke="rgb(179,210,234)" stroke-width="1.51"></path><path d="M417,-98L328,-90L344,-35Z" fill="rgb(167,199,228)" stroke="rgb(167,199,228)" stroke-width="1.51"></path><path d="M417,-98L344,-35L405,-28Z" fill="rgb(163,194,225)" stroke="rgb(163,194,225)" stroke-width="1.51"></path><path d="M179,57L117,122L198,128Z" fill="rgb(193,217,237)" stroke="rgb(193,217,237)" stroke-width="1.51"></path><path d="M176,202L111,284L198,285Z" fill="rgb(134,178,217)" stroke="rgb(134,178,217)" stroke-width="1.51"></path><path d="M251,-16L199,-33L179,57Z" fill="rgb(207,227,241)" stroke="rgb(207,227,241)" stroke-width="1.51"></path><path d="M179,57L114,53L117,122Z" fill="rgb(206,224,241)" stroke="rgb(206,224,241)" stroke-width="1.51"></path><path d="M271,-102L199,-33L251,-16Z" fill="rgb(199,223,239)" stroke="rgb(199,223,239)" stroke-width="1.51"></path><path d="M476,-17L417,-98L405,-28Z" fill="rgb(156,183,220)" stroke="rgb(156,183,220)" stroke-width="1.51"></path><path d="M483,-99L417,-98L476,-17Z" fill="rgb(153,177,217)" stroke="rgb(153,177,217)" stroke-width="1.51"></path><path d="M117,122L104,198L176,202Z" fill="rgb(170,205,230)" stroke="rgb(170,205,230)" stroke-width="1.51"></path><path d="M198,285L190,358L258,342Z" fill="rgb(104,147,197)" stroke="rgb(104,147,197)" stroke-width="1.51"></path><path d="M109,345L190,358L198,285Z" fill="rgb(119,152,201)" stroke="rgb(119,152,201)" stroke-width="1.51"></path><path d="M274,424L326,431L327,358Z" fill="rgb(61,106,158)" stroke="rgb(61,106,158)" stroke-width="1.51"></path><path d="M571,60L563,-30L490,49Z" fill="rgb(137,154,198)" stroke="rgb(137,154,198)" stroke-width="1.51"></path><path d="M40,116L43,197L104,198Z" fill="rgb(183,214,234)" stroke="rgb(183,214,234)" stroke-width="1.51"></path><path d="M109,-18L114,53L179,57Z" fill="rgb(218,231,246)" stroke="rgb(218,231,246)" stroke-width="1.51"></path><path d="M627,281L640,196L551,195Z" fill="rgb(53,101,155)" stroke="rgb(53,101,155)" stroke-width="1.51"></path><path d="M496,349L570,341L554,284Z" fill="rgb(16,85,157)" stroke="rgb(16,85,157)" stroke-width="1.51"></path><path d="M327,358L401,432L420,338Z" fill="rgb(41,102,163)" stroke="rgb(41,102,163)" stroke-width="1.51"></path><path d="M496,349L570,420L570,341Z" fill="rgb(9,69,139)" stroke="rgb(9,69,139)" stroke-width="1.51"></path><path d="M274,424L327,358L258,342Z" fill="rgb(72,119,173)" stroke="rgb(72,119,173)" stroke-width="1.51"></path><path d="M326,431L401,432L327,358Z" fill="rgb(48,99,154)" stroke="rgb(48,99,154)" stroke-width="1.51"></path><path d="M328,-90L271,-102L251,-16Z" fill="rgb(186,215,236)" stroke="rgb(186,215,236)" stroke-width="1.51"></path><path d="M417,-98L271,-102L328,-90Z" fill="rgb(172,204,231)" stroke="rgb(172,204,231)" stroke-width="1.51"></path><path d="M627,281L551,195L554,284Z" fill="rgb(41,99,158)" stroke="rgb(41,99,158)" stroke-width="1.51"></path><path d="M571,60L625,-18L563,-30Z" fill="rgb(136,145,184)" stroke="rgb(136,145,184)" stroke-width="1.51"></path><path d="M640,196L642,113L562,133Z" fill="rgb(91,121,165)" stroke="rgb(91,121,165)" stroke-width="1.51"></path><path d="M190,358L274,424L258,342Z" fill="rgb(89,127,176)" stroke="rgb(89,127,176)" stroke-width="1.51"></path><path d="M417,-98L574,-109L271,-102Z" fill="rgb(158,186,222)" stroke="rgb(158,186,222)" stroke-width="1.51"></path><path d="M563,-30L483,-99L476,-17Z" fill="rgb(147,165,208)" stroke="rgb(147,165,208)" stroke-width="1.51"></path><path d="M642,113L631,56L571,60Z" fill="rgb(116,131,173)" stroke="rgb(116,131,173)" stroke-width="1.51"></path><path d="M104,198L111,284L176,202Z" fill="rgb(149,190,223)" stroke="rgb(149,190,223)" stroke-width="1.51"></path><path d="M570,341L627,281L554,284Z" fill="rgb(21,83,148)" stroke="rgb(21,83,148)" stroke-width="1.51"></path><path d="M401,432L486,431L420,338Z" fill="rgb(26,82,145)" stroke="rgb(26,82,145)" stroke-width="1.51"></path><path d="M570,341L645,348L627,281Z" fill="rgb(17,72,137)" stroke="rgb(17,72,137)" stroke-width="1.51"></path><path d="M199,-33L109,-18L179,57Z" fill="rgb(219,233,246)" stroke="rgb(219,233,246)" stroke-width="1.51"></path><path d="M40,116L104,198L117,122Z" fill="rgb(190,218,236)" stroke="rgb(190,218,236)" stroke-width="1.51"></path><path d="M111,-95L109,-18L199,-33Z" fill="rgb(224,236,248)" stroke="rgb(224,236,248)" stroke-width="1.51"></path><path d="M271,-102L187,-99L199,-33Z" fill="rgb(205,227,240)" stroke="rgb(205,227,240)" stroke-width="1.51"></path><path d="M631,56L625,-18L571,60Z" fill="rgb(127,138,177)" stroke="rgb(127,138,177)" stroke-width="1.51"></path><path d="M563,-30L574,-109L483,-99Z" fill="rgb(143,157,200)" stroke="rgb(143,157,200)" stroke-width="1.51"></path><path d="M712,51L625,-18L631,56Z" fill="rgb(127,138,177)" stroke="rgb(127,138,177)" stroke-width="1.51"></path><path d="M190,358L193,431L274,424Z" fill="rgb(92,121,165)" stroke="rgb(92,121,165)" stroke-width="1.51"></path><path d="M111,284L109,345L198,285Z" fill="rgb(128,163,210)" stroke="rgb(128,163,210)" stroke-width="1.51"></path><path d="M32,339L109,345L111,284Z" fill="rgb(135,162,208)" stroke="rgb(135,162,208)" stroke-width="1.51"></path><path d="M103,414L193,431L190,358Z" fill="rgb(107,126,170)" stroke="rgb(107,126,170)" stroke-width="1.51"></path><path d="M327,503L401,432L326,431Z" fill="rgb(48,99,154)" stroke="rgb(48,99,154)" stroke-width="1.51"></path><path d="M327,503L414,488L401,432Z" fill="rgb(39,94,151)" stroke="rgb(39,94,151)" stroke-width="1.51"></path><path d="M104,198L30,276L111,284Z" fill="rgb(150,188,222)" stroke="rgb(150,188,222)" stroke-width="1.51"></path><path d="M40,116L117,122L114,53Z" fill="rgb(208,226,242)" stroke="rgb(208,226,242)" stroke-width="1.51"></path><path d="M28,43L40,116L114,53Z" fill="rgb(220,233,247)" stroke="rgb(220,233,247)" stroke-width="1.51"></path><path d="M486,431L570,420L496,349Z" fill="rgb(10,66,133)" stroke="rgb(10,66,133)" stroke-width="1.51"></path><path d="M486,431L555,491L570,420Z" fill="rgb(9,62,127)" stroke="rgb(9,62,127)" stroke-width="1.51"></path><path d="M401,432L414,488L486,431Z" fill="rgb(27,83,145)" stroke="rgb(27,83,145)" stroke-width="1.51"></path><path d="M327,503L326,431L274,424Z" fill="rgb(61,106,158)" stroke="rgb(61,106,158)" stroke-width="1.51"></path><path d="M570,420L645,348L570,341Z" fill="rgb(9,59,123)" stroke="rgb(9,59,123)" stroke-width="1.51"></path><path d="M627,281L702,208L640,196Z" fill="rgb(51,100,155)" stroke="rgb(51,100,155)" stroke-width="1.51"></path><path d="M640,196L713,123L642,113Z" fill="rgb(93,121,166)" stroke="rgb(93,121,166)" stroke-width="1.51"></path><path d="M483,-99L574,-109L417,-98Z" fill="rgb(149,169,211)" stroke="rgb(149,169,211)" stroke-width="1.51"></path><path d="M633,-89L574,-109L563,-30Z" fill="rgb(136,144,182)" stroke="rgb(136,144,182)" stroke-width="1.51"></path><path d="M642,113L712,51L631,56Z" fill="rgb(117,132,173)" stroke="rgb(117,132,173)" stroke-width="1.51"></path><path d="M724,272L702,208L627,281Z" fill="rgb(40,94,151)" stroke="rgb(40,94,151)" stroke-width="1.51"></path><path d="M267,507L327,503L274,424Z" fill="rgb(67,110,160)" stroke="rgb(67,110,160)" stroke-width="1.51"></path><path d="M702,208L713,123L640,196Z" fill="rgb(77,114,162)" stroke="rgb(77,114,162)" stroke-width="1.51"></path><path d="M625,-18L633,-89L563,-30Z" fill="rgb(135,142,179)" stroke="rgb(135,142,179)" stroke-width="1.51"></path><path d="M43,197L30,276L104,198Z" fill="rgb(162,199,228)" stroke="rgb(162,199,228)" stroke-width="1.51"></path><path d="M109,345L103,414L190,358Z" fill="rgb(118,140,187)" stroke="rgb(118,140,187)" stroke-width="1.51"></path><path d="M-46,202L30,276L43,197Z" fill="rgb(171,204,230)" stroke="rgb(171,204,230)" stroke-width="1.51"></path><path d="M40,116L-43,116L43,197Z" fill="rgb(204,226,240)" stroke="rgb(204,226,240)" stroke-width="1.51"></path><path d="M109,-18L28,43L114,53Z" fill="rgb(227,238,249)" stroke="rgb(227,238,249)" stroke-width="1.51"></path><path d="M32,-24L28,43L109,-18Z" fill="rgb(238,245,252)" stroke="rgb(238,245,252)" stroke-width="1.51"></path><path d="M187,-99L111,-95L199,-33Z" fill="rgb(219,233,246)" stroke="rgb(219,233,246)" stroke-width="1.51"></path><path d="M713,123L712,51L642,113Z" fill="rgb(111,128,172)" stroke="rgb(111,128,172)" stroke-width="1.51"></path><path d="M196,509L267,507L193,431Z" fill="rgb(92,121,165)" stroke="rgb(92,121,165)" stroke-width="1.51"></path><path d="M193,431L267,507L274,424Z" fill="rgb(83,117,163)" stroke="rgb(83,117,163)" stroke-width="1.51"></path><path d="M722,-21L633,-89L625,-18Z" fill="rgb(135,142,179)" stroke="rgb(135,142,179)" stroke-width="1.51"></path><path d="M32,339L103,414L109,345Z" fill="rgb(128,147,192)" stroke="rgb(128,147,192)" stroke-width="1.51"></path><path d="M645,348L724,272L627,281Z" fill="rgb(22,79,143)" stroke="rgb(22,79,143)" stroke-width="1.51"></path><path d="M702,208L724,272L713,123Z" fill="rgb(62,107,159)" stroke="rgb(62,107,159)" stroke-width="1.51"></path><path d="M713,123L722,-21L712,51Z" fill="rgb(122,135,175)" stroke="rgb(122,135,175)" stroke-width="1.51"></path><path d="M570,420L647,414L645,348Z" fill="rgb(8,50,110)" stroke="rgb(8,50,110)" stroke-width="1.51"></path><path d="M645,348L722,342L724,272Z" fill="rgb(17,73,138)" stroke="rgb(17,73,138)" stroke-width="1.51"></path><path d="M414,488L499,510L486,431Z" fill="rgb(19,76,141)" stroke="rgb(19,76,141)" stroke-width="1.51"></path><path d="M327,503L499,510L414,488Z" fill="rgb(32,87,147)" stroke="rgb(32,87,147)" stroke-width="1.51"></path><path d="M267,507L499,510L327,503Z" fill="rgb(45,97,152)" stroke="rgb(45,97,152)" stroke-width="1.51"></path><path d="M30,276L32,339L111,284Z" fill="rgb(144,174,215)" stroke="rgb(144,174,215)" stroke-width="1.51"></path><path d="M48,-98L32,-24L109,-18Z" fill="rgb(237,244,252)" stroke="rgb(237,244,252)" stroke-width="1.51"></path><path d="M628,509L647,414L570,420Z" fill="rgb(8,48,107)" stroke="rgb(8,48,107)" stroke-width="1.51"></path><path d="M499,510L555,491L486,431Z" fill="rgb(11,67,133)" stroke="rgb(11,67,133)" stroke-width="1.51"></path><path d="M107,499L196,509L193,431Z" fill="rgb(106,127,170)" stroke="rgb(106,127,170)" stroke-width="1.51"></path><path d="M267,507L196,509L499,510Z" fill="rgb(58,104,157)" stroke="rgb(58,104,157)" stroke-width="1.51"></path><path d="M712,51L722,-21L625,-18Z" fill="rgb(134,142,179)" stroke="rgb(134,142,179)" stroke-width="1.51"></path><path d="M724,272L722,-21L713,123Z" fill="rgb(101,124,168)" stroke="rgb(101,124,168)" stroke-width="1.51"></path><path d="M707,423L722,342L645,348Z" fill="rgb(9,57,121)" stroke="rgb(9,57,121)" stroke-width="1.51"></path><path d="M111,-95L48,-98L109,-18Z" fill="rgb(232,241,250)" stroke="rgb(232,241,250)" stroke-width="1.51"></path><path d="M187,-99L48,-98L111,-95Z" fill="rgb(228,238,249)" stroke="rgb(228,238,249)" stroke-width="1.51"></path><path d="M-41,-101L48,-98L187,-99Z" fill="rgb(236,244,252)" stroke="rgb(236,244,252)" stroke-width="1.51"></path><path d="M-41,-101L187,-99L271,-102Z" fill="rgb(225,236,248)" stroke="rgb(225,236,248)" stroke-width="1.51"></path><path d="M-50,56L-43,116L28,43Z" fill="rgb(230,239,250)" stroke="rgb(230,239,250)" stroke-width="1.51"></path><path d="M28,43L-43,116L40,116Z" fill="rgb(223,235,247)" stroke="rgb(223,235,247)" stroke-width="1.51"></path><path d="M30,276L-38,285L32,339Z" fill="rgb(152,178,218)" stroke="rgb(152,178,218)" stroke-width="1.51"></path><path d="M-50,56L28,43L-34,-24Z" fill="rgb(241,247,253)" stroke="rgb(241,247,253)" stroke-width="1.51"></path><path d="M-43,116L-46,202L43,197Z" fill="rgb(193,220,237)" stroke="rgb(193,220,237)" stroke-width="1.51"></path><path d="M-46,202L-38,285L30,276Z" fill="rgb(164,195,226)" stroke="rgb(164,195,226)" stroke-width="1.51"></path><path d="M49,493L107,499L103,414Z" fill="rgb(120,134,175)" stroke="rgb(120,134,175)" stroke-width="1.51"></path><path d="M103,414L107,499L193,431Z" fill="rgb(113,129,172)" stroke="rgb(113,129,172)" stroke-width="1.51"></path><path d="M-43,116L-101,197L-46,202Z" fill="rgb(193,220,237)" stroke="rgb(193,220,237)" stroke-width="1.51"></path><path d="M-34,-24L28,43L32,-24Z" fill="rgb(246,250,255)" stroke="rgb(246,250,255)" stroke-width="1.51"></path><path d="M30,430L103,414L32,339Z" fill="rgb(127,139,179)" stroke="rgb(127,139,179)" stroke-width="1.51"></path><path d="M-32,349L30,430L32,339Z" fill="rgb(139,152,193)" stroke="rgb(139,152,193)" stroke-width="1.51"></path><path d="M647,414L707,423L645,348Z" fill="rgb(8,49,109)" stroke="rgb(8,49,109)" stroke-width="1.51"></path><path d="M703,495L707,423L647,414Z" fill="rgb(8,48,107)" stroke="rgb(8,48,107)" stroke-width="1.51"></path><path d="M722,-21L717,-96L633,-89Z" fill="rgb(135,142,179)" stroke="rgb(135,142,179)" stroke-width="1.51"></path><path d="M633,-89L717,-96L574,-109Z" fill="rgb(135,142,179)" stroke="rgb(135,142,179)" stroke-width="1.51"></path><path d="M555,491L628,509L570,420Z" fill="rgb(8,51,112)" stroke="rgb(8,51,112)" stroke-width="1.51"></path><path d="M499,510L628,509L555,491Z" fill="rgb(9,56,119)" stroke="rgb(9,56,119)" stroke-width="1.51"></path><path d="M-41,-101L-34,-24L32,-24Z" fill="rgb(247,251,255)" stroke="rgb(247,251,255)" stroke-width="1.51"></path><path d="M-38,285L-32,349L32,339Z" fill="rgb(150,170,212)" stroke="rgb(150,170,212)" stroke-width="1.51"></path><path d="M-104,345L-32,349L-38,285Z" fill="rgb(149,170,212)" stroke="rgb(149,170,212)" stroke-width="1.51"></path><path d="M30,430L49,493L103,414Z" fill="rgb(125,136,176)" stroke="rgb(125,136,176)" stroke-width="1.51"></path><path d="M107,499L-121,509L196,509Z" fill="rgb(125,136,176)" stroke="rgb(125,136,176)" stroke-width="1.51"></path><path d="M-40,488L49,493L30,430Z" fill="rgb(133,141,179)" stroke="rgb(133,141,179)" stroke-width="1.51"></path><path d="M-113,125L-43,116L-50,56Z" fill="rgb(223,235,247)" stroke="rgb(223,235,247)" stroke-width="1.51"></path><path d="M-113,125L-101,197L-43,116Z" fill="rgb(205,227,240)" stroke="rgb(205,227,240)" stroke-width="1.51"></path><path d="M-46,202L-105,263L-38,285Z" fill="rgb(164,197,227)" stroke="rgb(164,197,227)" stroke-width="1.51"></path><path d="M707,423L703,495L722,342Z" fill="rgb(8,48,107)" stroke="rgb(8,48,107)" stroke-width="1.51"></path><path d="M628,509L703,495L647,414Z" fill="rgb(8,48,107)" stroke="rgb(8,48,107)" stroke-width="1.51"></path><path d="M-110,45L-113,125L-50,56Z" fill="rgb(229,239,249)" stroke="rgb(229,239,249)" stroke-width="1.51"></path><path d="M48,-98L-41,-101L32,-24Z" fill="rgb(245,249,255)" stroke="rgb(245,249,255)" stroke-width="1.51"></path><path d="M-34,-24L-110,45L-50,56Z" fill="rgb(241,247,253)" stroke="rgb(241,247,253)" stroke-width="1.51"></path><path d="M574,-109L-41,-101L271,-102Z" fill="rgb(190,218,237)" stroke="rgb(190,218,237)" stroke-width="1.51"></path><path d="M-101,197L-105,263L-46,202Z" fill="rgb(174,206,231)" stroke="rgb(174,206,231)" stroke-width="1.51"></path><path d="M-32,349L-50,416L30,430Z" fill="rgb(135,143,180)" stroke="rgb(135,143,180)" stroke-width="1.51"></path><path d="M-113,125L-105,263L-101,197Z" fill="rgb(183,213,235)" stroke="rgb(183,213,235)" stroke-width="1.51"></path><path d="M-125,-19L-110,45L-34,-24Z" fill="rgb(247,251,255)" stroke="rgb(247,251,255)" stroke-width="1.51"></path><path d="M-104,345L-50,416L-32,349Z" fill="rgb(141,153,195)" stroke="rgb(141,153,195)" stroke-width="1.51"></path><path d="M-105,263L-104,345L-38,285Z" fill="rgb(154,180,219)" stroke="rgb(154,180,219)" stroke-width="1.51"></path><path d="M-110,433L-104,345L-105,263Z" fill="rgb(146,162,206)" stroke="rgb(146,162,206)" stroke-width="1.51"></path><path d="M-121,509L-110,433L-105,263Z" fill="rgb(135,142,179)" stroke="rgb(135,142,179)" stroke-width="1.51"></path><path d="M-110,45L-125,-19L-113,125Z" fill="rgb(235,243,251)" stroke="rgb(235,243,251)" stroke-width="1.51"></path><path d="M-121,-97L-125,-19L-34,-24Z" fill="rgb(247,251,255)" stroke="rgb(247,251,255)" stroke-width="1.51"></path><path d="M-50,416L-40,488L30,430Z" fill="rgb(135,142,179)" stroke="rgb(135,142,179)" stroke-width="1.51"></path><path d="M49,493L-121,509L107,499Z" fill="rgb(133,141,179)" stroke="rgb(133,141,179)" stroke-width="1.51"></path><path d="M-110,433L-40,488L-50,416Z" fill="rgb(135,142,179)" stroke="rgb(135,142,179)" stroke-width="1.51"></path><path d="M-41,-101L-121,-97L-34,-24Z" fill="rgb(247,251,255)" stroke="rgb(247,251,255)" stroke-width="1.51"></path><path d="M-121,509L-105,263L-113,125Z" fill="rgb(154,180,218)" stroke="rgb(154,180,218)" stroke-width="1.51"></path><path d="M-104,345L-110,433L-50,416Z" fill="rgb(135,143,180)" stroke="rgb(135,143,180)" stroke-width="1.51"></path><path d="M-110,433L-121,509L-40,488Z" fill="rgb(135,142,179)" stroke="rgb(135,142,179)" stroke-width="1.51"></path><path d="M-40,488L-121,509L49,493Z" fill="rgb(135,142,179)" stroke="rgb(135,142,179)" stroke-width="1.51"></path><path d="M196,509L-121,509L499,510Z" fill="rgb(99,124,167)" stroke="rgb(99,124,167)" stroke-width="1.51"></path><path d="M-125,-19L-121,509L-113,125Z" fill="rgb(179,210,234)" stroke="rgb(179,210,234)" stroke-width="1.51"></path></svg>