<svg width="600" height="400" xmlns="http://www.w3.org/2000/svg"><path d="M263,190L265,122L189,133Z" fill="rgb(254,193,77)" stroke="rgb(254,193,77)" stroke-width="1.51"></path><path d="M189,133L185,207L263,190Z" fill="rgb(255,187,75)" stroke="rgb(255,187,75)" stroke-width="1.51"></path><path d="M265,122L258,55L189,133Z" fill="rgb(255,207,108)" stroke="rgb(255,207,108)" stroke-width="1.51"></path><path d="M265,122L334,58L258,55Z" fill="rgb(255,199,109)" stroke="rgb(255,199,109)" stroke-width="1.51"></path><path d="M263,190L340,121L265,122Z" fill="rgb(255,179,68)" stroke="rgb(255,179,68)" stroke-width="1.51"></path><path d="M189,133L120,201L185,207Z" fill="rgb(255,196,96)" stroke="rgb(255,196,96)" stroke-width="1.51"></path><path d="M184,44L117,133L189,133Z" fill="rgb(255,223,138)" stroke="rgb(255,223,138)" stroke-width="1.51"></path><path d="M185,207L270,266L263,190Z" fill="rgb(251,162,53)" stroke="rgb(251,162,53)" stroke-width="1.51"></path><path d="M263,190L346,193L340,121Z" fill="rgb(253,163,52)" stroke="rgb(253,163,52)" stroke-width="1.51"></path><path d="M117,133L120,201L189,133Z" fill="rgb(255,210,113)" stroke="rgb(255,210,113)" stroke-width="1.51"></path><path d="M185,207L179,268L270,266Z" fill="rgb(248,160,58)" stroke="rgb(248,160,58)" stroke-width="1.51"></path><path d="M258,55L184,44L189,133Z" fill="rgb(255,219,129)" stroke="rgb(255,219,129)" stroke-width="1.51"></path><path d="M332,269L346,193L263,190Z" fill="rgb(250,143,35)" stroke="rgb(250,143,35)" stroke-width="1.51"></path><path d="M120,201L179,268L185,207Z" fill="rgb(252,178,85)" stroke="rgb(252,178,85)" stroke-width="1.51"></path><path d="M340,121L334,58L265,122Z" fill="rgb(255,187,94)" stroke="rgb(255,187,94)" stroke-width="1.51"></path><path d="M258,55L185,-20L184,44Z" fill="rgb(255,227,151)" stroke="rgb(255,227,151)" stroke-width="1.51"></path><path d="M342,346L332,269L270,266Z" fill="rgb(230,114,21)" stroke="rgb(230,114,21)" stroke-width="1.51"></path><path d="M270,266L332,269L263,190Z" fill="rgb(247,140,36)" stroke="rgb(247,140,36)" stroke-width="1.51"></path><path d="M184,44L108,49L117,133Z" fill="rgb(255,234,160)" stroke="rgb(255,234,160)" stroke-width="1.51"></path><path d="M45,198L118,282L120,201Z" fill="rgb(255,187,106)" stroke="rgb(255,187,106)" stroke-width="1.51"></path><path d="M179,268L195,348L270,266Z" fill="rgb(233,142,49)" stroke="rgb(233,142,49)" stroke-width="1.51"></path><path d="M120,201L118,282L179,268Z" fill="rgb(250,172,89)" stroke="rgb(250,172,89)" stroke-width="1.51"></path><path d="M45,198L120,201L117,133Z" fill="rgb(255,207,120)" stroke="rgb(255,207,120)" stroke-width="1.51"></path><path d="M265,-31L185,-20L258,55Z" fill="rgb(255,222,152)" stroke="rgb(255,222,152)" stroke-width="1.51"></path><path d="M184,44L118,-30L108,49Z" fill="rgb(255,241,183)" stroke="rgb(255,241,183)" stroke-width="1.51"></path><path d="M417,207L414,125L346,193Z" fill="rgb(243,140,40)" stroke="rgb(243,140,40)" stroke-width="1.51"></path><path d="M346,193L414,125L340,121Z" fill="rgb(248,158,54)" stroke="rgb(248,158,54)" stroke-width="1.51"></path><path d="M340,121L409,51L334,58Z" fill="rgb(252,179,97)" stroke="rgb(252,179,97)" stroke-width="1.51"></path><path d="M334,58L265,-31L258,55Z" fill="rgb(255,206,130)" stroke="rgb(255,206,130)" stroke-width="1.51"></path><path d="M339,-25L265,-31L334,58Z" fill="rgb(255,200,136)" stroke="rgb(255,200,136)" stroke-width="1.51"></path><path d="M32,117L45,198L117,133Z" fill="rgb(255,222,138)" stroke="rgb(255,222,138)" stroke-width="1.51"></path><path d="M332,269L417,207L346,193Z" fill="rgb(242,126,28)" stroke="rgb(242,126,28)" stroke-width="1.51"></path><path d="M118,282L195,348L179,268Z" fill="rgb(234,150,71)" stroke="rgb(234,150,71)" stroke-width="1.51"></path><path d="M108,49L32,117L117,133Z" fill="rgb(255,235,164)" stroke="rgb(255,235,164)" stroke-width="1.51"></path><path d="M43,56L32,117L108,49Z" fill="rgb(255,242,181)" stroke="rgb(255,242,181)" stroke-width="1.51"></path><path d="M195,348L262,358L270,266Z" fill="rgb(218,126,37)" stroke="rgb(218,126,37)" stroke-width="1.51"></path><path d="M332,269L408,279L417,207Z" fill="rgb(233,109,18)" stroke="rgb(233,109,18)" stroke-width="1.51"></path><path d="M414,125L409,51L340,121Z" fill="rgb(247,168,85)" stroke="rgb(247,168,85)" stroke-width="1.51"></path><path d="M409,51L339,-25L334,58Z" fill="rgb(255,186,118)" stroke="rgb(255,186,118)" stroke-width="1.51"></path><path d="M33,-23L43,56L108,49Z" fill="rgb(255,249,201)" stroke="rgb(255,249,201)" stroke-width="1.51"></path><path d="M342,346L408,279L332,269Z" fill="rgb(223,99,13)" stroke="rgb(223,99,13)" stroke-width="1.51"></path><path d="M185,-20L118,-30L184,44Z" fill="rgb(255,238,182)" stroke="rgb(255,238,182)" stroke-width="1.51"></path><path d="M116,-92L118,-30L185,-20Z" fill="rgb(255,242,190)" stroke="rgb(255,242,190)" stroke-width="1.51"></path><path d="M262,358L342,346L270,266Z" fill="rgb(217,112,24)" stroke="rgb(217,112,24)" stroke-width="1.51"></path><path d="M118,282L104,357L195,348Z" fill="rgb(219,147,78)" stroke="rgb(219,147,78)" stroke-width="1.51"></path><path d="M45,198L36,284L118,282Z" fill="rgb(252,179,109)" stroke="rgb(252,179,109)" stroke-width="1.51"></path><path d="M-30,283L36,284L45,198Z" fill="rgb(253,181,122)" stroke="rgb(253,181,122)" stroke-width="1.51"></path><path d="M43,342L104,357L118,282Z" fill="rgb(222,154,92)" stroke="rgb(222,154,92)" stroke-width="1.51"></path><path d="M195,348L192,421L262,358Z" fill="rgb(190,121,44)" stroke="rgb(190,121,44)" stroke-width="1.51"></path><path d="M414,125L481,59L409,51Z" fill="rgb(239,162,88)" stroke="rgb(239,162,88)" stroke-width="1.51"></path><path d="M409,51L405,-30L339,-25Z" fill="rgb(254,182,126)" stroke="rgb(254,182,126)" stroke-width="1.51"></path><path d="M488,192L479,121L414,125Z" fill="rgb(228,137,46)" stroke="rgb(228,137,46)" stroke-width="1.51"></path><path d="M488,192L414,125L417,207Z" fill="rgb(232,129,34)" stroke="rgb(232,129,34)" stroke-width="1.51"></path><path d="M478,-21L405,-30L409,51Z" fill="rgb(244,171,120)" stroke="rgb(244,171,120)" stroke-width="1.51"></path><path d="M266,-109L195,-97L265,-31Z" fill="rgb(255,220,151)" stroke="rgb(255,220,151)" stroke-width="1.51"></path><path d="M265,-31L195,-97L185,-20Z" fill="rgb(255,227,159)" stroke="rgb(255,227,159)" stroke-width="1.51"></path><path d="M266,-109L265,-31L335,-94Z" fill="rgb(255,207,140)" stroke="rgb(255,207,140)" stroke-width="1.51"></path><path d="M483,268L488,192L417,207Z" fill="rgb(221,104,17)" stroke="rgb(221,104,17)" stroke-width="1.51"></path><path d="M36,284L43,342L118,282Z" fill="rgb(236,163,100)" stroke="rgb(236,163,100)" stroke-width="1.51"></path><path d="M32,117L-32,191L45,198Z" fill="rgb(255,216,145)" stroke="rgb(255,216,145)" stroke-width="1.51"></path><path d="M36,284L-33,342L43,342Z" fill="rgb(228,159,112)" stroke="rgb(228,159,112)" stroke-width="1.51"></path><path d="M-45,130L-32,191L32,117Z" fill="rgb(255,226,158)" stroke="rgb(255,226,158)" stroke-width="1.51"></path><path d="M118,-30L33,-23L108,49Z" fill="rgb(255,249,205)" stroke="rgb(255,249,205)" stroke-width="1.51"></path><path d="M-37,57L-45,130L32,117Z" fill="rgb(255,240,186)" stroke="rgb(255,240,186)" stroke-width="1.51"></path><path d="M43,-102L33,-23L118,-30Z" fill="rgb(255,251,212)" stroke="rgb(255,251,212)" stroke-width="1.51"></path><path d="M335,-94L265,-31L339,-25Z" fill="rgb(255,200,136)" stroke="rgb(255,200,136)" stroke-width="1.51"></path><path d="M564,130L481,59L479,121Z" fill="rgb(213,141,72)" stroke="rgb(213,141,72)" stroke-width="1.51"></path><path d="M479,121L481,59L414,125Z" fill="rgb(231,151,76)" stroke="rgb(231,151,76)" stroke-width="1.51"></path><path d="M121,421L195,348L104,357Z" fill="rgb(193,135,75)" stroke="rgb(193,135,75)" stroke-width="1.51"></path><path d="M121,421L192,421L195,348Z" fill="rgb(180,125,64)" stroke="rgb(180,125,64)" stroke-width="1.51"></path><path d="M262,358L339,423L342,346Z" fill="rgb(187,93,20)" stroke="rgb(187,93,20)" stroke-width="1.51"></path><path d="M408,279L483,268L417,207Z" fill="rgb(222,97,13)" stroke="rgb(222,97,13)" stroke-width="1.51"></path><path d="M342,346L422,345L408,279Z" fill="rgb(204,85,9)" stroke="rgb(204,85,9)" stroke-width="1.51"></path><path d="M405,427L422,345L342,346Z" fill="rgb(178,74,11)" stroke="rgb(178,74,11)" stroke-width="1.51"></path><path d="M405,-30L335,-94L339,-25Z" fill="rgb(255,188,129)" stroke="rgb(255,188,129)" stroke-width="1.51"></path><path d="M43,-102L116,-92L195,-97Z" fill="rgb(255,245,196)" stroke="rgb(255,245,196)" stroke-width="1.51"></path><path d="M195,-97L116,-92L185,-20Z" fill="rgb(255,238,181)" stroke="rgb(255,238,181)" stroke-width="1.51"></path><path d="M422,345L483,268L408,279Z" fill="rgb(208,80,3)" stroke="rgb(208,80,3)" stroke-width="1.51"></path><path d="M-37,57L32,117L43,56Z" fill="rgb(255,245,193)" stroke="rgb(255,245,193)" stroke-width="1.51"></path><path d="M192,421L261,433L262,358Z" fill="rgb(176,110,38)" stroke="rgb(176,110,38)" stroke-width="1.51"></path><path d="M33,-23L-37,57L43,56Z" fill="rgb(255,252,213)" stroke="rgb(255,252,213)" stroke-width="1.51"></path><path d="M46,433L121,421L104,357Z" fill="rgb(180,136,87)" stroke="rgb(180,136,87)" stroke-width="1.51"></path><path d="M188,506L269,500L261,433Z" fill="rgb(176,110,37)" stroke="rgb(176,110,37)" stroke-width="1.51"></path><path d="M261,433L339,423L262,358Z" fill="rgb(175,96,26)" stroke="rgb(175,96,26)" stroke-width="1.51"></path><path d="M-32,191L-30,283L45,198Z" fill="rgb(255,195,133)" stroke="rgb(255,195,133)" stroke-width="1.51"></path><path d="M43,342L46,433L104,357Z" fill="rgb(195,143,95)" stroke="rgb(195,143,95)" stroke-width="1.51"></path><path d="M-120,270L-30,283L-32,191Z" fill="rgb(255,185,128)" stroke="rgb(255,185,128)" stroke-width="1.51"></path><path d="M405,-30L413,-105L335,-94Z" fill="rgb(254,182,126)" stroke="rgb(254,182,126)" stroke-width="1.51"></path><path d="M481,59L478,-21L409,51Z" fill="rgb(237,163,106)" stroke="rgb(237,163,106)" stroke-width="1.51"></path><path d="M554,-20L478,-21L481,59Z" fill="rgb(220,156,112)" stroke="rgb(220,156,112)" stroke-width="1.51"></path><path d="M422,345L479,345L483,268Z" fill="rgb(190,69,3)" stroke="rgb(190,69,3)" stroke-width="1.51"></path><path d="M483,268L555,206L488,192Z" fill="rgb(205,96,17)" stroke="rgb(205,96,17)" stroke-width="1.51"></path><path d="M482,418L479,345L422,345Z" fill="rgb(164,59,5)" stroke="rgb(164,59,5)" stroke-width="1.51"></path><path d="M477,-95L413,-105L405,-30Z" fill="rgb(244,171,120)" stroke="rgb(244,171,120)" stroke-width="1.51"></path><path d="M335,-94L413,-105L266,-109Z" fill="rgb(255,194,133)" stroke="rgb(255,194,133)" stroke-width="1.51"></path><path d="M33,-23L-36,-24L-37,57Z" fill="rgb(255,254,227)" stroke="rgb(255,254,227)" stroke-width="1.51"></path><path d="M116,-92L43,-102L118,-30Z" fill="rgb(255,248,203)" stroke="rgb(255,248,203)" stroke-width="1.51"></path><path d="M266,-109L43,-102L195,-97Z" fill="rgb(255,237,180)" stroke="rgb(255,237,180)" stroke-width="1.51"></path><path d="M-32,-108L-36,-24L33,-23Z" fill="rgb(255,255,229)" stroke="rgb(255,255,229)" stroke-width="1.51"></path><path d="M-37,57L-114,129L-45,130Z" fill="rgb(255,239,184)" stroke="rgb(255,239,184)" stroke-width="1.51"></path><path d="M339,423L405,427L342,346Z" fill="rgb(168,76,15)" stroke="rgb(168,76,15)" stroke-width="1.51"></path><path d="M334,490L405,427L339,423Z" fill="rgb(168,77,16)" stroke="rgb(168,77,16)" stroke-width="1.51"></path><path d="M-30,283L-33,342L36,284Z" fill="rgb(239,166,118)" stroke="rgb(239,166,118)" stroke-width="1.51"></path><path d="M-113,354L-33,342L-30,283Z" fill="rgb(226,159,115)" stroke="rgb(226,159,115)" stroke-width="1.51"></path><path d="M488,192L564,130L479,121Z" fill="rgb(210,128,43)" stroke="rgb(210,128,43)" stroke-width="1.51"></path><path d="M553,271L555,206L483,268Z" fill="rgb(192,82,11)" stroke="rgb(192,82,11)" stroke-width="1.51"></path><path d="M-38,415L46,433L43,342Z" fill="rgb(184,141,106)" stroke="rgb(184,141,106)" stroke-width="1.51"></path><path d="M188,506L261,433L192,421Z" fill="rgb(176,116,46)" stroke="rgb(176,116,46)" stroke-width="1.51"></path><path d="M555,206L564,130L488,192Z" fill="rgb(200,112,31)" stroke="rgb(200,112,31)" stroke-width="1.51"></path><path d="M479,345L553,271L483,268Z" fill="rgb(186,69,4)" stroke="rgb(186,69,4)" stroke-width="1.51"></path><path d="M555,206L629,130L564,130Z" fill="rgb(182,114,39)" stroke="rgb(182,114,39)" stroke-width="1.51"></path><path d="M561,340L553,271L479,345Z" fill="rgb(167,59,4)" stroke="rgb(167,59,4)" stroke-width="1.51"></path><path d="M-45,130L-119,190L-32,191Z" fill="rgb(255,217,148)" stroke="rgb(255,217,148)" stroke-width="1.51"></path><path d="M-118,42L-114,129L-37,57Z" fill="rgb(255,246,198)" stroke="rgb(255,246,198)" stroke-width="1.51"></path><path d="M188,506L192,421L121,421Z" fill="rgb(178,125,65)" stroke="rgb(178,125,65)" stroke-width="1.51"></path><path d="M261,433L334,490L339,423Z" fill="rgb(174,90,22)" stroke="rgb(174,90,22)" stroke-width="1.51"></path><path d="M269,500L334,490L261,433Z" fill="rgb(175,96,26)" stroke="rgb(175,96,26)" stroke-width="1.51"></path><path d="M478,-21L477,-95L405,-30Z" fill="rgb(239,166,118)" stroke="rgb(239,166,118)" stroke-width="1.51"></path><path d="M554,-20L477,-95L478,-21Z" fill="rgb(221,157,115)" stroke="rgb(221,157,115)" stroke-width="1.51"></path><path d="M-114,129L-119,190L-45,130Z" fill="rgb(255,225,155)" stroke="rgb(255,225,155)" stroke-width="1.51"></path><path d="M114,498L188,506L121,421Z" fill="rgb(178,129,74)" stroke="rgb(178,129,74)" stroke-width="1.51"></path><path d="M629,130L571,55L564,130Z" fill="rgb(183,128,69)" stroke="rgb(183,128,69)" stroke-width="1.51"></path><path d="M564,130L571,55L481,59Z" fill="rgb(203,140,81)" stroke="rgb(203,140,81)" stroke-width="1.51"></path><path d="M46,433L114,498L121,421Z" fill="rgb(180,135,86)" stroke="rgb(180,135,86)" stroke-width="1.51"></path><path d="M404,500L482,418L405,427Z" fill="rgb(155,61,8)" stroke="rgb(155,61,8)" stroke-width="1.51"></path><path d="M405,427L482,418L422,345Z" fill="rgb(156,60,7)" stroke="rgb(156,60,7)" stroke-width="1.51"></path><path d="M-114,129L-118,42L-119,190Z" fill="rgb(255,234,174)" stroke="rgb(255,234,174)" stroke-width="1.51"></path><path d="M-36,-24L-118,42L-37,57Z" fill="rgb(255,253,219)" stroke="rgb(255,253,219)" stroke-width="1.51"></path><path d="M-117,-26L-118,42L-36,-24Z" fill="rgb(255,255,229)" stroke="rgb(255,255,229)" stroke-width="1.51"></path><path d="M571,55L554,-20L481,59Z" fill="rgb(207,149,101)" stroke="rgb(207,149,101)" stroke-width="1.51"></path><path d="M-119,190L-120,270L-32,191Z" fill="rgb(255,197,134)" stroke="rgb(255,197,134)" stroke-width="1.51"></path><path d="M-33,342L-38,415L43,342Z" fill="rgb(203,149,112)" stroke="rgb(203,149,112)" stroke-width="1.51"></path><path d="M-121,-98L-120,270L-119,190Z" fill="rgb(255,234,174)" stroke="rgb(255,234,174)" stroke-width="1.51"></path><path d="M43,-102L-32,-108L33,-23Z" fill="rgb(255,254,225)" stroke="rgb(255,254,225)" stroke-width="1.51"></path><path d="M266,-109L-32,-108L43,-102Z" fill="rgb(255,248,203)" stroke="rgb(255,248,203)" stroke-width="1.51"></path><path d="M46,433L34,508L114,498Z" fill="rgb(181,138,94)" stroke="rgb(181,138,94)" stroke-width="1.51"></path><path d="M-113,354L-38,415L-33,342Z" fill="rgb(201,148,112)" stroke="rgb(201,148,112)" stroke-width="1.51"></path><path d="M482,418L561,340L479,345Z" fill="rgb(150,52,5)" stroke="rgb(150,52,5)" stroke-width="1.51"></path><path d="M643,199L629,130L555,206Z" fill="rgb(176,102,31)" stroke="rgb(176,102,31)" stroke-width="1.51"></path><path d="M334,490L404,500L405,427Z" fill="rgb(165,72,13)" stroke="rgb(165,72,13)" stroke-width="1.51"></path><path d="M628,352L630,276L561,340Z" fill="rgb(140,51,6)" stroke="rgb(140,51,6)" stroke-width="1.51"></path><path d="M269,500L404,500L334,490Z" fill="rgb(171,84,19)" stroke="rgb(171,84,19)" stroke-width="1.51"></path><path d="M188,506L404,500L269,500Z" fill="rgb(175,97,26)" stroke="rgb(175,97,26)" stroke-width="1.51"></path><path d="M-121,-98L-117,-26L-36,-24Z" fill="rgb(255,255,229)" stroke="rgb(255,255,229)" stroke-width="1.51"></path><path d="M-120,270L-113,354L-30,283Z" fill="rgb(239,166,118)" stroke="rgb(239,166,118)" stroke-width="1.51"></path><path d="M643,199L555,206L630,276Z" fill="rgb(170,82,18)" stroke="rgb(170,82,18)" stroke-width="1.51"></path><path d="M571,55L647,-26L554,-20Z" fill="rgb(186,142,110)" stroke="rgb(186,142,110)" stroke-width="1.51"></path><path d="M-41,496L46,433L-38,415Z" fill="rgb(183,141,110)" stroke="rgb(183,141,110)" stroke-width="1.51"></path><path d="M-41,496L34,508L46,433Z" fill="rgb(182,140,107)" stroke="rgb(182,140,107)" stroke-width="1.51"></path><path d="M114,498L34,508L188,506Z" fill="rgb(180,133,82)" stroke="rgb(180,133,82)" stroke-width="1.51"></path><path d="M630,276L555,206L553,271Z" fill="rgb(174,75,13)" stroke="rgb(174,75,13)" stroke-width="1.51"></path><path d="M640,-101L556,-106L554,-20Z" fill="rgb(189,143,111)" stroke="rgb(189,143,111)" stroke-width="1.51"></path><path d="M554,-20L556,-106L477,-95Z" fill="rgb(211,152,113)" stroke="rgb(211,152,113)" stroke-width="1.51"></path><path d="M477,-95L556,-106L413,-105Z" fill="rgb(229,161,116)" stroke="rgb(229,161,116)" stroke-width="1.51"></path><path d="M413,-105L556,-106L266,-109Z" fill="rgb(248,176,123)" stroke="rgb(248,176,123)" stroke-width="1.51"></path><path d="M561,340L630,276L553,271Z" fill="rgb(159,60,6)" stroke="rgb(159,60,6)" stroke-width="1.51"></path><path d="M558,429L561,340L482,418Z" fill="rgb(126,44,6)" stroke="rgb(126,44,6)" stroke-width="1.51"></path><path d="M720,117L637,56L629,130Z" fill="rgb(178,128,71)" stroke="rgb(178,128,71)" stroke-width="1.51"></path><path d="M629,130L637,56L571,55Z" fill="rgb(179,132,80)" stroke="rgb(179,132,80)" stroke-width="1.51"></path><path d="M495,499L558,429L482,418Z" fill="rgb(131,46,6)" stroke="rgb(131,46,6)" stroke-width="1.51"></path><path d="M-32,-108L-121,-98L-36,-24Z" fill="rgb(255,255,229)" stroke="rgb(255,255,229)" stroke-width="1.51"></path><path d="M-117,-26L-121,-98L-118,42Z" fill="rgb(255,255,229)" stroke="rgb(255,255,229)" stroke-width="1.51"></path><path d="M-118,42L-121,-98L-119,190Z" fill="rgb(255,251,211)" stroke="rgb(255,251,211)" stroke-width="1.51"></path><path d="M404,500L495,499L482,418Z" fill="rgb(148,55,6)" stroke="rgb(148,55,6)" stroke-width="1.51"></path><path d="M570,508L495,499L404,500Z" fill="rgb(139,50,6)" stroke="rgb(139,50,6)" stroke-width="1.51"></path><path d="M-121,432L-41,496L-38,415Z" fill="rgb(183,141,110)" stroke="rgb(183,141,110)" stroke-width="1.51"></path><path d="M558,429L628,352L561,340Z" fill="rgb(121,43,6)" stroke="rgb(121,43,6)" stroke-width="1.51"></path><path d="M712,271L709,198L643,199Z" fill="rgb(171,84,19)" stroke="rgb(171,84,19)" stroke-width="1.51"></path><path d="M642,434L628,352L558,429Z" fill="rgb(102,37,6)" stroke="rgb(102,37,6)" stroke-width="1.51"></path><path d="M-113,354L-121,432L-38,415Z" fill="rgb(183,141,110)" stroke="rgb(183,141,110)" stroke-width="1.51"></path><path d="M-120,270L-121,432L-113,354Z" fill="rgb(212,152,113)" stroke="rgb(212,152,113)" stroke-width="1.51"></path><path d="M-121,-98L-121,432L-120,270Z" fill="rgb(255,203,137)" stroke="rgb(255,203,137)" stroke-width="1.51"></path><path d="M637,56L647,-26L571,55Z" fill="rgb(181,139,100)" stroke="rgb(181,139,100)" stroke-width="1.51"></path><path d="M721,56L647,-26L637,56Z" fill="rgb(181,139,100)" stroke="rgb(181,139,100)" stroke-width="1.51"></path><path d="M643,199L709,198L629,130Z" fill="rgb(176,103,32)" stroke="rgb(176,103,32)" stroke-width="1.51"></path><path d="M712,271L643,199L630,276Z" fill="rgb(166,73,14)" stroke="rgb(166,73,14)" stroke-width="1.51"></path><path d="M-121,432L-107,498L-41,496Z" fill="rgb(183,141,110)" stroke="rgb(183,141,110)" stroke-width="1.51"></path><path d="M-41,496L-107,498L34,508Z" fill="rgb(183,141,110)" stroke="rgb(183,141,110)" stroke-width="1.51"></path><path d="M647,-26L640,-101L554,-20Z" fill="rgb(183,141,110)" stroke="rgb(183,141,110)" stroke-width="1.51"></path><path d="M712,-91L640,-101L647,-26Z" fill="rgb(183,141,110)" stroke="rgb(183,141,110)" stroke-width="1.51"></path><path d="M703,352L712,271L630,276Z" fill="rgb(151,56,6)" stroke="rgb(151,56,6)" stroke-width="1.51"></path><path d="M495,499L570,508L558,429Z" fill="rgb(122,43,6)" stroke="rgb(122,43,6)" stroke-width="1.51"></path><path d="M188,506L570,508L404,500Z" fill="rgb(164,70,12)" stroke="rgb(164,70,12)" stroke-width="1.51"></path><path d="M34,508L570,508L188,506Z" fill="rgb(176,103,32)" stroke="rgb(176,103,32)" stroke-width="1.51"></path><path d="M709,198L720,117L629,130Z" fill="rgb(176,114,42)" stroke="rgb(176,114,42)" stroke-width="1.51"></path><path d="M703,352L630,276L628,352Z" fill="rgb(138,50,6)" stroke="rgb(138,50,6)" stroke-width="1.51"></path><path d="M709,198L712,271L720,117Z" fill="rgb(175,95,25)" stroke="rgb(175,95,25)" stroke-width="1.51"></path><path d="M570,508L642,434L558,429Z" fill="rgb(105,38,6)" stroke="rgb(105,38,6)" stroke-width="1.51"></path><path d="M720,117L721,56L637,56Z" fill="rgb(179,132,81)" stroke="rgb(179,132,81)" stroke-width="1.51"></path><path d="M642,434L703,352L628,352Z" fill="rgb(112,40,6)" stroke="rgb(112,40,6)" stroke-width="1.51"></path><path d="M721,56L709,-33L647,-26Z" fill="rgb(183,141,110)" stroke="rgb(183,141,110)" stroke-width="1.51"></path><path d="M642,434L713,434L703,352Z" fill="rgb(102,37,6)" stroke="rgb(102,37,6)" stroke-width="1.51"></path><path d="M570,508L637,503L642,434Z" fill="rgb(102,37,6)" stroke="rgb(102,37,6)" stroke-width="1.51"></path><path d="M709,-33L712,-91L647,-26Z" fill="rgb(183,141,110)" stroke="rgb(183,141,110)" stroke-width="1.51"></path><path d="M721,56L712,-91L709,-33Z" fill="rgb(183,141,110)" stroke="rgb(183,141,110)" stroke-width="1.51"></path><path d="M705,509L713,434L642,434Z" fill="rgb(102,37,6)" stroke="rgb(102,37,6)" stroke-width="1.51"></path><path d="M703,352L713,434L712,271Z" fill="rgb(126,44,6)" stroke="rgb(126,44,6)" stroke-width="1.51"></path><path d="M712,271L713,434L720,117Z" fill="rgb(159,65,10)" stroke="rgb(159,65,10)" stroke-width="1.51"></path><path d="M637,503L705,509L642,434Z" fill="rgb(102,37,6)" stroke="rgb(102,37,6)" stroke-width="1.51"></path><path d="M570,508L705,509L637,503Z" fill="rgb(102,37,6)" stroke="rgb(102,37,6)" stroke-width="1.51"></path><path d="M34,508L705,509L570,508Z" fill="rgb(154,59,8)" stroke="rgb(154,59,8)" stroke-width="1.51"></path></svg>