<svg width="600" height="400" xmlns="http://www.w3.org/2000/svg"><path d="M265,198L338,200L333,124Z" fill="rgb(113,198,170)" stroke="rgb(113,198,170)" stroke-width="1.51"></path><path d="M333,124L266,120L265,198Z" fill="rgb(134,208,186)" stroke="rgb(134,208,186)" stroke-width="1.51"></path><path d="M265,198L336,272L338,200Z" fill="rgb(91,188,149)" stroke="rgb(91,188,149)" stroke-width="1.51"></path><path d="M338,200L411,129L333,124Z" fill="rgb(115,197,163)" stroke="rgb(115,197,163)" stroke-width="1.51"></path><path d="M336,272L409,204L338,200Z" fill="rgb(79,181,134)" stroke="rgb(79,181,134)" stroke-width="1.51"></path><path d="M409,204L411,129L338,200Z" fill="rgb(96,187,145)" stroke="rgb(96,187,145)" stroke-width="1.51"></path><path d="M265,198L266,274L336,272Z" fill="rgb(90,186,144)" stroke="rgb(90,186,144)" stroke-width="1.51"></path><path d="M333,124L265,50L266,120Z" fill="rgb(160,217,200)" stroke="rgb(160,217,200)" stroke-width="1.51"></path><path d="M266,120L183,195L265,198Z" fill="rgb(139,210,190)" stroke="rgb(139,210,190)" stroke-width="1.51"></path><path d="M340,46L265,50L333,124Z" fill="rgb(159,216,197)" stroke="rgb(159,216,197)" stroke-width="1.51"></path><path d="M183,121L183,195L266,120Z" fill="rgb(161,219,205)" stroke="rgb(161,219,205)" stroke-width="1.51"></path><path d="M265,198L186,270L266,274Z" fill="rgb(108,194,157)" stroke="rgb(108,194,157)" stroke-width="1.51"></path><path d="M411,129L340,46L333,124Z" fill="rgb(142,207,177)" stroke="rgb(142,207,177)" stroke-width="1.51"></path><path d="M185,50L183,121L266,120Z" fill="rgb(185,229,218)" stroke="rgb(185,229,218)" stroke-width="1.51"></path><path d="M484,198L483,127L411,129Z" fill="rgb(98,175,131)" stroke="rgb(98,175,131)" stroke-width="1.51"></path><path d="M336,272L410,277L409,204Z" fill="rgb(63,171,114)" stroke="rgb(63,171,114)" stroke-width="1.51"></path><path d="M410,345L410,277L336,272Z" fill="rgb(49,154,91)" stroke="rgb(49,154,91)" stroke-width="1.51"></path><path d="M183,195L186,270L265,198Z" fill="rgb(127,203,175)" stroke="rgb(127,203,175)" stroke-width="1.51"></path><path d="M411,129L411,46L340,46Z" fill="rgb(144,205,173)" stroke="rgb(144,205,173)" stroke-width="1.51"></path><path d="M265,50L185,50L266,120Z" fill="rgb(181,227,217)" stroke="rgb(181,227,217)" stroke-width="1.51"></path><path d="M187,-22L185,50L265,50Z" fill="rgb(200,234,228)" stroke="rgb(200,234,228)" stroke-width="1.51"></path><path d="M484,198L411,129L409,204Z" fill="rgb(88,175,129)" stroke="rgb(88,175,129)" stroke-width="1.51"></path><path d="M411,129L483,127L411,46Z" fill="rgb(128,191,152)" stroke="rgb(128,191,152)" stroke-width="1.51"></path><path d="M487,275L484,198L409,204Z" fill="rgb(60,159,103)" stroke="rgb(60,159,103)" stroke-width="1.51"></path><path d="M266,274L338,352L336,272Z" fill="rgb(68,164,112)" stroke="rgb(68,164,112)" stroke-width="1.51"></path><path d="M186,270L258,345L266,274Z" fill="rgb(96,177,133)" stroke="rgb(96,177,133)" stroke-width="1.51"></path><path d="M340,46L264,-22L265,50Z" fill="rgb(176,223,209)" stroke="rgb(176,223,209)" stroke-width="1.51"></path><path d="M337,-23L264,-22L340,46Z" fill="rgb(175,221,203)" stroke="rgb(175,221,203)" stroke-width="1.51"></path><path d="M408,-21L337,-23L340,46Z" fill="rgb(164,216,188)" stroke="rgb(164,216,188)" stroke-width="1.51"></path><path d="M258,345L338,352L266,274Z" fill="rgb(71,161,112)" stroke="rgb(71,161,112)" stroke-width="1.51"></path><path d="M183,195L112,271L186,270Z" fill="rgb(137,205,173)" stroke="rgb(137,205,173)" stroke-width="1.51"></path><path d="M186,270L183,348L258,345Z" fill="rgb(101,172,130)" stroke="rgb(101,172,130)" stroke-width="1.51"></path><path d="M110,126L111,195L183,195Z" fill="rgb(171,222,209)" stroke="rgb(171,222,209)" stroke-width="1.51"></path><path d="M110,126L183,195L183,121Z" fill="rgb(177,226,215)" stroke="rgb(177,226,215)" stroke-width="1.51"></path><path d="M110,48L110,126L183,121Z" fill="rgb(207,237,232)" stroke="rgb(207,237,232)" stroke-width="1.51"></path><path d="M338,352L410,345L336,272Z" fill="rgb(49,151,91)" stroke="rgb(49,151,91)" stroke-width="1.51"></path><path d="M410,277L487,275L409,204Z" fill="rgb(53,159,97)" stroke="rgb(53,159,97)" stroke-width="1.51"></path><path d="M483,-27L408,-21L411,46Z" fill="rgb(151,199,163)" stroke="rgb(151,199,163)" stroke-width="1.51"></path><path d="M411,46L408,-21L340,46Z" fill="rgb(156,209,179)" stroke="rgb(156,209,179)" stroke-width="1.51"></path><path d="M410,345L487,275L410,277Z" fill="rgb(39,143,74)" stroke="rgb(39,143,74)" stroke-width="1.51"></path><path d="M559,128L485,47L483,127Z" fill="rgb(116,175,136)" stroke="rgb(116,175,136)" stroke-width="1.51"></path><path d="M483,127L485,47L411,46Z" fill="rgb(131,188,150)" stroke="rgb(131,188,150)" stroke-width="1.51"></path><path d="M559,128L483,127L484,198Z" fill="rgb(90,165,122)" stroke="rgb(90,165,122)" stroke-width="1.51"></path><path d="M111,195L112,271L183,195Z" fill="rgb(151,212,189)" stroke="rgb(151,212,189)" stroke-width="1.51"></path><path d="M34,198L112,271L111,195Z" fill="rgb(159,215,194)" stroke="rgb(159,215,194)" stroke-width="1.51"></path><path d="M185,50L110,48L183,121Z" fill="rgb(208,238,233)" stroke="rgb(208,238,233)" stroke-width="1.51"></path><path d="M264,-22L187,-22L265,50Z" fill="rgb(196,232,223)" stroke="rgb(196,232,223)" stroke-width="1.51"></path><path d="M266,-98L187,-22L264,-22Z" fill="rgb(196,232,223)" stroke="rgb(196,232,223)" stroke-width="1.51"></path><path d="M115,345L183,348L186,270Z" fill="rgb(117,179,139)" stroke="rgb(117,179,139)" stroke-width="1.51"></path><path d="M261,425L332,425L338,352Z" fill="rgb(51,127,89)" stroke="rgb(51,127,89)" stroke-width="1.51"></path><path d="M187,-22L110,48L185,50Z" fill="rgb(218,241,238)" stroke="rgb(218,241,238)" stroke-width="1.51"></path><path d="M562,196L559,128L484,198Z" fill="rgb(74,153,110)" stroke="rgb(74,153,110)" stroke-width="1.51"></path><path d="M112,271L115,345L186,270Z" fill="rgb(129,189,151)" stroke="rgb(129,189,151)" stroke-width="1.51"></path><path d="M559,272L562,196L484,198Z" fill="rgb(51,143,92)" stroke="rgb(51,143,92)" stroke-width="1.51"></path><path d="M410,345L490,346L487,275Z" fill="rgb(26,130,61)" stroke="rgb(26,130,61)" stroke-width="1.51"></path><path d="M410,423L490,346L410,345Z" fill="rgb(22,117,57)" stroke="rgb(22,117,57)" stroke-width="1.51"></path><path d="M559,272L484,198L487,275Z" fill="rgb(41,144,84)" stroke="rgb(41,144,84)" stroke-width="1.51"></path><path d="M338,352L410,423L410,345Z" fill="rgb(33,128,72)" stroke="rgb(33,128,72)" stroke-width="1.51"></path><path d="M261,425L338,352L258,345Z" fill="rgb(62,142,101)" stroke="rgb(62,142,101)" stroke-width="1.51"></path><path d="M261,425L258,345L187,426Z" fill="rgb(76,138,106)" stroke="rgb(76,138,106)" stroke-width="1.51"></path><path d="M485,47L483,-27L411,46Z" fill="rgb(142,192,155)" stroke="rgb(142,192,155)" stroke-width="1.51"></path><path d="M334,-105L266,-98L337,-23Z" fill="rgb(175,222,203)" stroke="rgb(175,222,203)" stroke-width="1.51"></path><path d="M337,-23L266,-98L264,-22Z" fill="rgb(181,225,210)" stroke="rgb(181,225,210)" stroke-width="1.51"></path><path d="M559,-26L483,-27L485,47Z" fill="rgb(138,183,146)" stroke="rgb(138,183,146)" stroke-width="1.51"></path><path d="M187,426L258,345L183,348Z" fill="rgb(90,153,117)" stroke="rgb(90,153,117)" stroke-width="1.51"></path><path d="M334,-105L337,-23L411,-101Z" fill="rgb(165,216,188)" stroke="rgb(165,216,188)" stroke-width="1.51"></path><path d="M187,-22L108,-25L110,48Z" fill="rgb(228,245,243)" stroke="rgb(228,245,243)" stroke-width="1.51"></path><path d="M110,126L39,123L111,195Z" fill="rgb(190,231,224)" stroke="rgb(190,231,224)" stroke-width="1.51"></path><path d="M112,271L36,273L115,345Z" fill="rgb(138,192,157)" stroke="rgb(138,192,157)" stroke-width="1.51"></path><path d="M110,48L39,123L110,126Z" fill="rgb(215,240,238)" stroke="rgb(215,240,238)" stroke-width="1.51"></path><path d="M39,123L34,198L111,195Z" fill="rgb(183,226,217)" stroke="rgb(183,226,217)" stroke-width="1.51"></path><path d="M411,-101L337,-23L408,-21Z" fill="rgb(160,211,180)" stroke="rgb(160,211,180)" stroke-width="1.51"></path><path d="M110,48L38,51L39,123Z" fill="rgb(225,244,245)" stroke="rgb(225,244,245)" stroke-width="1.51"></path><path d="M188,-103L108,-25L187,-22Z" fill="rgb(222,243,239)" stroke="rgb(222,243,239)" stroke-width="1.51"></path><path d="M490,346L559,272L487,275Z" fill="rgb(24,127,59)" stroke="rgb(24,127,59)" stroke-width="1.51"></path><path d="M332,425L410,423L338,352Z" fill="rgb(37,121,75)" stroke="rgb(37,121,75)" stroke-width="1.51"></path><path d="M112,424L187,426L183,348Z" fill="rgb(101,147,120)" stroke="rgb(101,147,120)" stroke-width="1.51"></path><path d="M265,501L337,497L332,425Z" fill="rgb(51,127,89)" stroke="rgb(51,127,89)" stroke-width="1.51"></path><path d="M483,-27L411,-101L408,-21Z" fill="rgb(151,199,163)" stroke="rgb(151,199,163)" stroke-width="1.51"></path><path d="M483,-27L487,-103L411,-101Z" fill="rgb(146,193,155)" stroke="rgb(146,193,155)" stroke-width="1.51"></path><path d="M559,128L564,47L485,47Z" fill="rgb(120,171,136)" stroke="rgb(120,171,136)" stroke-width="1.51"></path><path d="M632,125L564,47L559,128Z" fill="rgb(106,153,124)" stroke="rgb(106,153,124)" stroke-width="1.51"></path><path d="M39,123L-33,122L34,198Z" fill="rgb(200,234,227)" stroke="rgb(200,234,227)" stroke-width="1.51"></path><path d="M108,-25L38,51L110,48Z" fill="rgb(232,247,248)" stroke="rgb(232,247,248)" stroke-width="1.51"></path><path d="M34,198L36,273L112,271Z" fill="rgb(155,211,183)" stroke="rgb(155,211,183)" stroke-width="1.51"></path><path d="M115,345L112,424L183,348Z" fill="rgb(112,162,129)" stroke="rgb(112,162,129)" stroke-width="1.51"></path><path d="M334,-105L188,-103L266,-98Z" fill="rgb(189,229,217)" stroke="rgb(189,229,217)" stroke-width="1.51"></path><path d="M266,-98L188,-103L187,-22Z" fill="rgb(205,236,229)" stroke="rgb(205,236,229)" stroke-width="1.51"></path><path d="M564,47L559,-26L485,47Z" fill="rgb(131,175,141)" stroke="rgb(131,175,141)" stroke-width="1.51"></path><path d="M410,499L487,428L410,423Z" fill="rgb(20,106,52)" stroke="rgb(20,106,52)" stroke-width="1.51"></path><path d="M410,423L487,428L490,346Z" fill="rgb(14,101,45)" stroke="rgb(14,101,45)" stroke-width="1.51"></path><path d="M490,346L565,354L559,272Z" fill="rgb(11,113,49)" stroke="rgb(11,113,49)" stroke-width="1.51"></path><path d="M337,497L410,423L332,425Z" fill="rgb(37,121,75)" stroke="rgb(37,121,75)" stroke-width="1.51"></path><path d="M38,350L112,424L115,345Z" fill="rgb(120,164,135)" stroke="rgb(120,164,135)" stroke-width="1.51"></path><path d="M-41,351L38,350L36,273Z" fill="rgb(140,187,150)" stroke="rgb(140,187,150)" stroke-width="1.51"></path><path d="M36,273L38,350L115,345Z" fill="rgb(135,185,150)" stroke="rgb(135,185,150)" stroke-width="1.51"></path><path d="M561,423L565,354L490,346Z" fill="rgb(0,95,38)" stroke="rgb(0,95,38)" stroke-width="1.51"></path><path d="M635,199L632,125L562,196Z" fill="rgb(68,134,101)" stroke="rgb(68,134,101)" stroke-width="1.51"></path><path d="M562,196L632,125L559,128Z" fill="rgb(81,143,111)" stroke="rgb(81,143,111)" stroke-width="1.51"></path><path d="M562,-96L487,-103L483,-27Z" fill="rgb(138,183,146)" stroke="rgb(138,183,146)" stroke-width="1.51"></path><path d="M411,-101L487,-103L334,-105Z" fill="rgb(155,205,171)" stroke="rgb(155,205,171)" stroke-width="1.51"></path><path d="M188,-103L109,-103L108,-25Z" fill="rgb(228,245,243)" stroke="rgb(228,245,243)" stroke-width="1.51"></path><path d="M108,-25L34,-29L38,51Z" fill="rgb(240,249,252)" stroke="rgb(240,249,252)" stroke-width="1.51"></path><path d="M42,-105L109,-103L188,-103Z" fill="rgb(232,246,246)" stroke="rgb(232,246,246)" stroke-width="1.51"></path><path d="M42,-105L34,-29L108,-25Z" fill="rgb(240,249,252)" stroke="rgb(240,249,252)" stroke-width="1.51"></path><path d="M38,51L-33,122L39,123Z" fill="rgb(225,244,241)" stroke="rgb(225,244,241)" stroke-width="1.51"></path><path d="M635,199L562,196L559,272Z" fill="rgb(46,128,84)" stroke="rgb(46,128,84)" stroke-width="1.51"></path><path d="M564,47L632,-22L559,-26Z" fill="rgb(127,161,134)" stroke="rgb(127,161,134)" stroke-width="1.51"></path><path d="M641,277L635,199L559,272Z" fill="rgb(34,119,71)" stroke="rgb(34,119,71)" stroke-width="1.51"></path><path d="M265,501L261,425L186,500Z" fill="rgb(75,137,106)" stroke="rgb(75,137,106)" stroke-width="1.51"></path><path d="M265,501L332,425L261,425Z" fill="rgb(59,130,95)" stroke="rgb(59,130,95)" stroke-width="1.51"></path><path d="M-35,53L-33,122L38,51Z" fill="rgb(232,246,246)" stroke="rgb(232,246,246)" stroke-width="1.51"></path><path d="M34,198L-37,198L36,273Z" fill="rgb(169,218,196)" stroke="rgb(169,218,196)" stroke-width="1.51"></path><path d="M186,500L261,425L187,426Z" fill="rgb(84,141,111)" stroke="rgb(84,141,111)" stroke-width="1.51"></path><path d="M-33,122L-37,198L34,198Z" fill="rgb(190,229,218)" stroke="rgb(190,229,218)" stroke-width="1.51"></path><path d="M559,-26L562,-96L483,-27Z" fill="rgb(135,177,142)" stroke="rgb(135,177,142)" stroke-width="1.51"></path><path d="M632,125L634,54L564,47Z" fill="rgb(110,150,126)" stroke="rgb(110,150,126)" stroke-width="1.51"></path><path d="M709,125L634,54L632,125Z" fill="rgb(104,148,121)" stroke="rgb(104,148,121)" stroke-width="1.51"></path><path d="M337,497L410,499L410,423Z" fill="rgb(31,117,67)" stroke="rgb(31,117,67)" stroke-width="1.51"></path><path d="M265,501L410,499L337,497Z" fill="rgb(44,124,81)" stroke="rgb(44,124,81)" stroke-width="1.51"></path><path d="M-117,121L-110,202L-37,198Z" fill="rgb(190,229,217)" stroke="rgb(190,229,217)" stroke-width="1.51"></path><path d="M34,-29L-35,53L38,51Z" fill="rgb(241,250,252)" stroke="rgb(241,250,252)" stroke-width="1.51"></path><path d="M116,501L187,426L112,424Z" fill="rgb(106,149,123)" stroke="rgb(106,149,123)" stroke-width="1.51"></path><path d="M116,501L186,500L187,426Z" fill="rgb(100,147,119)" stroke="rgb(100,147,119)" stroke-width="1.51"></path><path d="M565,354L641,277L559,272Z" fill="rgb(16,105,48)" stroke="rgb(16,105,48)" stroke-width="1.51"></path><path d="M635,199L709,125L632,125Z" fill="rgb(79,139,109)" stroke="rgb(79,139,109)" stroke-width="1.51"></path><path d="M-37,198L-42,270L36,273Z" fill="rgb(163,214,185)" stroke="rgb(163,214,185)" stroke-width="1.51"></path><path d="M38,350L38,420L112,424Z" fill="rgb(118,154,131)" stroke="rgb(118,154,131)" stroke-width="1.51"></path><path d="M-110,202L-42,270L-37,198Z" fill="rgb(170,219,196)" stroke="rgb(170,219,196)" stroke-width="1.51"></path><path d="M565,354L637,349L641,277Z" fill="rgb(7,95,41)" stroke="rgb(7,95,41)" stroke-width="1.51"></path><path d="M487,428L561,423L490,346Z" fill="rgb(3,91,37)" stroke="rgb(3,91,37)" stroke-width="1.51"></path><path d="M558,497L561,423L487,428Z" fill="rgb(0,85,34)" stroke="rgb(0,85,34)" stroke-width="1.51"></path><path d="M632,-22L562,-96L559,-26Z" fill="rgb(127,161,134)" stroke="rgb(127,161,134)" stroke-width="1.51"></path><path d="M-36,421L38,420L38,350Z" fill="rgb(124,157,132)" stroke="rgb(124,157,132)" stroke-width="1.51"></path><path d="M34,-29L-41,-24L-35,53Z" fill="rgb(247,252,253)" stroke="rgb(247,252,253)" stroke-width="1.51"></path><path d="M109,-103L42,-105L108,-25Z" fill="rgb(236,248,249)" stroke="rgb(236,248,249)" stroke-width="1.51"></path><path d="M334,-105L42,-105L188,-103Z" fill="rgb(213,239,234)" stroke="rgb(213,239,234)" stroke-width="1.51"></path><path d="M634,54L632,-22L564,47Z" fill="rgb(121,154,131)" stroke="rgb(121,154,131)" stroke-width="1.51"></path><path d="M716,49L632,-22L634,54Z" fill="rgb(120,154,131)" stroke="rgb(120,154,131)" stroke-width="1.51"></path><path d="M636,423L637,349L565,354Z" fill="rgb(0,78,31)" stroke="rgb(0,78,31)" stroke-width="1.51"></path><path d="M410,499L485,503L487,428Z" fill="rgb(14,101,45)" stroke="rgb(14,101,45)" stroke-width="1.51"></path><path d="M561,423L636,423L565,354Z" fill="rgb(0,71,28)" stroke="rgb(0,71,28)" stroke-width="1.51"></path><path d="M265,501L485,503L410,499Z" fill="rgb(31,116,67)" stroke="rgb(31,116,67)" stroke-width="1.51"></path><path d="M41,502L116,501L112,424Z" fill="rgb(114,152,128)" stroke="rgb(114,152,128)" stroke-width="1.51"></path><path d="M186,500L116,501L265,501Z" fill="rgb(92,144,115)" stroke="rgb(92,144,115)" stroke-width="1.51"></path><path d="M265,501L41,502L485,503Z" fill="rgb(66,134,100)" stroke="rgb(66,134,100)" stroke-width="1.51"></path><path d="M-42,270L-41,351L36,273Z" fill="rgb(148,196,159)" stroke="rgb(148,196,159)" stroke-width="1.51"></path><path d="M38,420L41,502L112,424Z" fill="rgb(118,153,131)" stroke="rgb(118,153,131)" stroke-width="1.51"></path><path d="M-117,121L-37,198L-33,122Z" fill="rgb(202,235,228)" stroke="rgb(202,235,228)" stroke-width="1.51"></path><path d="M-34,-99L-41,-24L34,-29Z" fill="rgb(247,252,253)" stroke="rgb(247,252,253)" stroke-width="1.51"></path><path d="M715,201L635,199L641,277Z" fill="rgb(44,124,81)" stroke="rgb(44,124,81)" stroke-width="1.51"></path><path d="M715,201L709,125L635,199Z" fill="rgb(67,134,100)" stroke="rgb(67,134,100)" stroke-width="1.51"></path><path d="M-42,270L-112,347L-41,351Z" fill="rgb(142,188,151)" stroke="rgb(142,188,151)" stroke-width="1.51"></path><path d="M-117,121L-33,122L-108,49Z" fill="rgb(226,244,242)" stroke="rgb(226,244,242)" stroke-width="1.51"></path><path d="M714,277L715,201L641,277Z" fill="rgb(32,118,69)" stroke="rgb(32,118,69)" stroke-width="1.51"></path><path d="M485,503L558,497L487,428Z" fill="rgb(3,91,38)" stroke="rgb(3,91,38)" stroke-width="1.51"></path><path d="M-108,49L-33,122L-35,53Z" fill="rgb(232,247,246)" stroke="rgb(232,247,246)" stroke-width="1.51"></path><path d="M637,349L714,277L641,277Z" fill="rgb(16,102,47)" stroke="rgb(16,102,47)" stroke-width="1.51"></path><path d="M637,499L636,423L561,423Z" fill="rgb(0,68,27)" stroke="rgb(0,68,27)" stroke-width="1.51"></path><path d="M-108,422L-36,421L-41,351Z" fill="rgb(126,157,133)" stroke="rgb(126,157,133)" stroke-width="1.51"></path><path d="M-41,351L-36,421L38,350Z" fill="rgb(131,168,138)" stroke="rgb(131,168,138)" stroke-width="1.51"></path><path d="M-41,-24L-108,49L-35,53Z" fill="rgb(243,250,252)" stroke="rgb(243,250,252)" stroke-width="1.51"></path><path d="M717,354L714,277L637,349Z" fill="rgb(7,95,41)" stroke="rgb(7,95,41)" stroke-width="1.51"></path><path d="M42,-105L-34,-99L34,-29Z" fill="rgb(246,252,252)" stroke="rgb(246,252,252)" stroke-width="1.51"></path><path d="M-41,-24L-117,-24L-108,49Z" fill="rgb(247,252,253)" stroke="rgb(247,252,253)" stroke-width="1.51"></path><path d="M-36,421L41,502L38,420Z" fill="rgb(124,156,131)" stroke="rgb(124,156,131)" stroke-width="1.51"></path><path d="M116,501L41,502L265,501Z" fill="rgb(106,149,123)" stroke="rgb(106,149,123)" stroke-width="1.51"></path><path d="M632,-22L638,-105L562,-96Z" fill="rgb(125,156,132)" stroke="rgb(125,156,132)" stroke-width="1.51"></path><path d="M709,125L716,49L634,54Z" fill="rgb(110,150,126)" stroke="rgb(110,150,126)" stroke-width="1.51"></path><path d="M715,201L716,49L709,125Z" fill="rgb(92,144,115)" stroke="rgb(92,144,115)" stroke-width="1.51"></path><path d="M708,-98L638,-105L632,-22Z" fill="rgb(125,156,132)" stroke="rgb(125,156,132)" stroke-width="1.51"></path><path d="M562,-96L638,-105L487,-103Z" fill="rgb(130,168,137)" stroke="rgb(130,168,137)" stroke-width="1.51"></path><path d="M487,-103L638,-105L334,-105Z" fill="rgb(142,187,151)" stroke="rgb(142,187,151)" stroke-width="1.51"></path><path d="M-110,202L-116,277L-42,270Z" fill="rgb(162,214,184)" stroke="rgb(162,214,184)" stroke-width="1.51"></path><path d="M-117,121L-116,277L-110,202Z" fill="rgb(177,223,208)" stroke="rgb(177,223,208)" stroke-width="1.51"></path><path d="M716,49L711,-26L632,-22Z" fill="rgb(125,156,132)" stroke="rgb(125,156,132)" stroke-width="1.51"></path><path d="M-116,277L-112,347L-42,270Z" fill="rgb(148,196,159)" stroke="rgb(148,196,159)" stroke-width="1.51"></path><path d="M-36,421L-42,502L41,502Z" fill="rgb(125,156,132)" stroke="rgb(125,156,132)" stroke-width="1.51"></path><path d="M636,423L717,354L637,349Z" fill="rgb(0,78,31)" stroke="rgb(0,78,31)" stroke-width="1.51"></path><path d="M714,277L717,354L715,201Z" fill="rgb(25,110,58)" stroke="rgb(25,110,58)" stroke-width="1.51"></path><path d="M715,201L717,354L716,49Z" fill="rgb(53,128,91)" stroke="rgb(53,128,91)" stroke-width="1.51"></path><path d="M710,428L717,354L636,423Z" fill="rgb(0,68,27)" stroke="rgb(0,68,27)" stroke-width="1.51"></path><path d="M-118,-97L-117,-24L-41,-24Z" fill="rgb(247,252,253)" stroke="rgb(247,252,253)" stroke-width="1.51"></path><path d="M-108,49L-117,-24L-117,121Z" fill="rgb(238,249,251)" stroke="rgb(238,249,251)" stroke-width="1.51"></path><path d="M485,503L637,499L558,497Z" fill="rgb(0,78,31)" stroke="rgb(0,78,31)" stroke-width="1.51"></path><path d="M558,497L637,499L561,423Z" fill="rgb(0,72,28)" stroke="rgb(0,72,28)" stroke-width="1.51"></path><path d="M-108,422L-42,502L-36,421Z" fill="rgb(125,156,132)" stroke="rgb(125,156,132)" stroke-width="1.51"></path><path d="M41,502L-42,502L485,503Z" fill="rgb(101,147,120)" stroke="rgb(101,147,120)" stroke-width="1.51"></path><path d="M716,49L708,-98L711,-26Z" fill="rgb(125,156,132)" stroke="rgb(125,156,132)" stroke-width="1.51"></path><path d="M711,-26L708,-98L632,-22Z" fill="rgb(125,156,132)" stroke="rgb(125,156,132)" stroke-width="1.51"></path><path d="M-111,498L-108,422L-112,347Z" fill="rgb(125,156,132)" stroke="rgb(125,156,132)" stroke-width="1.51"></path><path d="M-112,347L-108,422L-41,351Z" fill="rgb(131,168,138)" stroke="rgb(131,168,138)" stroke-width="1.51"></path><path d="M637,499L710,428L636,423Z" fill="rgb(0,68,27)" stroke="rgb(0,68,27)" stroke-width="1.51"></path><path d="M-34,-99L-118,-97L-41,-24Z" fill="rgb(247,252,253)" stroke="rgb(247,252,253)" stroke-width="1.51"></path><path d="M-117,-24L-118,-97L-117,121Z" fill="rgb(247,252,253)" stroke="rgb(247,252,253)" stroke-width="1.51"></path><path d="M42,-105L-118,-97L-34,-99Z" fill="rgb(247,252,253)" stroke="rgb(247,252,253)" stroke-width="1.51"></path><path d="M637,499L711,501L710,428Z" fill="rgb(0,68,27)" stroke="rgb(0,68,27)" stroke-width="1.51"></path><path d="M710,428L711,501L717,354Z" fill="rgb(0,68,27)" stroke="rgb(0,68,27)" stroke-width="1.51"></path><path d="M485,503L711,501L637,499Z" fill="rgb(0,68,27)" stroke="rgb(0,68,27)" stroke-width="1.51"></path><path d="M-108,422L-111,498L-42,502Z" fill="rgb(125,156,132)" stroke="rgb(125,156,132)" stroke-width="1.51"></path><path d="M-116,277L-111,498L-112,347Z" fill="rgb(131,168,138)" stroke="rgb(131,168,138)" stroke-width="1.51"></path></svg>