<svg width="600" height="400" xmlns="http://www.w3.org/2000/svg"><path d="M343,223L355,295L442,293Z" fill="rgb(195,192,221)" stroke="rgb(195,192,221)" stroke-width="1.51"></path><path d="M442,293L423,169L343,223Z" fill="rgb(207,205,228)" stroke="rgb(207,205,228)" stroke-width="1.51"></path><path d="M355,295L417,335L442,293Z" fill="rgb(165,157,200)" stroke="rgb(165,157,200)" stroke-width="1.51"></path><path d="M442,293L468,179L423,169Z" fill="rgb(197,192,218)" stroke="rgb(197,192,218)" stroke-width="1.51"></path><path d="M442,293L500,293L468,179Z" fill="rgb(169,161,202)" stroke="rgb(169,161,202)" stroke-width="1.51"></path><path d="M516,351L500,293L442,293Z" fill="rgb(131,116,173)" stroke="rgb(131,116,173)" stroke-width="1.51"></path><path d="M355,295L325,341L417,335Z" fill="rgb(168,159,201)" stroke="rgb(168,159,201)" stroke-width="1.51"></path><path d="M245,294L325,341L355,295Z" fill="rgb(191,184,213)" stroke="rgb(191,184,213)" stroke-width="1.51"></path><path d="M566,152L468,146L468,179Z" fill="rgb(186,153,172)" stroke="rgb(186,153,172)" stroke-width="1.51"></path><path d="M468,179L468,146L423,169Z" fill="rgb(203,182,190)" stroke="rgb(203,182,190)" stroke-width="1.51"></path><path d="M366,77L309,137L423,169Z" fill="rgb(238,202,174)" stroke="rgb(238,202,174)" stroke-width="1.51"></path><path d="M423,169L309,137L343,223Z" fill="rgb(235,226,222)" stroke="rgb(235,226,222)" stroke-width="1.51"></path><path d="M245,294L292,369L325,341Z" fill="rgb(181,162,196)" stroke="rgb(181,162,196)" stroke-width="1.51"></path><path d="M500,293L560,189L468,179Z" fill="rgb(170,152,197)" stroke="rgb(170,152,197)" stroke-width="1.51"></path><path d="M417,335L516,351L442,293Z" fill="rgb(134,119,176)" stroke="rgb(134,119,176)" stroke-width="1.51"></path><path d="M428,422L516,351L417,335Z" fill="rgb(113,85,155)" stroke="rgb(113,85,155)" stroke-width="1.51"></path><path d="M325,341L342,405L417,335Z" fill="rgb(151,126,184)" stroke="rgb(151,126,184)" stroke-width="1.51"></path><path d="M245,294L355,295L343,223Z" fill="rgb(213,211,230)" stroke="rgb(213,211,230)" stroke-width="1.51"></path><path d="M236,189L245,294L343,223Z" fill="rgb(236,229,228)" stroke="rgb(236,229,228)" stroke-width="1.51"></path><path d="M468,146L426,91L423,169Z" fill="rgb(213,175,166)" stroke="rgb(213,175,166)" stroke-width="1.51"></path><path d="M516,351L535,339L500,293Z" fill="rgb(111,85,158)" stroke="rgb(111,85,158)" stroke-width="1.51"></path><path d="M292,369L342,405L325,341Z" fill="rgb(155,129,180)" stroke="rgb(155,129,180)" stroke-width="1.51"></path><path d="M309,137L236,189L343,223Z" fill="rgb(250,241,231)" stroke="rgb(250,241,231)" stroke-width="1.51"></path><path d="M342,405L428,422L417,335Z" fill="rgb(125,99,155)" stroke="rgb(125,99,155)" stroke-width="1.51"></path><path d="M516,351L541,425L535,339Z" fill="rgb(81,40,130)" stroke="rgb(81,40,130)" stroke-width="1.51"></path><path d="M578,291L560,189L500,293Z" fill="rgb(141,114,177)" stroke="rgb(141,114,177)" stroke-width="1.51"></path><path d="M468,146L518,19L426,91Z" fill="rgb(192,129,113)" stroke="rgb(192,129,113)" stroke-width="1.51"></path><path d="M426,91L366,77L423,169Z" fill="rgb(225,178,153)" stroke="rgb(225,178,153)" stroke-width="1.51"></path><path d="M309,137L254,135L236,189Z" fill="rgb(254,226,189)" stroke="rgb(254,226,189)" stroke-width="1.51"></path><path d="M218,52L254,135L242,32Z" fill="rgb(239,172,103)" stroke="rgb(239,172,103)" stroke-width="1.51"></path><path d="M535,339L578,291L500,293Z" fill="rgb(116,87,160)" stroke="rgb(116,87,160)" stroke-width="1.51"></path><path d="M236,189L217,200L245,294Z" fill="rgb(242,223,206)" stroke="rgb(242,223,206)" stroke-width="1.51"></path><path d="M210,144L217,200L236,189Z" fill="rgb(254,222,183)" stroke="rgb(254,222,183)" stroke-width="1.51"></path><path d="M560,189L566,152L468,179Z" fill="rgb(174,138,174)" stroke="rgb(174,138,174)" stroke-width="1.51"></path><path d="M650,186L566,152L560,189Z" fill="rgb(150,114,144)" stroke="rgb(150,114,144)" stroke-width="1.51"></path><path d="M426,91L418,48L366,77Z" fill="rgb(213,152,124)" stroke="rgb(213,152,124)" stroke-width="1.51"></path><path d="M218,52L210,144L254,135Z" fill="rgb(252,193,124)" stroke="rgb(252,193,124)" stroke-width="1.51"></path><path d="M518,19L418,48L426,91Z" fill="rgb(183,120,107)" stroke="rgb(183,120,107)" stroke-width="1.51"></path><path d="M245,294L207,347L292,369Z" fill="rgb(184,153,175)" stroke="rgb(184,153,175)" stroke-width="1.51"></path><path d="M232,447L320,487L342,405Z" fill="rgb(144,118,157)" stroke="rgb(144,118,157)" stroke-width="1.51"></path><path d="M177,249L207,347L245,294Z" fill="rgb(210,175,169)" stroke="rgb(210,175,169)" stroke-width="1.51"></path><path d="M217,200L177,249L245,294Z" fill="rgb(235,207,188)" stroke="rgb(235,207,188)" stroke-width="1.51"></path><path d="M254,135L210,144L236,189Z" fill="rgb(255,220,174)" stroke="rgb(255,220,174)" stroke-width="1.51"></path><path d="M254,135L309,137L242,32Z" fill="rgb(251,197,140)" stroke="rgb(251,197,140)" stroke-width="1.51"></path><path d="M428,422L491,450L516,351Z" fill="rgb(87,59,123)" stroke="rgb(87,59,123)" stroke-width="1.51"></path><path d="M633,363L622,281L578,291Z" fill="rgb(92,63,126)" stroke="rgb(92,63,126)" stroke-width="1.51"></path><path d="M394,506L491,450L428,422Z" fill="rgb(104,76,135)" stroke="rgb(104,76,135)" stroke-width="1.51"></path><path d="M93,207L177,249L217,200Z" fill="rgb(246,200,160)" stroke="rgb(246,200,160)" stroke-width="1.51"></path><path d="M491,450L541,425L516,351Z" fill="rgb(74,36,111)" stroke="rgb(74,36,111)" stroke-width="1.51"></path><path d="M578,291L622,281L560,189Z" fill="rgb(128,103,155)" stroke="rgb(128,103,155)" stroke-width="1.51"></path><path d="M633,363L578,291L535,339Z" fill="rgb(87,54,127)" stroke="rgb(87,54,127)" stroke-width="1.51"></path><path d="M342,405L394,506L428,422Z" fill="rgb(121,95,146)" stroke="rgb(121,95,146)" stroke-width="1.51"></path><path d="M232,447L342,405L292,369Z" fill="rgb(145,116,152)" stroke="rgb(145,116,152)" stroke-width="1.51"></path><path d="M320,487L394,506L342,405Z" fill="rgb(131,107,153)" stroke="rgb(131,107,153)" stroke-width="1.51"></path><path d="M491,450L519,485L541,425Z" fill="rgb(73,35,111)" stroke="rgb(73,35,111)" stroke-width="1.51"></path><path d="M207,347L232,447L292,369Z" fill="rgb(156,114,140)" stroke="rgb(156,114,140)" stroke-width="1.51"></path><path d="M155,417L232,447L207,347Z" fill="rgb(150,94,103)" stroke="rgb(150,94,103)" stroke-width="1.51"></path><path d="M551,33L518,19L468,146Z" fill="rgb(167,93,95)" stroke="rgb(167,93,95)" stroke-width="1.51"></path><path d="M622,281L650,186L560,189Z" fill="rgb(138,112,155)" stroke="rgb(138,112,155)" stroke-width="1.51"></path><path d="M541,425L633,363L535,339Z" fill="rgb(66,22,108)" stroke="rgb(66,22,108)" stroke-width="1.51"></path><path d="M622,281L698,294L650,186Z" fill="rgb(123,98,148)" stroke="rgb(123,98,148)" stroke-width="1.51"></path><path d="M551,33L468,146L566,152Z" fill="rgb(177,110,119)" stroke="rgb(177,110,119)" stroke-width="1.51"></path><path d="M541,425L644,397L633,363Z" fill="rgb(47,2,78)" stroke="rgb(47,2,78)" stroke-width="1.51"></path><path d="M394,506L519,485L491,450Z" fill="rgb(92,63,126)" stroke="rgb(92,63,126)" stroke-width="1.51"></path><path d="M605,47L551,33L566,152Z" fill="rgb(148,69,74)" stroke="rgb(148,69,74)" stroke-width="1.51"></path><path d="M242,32L366,77L268,-45Z" fill="rgb(209,156,121)" stroke="rgb(209,156,121)" stroke-width="1.51"></path><path d="M242,32L309,137L366,77Z" fill="rgb(245,188,140)" stroke="rgb(245,188,140)" stroke-width="1.51"></path><path d="M210,144L138,117L217,200Z" fill="rgb(255,204,140)" stroke="rgb(255,204,140)" stroke-width="1.51"></path><path d="M395,-45L366,77L418,48Z" fill="rgb(189,134,116)" stroke="rgb(189,134,116)" stroke-width="1.51"></path><path d="M518,19L467,-18L418,48Z" fill="rgb(154,98,97)" stroke="rgb(154,98,97)" stroke-width="1.51"></path><path d="M535,-51L467,-18L518,19Z" fill="rgb(128,69,84)" stroke="rgb(128,69,84)" stroke-width="1.51"></path><path d="M650,186L657,150L566,152Z" fill="rgb(148,108,131)" stroke="rgb(148,108,131)" stroke-width="1.51"></path><path d="M723,125L657,150L745,191Z" fill="rgb(149,105,124)" stroke="rgb(149,105,124)" stroke-width="1.51"></path><path d="M633,363L698,294L622,281Z" fill="rgb(91,63,125)" stroke="rgb(91,63,125)" stroke-width="1.51"></path><path d="M661,471L644,397L541,425Z" fill="rgb(45,0,75)" stroke="rgb(45,0,75)" stroke-width="1.51"></path><path d="M657,150L605,47L566,152Z" fill="rgb(149,86,90)" stroke="rgb(149,86,90)" stroke-width="1.51"></path><path d="M551,33L535,-51L518,19Z" fill="rgb(118,51,77)" stroke="rgb(118,51,77)" stroke-width="1.51"></path><path d="M90,368L155,417L207,347Z" fill="rgb(159,86,94)" stroke="rgb(159,86,94)" stroke-width="1.51"></path><path d="M218,52L138,117L210,144Z" fill="rgb(248,176,91)" stroke="rgb(248,176,91)" stroke-width="1.51"></path><path d="M124,63L138,117L218,52Z" fill="rgb(233,146,50)" stroke="rgb(233,146,50)" stroke-width="1.51"></path><path d="M232,447L264,519L320,487Z" fill="rgb(146,113,144)" stroke="rgb(146,113,144)" stroke-width="1.51"></path><path d="M92,305L207,347L177,249Z" fill="rgb(206,153,136)" stroke="rgb(206,153,136)" stroke-width="1.51"></path><path d="M467,-18L395,-45L418,48Z" fill="rgb(159,110,105)" stroke="rgb(159,110,105)" stroke-width="1.51"></path><path d="M169,530L264,519L232,447Z" fill="rgb(149,102,118)" stroke="rgb(149,102,118)" stroke-width="1.51"></path><path d="M320,487L264,519L394,506Z" fill="rgb(138,112,155)" stroke="rgb(138,112,155)" stroke-width="1.51"></path><path d="M691,371L698,294L633,363Z" fill="rgb(74,37,112)" stroke="rgb(74,37,112)" stroke-width="1.51"></path><path d="M138,117L93,207L217,200Z" fill="rgb(250,194,135)" stroke="rgb(250,194,135)" stroke-width="1.51"></path><path d="M395,-45L363,-57L366,77Z" fill="rgb(176,130,115)" stroke="rgb(176,130,115)" stroke-width="1.51"></path><path d="M93,207L92,305L177,249Z" fill="rgb(224,166,130)" stroke="rgb(224,166,130)" stroke-width="1.51"></path><path d="M519,485L563,514L541,425Z" fill="rgb(64,19,104)" stroke="rgb(64,19,104)" stroke-width="1.51"></path><path d="M394,506L563,514L519,485Z" fill="rgb(82,51,119)" stroke="rgb(82,51,119)" stroke-width="1.51"></path><path d="M264,519L563,514L394,506Z" fill="rgb(115,89,142)" stroke="rgb(115,89,142)" stroke-width="1.51"></path><path d="M644,397L691,371L633,363Z" fill="rgb(56,10,92)" stroke="rgb(56,10,92)" stroke-width="1.51"></path><path d="M713,401L691,371L644,397Z" fill="rgb(50,4,82)" stroke="rgb(50,4,82)" stroke-width="1.51"></path><path d="M242,32L174,-14L218,52Z" fill="rgb(207,139,76)" stroke="rgb(207,139,76)" stroke-width="1.51"></path><path d="M363,-57L268,-45L366,77Z" fill="rgb(186,142,120)" stroke="rgb(186,142,120)" stroke-width="1.51"></path><path d="M92,305L90,368L207,347Z" fill="rgb(177,106,104)" stroke="rgb(177,106,104)" stroke-width="1.51"></path><path d="M155,417L169,530L232,447Z" fill="rgb(150,90,96)" stroke="rgb(150,90,96)" stroke-width="1.51"></path><path d="M15,380L90,368L92,305Z" fill="rgb(150,72,86)" stroke="rgb(150,72,86)" stroke-width="1.51"></path><path d="M511,-102L384,-115L395,-45Z" fill="rgb(158,108,105)" stroke="rgb(158,108,105)" stroke-width="1.51"></path><path d="M384,-115L323,-103L363,-57Z" fill="rgb(181,136,118)" stroke="rgb(181,136,118)" stroke-width="1.51"></path><path d="M593,-85L535,-51L551,33Z" fill="rgb(108,41,67)" stroke="rgb(108,41,67)" stroke-width="1.51"></path><path d="M174,-14L124,63L218,52Z" fill="rgb(210,129,51)" stroke="rgb(210,129,51)" stroke-width="1.51"></path><path d="M13,92L16,212L93,207Z" fill="rgb(212,152,104)" stroke="rgb(212,152,104)" stroke-width="1.51"></path><path d="M563,514L661,471L541,425Z" fill="rgb(48,3,80)" stroke="rgb(48,3,80)" stroke-width="1.51"></path><path d="M268,-45L174,-14L242,32Z" fill="rgb(192,135,84)" stroke="rgb(192,135,84)" stroke-width="1.51"></path><path d="M605,47L593,-85L551,33Z" fill="rgb(99,34,56)" stroke="rgb(99,34,56)" stroke-width="1.51"></path><path d="M657,150L686,56L605,47Z" fill="rgb(139,65,66)" stroke="rgb(139,65,66)" stroke-width="1.51"></path><path d="M723,125L686,56L657,150Z" fill="rgb(148,82,85)" stroke="rgb(148,82,85)" stroke-width="1.51"></path><path d="M745,191L650,186L698,294Z" fill="rgb(136,111,154)" stroke="rgb(136,111,154)" stroke-width="1.51"></path><path d="M745,191L657,150L650,186Z" fill="rgb(147,112,140)" stroke="rgb(147,112,140)" stroke-width="1.51"></path><path d="M691,371L713,401L698,294Z" fill="rgb(67,24,107)" stroke="rgb(67,24,107)" stroke-width="1.51"></path><path d="M661,471L713,401L644,397Z" fill="rgb(45,0,75)" stroke="rgb(45,0,75)" stroke-width="1.51"></path><path d="M713,401L745,191L698,294Z" fill="rgb(102,74,133)" stroke="rgb(102,74,133)" stroke-width="1.51"></path><path d="M90,368L97,447L155,417Z" fill="rgb(136,60,62)" stroke="rgb(136,60,62)" stroke-width="1.51"></path><path d="M97,447L169,530L155,417Z" fill="rgb(142,71,72)" stroke="rgb(142,71,72)" stroke-width="1.51"></path><path d="M264,519L169,530L563,514Z" fill="rgb(136,111,155)" stroke="rgb(136,111,155)" stroke-width="1.51"></path><path d="M363,-57L323,-103L268,-45Z" fill="rgb(190,145,121)" stroke="rgb(190,145,121)" stroke-width="1.51"></path><path d="M268,-45L244,-93L174,-14Z" fill="rgb(192,135,85)" stroke="rgb(192,135,85)" stroke-width="1.51"></path><path d="M384,-115L363,-57L395,-45Z" fill="rgb(174,128,114)" stroke="rgb(174,128,114)" stroke-width="1.51"></path><path d="M511,-102L395,-45L467,-18Z" fill="rgb(147,96,97)" stroke="rgb(147,96,97)" stroke-width="1.51"></path><path d="M535,-51L511,-102L467,-18Z" fill="rgb(129,71,85)" stroke="rgb(129,71,85)" stroke-width="1.51"></path><path d="M593,-85L511,-102L535,-51Z" fill="rgb(114,45,73)" stroke="rgb(114,45,73)" stroke-width="1.51"></path><path d="M213,-124L244,-93L323,-103Z" fill="rgb(193,142,103)" stroke="rgb(193,142,103)" stroke-width="1.51"></path><path d="M323,-103L244,-93L268,-45Z" fill="rgb(194,145,112)" stroke="rgb(194,145,112)" stroke-width="1.51"></path><path d="M93,207L10,264L92,305Z" fill="rgb(202,143,119)" stroke="rgb(202,143,119)" stroke-width="1.51"></path><path d="M90,368L25,408L97,447Z" fill="rgb(121,45,55)" stroke="rgb(121,45,55)" stroke-width="1.51"></path><path d="M46,79L93,207L138,117Z" fill="rgb(231,154,75)" stroke="rgb(231,154,75)" stroke-width="1.51"></path><path d="M46,79L138,117L124,63Z" fill="rgb(220,128,27)" stroke="rgb(220,128,27)" stroke-width="1.51"></path><path d="M686,56L681,-9L605,47Z" fill="rgb(112,39,52)" stroke="rgb(112,39,52)" stroke-width="1.51"></path><path d="M723,125L681,-9L686,56Z" fill="rgb(126,50,57)" stroke="rgb(126,50,57)" stroke-width="1.51"></path><path d="M690,-96L681,-9L723,125Z" fill="rgb(96,31,49)" stroke="rgb(96,31,49)" stroke-width="1.51"></path><path d="M16,212L10,264L93,207Z" fill="rgb(203,151,123)" stroke="rgb(203,151,123)" stroke-width="1.51"></path><path d="M655,-49L593,-85L605,47Z" fill="rgb(92,28,48)" stroke="rgb(92,28,48)" stroke-width="1.51"></path><path d="M563,514L689,508L661,471Z" fill="rgb(45,0,75)" stroke="rgb(45,0,75)" stroke-width="1.51"></path><path d="M661,471L689,508L713,401Z" fill="rgb(45,0,75)" stroke="rgb(45,0,75)" stroke-width="1.51"></path><path d="M97,-8L124,63L174,-14Z" fill="rgb(186,104,23)" stroke="rgb(186,104,23)" stroke-width="1.51"></path><path d="M97,-8L46,79L124,63Z" fill="rgb(192,100,10)" stroke="rgb(192,100,10)" stroke-width="1.51"></path><path d="M681,-9L655,-49L605,47Z" fill="rgb(92,28,48)" stroke="rgb(92,28,48)" stroke-width="1.51"></path><path d="M67,-28L97,-8L108,-75Z" fill="rgb(164,83,11)" stroke="rgb(164,83,11)" stroke-width="1.51"></path><path d="M10,264L15,380L92,305Z" fill="rgb(157,98,96)" stroke="rgb(157,98,96)" stroke-width="1.51"></path><path d="M97,447L80,526L169,530Z" fill="rgb(136,60,62)" stroke="rgb(136,60,62)" stroke-width="1.51"></path><path d="M15,380L25,408L90,368Z" fill="rgb(119,45,62)" stroke="rgb(119,45,62)" stroke-width="1.51"></path><path d="M46,79L13,92L93,207Z" fill="rgb(213,136,62)" stroke="rgb(213,136,62)" stroke-width="1.51"></path><path d="M-51,217L-41,269L10,264Z" fill="rgb(175,130,115)" stroke="rgb(175,130,115)" stroke-width="1.51"></path><path d="M-26,0L13,92L46,79Z" fill="rgb(166,85,10)" stroke="rgb(166,85,10)" stroke-width="1.51"></path><path d="M384,-115L213,-124L323,-103Z" fill="rgb(193,148,122)" stroke="rgb(193,148,122)" stroke-width="1.51"></path><path d="M244,-93L213,-124L174,-14Z" fill="rgb(191,129,73)" stroke="rgb(191,129,73)" stroke-width="1.51"></path><path d="M593,-85L690,-96L511,-102Z" fill="rgb(93,29,49)" stroke="rgb(93,29,49)" stroke-width="1.51"></path><path d="M655,-49L652,-83L593,-85Z" fill="rgb(92,28,48)" stroke="rgb(92,28,48)" stroke-width="1.51"></path><path d="M690,-96L652,-83L655,-49Z" fill="rgb(92,28,48)" stroke="rgb(92,28,48)" stroke-width="1.51"></path><path d="M49,501L80,526L97,447Z" fill="rgb(122,47,56)" stroke="rgb(122,47,56)" stroke-width="1.51"></path><path d="M-48,473L49,501L25,408Z" fill="rgb(96,30,49)" stroke="rgb(96,30,49)" stroke-width="1.51"></path><path d="M25,408L49,501L97,447Z" fill="rgb(116,41,53)" stroke="rgb(116,41,53)" stroke-width="1.51"></path><path d="M108,-75L97,-8L174,-14Z" fill="rgb(176,96,19)" stroke="rgb(176,96,19)" stroke-width="1.51"></path><path d="M97,-8L67,-28L46,79Z" fill="rgb(165,82,8)" stroke="rgb(165,82,8)" stroke-width="1.51"></path><path d="M213,-124L108,-75L174,-14Z" fill="rgb(185,113,44)" stroke="rgb(185,113,44)" stroke-width="1.51"></path><path d="M15,380L-65,418L25,408Z" fill="rgb(92,28,48)" stroke="rgb(92,28,48)" stroke-width="1.51"></path><path d="M10,264L-33,338L15,380Z" fill="rgb(134,79,88)" stroke="rgb(134,79,88)" stroke-width="1.51"></path><path d="M-51,217L10,264L16,212Z" fill="rgb(183,138,119)" stroke="rgb(183,138,119)" stroke-width="1.51"></path><path d="M-41,269L-33,338L10,264Z" fill="rgb(156,106,103)" stroke="rgb(156,106,103)" stroke-width="1.51"></path><path d="M-41,93L-51,217L16,212Z" fill="rgb(193,142,103)" stroke="rgb(193,142,103)" stroke-width="1.51"></path><path d="M-98,332L-65,418L-33,338Z" fill="rgb(115,46,74)" stroke="rgb(115,46,74)" stroke-width="1.51"></path><path d="M-41,93L16,212L13,92Z" fill="rgb(191,125,65)" stroke="rgb(191,125,65)" stroke-width="1.51"></path><path d="M681,-9L690,-96L655,-49Z" fill="rgb(92,28,48)" stroke="rgb(92,28,48)" stroke-width="1.51"></path><path d="M652,-83L690,-96L593,-85Z" fill="rgb(92,28,48)" stroke="rgb(92,28,48)" stroke-width="1.51"></path><path d="M511,-102L690,-96L384,-115Z" fill="rgb(120,55,79)" stroke="rgb(120,55,79)" stroke-width="1.51"></path><path d="M745,191L690,-96L723,125Z" fill="rgb(135,59,61)" stroke="rgb(135,59,61)" stroke-width="1.51"></path><path d="M-26,0L46,79L67,-28Z" fill="rgb(150,72,8)" stroke="rgb(150,72,8)" stroke-width="1.51"></path><path d="M-26,0L-41,93L13,92Z" fill="rgb(164,84,11)" stroke="rgb(164,84,11)" stroke-width="1.51"></path><path d="M108,-75L63,-101L67,-28Z" fill="rgb(159,80,9)" stroke="rgb(159,80,9)" stroke-width="1.51"></path><path d="M213,-124L63,-101L108,-75Z" fill="rgb(176,97,20)" stroke="rgb(176,97,20)" stroke-width="1.51"></path><path d="M-98,332L-33,338L-41,269Z" fill="rgb(142,91,94)" stroke="rgb(142,91,94)" stroke-width="1.51"></path><path d="M-33,338L-65,418L15,380Z" fill="rgb(105,38,63)" stroke="rgb(105,38,63)" stroke-width="1.51"></path><path d="M49,501L-48,473L80,526Z" fill="rgb(103,34,51)" stroke="rgb(103,34,51)" stroke-width="1.51"></path><path d="M-48,-81L-26,0L67,-28Z" fill="rgb(127,59,8)" stroke="rgb(127,59,8)" stroke-width="1.51"></path><path d="M-65,418L-48,473L25,408Z" fill="rgb(92,28,48)" stroke="rgb(92,28,48)" stroke-width="1.51"></path><path d="M-65,418L-126,481L-48,473Z" fill="rgb(92,28,48)" stroke="rgb(92,28,48)" stroke-width="1.51"></path><path d="M-107,254L-98,332L-41,269Z" fill="rgb(159,110,105)" stroke="rgb(159,110,105)" stroke-width="1.51"></path><path d="M-107,254L-41,269L-51,217Z" fill="rgb(177,132,116)" stroke="rgb(177,132,116)" stroke-width="1.51"></path><path d="M-107,254L-51,217L-119,230Z" fill="rgb(182,138,118)" stroke="rgb(182,138,118)" stroke-width="1.51"></path><path d="M-119,230L-51,217L-130,132Z" fill="rgb(194,147,118)" stroke="rgb(194,147,118)" stroke-width="1.51"></path><path d="M-26,0L-65,36L-41,93Z" fill="rgb(154,75,8)" stroke="rgb(154,75,8)" stroke-width="1.51"></path><path d="M-98,-2L-65,36L-26,0Z" fill="rgb(134,63,8)" stroke="rgb(134,63,8)" stroke-width="1.51"></path><path d="M-130,132L-51,217L-41,93Z" fill="rgb(192,132,80)" stroke="rgb(192,132,80)" stroke-width="1.51"></path><path d="M-107,254L-119,230L-98,332Z" fill="rgb(166,117,109)" stroke="rgb(166,117,109)" stroke-width="1.51"></path><path d="M-65,36L-130,132L-41,93Z" fill="rgb(177,98,22)" stroke="rgb(177,98,22)" stroke-width="1.51"></path><path d="M63,-101L-48,-81L67,-28Z" fill="rgb(138,65,8)" stroke="rgb(138,65,8)" stroke-width="1.51"></path><path d="M-65,36L-139,34L-130,132Z" fill="rgb(168,87,12)" stroke="rgb(168,87,12)" stroke-width="1.51"></path><path d="M-88,-68L-98,-2L-26,0Z" fill="rgb(127,59,8)" stroke="rgb(127,59,8)" stroke-width="1.51"></path><path d="M-130,132L-135,428L-119,230Z" fill="rgb(169,122,111)" stroke="rgb(169,122,111)" stroke-width="1.51"></path><path d="M-119,230L-135,428L-98,332Z" fill="rgb(133,76,87)" stroke="rgb(133,76,87)" stroke-width="1.51"></path><path d="M-98,332L-135,428L-65,418Z" fill="rgb(97,32,53)" stroke="rgb(97,32,53)" stroke-width="1.51"></path><path d="M-135,428L-126,481L-65,418Z" fill="rgb(92,28,48)" stroke="rgb(92,28,48)" stroke-width="1.51"></path><path d="M-48,473L-126,481L80,526Z" fill="rgb(92,28,48)" stroke="rgb(92,28,48)" stroke-width="1.51"></path><path d="M-130,132L-139,34L-135,428Z" fill="rgb(194,149,121)" stroke="rgb(194,149,121)" stroke-width="1.51"></path><path d="M-98,-2L-139,34L-65,36Z" fill="rgb(141,67,8)" stroke="rgb(141,67,8)" stroke-width="1.51"></path><path d="M-88,-68L-139,34L-98,-2Z" fill="rgb(127,59,8)" stroke="rgb(127,59,8)" stroke-width="1.51"></path><path d="M-48,-81L-88,-68L-26,0Z" fill="rgb(127,59,8)" stroke="rgb(127,59,8)" stroke-width="1.51"></path></svg>