<svg width="600" height="400" xmlns="http://www.w3.org/2000/svg"><path d="M291,198L295,255L357,233Z" fill="rgb(98,187,108)" stroke="rgb(98,187,108)" stroke-width="1.51"></path><path d="M295,255L347,283L357,233Z" fill="rgb(79,175,98)" stroke="rgb(79,175,98)" stroke-width="1.51"></path><path d="M357,233L373,145L291,198Z" fill="rgb(107,191,114)" stroke="rgb(107,191,114)" stroke-width="1.51"></path><path d="M291,198L184,212L295,255Z" fill="rgb(119,197,123)" stroke="rgb(119,197,123)" stroke-width="1.51"></path><path d="M373,145L273,134L291,198Z" fill="rgb(131,203,131)" stroke="rgb(131,203,131)" stroke-width="1.51"></path><path d="M357,233L406,170L373,145Z" fill="rgb(100,186,111)" stroke="rgb(100,186,111)" stroke-width="1.51"></path><path d="M423,285L406,170L357,233Z" fill="rgb(73,171,94)" stroke="rgb(73,171,94)" stroke-width="1.51"></path><path d="M347,283L423,285L357,233Z" fill="rgb(60,165,89)" stroke="rgb(60,165,89)" stroke-width="1.51"></path><path d="M250,377L360,320L347,283Z" fill="rgb(66,156,83)" stroke="rgb(66,156,83)" stroke-width="1.51"></path><path d="M360,320L423,285L347,283Z" fill="rgb(51,156,81)" stroke="rgb(51,156,81)" stroke-width="1.51"></path><path d="M273,134L184,212L291,198Z" fill="rgb(140,207,137)" stroke="rgb(140,207,137)" stroke-width="1.51"></path><path d="M295,255L250,377L347,283Z" fill="rgb(78,166,92)" stroke="rgb(78,166,92)" stroke-width="1.51"></path><path d="M406,170L408,101L373,145Z" fill="rgb(117,191,124)" stroke="rgb(117,191,124)" stroke-width="1.51"></path><path d="M423,285L456,166L406,170Z" fill="rgb(79,170,95)" stroke="rgb(79,170,95)" stroke-width="1.51"></path><path d="M373,145L327,30L273,134Z" fill="rgb(151,210,150)" stroke="rgb(151,210,150)" stroke-width="1.51"></path><path d="M456,166L408,101L406,170Z" fill="rgb(109,184,117)" stroke="rgb(109,184,117)" stroke-width="1.51"></path><path d="M184,212L175,285L295,255Z" fill="rgb(118,195,125)" stroke="rgb(118,195,125)" stroke-width="1.51"></path><path d="M360,320L377,380L423,285Z" fill="rgb(41,144,72)" stroke="rgb(41,144,72)" stroke-width="1.51"></path><path d="M250,377L377,380L360,320Z" fill="rgb(56,142,73)" stroke="rgb(56,142,73)" stroke-width="1.51"></path><path d="M175,285L250,377L295,255Z" fill="rgb(97,174,106)" stroke="rgb(97,174,106)" stroke-width="1.51"></path><path d="M456,166L480,158L408,101Z" fill="rgb(107,180,114)" stroke="rgb(107,180,114)" stroke-width="1.51"></path><path d="M515,307L480,158L456,166Z" fill="rgb(68,157,85)" stroke="rgb(68,157,85)" stroke-width="1.51"></path><path d="M175,285L171,322L250,377Z" fill="rgb(103,172,110)" stroke="rgb(103,172,110)" stroke-width="1.51"></path><path d="M273,134L168,99L184,212Z" fill="rgb(166,220,159)" stroke="rgb(166,220,159)" stroke-width="1.51"></path><path d="M327,30L248,53L273,134Z" fill="rgb(172,221,168)" stroke="rgb(172,221,168)" stroke-width="1.51"></path><path d="M377,380L484,320L423,285Z" fill="rgb(32,135,65)" stroke="rgb(32,135,65)" stroke-width="1.51"></path><path d="M423,285L515,307L456,166Z" fill="rgb(47,151,78)" stroke="rgb(47,151,78)" stroke-width="1.51"></path><path d="M371,455L391,397L377,380Z" fill="rgb(32,117,58)" stroke="rgb(32,117,58)" stroke-width="1.51"></path><path d="M391,397L484,320L377,380Z" fill="rgb(27,124,59)" stroke="rgb(27,124,59)" stroke-width="1.51"></path><path d="M408,101L327,30L373,145Z" fill="rgb(141,204,145)" stroke="rgb(141,204,145)" stroke-width="1.51"></path><path d="M405,31L327,30L408,101Z" fill="rgb(150,207,155)" stroke="rgb(150,207,155)" stroke-width="1.51"></path><path d="M248,53L168,99L273,134Z" fill="rgb(180,225,174)" stroke="rgb(180,225,174)" stroke-width="1.51"></path><path d="M184,212L123,178L175,285Z" fill="rgb(145,207,145)" stroke="rgb(145,207,145)" stroke-width="1.51"></path><path d="M175,285L127,332L171,322Z" fill="rgb(118,180,123)" stroke="rgb(118,180,123)" stroke-width="1.51"></path><path d="M141,115L123,178L184,212Z" fill="rgb(172,221,166)" stroke="rgb(172,221,166)" stroke-width="1.51"></path><path d="M250,377L255,416L377,380Z" fill="rgb(63,134,73)" stroke="rgb(63,134,73)" stroke-width="1.51"></path><path d="M198,432L255,416L250,377Z" fill="rgb(80,138,85)" stroke="rgb(80,138,85)" stroke-width="1.51"></path><path d="M168,99L141,115L184,212Z" fill="rgb(180,225,173)" stroke="rgb(180,225,173)" stroke-width="1.51"></path><path d="M248,53L166,85L168,99Z" fill="rgb(195,231,187)" stroke="rgb(195,231,187)" stroke-width="1.51"></path><path d="M166,85L141,115L168,99Z" fill="rgb(197,232,190)" stroke="rgb(197,232,190)" stroke-width="1.51"></path><path d="M469,35L405,31L408,101Z" fill="rgb(141,196,146)" stroke="rgb(141,196,146)" stroke-width="1.51"></path><path d="M484,320L515,307L423,285Z" fill="rgb(30,133,64)" stroke="rgb(30,133,64)" stroke-width="1.51"></path><path d="M556,334L515,307L484,320Z" fill="rgb(14,119,52)" stroke="rgb(14,119,52)" stroke-width="1.51"></path><path d="M77,293L127,332L175,285Z" fill="rgb(127,187,132)" stroke="rgb(127,187,132)" stroke-width="1.51"></path><path d="M171,322L198,432L250,377Z" fill="rgb(92,151,96)" stroke="rgb(92,151,96)" stroke-width="1.51"></path><path d="M327,30L239,10L248,53Z" fill="rgb(186,226,181)" stroke="rgb(186,226,181)" stroke-width="1.51"></path><path d="M248,53L239,10L166,85Z" fill="rgb(197,232,191)" stroke="rgb(197,232,191)" stroke-width="1.51"></path><path d="M381,1L324,-2L327,30Z" fill="rgb(169,216,171)" stroke="rgb(169,216,171)" stroke-width="1.51"></path><path d="M324,-2L239,10L327,30Z" fill="rgb(182,224,179)" stroke="rgb(182,224,179)" stroke-width="1.51"></path><path d="M405,31L381,1L327,30Z" fill="rgb(159,211,163)" stroke="rgb(159,211,163)" stroke-width="1.51"></path><path d="M515,307L549,181L480,158Z" fill="rgb(60,150,78)" stroke="rgb(60,150,78)" stroke-width="1.51"></path><path d="M480,158L469,35L408,101Z" fill="rgb(123,185,129)" stroke="rgb(123,185,129)" stroke-width="1.51"></path><path d="M405,31L496,-15L381,1Z" fill="rgb(151,200,157)" stroke="rgb(151,200,157)" stroke-width="1.51"></path><path d="M512,404L556,334L484,320Z" fill="rgb(2,109,45)" stroke="rgb(2,109,45)" stroke-width="1.51"></path><path d="M255,416L371,455L377,380Z" fill="rgb(48,124,65)" stroke="rgb(48,124,65)" stroke-width="1.51"></path><path d="M128,420L198,432L171,322Z" fill="rgb(99,149,102)" stroke="rgb(99,149,102)" stroke-width="1.51"></path><path d="M255,416L307,507L371,455Z" fill="rgb(56,127,68)" stroke="rgb(56,127,68)" stroke-width="1.51"></path><path d="M575,146L469,35L480,158Z" fill="rgb(109,171,114)" stroke="rgb(109,171,114)" stroke-width="1.51"></path><path d="M127,332L128,420L171,322Z" fill="rgb(111,166,115)" stroke="rgb(111,166,115)" stroke-width="1.51"></path><path d="M123,178L77,293L175,285Z" fill="rgb(141,204,146)" stroke="rgb(141,204,146)" stroke-width="1.51"></path><path d="M43,226L77,293L123,178Z" fill="rgb(159,212,160)" stroke="rgb(159,212,160)" stroke-width="1.51"></path><path d="M515,307L581,267L549,181Z" fill="rgb(36,132,65)" stroke="rgb(36,132,65)" stroke-width="1.51"></path><path d="M512,404L484,320L391,397Z" fill="rgb(15,111,50)" stroke="rgb(15,111,50)" stroke-width="1.51"></path><path d="M402,481L512,404L391,397Z" fill="rgb(20,105,50)" stroke="rgb(20,105,50)" stroke-width="1.51"></path><path d="M556,334L581,267L515,307Z" fill="rgb(18,116,53)" stroke="rgb(18,116,53)" stroke-width="1.51"></path><path d="M603,225L575,146L549,181Z" fill="rgb(70,140,79)" stroke="rgb(70,140,79)" stroke-width="1.51"></path><path d="M549,181L575,146L480,158Z" fill="rgb(85,157,92)" stroke="rgb(85,157,92)" stroke-width="1.51"></path><path d="M371,455L402,481L391,397Z" fill="rgb(30,115,57)" stroke="rgb(30,115,57)" stroke-width="1.51"></path><path d="M307,507L402,481L371,455Z" fill="rgb(39,120,61)" stroke="rgb(39,120,61)" stroke-width="1.51"></path><path d="M256,516L307,507L255,416Z" fill="rgb(69,133,76)" stroke="rgb(69,133,76)" stroke-width="1.51"></path><path d="M45,349L128,420L127,332Z" fill="rgb(118,166,121)" stroke="rgb(118,166,121)" stroke-width="1.51"></path><path d="M77,293L45,349L127,332Z" fill="rgb(131,183,136)" stroke="rgb(131,183,136)" stroke-width="1.51"></path><path d="M44,98L43,226L123,178Z" fill="rgb(189,228,183)" stroke="rgb(189,228,183)" stroke-width="1.51"></path><path d="M44,98L123,178L141,115Z" fill="rgb(197,232,190)" stroke="rgb(197,232,190)" stroke-width="1.51"></path><path d="M256,516L255,416L211,510Z" fill="rgb(78,137,84)" stroke="rgb(78,137,84)" stroke-width="1.51"></path><path d="M581,267L603,225L549,181Z" fill="rgb(50,130,67)" stroke="rgb(50,130,67)" stroke-width="1.51"></path><path d="M607,300L603,225L581,267Z" fill="rgb(29,114,56)" stroke="rgb(29,114,56)" stroke-width="1.51"></path><path d="M166,85L79,37L141,115Z" fill="rgb(210,237,203)" stroke="rgb(210,237,203)" stroke-width="1.51"></path><path d="M239,10L129,3L166,85Z" fill="rgb(210,237,204)" stroke="rgb(210,237,204)" stroke-width="1.51"></path><path d="M196,-50L129,3L239,10Z" fill="rgb(214,239,209)" stroke="rgb(214,239,209)" stroke-width="1.51"></path><path d="M324,-2L271,-68L239,10Z" fill="rgb(190,227,186)" stroke="rgb(190,227,186)" stroke-width="1.51"></path><path d="M337,-125L271,-68L324,-2Z" fill="rgb(180,222,178)" stroke="rgb(180,222,178)" stroke-width="1.51"></path><path d="M337,-125L324,-2L381,1Z" fill="rgb(169,217,172)" stroke="rgb(169,217,172)" stroke-width="1.51"></path><path d="M556,334L607,300L581,267Z" fill="rgb(17,108,49)" stroke="rgb(17,108,49)" stroke-width="1.51"></path><path d="M640,322L607,300L556,334Z" fill="rgb(10,97,43)" stroke="rgb(10,97,43)" stroke-width="1.51"></path><path d="M469,35L496,-15L405,31Z" fill="rgb(144,193,149)" stroke="rgb(144,193,149)" stroke-width="1.51"></path><path d="M593,44L496,-15L469,35Z" fill="rgb(133,179,137)" stroke="rgb(133,179,137)" stroke-width="1.51"></path><path d="M211,510L255,416L198,432Z" fill="rgb(84,140,88)" stroke="rgb(84,140,88)" stroke-width="1.51"></path><path d="M271,-68L196,-50L239,10Z" fill="rgb(202,233,197)" stroke="rgb(202,233,197)" stroke-width="1.51"></path><path d="M18,247L45,349L77,293Z" fill="rgb(143,194,149)" stroke="rgb(143,194,149)" stroke-width="1.51"></path><path d="M43,226L18,247L77,293Z" fill="rgb(154,208,159)" stroke="rgb(154,208,159)" stroke-width="1.51"></path><path d="M-22,221L18,247L43,226Z" fill="rgb(168,216,170)" stroke="rgb(168,216,170)" stroke-width="1.51"></path><path d="M71,47L44,98L141,115Z" fill="rgb(216,240,210)" stroke="rgb(216,240,210)" stroke-width="1.51"></path><path d="M129,3L79,37L166,85Z" fill="rgb(221,242,215)" stroke="rgb(221,242,215)" stroke-width="1.51"></path><path d="M12,-6L79,37L129,3Z" fill="rgb(236,248,232)" stroke="rgb(236,248,232)" stroke-width="1.51"></path><path d="M123,474L211,510L198,432Z" fill="rgb(95,144,98)" stroke="rgb(95,144,98)" stroke-width="1.51"></path><path d="M123,474L198,432L128,420Z" fill="rgb(102,147,104)" stroke="rgb(102,147,104)" stroke-width="1.51"></path><path d="M79,37L71,47L141,115Z" fill="rgb(220,241,214)" stroke="rgb(220,241,214)" stroke-width="1.51"></path><path d="M33,412L123,474L128,420Z" fill="rgb(112,151,115)" stroke="rgb(112,151,115)" stroke-width="1.51"></path><path d="M512,404L581,408L556,334Z" fill="rgb(0,88,35)" stroke="rgb(0,88,35)" stroke-width="1.51"></path><path d="M558,495L581,408L512,404Z" fill="rgb(0,81,32)" stroke="rgb(0,81,32)" stroke-width="1.51"></path><path d="M575,146L593,44L469,35Z" fill="rgb(116,166,119)" stroke="rgb(116,166,119)" stroke-width="1.51"></path><path d="M647,133L593,44L575,146Z" fill="rgb(99,146,101)" stroke="rgb(99,146,101)" stroke-width="1.51"></path><path d="M496,-15L441,-85L381,1Z" fill="rgb(150,197,155)" stroke="rgb(150,197,155)" stroke-width="1.51"></path><path d="M476,-128L441,-85L496,-15Z" fill="rgb(144,191,150)" stroke="rgb(144,191,150)" stroke-width="1.51"></path><path d="M581,408L640,322L556,334Z" fill="rgb(0,88,35)" stroke="rgb(0,88,35)" stroke-width="1.51"></path><path d="M607,300L685,240L603,225Z" fill="rgb(31,116,58)" stroke="rgb(31,116,58)" stroke-width="1.51"></path><path d="M603,225L647,133L575,146Z" fill="rgb(75,135,81)" stroke="rgb(75,135,81)" stroke-width="1.51"></path><path d="M402,481L479,523L512,404Z" fill="rgb(14,100,45)" stroke="rgb(14,100,45)" stroke-width="1.51"></path><path d="M307,507L479,523L402,481Z" fill="rgb(28,113,55)" stroke="rgb(28,113,55)" stroke-width="1.51"></path><path d="M256,516L479,523L307,507Z" fill="rgb(44,122,63)" stroke="rgb(44,122,63)" stroke-width="1.51"></path><path d="M687,225L647,133L603,225Z" fill="rgb(63,130,72)" stroke="rgb(63,130,72)" stroke-width="1.51"></path><path d="M-33,126L-22,221L43,226Z" fill="rgb(187,226,184)" stroke="rgb(187,226,184)" stroke-width="1.51"></path><path d="M18,247L-27,255L45,349Z" fill="rgb(150,200,157)" stroke="rgb(150,200,157)" stroke-width="1.51"></path><path d="M-33,126L43,226L44,98Z" fill="rgb(203,234,197)" stroke="rgb(203,234,197)" stroke-width="1.51"></path><path d="M-46,396L33,412L45,349Z" fill="rgb(126,162,130)" stroke="rgb(126,162,130)" stroke-width="1.51"></path><path d="M45,349L33,412L128,420Z" fill="rgb(119,156,121)" stroke="rgb(119,156,121)" stroke-width="1.51"></path><path d="M-22,221L-27,255L18,247Z" fill="rgb(165,214,169)" stroke="rgb(165,214,169)" stroke-width="1.51"></path><path d="M271,-68L160,-122L196,-50Z" fill="rgb(208,236,204)" stroke="rgb(208,236,204)" stroke-width="1.51"></path><path d="M441,-85L337,-125L381,1Z" fill="rgb(159,210,165)" stroke="rgb(159,210,165)" stroke-width="1.51"></path><path d="M479,523L558,495L512,404Z" fill="rgb(2,90,37)" stroke="rgb(2,90,37)" stroke-width="1.51"></path><path d="M581,408L656,447L640,322Z" fill="rgb(0,71,28)" stroke="rgb(0,71,28)" stroke-width="1.51"></path><path d="M-22,221L-89,188L-27,255Z" fill="rgb(174,219,175)" stroke="rgb(174,219,175)" stroke-width="1.51"></path><path d="M-52,27L-33,126L44,98Z" fill="rgb(228,245,223)" stroke="rgb(228,245,223)" stroke-width="1.51"></path><path d="M12,-6L44,98L71,47Z" fill="rgb(234,247,229)" stroke="rgb(234,247,229)" stroke-width="1.51"></path><path d="M726,372L685,240L640,322Z" fill="rgb(13,99,44)" stroke="rgb(13,99,44)" stroke-width="1.51"></path><path d="M640,322L685,240L607,300Z" fill="rgb(21,106,50)" stroke="rgb(21,106,50)" stroke-width="1.51"></path><path d="M639,-35L582,-32L593,44Z" fill="rgb(125,156,128)" stroke="rgb(125,156,128)" stroke-width="1.51"></path><path d="M593,44L582,-32L496,-15Z" fill="rgb(131,169,135)" stroke="rgb(131,169,135)" stroke-width="1.51"></path><path d="M441,-85L476,-128L337,-125Z" fill="rgb(154,203,159)" stroke="rgb(154,203,159)" stroke-width="1.51"></path><path d="M685,240L687,225L603,225Z" fill="rgb(45,122,63)" stroke="rgb(45,122,63)" stroke-width="1.51"></path><path d="M647,133L659,27L593,44Z" fill="rgb(111,151,113)" stroke="rgb(111,151,113)" stroke-width="1.51"></path><path d="M79,37L12,-6L71,47Z" fill="rgb(236,248,232)" stroke="rgb(236,248,232)" stroke-width="1.51"></path><path d="M196,-50L137,-125L129,3Z" fill="rgb(222,242,217)" stroke="rgb(222,242,217)" stroke-width="1.51"></path><path d="M337,-125L160,-122L271,-68Z" fill="rgb(196,230,192)" stroke="rgb(196,230,192)" stroke-width="1.51"></path><path d="M57,-119L12,-6L129,3Z" fill="rgb(239,249,236)" stroke="rgb(239,249,236)" stroke-width="1.51"></path><path d="M595,-90L476,-128L496,-15Z" fill="rgb(136,180,140)" stroke="rgb(136,180,140)" stroke-width="1.51"></path><path d="M337,-125L137,-125L160,-122Z" fill="rgb(208,236,203)" stroke="rgb(208,236,203)" stroke-width="1.51"></path><path d="M582,-32L595,-90L496,-15Z" fill="rgb(131,169,134)" stroke="rgb(131,169,134)" stroke-width="1.51"></path><path d="M703,63L659,27L647,133Z" fill="rgb(109,150,111)" stroke="rgb(109,150,111)" stroke-width="1.51"></path><path d="M160,-122L137,-125L196,-50Z" fill="rgb(220,241,215)" stroke="rgb(220,241,215)" stroke-width="1.51"></path><path d="M476,-128L137,-125L337,-125Z" fill="rgb(178,222,177)" stroke="rgb(178,222,177)" stroke-width="1.51"></path><path d="M-27,255L-56,354L45,349Z" fill="rgb(143,189,148)" stroke="rgb(143,189,148)" stroke-width="1.51"></path><path d="M33,412L11,524L123,474Z" fill="rgb(119,154,121)" stroke="rgb(119,154,121)" stroke-width="1.51"></path><path d="M-96,302L-56,354L-27,255Z" fill="rgb(147,194,153)" stroke="rgb(147,194,153)" stroke-width="1.51"></path><path d="M-56,354L-46,396L45,349Z" fill="rgb(132,172,136)" stroke="rgb(132,172,136)" stroke-width="1.51"></path><path d="M633,480L656,447L581,408Z" fill="rgb(0,68,27)" stroke="rgb(0,68,27)" stroke-width="1.51"></path><path d="M558,495L633,480L581,408Z" fill="rgb(0,70,28)" stroke="rgb(0,70,28)" stroke-width="1.51"></path><path d="M479,523L633,480L558,495Z" fill="rgb(0,79,32)" stroke="rgb(0,79,32)" stroke-width="1.51"></path><path d="M-33,126L-89,188L-22,221Z" fill="rgb(193,229,189)" stroke="rgb(193,229,189)" stroke-width="1.51"></path><path d="M-118,125L-89,188L-33,126Z" fill="rgb(206,235,201)" stroke="rgb(206,235,201)" stroke-width="1.51"></path><path d="M659,27L639,-35L593,44Z" fill="rgb(123,155,126)" stroke="rgb(123,155,126)" stroke-width="1.51"></path><path d="M659,27L735,-21L639,-35Z" fill="rgb(125,156,128)" stroke="rgb(125,156,128)" stroke-width="1.51"></path><path d="M735,124L703,63L647,133Z" fill="rgb(99,146,102)" stroke="rgb(99,146,102)" stroke-width="1.51"></path><path d="M639,-35L595,-90L582,-32Z" fill="rgb(125,156,128)" stroke="rgb(125,156,128)" stroke-width="1.51"></path><path d="M12,-6L-52,27L44,98Z" fill="rgb(240,249,236)" stroke="rgb(240,249,236)" stroke-width="1.51"></path><path d="M57,-119L-13,-33L12,-6Z" fill="rgb(245,251,242)" stroke="rgb(245,251,242)" stroke-width="1.51"></path><path d="M-13,-33L-52,27L12,-6Z" fill="rgb(247,252,245)" stroke="rgb(247,252,245)" stroke-width="1.51"></path><path d="M-56,354L-88,447L-46,396Z" fill="rgb(125,157,128)" stroke="rgb(125,157,128)" stroke-width="1.51"></path><path d="M-89,188L-96,302L-27,255Z" fill="rgb(162,213,168)" stroke="rgb(162,213,168)" stroke-width="1.51"></path><path d="M726,372L687,225L685,240Z" fill="rgb(24,109,52)" stroke="rgb(24,109,52)" stroke-width="1.51"></path><path d="M726,372L735,124L687,225Z" fill="rgb(39,120,61)" stroke="rgb(39,120,61)" stroke-width="1.51"></path><path d="M687,225L735,124L647,133Z" fill="rgb(78,137,84)" stroke="rgb(78,137,84)" stroke-width="1.51"></path><path d="M-49,512L33,412L-46,396Z" fill="rgb(125,156,128)" stroke="rgb(125,156,128)" stroke-width="1.51"></path><path d="M-49,512L11,524L33,412Z" fill="rgb(125,156,128)" stroke="rgb(125,156,128)" stroke-width="1.51"></path><path d="M123,474L11,524L211,510Z" fill="rgb(108,150,111)" stroke="rgb(108,150,111)" stroke-width="1.51"></path><path d="M211,510L11,524L256,516Z" fill="rgb(99,146,102)" stroke="rgb(99,146,102)" stroke-width="1.51"></path><path d="M256,516L11,524L479,523Z" fill="rgb(76,136,82)" stroke="rgb(76,136,82)" stroke-width="1.51"></path><path d="M137,-125L57,-119L129,3Z" fill="rgb(232,246,227)" stroke="rgb(232,246,227)" stroke-width="1.51"></path><path d="M656,447L726,372L640,322Z" fill="rgb(0,76,30)" stroke="rgb(0,76,30)" stroke-width="1.51"></path><path d="M702,466L726,372L656,447Z" fill="rgb(0,68,27)" stroke="rgb(0,68,27)" stroke-width="1.51"></path><path d="M-89,188L-141,316L-96,302Z" fill="rgb(156,206,162)" stroke="rgb(156,206,162)" stroke-width="1.51"></path><path d="M-52,27L-118,125L-33,126Z" fill="rgb(225,244,221)" stroke="rgb(225,244,221)" stroke-width="1.51"></path><path d="M-138,74L-118,125L-52,27Z" fill="rgb(231,246,226)" stroke="rgb(231,246,226)" stroke-width="1.51"></path><path d="M735,-21L659,27L703,63Z" fill="rgb(121,155,124)" stroke="rgb(121,155,124)" stroke-width="1.51"></path><path d="M735,-21L646,-83L639,-35Z" fill="rgb(125,156,128)" stroke="rgb(125,156,128)" stroke-width="1.51"></path><path d="M639,-35L646,-83L595,-90Z" fill="rgb(125,156,128)" stroke="rgb(125,156,128)" stroke-width="1.51"></path><path d="M595,-90L731,-135L476,-128Z" fill="rgb(125,156,128)" stroke="rgb(125,156,128)" stroke-width="1.51"></path><path d="M633,480L702,466L656,447Z" fill="rgb(0,68,27)" stroke="rgb(0,68,27)" stroke-width="1.51"></path><path d="M479,523L702,466L633,480Z" fill="rgb(0,68,27)" stroke="rgb(0,68,27)" stroke-width="1.51"></path><path d="M-141,316L-88,447L-56,354Z" fill="rgb(131,169,134)" stroke="rgb(131,169,134)" stroke-width="1.51"></path><path d="M-141,316L-56,354L-96,302Z" fill="rgb(142,187,147)" stroke="rgb(142,187,147)" stroke-width="1.51"></path><path d="M-88,447L-49,512L-46,396Z" fill="rgb(125,156,128)" stroke="rgb(125,156,128)" stroke-width="1.51"></path><path d="M-118,125L-141,316L-89,188Z" fill="rgb(179,222,178)" stroke="rgb(179,222,178)" stroke-width="1.51"></path><path d="M-13,-33L-82,-83L-52,27Z" fill="rgb(247,252,245)" stroke="rgb(247,252,245)" stroke-width="1.51"></path><path d="M57,-119L-6,-125L-13,-33Z" fill="rgb(246,252,243)" stroke="rgb(246,252,243)" stroke-width="1.51"></path><path d="M137,-125L-6,-125L57,-119Z" fill="rgb(240,249,236)" stroke="rgb(240,249,236)" stroke-width="1.51"></path><path d="M731,-135L-6,-125L137,-125Z" fill="rgb(187,226,184)" stroke="rgb(187,226,184)" stroke-width="1.51"></path><path d="M702,466L739,454L726,372Z" fill="rgb(0,68,27)" stroke="rgb(0,68,27)" stroke-width="1.51"></path><path d="M726,372L739,454L735,124Z" fill="rgb(11,98,44)" stroke="rgb(11,98,44)" stroke-width="1.51"></path><path d="M-118,125L-138,74L-141,316Z" fill="rgb(195,230,191)" stroke="rgb(195,230,191)" stroke-width="1.51"></path><path d="M-141,-32L-138,74L-52,27Z" fill="rgb(243,251,240)" stroke="rgb(243,251,240)" stroke-width="1.51"></path><path d="M735,124L735,-21L703,63Z" fill="rgb(115,152,117)" stroke="rgb(115,152,117)" stroke-width="1.51"></path><path d="M739,454L735,-21L735,124Z" fill="rgb(67,132,75)" stroke="rgb(67,132,75)" stroke-width="1.51"></path><path d="M-6,-125L-82,-83L-13,-33Z" fill="rgb(247,252,245)" stroke="rgb(247,252,245)" stroke-width="1.51"></path><path d="M-141,316L-110,499L-88,447Z" fill="rgb(125,156,128)" stroke="rgb(125,156,128)" stroke-width="1.51"></path><path d="M-88,447L-110,499L-49,512Z" fill="rgb(125,156,128)" stroke="rgb(125,156,128)" stroke-width="1.51"></path><path d="M-138,74L-141,-32L-141,316Z" fill="rgb(216,240,211)" stroke="rgb(216,240,211)" stroke-width="1.51"></path><path d="M-82,-83L-141,-32L-52,27Z" fill="rgb(247,252,245)" stroke="rgb(247,252,245)" stroke-width="1.51"></path><path d="M735,-21L731,-135L646,-83Z" fill="rgb(125,156,128)" stroke="rgb(125,156,128)" stroke-width="1.51"></path><path d="M646,-83L731,-135L595,-90Z" fill="rgb(125,156,128)" stroke="rgb(125,156,128)" stroke-width="1.51"></path><path d="M476,-128L731,-135L137,-125Z" fill="rgb(148,196,154)" stroke="rgb(148,196,154)" stroke-width="1.51"></path></svg>