<svg width="600" height="400" xmlns="http://www.w3.org/2000/svg"><path d="M264,200L268,137L195,185Z" fill="rgb(252,132,100)" stroke="rgb(252,132,100)" stroke-width="1.51"></path><path d="M268,137L183,136L195,185Z" fill="rgb(252,148,116)" stroke="rgb(252,148,116)" stroke-width="1.51"></path><path d="M268,137L254,64L183,136Z" fill="rgb(253,159,129)" stroke="rgb(253,159,129)" stroke-width="1.51"></path><path d="M264,200L334,208L268,137Z" fill="rgb(252,117,84)" stroke="rgb(252,117,84)" stroke-width="1.51"></path><path d="M268,137L331,115L254,64Z" fill="rgb(254,150,118)" stroke="rgb(254,150,118)" stroke-width="1.51"></path><path d="M334,208L331,115L268,137Z" fill="rgb(251,122,90)" stroke="rgb(251,122,90)" stroke-width="1.51"></path><path d="M195,185L193,272L264,200Z" fill="rgb(251,122,90)" stroke="rgb(251,122,90)" stroke-width="1.51"></path><path d="M264,200L269,281L334,208Z" fill="rgb(248,97,68)" stroke="rgb(248,97,68)" stroke-width="1.51"></path><path d="M105,214L193,272L195,185Z" fill="rgb(252,135,105)" stroke="rgb(252,135,105)" stroke-width="1.51"></path><path d="M183,136L125,127L195,185Z" fill="rgb(253,162,132)" stroke="rgb(253,162,132)" stroke-width="1.51"></path><path d="M174,54L125,127L183,136Z" fill="rgb(252,181,155)" stroke="rgb(252,181,155)" stroke-width="1.51"></path><path d="M193,272L269,281L264,200Z" fill="rgb(246,102,74)" stroke="rgb(246,102,74)" stroke-width="1.51"></path><path d="M254,64L174,54L183,136Z" fill="rgb(254,178,151)" stroke="rgb(254,178,151)" stroke-width="1.51"></path><path d="M125,127L105,214L195,185Z" fill="rgb(254,159,129)" stroke="rgb(254,159,129)" stroke-width="1.51"></path><path d="M331,115L340,64L254,64Z" fill="rgb(255,153,124)" stroke="rgb(255,153,124)" stroke-width="1.51"></path><path d="M254,64L266,-11L174,54Z" fill="rgb(255,187,164)" stroke="rgb(255,187,164)" stroke-width="1.51"></path><path d="M403,61L340,64L331,115Z" fill="rgb(253,142,114)" stroke="rgb(253,142,114)" stroke-width="1.51"></path><path d="M334,208L397,191L331,115Z" fill="rgb(248,104,74)" stroke="rgb(248,104,74)" stroke-width="1.51"></path><path d="M269,281L346,277L334,208Z" fill="rgb(242,78,54)" stroke="rgb(242,78,54)" stroke-width="1.51"></path><path d="M174,54L117,62L125,127Z" fill="rgb(253,197,173)" stroke="rgb(253,197,173)" stroke-width="1.51"></path><path d="M125,127L31,187L105,214Z" fill="rgb(255,173,146)" stroke="rgb(255,173,146)" stroke-width="1.51"></path><path d="M346,277L397,191L334,208Z" fill="rgb(244,78,54)" stroke="rgb(244,78,54)" stroke-width="1.51"></path><path d="M189,358L274,347L269,281Z" fill="rgb(217,85,63)" stroke="rgb(217,85,63)" stroke-width="1.51"></path><path d="M105,214L114,286L193,272Z" fill="rgb(249,131,104)" stroke="rgb(249,131,104)" stroke-width="1.51"></path><path d="M340,64L266,-11L254,64Z" fill="rgb(255,173,147)" stroke="rgb(255,173,147)" stroke-width="1.51"></path><path d="M174,54L125,-13L117,62Z" fill="rgb(255,212,193)" stroke="rgb(255,212,193)" stroke-width="1.51"></path><path d="M269,281L274,347L346,277Z" fill="rgb(227,72,52)" stroke="rgb(227,72,52)" stroke-width="1.51"></path><path d="M189,358L269,281L193,272Z" fill="rgb(228,96,72)" stroke="rgb(228,96,72)" stroke-width="1.51"></path><path d="M397,191L418,126L331,115Z" fill="rgb(246,109,81)" stroke="rgb(246,109,81)" stroke-width="1.51"></path><path d="M340,64L329,-38L266,-11Z" fill="rgb(255,174,150)" stroke="rgb(255,174,150)" stroke-width="1.51"></path><path d="M114,286L189,358L193,272Z" fill="rgb(230,112,87)" stroke="rgb(230,112,87)" stroke-width="1.51"></path><path d="M418,126L403,61L331,115Z" fill="rgb(248,128,99)" stroke="rgb(248,128,99)" stroke-width="1.51"></path><path d="M346,277L411,272L397,191Z" fill="rgb(237,59,44)" stroke="rgb(237,59,44)" stroke-width="1.51"></path><path d="M397,191L474,212L418,126Z" fill="rgb(233,86,62)" stroke="rgb(233,86,62)" stroke-width="1.51"></path><path d="M351,342L411,272L346,277Z" fill="rgb(222,47,38)" stroke="rgb(222,47,38)" stroke-width="1.51"></path><path d="M105,214L33,275L114,286Z" fill="rgb(252,145,119)" stroke="rgb(252,145,119)" stroke-width="1.51"></path><path d="M32,134L31,187L125,127Z" fill="rgb(255,187,164)" stroke="rgb(255,187,164)" stroke-width="1.51"></path><path d="M117,62L32,134L125,127Z" fill="rgb(254,199,176)" stroke="rgb(254,199,176)" stroke-width="1.51"></path><path d="M266,-11L180,-33L174,54Z" fill="rgb(255,200,180)" stroke="rgb(255,200,180)" stroke-width="1.51"></path><path d="M117,62L33,46L32,134Z" fill="rgb(254,214,198)" stroke="rgb(254,214,198)" stroke-width="1.51"></path><path d="M274,347L351,342L346,277Z" fill="rgb(216,61,44)" stroke="rgb(216,61,44)" stroke-width="1.51"></path><path d="M337,437L351,342L274,347Z" fill="rgb(189,54,41)" stroke="rgb(189,54,41)" stroke-width="1.51"></path><path d="M180,-33L125,-13L174,54Z" fill="rgb(255,213,196)" stroke="rgb(255,213,196)" stroke-width="1.51"></path><path d="M266,-11L202,-104L180,-33Z" fill="rgb(255,198,179)" stroke="rgb(255,198,179)" stroke-width="1.51"></path><path d="M409,-16L329,-38L340,64Z" fill="rgb(255,163,140)" stroke="rgb(255,163,140)" stroke-width="1.51"></path><path d="M31,187L33,275L105,214Z" fill="rgb(255,161,135)" stroke="rgb(255,161,135)" stroke-width="1.51"></path><path d="M114,286L106,362L189,358Z" fill="rgb(219,116,93)" stroke="rgb(219,116,93)" stroke-width="1.51"></path><path d="M44,364L106,362L114,286Z" fill="rgb(221,128,107)" stroke="rgb(221,128,107)" stroke-width="1.51"></path><path d="M125,-13L33,46L117,62Z" fill="rgb(255,224,210)" stroke="rgb(255,224,210)" stroke-width="1.51"></path><path d="M32,134L-52,187L31,187Z" fill="rgb(255,188,167)" stroke="rgb(255,188,167)" stroke-width="1.51"></path><path d="M478,39L409,-16L403,61Z" fill="rgb(245,144,123)" stroke="rgb(245,144,123)" stroke-width="1.51"></path><path d="M411,272L474,212L397,191Z" fill="rgb(230,62,46)" stroke="rgb(230,62,46)" stroke-width="1.51"></path><path d="M500,263L474,212L411,272Z" fill="rgb(218,43,36)" stroke="rgb(218,43,36)" stroke-width="1.51"></path><path d="M403,61L409,-16L340,64Z" fill="rgb(254,151,126)" stroke="rgb(254,151,126)" stroke-width="1.51"></path><path d="M478,39L403,61L418,126Z" fill="rgb(239,129,105)" stroke="rgb(239,129,105)" stroke-width="1.51"></path><path d="M189,358L251,420L274,347Z" fill="rgb(192,79,60)" stroke="rgb(192,79,60)" stroke-width="1.51"></path><path d="M186,416L251,420L189,358Z" fill="rgb(178,82,65)" stroke="rgb(178,82,65)" stroke-width="1.51"></path><path d="M106,362L186,416L189,358Z" fill="rgb(192,100,81)" stroke="rgb(192,100,81)" stroke-width="1.51"></path><path d="M351,342L410,358L411,272Z" fill="rgb(208,38,33)" stroke="rgb(208,38,33)" stroke-width="1.51"></path><path d="M412,418L410,358L351,342Z" fill="rgb(182,30,29)" stroke="rgb(182,30,29)" stroke-width="1.51"></path><path d="M474,212L498,128L418,126Z" fill="rgb(225,91,68)" stroke="rgb(225,91,68)" stroke-width="1.51"></path><path d="M33,46L-29,111L32,134Z" fill="rgb(255,215,199)" stroke="rgb(255,215,199)" stroke-width="1.51"></path><path d="M31,187L-32,268L33,275Z" fill="rgb(255,161,138)" stroke="rgb(255,161,138)" stroke-width="1.51"></path><path d="M180,-33L118,-111L125,-13Z" fill="rgb(255,218,203)" stroke="rgb(255,218,203)" stroke-width="1.51"></path><path d="M125,-13L32,-18L33,46Z" fill="rgb(255,235,226)" stroke="rgb(255,235,226)" stroke-width="1.51"></path><path d="M269,-110L202,-104L266,-11Z" fill="rgb(255,191,170)" stroke="rgb(255,191,170)" stroke-width="1.51"></path><path d="M269,-110L266,-11L329,-38Z" fill="rgb(255,181,157)" stroke="rgb(255,181,157)" stroke-width="1.51"></path><path d="M498,128L478,39L418,126Z" fill="rgb(228,117,92)" stroke="rgb(228,117,92)" stroke-width="1.51"></path><path d="M33,46L-45,50L-29,111Z" fill="rgb(255,227,215)" stroke="rgb(255,227,215)" stroke-width="1.51"></path><path d="M45,-108L32,-18L125,-13Z" fill="rgb(255,235,226)" stroke="rgb(255,235,226)" stroke-width="1.51"></path><path d="M106,362L98,427L186,416Z" fill="rgb(179,103,87)" stroke="rgb(179,103,87)" stroke-width="1.51"></path><path d="M33,275L44,364L114,286Z" fill="rgb(235,137,116)" stroke="rgb(235,137,116)" stroke-width="1.51"></path><path d="M-35,353L44,364L33,275Z" fill="rgb(228,140,123)" stroke="rgb(228,140,123)" stroke-width="1.51"></path><path d="M351,-99L269,-110L329,-38Z" fill="rgb(255,174,151)" stroke="rgb(255,174,151)" stroke-width="1.51"></path><path d="M486,344L500,263L411,272Z" fill="rgb(201,26,29)" stroke="rgb(201,26,29)" stroke-width="1.51"></path><path d="M569,205L556,124L498,128Z" fill="rgb(202,85,64)" stroke="rgb(202,85,64)" stroke-width="1.51"></path><path d="M-52,187L-32,268L31,187Z" fill="rgb(255,173,150)" stroke="rgb(255,173,150)" stroke-width="1.51"></path><path d="M-29,111L-52,187L32,134Z" fill="rgb(255,198,179)" stroke="rgb(255,198,179)" stroke-width="1.51"></path><path d="M251,420L337,437L274,347Z" fill="rgb(175,60,45)" stroke="rgb(175,60,45)" stroke-width="1.51"></path><path d="M410,358L486,344L411,272Z" fill="rgb(197,26,28)" stroke="rgb(197,26,28)" stroke-width="1.51"></path><path d="M256,514L337,437L251,420Z" fill="rgb(175,62,47)" stroke="rgb(175,62,47)" stroke-width="1.51"></path><path d="M413,-114L351,-99L409,-16Z" fill="rgb(255,157,136)" stroke="rgb(255,157,136)" stroke-width="1.51"></path><path d="M409,-16L351,-99L329,-38Z" fill="rgb(255,163,141)" stroke="rgb(255,163,141)" stroke-width="1.51"></path><path d="M44,364L98,427L106,362Z" fill="rgb(193,118,103)" stroke="rgb(193,118,103)" stroke-width="1.51"></path><path d="M189,514L256,514L251,420Z" fill="rgb(176,75,59)" stroke="rgb(176,75,59)" stroke-width="1.51"></path><path d="M269,-110L118,-111L202,-104Z" fill="rgb(255,204,185)" stroke="rgb(255,204,185)" stroke-width="1.51"></path><path d="M202,-104L118,-111L180,-33Z" fill="rgb(255,211,194)" stroke="rgb(255,211,194)" stroke-width="1.51"></path><path d="M-29,111L-117,111L-52,187Z" fill="rgb(255,201,182)" stroke="rgb(255,201,182)" stroke-width="1.51"></path><path d="M-32,-26L-45,50L33,46Z" fill="rgb(255,240,233)" stroke="rgb(255,240,233)" stroke-width="1.51"></path><path d="M-32,-26L33,46L32,-18Z" fill="rgb(255,243,238)" stroke="rgb(255,243,238)" stroke-width="1.51"></path><path d="M412,418L486,344L410,358Z" fill="rgb(172,19,25)" stroke="rgb(172,19,25)" stroke-width="1.51"></path><path d="M337,437L412,418L351,342Z" fill="rgb(169,33,30)" stroke="rgb(169,33,30)" stroke-width="1.51"></path><path d="M478,39L484,-38L409,-16Z" fill="rgb(239,146,128)" stroke="rgb(239,146,128)" stroke-width="1.51"></path><path d="M563,-37L484,-38L478,39Z" fill="rgb(225,141,124)" stroke="rgb(225,141,124)" stroke-width="1.51"></path><path d="M498,128L575,59L478,39Z" fill="rgb(217,120,99)" stroke="rgb(217,120,99)" stroke-width="1.51"></path><path d="M569,205L498,128L474,212Z" fill="rgb(212,75,54)" stroke="rgb(212,75,54)" stroke-width="1.51"></path><path d="M569,205L474,212L500,263Z" fill="rgb(207,53,39)" stroke="rgb(207,53,39)" stroke-width="1.51"></path><path d="M44,364L45,436L98,427Z" fill="rgb(183,118,106)" stroke="rgb(183,118,106)" stroke-width="1.51"></path><path d="M-32,268L-35,353L33,275Z" fill="rgb(242,147,129)" stroke="rgb(242,147,129)" stroke-width="1.51"></path><path d="M-100,337L-35,353L-32,268Z" fill="rgb(233,144,127)" stroke="rgb(233,144,127)" stroke-width="1.51"></path><path d="M-37,-99L-32,-26L32,-18Z" fill="rgb(255,245,240)" stroke="rgb(255,245,240)" stroke-width="1.51"></path><path d="M-35,422L45,436L44,364Z" fill="rgb(184,123,114)" stroke="rgb(184,123,114)" stroke-width="1.51"></path><path d="M189,514L251,420L186,416Z" fill="rgb(177,82,65)" stroke="rgb(177,82,65)" stroke-width="1.51"></path><path d="M269,-110L413,-114L118,-111Z" fill="rgb(255,186,164)" stroke="rgb(255,186,164)" stroke-width="1.51"></path><path d="M351,-99L413,-114L269,-110Z" fill="rgb(255,167,144)" stroke="rgb(255,167,144)" stroke-width="1.51"></path><path d="M477,-95L413,-114L409,-16Z" fill="rgb(245,150,131)" stroke="rgb(245,150,131)" stroke-width="1.51"></path><path d="M118,-111L45,-108L125,-13Z" fill="rgb(255,229,218)" stroke="rgb(255,229,218)" stroke-width="1.51"></path><path d="M486,344L549,283L500,263Z" fill="rgb(188,22,26)" stroke="rgb(188,22,26)" stroke-width="1.51"></path><path d="M575,345L549,283L486,344Z" fill="rgb(170,16,22)" stroke="rgb(170,16,22)" stroke-width="1.51"></path><path d="M549,283L569,205L500,263Z" fill="rgb(195,37,32)" stroke="rgb(195,37,32)" stroke-width="1.51"></path><path d="M189,514L186,416L101,503Z" fill="rgb(178,95,79)" stroke="rgb(178,95,79)" stroke-width="1.51"></path><path d="M337,437L419,512L412,418Z" fill="rgb(165,26,27)" stroke="rgb(165,26,27)" stroke-width="1.51"></path><path d="M412,418L495,429L486,344Z" fill="rgb(150,10,21)" stroke="rgb(150,10,21)" stroke-width="1.51"></path><path d="M256,514L336,502L337,437Z" fill="rgb(174,53,40)" stroke="rgb(174,53,40)" stroke-width="1.51"></path><path d="M101,503L186,416L98,427Z" fill="rgb(179,103,88)" stroke="rgb(179,103,88)" stroke-width="1.51"></path><path d="M484,-38L477,-95L409,-16Z" fill="rgb(240,146,128)" stroke="rgb(240,146,128)" stroke-width="1.51"></path><path d="M555,-98L477,-95L484,-38Z" fill="rgb(226,141,125)" stroke="rgb(226,141,125)" stroke-width="1.51"></path><path d="M640,111L575,59L556,124Z" fill="rgb(183,100,83)" stroke="rgb(183,100,83)" stroke-width="1.51"></path><path d="M556,124L575,59L498,128Z" fill="rgb(204,106,84)" stroke="rgb(204,106,84)" stroke-width="1.51"></path><path d="M-45,50L-117,111L-29,111Z" fill="rgb(255,219,205)" stroke="rgb(255,219,205)" stroke-width="1.51"></path><path d="M-52,187L-121,208L-32,268Z" fill="rgb(255,170,147)" stroke="rgb(255,170,147)" stroke-width="1.51"></path><path d="M-124,35L-117,111L-45,50Z" fill="rgb(255,229,217)" stroke="rgb(255,229,217)" stroke-width="1.51"></path><path d="M-117,111L-121,208L-52,187Z" fill="rgb(255,189,168)" stroke="rgb(255,189,168)" stroke-width="1.51"></path><path d="M45,436L101,503L98,427Z" fill="rgb(182,114,102)" stroke="rgb(182,114,102)" stroke-width="1.51"></path><path d="M41,503L101,503L45,436Z" fill="rgb(183,118,106)" stroke="rgb(183,118,106)" stroke-width="1.51"></path><path d="M489,493L495,429L412,418Z" fill="rgb(148,9,21)" stroke="rgb(148,9,21)" stroke-width="1.51"></path><path d="M-35,353L-35,422L44,364Z" fill="rgb(200,131,119)" stroke="rgb(200,131,119)" stroke-width="1.51"></path><path d="M-103,422L-35,422L-35,353Z" fill="rgb(186,126,117)" stroke="rgb(186,126,117)" stroke-width="1.51"></path><path d="M-123,288L-100,337L-32,268Z" fill="rgb(242,147,129)" stroke="rgb(242,147,129)" stroke-width="1.51"></path><path d="M-121,208L-123,288L-32,268Z" fill="rgb(255,159,137)" stroke="rgb(255,159,137)" stroke-width="1.51"></path><path d="M-108,-23L-124,35L-45,50Z" fill="rgb(255,240,234)" stroke="rgb(255,240,234)" stroke-width="1.51"></path><path d="M45,-108L-37,-99L32,-18Z" fill="rgb(255,243,237)" stroke="rgb(255,243,237)" stroke-width="1.51"></path><path d="M-117,111L-124,35L-121,208Z" fill="rgb(255,208,191)" stroke="rgb(255,208,191)" stroke-width="1.51"></path><path d="M-121,208L-124,35L-123,288Z" fill="rgb(255,186,164)" stroke="rgb(255,186,164)" stroke-width="1.51"></path><path d="M-108,-23L-45,50L-32,-26Z" fill="rgb(255,245,240)" stroke="rgb(255,245,240)" stroke-width="1.51"></path><path d="M495,429L575,345L486,344Z" fill="rgb(152,11,20)" stroke="rgb(152,11,20)" stroke-width="1.51"></path><path d="M648,287L634,187L569,205Z" fill="rgb(171,43,35)" stroke="rgb(171,43,35)" stroke-width="1.51"></path><path d="M569,205L634,187L556,124Z" fill="rgb(181,70,53)" stroke="rgb(181,70,53)" stroke-width="1.51"></path><path d="M575,59L563,-37L478,39Z" fill="rgb(213,132,117)" stroke="rgb(213,132,117)" stroke-width="1.51"></path><path d="M-23,503L41,503L45,436Z" fill="rgb(184,123,113)" stroke="rgb(184,123,113)" stroke-width="1.51"></path><path d="M101,503L41,503L189,514Z" fill="rgb(181,108,93)" stroke="rgb(181,108,93)" stroke-width="1.51"></path><path d="M336,502L419,512L337,437Z" fill="rgb(169,34,30)" stroke="rgb(169,34,30)" stroke-width="1.51"></path><path d="M573,433L625,348L575,345Z" fill="rgb(121,3,16)" stroke="rgb(121,3,16)" stroke-width="1.51"></path><path d="M256,514L419,512L336,502Z" fill="rgb(171,44,35)" stroke="rgb(171,44,35)" stroke-width="1.51"></path><path d="M-37,-99L-108,-23L-32,-26Z" fill="rgb(255,245,240)" stroke="rgb(255,245,240)" stroke-width="1.51"></path><path d="M648,287L569,205L549,283Z" fill="rgb(171,28,28)" stroke="rgb(171,28,28)" stroke-width="1.51"></path><path d="M575,59L636,-11L563,-37Z" fill="rgb(189,126,117)" stroke="rgb(189,126,117)" stroke-width="1.51"></path><path d="M634,187L640,111L556,124Z" fill="rgb(176,81,65)" stroke="rgb(176,81,65)" stroke-width="1.51"></path><path d="M419,512L489,493L412,418Z" fill="rgb(154,13,22)" stroke="rgb(154,13,22)" stroke-width="1.51"></path><path d="M636,-90L555,-98L563,-37Z" fill="rgb(192,128,118)" stroke="rgb(192,128,118)" stroke-width="1.51"></path><path d="M563,-37L555,-98L484,-38Z" fill="rgb(216,138,122)" stroke="rgb(216,138,122)" stroke-width="1.51"></path><path d="M477,-95L555,-98L413,-114Z" fill="rgb(233,144,126)" stroke="rgb(233,144,126)" stroke-width="1.51"></path><path d="M-35,422L-23,503L45,436Z" fill="rgb(185,126,117)" stroke="rgb(185,126,117)" stroke-width="1.51"></path><path d="M-100,337L-103,422L-35,353Z" fill="rgb(206,134,120)" stroke="rgb(206,134,120)" stroke-width="1.51"></path><path d="M-123,288L-103,422L-100,337Z" fill="rgb(221,139,123)" stroke="rgb(221,139,123)" stroke-width="1.51"></path><path d="M-112,494L-23,503L-35,422Z" fill="rgb(185,126,117)" stroke="rgb(185,126,117)" stroke-width="1.51"></path><path d="M41,503L-23,503L189,514Z" fill="rgb(182,117,104)" stroke="rgb(182,117,104)" stroke-width="1.51"></path><path d="M575,345L648,287L549,283Z" fill="rgb(153,10,21)" stroke="rgb(153,10,21)" stroke-width="1.51"></path><path d="M634,187L705,191L640,111Z" fill="rgb(176,72,55)" stroke="rgb(176,72,55)" stroke-width="1.51"></path><path d="M573,433L575,345L495,429Z" fill="rgb(124,4,17)" stroke="rgb(124,4,17)" stroke-width="1.51"></path><path d="M625,348L648,287L575,345Z" fill="rgb(142,7,20)" stroke="rgb(142,7,20)" stroke-width="1.51"></path><path d="M555,497L573,433L495,429Z" fill="rgb(127,4,17)" stroke="rgb(127,4,17)" stroke-width="1.51"></path><path d="M697,35L652,53L721,113Z" fill="rgb(181,109,96)" stroke="rgb(181,109,96)" stroke-width="1.51"></path><path d="M640,111L652,53L575,59Z" fill="rgb(181,107,93)" stroke="rgb(181,107,93)" stroke-width="1.51"></path><path d="M652,53L636,-11L575,59Z" fill="rgb(183,119,108)" stroke="rgb(183,119,108)" stroke-width="1.51"></path><path d="M-37,-99L-119,-105L-108,-23Z" fill="rgb(255,245,240)" stroke="rgb(255,245,240)" stroke-width="1.51"></path><path d="M-108,-23L-119,-105L-124,35Z" fill="rgb(255,245,240)" stroke="rgb(255,245,240)" stroke-width="1.51"></path><path d="M45,-108L-119,-105L-37,-99Z" fill="rgb(255,245,240)" stroke="rgb(255,245,240)" stroke-width="1.51"></path><path d="M118,-111L-119,-105L45,-108Z" fill="rgb(255,243,237)" stroke="rgb(255,243,237)" stroke-width="1.51"></path><path d="M419,512L555,497L489,493Z" fill="rgb(142,7,20)" stroke="rgb(142,7,20)" stroke-width="1.51"></path><path d="M489,493L555,497L495,429Z" fill="rgb(136,6,18)" stroke="rgb(136,6,18)" stroke-width="1.51"></path><path d="M573,433L638,434L625,348Z" fill="rgb(103,0,13)" stroke="rgb(103,0,13)" stroke-width="1.51"></path><path d="M713,265L648,287L711,352Z" fill="rgb(151,10,21)" stroke="rgb(151,10,21)" stroke-width="1.51"></path><path d="M713,265L634,187L648,287Z" fill="rgb(169,32,29)" stroke="rgb(169,32,29)" stroke-width="1.51"></path><path d="M713,265L705,191L634,187Z" fill="rgb(173,49,38)" stroke="rgb(173,49,38)" stroke-width="1.51"></path><path d="M702,-11L636,-90L636,-11Z" fill="rgb(185,126,117)" stroke="rgb(185,126,117)" stroke-width="1.51"></path><path d="M697,35L636,-11L652,53Z" fill="rgb(184,120,110)" stroke="rgb(184,120,110)" stroke-width="1.51"></path><path d="M636,-11L636,-90L563,-37Z" fill="rgb(185,126,117)" stroke="rgb(185,126,117)" stroke-width="1.51"></path><path d="M555,-98L719,-111L413,-114Z" fill="rgb(203,132,120)" stroke="rgb(203,132,120)" stroke-width="1.51"></path><path d="M-103,422L-112,494L-35,422Z" fill="rgb(185,126,117)" stroke="rgb(185,126,117)" stroke-width="1.51"></path><path d="M-123,288L-112,494L-103,422Z" fill="rgb(185,126,117)" stroke="rgb(185,126,117)" stroke-width="1.51"></path><path d="M721,113L652,53L640,111Z" fill="rgb(179,101,85)" stroke="rgb(179,101,85)" stroke-width="1.51"></path><path d="M555,497L638,434L573,433Z" fill="rgb(107,0,14)" stroke="rgb(107,0,14)" stroke-width="1.51"></path><path d="M705,191L721,113L640,111Z" fill="rgb(177,82,65)" stroke="rgb(177,82,65)" stroke-width="1.51"></path><path d="M711,352L648,287L625,348Z" fill="rgb(141,7,19)" stroke="rgb(141,7,19)" stroke-width="1.51"></path><path d="M713,265L721,113L705,191Z" fill="rgb(175,61,46)" stroke="rgb(175,61,46)" stroke-width="1.51"></path><path d="M697,35L702,-11L636,-11Z" fill="rgb(185,125,115)" stroke="rgb(185,125,115)" stroke-width="1.51"></path><path d="M721,113L702,-11L697,35Z" fill="rgb(183,117,105)" stroke="rgb(183,117,105)" stroke-width="1.51"></path><path d="M638,434L711,352L625,348Z" fill="rgb(116,2,15)" stroke="rgb(116,2,15)" stroke-width="1.51"></path><path d="M713,265L719,425L721,113Z" fill="rgb(162,24,26)" stroke="rgb(162,24,26)" stroke-width="1.51"></path><path d="M638,434L719,425L711,352Z" fill="rgb(103,0,13)" stroke="rgb(103,0,13)" stroke-width="1.51"></path><path d="M555,497L650,508L638,434Z" fill="rgb(103,0,13)" stroke="rgb(103,0,13)" stroke-width="1.51"></path><path d="M419,512L650,508L555,497Z" fill="rgb(127,4,17)" stroke="rgb(127,4,17)" stroke-width="1.51"></path><path d="M709,494L719,425L638,434Z" fill="rgb(103,0,13)" stroke="rgb(103,0,13)" stroke-width="1.51"></path><path d="M711,352L719,425L713,265Z" fill="rgb(134,6,18)" stroke="rgb(134,6,18)" stroke-width="1.51"></path><path d="M702,-11L719,-111L636,-90Z" fill="rgb(185,126,117)" stroke="rgb(185,126,117)" stroke-width="1.51"></path><path d="M636,-90L719,-111L555,-98Z" fill="rgb(185,126,117)" stroke="rgb(185,126,117)" stroke-width="1.51"></path><path d="M721,113L719,-111L702,-11Z" fill="rgb(185,126,117)" stroke="rgb(185,126,117)" stroke-width="1.51"></path><path d="M650,508L709,494L638,434Z" fill="rgb(103,0,13)" stroke="rgb(103,0,13)" stroke-width="1.51"></path></svg>