<svg width="600" height="400" xmlns="http://www.w3.org/2000/svg"><path d="M267,205L175,202L251,267Z" fill="rgb(133,202,123)" stroke="rgb(133,202,123)" stroke-width="1.51"></path><path d="M175,202L200,281L251,267Z" fill="rgb(128,198,120)" stroke="rgb(128,198,120)" stroke-width="1.51"></path><path d="M267,205L183,127L175,202Z" fill="rgb(164,217,138)" stroke="rgb(164,217,138)" stroke-width="1.51"></path><path d="M175,202L118,264L200,281Z" fill="rgb(142,204,126)" stroke="rgb(142,204,126)" stroke-width="1.51"></path><path d="M110,208L118,264L175,202Z" fill="rgb(161,214,137)" stroke="rgb(161,214,137)" stroke-width="1.51"></path><path d="M109,119L110,208L175,202Z" fill="rgb(185,226,149)" stroke="rgb(185,226,149)" stroke-width="1.51"></path><path d="M267,205L274,127L183,127Z" fill="rgb(166,218,139)" stroke="rgb(166,218,139)" stroke-width="1.51"></path><path d="M267,205L331,190L274,127Z" fill="rgb(138,206,128)" stroke="rgb(138,206,128)" stroke-width="1.51"></path><path d="M344,282L331,190L267,205Z" fill="rgb(102,188,111)" stroke="rgb(102,188,111)" stroke-width="1.51"></path><path d="M251,267L344,282L267,205Z" fill="rgb(98,186,108)" stroke="rgb(98,186,108)" stroke-width="1.51"></path><path d="M200,281L252,341L251,267Z" fill="rgb(106,176,103)" stroke="rgb(106,176,103)" stroke-width="1.51"></path><path d="M175,352L252,341L200,281Z" fill="rgb(107,170,102)" stroke="rgb(107,170,102)" stroke-width="1.51"></path><path d="M118,264L175,352L200,281Z" fill="rgb(128,184,112)" stroke="rgb(128,184,112)" stroke-width="1.51"></path><path d="M252,341L344,282L251,267Z" fill="rgb(88,169,97)" stroke="rgb(88,169,97)" stroke-width="1.51"></path><path d="M183,127L109,119L175,202Z" fill="rgb(194,230,151)" stroke="rgb(194,230,151)" stroke-width="1.51"></path><path d="M123,63L109,119L183,127Z" fill="rgb(218,241,164)" stroke="rgb(218,241,164)" stroke-width="1.51"></path><path d="M265,425L337,342L252,341Z" fill="rgb(72,145,86)" stroke="rgb(72,145,86)" stroke-width="1.51"></path><path d="M252,341L337,342L344,282Z" fill="rgb(71,156,89)" stroke="rgb(71,156,89)" stroke-width="1.51"></path><path d="M331,190L346,115L274,127Z" fill="rgb(144,208,129)" stroke="rgb(144,208,129)" stroke-width="1.51"></path><path d="M274,127L193,53L183,127Z" fill="rgb(197,231,153)" stroke="rgb(197,231,153)" stroke-width="1.51"></path><path d="M404,202L346,115L331,190Z" fill="rgb(117,194,116)" stroke="rgb(117,194,116)" stroke-width="1.51"></path><path d="M258,46L193,53L274,127Z" fill="rgb(197,231,155)" stroke="rgb(197,231,155)" stroke-width="1.51"></path><path d="M118,264L105,360L175,352Z" fill="rgb(129,179,112)" stroke="rgb(129,179,112)" stroke-width="1.51"></path><path d="M197,433L265,425L252,341Z" fill="rgb(85,140,87)" stroke="rgb(85,140,87)" stroke-width="1.51"></path><path d="M31,286L105,360L118,264Z" fill="rgb(144,189,122)" stroke="rgb(144,189,122)" stroke-width="1.51"></path><path d="M31,286L118,264L110,208Z" fill="rgb(158,210,136)" stroke="rgb(158,210,136)" stroke-width="1.51"></path><path d="M109,119L41,188L110,208Z" fill="rgb(197,231,157)" stroke="rgb(197,231,157)" stroke-width="1.51"></path><path d="M334,55L258,46L274,127Z" fill="rgb(180,224,149)" stroke="rgb(180,224,149)" stroke-width="1.51"></path><path d="M344,282L404,202L331,190Z" fill="rgb(86,181,103)" stroke="rgb(86,181,103)" stroke-width="1.51"></path><path d="M410,262L404,202L344,282Z" fill="rgb(64,168,91)" stroke="rgb(64,168,91)" stroke-width="1.51"></path><path d="M109,119L41,115L41,188Z" fill="rgb(215,239,169)" stroke="rgb(215,239,169)" stroke-width="1.51"></path><path d="M193,53L123,63L183,127Z" fill="rgb(218,241,164)" stroke="rgb(218,241,164)" stroke-width="1.51"></path><path d="M413,360L410,262L344,282Z" fill="rgb(47,147,77)" stroke="rgb(47,147,77)" stroke-width="1.51"></path><path d="M41,188L31,286L110,208Z" fill="rgb(173,218,149)" stroke="rgb(173,218,149)" stroke-width="1.51"></path><path d="M197,433L252,341L175,352Z" fill="rgb(98,153,95)" stroke="rgb(98,153,95)" stroke-width="1.51"></path><path d="M337,342L413,360L344,282Z" fill="rgb(48,145,78)" stroke="rgb(48,145,78)" stroke-width="1.51"></path><path d="M407,58L334,55L346,115Z" fill="rgb(157,211,135)" stroke="rgb(157,211,135)" stroke-width="1.51"></path><path d="M346,115L334,55L274,127Z" fill="rgb(165,216,138)" stroke="rgb(165,216,138)" stroke-width="1.51"></path><path d="M111,416L197,433L175,352Z" fill="rgb(108,149,97)" stroke="rgb(108,149,97)" stroke-width="1.51"></path><path d="M42,61L41,115L109,119Z" fill="rgb(233,246,177)" stroke="rgb(233,246,177)" stroke-width="1.51"></path><path d="M41,188L-26,189L31,286Z" fill="rgb(178,221,163)" stroke="rgb(178,221,163)" stroke-width="1.51"></path><path d="M105,360L111,416L175,352Z" fill="rgb(119,161,105)" stroke="rgb(119,161,105)" stroke-width="1.51"></path><path d="M31,286L46,353L105,360Z" fill="rgb(139,182,123)" stroke="rgb(139,182,123)" stroke-width="1.51"></path><path d="M44,423L111,416L105,360Z" fill="rgb(123,155,107)" stroke="rgb(123,155,107)" stroke-width="1.51"></path><path d="M404,202L418,119L346,115Z" fill="rgb(122,193,115)" stroke="rgb(122,193,115)" stroke-width="1.51"></path><path d="M491,202L418,119L404,202Z" fill="rgb(97,174,101)" stroke="rgb(97,174,101)" stroke-width="1.51"></path><path d="M265,425L327,431L337,342Z" fill="rgb(59,129,77)" stroke="rgb(59,129,77)" stroke-width="1.51"></path><path d="M250,501L327,431L265,425Z" fill="rgb(70,133,82)" stroke="rgb(70,133,82)" stroke-width="1.51"></path><path d="M404,425L413,360L337,342Z" fill="rgb(33,125,68)" stroke="rgb(33,125,68)" stroke-width="1.51"></path><path d="M410,262L491,202L404,202Z" fill="rgb(70,163,90)" stroke="rgb(70,163,90)" stroke-width="1.51"></path><path d="M123,63L42,61L109,119Z" fill="rgb(234,247,175)" stroke="rgb(234,247,175)" stroke-width="1.51"></path><path d="M41,115L-26,189L41,188Z" fill="rgb(206,235,177)" stroke="rgb(206,235,177)" stroke-width="1.51"></path><path d="M119,-19L42,61L123,63Z" fill="rgb(245,251,189)" stroke="rgb(245,251,189)" stroke-width="1.51"></path><path d="M119,-19L123,63L193,53Z" fill="rgb(235,247,182)" stroke="rgb(235,247,182)" stroke-width="1.51"></path><path d="M-41,119L-26,189L41,115Z" fill="rgb(218,240,187)" stroke="rgb(218,240,187)" stroke-width="1.51"></path><path d="M-32,349L44,423L46,353Z" fill="rgb(133,167,128)" stroke="rgb(133,167,128)" stroke-width="1.51"></path><path d="M418,119L407,58L346,115Z" fill="rgb(144,202,125)" stroke="rgb(144,202,125)" stroke-width="1.51"></path><path d="M256,-38L193,53L258,46Z" fill="rgb(209,236,175)" stroke="rgb(209,236,175)" stroke-width="1.51"></path><path d="M256,-38L176,-30L193,53Z" fill="rgb(219,240,188)" stroke="rgb(219,240,188)" stroke-width="1.51"></path><path d="M331,-16L258,46L334,55Z" fill="rgb(185,224,160)" stroke="rgb(185,224,160)" stroke-width="1.51"></path><path d="M46,353L44,423L105,360Z" fill="rgb(130,165,115)" stroke="rgb(130,165,115)" stroke-width="1.51"></path><path d="M124,510L197,494L197,433Z" fill="rgb(105,148,96)" stroke="rgb(105,148,96)" stroke-width="1.51"></path><path d="M-32,349L46,353L31,286Z" fill="rgb(143,183,136)" stroke="rgb(143,183,136)" stroke-width="1.51"></path><path d="M176,-30L119,-19L193,53Z" fill="rgb(233,246,193)" stroke="rgb(233,246,193)" stroke-width="1.51"></path><path d="M407,58L331,-16L334,55Z" fill="rgb(168,215,149)" stroke="rgb(168,215,149)" stroke-width="1.51"></path><path d="M331,-16L256,-38L258,46Z" fill="rgb(195,230,177)" stroke="rgb(195,230,177)" stroke-width="1.51"></path><path d="M197,433L250,501L265,425Z" fill="rgb(86,140,88)" stroke="rgb(86,140,88)" stroke-width="1.51"></path><path d="M124,510L197,433L111,416Z" fill="rgb(112,151,99)" stroke="rgb(112,151,99)" stroke-width="1.51"></path><path d="M409,492L404,425L327,431Z" fill="rgb(32,117,65)" stroke="rgb(32,117,65)" stroke-width="1.51"></path><path d="M327,431L404,425L337,342Z" fill="rgb(42,121,70)" stroke="rgb(42,121,70)" stroke-width="1.51"></path><path d="M491,279L410,262L413,360Z" fill="rgb(38,135,69)" stroke="rgb(38,135,69)" stroke-width="1.51"></path><path d="M491,279L491,202L410,262Z" fill="rgb(50,149,79)" stroke="rgb(50,149,79)" stroke-width="1.51"></path><path d="M418,119L475,61L407,58Z" fill="rgb(141,193,121)" stroke="rgb(141,193,121)" stroke-width="1.51"></path><path d="M-26,189L-49,272L31,286Z" fill="rgb(166,214,160)" stroke="rgb(166,214,160)" stroke-width="1.51"></path><path d="M492,345L491,279L413,360Z" fill="rgb(24,121,62)" stroke="rgb(24,121,62)" stroke-width="1.51"></path><path d="M197,494L250,501L197,433Z" fill="rgb(93,143,90)" stroke="rgb(93,143,90)" stroke-width="1.51"></path><path d="M-49,272L-32,349L31,286Z" fill="rgb(150,192,144)" stroke="rgb(150,192,144)" stroke-width="1.51"></path><path d="M-26,189L-101,190L-49,272Z" fill="rgb(181,222,169)" stroke="rgb(181,222,169)" stroke-width="1.51"></path><path d="M-30,49L-41,119L41,115Z" fill="rgb(238,248,197)" stroke="rgb(238,248,197)" stroke-width="1.51"></path><path d="M-30,49L41,115L42,61Z" fill="rgb(243,250,197)" stroke="rgb(243,250,197)" stroke-width="1.51"></path><path d="M407,58L418,-26L331,-16Z" fill="rgb(163,211,155)" stroke="rgb(163,211,155)" stroke-width="1.51"></path><path d="M491,202L485,121L418,119Z" fill="rgb(107,173,103)" stroke="rgb(107,173,103)" stroke-width="1.51"></path><path d="M488,415L492,345L413,360Z" fill="rgb(16,107,56)" stroke="rgb(16,107,56)" stroke-width="1.51"></path><path d="M551,281L553,193L491,202Z" fill="rgb(54,141,80)" stroke="rgb(54,141,80)" stroke-width="1.51"></path><path d="M197,494L124,510L250,501Z" fill="rgb(100,146,94)" stroke="rgb(100,146,94)" stroke-width="1.51"></path><path d="M44,423L124,510L111,416Z" fill="rgb(122,155,106)" stroke="rgb(122,155,106)" stroke-width="1.51"></path><path d="M35,506L124,510L44,423Z" fill="rgb(126,156,110)" stroke="rgb(126,156,110)" stroke-width="1.51"></path><path d="M119,-19L43,-17L42,61Z" fill="rgb(251,253,206)" stroke="rgb(251,253,206)" stroke-width="1.51"></path><path d="M106,-88L43,-17L119,-19Z" fill="rgb(248,253,205)" stroke="rgb(248,253,205)" stroke-width="1.51"></path><path d="M106,-88L119,-19L176,-30Z" fill="rgb(240,249,198)" stroke="rgb(240,249,198)" stroke-width="1.51"></path><path d="M485,121L475,61L418,119Z" fill="rgb(130,183,112)" stroke="rgb(130,183,112)" stroke-width="1.51"></path><path d="M43,-17L-30,49L42,61Z" fill="rgb(252,253,210)" stroke="rgb(252,253,210)" stroke-width="1.51"></path><path d="M250,501L343,508L327,431Z" fill="rgb(61,130,78)" stroke="rgb(61,130,78)" stroke-width="1.51"></path><path d="M404,425L488,415L413,360Z" fill="rgb(21,103,56)" stroke="rgb(21,103,56)" stroke-width="1.51"></path><path d="M124,510L343,508L250,501Z" fill="rgb(85,140,87)" stroke="rgb(85,140,87)" stroke-width="1.51"></path><path d="M478,-14L418,-26L407,58Z" fill="rgb(153,197,145)" stroke="rgb(153,197,145)" stroke-width="1.51"></path><path d="M339,-107L251,-109L256,-38Z" fill="rgb(195,230,177)" stroke="rgb(195,230,177)" stroke-width="1.51"></path><path d="M-41,119L-101,190L-26,189Z" fill="rgb(206,235,181)" stroke="rgb(206,235,181)" stroke-width="1.51"></path><path d="M-49,272L-115,340L-32,349Z" fill="rgb(145,187,142)" stroke="rgb(145,187,142)" stroke-width="1.51"></path><path d="M-111,126L-101,190L-41,119Z" fill="rgb(216,239,186)" stroke="rgb(216,239,186)" stroke-width="1.51"></path><path d="M343,508L409,492L327,431Z" fill="rgb(40,121,69)" stroke="rgb(40,121,69)" stroke-width="1.51"></path><path d="M409,492L488,415L404,425Z" fill="rgb(21,103,57)" stroke="rgb(21,103,57)" stroke-width="1.51"></path><path d="M-32,349L-38,428L44,423Z" fill="rgb(129,158,129)" stroke="rgb(129,158,129)" stroke-width="1.51"></path><path d="M-104,437L-38,428L-32,349Z" fill="rgb(129,158,129)" stroke="rgb(129,158,129)" stroke-width="1.51"></path><path d="M193,-112L176,-30L256,-38Z" fill="rgb(219,240,188)" stroke="rgb(219,240,188)" stroke-width="1.51"></path><path d="M193,-112L106,-88L176,-30Z" fill="rgb(234,247,195)" stroke="rgb(234,247,195)" stroke-width="1.51"></path><path d="M43,-17L-39,-14L-30,49Z" fill="rgb(255,255,227)" stroke="rgb(255,255,227)" stroke-width="1.51"></path><path d="M491,202L553,193L485,121Z" fill="rgb(87,159,94)" stroke="rgb(87,159,94)" stroke-width="1.51"></path><path d="M485,121L555,125L475,61Z" fill="rgb(122,174,108)" stroke="rgb(122,174,108)" stroke-width="1.51"></path><path d="M551,281L491,202L491,279Z" fill="rgb(39,138,74)" stroke="rgb(39,138,74)" stroke-width="1.51"></path><path d="M551,281L491,279L492,345Z" fill="rgb(23,120,62)" stroke="rgb(23,120,62)" stroke-width="1.51"></path><path d="M549,345L551,281L492,345Z" fill="rgb(11,110,57)" stroke="rgb(11,110,57)" stroke-width="1.51"></path><path d="M-38,428L35,506L44,423Z" fill="rgb(129,157,125)" stroke="rgb(129,157,125)" stroke-width="1.51"></path><path d="M339,-107L256,-38L331,-16Z" fill="rgb(186,225,172)" stroke="rgb(186,225,172)" stroke-width="1.51"></path><path d="M251,-109L193,-112L256,-38Z" fill="rgb(211,237,184)" stroke="rgb(211,237,184)" stroke-width="1.51"></path><path d="M-111,50L-41,119L-30,49Z" fill="rgb(244,251,202)" stroke="rgb(244,251,202)" stroke-width="1.51"></path><path d="M-111,50L-111,126L-41,119Z" fill="rgb(237,248,196)" stroke="rgb(237,248,196)" stroke-width="1.51"></path><path d="M-111,126L-125,270L-101,190Z" fill="rgb(191,228,175)" stroke="rgb(191,228,175)" stroke-width="1.51"></path><path d="M-101,190L-125,270L-49,272Z" fill="rgb(168,215,161)" stroke="rgb(168,215,161)" stroke-width="1.51"></path><path d="M488,415L549,345L492,345Z" fill="rgb(4,100,53)" stroke="rgb(4,100,53)" stroke-width="1.51"></path><path d="M475,61L478,-14L407,58Z" fill="rgb(147,191,129)" stroke="rgb(147,191,129)" stroke-width="1.51"></path><path d="M553,193L555,125L485,121Z" fill="rgb(98,160,97)" stroke="rgb(98,160,97)" stroke-width="1.51"></path><path d="M571,40L555,125L635,119Z" fill="rgb(114,154,101)" stroke="rgb(114,154,101)" stroke-width="1.51"></path><path d="M571,40L478,-14L475,61Z" fill="rgb(139,180,127)" stroke="rgb(139,180,127)" stroke-width="1.51"></path><path d="M418,-26L339,-107L331,-16Z" fill="rgb(169,216,162)" stroke="rgb(169,216,162)" stroke-width="1.51"></path><path d="M-36,-103L-39,-14L43,-17Z" fill="rgb(255,255,229)" stroke="rgb(255,255,229)" stroke-width="1.51"></path><path d="M423,-96L339,-107L418,-26Z" fill="rgb(162,208,156)" stroke="rgb(162,208,156)" stroke-width="1.51"></path><path d="M251,-109L339,-107L193,-112Z" fill="rgb(202,233,180)" stroke="rgb(202,233,180)" stroke-width="1.51"></path><path d="M-125,270L-115,340L-49,272Z" fill="rgb(152,196,146)" stroke="rgb(152,196,146)" stroke-width="1.51"></path><path d="M-111,126L-111,50L-125,270Z" fill="rgb(215,239,186)" stroke="rgb(215,239,186)" stroke-width="1.51"></path><path d="M-39,-14L-111,50L-30,49Z" fill="rgb(253,254,217)" stroke="rgb(253,254,217)" stroke-width="1.51"></path><path d="M-38,428L-46,491L35,506Z" fill="rgb(129,158,129)" stroke="rgb(129,158,129)" stroke-width="1.51"></path><path d="M-104,437L-46,491L-38,428Z" fill="rgb(129,158,129)" stroke="rgb(129,158,129)" stroke-width="1.51"></path><path d="M479,-96L423,-96L418,-26Z" fill="rgb(152,196,146)" stroke="rgb(152,196,146)" stroke-width="1.51"></path><path d="M-39,-14L-114,-34L-111,50Z" fill="rgb(255,255,229)" stroke="rgb(255,255,229)" stroke-width="1.51"></path><path d="M106,-88L32,-107L43,-17Z" fill="rgb(252,254,212)" stroke="rgb(252,254,212)" stroke-width="1.51"></path><path d="M193,-112L32,-107L106,-88Z" fill="rgb(244,251,202)" stroke="rgb(244,251,202)" stroke-width="1.51"></path><path d="M-114,491L-104,437L-115,340Z" fill="rgb(129,158,129)" stroke="rgb(129,158,129)" stroke-width="1.51"></path><path d="M-115,340L-104,437L-32,349Z" fill="rgb(134,168,133)" stroke="rgb(134,168,133)" stroke-width="1.51"></path><path d="M488,415L575,428L549,345Z" fill="rgb(0,85,47)" stroke="rgb(0,85,47)" stroke-width="1.51"></path><path d="M409,492L494,508L488,415Z" fill="rgb(15,97,53)" stroke="rgb(15,97,53)" stroke-width="1.51"></path><path d="M343,508L494,508L409,492Z" fill="rgb(25,108,60)" stroke="rgb(25,108,60)" stroke-width="1.51"></path><path d="M718,512L494,508L343,508Z" fill="rgb(2,87,48)" stroke="rgb(2,87,48)" stroke-width="1.51"></path><path d="M478,-14L479,-96L418,-26Z" fill="rgb(149,191,144)" stroke="rgb(149,191,144)" stroke-width="1.51"></path><path d="M555,125L571,40L475,61Z" fill="rgb(126,171,111)" stroke="rgb(126,171,111)" stroke-width="1.51"></path><path d="M643,189L555,125L553,193Z" fill="rgb(81,141,87)" stroke="rgb(81,141,87)" stroke-width="1.51"></path><path d="M643,189L553,193L645,267Z" fill="rgb(54,126,75)" stroke="rgb(54,126,75)" stroke-width="1.51"></path><path d="M645,267L553,193L551,281Z" fill="rgb(36,123,69)" stroke="rgb(36,123,69)" stroke-width="1.51"></path><path d="M563,491L575,428L488,415Z" fill="rgb(0,82,46)" stroke="rgb(0,82,46)" stroke-width="1.51"></path><path d="M423,-96L551,-113L339,-107Z" fill="rgb(153,196,147)" stroke="rgb(153,196,147)" stroke-width="1.51"></path><path d="M573,-13L479,-96L478,-14Z" fill="rgb(141,181,139)" stroke="rgb(141,181,139)" stroke-width="1.51"></path><path d="M32,-107L-36,-103L43,-17Z" fill="rgb(255,254,225)" stroke="rgb(255,254,225)" stroke-width="1.51"></path><path d="M-36,-103L-114,-34L-39,-14Z" fill="rgb(255,255,229)" stroke="rgb(255,255,229)" stroke-width="1.51"></path><path d="M-111,50L-114,-34L-125,270Z" fill="rgb(238,248,197)" stroke="rgb(238,248,197)" stroke-width="1.51"></path><path d="M645,267L551,281L640,362Z" fill="rgb(16,99,53)" stroke="rgb(16,99,53)" stroke-width="1.51"></path><path d="M571,40L573,-13L478,-14Z" fill="rgb(136,173,134)" stroke="rgb(136,173,134)" stroke-width="1.51"></path><path d="M637,-23L573,-13L571,40Z" fill="rgb(130,160,129)" stroke="rgb(130,160,129)" stroke-width="1.51"></path><path d="M-104,437L-114,491L-46,491Z" fill="rgb(129,158,129)" stroke="rgb(129,158,129)" stroke-width="1.51"></path><path d="M-46,491L-114,491L35,506Z" fill="rgb(129,158,129)" stroke="rgb(129,158,129)" stroke-width="1.51"></path><path d="M-125,270L-114,491L-115,340Z" fill="rgb(135,171,134)" stroke="rgb(135,171,134)" stroke-width="1.51"></path><path d="M640,362L551,281L549,345Z" fill="rgb(7,96,52)" stroke="rgb(7,96,52)" stroke-width="1.51"></path><path d="M643,189L635,119L555,125Z" fill="rgb(92,142,90)" stroke="rgb(92,142,90)" stroke-width="1.51"></path><path d="M575,428L640,362L549,345Z" fill="rgb(0,79,45)" stroke="rgb(0,79,45)" stroke-width="1.51"></path><path d="M494,508L563,491L488,415Z" fill="rgb(2,88,49)" stroke="rgb(2,88,49)" stroke-width="1.51"></path><path d="M637,437L640,362L575,428Z" fill="rgb(0,69,41)" stroke="rgb(0,69,41)" stroke-width="1.51"></path><path d="M635,119L643,48L571,40Z" fill="rgb(120,154,105)" stroke="rgb(120,154,105)" stroke-width="1.51"></path><path d="M573,-13L551,-113L479,-96Z" fill="rgb(137,176,136)" stroke="rgb(137,176,136)" stroke-width="1.51"></path><path d="M703,126L643,48L635,119Z" fill="rgb(112,151,99)" stroke="rgb(112,151,99)" stroke-width="1.51"></path><path d="M703,126L635,119L643,189Z" fill="rgb(92,142,90)" stroke="rgb(92,142,90)" stroke-width="1.51"></path><path d="M563,491L637,437L575,428Z" fill="rgb(0,71,42)" stroke="rgb(0,71,42)" stroke-width="1.51"></path><path d="M723,275L710,207L645,267Z" fill="rgb(33,118,66)" stroke="rgb(33,118,66)" stroke-width="1.51"></path><path d="M-36,-103L-119,-100L-114,-34Z" fill="rgb(255,255,229)" stroke="rgb(255,255,229)" stroke-width="1.51"></path><path d="M-114,-34L-119,-100L-125,270Z" fill="rgb(252,253,209)" stroke="rgb(252,253,209)" stroke-width="1.51"></path><path d="M32,-107L-119,-100L-36,-103Z" fill="rgb(255,255,229)" stroke="rgb(255,255,229)" stroke-width="1.51"></path><path d="M637,-23L551,-113L573,-13Z" fill="rgb(131,161,130)" stroke="rgb(131,161,130)" stroke-width="1.51"></path><path d="M479,-96L551,-113L423,-96Z" fill="rgb(145,186,141)" stroke="rgb(145,186,141)" stroke-width="1.51"></path><path d="M339,-107L551,-113L193,-112Z" fill="rgb(170,216,162)" stroke="rgb(170,216,162)" stroke-width="1.51"></path><path d="M643,48L637,-23L571,40Z" fill="rgb(128,157,120)" stroke="rgb(128,157,120)" stroke-width="1.51"></path><path d="M645,267L710,207L643,189Z" fill="rgb(51,125,74)" stroke="rgb(51,125,74)" stroke-width="1.51"></path><path d="M643,48L718,-37L637,-23Z" fill="rgb(129,158,129)" stroke="rgb(129,158,129)" stroke-width="1.51"></path><path d="M723,275L645,267L710,350Z" fill="rgb(19,101,54)" stroke="rgb(19,101,54)" stroke-width="1.51"></path><path d="M710,207L703,126L643,189Z" fill="rgb(77,136,84)" stroke="rgb(77,136,84)" stroke-width="1.51"></path><path d="M710,350L645,267L640,362Z" fill="rgb(8,92,51)" stroke="rgb(8,92,51)" stroke-width="1.51"></path><path d="M563,491L639,496L637,437Z" fill="rgb(0,69,41)" stroke="rgb(0,69,41)" stroke-width="1.51"></path><path d="M494,508L639,496L563,491Z" fill="rgb(0,77,44)" stroke="rgb(0,77,44)" stroke-width="1.51"></path><path d="M710,207L722,53L703,126Z" fill="rgb(99,145,93)" stroke="rgb(99,145,93)" stroke-width="1.51"></path><path d="M710,350L640,362L704,418Z" fill="rgb(0,77,44)" stroke="rgb(0,77,44)" stroke-width="1.51"></path><path d="M704,418L640,362L637,437Z" fill="rgb(0,69,41)" stroke="rgb(0,69,41)" stroke-width="1.51"></path><path d="M639,496L704,418L637,437Z" fill="rgb(0,69,41)" stroke="rgb(0,69,41)" stroke-width="1.51"></path><path d="M710,350L718,512L723,275Z" fill="rgb(0,76,44)" stroke="rgb(0,76,44)" stroke-width="1.51"></path><path d="M723,275L722,53L710,207Z" fill="rgb(75,135,83)" stroke="rgb(75,135,83)" stroke-width="1.51"></path><path d="M703,126L722,53L643,48Z" fill="rgb(119,153,104)" stroke="rgb(119,153,104)" stroke-width="1.51"></path><path d="M637,-23L649,-110L551,-113Z" fill="rgb(129,158,129)" stroke="rgb(129,158,129)" stroke-width="1.51"></path><path d="M718,-37L649,-110L637,-23Z" fill="rgb(129,158,129)" stroke="rgb(129,158,129)" stroke-width="1.51"></path><path d="M722,53L718,-37L643,48Z" fill="rgb(128,157,120)" stroke="rgb(128,157,120)" stroke-width="1.51"></path><path d="M639,496L718,512L704,418Z" fill="rgb(0,69,41)" stroke="rgb(0,69,41)" stroke-width="1.51"></path><path d="M704,418L718,512L710,350Z" fill="rgb(0,69,41)" stroke="rgb(0,69,41)" stroke-width="1.51"></path><path d="M494,508L718,512L639,496Z" fill="rgb(0,69,41)" stroke="rgb(0,69,41)" stroke-width="1.51"></path><path d="M124,510L718,512L343,508Z" fill="rgb(29,113,63)" stroke="rgb(29,113,63)" stroke-width="1.51"></path><path d="M718,-37L712,-98L649,-110Z" fill="rgb(129,158,129)" stroke="rgb(129,158,129)" stroke-width="1.51"></path></svg>