<svg width="600" height="400" xmlns="http://www.w3.org/2000/svg"><path d="M345,192L414,130L332,130Z" fill="rgb(235,225,133)" stroke="rgb(235,225,133)" stroke-width="1.51"></path><path d="M345,192L416,199L414,130Z" fill="rgb(223,231,140)" stroke="rgb(223,231,140)" stroke-width="1.51"></path><path d="M414,130L330,55L332,130Z" fill="rgb(238,196,112)" stroke="rgb(238,196,112)" stroke-width="1.51"></path><path d="M416,199L481,133L414,130Z" fill="rgb(204,214,118)" stroke="rgb(204,214,118)" stroke-width="1.51"></path><path d="M414,130L409,44L330,55Z" fill="rgb(226,172,94)" stroke="rgb(226,172,94)" stroke-width="1.51"></path><path d="M481,58L409,44L414,130Z" fill="rgb(207,164,83)" stroke="rgb(207,164,83)" stroke-width="1.51"></path><path d="M330,55L254,128L332,130Z" fill="rgb(255,202,134)" stroke="rgb(255,202,134)" stroke-width="1.51"></path><path d="M332,130L254,192L345,192Z" fill="rgb(252,242,168)" stroke="rgb(252,242,168)" stroke-width="1.51"></path><path d="M416,199L490,196L481,133Z" fill="rgb(191,217,130)" stroke="rgb(191,217,130)" stroke-width="1.51"></path><path d="M345,192L345,275L416,199Z" fill="rgb(222,241,148)" stroke="rgb(222,241,148)" stroke-width="1.51"></path><path d="M416,199L418,272L490,196Z" fill="rgb(190,227,133)" stroke="rgb(190,227,133)" stroke-width="1.51"></path><path d="M260,275L345,275L345,192Z" fill="rgb(227,243,155)" stroke="rgb(227,243,155)" stroke-width="1.51"></path><path d="M254,128L254,192L332,130Z" fill="rgb(255,228,151)" stroke="rgb(255,228,151)" stroke-width="1.51"></path><path d="M345,275L418,272L416,199Z" fill="rgb(198,231,126)" stroke="rgb(198,231,126)" stroke-width="1.51"></path><path d="M481,133L481,58L414,130Z" fill="rgb(197,180,94)" stroke="rgb(197,180,94)" stroke-width="1.51"></path><path d="M559,117L481,58L481,133Z" fill="rgb(176,164,87)" stroke="rgb(176,164,87)" stroke-width="1.51"></path><path d="M330,55L261,47L254,128Z" fill="rgb(254,177,118)" stroke="rgb(254,177,118)" stroke-width="1.51"></path><path d="M262,-25L261,47L330,55Z" fill="rgb(234,150,104)" stroke="rgb(234,150,104)" stroke-width="1.51"></path><path d="M254,192L260,275L345,192Z" fill="rgb(246,248,172)" stroke="rgb(246,248,172)" stroke-width="1.51"></path><path d="M421,342L418,272L345,275Z" fill="rgb(165,216,111)" stroke="rgb(165,216,111)" stroke-width="1.51"></path><path d="M421,342L489,282L418,272Z" fill="rgb(140,205,103)" stroke="rgb(140,205,103)" stroke-width="1.51"></path><path d="M418,272L489,282L490,196Z" fill="rgb(162,215,116)" stroke="rgb(162,215,116)" stroke-width="1.51"></path><path d="M409,44L343,-32L330,55Z" fill="rgb(214,147,86)" stroke="rgb(214,147,86)" stroke-width="1.51"></path><path d="M489,-24L411,-24L409,44Z" fill="rgb(170,126,69)" stroke="rgb(170,126,69)" stroke-width="1.51"></path><path d="M254,192L194,200L260,275Z" fill="rgb(245,234,149)" stroke="rgb(245,234,149)" stroke-width="1.51"></path><path d="M254,128L194,200L254,192Z" fill="rgb(255,226,145)" stroke="rgb(255,226,145)" stroke-width="1.51"></path><path d="M179,125L194,200L254,128Z" fill="rgb(254,206,123)" stroke="rgb(254,206,123)" stroke-width="1.51"></path><path d="M411,-24L343,-32L409,44Z" fill="rgb(190,134,78)" stroke="rgb(190,134,78)" stroke-width="1.51"></path><path d="M564,198L559,117L490,196Z" fill="rgb(156,193,115)" stroke="rgb(156,193,115)" stroke-width="1.51"></path><path d="M490,196L559,117L481,133Z" fill="rgb(170,192,108)" stroke="rgb(170,192,108)" stroke-width="1.51"></path><path d="M481,58L489,-24L409,44Z" fill="rgb(177,132,68)" stroke="rgb(177,132,68)" stroke-width="1.51"></path><path d="M342,351L421,342L345,275Z" fill="rgb(156,212,116)" stroke="rgb(156,212,116)" stroke-width="1.51"></path><path d="M489,282L564,198L490,196Z" fill="rgb(153,207,122)" stroke="rgb(153,207,122)" stroke-width="1.51"></path><path d="M187,50L179,125L254,128Z" fill="rgb(253,170,98)" stroke="rgb(253,170,98)" stroke-width="1.51"></path><path d="M187,50L254,128L261,47Z" fill="rgb(250,163,98)" stroke="rgb(250,163,98)" stroke-width="1.51"></path><path d="M268,348L342,351L345,275Z" fill="rgb(172,218,135)" stroke="rgb(172,218,135)" stroke-width="1.51"></path><path d="M343,-32L262,-25L330,55Z" fill="rgb(215,143,104)" stroke="rgb(215,143,104)" stroke-width="1.51"></path><path d="M411,-24L417,-104L343,-32Z" fill="rgb(189,134,77)" stroke="rgb(189,134,77)" stroke-width="1.51"></path><path d="M558,-24L489,-24L481,58Z" fill="rgb(143,111,62)" stroke="rgb(143,111,62)" stroke-width="1.51"></path><path d="M262,-25L187,50L261,47Z" fill="rgb(230,136,85)" stroke="rgb(230,136,85)" stroke-width="1.51"></path><path d="M559,117L569,58L481,58Z" fill="rgb(163,139,72)" stroke="rgb(163,139,72)" stroke-width="1.51"></path><path d="M631,125L569,58L559,117Z" fill="rgb(149,134,71)" stroke="rgb(149,134,71)" stroke-width="1.51"></path><path d="M260,275L268,348L345,275Z" fill="rgb(196,227,143)" stroke="rgb(196,227,143)" stroke-width="1.51"></path><path d="M191,349L268,348L260,275Z" fill="rgb(180,206,118)" stroke="rgb(180,206,118)" stroke-width="1.51"></path><path d="M109,202L183,274L194,200Z" fill="rgb(245,201,122)" stroke="rgb(245,201,122)" stroke-width="1.51"></path><path d="M194,200L183,274L260,275Z" fill="rgb(231,218,125)" stroke="rgb(231,218,125)" stroke-width="1.51"></path><path d="M421,342L495,349L489,282Z" fill="rgb(105,189,99)" stroke="rgb(105,189,99)" stroke-width="1.51"></path><path d="M489,282L569,279L564,198Z" fill="rgb(125,191,103)" stroke="rgb(125,191,103)" stroke-width="1.51"></path><path d="M415,422L495,349L421,342Z" fill="rgb(90,172,88)" stroke="rgb(90,172,88)" stroke-width="1.51"></path><path d="M564,198L631,125L559,117Z" fill="rgb(146,162,92)" stroke="rgb(146,162,92)" stroke-width="1.51"></path><path d="M495,349L569,279L489,282Z" fill="rgb(98,183,94)" stroke="rgb(98,183,94)" stroke-width="1.51"></path><path d="M569,58L558,-24L481,58Z" fill="rgb(148,114,58)" stroke="rgb(148,114,58)" stroke-width="1.51"></path><path d="M489,-24L417,-104L411,-24Z" fill="rgb(170,126,69)" stroke="rgb(170,126,69)" stroke-width="1.51"></path><path d="M634,196L631,125L564,198Z" fill="rgb(140,168,103)" stroke="rgb(140,168,103)" stroke-width="1.51"></path><path d="M569,58L628,-31L558,-24Z" fill="rgb(117,85,48)" stroke="rgb(117,85,48)" stroke-width="1.51"></path><path d="M179,125L109,202L194,200Z" fill="rgb(255,195,122)" stroke="rgb(255,195,122)" stroke-width="1.51"></path><path d="M187,50L115,117L179,125Z" fill="rgb(250,146,83)" stroke="rgb(250,146,83)" stroke-width="1.51"></path><path d="M107,48L115,117L187,50Z" fill="rgb(243,113,68)" stroke="rgb(243,113,68)" stroke-width="1.51"></path><path d="M493,-103L417,-104L489,-24Z" fill="rgb(158,120,67)" stroke="rgb(158,120,67)" stroke-width="1.51"></path><path d="M343,-32L269,-105L262,-25Z" fill="rgb(218,141,105)" stroke="rgb(218,141,105)" stroke-width="1.51"></path><path d="M262,-25L181,-24L187,50Z" fill="rgb(212,116,76)" stroke="rgb(212,116,76)" stroke-width="1.51"></path><path d="M180,-98L181,-24L262,-25Z" fill="rgb(212,114,75)" stroke="rgb(212,114,75)" stroke-width="1.51"></path><path d="M417,-104L338,-108L343,-32Z" fill="rgb(198,137,84)" stroke="rgb(198,137,84)" stroke-width="1.51"></path><path d="M569,279L634,196L564,198Z" fill="rgb(130,178,107)" stroke="rgb(130,178,107)" stroke-width="1.51"></path><path d="M183,274L191,349L260,275Z" fill="rgb(199,203,111)" stroke="rgb(199,203,111)" stroke-width="1.51"></path><path d="M342,431L415,422L342,351Z" fill="rgb(118,169,94)" stroke="rgb(118,169,94)" stroke-width="1.51"></path><path d="M110,347L191,349L183,274Z" fill="rgb(185,174,92)" stroke="rgb(185,174,92)" stroke-width="1.51"></path><path d="M115,117L109,202L179,125Z" fill="rgb(252,169,99)" stroke="rgb(252,169,99)" stroke-width="1.51"></path><path d="M342,431L342,351L268,348Z" fill="rgb(142,190,120)" stroke="rgb(142,190,120)" stroke-width="1.51"></path><path d="M342,351L415,422L421,342Z" fill="rgb(115,182,96)" stroke="rgb(115,182,96)" stroke-width="1.51"></path><path d="M569,279L643,272L634,196Z" fill="rgb(115,167,92)" stroke="rgb(115,167,92)" stroke-width="1.51"></path><path d="M495,349L564,353L569,279Z" fill="rgb(63,166,87)" stroke="rgb(63,166,87)" stroke-width="1.51"></path><path d="M567,421L564,353L495,349Z" fill="rgb(21,142,75)" stroke="rgb(21,142,75)" stroke-width="1.51"></path><path d="M338,-108L269,-105L343,-32Z" fill="rgb(213,142,103)" stroke="rgb(213,142,103)" stroke-width="1.51"></path><path d="M262,429L342,431L268,348Z" fill="rgb(139,175,116)" stroke="rgb(139,175,116)" stroke-width="1.51"></path><path d="M417,-104L493,-103L338,-108Z" fill="rgb(179,130,71)" stroke="rgb(179,130,71)" stroke-width="1.51"></path><path d="M558,-24L493,-103L489,-24Z" fill="rgb(139,109,61)" stroke="rgb(139,109,61)" stroke-width="1.51"></path><path d="M558,-24L571,-100L493,-103Z" fill="rgb(128,101,57)" stroke="rgb(128,101,57)" stroke-width="1.51"></path><path d="M631,125L642,58L569,58Z" fill="rgb(145,115,60)" stroke="rgb(145,115,60)" stroke-width="1.51"></path><path d="M704,128L642,58L631,125Z" fill="rgb(145,131,69)" stroke="rgb(145,131,69)" stroke-width="1.51"></path><path d="M115,117L43,122L109,202Z" fill="rgb(245,148,87)" stroke="rgb(245,148,87)" stroke-width="1.51"></path><path d="M181,-24L107,48L187,50Z" fill="rgb(225,99,61)" stroke="rgb(225,99,61)" stroke-width="1.51"></path><path d="M109,202L104,272L183,274Z" fill="rgb(232,182,101)" stroke="rgb(232,182,101)" stroke-width="1.51"></path><path d="M44,198L104,272L109,202Z" fill="rgb(238,166,103)" stroke="rgb(238,166,103)" stroke-width="1.51"></path><path d="M630,355L643,272L569,279Z" fill="rgb(76,152,78)" stroke="rgb(76,152,78)" stroke-width="1.51"></path><path d="M634,196L704,128L631,125Z" fill="rgb(142,158,90)" stroke="rgb(142,158,90)" stroke-width="1.51"></path><path d="M191,349L262,429L268,348Z" fill="rgb(150,179,103)" stroke="rgb(150,179,103)" stroke-width="1.51"></path><path d="M181,420L262,429L191,349Z" fill="rgb(143,153,86)" stroke="rgb(143,153,86)" stroke-width="1.51"></path><path d="M415,422L479,433L495,349Z" fill="rgb(70,149,77)" stroke="rgb(70,149,77)" stroke-width="1.51"></path><path d="M404,506L479,433L415,422Z" fill="rgb(87,156,79)" stroke="rgb(87,156,79)" stroke-width="1.51"></path><path d="M642,58L628,-31L569,58Z" fill="rgb(128,89,46)" stroke="rgb(128,89,46)" stroke-width="1.51"></path><path d="M181,-24L108,-21L107,48Z" fill="rgb(206,74,55)" stroke="rgb(206,74,55)" stroke-width="1.51"></path><path d="M269,-105L180,-98L262,-25Z" fill="rgb(214,127,84)" stroke="rgb(214,127,84)" stroke-width="1.51"></path><path d="M118,-104L108,-21L181,-24Z" fill="rgb(206,76,56)" stroke="rgb(206,76,56)" stroke-width="1.51"></path><path d="M628,-31L571,-100L558,-24Z" fill="rgb(116,84,48)" stroke="rgb(116,84,48)" stroke-width="1.51"></path><path d="M104,272L110,347L183,274Z" fill="rgb(202,169,87)" stroke="rgb(202,169,87)" stroke-width="1.51"></path><path d="M564,353L630,355L569,279Z" fill="rgb(53,147,77)" stroke="rgb(53,147,77)" stroke-width="1.51"></path><path d="M567,421L630,355L564,353Z" fill="rgb(10,123,65)" stroke="rgb(10,123,65)" stroke-width="1.51"></path><path d="M110,347L181,420L191,349Z" fill="rgb(157,150,79)" stroke="rgb(157,150,79)" stroke-width="1.51"></path><path d="M479,433L567,421L495,349Z" fill="rgb(38,135,71)" stroke="rgb(38,135,71)" stroke-width="1.51"></path><path d="M107,48L43,122L115,117Z" fill="rgb(239,109,65)" stroke="rgb(239,109,65)" stroke-width="1.51"></path><path d="M104,272L33,281L110,347Z" fill="rgb(194,148,74)" stroke="rgb(194,148,74)" stroke-width="1.51"></path><path d="M43,42L43,122L107,48Z" fill="rgb(227,76,50)" stroke="rgb(227,76,50)" stroke-width="1.51"></path><path d="M43,122L44,198L109,202Z" fill="rgb(243,152,96)" stroke="rgb(243,152,96)" stroke-width="1.51"></path><path d="M705,192L634,196L643,272Z" fill="rgb(129,174,107)" stroke="rgb(129,174,107)" stroke-width="1.51"></path><path d="M705,192L704,128L634,196Z" fill="rgb(141,168,103)" stroke="rgb(141,168,103)" stroke-width="1.51"></path><path d="M642,58L704,-28L628,-31Z" fill="rgb(112,78,45)" stroke="rgb(112,78,45)" stroke-width="1.51"></path><path d="M707,270L705,192L643,272Z" fill="rgb(117,168,93)" stroke="rgb(117,168,93)" stroke-width="1.51"></path><path d="M342,431L404,506L415,422Z" fill="rgb(109,165,88)" stroke="rgb(109,165,88)" stroke-width="1.51"></path><path d="M479,433L562,506L567,421Z" fill="rgb(18,129,68)" stroke="rgb(18,129,68)" stroke-width="1.51"></path><path d="M262,429L340,500L342,431Z" fill="rgb(134,176,114)" stroke="rgb(134,176,114)" stroke-width="1.51"></path><path d="M256,493L340,500L262,429Z" fill="rgb(139,175,114)" stroke="rgb(139,175,114)" stroke-width="1.51"></path><path d="M44,-19L43,42L108,-21Z" fill="rgb(191,33,40)" stroke="rgb(191,33,40)" stroke-width="1.51"></path><path d="M108,-21L43,42L107,48Z" fill="rgb(210,56,45)" stroke="rgb(210,56,45)" stroke-width="1.51"></path><path d="M628,-31L644,-102L571,-100Z" fill="rgb(112,78,45)" stroke="rgb(112,78,45)" stroke-width="1.51"></path><path d="M704,128L709,48L642,58Z" fill="rgb(145,113,60)" stroke="rgb(145,113,60)" stroke-width="1.51"></path><path d="M705,192L709,48L704,128Z" fill="rgb(145,143,77)" stroke="rgb(145,143,77)" stroke-width="1.51"></path><path d="M340,500L404,506L342,431Z" fill="rgb(119,169,95)" stroke="rgb(119,169,95)" stroke-width="1.51"></path><path d="M714,358L707,270L643,272Z" fill="rgb(77,152,78)" stroke="rgb(77,152,78)" stroke-width="1.51"></path><path d="M705,192L714,358L709,48Z" fill="rgb(139,177,119)" stroke="rgb(139,177,119)" stroke-width="1.51"></path><path d="M340,500L190,500L404,506Z" fill="rgb(135,176,115)" stroke="rgb(135,176,115)" stroke-width="1.51"></path><path d="M190,500L256,493L262,429Z" fill="rgb(141,162,94)" stroke="rgb(141,162,94)" stroke-width="1.51"></path><path d="M180,-98L118,-104L181,-24Z" fill="rgb(209,91,61)" stroke="rgb(209,91,61)" stroke-width="1.51"></path><path d="M269,-105L118,-104L180,-98Z" fill="rgb(211,106,69)" stroke="rgb(211,106,69)" stroke-width="1.51"></path><path d="M338,-108L118,-104L269,-105Z" fill="rgb(214,129,86)" stroke="rgb(214,129,86)" stroke-width="1.51"></path><path d="M44,198L33,281L104,272Z" fill="rgb(220,152,82)" stroke="rgb(220,152,82)" stroke-width="1.51"></path><path d="M110,347L108,419L181,420Z" fill="rgb(148,123,65)" stroke="rgb(148,123,65)" stroke-width="1.51"></path><path d="M181,420L190,500L262,429Z" fill="rgb(143,153,85)" stroke="rgb(143,153,85)" stroke-width="1.51"></path><path d="M-31,198L33,281L44,198Z" fill="rgb(214,144,94)" stroke="rgb(214,144,94)" stroke-width="1.51"></path><path d="M-31,198L44,198L43,122Z" fill="rgb(223,138,93)" stroke="rgb(223,138,93)" stroke-width="1.51"></path><path d="M404,506L490,506L479,433Z" fill="rgb(73,150,78)" stroke="rgb(73,150,78)" stroke-width="1.51"></path><path d="M567,421L631,431L630,355Z" fill="rgb(0,104,55)" stroke="rgb(0,104,55)" stroke-width="1.51"></path><path d="M-40,125L-31,198L43,122Z" fill="rgb(213,121,80)" stroke="rgb(213,121,80)" stroke-width="1.51"></path><path d="M40,-95L44,-19L108,-21Z" fill="rgb(191,32,40)" stroke="rgb(191,32,40)" stroke-width="1.51"></path><path d="M704,-28L644,-102L628,-31Z" fill="rgb(112,78,45)" stroke="rgb(112,78,45)" stroke-width="1.51"></path><path d="M571,-100L644,-102L493,-103Z" fill="rgb(120,90,52)" stroke="rgb(120,90,52)" stroke-width="1.51"></path><path d="M493,-103L717,-108L338,-108Z" fill="rgb(138,108,61)" stroke="rgb(138,108,61)" stroke-width="1.51"></path><path d="M38,356L108,419L110,347Z" fill="rgb(150,118,60)" stroke="rgb(150,118,60)" stroke-width="1.51"></path><path d="M709,48L704,-28L642,58Z" fill="rgb(127,88,46)" stroke="rgb(127,88,46)" stroke-width="1.51"></path><path d="M630,355L714,358L643,272Z" fill="rgb(52,142,75)" stroke="rgb(52,142,75)" stroke-width="1.51"></path><path d="M562,506L631,431L567,421Z" fill="rgb(2,109,57)" stroke="rgb(2,109,57)" stroke-width="1.51"></path><path d="M33,281L38,356L110,347Z" fill="rgb(172,131,65)" stroke="rgb(172,131,65)" stroke-width="1.51"></path><path d="M112,506L181,420L108,419Z" fill="rgb(146,121,64)" stroke="rgb(146,121,64)" stroke-width="1.51"></path><path d="M112,506L190,500L181,420Z" fill="rgb(145,133,70)" stroke="rgb(145,133,70)" stroke-width="1.51"></path><path d="M256,493L190,500L340,500Z" fill="rgb(140,169,104)" stroke="rgb(140,169,104)" stroke-width="1.51"></path><path d="M704,426L714,358L630,355Z" fill="rgb(6,116,61)" stroke="rgb(6,116,61)" stroke-width="1.51"></path><path d="M707,270L714,358L705,192Z" fill="rgb(99,161,82)" stroke="rgb(99,161,82)" stroke-width="1.51"></path><path d="M490,506L562,506L479,433Z" fill="rgb(41,136,72)" stroke="rgb(41,136,72)" stroke-width="1.51"></path><path d="M631,431L704,426L630,355Z" fill="rgb(0,104,55)" stroke="rgb(0,104,55)" stroke-width="1.51"></path><path d="M33,281L-35,343L38,356Z" fill="rgb(153,118,65)" stroke="rgb(153,118,65)" stroke-width="1.51"></path><path d="M-40,125L43,122L-41,46Z" fill="rgb(207,83,58)" stroke="rgb(207,83,58)" stroke-width="1.51"></path><path d="M-41,46L43,122L43,42Z" fill="rgb(207,61,49)" stroke="rgb(207,61,49)" stroke-width="1.51"></path><path d="M118,-104L40,-95L108,-21Z" fill="rgb(197,49,45)" stroke="rgb(197,49,45)" stroke-width="1.51"></path><path d="M44,-19L-41,46L43,42Z" fill="rgb(185,25,39)" stroke="rgb(185,25,39)" stroke-width="1.51"></path><path d="M-41,-30L-41,46L44,-19Z" fill="rgb(165,0,38)" stroke="rgb(165,0,38)" stroke-width="1.51"></path><path d="M644,501L704,426L631,431Z" fill="rgb(0,104,55)" stroke="rgb(0,104,55)" stroke-width="1.51"></path><path d="M-31,198L-39,279L33,281Z" fill="rgb(193,135,80)" stroke="rgb(193,135,80)" stroke-width="1.51"></path><path d="M-105,195L-39,279L-31,198Z" fill="rgb(207,140,95)" stroke="rgb(207,140,95)" stroke-width="1.51"></path><path d="M-105,195L-31,198L-40,125Z" fill="rgb(216,133,93)" stroke="rgb(216,133,93)" stroke-width="1.51"></path><path d="M709,48L717,-108L704,-28Z" fill="rgb(112,78,45)" stroke="rgb(112,78,45)" stroke-width="1.51"></path><path d="M704,-28L717,-108L644,-102Z" fill="rgb(112,78,45)" stroke="rgb(112,78,45)" stroke-width="1.51"></path><path d="M644,-102L717,-108L493,-103Z" fill="rgb(112,78,45)" stroke="rgb(112,78,45)" stroke-width="1.51"></path><path d="M714,358L717,-108L709,48Z" fill="rgb(145,128,67)" stroke="rgb(145,128,67)" stroke-width="1.51"></path><path d="M38,356L31,422L108,419Z" fill="rgb(135,93,47)" stroke="rgb(135,93,47)" stroke-width="1.51"></path><path d="M-35,343L31,422L38,356Z" fill="rgb(127,96,53)" stroke="rgb(127,96,53)" stroke-width="1.51"></path><path d="M41,507L112,506L108,419Z" fill="rgb(140,103,52)" stroke="rgb(140,103,52)" stroke-width="1.51"></path><path d="M190,500L112,506L404,506Z" fill="rgb(141,162,94)" stroke="rgb(141,162,94)" stroke-width="1.51"></path><path d="M562,506L644,501L631,431Z" fill="rgb(0,104,55)" stroke="rgb(0,104,55)" stroke-width="1.51"></path><path d="M-39,279L-35,343L33,281Z" fill="rgb(164,123,68)" stroke="rgb(164,123,68)" stroke-width="1.51"></path><path d="M40,-95L-41,-30L44,-19Z" fill="rgb(171,8,39)" stroke="rgb(171,8,39)" stroke-width="1.51"></path><path d="M40,-95L-30,-103L-41,-30Z" fill="rgb(165,0,38)" stroke="rgb(165,0,38)" stroke-width="1.51"></path><path d="M118,-104L-30,-103L40,-95Z" fill="rgb(182,22,39)" stroke="rgb(182,22,39)" stroke-width="1.51"></path><path d="M-114,-107L-30,-103L118,-104Z" fill="rgb(165,0,38)" stroke="rgb(165,0,38)" stroke-width="1.51"></path><path d="M-39,279L-113,347L-35,343Z" fill="rgb(150,117,66)" stroke="rgb(150,117,66)" stroke-width="1.51"></path><path d="M-114,123L-105,195L-40,125Z" fill="rgb(213,121,79)" stroke="rgb(213,121,79)" stroke-width="1.51"></path><path d="M-114,123L-40,125L-108,53Z" fill="rgb(207,85,59)" stroke="rgb(207,85,59)" stroke-width="1.51"></path><path d="M-40,125L-41,46L-108,53Z" fill="rgb(202,62,50)" stroke="rgb(202,62,50)" stroke-width="1.51"></path><path d="M562,506L708,503L644,501Z" fill="rgb(0,104,55)" stroke="rgb(0,104,55)" stroke-width="1.51"></path><path d="M644,501L708,503L704,426Z" fill="rgb(0,104,55)" stroke="rgb(0,104,55)" stroke-width="1.51"></path><path d="M704,426L708,503L714,358Z" fill="rgb(0,104,55)" stroke="rgb(0,104,55)" stroke-width="1.51"></path><path d="M31,422L41,507L108,419Z" fill="rgb(135,93,46)" stroke="rgb(135,93,46)" stroke-width="1.51"></path><path d="M112,506L41,507L404,506Z" fill="rgb(144,144,77)" stroke="rgb(144,144,77)" stroke-width="1.51"></path><path d="M404,506L41,507L490,506Z" fill="rgb(135,176,115)" stroke="rgb(135,176,115)" stroke-width="1.51"></path><path d="M490,506L41,507L562,506Z" fill="rgb(118,169,94)" stroke="rgb(118,169,94)" stroke-width="1.51"></path><path d="M-35,496L41,507L31,422Z" fill="rgb(117,81,45)" stroke="rgb(117,81,45)" stroke-width="1.51"></path><path d="M-33,433L31,422L-35,343Z" fill="rgb(112,79,45)" stroke="rgb(112,79,45)" stroke-width="1.51"></path><path d="M-108,53L-41,46L-109,-31Z" fill="rgb(179,18,39)" stroke="rgb(179,18,39)" stroke-width="1.51"></path><path d="M-109,-31L-41,46L-41,-30Z" fill="rgb(165,0,38)" stroke="rgb(165,0,38)" stroke-width="1.51"></path><path d="M-112,425L-33,433L-35,343Z" fill="rgb(112,78,45)" stroke="rgb(112,78,45)" stroke-width="1.51"></path><path d="M-105,195L-116,277L-39,279Z" fill="rgb(194,136,81)" stroke="rgb(194,136,81)" stroke-width="1.51"></path><path d="M-114,123L-116,277L-105,195Z" fill="rgb(218,143,108)" stroke="rgb(218,143,108)" stroke-width="1.51"></path><path d="M-114,-107L-109,-31L-41,-30Z" fill="rgb(165,0,38)" stroke="rgb(165,0,38)" stroke-width="1.51"></path><path d="M-108,53L-109,-31L-114,123Z" fill="rgb(193,38,42)" stroke="rgb(193,38,42)" stroke-width="1.51"></path><path d="M-116,277L-113,347L-39,279Z" fill="rgb(164,123,68)" stroke="rgb(164,123,68)" stroke-width="1.51"></path><path d="M-33,433L-35,496L31,422Z" fill="rgb(112,78,45)" stroke="rgb(112,78,45)" stroke-width="1.51"></path><path d="M-112,425L-35,496L-33,433Z" fill="rgb(112,78,45)" stroke="rgb(112,78,45)" stroke-width="1.51"></path><path d="M-109,-31L-114,-107L-114,123Z" fill="rgb(165,0,38)" stroke="rgb(165,0,38)" stroke-width="1.51"></path><path d="M-114,123L-114,-107L-116,277Z" fill="rgb(207,83,58)" stroke="rgb(207,83,58)" stroke-width="1.51"></path><path d="M-30,-103L-114,-107L-41,-30Z" fill="rgb(165,0,38)" stroke="rgb(165,0,38)" stroke-width="1.51"></path><path d="M338,-108L-114,-107L118,-104Z" fill="rgb(203,63,51)" stroke="rgb(203,63,51)" stroke-width="1.51"></path><path d="M-113,347L-112,425L-35,343Z" fill="rgb(124,95,54)" stroke="rgb(124,95,54)" stroke-width="1.51"></path><path d="M-116,277L-112,425L-113,347Z" fill="rgb(134,106,60)" stroke="rgb(134,106,60)" stroke-width="1.51"></path><path d="M-35,496L-112,505L41,507Z" fill="rgb(112,78,45)" stroke="rgb(112,78,45)" stroke-width="1.51"></path><path d="M-112,425L-112,505L-35,496Z" fill="rgb(112,78,45)" stroke="rgb(112,78,45)" stroke-width="1.51"></path><path d="M-116,277L-112,505L-112,425Z" fill="rgb(112,78,45)" stroke="rgb(112,78,45)" stroke-width="1.51"></path></svg>