<svg width="600" height="400" xmlns="http://www.w3.org/2000/svg"><path d="M349,207L355,264L382,232Z" fill="rgb(226,243,244)" stroke="rgb(226,243,244)" stroke-width="1.51"></path><path d="M248,266L303,328L355,264Z" fill="rgb(212,232,212)" stroke="rgb(212,232,212)" stroke-width="1.51"></path><path d="M430,109L338,159L349,207Z" fill="rgb(238,230,194)" stroke="rgb(238,230,194)" stroke-width="1.51"></path><path d="M355,264L441,277L382,232Z" fill="rgb(199,230,241)" stroke="rgb(199,230,241)" stroke-width="1.51"></path><path d="M382,232L430,109L349,207Z" fill="rgb(231,236,207)" stroke="rgb(231,236,207)" stroke-width="1.51"></path><path d="M248,266L355,264L349,207Z" fill="rgb(233,245,227)" stroke="rgb(233,245,227)" stroke-width="1.51"></path><path d="M355,264L424,322L441,277Z" fill="rgb(172,215,232)" stroke="rgb(172,215,232)" stroke-width="1.51"></path><path d="M233,204L248,266L349,207Z" fill="rgb(247,245,201)" stroke="rgb(247,245,201)" stroke-width="1.51"></path><path d="M303,328L424,322L355,264Z" fill="rgb(181,216,233)" stroke="rgb(181,216,233)" stroke-width="1.51"></path><path d="M338,159L280,139L349,207Z" fill="rgb(251,240,184)" stroke="rgb(251,240,184)" stroke-width="1.51"></path><path d="M280,139L233,204L349,207Z" fill="rgb(255,245,176)" stroke="rgb(255,245,176)" stroke-width="1.51"></path><path d="M517,153L430,109L382,232Z" fill="rgb(209,214,188)" stroke="rgb(209,214,188)" stroke-width="1.51"></path><path d="M338,159L338,35L280,139Z" fill="rgb(254,206,149)" stroke="rgb(254,206,149)" stroke-width="1.51"></path><path d="M441,277L521,231L382,232Z" fill="rgb(181,217,234)" stroke="rgb(181,217,234)" stroke-width="1.51"></path><path d="M483,328L505,278L441,277Z" fill="rgb(136,188,217)" stroke="rgb(136,188,217)" stroke-width="1.51"></path><path d="M411,428L483,328L424,322Z" fill="rgb(114,159,203)" stroke="rgb(114,159,203)" stroke-width="1.51"></path><path d="M424,322L483,328L441,277Z" fill="rgb(139,190,219)" stroke="rgb(139,190,219)" stroke-width="1.51"></path><path d="M280,139L217,149L233,204Z" fill="rgb(254,226,148)" stroke="rgb(254,226,148)" stroke-width="1.51"></path><path d="M180,199L194,305L248,266Z" fill="rgb(235,214,180)" stroke="rgb(235,214,180)" stroke-width="1.51"></path><path d="M209,68L217,149L280,139Z" fill="rgb(254,196,118)" stroke="rgb(254,196,118)" stroke-width="1.51"></path><path d="M505,278L521,231L441,277Z" fill="rgb(153,196,223)" stroke="rgb(153,196,223)" stroke-width="1.51"></path><path d="M248,266L229,362L303,328Z" fill="rgb(195,203,187)" stroke="rgb(195,203,187)" stroke-width="1.51"></path><path d="M180,199L248,266L233,204Z" fill="rgb(250,228,176)" stroke="rgb(250,228,176)" stroke-width="1.51"></path><path d="M217,149L180,199L233,204Z" fill="rgb(255,221,146)" stroke="rgb(255,221,146)" stroke-width="1.51"></path><path d="M303,328L411,428L424,322Z" fill="rgb(142,174,212)" stroke="rgb(142,174,212)" stroke-width="1.51"></path><path d="M194,305L229,362L248,266Z" fill="rgb(201,196,174)" stroke="rgb(201,196,174)" stroke-width="1.51"></path><path d="M521,231L517,153L382,232Z" fill="rgb(192,215,206)" stroke="rgb(192,215,206)" stroke-width="1.51"></path><path d="M616,214L540,193L521,231Z" fill="rgb(163,170,191)" stroke="rgb(163,170,191)" stroke-width="1.51"></path><path d="M521,231L540,193L517,153Z" fill="rgb(177,187,187)" stroke="rgb(177,187,187)" stroke-width="1.51"></path><path d="M229,362L249,401L303,328Z" fill="rgb(173,170,171)" stroke="rgb(173,170,171)" stroke-width="1.51"></path><path d="M216,405L249,401L229,362Z" fill="rgb(167,139,151)" stroke="rgb(167,139,151)" stroke-width="1.51"></path><path d="M505,278L545,288L521,231Z" fill="rgb(139,178,213)" stroke="rgb(139,178,213)" stroke-width="1.51"></path><path d="M483,328L545,288L505,278Z" fill="rgb(121,170,208)" stroke="rgb(121,170,208)" stroke-width="1.51"></path><path d="M430,109L338,35L338,159Z" fill="rgb(244,192,163)" stroke="rgb(244,192,163)" stroke-width="1.51"></path><path d="M433,23L338,35L430,109Z" fill="rgb(225,155,141)" stroke="rgb(225,155,141)" stroke-width="1.51"></path><path d="M319,437L411,428L303,328Z" fill="rgb(149,147,193)" stroke="rgb(149,147,193)" stroke-width="1.51"></path><path d="M483,328L548,368L545,288Z" fill="rgb(94,145,195)" stroke="rgb(94,145,195)" stroke-width="1.51"></path><path d="M249,401L319,437L303,328Z" fill="rgb(165,156,174)" stroke="rgb(165,156,174)" stroke-width="1.51"></path><path d="M517,153L502,63L430,109Z" fill="rgb(199,164,149)" stroke="rgb(199,164,149)" stroke-width="1.51"></path><path d="M540,193L536,135L517,153Z" fill="rgb(177,172,167)" stroke="rgb(177,172,167)" stroke-width="1.51"></path><path d="M132,336L168,347L194,305Z" fill="rgb(195,160,147)" stroke="rgb(195,160,147)" stroke-width="1.51"></path><path d="M194,305L168,347L229,362Z" fill="rgb(189,167,156)" stroke="rgb(189,167,156)" stroke-width="1.51"></path><path d="M168,347L216,405L229,362Z" fill="rgb(174,144,147)" stroke="rgb(174,144,147)" stroke-width="1.51"></path><path d="M249,401L309,468L319,437Z" fill="rgb(162,146,170)" stroke="rgb(162,146,170)" stroke-width="1.51"></path><path d="M101,98L87,181L180,199Z" fill="rgb(253,169,104)" stroke="rgb(253,169,104)" stroke-width="1.51"></path><path d="M230,29L209,68L280,139Z" fill="rgb(252,168,104)" stroke="rgb(252,168,104)" stroke-width="1.51"></path><path d="M502,63L433,23L430,109Z" fill="rgb(206,144,136)" stroke="rgb(206,144,136)" stroke-width="1.51"></path><path d="M536,135L502,63L517,153Z" fill="rgb(186,153,145)" stroke="rgb(186,153,145)" stroke-width="1.51"></path><path d="M505,430L548,368L483,328Z" fill="rgb(78,118,181)" stroke="rgb(78,118,181)" stroke-width="1.51"></path><path d="M319,437L405,494L411,428Z" fill="rgb(134,140,196)" stroke="rgb(134,140,196)" stroke-width="1.51"></path><path d="M233,487L309,468L249,401Z" fill="rgb(164,139,160)" stroke="rgb(164,139,160)" stroke-width="1.51"></path><path d="M227,2L230,29L338,35Z" fill="rgb(230,144,97)" stroke="rgb(230,144,97)" stroke-width="1.51"></path><path d="M338,35L230,29L280,139Z" fill="rgb(251,172,115)" stroke="rgb(251,172,115)" stroke-width="1.51"></path><path d="M109,300L132,336L194,305Z" fill="rgb(204,160,146)" stroke="rgb(204,160,146)" stroke-width="1.51"></path><path d="M168,347L117,454L216,405Z" fill="rgb(166,103,125)" stroke="rgb(166,103,125)" stroke-width="1.51"></path><path d="M109,300L194,305L180,199Z" fill="rgb(231,190,162)" stroke="rgb(231,190,162)" stroke-width="1.51"></path><path d="M411,428L505,430L483,328Z" fill="rgb(95,120,184)" stroke="rgb(95,120,184)" stroke-width="1.51"></path><path d="M480,516L505,430L411,428Z" fill="rgb(94,117,182)" stroke="rgb(94,117,182)" stroke-width="1.51"></path><path d="M433,23L394,-11L338,35Z" fill="rgb(208,139,134)" stroke="rgb(208,139,134)" stroke-width="1.51"></path><path d="M431,-81L394,-11L433,23Z" fill="rgb(187,127,129)" stroke="rgb(187,127,129)" stroke-width="1.51"></path><path d="M87,181L109,300L180,199Z" fill="rgb(250,183,147)" stroke="rgb(250,183,147)" stroke-width="1.51"></path><path d="M661,244L616,214L545,288Z" fill="rgb(137,141,197)" stroke="rgb(137,141,197)" stroke-width="1.51"></path><path d="M545,288L616,214L521,231Z" fill="rgb(145,164,208)" stroke="rgb(145,164,208)" stroke-width="1.51"></path><path d="M540,193L625,120L536,135Z" fill="rgb(171,147,152)" stroke="rgb(171,147,152)" stroke-width="1.51"></path><path d="M536,135L559,53L502,63Z" fill="rgb(182,121,129)" stroke="rgb(182,121,129)" stroke-width="1.51"></path><path d="M309,468L405,494L319,437Z" fill="rgb(148,145,192)" stroke="rgb(148,145,192)" stroke-width="1.51"></path><path d="M101,98L180,199L217,149Z" fill="rgb(254,185,110)" stroke="rgb(254,185,110)" stroke-width="1.51"></path><path d="M154,-19L118,21L209,68Z" fill="rgb(224,100,62)" stroke="rgb(224,100,62)" stroke-width="1.51"></path><path d="M333,-30L227,2L338,35Z" fill="rgb(220,145,109)" stroke="rgb(220,145,109)" stroke-width="1.51"></path><path d="M394,-11L333,-30L338,35Z" fill="rgb(209,138,133)" stroke="rgb(209,138,133)" stroke-width="1.51"></path><path d="M101,98L217,149L209,68Z" fill="rgb(252,161,90)" stroke="rgb(252,161,90)" stroke-width="1.51"></path><path d="M502,63L512,-34L433,23Z" fill="rgb(174,111,119)" stroke="rgb(174,111,119)" stroke-width="1.51"></path><path d="M625,120L559,53L536,135Z" fill="rgb(172,112,128)" stroke="rgb(172,112,128)" stroke-width="1.51"></path><path d="M218,482L233,487L249,401Z" fill="rgb(164,131,149)" stroke="rgb(164,131,149)" stroke-width="1.51"></path><path d="M309,468L233,487L405,494Z" fill="rgb(157,147,180)" stroke="rgb(157,147,180)" stroke-width="1.51"></path><path d="M218,482L249,401L216,405Z" fill="rgb(165,129,146)" stroke="rgb(165,129,146)" stroke-width="1.51"></path><path d="M117,454L168,347L132,336Z" fill="rgb(173,108,124)" stroke="rgb(173,108,124)" stroke-width="1.51"></path><path d="M117,454L218,482L216,405Z" fill="rgb(166,111,130)" stroke="rgb(166,111,130)" stroke-width="1.51"></path><path d="M118,21L101,98L209,68Z" fill="rgb(240,111,66)" stroke="rgb(240,111,66)" stroke-width="1.51"></path><path d="M616,214L625,120L540,193Z" fill="rgb(165,143,161)" stroke="rgb(165,143,161)" stroke-width="1.51"></path><path d="M663,346L661,244L545,288Z" fill="rgb(107,126,187)" stroke="rgb(107,126,187)" stroke-width="1.51"></path><path d="M505,430L589,433L548,368Z" fill="rgb(60,82,163)" stroke="rgb(60,82,163)" stroke-width="1.51"></path><path d="M589,521L589,433L505,430Z" fill="rgb(58,75,159)" stroke="rgb(58,75,159)" stroke-width="1.51"></path><path d="M726,192L689,110L625,120Z" fill="rgb(165,122,140)" stroke="rgb(165,122,140)" stroke-width="1.51"></path><path d="M663,346L545,288L548,368Z" fill="rgb(81,110,178)" stroke="rgb(81,110,178)" stroke-width="1.51"></path><path d="M405,494L480,516L411,428Z" fill="rgb(110,128,189)" stroke="rgb(110,128,189)" stroke-width="1.51"></path><path d="M233,487L480,516L405,494Z" fill="rgb(137,141,197)" stroke="rgb(137,141,197)" stroke-width="1.51"></path><path d="M394,-11L369,-120L333,-30Z" fill="rgb(206,137,135)" stroke="rgb(206,137,135)" stroke-width="1.51"></path><path d="M559,53L512,-34L502,63Z" fill="rgb(165,94,112)" stroke="rgb(165,94,112)" stroke-width="1.51"></path><path d="M577,-4L512,-34L559,53Z" fill="rgb(143,73,104)" stroke="rgb(143,73,104)" stroke-width="1.51"></path><path d="M154,-19L209,68L230,29Z" fill="rgb(228,120,73)" stroke="rgb(228,120,73)" stroke-width="1.51"></path><path d="M154,-19L230,29L227,2Z" fill="rgb(215,114,74)" stroke="rgb(215,114,74)" stroke-width="1.51"></path><path d="M18,392L132,336L109,300Z" fill="rgb(182,115,122)" stroke="rgb(182,115,122)" stroke-width="1.51"></path><path d="M86,467L117,454L18,392Z" fill="rgb(156,58,100)" stroke="rgb(156,58,100)" stroke-width="1.51"></path><path d="M218,482L46,526L233,487Z" fill="rgb(166,102,125)" stroke="rgb(166,102,125)" stroke-width="1.51"></path><path d="M141,-28L154,-19L190,-67Z" fill="rgb(209,92,62)" stroke="rgb(209,92,62)" stroke-width="1.51"></path><path d="M512,-34L431,-81L433,23Z" fill="rgb(172,113,122)" stroke="rgb(172,113,122)" stroke-width="1.51"></path><path d="M190,-67L154,-19L227,2Z" fill="rgb(211,107,70)" stroke="rgb(211,107,70)" stroke-width="1.51"></path><path d="M667,30L577,-4L559,53Z" fill="rgb(144,47,95)" stroke="rgb(144,47,95)" stroke-width="1.51"></path><path d="M512,-34L513,-123L431,-81Z" fill="rgb(162,103,117)" stroke="rgb(162,103,117)" stroke-width="1.51"></path><path d="M589,433L663,346L548,368Z" fill="rgb(55,68,156)" stroke="rgb(55,68,156)" stroke-width="1.51"></path><path d="M87,181L27,288L109,300Z" fill="rgb(229,155,139)" stroke="rgb(229,155,139)" stroke-width="1.51"></path><path d="M20,203L27,288L87,181Z" fill="rgb(232,152,127)" stroke="rgb(232,152,127)" stroke-width="1.51"></path><path d="M20,203L87,181L34,130Z" fill="rgb(236,145,95)" stroke="rgb(236,145,95)" stroke-width="1.51"></path><path d="M34,130L87,181L101,98Z" fill="rgb(241,135,79)" stroke="rgb(241,135,79)" stroke-width="1.51"></path><path d="M43,25L34,130L101,98Z" fill="rgb(230,86,54)" stroke="rgb(230,86,54)" stroke-width="1.51"></path><path d="M118,21L43,25L101,98Z" fill="rgb(225,71,47)" stroke="rgb(225,71,47)" stroke-width="1.51"></path><path d="M154,-19L141,-28L118,21Z" fill="rgb(206,77,56)" stroke="rgb(206,77,56)" stroke-width="1.51"></path><path d="M190,-67L227,2L282,-135Z" fill="rgb(214,125,85)" stroke="rgb(214,125,85)" stroke-width="1.51"></path><path d="M282,-135L227,2L333,-30Z" fill="rgb(217,139,102)" stroke="rgb(217,139,102)" stroke-width="1.51"></path><path d="M117,454L46,526L218,482Z" fill="rgb(165,82,114)" stroke="rgb(165,82,114)" stroke-width="1.51"></path><path d="M18,392L117,454L132,336Z" fill="rgb(161,71,106)" stroke="rgb(161,71,106)" stroke-width="1.51"></path><path d="M431,-81L369,-120L394,-11Z" fill="rgb(195,130,131)" stroke="rgb(195,130,131)" stroke-width="1.51"></path><path d="M513,-123L369,-120L431,-81Z" fill="rgb(180,121,126)" stroke="rgb(180,121,126)" stroke-width="1.51"></path><path d="M726,192L616,214L661,244Z" fill="rgb(155,146,184)" stroke="rgb(155,146,184)" stroke-width="1.51"></path><path d="M726,192L625,120L616,214Z" fill="rgb(164,139,160)" stroke="rgb(164,139,160)" stroke-width="1.51"></path><path d="M625,120L667,30L559,53Z" fill="rgb(161,70,107)" stroke="rgb(161,70,107)" stroke-width="1.51"></path><path d="M663,346L708,298L661,244Z" fill="rgb(104,124,186)" stroke="rgb(104,124,186)" stroke-width="1.51"></path><path d="M697,358L708,298L663,346Z" fill="rgb(78,103,174)" stroke="rgb(78,103,174)" stroke-width="1.51"></path><path d="M657,460L697,358L663,346Z" fill="rgb(53,64,154)" stroke="rgb(53,64,154)" stroke-width="1.51"></path><path d="M657,460L663,346L589,433Z" fill="rgb(49,54,149)" stroke="rgb(49,54,149)" stroke-width="1.51"></path><path d="M589,521L634,470L589,433Z" fill="rgb(49,54,149)" stroke="rgb(49,54,149)" stroke-width="1.51"></path><path d="M480,516L589,521L505,430Z" fill="rgb(68,92,168)" stroke="rgb(68,92,168)" stroke-width="1.51"></path><path d="M27,288L18,392L109,300Z" fill="rgb(183,114,119)" stroke="rgb(183,114,119)" stroke-width="1.51"></path><path d="M5,383L18,392L27,288Z" fill="rgb(152,86,109)" stroke="rgb(152,86,109)" stroke-width="1.51"></path><path d="M689,110L667,30L625,120Z" fill="rgb(165,84,115)" stroke="rgb(165,84,115)" stroke-width="1.51"></path><path d="M569,-132L513,-123L512,-34Z" fill="rgb(145,81,108)" stroke="rgb(145,81,108)" stroke-width="1.51"></path><path d="M708,298L726,192L661,244Z" fill="rgb(139,142,198)" stroke="rgb(139,142,198)" stroke-width="1.51"></path><path d="M689,110L731,48L667,30Z" fill="rgb(160,67,105)" stroke="rgb(160,67,105)" stroke-width="1.51"></path><path d="M50,-2L118,21L141,-28Z" fill="rgb(200,57,48)" stroke="rgb(200,57,48)" stroke-width="1.51"></path><path d="M50,-2L43,25L118,21Z" fill="rgb(201,43,42)" stroke="rgb(201,43,42)" stroke-width="1.51"></path><path d="M34,130L-20,165L20,203Z" fill="rgb(219,134,91)" stroke="rgb(219,134,91)" stroke-width="1.51"></path><path d="M369,-120L282,-135L333,-30Z" fill="rgb(214,141,122)" stroke="rgb(214,141,122)" stroke-width="1.51"></path><path d="M80,-132L50,-2L141,-28Z" fill="rgb(197,50,46)" stroke="rgb(197,50,46)" stroke-width="1.51"></path><path d="M634,470L657,460L589,433Z" fill="rgb(49,54,149)" stroke="rgb(49,54,149)" stroke-width="1.51"></path><path d="M745,521L657,460L634,470Z" fill="rgb(49,54,149)" stroke="rgb(49,54,149)" stroke-width="1.51"></path><path d="M18,392L46,526L86,467Z" fill="rgb(149,50,96)" stroke="rgb(149,50,96)" stroke-width="1.51"></path><path d="M-31,326L5,383L27,288Z" fill="rgb(157,97,115)" stroke="rgb(157,97,115)" stroke-width="1.51"></path><path d="M20,203L-39,240L27,288Z" fill="rgb(207,138,135)" stroke="rgb(207,138,135)" stroke-width="1.51"></path><path d="M-67,131L-20,165L34,130Z" fill="rgb(213,117,78)" stroke="rgb(213,117,78)" stroke-width="1.51"></path><path d="M43,25L-5,27L34,130Z" fill="rgb(207,56,46)" stroke="rgb(207,56,46)" stroke-width="1.51"></path><path d="M80,-132L141,-28L190,-67Z" fill="rgb(206,77,56)" stroke="rgb(206,77,56)" stroke-width="1.51"></path><path d="M569,-132L512,-34L577,-4Z" fill="rgb(139,70,103)" stroke="rgb(139,70,103)" stroke-width="1.51"></path><path d="M369,-120L513,-123L282,-135Z" fill="rgb(198,133,132)" stroke="rgb(198,133,132)" stroke-width="1.51"></path><path d="M-20,165L-39,240L20,203Z" fill="rgb(217,143,111)" stroke="rgb(217,143,111)" stroke-width="1.51"></path><path d="M667,30L657,-14L577,-4Z" fill="rgb(130,39,93)" stroke="rgb(130,39,93)" stroke-width="1.51"></path><path d="M726,2L657,-14L667,30Z" fill="rgb(131,40,93)" stroke="rgb(131,40,93)" stroke-width="1.51"></path><path d="M-39,240L-31,326L27,288Z" fill="rgb(184,124,128)" stroke="rgb(184,124,128)" stroke-width="1.51"></path><path d="M50,-2L-5,27L43,25Z" fill="rgb(187,27,39)" stroke="rgb(187,27,39)" stroke-width="1.51"></path><path d="M-20,165L-121,196L-39,240Z" fill="rgb(218,144,109)" stroke="rgb(218,144,109)" stroke-width="1.51"></path><path d="M-68,-52L-5,27L50,-2Z" fill="rgb(165,0,38)" stroke="rgb(165,0,38)" stroke-width="1.51"></path><path d="M726,192L731,48L689,110Z" fill="rgb(167,107,127)" stroke="rgb(167,107,127)" stroke-width="1.51"></path><path d="M86,467L46,526L117,454Z" fill="rgb(157,62,102)" stroke="rgb(157,62,102)" stroke-width="1.51"></path><path d="M233,487L46,526L480,516Z" fill="rgb(164,137,156)" stroke="rgb(164,137,156)" stroke-width="1.51"></path><path d="M480,516L46,526L589,521Z" fill="rgb(137,141,197)" stroke="rgb(137,141,197)" stroke-width="1.51"></path><path d="M-60,499L46,526L18,392Z" fill="rgb(128,38,93)" stroke="rgb(128,38,93)" stroke-width="1.51"></path><path d="M-38,401L18,392L5,383Z" fill="rgb(131,47,95)" stroke="rgb(131,47,95)" stroke-width="1.51"></path><path d="M-31,326L-38,401L5,383Z" fill="rgb(139,68,103)" stroke="rgb(139,68,103)" stroke-width="1.51"></path><path d="M-84,366L-38,401L-31,326Z" fill="rgb(141,73,105)" stroke="rgb(141,73,105)" stroke-width="1.51"></path><path d="M657,460L741,412L697,358Z" fill="rgb(49,54,149)" stroke="rgb(49,54,149)" stroke-width="1.51"></path><path d="M697,358L741,412L708,298Z" fill="rgb(64,88,166)" stroke="rgb(64,88,166)" stroke-width="1.51"></path><path d="M708,298L741,412L726,192Z" fill="rgb(101,122,185)" stroke="rgb(101,122,185)" stroke-width="1.51"></path><path d="M726,192L741,412L731,48Z" fill="rgb(154,146,184)" stroke="rgb(154,146,184)" stroke-width="1.51"></path><path d="M745,521L741,412L657,460Z" fill="rgb(49,54,149)" stroke="rgb(49,54,149)" stroke-width="1.51"></path><path d="M513,-123L569,-132L282,-135Z" fill="rgb(173,114,123)" stroke="rgb(173,114,123)" stroke-width="1.51"></path><path d="M630,-93L569,-132L577,-4Z" fill="rgb(130,43,94)" stroke="rgb(130,43,94)" stroke-width="1.51"></path><path d="M630,-93L577,-4L657,-14Z" fill="rgb(128,38,93)" stroke="rgb(128,38,93)" stroke-width="1.51"></path><path d="M684,-90L630,-93L657,-14Z" fill="rgb(128,38,93)" stroke="rgb(128,38,93)" stroke-width="1.51"></path><path d="M-5,27L-67,131L34,130Z" fill="rgb(207,81,58)" stroke="rgb(207,81,58)" stroke-width="1.51"></path><path d="M-39,240L-90,282L-31,326Z" fill="rgb(185,125,128)" stroke="rgb(185,125,128)" stroke-width="1.51"></path><path d="M731,48L726,2L667,30Z" fill="rgb(144,47,95)" stroke="rgb(144,47,95)" stroke-width="1.51"></path><path d="M-121,196L-90,282L-39,240Z" fill="rgb(209,138,135)" stroke="rgb(209,138,135)" stroke-width="1.51"></path><path d="M-90,282L-84,366L-31,326Z" fill="rgb(161,102,117)" stroke="rgb(161,102,117)" stroke-width="1.51"></path><path d="M-38,401L-60,499L18,392Z" fill="rgb(128,38,93)" stroke="rgb(128,38,93)" stroke-width="1.51"></path><path d="M-115,116L-121,196L-67,131Z" fill="rgb(213,121,81)" stroke="rgb(213,121,81)" stroke-width="1.51"></path><path d="M282,-135L80,-132L190,-67Z" fill="rgb(211,104,67)" stroke="rgb(211,104,67)" stroke-width="1.51"></path><path d="M726,2L684,-90L657,-14Z" fill="rgb(128,38,93)" stroke="rgb(128,38,93)" stroke-width="1.51"></path><path d="M630,-93L684,-90L569,-132Z" fill="rgb(128,38,93)" stroke="rgb(128,38,93)" stroke-width="1.51"></path><path d="M-84,366L-81,407L-38,401Z" fill="rgb(131,47,96)" stroke="rgb(131,47,96)" stroke-width="1.51"></path><path d="M-67,131L-121,196L-20,165Z" fill="rgb(215,130,90)" stroke="rgb(215,130,90)" stroke-width="1.51"></path><path d="M-90,282L-146,481L-84,366Z" fill="rgb(136,62,100)" stroke="rgb(136,62,100)" stroke-width="1.51"></path><path d="M-84,366L-146,481L-81,407Z" fill="rgb(128,38,93)" stroke="rgb(128,38,93)" stroke-width="1.51"></path><path d="M-115,116L-67,131L-5,27Z" fill="rgb(206,77,56)" stroke="rgb(206,77,56)" stroke-width="1.51"></path><path d="M80,-132L22,-114L50,-2Z" fill="rgb(186,25,39)" stroke="rgb(186,25,39)" stroke-width="1.51"></path><path d="M-142,21L-115,116L-5,27Z" fill="rgb(195,44,44)" stroke="rgb(195,44,44)" stroke-width="1.51"></path><path d="M741,412L745,521L731,48Z" fill="rgb(83,107,177)" stroke="rgb(83,107,177)" stroke-width="1.51"></path><path d="M589,521L745,521L634,470Z" fill="rgb(49,54,149)" stroke="rgb(49,54,149)" stroke-width="1.51"></path><path d="M46,526L745,521L589,521Z" fill="rgb(97,118,183)" stroke="rgb(97,118,183)" stroke-width="1.51"></path><path d="M-81,407L-60,499L-38,401Z" fill="rgb(128,38,93)" stroke="rgb(128,38,93)" stroke-width="1.51"></path><path d="M22,-114L-68,-52L50,-2Z" fill="rgb(165,0,38)" stroke="rgb(165,0,38)" stroke-width="1.51"></path><path d="M22,-114L-41,-105L-68,-52Z" fill="rgb(165,0,38)" stroke="rgb(165,0,38)" stroke-width="1.51"></path><path d="M80,-132L-41,-105L22,-114Z" fill="rgb(173,11,39)" stroke="rgb(173,11,39)" stroke-width="1.51"></path><path d="M-41,-105L-98,-59L-68,-52Z" fill="rgb(165,0,38)" stroke="rgb(165,0,38)" stroke-width="1.51"></path><path d="M-68,-52L-142,21L-5,27Z" fill="rgb(165,0,38)" stroke="rgb(165,0,38)" stroke-width="1.51"></path><path d="M-115,116L-142,21L-121,196Z" fill="rgb(209,95,63)" stroke="rgb(209,95,63)" stroke-width="1.51"></path><path d="M-98,-59L-142,21L-68,-52Z" fill="rgb(165,0,38)" stroke="rgb(165,0,38)" stroke-width="1.51"></path><path d="M-81,407L-146,481L-60,499Z" fill="rgb(128,38,93)" stroke="rgb(128,38,93)" stroke-width="1.51"></path><path d="M-60,499L-146,481L46,526Z" fill="rgb(128,38,93)" stroke="rgb(128,38,93)" stroke-width="1.51"></path><path d="M-121,196L-146,481L-90,282Z" fill="rgb(164,106,118)" stroke="rgb(164,106,118)" stroke-width="1.51"></path><path d="M-142,21L-146,481L-121,196Z" fill="rgb(210,139,131)" stroke="rgb(210,139,131)" stroke-width="1.51"></path><path d="M-98,-59L-126,-106L-142,21Z" fill="rgb(165,0,38)" stroke="rgb(165,0,38)" stroke-width="1.51"></path><path d="M-41,-105L-126,-106L-98,-59Z" fill="rgb(165,0,38)" stroke="rgb(165,0,38)" stroke-width="1.51"></path><path d="M80,-132L-126,-106L-41,-105Z" fill="rgb(165,0,38)" stroke="rgb(165,0,38)" stroke-width="1.51"></path></svg>