<svg width="600" height="400" xmlns="http://www.w3.org/2000/svg"><path d="M267,215L198,277L275,276Z" fill="rgb(122,195,197)" stroke="rgb(122,195,197)" stroke-width="1.51"></path><path d="M267,215L201,190L198,277Z" fill="rgb(139,206,193)" stroke="rgb(139,206,193)" stroke-width="1.51"></path><path d="M275,276L343,272L267,215Z" fill="rgb(104,190,202)" stroke="rgb(104,190,202)" stroke-width="1.51"></path><path d="M198,277L260,361L275,276Z" fill="rgb(111,176,187)" stroke="rgb(111,176,187)" stroke-width="1.51"></path><path d="M275,276L343,358L343,272Z" fill="rgb(83,167,195)" stroke="rgb(83,167,195)" stroke-width="1.51"></path><path d="M117,277L179,343L198,277Z" fill="rgb(134,185,193)" stroke="rgb(134,185,193)" stroke-width="1.51"></path><path d="M179,343L260,361L198,277Z" fill="rgb(118,170,183)" stroke="rgb(118,170,183)" stroke-width="1.51"></path><path d="M267,215L256,131L201,190Z" fill="rgb(152,214,187)" stroke="rgb(152,214,187)" stroke-width="1.51"></path><path d="M343,272L347,211L267,215Z" fill="rgb(105,193,203)" stroke="rgb(105,193,203)" stroke-width="1.51"></path><path d="M347,211L256,131L267,215Z" fill="rgb(134,207,193)" stroke="rgb(134,207,193)" stroke-width="1.51"></path><path d="M201,190L125,201L198,277Z" fill="rgb(153,211,198)" stroke="rgb(153,211,198)" stroke-width="1.51"></path><path d="M124,130L125,201L201,190Z" fill="rgb(177,224,193)" stroke="rgb(177,224,193)" stroke-width="1.51"></path><path d="M125,201L117,277L198,277Z" fill="rgb(150,206,205)" stroke="rgb(150,206,205)" stroke-width="1.51"></path><path d="M256,131L194,113L201,190Z" fill="rgb(172,223,183)" stroke="rgb(172,223,183)" stroke-width="1.51"></path><path d="M170,420L261,419L260,361Z" fill="rgb(102,138,157)" stroke="rgb(102,138,157)" stroke-width="1.51"></path><path d="M117,277L120,339L179,343Z" fill="rgb(136,179,193)" stroke="rgb(136,179,193)" stroke-width="1.51"></path><path d="M260,361L343,358L275,276Z" fill="rgb(89,160,188)" stroke="rgb(89,160,188)" stroke-width="1.51"></path><path d="M415,274L398,201L347,211Z" fill="rgb(88,181,207)" stroke="rgb(88,181,207)" stroke-width="1.51"></path><path d="M194,113L124,130L201,190Z" fill="rgb(183,227,187)" stroke="rgb(183,227,187)" stroke-width="1.51"></path><path d="M125,201L45,203L117,277Z" fill="rgb(165,215,209)" stroke="rgb(165,215,209)" stroke-width="1.51"></path><path d="M347,211L348,115L256,131Z" fill="rgb(143,209,191)" stroke="rgb(143,209,191)" stroke-width="1.51"></path><path d="M415,274L347,211L343,272Z" fill="rgb(80,179,210)" stroke="rgb(80,179,210)" stroke-width="1.51"></path><path d="M260,361L337,414L343,358Z" fill="rgb(76,138,174)" stroke="rgb(76,138,174)" stroke-width="1.51"></path><path d="M170,420L260,361L179,343Z" fill="rgb(113,151,170)" stroke="rgb(113,151,170)" stroke-width="1.51"></path><path d="M256,131L249,62L194,113Z" fill="rgb(184,227,189)" stroke="rgb(184,227,189)" stroke-width="1.51"></path><path d="M398,201L348,115L347,211Z" fill="rgb(120,197,199)" stroke="rgb(120,197,199)" stroke-width="1.51"></path><path d="M413,350L415,274L343,272Z" fill="rgb(59,156,199)" stroke="rgb(59,156,199)" stroke-width="1.51"></path><path d="M120,339L170,420L179,343Z" fill="rgb(125,158,178)" stroke="rgb(125,158,178)" stroke-width="1.51"></path><path d="M194,113L198,60L124,130Z" fill="rgb(199,233,194)" stroke="rgb(199,233,194)" stroke-width="1.51"></path><path d="M320,57L249,62L256,131Z" fill="rgb(176,224,198)" stroke="rgb(176,224,198)" stroke-width="1.51"></path><path d="M261,419L337,414L260,361Z" fill="rgb(83,133,162)" stroke="rgb(83,133,162)" stroke-width="1.51"></path><path d="M343,358L413,350L343,272Z" fill="rgb(62,151,195)" stroke="rgb(62,151,195)" stroke-width="1.51"></path><path d="M249,62L198,60L194,113Z" fill="rgb(194,231,195)" stroke="rgb(194,231,195)" stroke-width="1.51"></path><path d="M124,130L45,203L125,201Z" fill="rgb(182,226,201)" stroke="rgb(182,226,201)" stroke-width="1.51"></path><path d="M117,277L41,288L120,339Z" fill="rgb(145,188,203)" stroke="rgb(145,188,203)" stroke-width="1.51"></path><path d="M32,133L45,203L124,130Z" fill="rgb(195,232,202)" stroke="rgb(195,232,202)" stroke-width="1.51"></path><path d="M45,203L41,288L117,277Z" fill="rgb(160,208,215)" stroke="rgb(160,208,215)" stroke-width="1.51"></path><path d="M120,339L122,438L170,420Z" fill="rgb(123,145,166)" stroke="rgb(123,145,166)" stroke-width="1.51"></path><path d="M399,430L413,350L343,358Z" fill="rgb(49,126,177)" stroke="rgb(49,126,177)" stroke-width="1.51"></path><path d="M348,115L320,57L256,131Z" fill="rgb(164,218,198)" stroke="rgb(164,218,198)" stroke-width="1.51"></path><path d="M249,62L261,-31L198,60Z" fill="rgb(198,233,205)" stroke="rgb(198,233,205)" stroke-width="1.51"></path><path d="M401,43L320,57L348,115Z" fill="rgb(160,212,208)" stroke="rgb(160,212,208)" stroke-width="1.51"></path><path d="M37,356L122,438L120,339Z" fill="rgb(132,157,182)" stroke="rgb(132,157,182)" stroke-width="1.51"></path><path d="M203,517L267,499L261,419Z" fill="rgb(98,136,158)" stroke="rgb(98,136,158)" stroke-width="1.51"></path><path d="M334,497L399,430L337,414Z" fill="rgb(58,122,168)" stroke="rgb(58,122,168)" stroke-width="1.51"></path><path d="M41,288L37,356L120,339Z" fill="rgb(144,180,202)" stroke="rgb(144,180,202)" stroke-width="1.51"></path><path d="M-42,346L37,356L41,288Z" fill="rgb(152,182,208)" stroke="rgb(152,182,208)" stroke-width="1.51"></path><path d="M398,201L429,122L348,115Z" fill="rgb(130,195,195)" stroke="rgb(130,195,195)" stroke-width="1.51"></path><path d="M477,197L429,122L398,201Z" fill="rgb(108,180,192)" stroke="rgb(108,180,192)" stroke-width="1.51"></path><path d="M477,197L398,201L415,274Z" fill="rgb(82,171,200)" stroke="rgb(82,171,200)" stroke-width="1.51"></path><path d="M102,53L32,133L124,130Z" fill="rgb(211,238,205)" stroke="rgb(211,238,205)" stroke-width="1.51"></path><path d="M45,203L-31,277L41,288Z" fill="rgb(167,211,222)" stroke="rgb(167,211,222)" stroke-width="1.51"></path><path d="M111,-18L102,53L198,60Z" fill="rgb(220,241,214)" stroke="rgb(220,241,214)" stroke-width="1.51"></path><path d="M198,60L102,53L124,130Z" fill="rgb(209,237,202)" stroke="rgb(209,237,202)" stroke-width="1.51"></path><path d="M334,497L337,414L261,419Z" fill="rgb(75,129,164)" stroke="rgb(75,129,164)" stroke-width="1.51"></path><path d="M337,414L399,430L343,358Z" fill="rgb(57,121,168)" stroke="rgb(57,121,168)" stroke-width="1.51"></path><path d="M475,346L415,274L413,350Z" fill="rgb(42,135,188)" stroke="rgb(42,135,188)" stroke-width="1.51"></path><path d="M496,266L477,197L415,274Z" fill="rgb(63,157,199)" stroke="rgb(63,157,199)" stroke-width="1.51"></path><path d="M203,517L261,419L170,420Z" fill="rgb(107,139,158)" stroke="rgb(107,139,158)" stroke-width="1.51"></path><path d="M475,437L475,346L413,350Z" fill="rgb(29,109,168)" stroke="rgb(29,109,168)" stroke-width="1.51"></path><path d="M475,346L496,266L415,274Z" fill="rgb(43,139,190)" stroke="rgb(43,139,190)" stroke-width="1.51"></path><path d="M320,57L261,-31L249,62Z" fill="rgb(187,228,209)" stroke="rgb(187,228,209)" stroke-width="1.51"></path><path d="M429,122L401,43L348,115Z" fill="rgb(149,202,204)" stroke="rgb(149,202,204)" stroke-width="1.51"></path><path d="M480,113L401,43L429,122Z" fill="rgb(142,190,198)" stroke="rgb(142,190,198)" stroke-width="1.51"></path><path d="M267,499L334,497L261,419Z" fill="rgb(83,132,162)" stroke="rgb(83,132,162)" stroke-width="1.51"></path><path d="M-33,199L-31,277L45,203Z" fill="rgb(179,221,222)" stroke="rgb(179,221,222)" stroke-width="1.51"></path><path d="M122,438L203,517L170,420Z" fill="rgb(118,143,163)" stroke="rgb(118,143,163)" stroke-width="1.51"></path><path d="M267,499L203,517L334,497Z" fill="rgb(90,134,160)" stroke="rgb(90,134,160)" stroke-width="1.51"></path><path d="M109,500L203,517L122,438Z" fill="rgb(122,145,165)" stroke="rgb(122,145,165)" stroke-width="1.51"></path><path d="M32,133L-33,199L45,203Z" fill="rgb(195,231,213)" stroke="rgb(195,231,213)" stroke-width="1.51"></path><path d="M102,53L48,52L32,133Z" fill="rgb(220,242,214)" stroke="rgb(220,242,214)" stroke-width="1.51"></path><path d="M111,-18L48,52L102,53Z" fill="rgb(228,245,221)" stroke="rgb(228,245,221)" stroke-width="1.51"></path><path d="M-28,125L-33,199L32,133Z" fill="rgb(207,236,211)" stroke="rgb(207,236,211)" stroke-width="1.51"></path><path d="M477,197L480,113L429,122Z" fill="rgb(119,177,186)" stroke="rgb(119,177,186)" stroke-width="1.51"></path><path d="M554,195L480,113L477,197Z" fill="rgb(104,163,183)" stroke="rgb(104,163,183)" stroke-width="1.51"></path><path d="M37,356L32,442L122,438Z" fill="rgb(132,148,176)" stroke="rgb(132,148,176)" stroke-width="1.51"></path><path d="M-28,441L32,442L37,356Z" fill="rgb(139,151,182)" stroke="rgb(139,151,182)" stroke-width="1.51"></path><path d="M44,496L109,500L122,438Z" fill="rgb(128,147,172)" stroke="rgb(128,147,172)" stroke-width="1.51"></path><path d="M347,-39L261,-31L320,57Z" fill="rgb(186,227,219)" stroke="rgb(186,227,219)" stroke-width="1.51"></path><path d="M261,-31L181,-35L198,60Z" fill="rgb(211,238,211)" stroke="rgb(211,238,211)" stroke-width="1.51"></path><path d="M48,52L-28,125L32,133Z" fill="rgb(222,242,215)" stroke="rgb(222,242,215)" stroke-width="1.51"></path><path d="M-31,277L-42,346L41,288Z" fill="rgb(158,193,215)" stroke="rgb(158,193,215)" stroke-width="1.51"></path><path d="M-109,279L-42,346L-31,277Z" fill="rgb(159,194,215)" stroke="rgb(159,194,215)" stroke-width="1.51"></path><path d="M48,52L-47,62L-28,125Z" fill="rgb(230,245,223)" stroke="rgb(230,245,223)" stroke-width="1.51"></path><path d="M181,-35L111,-18L198,60Z" fill="rgb(222,243,216)" stroke="rgb(222,243,216)" stroke-width="1.51"></path><path d="M567,291L554,195L496,266Z" fill="rgb(52,136,187)" stroke="rgb(52,136,187)" stroke-width="1.51"></path><path d="M399,430L475,437L413,350Z" fill="rgb(36,106,162)" stroke="rgb(36,106,162)" stroke-width="1.51"></path><path d="M414,511L475,437L399,430Z" fill="rgb(36,106,162)" stroke="rgb(36,106,162)" stroke-width="1.51"></path><path d="M401,43L347,-39L320,57Z" fill="rgb(172,216,219)" stroke="rgb(172,216,219)" stroke-width="1.51"></path><path d="M261,-31L176,-100L181,-35Z" fill="rgb(212,239,212)" stroke="rgb(212,239,212)" stroke-width="1.51"></path><path d="M423,-29L347,-39L401,43Z" fill="rgb(169,211,224)" stroke="rgb(169,211,224)" stroke-width="1.51"></path><path d="M32,442L44,496L122,438Z" fill="rgb(132,148,176)" stroke="rgb(132,148,176)" stroke-width="1.51"></path><path d="M109,500L-28,517L203,517Z" fill="rgb(128,147,172)" stroke="rgb(128,147,172)" stroke-width="1.51"></path><path d="M-28,441L44,496L32,442Z" fill="rgb(138,151,182)" stroke="rgb(138,151,182)" stroke-width="1.51"></path><path d="M334,497L414,511L399,430Z" fill="rgb(49,117,168)" stroke="rgb(49,117,168)" stroke-width="1.51"></path><path d="M203,517L414,511L334,497Z" fill="rgb(73,128,165)" stroke="rgb(73,128,165)" stroke-width="1.51"></path><path d="M496,266L554,195L477,197Z" fill="rgb(74,152,189)" stroke="rgb(74,152,189)" stroke-width="1.51"></path><path d="M480,113L492,33L401,43Z" fill="rgb(144,187,201)" stroke="rgb(144,187,201)" stroke-width="1.51"></path><path d="M554,338L496,266L475,346Z" fill="rgb(28,120,180)" stroke="rgb(28,120,180)" stroke-width="1.51"></path><path d="M-42,346L-28,441L37,356Z" fill="rgb(144,161,193)" stroke="rgb(144,161,193)" stroke-width="1.51"></path><path d="M475,437L554,338L475,346Z" fill="rgb(18,100,164)" stroke="rgb(18,100,164)" stroke-width="1.51"></path><path d="M554,338L567,291L496,266Z" fill="rgb(31,118,177)" stroke="rgb(31,118,177)" stroke-width="1.51"></path><path d="M555,38L492,33L480,113Z" fill="rgb(139,174,196)" stroke="rgb(139,174,196)" stroke-width="1.51"></path><path d="M492,33L423,-29L401,43Z" fill="rgb(157,196,213)" stroke="rgb(157,196,213)" stroke-width="1.51"></path><path d="M37,-31L-47,62L48,52Z" fill="rgb(239,249,232)" stroke="rgb(239,249,232)" stroke-width="1.51"></path><path d="M-123,183L-109,279L-33,199Z" fill="rgb(181,223,221)" stroke="rgb(181,223,221)" stroke-width="1.51"></path><path d="M-33,199L-109,279L-31,277Z" fill="rgb(171,215,225)" stroke="rgb(171,215,225)" stroke-width="1.51"></path><path d="M111,-18L37,-31L48,52Z" fill="rgb(237,248,231)" stroke="rgb(237,248,231)" stroke-width="1.51"></path><path d="M108,-86L37,-31L111,-18Z" fill="rgb(234,247,228)" stroke="rgb(234,247,228)" stroke-width="1.51"></path><path d="M-42,346L-107,430L-28,441Z" fill="rgb(141,152,184)" stroke="rgb(141,152,184)" stroke-width="1.51"></path><path d="M-123,183L-33,199L-28,125Z" fill="rgb(200,233,213)" stroke="rgb(200,233,213)" stroke-width="1.51"></path><path d="M414,511L477,505L475,437Z" fill="rgb(28,99,159)" stroke="rgb(28,99,159)" stroke-width="1.51"></path><path d="M475,437L579,420L554,338Z" fill="rgb(9,81,148)" stroke="rgb(9,81,148)" stroke-width="1.51"></path><path d="M408,-112L340,-85L347,-39Z" fill="rgb(174,217,225)" stroke="rgb(174,217,225)" stroke-width="1.51"></path><path d="M347,-39L340,-85L261,-31Z" fill="rgb(184,226,219)" stroke="rgb(184,226,219)" stroke-width="1.51"></path><path d="M181,-35L108,-86L111,-18Z" fill="rgb(228,245,221)" stroke="rgb(228,245,221)" stroke-width="1.51"></path><path d="M277,-111L176,-100L261,-31Z" fill="rgb(204,235,212)" stroke="rgb(204,235,212)" stroke-width="1.51"></path><path d="M623,188L575,134L554,195Z" fill="rgb(94,139,164)" stroke="rgb(94,139,164)" stroke-width="1.51"></path><path d="M554,195L575,134L480,113Z" fill="rgb(111,157,175)" stroke="rgb(111,157,175)" stroke-width="1.51"></path><path d="M176,-100L108,-86L181,-35Z" fill="rgb(225,243,218)" stroke="rgb(225,243,218)" stroke-width="1.51"></path><path d="M340,-85L277,-111L261,-31Z" fill="rgb(190,229,217)" stroke="rgb(190,229,217)" stroke-width="1.51"></path><path d="M-111,116L-123,183L-28,125Z" fill="rgb(211,238,212)" stroke="rgb(211,238,212)" stroke-width="1.51"></path><path d="M-109,279L-120,335L-42,346Z" fill="rgb(155,186,212)" stroke="rgb(155,186,212)" stroke-width="1.51"></path><path d="M-123,183L-120,335L-109,279Z" fill="rgb(168,209,222)" stroke="rgb(168,209,222)" stroke-width="1.51"></path><path d="M-98,54L-111,116L-47,62Z" fill="rgb(230,246,223)" stroke="rgb(230,246,223)" stroke-width="1.51"></path><path d="M-47,62L-111,116L-28,125Z" fill="rgb(225,244,218)" stroke="rgb(225,244,218)" stroke-width="1.51"></path><path d="M555,38L485,-27L492,33Z" fill="rgb(148,177,205)" stroke="rgb(148,177,205)" stroke-width="1.51"></path><path d="M492,33L485,-27L423,-29Z" fill="rgb(157,190,213)" stroke="rgb(157,190,213)" stroke-width="1.51"></path><path d="M423,-29L408,-112L347,-39Z" fill="rgb(169,210,223)" stroke="rgb(169,210,223)" stroke-width="1.51"></path><path d="M340,-85L408,-112L277,-111Z" fill="rgb(179,221,222)" stroke="rgb(179,221,222)" stroke-width="1.51"></path><path d="M-28,441L-28,517L44,496Z" fill="rgb(141,152,184)" stroke="rgb(141,152,184)" stroke-width="1.51"></path><path d="M44,496L-28,517L109,500Z" fill="rgb(135,150,179)" stroke="rgb(135,150,179)" stroke-width="1.51"></path><path d="M-119,509L-28,517L-28,441Z" fill="rgb(141,152,184)" stroke="rgb(141,152,184)" stroke-width="1.51"></path><path d="M546,484L579,420L475,437Z" fill="rgb(10,81,148)" stroke="rgb(10,81,148)" stroke-width="1.51"></path><path d="M636,348L640,290L567,291Z" fill="rgb(26,98,158)" stroke="rgb(26,98,158)" stroke-width="1.51"></path><path d="M567,291L623,188L554,195Z" fill="rgb(67,131,172)" stroke="rgb(67,131,172)" stroke-width="1.51"></path><path d="M575,134L555,38L480,113Z" fill="rgb(129,164,183)" stroke="rgb(129,164,183)" stroke-width="1.51"></path><path d="M-35,-40L-98,54L-47,62Z" fill="rgb(241,250,234)" stroke="rgb(241,250,234)" stroke-width="1.51"></path><path d="M-35,-40L-47,62L37,-31Z" fill="rgb(247,252,240)" stroke="rgb(247,252,240)" stroke-width="1.51"></path><path d="M-120,335L-107,430L-42,346Z" fill="rgb(146,165,197)" stroke="rgb(146,165,197)" stroke-width="1.51"></path><path d="M477,505L546,484L475,437Z" fill="rgb(18,89,153)" stroke="rgb(18,89,153)" stroke-width="1.51"></path><path d="M640,290L623,188L567,291Z" fill="rgb(48,117,168)" stroke="rgb(48,117,168)" stroke-width="1.51"></path><path d="M575,134L625,61L555,38Z" fill="rgb(127,151,173)" stroke="rgb(127,151,173)" stroke-width="1.51"></path><path d="M36,-99L-35,-40L37,-31Z" fill="rgb(245,251,238)" stroke="rgb(245,251,238)" stroke-width="1.51"></path><path d="M479,-105L423,-29L485,-27Z" fill="rgb(157,191,214)" stroke="rgb(157,191,214)" stroke-width="1.51"></path><path d="M479,-105L408,-112L423,-29Z" fill="rgb(161,198,217)" stroke="rgb(161,198,217)" stroke-width="1.51"></path><path d="M108,-86L36,-99L37,-31Z" fill="rgb(238,249,231)" stroke="rgb(238,249,231)" stroke-width="1.51"></path><path d="M176,-100L36,-99L108,-86Z" fill="rgb(232,246,225)" stroke="rgb(232,246,225)" stroke-width="1.51"></path><path d="M-29,-106L36,-99L176,-100Z" fill="rgb(238,249,231)" stroke="rgb(238,249,231)" stroke-width="1.51"></path><path d="M636,348L567,291L554,338Z" fill="rgb(22,96,159)" stroke="rgb(22,96,159)" stroke-width="1.51"></path><path d="M701,126L625,125L623,188Z" fill="rgb(105,139,157)" stroke="rgb(105,139,157)" stroke-width="1.51"></path><path d="M623,188L625,125L575,134Z" fill="rgb(104,138,156)" stroke="rgb(104,138,156)" stroke-width="1.51"></path><path d="M579,420L636,348L554,338Z" fill="rgb(9,79,145)" stroke="rgb(9,79,145)" stroke-width="1.51"></path><path d="M625,432L636,348L579,420Z" fill="rgb(8,64,129)" stroke="rgb(8,64,129)" stroke-width="1.51"></path><path d="M623,500L625,432L579,420Z" fill="rgb(8,64,129)" stroke="rgb(8,64,129)" stroke-width="1.51"></path><path d="M557,-43L485,-27L555,38Z" fill="rgb(149,172,204)" stroke="rgb(149,172,204)" stroke-width="1.51"></path><path d="M556,-95L479,-105L485,-27Z" fill="rgb(152,180,208)" stroke="rgb(152,180,208)" stroke-width="1.51"></path><path d="M625,125L625,61L575,134Z" fill="rgb(119,143,163)" stroke="rgb(119,143,163)" stroke-width="1.51"></path><path d="M703,65L625,61L625,125Z" fill="rgb(125,146,167)" stroke="rgb(125,146,167)" stroke-width="1.51"></path><path d="M622,-22L557,-43L555,38Z" fill="rgb(143,158,190)" stroke="rgb(143,158,190)" stroke-width="1.51"></path><path d="M-123,183L-119,509L-120,335Z" fill="rgb(151,177,208)" stroke="rgb(151,177,208)" stroke-width="1.51"></path><path d="M-120,335L-119,509L-107,430Z" fill="rgb(141,152,184)" stroke="rgb(141,152,184)" stroke-width="1.51"></path><path d="M-107,430L-119,509L-28,441Z" fill="rgb(141,152,184)" stroke="rgb(141,152,184)" stroke-width="1.51"></path><path d="M36,-99L-29,-106L-35,-40Z" fill="rgb(247,252,240)" stroke="rgb(247,252,240)" stroke-width="1.51"></path><path d="M-35,-40L-128,-31L-98,54Z" fill="rgb(247,252,240)" stroke="rgb(247,252,240)" stroke-width="1.51"></path><path d="M277,-111L-29,-106L176,-100Z" fill="rgb(227,244,220)" stroke="rgb(227,244,220)" stroke-width="1.51"></path><path d="M-121,-105L-128,-31L-35,-40Z" fill="rgb(247,252,240)" stroke="rgb(247,252,240)" stroke-width="1.51"></path><path d="M-98,54L-128,-31L-111,116Z" fill="rgb(237,248,230)" stroke="rgb(237,248,230)" stroke-width="1.51"></path><path d="M-111,116L-128,-31L-123,183Z" fill="rgb(228,245,221)" stroke="rgb(228,245,221)" stroke-width="1.51"></path><path d="M-123,183L-128,-31L-119,509Z" fill="rgb(181,223,221)" stroke="rgb(181,223,221)" stroke-width="1.51"></path><path d="M546,484L623,500L579,420Z" fill="rgb(9,68,134)" stroke="rgb(9,68,134)" stroke-width="1.51"></path><path d="M721,341L696,287L636,348Z" fill="rgb(21,92,155)" stroke="rgb(21,92,155)" stroke-width="1.51"></path><path d="M477,505L623,500L546,484Z" fill="rgb(9,77,143)" stroke="rgb(9,77,143)" stroke-width="1.51"></path><path d="M713,504L623,500L477,505Z" fill="rgb(8,64,129)" stroke="rgb(8,64,129)" stroke-width="1.51"></path><path d="M640,290L696,287L623,188Z" fill="rgb(49,117,168)" stroke="rgb(49,117,168)" stroke-width="1.51"></path><path d="M636,348L696,287L640,290Z" fill="rgb(27,98,158)" stroke="rgb(27,98,158)" stroke-width="1.51"></path><path d="M721,341L636,348L705,428Z" fill="rgb(9,75,141)" stroke="rgb(9,75,141)" stroke-width="1.51"></path><path d="M625,-83L556,-95L557,-43Z" fill="rgb(143,158,190)" stroke="rgb(143,158,190)" stroke-width="1.51"></path><path d="M557,-43L556,-95L485,-27Z" fill="rgb(149,172,204)" stroke="rgb(149,172,204)" stroke-width="1.51"></path><path d="M625,61L622,-22L555,38Z" fill="rgb(135,150,179)" stroke="rgb(135,150,179)" stroke-width="1.51"></path><path d="M715,-15L622,-22L625,61Z" fill="rgb(139,151,183)" stroke="rgb(139,151,183)" stroke-width="1.51"></path><path d="M719,188L701,126L623,188Z" fill="rgb(96,135,158)" stroke="rgb(96,135,158)" stroke-width="1.51"></path><path d="M696,287L719,188L623,188Z" fill="rgb(68,126,165)" stroke="rgb(68,126,165)" stroke-width="1.51"></path><path d="M696,287L721,341L719,188Z" fill="rgb(42,111,165)" stroke="rgb(42,111,165)" stroke-width="1.51"></path><path d="M705,428L636,348L625,432Z" fill="rgb(8,64,129)" stroke="rgb(8,64,129)" stroke-width="1.51"></path><path d="M623,500L705,428L625,432Z" fill="rgb(8,64,129)" stroke="rgb(8,64,129)" stroke-width="1.51"></path><path d="M701,126L703,65L625,125Z" fill="rgb(119,144,163)" stroke="rgb(119,144,163)" stroke-width="1.51"></path><path d="M622,-22L625,-83L557,-43Z" fill="rgb(141,152,184)" stroke="rgb(141,152,184)" stroke-width="1.51"></path><path d="M719,188L703,65L701,126Z" fill="rgb(112,141,160)" stroke="rgb(112,141,160)" stroke-width="1.51"></path><path d="M-29,-106L-121,-105L-35,-40Z" fill="rgb(247,252,240)" stroke="rgb(247,252,240)" stroke-width="1.51"></path><path d="M277,-111L-121,-105L-29,-106Z" fill="rgb(241,250,234)" stroke="rgb(241,250,234)" stroke-width="1.51"></path><path d="M715,-15L625,-83L622,-22Z" fill="rgb(141,152,184)" stroke="rgb(141,152,184)" stroke-width="1.51"></path><path d="M623,500L713,504L705,428Z" fill="rgb(8,64,129)" stroke="rgb(8,64,129)" stroke-width="1.51"></path><path d="M705,428L713,504L721,341Z" fill="rgb(8,64,129)" stroke="rgb(8,64,129)" stroke-width="1.51"></path><path d="M414,511L713,504L477,505Z" fill="rgb(10,81,147)" stroke="rgb(10,81,147)" stroke-width="1.51"></path><path d="M203,517L713,504L414,511Z" fill="rgb(32,102,160)" stroke="rgb(32,102,160)" stroke-width="1.51"></path><path d="M703,65L715,-15L625,61Z" fill="rgb(133,149,177)" stroke="rgb(133,149,177)" stroke-width="1.51"></path><path d="M719,188L715,-15L703,65Z" fill="rgb(125,146,168)" stroke="rgb(125,146,168)" stroke-width="1.51"></path><path d="M715,-15L728,-109L625,-83Z" fill="rgb(141,152,184)" stroke="rgb(141,152,184)" stroke-width="1.51"></path><path d="M625,-83L728,-109L556,-95Z" fill="rgb(141,152,184)" stroke="rgb(141,152,184)" stroke-width="1.51"></path><path d="M556,-95L728,-109L479,-105Z" fill="rgb(142,155,188)" stroke="rgb(142,155,188)" stroke-width="1.51"></path><path d="M479,-105L728,-109L408,-112Z" fill="rgb(148,171,202)" stroke="rgb(148,171,202)" stroke-width="1.51"></path><path d="M719,188L728,-109L715,-15Z" fill="rgb(136,150,180)" stroke="rgb(136,150,180)" stroke-width="1.51"></path><path d="M721,341L728,-109L719,188Z" fill="rgb(107,139,158)" stroke="rgb(107,139,158)" stroke-width="1.51"></path></svg>