<svg width="600" height="400" xmlns="http://www.w3.org/2000/svg"><path d="M274,210L190,204L249,271Z" fill="rgb(250,150,102)" stroke="rgb(250,150,102)" stroke-width="1.51"></path><path d="M190,204L179,263L249,271Z" fill="rgb(249,150,105)" stroke="rgb(249,150,105)" stroke-width="1.51"></path><path d="M274,210L267,144L190,204Z" fill="rgb(253,165,111)" stroke="rgb(253,165,111)" stroke-width="1.51"></path><path d="M190,204L118,187L179,263Z" fill="rgb(253,168,118)" stroke="rgb(253,168,118)" stroke-width="1.51"></path><path d="M267,144L165,143L190,204Z" fill="rgb(253,184,129)" stroke="rgb(253,184,129)" stroke-width="1.51"></path><path d="M249,271L336,278L274,210Z" fill="rgb(246,125,83)" stroke="rgb(246,125,83)" stroke-width="1.51"></path><path d="M274,210L356,218L267,144Z" fill="rgb(253,146,93)" stroke="rgb(253,146,93)" stroke-width="1.51"></path><path d="M165,143L118,187L190,204Z" fill="rgb(254,186,131)" stroke="rgb(254,186,131)" stroke-width="1.51"></path><path d="M336,278L356,218L274,210Z" fill="rgb(246,122,80)" stroke="rgb(246,122,80)" stroke-width="1.51"></path><path d="M249,271L275,346L336,278Z" fill="rgb(236,104,64)" stroke="rgb(236,104,64)" stroke-width="1.51"></path><path d="M198,369L275,346L249,271Z" fill="rgb(227,112,67)" stroke="rgb(227,112,67)" stroke-width="1.51"></path><path d="M118,187L104,285L179,263Z" fill="rgb(250,162,119)" stroke="rgb(250,162,119)" stroke-width="1.51"></path><path d="M179,263L198,369L249,271Z" fill="rgb(238,127,82)" stroke="rgb(238,127,82)" stroke-width="1.51"></path><path d="M104,285L198,369L179,263Z" fill="rgb(238,134,89)" stroke="rgb(238,134,89)" stroke-width="1.51"></path><path d="M356,218L340,110L267,144Z" fill="rgb(252,155,105)" stroke="rgb(252,155,105)" stroke-width="1.51"></path><path d="M267,144L187,65L165,143Z" fill="rgb(253,198,143)" stroke="rgb(253,198,143)" stroke-width="1.51"></path><path d="M165,143L93,144L118,187Z" fill="rgb(254,200,148)" stroke="rgb(254,200,148)" stroke-width="1.51"></path><path d="M118,187L51,255L104,285Z" fill="rgb(252,169,131)" stroke="rgb(252,169,131)" stroke-width="1.51"></path><path d="M120,68L93,144L165,143Z" fill="rgb(254,210,159)" stroke="rgb(254,210,159)" stroke-width="1.51"></path><path d="M336,278L418,291L356,218Z" fill="rgb(237,97,67)" stroke="rgb(237,97,67)" stroke-width="1.51"></path><path d="M275,346L358,330L336,278Z" fill="rgb(226,87,52)" stroke="rgb(226,87,52)" stroke-width="1.51"></path><path d="M335,405L358,330L275,346Z" fill="rgb(209,77,43)" stroke="rgb(209,77,43)" stroke-width="1.51"></path><path d="M340,110L282,71L267,144Z" fill="rgb(254,176,122)" stroke="rgb(254,176,122)" stroke-width="1.51"></path><path d="M282,71L187,65L267,144Z" fill="rgb(254,195,142)" stroke="rgb(254,195,142)" stroke-width="1.51"></path><path d="M418,291L400,187L356,218Z" fill="rgb(239,104,70)" stroke="rgb(239,104,70)" stroke-width="1.51"></path><path d="M356,218L400,187L340,110Z" fill="rgb(248,137,93)" stroke="rgb(248,137,93)" stroke-width="1.51"></path><path d="M104,285L92,334L198,369Z" fill="rgb(231,132,88)" stroke="rgb(231,132,88)" stroke-width="1.51"></path><path d="M51,255L92,334L104,285Z" fill="rgb(245,150,114)" stroke="rgb(245,150,114)" stroke-width="1.51"></path><path d="M37,177L51,255L118,187Z" fill="rgb(255,185,144)" stroke="rgb(255,185,144)" stroke-width="1.51"></path><path d="M93,144L37,177L118,187Z" fill="rgb(255,200,155)" stroke="rgb(255,200,155)" stroke-width="1.51"></path><path d="M187,65L120,68L165,143Z" fill="rgb(253,212,160)" stroke="rgb(253,212,160)" stroke-width="1.51"></path><path d="M358,330L418,291L336,278Z" fill="rgb(228,78,52)" stroke="rgb(228,78,52)" stroke-width="1.51"></path><path d="M33,103L37,177L93,144Z" fill="rgb(255,213,173)" stroke="rgb(255,213,173)" stroke-width="1.51"></path><path d="M282,71L264,-16L187,65Z" fill="rgb(255,205,163)" stroke="rgb(255,205,163)" stroke-width="1.51"></path><path d="M187,65L168,-17L120,68Z" fill="rgb(254,222,181)" stroke="rgb(254,222,181)" stroke-width="1.51"></path><path d="M340,110L327,48L282,71Z" fill="rgb(255,178,131)" stroke="rgb(255,178,131)" stroke-width="1.51"></path><path d="M403,59L327,48L340,110Z" fill="rgb(252,169,127)" stroke="rgb(252,169,127)" stroke-width="1.51"></path><path d="M246,443L335,405L275,346Z" fill="rgb(191,83,47)" stroke="rgb(191,83,47)" stroke-width="1.51"></path><path d="M358,330L407,367L418,291Z" fill="rgb(214,62,38)" stroke="rgb(214,62,38)" stroke-width="1.51"></path><path d="M198,369L246,443L275,346Z" fill="rgb(199,100,60)" stroke="rgb(199,100,60)" stroke-width="1.51"></path><path d="M179,440L246,443L198,369Z" fill="rgb(192,105,66)" stroke="rgb(192,105,66)" stroke-width="1.51"></path><path d="M104,444L179,440L198,369Z" fill="rgb(194,113,73)" stroke="rgb(194,113,73)" stroke-width="1.51"></path><path d="M400,187L430,129L340,110Z" fill="rgb(246,144,99)" stroke="rgb(246,144,99)" stroke-width="1.51"></path><path d="M501,192L430,129L400,187Z" fill="rgb(237,117,74)" stroke="rgb(237,117,74)" stroke-width="1.51"></path><path d="M335,405L407,367L358,330Z" fill="rgb(201,63,38)" stroke="rgb(201,63,38)" stroke-width="1.51"></path><path d="M92,334L104,444L198,369Z" fill="rgb(205,120,81)" stroke="rgb(205,120,81)" stroke-width="1.51"></path><path d="M51,255L34,348L92,334Z" fill="rgb(240,145,112)" stroke="rgb(240,145,112)" stroke-width="1.51"></path><path d="M-36,361L34,348L-62,291Z" fill="rgb(236,145,119)" stroke="rgb(236,145,119)" stroke-width="1.51"></path><path d="M120,68L33,103L93,144Z" fill="rgb(254,220,175)" stroke="rgb(254,220,175)" stroke-width="1.51"></path><path d="M37,177L-15,177L51,255Z" fill="rgb(255,191,155)" stroke="rgb(255,191,155)" stroke-width="1.51"></path><path d="M474,341L464,282L418,291Z" fill="rgb(213,46,29)" stroke="rgb(213,46,29)" stroke-width="1.51"></path><path d="M418,291L464,282L400,187Z" fill="rgb(230,83,56)" stroke="rgb(230,83,56)" stroke-width="1.51"></path><path d="M430,129L403,59L340,110Z" fill="rgb(247,154,109)" stroke="rgb(247,154,109)" stroke-width="1.51"></path><path d="M327,48L264,-16L282,71Z" fill="rgb(255,192,151)" stroke="rgb(255,192,151)" stroke-width="1.51"></path><path d="M120,68L13,60L33,103Z" fill="rgb(254,228,193)" stroke="rgb(254,228,193)" stroke-width="1.51"></path><path d="M323,-39L264,-16L327,48Z" fill="rgb(255,193,160)" stroke="rgb(255,193,160)" stroke-width="1.51"></path><path d="M52,439L104,444L92,334Z" fill="rgb(197,123,93)" stroke="rgb(197,123,93)" stroke-width="1.51"></path><path d="M202,523L278,488L246,443Z" fill="rgb(191,97,59)" stroke="rgb(191,97,59)" stroke-width="1.51"></path><path d="M33,103L-15,177L37,177Z" fill="rgb(255,214,178)" stroke="rgb(255,214,178)" stroke-width="1.51"></path><path d="M264,-16L168,-17L187,65Z" fill="rgb(255,218,183)" stroke="rgb(255,218,183)" stroke-width="1.51"></path><path d="M335,405L421,432L407,367Z" fill="rgb(180,52,33)" stroke="rgb(180,52,33)" stroke-width="1.51"></path><path d="M246,443L278,488L335,405Z" fill="rgb(190,83,47)" stroke="rgb(190,83,47)" stroke-width="1.51"></path><path d="M202,523L246,443L179,440Z" fill="rgb(192,105,66)" stroke="rgb(192,105,66)" stroke-width="1.51"></path><path d="M407,367L474,341L418,291Z" fill="rgb(206,44,26)" stroke="rgb(206,44,26)" stroke-width="1.51"></path><path d="M497,407L474,341L407,367Z" fill="rgb(183,25,14)" stroke="rgb(183,25,14)" stroke-width="1.51"></path><path d="M538,204L501,192L549,256Z" fill="rgb(213,78,42)" stroke="rgb(213,78,42)" stroke-width="1.51"></path><path d="M464,282L501,192L400,187Z" fill="rgb(231,89,55)" stroke="rgb(231,89,55)" stroke-width="1.51"></path><path d="M430,129L499,44L403,59Z" fill="rgb(242,144,103)" stroke="rgb(242,144,103)" stroke-width="1.51"></path><path d="M104,444L113,476L179,440Z" fill="rgb(195,117,80)" stroke="rgb(195,117,80)" stroke-width="1.51"></path><path d="M52,439L113,476L104,444Z" fill="rgb(197,122,91)" stroke="rgb(197,122,91)" stroke-width="1.51"></path><path d="M33,103L-49,101L-15,177Z" fill="rgb(255,223,190)" stroke="rgb(255,223,190)" stroke-width="1.51"></path><path d="M30,-43L13,60L120,68Z" fill="rgb(255,237,213)" stroke="rgb(255,237,213)" stroke-width="1.51"></path><path d="M34,348L52,439L92,334Z" fill="rgb(213,131,99)" stroke="rgb(213,131,99)" stroke-width="1.51"></path><path d="M-14,441L52,439L34,348Z" fill="rgb(199,129,105)" stroke="rgb(199,129,105)" stroke-width="1.51"></path><path d="M278,488L354,476L335,405Z" fill="rgb(187,72,41)" stroke="rgb(187,72,41)" stroke-width="1.51"></path><path d="M354,476L421,432L335,405Z" fill="rgb(182,58,37)" stroke="rgb(182,58,37)" stroke-width="1.51"></path><path d="M200,-86L121,-49L168,-17Z" fill="rgb(255,227,194)" stroke="rgb(255,227,194)" stroke-width="1.51"></path><path d="M396,-26L323,-39L327,48Z" fill="rgb(255,183,155)" stroke="rgb(255,183,155)" stroke-width="1.51"></path><path d="M403,59L396,-26L327,48Z" fill="rgb(254,172,141)" stroke="rgb(254,172,141)" stroke-width="1.51"></path><path d="M501,192L501,141L430,129Z" fill="rgb(231,117,73)" stroke="rgb(231,117,73)" stroke-width="1.51"></path><path d="M113,476L202,523L179,440Z" fill="rgb(193,112,73)" stroke="rgb(193,112,73)" stroke-width="1.51"></path><path d="M477,511L421,484L354,476Z" fill="rgb(175,41,25)" stroke="rgb(175,41,25)" stroke-width="1.51"></path><path d="M200,-86L168,-17L264,-16Z" fill="rgb(255,219,186)" stroke="rgb(255,219,186)" stroke-width="1.51"></path><path d="M168,-17L121,-49L120,68Z" fill="rgb(255,231,201)" stroke="rgb(255,231,201)" stroke-width="1.51"></path><path d="M-62,291L34,348L51,255Z" fill="rgb(247,155,128)" stroke="rgb(247,155,128)" stroke-width="1.51"></path><path d="M-100,191L-62,291L-15,177Z" fill="rgb(255,187,157)" stroke="rgb(255,187,157)" stroke-width="1.51"></path><path d="M-15,177L-62,291L51,255Z" fill="rgb(255,179,153)" stroke="rgb(255,179,153)" stroke-width="1.51"></path><path d="M471,-20L396,-26L403,59Z" fill="rgb(250,162,135)" stroke="rgb(250,162,135)" stroke-width="1.51"></path><path d="M13,60L-49,101L33,103Z" fill="rgb(255,232,202)" stroke="rgb(255,232,202)" stroke-width="1.51"></path><path d="M-60,63L-49,101L13,60Z" fill="rgb(255,234,207)" stroke="rgb(255,234,207)" stroke-width="1.51"></path><path d="M501,192L538,204L501,141Z" fill="rgb(221,99,56)" stroke="rgb(221,99,56)" stroke-width="1.51"></path><path d="M549,256L501,192L464,282Z" fill="rgb(216,70,42)" stroke="rgb(216,70,42)" stroke-width="1.51"></path><path d="M244,-96L264,-16L323,-39Z" fill="rgb(255,201,168)" stroke="rgb(255,201,168)" stroke-width="1.51"></path><path d="M244,-96L200,-86L264,-16Z" fill="rgb(255,213,180)" stroke="rgb(255,213,180)" stroke-width="1.51"></path><path d="M354,476L421,484L421,432Z" fill="rgb(178,48,30)" stroke="rgb(178,48,30)" stroke-width="1.51"></path><path d="M421,432L497,407L407,367Z" fill="rgb(171,30,19)" stroke="rgb(171,30,19)" stroke-width="1.51"></path><path d="M474,341L549,256L464,282Z" fill="rgb(206,43,25)" stroke="rgb(206,43,25)" stroke-width="1.51"></path><path d="M477,511L354,476L278,488Z" fill="rgb(182,58,37)" stroke="rgb(182,58,37)" stroke-width="1.51"></path><path d="M557,346L549,256L474,341Z" fill="rgb(191,23,11)" stroke="rgb(191,23,11)" stroke-width="1.51"></path><path d="M477,511L497,407L421,432Z" fill="rgb(167,22,13)" stroke="rgb(167,22,13)" stroke-width="1.51"></path><path d="M342,-109L244,-96L323,-39Z" fill="rgb(255,193,160)" stroke="rgb(255,193,160)" stroke-width="1.51"></path><path d="M113,476L43,499L202,523Z" fill="rgb(195,119,83)" stroke="rgb(195,119,83)" stroke-width="1.51"></path><path d="M52,439L43,499L113,476Z" fill="rgb(197,125,96)" stroke="rgb(197,125,96)" stroke-width="1.51"></path><path d="M-36,361L-14,441L34,348Z" fill="rgb(210,134,112)" stroke="rgb(210,134,112)" stroke-width="1.51"></path><path d="M-127,414L-14,441L-36,361Z" fill="rgb(200,131,111)" stroke="rgb(200,131,111)" stroke-width="1.51"></path><path d="M501,141L499,44L430,129Z" fill="rgb(233,132,86)" stroke="rgb(233,132,86)" stroke-width="1.51"></path><path d="M576,119L499,44L501,141Z" fill="rgb(223,123,77)" stroke="rgb(223,123,77)" stroke-width="1.51"></path><path d="M-14,441L43,499L52,439Z" fill="rgb(199,129,105)" stroke="rgb(199,129,105)" stroke-width="1.51"></path><path d="M-49,101L-100,191L-15,177Z" fill="rgb(255,214,180)" stroke="rgb(255,214,180)" stroke-width="1.51"></path><path d="M-62,291L-89,339L-36,361Z" fill="rgb(237,146,120)" stroke="rgb(237,146,120)" stroke-width="1.51"></path><path d="M-49,101L-132,124L-100,191Z" fill="rgb(255,220,186)" stroke="rgb(255,220,186)" stroke-width="1.51"></path><path d="M-21,-40L-60,63L13,60Z" fill="rgb(255,243,226)" stroke="rgb(255,243,226)" stroke-width="1.51"></path><path d="M121,-49L30,-43L120,68Z" fill="rgb(255,237,213)" stroke="rgb(255,237,213)" stroke-width="1.51"></path><path d="M24,-124L30,-43L121,-49Z" fill="rgb(255,241,222)" stroke="rgb(255,241,222)" stroke-width="1.51"></path><path d="M-123,281L-89,339L-62,291Z" fill="rgb(246,154,128)" stroke="rgb(246,154,128)" stroke-width="1.51"></path><path d="M499,44L471,-20L403,59Z" fill="rgb(243,149,118)" stroke="rgb(243,149,118)" stroke-width="1.51"></path><path d="M396,-26L342,-109L323,-39Z" fill="rgb(255,181,154)" stroke="rgb(255,181,154)" stroke-width="1.51"></path><path d="M200,-86L132,-105L121,-49Z" fill="rgb(255,229,197)" stroke="rgb(255,229,197)" stroke-width="1.51"></path><path d="M244,-96L132,-105L200,-86Z" fill="rgb(255,222,189)" stroke="rgb(255,222,189)" stroke-width="1.51"></path><path d="M497,407L557,346L474,341Z" fill="rgb(174,7,4)" stroke="rgb(174,7,4)" stroke-width="1.51"></path><path d="M423,-96L342,-109L396,-26Z" fill="rgb(254,172,147)" stroke="rgb(254,172,147)" stroke-width="1.51"></path><path d="M244,-96L342,-109L132,-105Z" fill="rgb(255,212,179)" stroke="rgb(255,212,179)" stroke-width="1.51"></path><path d="M-100,191L-123,281L-62,291Z" fill="rgb(255,174,149)" stroke="rgb(255,174,149)" stroke-width="1.51"></path><path d="M-14,441L-24,483L43,499Z" fill="rgb(200,131,110)" stroke="rgb(200,131,110)" stroke-width="1.51"></path><path d="M-97,501L-24,483L-14,441Z" fill="rgb(200,131,111)" stroke="rgb(200,131,111)" stroke-width="1.51"></path><path d="M-127,414L-36,361L-89,339Z" fill="rgb(217,137,112)" stroke="rgb(217,137,112)" stroke-width="1.51"></path><path d="M631,195L538,204L549,256Z" fill="rgb(197,73,42)" stroke="rgb(197,73,42)" stroke-width="1.51"></path><path d="M631,195L576,119L538,204Z" fill="rgb(197,93,55)" stroke="rgb(197,93,55)" stroke-width="1.51"></path><path d="M538,204L576,119L501,141Z" fill="rgb(215,107,63)" stroke="rgb(215,107,63)" stroke-width="1.51"></path><path d="M499,44L571,-14L471,-20Z" fill="rgb(232,142,115)" stroke="rgb(232,142,115)" stroke-width="1.51"></path><path d="M30,-43L-21,-40L13,60Z" fill="rgb(255,246,234)" stroke="rgb(255,246,234)" stroke-width="1.51"></path><path d="M24,-124L-21,-40L30,-43Z" fill="rgb(255,246,233)" stroke="rgb(255,246,233)" stroke-width="1.51"></path><path d="M202,523L477,511L278,488Z" fill="rgb(187,73,42)" stroke="rgb(187,73,42)" stroke-width="1.51"></path><path d="M421,484L477,511L421,432Z" fill="rgb(171,31,19)" stroke="rgb(171,31,19)" stroke-width="1.51"></path><path d="M497,407L557,440L557,346Z" fill="rgb(149,0,1)" stroke="rgb(149,0,1)" stroke-width="1.51"></path><path d="M468,-113L423,-96L471,-20Z" fill="rgb(246,154,128)" stroke="rgb(246,154,128)" stroke-width="1.51"></path><path d="M471,-20L423,-96L396,-26Z" fill="rgb(250,160,135)" stroke="rgb(250,160,135)" stroke-width="1.51"></path><path d="M-100,191L-132,124L-123,281Z" fill="rgb(255,195,161)" stroke="rgb(255,195,161)" stroke-width="1.51"></path><path d="M-60,63L-132,124L-49,101Z" fill="rgb(255,230,198)" stroke="rgb(255,230,198)" stroke-width="1.51"></path><path d="M-97,25L-132,124L-60,63Z" fill="rgb(255,235,209)" stroke="rgb(255,235,209)" stroke-width="1.51"></path><path d="M-21,-40L-97,25L-60,63Z" fill="rgb(255,244,230)" stroke="rgb(255,244,230)" stroke-width="1.51"></path><path d="M477,511L557,440L497,407Z" fill="rgb(156,6,4)" stroke="rgb(156,6,4)" stroke-width="1.51"></path><path d="M557,346L616,297L549,256Z" fill="rgb(179,27,16)" stroke="rgb(179,27,16)" stroke-width="1.51"></path><path d="M640,350L616,297L557,346Z" fill="rgb(159,11,7)" stroke="rgb(159,11,7)" stroke-width="1.51"></path><path d="M576,119L577,44L499,44Z" fill="rgb(215,127,89)" stroke="rgb(215,127,89)" stroke-width="1.51"></path><path d="M644,105L577,44L576,119Z" fill="rgb(195,117,79)" stroke="rgb(195,117,79)" stroke-width="1.51"></path><path d="M616,297L631,195L549,256Z" fill="rgb(183,57,36)" stroke="rgb(183,57,36)" stroke-width="1.51"></path><path d="M-123,281L-127,414L-89,339Z" fill="rgb(232,142,115)" stroke="rgb(232,142,115)" stroke-width="1.51"></path><path d="M-132,124L-127,414L-123,281Z" fill="rgb(251,166,141)" stroke="rgb(251,166,141)" stroke-width="1.51"></path><path d="M-21,-40L-107,-15L-97,25Z" fill="rgb(255,247,236)" stroke="rgb(255,247,236)" stroke-width="1.51"></path><path d="M132,-105L24,-124L121,-49Z" fill="rgb(255,237,213)" stroke="rgb(255,237,213)" stroke-width="1.51"></path><path d="M342,-109L24,-124L132,-105Z" fill="rgb(255,227,194)" stroke="rgb(255,227,194)" stroke-width="1.51"></path><path d="M624,424L640,350L557,346Z" fill="rgb(140,0,1)" stroke="rgb(140,0,1)" stroke-width="1.51"></path><path d="M477,511L559,480L557,440Z" fill="rgb(151,0,1)" stroke="rgb(151,0,1)" stroke-width="1.51"></path><path d="M342,-109L468,-113L24,-124Z" fill="rgb(255,201,167)" stroke="rgb(255,201,167)" stroke-width="1.51"></path><path d="M423,-96L468,-113L342,-109Z" fill="rgb(252,166,140)" stroke="rgb(252,166,140)" stroke-width="1.51"></path><path d="M578,-100L468,-113L471,-20Z" fill="rgb(234,144,117)" stroke="rgb(234,144,117)" stroke-width="1.51"></path><path d="M-100,-91L-107,-15L-21,-40Z" fill="rgb(255,247,236)" stroke="rgb(255,247,236)" stroke-width="1.51"></path><path d="M-97,25L-107,-15L-132,124Z" fill="rgb(255,240,220)" stroke="rgb(255,240,220)" stroke-width="1.51"></path><path d="M577,44L571,-14L499,44Z" fill="rgb(219,135,105)" stroke="rgb(219,135,105)" stroke-width="1.51"></path><path d="M635,-3L571,-14L577,44Z" fill="rgb(202,131,108)" stroke="rgb(202,131,108)" stroke-width="1.51"></path><path d="M-24,483L-97,501L43,499Z" fill="rgb(200,131,111)" stroke="rgb(200,131,111)" stroke-width="1.51"></path><path d="M43,499L-97,501L202,523Z" fill="rgb(198,127,100)" stroke="rgb(198,127,100)" stroke-width="1.51"></path><path d="M-127,414L-97,501L-14,441Z" fill="rgb(200,131,111)" stroke="rgb(200,131,111)" stroke-width="1.51"></path><path d="M624,424L557,346L557,440Z" fill="rgb(134,0,1)" stroke="rgb(134,0,1)" stroke-width="1.51"></path><path d="M616,297L693,219L631,195Z" fill="rgb(184,62,38)" stroke="rgb(184,62,38)" stroke-width="1.51"></path><path d="M709,138L644,105L631,195Z" fill="rgb(192,103,64)" stroke="rgb(192,103,64)" stroke-width="1.51"></path><path d="M631,195L644,105L576,119Z" fill="rgb(192,105,66)" stroke="rgb(192,105,66)" stroke-width="1.51"></path><path d="M559,480L624,424L557,440Z" fill="rgb(134,0,1)" stroke="rgb(134,0,1)" stroke-width="1.51"></path><path d="M24,-124L-62,-123L-21,-40Z" fill="rgb(255,247,236)" stroke="rgb(255,247,236)" stroke-width="1.51"></path><path d="M-62,-123L-100,-91L-21,-40Z" fill="rgb(255,247,236)" stroke="rgb(255,247,236)" stroke-width="1.51"></path><path d="M-107,-15L-100,-91L-132,124Z" fill="rgb(255,246,234)" stroke="rgb(255,246,234)" stroke-width="1.51"></path><path d="M644,105L645,27L577,44Z" fill="rgb(197,123,91)" stroke="rgb(197,123,91)" stroke-width="1.51"></path><path d="M571,-14L578,-100L471,-20Z" fill="rgb(224,139,113)" stroke="rgb(224,139,113)" stroke-width="1.51"></path><path d="M704,260L616,297L700,337Z" fill="rgb(170,28,17)" stroke="rgb(170,28,17)" stroke-width="1.51"></path><path d="M704,260L693,219L616,297Z" fill="rgb(180,52,33)" stroke="rgb(180,52,33)" stroke-width="1.51"></path><path d="M644,105L721,73L645,27Z" fill="rgb(196,121,88)" stroke="rgb(196,121,88)" stroke-width="1.51"></path><path d="M645,27L635,-3L577,44Z" fill="rgb(199,128,104)" stroke="rgb(199,128,104)" stroke-width="1.51"></path><path d="M693,219L709,138L631,195Z" fill="rgb(190,86,50)" stroke="rgb(190,86,50)" stroke-width="1.51"></path><path d="M700,337L616,297L640,350Z" fill="rgb(160,13,8)" stroke="rgb(160,13,8)" stroke-width="1.51"></path><path d="M635,-3L578,-100L571,-14Z" fill="rgb(203,132,111)" stroke="rgb(203,132,111)" stroke-width="1.51"></path><path d="M703,423L700,337L640,350Z" fill="rgb(142,0,1)" stroke="rgb(142,0,1)" stroke-width="1.51"></path><path d="M624,424L703,423L640,350Z" fill="rgb(127,0,0)" stroke="rgb(127,0,0)" stroke-width="1.51"></path><path d="M559,480L641,489L624,424Z" fill="rgb(127,0,0)" stroke="rgb(127,0,0)" stroke-width="1.51"></path><path d="M477,511L641,489L559,480Z" fill="rgb(141,0,1)" stroke="rgb(141,0,1)" stroke-width="1.51"></path><path d="M704,260L709,138L693,219Z" fill="rgb(188,76,43)" stroke="rgb(188,76,43)" stroke-width="1.51"></path><path d="M645,27L701,-39L635,-3Z" fill="rgb(200,131,111)" stroke="rgb(200,131,111)" stroke-width="1.51"></path><path d="M641,489L703,423L624,424Z" fill="rgb(127,0,0)" stroke="rgb(127,0,0)" stroke-width="1.51"></path><path d="M700,337L703,423L704,260Z" fill="rgb(156,6,4)" stroke="rgb(156,6,4)" stroke-width="1.51"></path><path d="M704,260L721,73L709,138Z" fill="rgb(191,99,61)" stroke="rgb(191,99,61)" stroke-width="1.51"></path><path d="M635,-3L630,-112L578,-100Z" fill="rgb(200,131,111)" stroke="rgb(200,131,111)" stroke-width="1.51"></path><path d="M709,138L721,73L644,105Z" fill="rgb(194,113,74)" stroke="rgb(194,113,74)" stroke-width="1.51"></path><path d="M703,423L721,73L704,260Z" fill="rgb(181,55,35)" stroke="rgb(181,55,35)" stroke-width="1.51"></path><path d="M701,-39L630,-112L635,-3Z" fill="rgb(200,131,111)" stroke="rgb(200,131,111)" stroke-width="1.51"></path><path d="M578,-100L630,-112L468,-113Z" fill="rgb(217,136,112)" stroke="rgb(217,136,112)" stroke-width="1.51"></path><path d="M468,-113L630,-112L24,-124Z" fill="rgb(255,176,151)" stroke="rgb(255,176,151)" stroke-width="1.51"></path><path d="M202,523L692,508L477,511Z" fill="rgb(168,24,15)" stroke="rgb(168,24,15)" stroke-width="1.51"></path><path d="M477,511L692,508L641,489Z" fill="rgb(127,0,0)" stroke="rgb(127,0,0)" stroke-width="1.51"></path><path d="M641,489L692,508L703,423Z" fill="rgb(127,0,0)" stroke="rgb(127,0,0)" stroke-width="1.51"></path><path d="M721,73L701,-39L645,27Z" fill="rgb(199,128,104)" stroke="rgb(199,128,104)" stroke-width="1.51"></path><path d="M721,73L706,-101L701,-39Z" fill="rgb(200,131,111)" stroke="rgb(200,131,111)" stroke-width="1.51"></path><path d="M701,-39L706,-101L630,-112Z" fill="rgb(200,131,111)" stroke="rgb(200,131,111)" stroke-width="1.51"></path></svg>