<svg width="600" height="400" xmlns="http://www.w3.org/2000/svg"><path d="M273,205L322,181L259,115Z" fill="rgb(96,192,192)" stroke="rgb(96,192,192)" stroke-width="1.51"></path><path d="M322,181L348,137L259,115Z" fill="rgb(105,192,191)" stroke="rgb(105,192,191)" stroke-width="1.51"></path><path d="M259,115L198,194L273,205Z" fill="rgb(110,197,190)" stroke="rgb(110,197,190)" stroke-width="1.51"></path><path d="M259,115L176,124L198,194Z" fill="rgb(139,209,186)" stroke="rgb(139,209,186)" stroke-width="1.51"></path><path d="M329,36L274,47L259,115Z" fill="rgb(162,214,187)" stroke="rgb(162,214,187)" stroke-width="1.51"></path><path d="M259,115L175,59L176,124Z" fill="rgb(176,223,183)" stroke="rgb(176,223,183)" stroke-width="1.51"></path><path d="M348,137L329,36L259,115Z" fill="rgb(144,205,188)" stroke="rgb(144,205,188)" stroke-width="1.51"></path><path d="M322,181L406,203L348,137Z" fill="rgb(77,173,192)" stroke="rgb(77,173,192)" stroke-width="1.51"></path><path d="M348,137L412,66L329,36Z" fill="rgb(146,194,187)" stroke="rgb(146,194,187)" stroke-width="1.51"></path><path d="M339,285L406,203L322,181Z" fill="rgb(47,159,194)" stroke="rgb(47,159,194)" stroke-width="1.51"></path><path d="M273,205L339,285L322,181Z" fill="rgb(57,170,195)" stroke="rgb(57,170,195)" stroke-width="1.51"></path><path d="M190,260L281,292L273,205Z" fill="rgb(80,170,191)" stroke="rgb(80,170,191)" stroke-width="1.51"></path><path d="M198,194L190,260L273,205Z" fill="rgb(100,187,191)" stroke="rgb(100,187,191)" stroke-width="1.51"></path><path d="M113,259L190,260L198,194Z" fill="rgb(128,190,188)" stroke="rgb(128,190,188)" stroke-width="1.51"></path><path d="M281,292L339,285L273,205Z" fill="rgb(54,158,192)" stroke="rgb(54,158,192)" stroke-width="1.51"></path><path d="M274,47L175,59L259,115Z" fill="rgb(173,221,183)" stroke="rgb(173,221,183)" stroke-width="1.51"></path><path d="M203,-33L175,59L274,47Z" fill="rgb(193,230,192)" stroke="rgb(193,230,192)" stroke-width="1.51"></path><path d="M406,203L426,120L348,137Z" fill="rgb(89,167,188)" stroke="rgb(89,167,188)" stroke-width="1.51"></path><path d="M426,120L412,66L348,137Z" fill="rgb(128,178,185)" stroke="rgb(128,178,185)" stroke-width="1.51"></path><path d="M406,203L491,194L426,120Z" fill="rgb(77,146,182)" stroke="rgb(77,146,182)" stroke-width="1.51"></path><path d="M339,285L406,279L406,203Z" fill="rgb(31,139,189)" stroke="rgb(31,139,189)" stroke-width="1.51"></path><path d="M335,335L406,279L339,285Z" fill="rgb(40,123,181)" stroke="rgb(40,123,181)" stroke-width="1.51"></path><path d="M176,124L104,195L198,194Z" fill="rgb(152,212,186)" stroke="rgb(152,212,186)" stroke-width="1.51"></path><path d="M175,59L110,106L176,124Z" fill="rgb(199,233,180)" stroke="rgb(199,233,180)" stroke-width="1.51"></path><path d="M281,292L335,335L339,285Z" fill="rgb(52,131,181)" stroke="rgb(52,131,181)" stroke-width="1.51"></path><path d="M190,260L250,334L281,292Z" fill="rgb(85,148,180)" stroke="rgb(85,148,180)" stroke-width="1.51"></path><path d="M110,106L104,195L176,124Z" fill="rgb(176,223,183)" stroke="rgb(176,223,183)" stroke-width="1.51"></path><path d="M190,260L172,333L250,334Z" fill="rgb(104,147,176)" stroke="rgb(104,147,176)" stroke-width="1.51"></path><path d="M250,334L335,335L281,292Z" fill="rgb(65,130,178)" stroke="rgb(65,130,178)" stroke-width="1.51"></path><path d="M329,36L258,-28L274,47Z" fill="rgb(174,219,199)" stroke="rgb(174,219,199)" stroke-width="1.51"></path><path d="M175,59L125,48L110,106Z" fill="rgb(214,239,179)" stroke="rgb(214,239,179)" stroke-width="1.51"></path><path d="M339,-45L258,-28L329,36Z" fill="rgb(172,216,207)" stroke="rgb(172,216,207)" stroke-width="1.51"></path><path d="M120,-22L125,48L175,59Z" fill="rgb(225,243,187)" stroke="rgb(225,243,187)" stroke-width="1.51"></path><path d="M104,195L113,259L198,194Z" fill="rgb(144,202,188)" stroke="rgb(144,202,188)" stroke-width="1.51"></path><path d="M258,-28L203,-33L274,47Z" fill="rgb(188,227,203)" stroke="rgb(188,227,203)" stroke-width="1.51"></path><path d="M113,259L172,333L190,260Z" fill="rgb(129,168,180)" stroke="rgb(129,168,180)" stroke-width="1.51"></path><path d="M428,-44L339,-45L329,36Z" fill="rgb(165,201,206)" stroke="rgb(165,201,206)" stroke-width="1.51"></path><path d="M258,-28L265,-100L203,-33Z" fill="rgb(189,228,203)" stroke="rgb(189,228,203)" stroke-width="1.51"></path><path d="M406,279L491,194L406,203Z" fill="rgb(46,133,184)" stroke="rgb(46,133,184)" stroke-width="1.51"></path><path d="M426,120L496,61L412,66Z" fill="rgb(140,165,177)" stroke="rgb(140,165,177)" stroke-width="1.51"></path><path d="M491,194L500,144L426,120Z" fill="rgb(90,141,176)" stroke="rgb(90,141,176)" stroke-width="1.51"></path><path d="M412,66L428,-44L329,36Z" fill="rgb(160,191,196)" stroke="rgb(160,191,196)" stroke-width="1.51"></path><path d="M335,335L407,350L406,279Z" fill="rgb(40,108,175)" stroke="rgb(40,108,175)" stroke-width="1.51"></path><path d="M406,279L502,280L491,194Z" fill="rgb(37,114,178)" stroke="rgb(37,114,178)" stroke-width="1.51"></path><path d="M349,415L407,350L335,335Z" fill="rgb(41,96,160)" stroke="rgb(41,96,160)" stroke-width="1.51"></path><path d="M349,415L335,335L272,437Z" fill="rgb(43,98,143)" stroke="rgb(43,98,143)" stroke-width="1.51"></path><path d="M500,144L496,61L426,120Z" fill="rgb(126,151,174)" stroke="rgb(126,151,174)" stroke-width="1.51"></path><path d="M203,-33L120,-22L175,59Z" fill="rgb(220,241,199)" stroke="rgb(220,241,199)" stroke-width="1.51"></path><path d="M24,50L39,129L110,106Z" fill="rgb(222,242,183)" stroke="rgb(222,242,183)" stroke-width="1.51"></path><path d="M272,437L335,335L250,334Z" fill="rgb(63,112,160)" stroke="rgb(63,112,160)" stroke-width="1.51"></path><path d="M113,259L120,339L172,333Z" fill="rgb(136,157,174)" stroke="rgb(136,157,174)" stroke-width="1.51"></path><path d="M31,277L120,339L113,259Z" fill="rgb(150,170,178)" stroke="rgb(150,170,178)" stroke-width="1.51"></path><path d="M110,106L39,129L104,195Z" fill="rgb(188,227,182)" stroke="rgb(188,227,182)" stroke-width="1.51"></path><path d="M104,195L31,277L113,259Z" fill="rgb(156,197,187)" stroke="rgb(156,197,187)" stroke-width="1.51"></path><path d="M24,50L110,106L125,48Z" fill="rgb(228,244,178)" stroke="rgb(228,244,178)" stroke-width="1.51"></path><path d="M496,61L428,-44L412,66Z" fill="rgb(155,170,184)" stroke="rgb(155,170,184)" stroke-width="1.51"></path><path d="M482,344L502,280L406,279Z" fill="rgb(35,90,166)" stroke="rgb(35,90,166)" stroke-width="1.51"></path><path d="M491,194L553,215L500,144Z" fill="rgb(73,122,173)" stroke="rgb(73,122,173)" stroke-width="1.51"></path><path d="M344,-102L265,-100L339,-45Z" fill="rgb(171,214,206)" stroke="rgb(171,214,206)" stroke-width="1.51"></path><path d="M339,-45L265,-100L258,-28Z" fill="rgb(177,220,206)" stroke="rgb(177,220,206)" stroke-width="1.51"></path><path d="M203,-33L127,-83L120,-22Z" fill="rgb(227,244,198)" stroke="rgb(227,244,198)" stroke-width="1.51"></path><path d="M39,129L20,186L104,195Z" fill="rgb(180,223,190)" stroke="rgb(180,223,190)" stroke-width="1.51"></path><path d="M407,350L482,344L406,279Z" fill="rgb(38,90,166)" stroke="rgb(38,90,166)" stroke-width="1.51"></path><path d="M272,437L250,334L194,442Z" fill="rgb(71,109,138)" stroke="rgb(71,109,138)" stroke-width="1.51"></path><path d="M428,-44L344,-102L339,-45Z" fill="rgb(164,199,205)" stroke="rgb(164,199,205)" stroke-width="1.51"></path><path d="M499,408L482,344L407,350Z" fill="rgb(33,65,146)" stroke="rgb(33,65,146)" stroke-width="1.51"></path><path d="M20,186L31,277L104,195Z" fill="rgb(165,208,193)" stroke="rgb(165,208,193)" stroke-width="1.51"></path><path d="M39,129L-37,125L20,186Z" fill="rgb(195,231,200)" stroke="rgb(195,231,200)" stroke-width="1.51"></path><path d="M40,-10L24,50L125,48Z" fill="rgb(243,250,189)" stroke="rgb(243,250,189)" stroke-width="1.51"></path><path d="M500,144L569,113L496,61Z" fill="rgb(127,137,168)" stroke="rgb(127,137,168)" stroke-width="1.51"></path><path d="M502,280L553,215L491,194Z" fill="rgb(52,108,173)" stroke="rgb(52,108,173)" stroke-width="1.51"></path><path d="M579,284L553,215L502,280Z" fill="rgb(38,90,159)" stroke="rgb(38,90,159)" stroke-width="1.51"></path><path d="M194,442L250,334L172,333Z" fill="rgb(97,123,156)" stroke="rgb(97,123,156)" stroke-width="1.51"></path><path d="M120,-22L40,-10L125,48Z" fill="rgb(240,249,195)" stroke="rgb(240,249,195)" stroke-width="1.51"></path><path d="M199,-116L127,-83L203,-33Z" fill="rgb(215,239,200)" stroke="rgb(215,239,200)" stroke-width="1.51"></path><path d="M265,-100L199,-116L203,-33Z" fill="rgb(195,231,202)" stroke="rgb(195,231,202)" stroke-width="1.51"></path><path d="M344,-102L199,-116L265,-100Z" fill="rgb(182,223,205)" stroke="rgb(182,223,205)" stroke-width="1.51"></path><path d="M553,215L569,113L500,144Z" fill="rgb(86,121,163)" stroke="rgb(86,121,163)" stroke-width="1.51"></path><path d="M496,61L504,-41L428,-44Z" fill="rgb(158,162,191)" stroke="rgb(158,162,191)" stroke-width="1.51"></path><path d="M127,-83L40,-10L120,-22Z" fill="rgb(241,250,197)" stroke="rgb(241,250,197)" stroke-width="1.51"></path><path d="M349,415L397,428L407,350Z" fill="rgb(27,82,139)" stroke="rgb(27,82,139)" stroke-width="1.51"></path><path d="M338,485L397,428L349,415Z" fill="rgb(31,88,139)" stroke="rgb(31,88,139)" stroke-width="1.51"></path><path d="M130,441L172,333L120,339Z" fill="rgb(126,132,153)" stroke="rgb(126,132,153)" stroke-width="1.51"></path><path d="M130,441L194,442L172,333Z" fill="rgb(105,120,135)" stroke="rgb(105,120,135)" stroke-width="1.51"></path><path d="M572,47L504,-41L496,61Z" fill="rgb(154,146,176)" stroke="rgb(154,146,176)" stroke-width="1.51"></path><path d="M428,-44L410,-119L344,-102Z" fill="rgb(162,191,203)" stroke="rgb(162,191,203)" stroke-width="1.51"></path><path d="M344,-102L410,-119L199,-116Z" fill="rgb(171,213,206)" stroke="rgb(171,213,206)" stroke-width="1.51"></path><path d="M480,-95L410,-119L428,-44Z" fill="rgb(159,174,195)" stroke="rgb(159,174,195)" stroke-width="1.51"></path><path d="M569,113L572,47L496,61Z" fill="rgb(136,137,157)" stroke="rgb(136,137,157)" stroke-width="1.51"></path><path d="M24,50L-19,61L39,129Z" fill="rgb(233,247,194)" stroke="rgb(233,247,194)" stroke-width="1.51"></path><path d="M20,186L-33,270L31,277Z" fill="rgb(164,200,204)" stroke="rgb(164,200,204)" stroke-width="1.51"></path><path d="M40,-10L-19,61L24,50Z" fill="rgb(248,252,199)" stroke="rgb(248,252,199)" stroke-width="1.51"></path><path d="M-19,61L-37,125L39,129Z" fill="rgb(224,243,199)" stroke="rgb(224,243,199)" stroke-width="1.51"></path><path d="M55,438L130,441L120,339Z" fill="rgb(124,127,134)" stroke="rgb(124,127,134)" stroke-width="1.51"></path><path d="M559,-83L480,-95L504,-41Z" fill="rgb(157,150,186)" stroke="rgb(157,150,186)" stroke-width="1.51"></path><path d="M504,-41L480,-95L428,-44Z" fill="rgb(158,164,191)" stroke="rgb(158,164,191)" stroke-width="1.51"></path><path d="M-24,340L18,346L31,277Z" fill="rgb(158,160,188)" stroke="rgb(158,160,188)" stroke-width="1.51"></path><path d="M31,277L18,346L120,339Z" fill="rgb(154,158,176)" stroke="rgb(154,158,176)" stroke-width="1.51"></path><path d="M573,330L579,284L502,280Z" fill="rgb(33,70,147)" stroke="rgb(33,70,147)" stroke-width="1.51"></path><path d="M553,215L640,208L569,113Z" fill="rgb(63,108,145)" stroke="rgb(63,108,145)" stroke-width="1.51"></path><path d="M569,113L623,33L572,47Z" fill="rgb(129,130,139)" stroke="rgb(129,130,139)" stroke-width="1.51"></path><path d="M573,330L502,280L482,344Z" fill="rgb(38,67,156)" stroke="rgb(38,67,156)" stroke-width="1.51"></path><path d="M397,428L499,408L407,350Z" fill="rgb(25,66,132)" stroke="rgb(25,66,132)" stroke-width="1.51"></path><path d="M272,437L338,485L349,415Z" fill="rgb(41,97,140)" stroke="rgb(41,97,140)" stroke-width="1.51"></path><path d="M277,504L338,485L272,437Z" fill="rgb(48,102,141)" stroke="rgb(48,102,141)" stroke-width="1.51"></path><path d="M277,504L272,437L194,442Z" fill="rgb(68,108,138)" stroke="rgb(68,108,138)" stroke-width="1.51"></path><path d="M423,492L499,408L397,428Z" fill="rgb(23,64,128)" stroke="rgb(23,64,128)" stroke-width="1.51"></path><path d="M-52,195L-33,270L20,186Z" fill="rgb(170,211,207)" stroke="rgb(170,211,207)" stroke-width="1.51"></path><path d="M-37,125L-52,195L20,186Z" fill="rgb(186,225,204)" stroke="rgb(186,225,204)" stroke-width="1.51"></path><path d="M499,408L573,330L482,344Z" fill="rgb(34,51,142)" stroke="rgb(34,51,142)" stroke-width="1.51"></path><path d="M572,47L578,-17L504,-41Z" fill="rgb(150,142,173)" stroke="rgb(150,142,173)" stroke-width="1.51"></path><path d="M623,33L578,-17L572,47Z" fill="rgb(137,133,148)" stroke="rgb(137,133,148)" stroke-width="1.51"></path><path d="M192,517L277,504L194,442Z" fill="rgb(78,112,137)" stroke="rgb(78,112,137)" stroke-width="1.51"></path><path d="M-125,294L-24,340L-33,270Z" fill="rgb(158,170,193)" stroke="rgb(158,170,193)" stroke-width="1.51"></path><path d="M-33,270L-24,340L31,277Z" fill="rgb(159,172,195)" stroke="rgb(159,172,195)" stroke-width="1.51"></path><path d="M18,346L55,438L120,339Z" fill="rgb(142,137,153)" stroke="rgb(142,137,153)" stroke-width="1.51"></path><path d="M-42,414L55,438L18,346Z" fill="rgb(137,132,150)" stroke="rgb(137,132,150)" stroke-width="1.51"></path><path d="M130,441L192,517L194,442Z" fill="rgb(102,120,135)" stroke="rgb(102,120,135)" stroke-width="1.51"></path><path d="M40,-10L-56,-38L-19,61Z" fill="rgb(254,255,215)" stroke="rgb(254,255,215)" stroke-width="1.51"></path><path d="M127,-83L36,-111L40,-10Z" fill="rgb(247,252,199)" stroke="rgb(247,252,199)" stroke-width="1.51"></path><path d="M199,-116L36,-111L127,-83Z" fill="rgb(235,247,198)" stroke="rgb(235,247,198)" stroke-width="1.51"></path><path d="M579,284L640,208L553,215Z" fill="rgb(35,91,143)" stroke="rgb(35,91,143)" stroke-width="1.51"></path><path d="M651,283L640,208L579,284Z" fill="rgb(26,80,137)" stroke="rgb(26,80,137)" stroke-width="1.51"></path><path d="M338,485L423,492L397,428Z" fill="rgb(26,81,137)" stroke="rgb(26,81,137)" stroke-width="1.51"></path><path d="M653,330L579,284L573,330Z" fill="rgb(23,55,124)" stroke="rgb(23,55,124)" stroke-width="1.51"></path><path d="M277,504L423,492L338,485Z" fill="rgb(35,91,140)" stroke="rgb(35,91,140)" stroke-width="1.51"></path><path d="M653,111L623,33L569,113Z" fill="rgb(118,125,135)" stroke="rgb(118,125,135)" stroke-width="1.51"></path><path d="M621,-15L559,-83L578,-17Z" fill="rgb(141,135,158)" stroke="rgb(141,135,158)" stroke-width="1.51"></path><path d="M578,-17L559,-83L504,-41Z" fill="rgb(151,143,175)" stroke="rgb(151,143,175)" stroke-width="1.51"></path><path d="M480,-95L559,-83L410,-119Z" fill="rgb(158,160,190)" stroke="rgb(158,160,190)" stroke-width="1.51"></path><path d="M277,504L502,519L423,492Z" fill="rgb(26,76,135)" stroke="rgb(26,76,135)" stroke-width="1.51"></path><path d="M104,503L192,517L130,441Z" fill="rgb(114,124,135)" stroke="rgb(114,124,135)" stroke-width="1.51"></path><path d="M-37,125L-95,141L-52,195Z" fill="rgb(192,229,202)" stroke="rgb(192,229,202)" stroke-width="1.51"></path><path d="M-52,195L-114,202L-33,270Z" fill="rgb(169,209,206)" stroke="rgb(169,209,206)" stroke-width="1.51"></path><path d="M-98,62L-95,141L-37,125Z" fill="rgb(221,242,199)" stroke="rgb(221,242,199)" stroke-width="1.51"></path><path d="M-98,62L-37,125L-19,61Z" fill="rgb(234,247,198)" stroke="rgb(234,247,198)" stroke-width="1.51"></path><path d="M640,208L653,111L569,113Z" fill="rgb(81,112,137)" stroke="rgb(81,112,137)" stroke-width="1.51"></path><path d="M623,33L621,-15L578,-17Z" fill="rgb(137,132,152)" stroke="rgb(137,132,152)" stroke-width="1.51"></path><path d="M706,36L621,-15L623,33Z" fill="rgb(135,131,146)" stroke="rgb(135,131,146)" stroke-width="1.51"></path><path d="M55,438L104,503L130,441Z" fill="rgb(125,128,134)" stroke="rgb(125,128,134)" stroke-width="1.51"></path><path d="M24,491L104,503L55,438Z" fill="rgb(132,130,137)" stroke="rgb(132,130,137)" stroke-width="1.51"></path><path d="M-45,-91L-56,-38L40,-10Z" fill="rgb(255,255,217)" stroke="rgb(255,255,217)" stroke-width="1.51"></path><path d="M-56,-38L-98,62L-19,61Z" fill="rgb(250,253,206)" stroke="rgb(250,253,206)" stroke-width="1.51"></path><path d="M653,330L651,283L579,284Z" fill="rgb(22,61,127)" stroke="rgb(22,61,127)" stroke-width="1.51"></path><path d="M640,208L704,207L653,111Z" fill="rgb(62,106,139)" stroke="rgb(62,106,139)" stroke-width="1.51"></path><path d="M563,436L573,330L499,408Z" fill="rgb(21,39,114)" stroke="rgb(21,39,114)" stroke-width="1.51"></path><path d="M552,498L563,436L499,408Z" fill="rgb(20,38,112)" stroke="rgb(20,38,112)" stroke-width="1.51"></path><path d="M-98,62L-114,202L-95,141Z" fill="rgb(204,234,201)" stroke="rgb(204,234,201)" stroke-width="1.51"></path><path d="M-95,141L-114,202L-52,195Z" fill="rgb(182,223,205)" stroke="rgb(182,223,205)" stroke-width="1.51"></path><path d="M-56,-38L-106,-39L-98,62Z" fill="rgb(255,255,217)" stroke="rgb(255,255,217)" stroke-width="1.51"></path><path d="M36,-111L-45,-91L40,-10Z" fill="rgb(254,255,214)" stroke="rgb(254,255,214)" stroke-width="1.51"></path><path d="M652,432L653,330L573,330Z" fill="rgb(19,37,109)" stroke="rgb(19,37,109)" stroke-width="1.51"></path><path d="M706,263L704,207L640,208Z" fill="rgb(37,93,140)" stroke="rgb(37,93,140)" stroke-width="1.51"></path><path d="M-24,340L-42,414L18,346Z" fill="rgb(150,142,173)" stroke="rgb(150,142,173)" stroke-width="1.51"></path><path d="M-129,334L-42,414L-24,340Z" fill="rgb(152,143,176)" stroke="rgb(152,143,176)" stroke-width="1.51"></path><path d="M-42,414L24,491L55,438Z" fill="rgb(136,132,149)" stroke="rgb(136,132,149)" stroke-width="1.51"></path><path d="M104,503L-96,502L192,517Z" fill="rgb(132,130,136)" stroke="rgb(132,130,136)" stroke-width="1.51"></path><path d="M423,492L502,519L499,408Z" fill="rgb(23,54,124)" stroke="rgb(23,54,124)" stroke-width="1.51"></path><path d="M563,436L652,432L573,330Z" fill="rgb(9,29,90)" stroke="rgb(9,29,90)" stroke-width="1.51"></path><path d="M192,517L502,519L277,504Z" fill="rgb(40,96,140)" stroke="rgb(40,96,140)" stroke-width="1.51"></path><path d="M653,111L706,36L623,33Z" fill="rgb(127,128,134)" stroke="rgb(127,128,134)" stroke-width="1.51"></path><path d="M706,263L640,208L651,283Z" fill="rgb(27,84,138)" stroke="rgb(27,84,138)" stroke-width="1.51"></path><path d="M-114,202L-125,294L-33,270Z" fill="rgb(163,195,204)" stroke="rgb(163,195,204)" stroke-width="1.51"></path><path d="M-118,-93L-125,294L-114,202Z" fill="rgb(205,235,201)" stroke="rgb(205,235,201)" stroke-width="1.51"></path><path d="M704,207L707,121L653,111Z" fill="rgb(79,112,137)" stroke="rgb(79,112,137)" stroke-width="1.51"></path><path d="M-98,62L-118,-93L-114,202Z" fill="rgb(244,251,197)" stroke="rgb(244,251,197)" stroke-width="1.51"></path><path d="M-45,-91L-106,-39L-56,-38Z" fill="rgb(255,255,217)" stroke="rgb(255,255,217)" stroke-width="1.51"></path><path d="M502,519L552,498L499,408Z" fill="rgb(23,42,118)" stroke="rgb(23,42,118)" stroke-width="1.51"></path><path d="M653,330L706,263L651,283Z" fill="rgb(23,64,129)" stroke="rgb(23,64,129)" stroke-width="1.51"></path><path d="M704,207L727,353L707,121Z" fill="rgb(36,92,140)" stroke="rgb(36,92,140)" stroke-width="1.51"></path><path d="M727,353L706,263L653,330Z" fill="rgb(23,54,124)" stroke="rgb(23,54,124)" stroke-width="1.51"></path><path d="M621,-15L654,-82L559,-83Z" fill="rgb(137,132,152)" stroke="rgb(137,132,152)" stroke-width="1.51"></path><path d="M707,121L706,36L653,111Z" fill="rgb(116,124,134)" stroke="rgb(116,124,134)" stroke-width="1.51"></path><path d="M697,-86L654,-82L725,-39Z" fill="rgb(137,132,152)" stroke="rgb(137,132,152)" stroke-width="1.51"></path><path d="M559,-83L654,-82L410,-119Z" fill="rgb(153,144,178)" stroke="rgb(153,144,178)" stroke-width="1.51"></path><path d="M-125,294L-129,334L-24,340Z" fill="rgb(158,160,190)" stroke="rgb(158,160,190)" stroke-width="1.51"></path><path d="M-42,414L-52,485L24,491Z" fill="rgb(137,132,152)" stroke="rgb(137,132,152)" stroke-width="1.51"></path><path d="M-118,-93L-129,334L-125,294Z" fill="rgb(182,223,205)" stroke="rgb(182,223,205)" stroke-width="1.51"></path><path d="M625,517L652,432L563,436Z" fill="rgb(8,29,88)" stroke="rgb(8,29,88)" stroke-width="1.51"></path><path d="M-118,414L-52,485L-42,414Z" fill="rgb(137,132,152)" stroke="rgb(137,132,152)" stroke-width="1.51"></path><path d="M24,491L-96,502L104,503Z" fill="rgb(137,132,149)" stroke="rgb(137,132,149)" stroke-width="1.51"></path><path d="M-45,-91L-118,-93L-106,-39Z" fill="rgb(255,255,217)" stroke="rgb(255,255,217)" stroke-width="1.51"></path><path d="M-106,-39L-118,-93L-98,62Z" fill="rgb(255,255,217)" stroke="rgb(255,255,217)" stroke-width="1.51"></path><path d="M36,-111L-118,-93L-45,-91Z" fill="rgb(255,255,217)" stroke="rgb(255,255,217)" stroke-width="1.51"></path><path d="M-129,334L-118,414L-42,414Z" fill="rgb(142,136,160)" stroke="rgb(142,136,160)" stroke-width="1.51"></path><path d="M725,-39L654,-82L621,-15Z" fill="rgb(137,132,152)" stroke="rgb(137,132,152)" stroke-width="1.51"></path><path d="M654,-82L697,-86L410,-119Z" fill="rgb(141,135,157)" stroke="rgb(141,135,157)" stroke-width="1.51"></path><path d="M706,36L725,-39L621,-15Z" fill="rgb(137,132,152)" stroke="rgb(137,132,152)" stroke-width="1.51"></path><path d="M707,121L725,-39L706,36Z" fill="rgb(132,130,138)" stroke="rgb(132,130,138)" stroke-width="1.51"></path><path d="M727,353L725,-39L707,121Z" fill="rgb(80,112,137)" stroke="rgb(80,112,137)" stroke-width="1.51"></path><path d="M706,263L727,353L704,207Z" fill="rgb(25,73,133)" stroke="rgb(25,73,133)" stroke-width="1.51"></path><path d="M703,414L727,353L653,330Z" fill="rgb(18,37,108)" stroke="rgb(18,37,108)" stroke-width="1.51"></path><path d="M652,432L703,414L653,330Z" fill="rgb(10,31,92)" stroke="rgb(10,31,92)" stroke-width="1.51"></path><path d="M719,510L703,414L652,432Z" fill="rgb(8,29,88)" stroke="rgb(8,29,88)" stroke-width="1.51"></path><path d="M502,519L625,517L552,498Z" fill="rgb(16,35,104)" stroke="rgb(16,35,104)" stroke-width="1.51"></path><path d="M552,498L625,517L563,436Z" fill="rgb(12,32,95)" stroke="rgb(12,32,95)" stroke-width="1.51"></path><path d="M-118,414L-96,502L-52,485Z" fill="rgb(137,132,152)" stroke="rgb(137,132,152)" stroke-width="1.51"></path><path d="M-52,485L-96,502L24,491Z" fill="rgb(137,132,152)" stroke="rgb(137,132,152)" stroke-width="1.51"></path><path d="M625,517L719,510L652,432Z" fill="rgb(8,29,88)" stroke="rgb(8,29,88)" stroke-width="1.51"></path><path d="M703,414L719,510L727,353Z" fill="rgb(8,29,88)" stroke="rgb(8,29,88)" stroke-width="1.51"></path></svg>