<svg width="600" height="400" xmlns="http://www.w3.org/2000/svg"><path d="M262,200L262,125L188,199Z" fill="rgb(250,142,174)" stroke="rgb(250,142,174)" stroke-width="1.51"></path><path d="M262,125L187,125L188,199Z" fill="rgb(251,163,182)" stroke="rgb(251,163,182)" stroke-width="1.51"></path><path d="M262,200L337,200L262,125Z" fill="rgb(249,124,167)" stroke="rgb(249,124,167)" stroke-width="1.51"></path><path d="M188,199L187,274L262,200Z" fill="rgb(243,126,170)" stroke="rgb(243,126,170)" stroke-width="1.51"></path><path d="M262,200L262,275L337,200Z" fill="rgb(241,98,160)" stroke="rgb(241,98,160)" stroke-width="1.51"></path><path d="M112,199L187,274L188,199Z" fill="rgb(245,140,173)" stroke="rgb(245,140,173)" stroke-width="1.51"></path><path d="M262,125L262,50L187,125Z" fill="rgb(251,174,185)" stroke="rgb(251,174,185)" stroke-width="1.51"></path><path d="M337,200L337,124L262,125Z" fill="rgb(247,130,170)" stroke="rgb(247,130,170)" stroke-width="1.51"></path><path d="M337,124L262,50L262,125Z" fill="rgb(251,157,178)" stroke="rgb(251,157,178)" stroke-width="1.51"></path><path d="M187,274L262,275L262,200Z" fill="rgb(236,107,165)" stroke="rgb(236,107,165)" stroke-width="1.51"></path><path d="M187,125L112,199L188,199Z" fill="rgb(251,163,180)" stroke="rgb(251,163,180)" stroke-width="1.51"></path><path d="M112,125L112,199L187,125Z" fill="rgb(251,181,189)" stroke="rgb(251,181,189)" stroke-width="1.51"></path><path d="M112,49L112,125L187,125Z" fill="rgb(252,200,194)" stroke="rgb(252,200,194)" stroke-width="1.51"></path><path d="M262,50L188,49L187,125Z" fill="rgb(253,189,195)" stroke="rgb(253,189,195)" stroke-width="1.51"></path><path d="M112,199L113,274L187,274Z" fill="rgb(240,136,174)" stroke="rgb(240,136,174)" stroke-width="1.51"></path><path d="M187,350L262,350L262,275Z" fill="rgb(199,88,151)" stroke="rgb(199,88,151)" stroke-width="1.51"></path><path d="M337,124L337,50L262,50Z" fill="rgb(250,157,183)" stroke="rgb(250,157,183)" stroke-width="1.51"></path><path d="M262,50L262,-26L188,49Z" fill="rgb(254,194,205)" stroke="rgb(254,194,205)" stroke-width="1.51"></path><path d="M262,275L337,275L337,200Z" fill="rgb(232,76,155)" stroke="rgb(232,76,155)" stroke-width="1.51"></path><path d="M188,49L112,49L187,125Z" fill="rgb(253,201,198)" stroke="rgb(253,201,198)" stroke-width="1.51"></path><path d="M412,199L411,125L337,200Z" fill="rgb(232,94,159)" stroke="rgb(232,94,159)" stroke-width="1.51"></path><path d="M337,200L411,125L337,124Z" fill="rgb(239,116,167)" stroke="rgb(239,116,167)" stroke-width="1.51"></path><path d="M337,124L411,125L337,50Z" fill="rgb(241,136,173)" stroke="rgb(241,136,173)" stroke-width="1.51"></path><path d="M412,275L412,199L337,200Z" fill="rgb(224,65,152)" stroke="rgb(224,65,152)" stroke-width="1.51"></path><path d="M262,275L337,349L337,275Z" fill="rgb(208,60,142)" stroke="rgb(208,60,142)" stroke-width="1.51"></path><path d="M187,350L262,275L187,274Z" fill="rgb(213,100,154)" stroke="rgb(213,100,154)" stroke-width="1.51"></path><path d="M113,274L187,350L187,274Z" fill="rgb(215,114,158)" stroke="rgb(215,114,158)" stroke-width="1.51"></path><path d="M337,50L262,-26L262,50Z" fill="rgb(255,177,197)" stroke="rgb(255,177,197)" stroke-width="1.51"></path><path d="M188,49L188,-26L112,49Z" fill="rgb(254,214,211)" stroke="rgb(254,214,211)" stroke-width="1.51"></path><path d="M112,125L37,125L112,199Z" fill="rgb(252,190,198)" stroke="rgb(252,190,198)" stroke-width="1.51"></path><path d="M112,199L37,200L113,274Z" fill="rgb(247,155,186)" stroke="rgb(247,155,186)" stroke-width="1.51"></path><path d="M112,49L37,125L112,125Z" fill="rgb(253,209,204)" stroke="rgb(253,209,204)" stroke-width="1.51"></path><path d="M37,125L37,200L112,199Z" fill="rgb(253,182,198)" stroke="rgb(253,182,198)" stroke-width="1.51"></path><path d="M113,274L113,350L187,350Z" fill="rgb(202,115,160)" stroke="rgb(202,115,160)" stroke-width="1.51"></path><path d="M262,-26L188,-26L188,49Z" fill="rgb(254,206,213)" stroke="rgb(254,206,213)" stroke-width="1.51"></path><path d="M262,350L337,349L262,275Z" fill="rgb(198,67,144)" stroke="rgb(198,67,144)" stroke-width="1.51"></path><path d="M337,275L412,275L337,200Z" fill="rgb(224,58,152)" stroke="rgb(224,58,152)" stroke-width="1.51"></path><path d="M337,349L412,275L337,275Z" fill="rgb(200,39,139)" stroke="rgb(200,39,139)" stroke-width="1.51"></path><path d="M337,50L338,-25L262,-26Z" fill="rgb(254,175,200)" stroke="rgb(254,175,200)" stroke-width="1.51"></path><path d="M411,125L412,49L337,50Z" fill="rgb(237,138,177)" stroke="rgb(237,138,177)" stroke-width="1.51"></path><path d="M487,125L412,49L411,125Z" fill="rgb(219,120,161)" stroke="rgb(219,120,161)" stroke-width="1.51"></path><path d="M37,275L113,350L113,274Z" fill="rgb(217,129,170)" stroke="rgb(217,129,170)" stroke-width="1.51"></path><path d="M412,49L338,-25L337,50Z" fill="rgb(244,157,192)" stroke="rgb(244,157,192)" stroke-width="1.51"></path><path d="M37,200L37,275L113,274Z" fill="rgb(241,149,188)" stroke="rgb(241,149,188)" stroke-width="1.51"></path><path d="M112,49L37,49L37,125Z" fill="rgb(253,220,216)" stroke="rgb(253,220,216)" stroke-width="1.51"></path><path d="M38,-26L37,49L112,49Z" fill="rgb(254,232,228)" stroke="rgb(254,232,228)" stroke-width="1.51"></path><path d="M188,-26L112,-26L112,49Z" fill="rgb(254,224,220)" stroke="rgb(254,224,220)" stroke-width="1.51"></path><path d="M337,424L411,350L337,349Z" fill="rgb(162,32,133)" stroke="rgb(162,32,133)" stroke-width="1.51"></path><path d="M337,349L411,350L412,275Z" fill="rgb(181,26,135)" stroke="rgb(181,26,135)" stroke-width="1.51"></path><path d="M187,350L188,424L262,350Z" fill="rgb(174,89,148)" stroke="rgb(174,89,148)" stroke-width="1.51"></path><path d="M262,350L337,424L337,349Z" fill="rgb(170,52,136)" stroke="rgb(170,52,136)" stroke-width="1.51"></path><path d="M113,350L188,424L187,350Z" fill="rgb(175,102,152)" stroke="rgb(175,102,152)" stroke-width="1.51"></path><path d="M412,199L487,125L411,125Z" fill="rgb(217,99,155)" stroke="rgb(217,99,155)" stroke-width="1.51"></path><path d="M487,200L487,125L412,199Z" fill="rgb(208,80,148)" stroke="rgb(208,80,148)" stroke-width="1.51"></path><path d="M487,200L412,199L412,275Z" fill="rgb(208,53,143)" stroke="rgb(208,53,143)" stroke-width="1.51"></path><path d="M486,275L487,200L412,275Z" fill="rgb(193,31,138)" stroke="rgb(193,31,138)" stroke-width="1.51"></path><path d="M188,424L263,425L262,350Z" fill="rgb(161,77,142)" stroke="rgb(161,77,142)" stroke-width="1.51"></path><path d="M412,49L412,-26L338,-25Z" fill="rgb(240,156,194)" stroke="rgb(240,156,194)" stroke-width="1.51"></path><path d="M262,-101L188,-26L262,-26Z" fill="rgb(255,200,210)" stroke="rgb(255,200,210)" stroke-width="1.51"></path><path d="M486,-26L412,-26L412,49Z" fill="rgb(224,146,185)" stroke="rgb(224,146,185)" stroke-width="1.51"></path><path d="M188,-26L187,-100L112,-26Z" fill="rgb(255,219,216)" stroke="rgb(255,219,216)" stroke-width="1.51"></path><path d="M262,-101L187,-100L188,-26Z" fill="rgb(255,207,213)" stroke="rgb(255,207,213)" stroke-width="1.51"></path><path d="M262,-101L262,-26L337,-101Z" fill="rgb(255,183,203)" stroke="rgb(255,183,203)" stroke-width="1.51"></path><path d="M113,350L111,424L188,424Z" fill="rgb(163,103,152)" stroke="rgb(163,103,152)" stroke-width="1.51"></path><path d="M37,275L37,350L113,350Z" fill="rgb(203,129,173)" stroke="rgb(203,129,173)" stroke-width="1.51"></path><path d="M112,-26L38,-26L112,49Z" fill="rgb(254,233,229)" stroke="rgb(254,233,229)" stroke-width="1.51"></path><path d="M111,-101L38,-26L112,-26Z" fill="rgb(254,233,229)" stroke="rgb(254,233,229)" stroke-width="1.51"></path><path d="M337,-101L262,-26L338,-25Z" fill="rgb(254,175,200)" stroke="rgb(254,175,200)" stroke-width="1.51"></path><path d="M37,125L-38,125L37,200Z" fill="rgb(254,201,210)" stroke="rgb(254,201,210)" stroke-width="1.51"></path><path d="M37,200L-38,274L37,275Z" fill="rgb(243,157,194)" stroke="rgb(243,157,194)" stroke-width="1.51"></path><path d="M37,275L-37,349L37,350Z" fill="rgb(205,137,180)" stroke="rgb(205,137,180)" stroke-width="1.51"></path><path d="M-38,50L-38,125L37,125Z" fill="rgb(254,222,217)" stroke="rgb(254,222,217)" stroke-width="1.51"></path><path d="M-38,50L37,125L37,49Z" fill="rgb(254,227,223)" stroke="rgb(254,227,223)" stroke-width="1.51"></path><path d="M-38,125L-39,200L37,200Z" fill="rgb(255,191,206)" stroke="rgb(255,191,206)" stroke-width="1.51"></path><path d="M487,349L486,275L412,275Z" fill="rgb(170,1,126)" stroke="rgb(170,1,126)" stroke-width="1.51"></path><path d="M263,425L337,424L262,350Z" fill="rgb(160,58,135)" stroke="rgb(160,58,135)" stroke-width="1.51"></path><path d="M37,350L111,424L113,350Z" fill="rgb(176,116,164)" stroke="rgb(176,116,164)" stroke-width="1.51"></path><path d="M188,424L262,499L263,425Z" fill="rgb(161,77,142)" stroke="rgb(161,77,142)" stroke-width="1.51"></path><path d="M562,124L488,50L487,125Z" fill="rgb(193,111,156)" stroke="rgb(193,111,156)" stroke-width="1.51"></path><path d="M487,125L488,50L412,49Z" fill="rgb(212,123,166)" stroke="rgb(212,123,166)" stroke-width="1.51"></path><path d="M-39,200L-38,274L37,200Z" fill="rgb(250,169,199)" stroke="rgb(250,169,199)" stroke-width="1.51"></path><path d="M412,-26L337,-101L338,-25Z" fill="rgb(246,162,197)" stroke="rgb(246,162,197)" stroke-width="1.51"></path><path d="M-38,125L-112,125L-39,200Z" fill="rgb(255,203,212)" stroke="rgb(255,203,212)" stroke-width="1.51"></path><path d="M-37,-26L-38,50L37,49Z" fill="rgb(255,241,237)" stroke="rgb(255,241,237)" stroke-width="1.51"></path><path d="M38,-26L-37,-26L37,49Z" fill="rgb(255,245,241)" stroke="rgb(255,245,241)" stroke-width="1.51"></path><path d="M187,-100L111,-101L112,-26Z" fill="rgb(254,224,220)" stroke="rgb(254,224,220)" stroke-width="1.51"></path><path d="M262,-101L111,-101L187,-100Z" fill="rgb(254,213,215)" stroke="rgb(254,213,215)" stroke-width="1.51"></path><path d="M411,350L487,349L412,275Z" fill="rgb(165,7,127)" stroke="rgb(165,7,127)" stroke-width="1.51"></path><path d="M561,275L562,199L487,200Z" fill="rgb(174,45,137)" stroke="rgb(174,45,137)" stroke-width="1.51"></path><path d="M487,200L562,199L487,125Z" fill="rgb(190,76,146)" stroke="rgb(190,76,146)" stroke-width="1.51"></path><path d="M412,425L487,349L411,350Z" fill="rgb(140,4,122)" stroke="rgb(140,4,122)" stroke-width="1.51"></path><path d="M412,-26L412,-101L337,-101Z" fill="rgb(240,156,194)" stroke="rgb(240,156,194)" stroke-width="1.51"></path><path d="M488,50L486,-26L412,49Z" fill="rgb(214,136,178)" stroke="rgb(214,136,178)" stroke-width="1.51"></path><path d="M37,350L38,424L111,424Z" fill="rgb(164,116,165)" stroke="rgb(164,116,165)" stroke-width="1.51"></path><path d="M186,500L262,499L188,424Z" fill="rgb(162,85,145)" stroke="rgb(162,85,145)" stroke-width="1.51"></path><path d="M-38,425L38,424L37,350Z" fill="rgb(165,123,172)" stroke="rgb(165,123,172)" stroke-width="1.51"></path><path d="M-113,350L-37,349L-38,274Z" fill="rgb(206,139,182)" stroke="rgb(206,139,182)" stroke-width="1.51"></path><path d="M-38,274L-37,349L37,275Z" fill="rgb(220,143,183)" stroke="rgb(220,143,183)" stroke-width="1.51"></path><path d="M337,424L412,425L411,350Z" fill="rgb(144,20,127)" stroke="rgb(144,20,127)" stroke-width="1.51"></path><path d="M337,499L412,425L337,424Z" fill="rgb(150,30,130)" stroke="rgb(150,30,130)" stroke-width="1.51"></path><path d="M486,-26L412,-101L412,-26Z" fill="rgb(224,146,185)" stroke="rgb(224,146,185)" stroke-width="1.51"></path><path d="M36,-100L-37,-26L38,-26Z" fill="rgb(255,245,241)" stroke="rgb(255,245,241)" stroke-width="1.51"></path><path d="M111,-101L36,-100L38,-26Z" fill="rgb(254,237,234)" stroke="rgb(254,237,234)" stroke-width="1.51"></path><path d="M263,425L337,499L337,424Z" fill="rgb(158,48,133)" stroke="rgb(158,48,133)" stroke-width="1.51"></path><path d="M186,500L188,424L111,424Z" fill="rgb(163,98,148)" stroke="rgb(163,98,148)" stroke-width="1.51"></path><path d="M561,275L487,200L486,275Z" fill="rgb(176,29,135)" stroke="rgb(176,29,135)" stroke-width="1.51"></path><path d="M488,50L562,-25L486,-26Z" fill="rgb(196,136,180)" stroke="rgb(196,136,180)" stroke-width="1.51"></path><path d="M562,199L562,124L487,125Z" fill="rgb(182,88,149)" stroke="rgb(182,88,149)" stroke-width="1.51"></path><path d="M-38,50L-112,125L-38,125Z" fill="rgb(254,222,217)" stroke="rgb(254,222,217)" stroke-width="1.51"></path><path d="M-39,200L-113,274L-38,274Z" fill="rgb(244,159,196)" stroke="rgb(244,159,196)" stroke-width="1.51"></path><path d="M-113,49L-112,125L-38,50Z" fill="rgb(254,229,225)" stroke="rgb(254,229,225)" stroke-width="1.51"></path><path d="M112,500L186,500L111,424Z" fill="rgb(163,103,152)" stroke="rgb(163,103,152)" stroke-width="1.51"></path><path d="M-112,125L-113,199L-39,200Z" fill="rgb(255,191,206)" stroke="rgb(255,191,206)" stroke-width="1.51"></path><path d="M487,349L561,275L486,275Z" fill="rgb(153,1,123)" stroke="rgb(153,1,123)" stroke-width="1.51"></path><path d="M562,350L561,275L487,349Z" fill="rgb(132,0,120)" stroke="rgb(132,0,120)" stroke-width="1.51"></path><path d="M186,500L337,499L262,499Z" fill="rgb(161,68,139)" stroke="rgb(161,68,139)" stroke-width="1.51"></path><path d="M262,499L337,499L263,425Z" fill="rgb(160,58,135)" stroke="rgb(160,58,135)" stroke-width="1.51"></path><path d="M486,-26L487,-100L412,-101Z" fill="rgb(215,142,183)" stroke="rgb(215,142,183)" stroke-width="1.51"></path><path d="M562,124L562,49L488,50Z" fill="rgb(184,115,162)" stroke="rgb(184,115,162)" stroke-width="1.51"></path><path d="M37,499L111,424L38,424Z" fill="rgb(164,116,165)" stroke="rgb(164,116,165)" stroke-width="1.51"></path><path d="M37,499L112,500L111,424Z" fill="rgb(163,112,161)" stroke="rgb(163,112,161)" stroke-width="1.51"></path><path d="M-113,199L-113,274L-39,200Z" fill="rgb(250,169,199)" stroke="rgb(250,169,199)" stroke-width="1.51"></path><path d="M-37,349L-38,425L37,350Z" fill="rgb(178,130,177)" stroke="rgb(178,130,177)" stroke-width="1.51"></path><path d="M-112,125L-113,49L-113,199Z" fill="rgb(254,213,215)" stroke="rgb(254,213,215)" stroke-width="1.51"></path><path d="M-37,-26L-113,49L-38,50Z" fill="rgb(255,241,237)" stroke="rgb(255,241,237)" stroke-width="1.51"></path><path d="M-113,-26L-113,49L-37,-26Z" fill="rgb(255,247,243)" stroke="rgb(255,247,243)" stroke-width="1.51"></path><path d="M562,-25L487,-100L486,-26Z" fill="rgb(196,136,180)" stroke="rgb(196,136,180)" stroke-width="1.51"></path><path d="M412,499L487,425L412,425Z" fill="rgb(128,2,118)" stroke="rgb(128,2,118)" stroke-width="1.51"></path><path d="M412,425L487,425L487,349Z" fill="rgb(120,0,116)" stroke="rgb(120,0,116)" stroke-width="1.51"></path><path d="M-113,350L-38,425L-37,349Z" fill="rgb(178,130,177)" stroke="rgb(178,130,177)" stroke-width="1.51"></path><path d="M36,-100L-38,-101L-37,-26Z" fill="rgb(255,247,243)" stroke="rgb(255,247,243)" stroke-width="1.51"></path><path d="M111,-101L-38,-101L36,-100Z" fill="rgb(255,241,237)" stroke="rgb(255,241,237)" stroke-width="1.51"></path><path d="M337,499L412,499L412,425Z" fill="rgb(143,20,127)" stroke="rgb(143,20,127)" stroke-width="1.51"></path><path d="M488,500L412,499L337,499Z" fill="rgb(136,12,122)" stroke="rgb(136,12,122)" stroke-width="1.51"></path><path d="M562,49L562,-25L488,50Z" fill="rgb(186,127,174)" stroke="rgb(186,127,174)" stroke-width="1.51"></path><path d="M487,425L562,350L487,349Z" fill="rgb(115,0,117)" stroke="rgb(115,0,117)" stroke-width="1.51"></path><path d="M636,274L637,200L562,199Z" fill="rgb(153,40,131)" stroke="rgb(153,40,131)" stroke-width="1.51"></path><path d="M-38,425L37,499L38,424Z" fill="rgb(165,123,172)" stroke="rgb(165,123,172)" stroke-width="1.51"></path><path d="M-113,274L-113,350L-38,274Z" fill="rgb(220,143,183)" stroke="rgb(220,143,183)" stroke-width="1.51"></path><path d="M-38,-101L-113,-26L-37,-26Z" fill="rgb(255,247,243)" stroke="rgb(255,247,243)" stroke-width="1.51"></path><path d="M562,124L637,50L562,49Z" fill="rgb(168,109,158)" stroke="rgb(168,109,158)" stroke-width="1.51"></path><path d="M562,49L637,50L562,-25Z" fill="rgb(169,121,169)" stroke="rgb(169,121,169)" stroke-width="1.51"></path><path d="M562,199L637,124L562,124Z" fill="rgb(166,83,145)" stroke="rgb(166,83,145)" stroke-width="1.51"></path><path d="M636,274L562,199L561,275Z" fill="rgb(151,25,129)" stroke="rgb(151,25,129)" stroke-width="1.51"></path><path d="M637,200L637,124L562,199Z" fill="rgb(161,68,139)" stroke="rgb(161,68,139)" stroke-width="1.51"></path><path d="M562,350L636,274L561,275Z" fill="rgb(129,0,117)" stroke="rgb(129,0,117)" stroke-width="1.51"></path><path d="M562,350L637,350L636,274Z" fill="rgb(111,0,115)" stroke="rgb(111,0,115)" stroke-width="1.51"></path><path d="M487,425L562,424L562,350Z" fill="rgb(94,0,111)" stroke="rgb(94,0,111)" stroke-width="1.51"></path><path d="M562,499L562,424L487,425Z" fill="rgb(94,0,111)" stroke="rgb(94,0,111)" stroke-width="1.51"></path><path d="M637,124L637,50L562,124Z" fill="rgb(163,101,150)" stroke="rgb(163,101,150)" stroke-width="1.51"></path><path d="M636,-101L562,-101L562,-25Z" fill="rgb(169,127,174)" stroke="rgb(169,127,174)" stroke-width="1.51"></path><path d="M562,-25L562,-101L487,-100Z" fill="rgb(187,133,179)" stroke="rgb(187,133,179)" stroke-width="1.51"></path><path d="M487,-100L562,-101L412,-101Z" fill="rgb(205,139,182)" stroke="rgb(205,139,182)" stroke-width="1.51"></path><path d="M412,499L488,500L487,425Z" fill="rgb(120,0,116)" stroke="rgb(120,0,116)" stroke-width="1.51"></path><path d="M186,500L488,500L337,499Z" fill="rgb(153,40,131)" stroke="rgb(153,40,131)" stroke-width="1.51"></path><path d="M-38,425L-38,500L37,499Z" fill="rgb(165,125,173)" stroke="rgb(165,125,173)" stroke-width="1.51"></path><path d="M37,499L-38,500L112,500Z" fill="rgb(164,120,168)" stroke="rgb(164,120,168)" stroke-width="1.51"></path><path d="M-113,500L-38,500L-38,425Z" fill="rgb(165,125,173)" stroke="rgb(165,125,173)" stroke-width="1.51"></path><path d="M-38,-101L-113,-101L-113,-26Z" fill="rgb(255,247,243)" stroke="rgb(255,247,243)" stroke-width="1.51"></path><path d="M-113,-101L-114,425L-113,-26Z" fill="rgb(254,222,217)" stroke="rgb(254,222,217)" stroke-width="1.51"></path><path d="M-113,-26L-114,425L-113,49Z" fill="rgb(255,204,212)" stroke="rgb(255,204,212)" stroke-width="1.51"></path><path d="M-113,49L-114,425L-113,199Z" fill="rgb(250,169,199)" stroke="rgb(250,169,199)" stroke-width="1.51"></path><path d="M-113,199L-114,425L-113,274Z" fill="rgb(220,143,183)" stroke="rgb(220,143,183)" stroke-width="1.51"></path><path d="M-113,274L-114,425L-113,350Z" fill="rgb(191,134,180)" stroke="rgb(191,134,180)" stroke-width="1.51"></path><path d="M-113,350L-114,425L-38,425Z" fill="rgb(165,125,173)" stroke="rgb(165,125,173)" stroke-width="1.51"></path><path d="M562,424L637,350L562,350Z" fill="rgb(90,0,110)" stroke="rgb(90,0,110)" stroke-width="1.51"></path><path d="M711,275L712,200L637,200Z" fill="rgb(153,39,131)" stroke="rgb(153,39,131)" stroke-width="1.51"></path><path d="M637,425L637,350L562,424Z" fill="rgb(73,0,106)" stroke="rgb(73,0,106)" stroke-width="1.51"></path><path d="M637,50L638,-26L562,-25Z" fill="rgb(165,125,173)" stroke="rgb(165,125,173)" stroke-width="1.51"></path><path d="M711,50L638,-26L637,50Z" fill="rgb(164,120,168)" stroke="rgb(164,120,168)" stroke-width="1.51"></path><path d="M711,50L637,50L637,124Z" fill="rgb(163,108,157)" stroke="rgb(163,108,157)" stroke-width="1.51"></path><path d="M712,200L637,124L637,200Z" fill="rgb(161,68,139)" stroke="rgb(161,68,139)" stroke-width="1.51"></path><path d="M488,500L562,499L487,425Z" fill="rgb(103,0,113)" stroke="rgb(103,0,113)" stroke-width="1.51"></path><path d="M-114,425L-113,500L-38,425Z" fill="rgb(165,125,173)" stroke="rgb(165,125,173)" stroke-width="1.51"></path><path d="M638,-26L636,-101L562,-25Z" fill="rgb(165,125,173)" stroke="rgb(165,125,173)" stroke-width="1.51"></path><path d="M711,275L637,200L636,274Z" fill="rgb(147,23,128)" stroke="rgb(147,23,128)" stroke-width="1.51"></path><path d="M638,-26L712,-100L636,-101Z" fill="rgb(165,125,173)" stroke="rgb(165,125,173)" stroke-width="1.51"></path><path d="M712,200L712,124L637,124Z" fill="rgb(161,82,144)" stroke="rgb(161,82,144)" stroke-width="1.51"></path><path d="M637,350L711,275L636,274Z" fill="rgb(125,0,116)" stroke="rgb(125,0,116)" stroke-width="1.51"></path><path d="M636,499L637,425L562,424Z" fill="rgb(73,0,106)" stroke="rgb(73,0,106)" stroke-width="1.51"></path><path d="M712,124L711,50L637,124Z" fill="rgb(163,101,150)" stroke="rgb(163,101,150)" stroke-width="1.51"></path><path d="M712,350L711,275L637,350Z" fill="rgb(111,0,115)" stroke="rgb(111,0,115)" stroke-width="1.51"></path><path d="M711,50L711,-26L638,-26Z" fill="rgb(165,125,173)" stroke="rgb(165,125,173)" stroke-width="1.51"></path><path d="M712,124L711,-26L711,50Z" fill="rgb(163,114,163)" stroke="rgb(163,114,163)" stroke-width="1.51"></path><path d="M637,425L712,350L637,350Z" fill="rgb(86,0,109)" stroke="rgb(86,0,109)" stroke-width="1.51"></path><path d="M711,275L712,350L712,200Z" fill="rgb(136,12,122)" stroke="rgb(136,12,122)" stroke-width="1.51"></path><path d="M637,425L712,425L712,350Z" fill="rgb(73,0,106)" stroke="rgb(73,0,106)" stroke-width="1.51"></path><path d="M562,499L636,499L562,424Z" fill="rgb(78,0,107)" stroke="rgb(78,0,107)" stroke-width="1.51"></path><path d="M488,500L636,499L562,499Z" fill="rgb(86,0,109)" stroke="rgb(86,0,109)" stroke-width="1.51"></path><path d="M711,-26L712,-100L638,-26Z" fill="rgb(165,125,173)" stroke="rgb(165,125,173)" stroke-width="1.51"></path><path d="M712,124L712,-100L711,-26Z" fill="rgb(165,125,173)" stroke="rgb(165,125,173)" stroke-width="1.51"></path><path d="M712,499L712,425L637,425Z" fill="rgb(73,0,106)" stroke="rgb(73,0,106)" stroke-width="1.51"></path><path d="M636,499L712,499L637,425Z" fill="rgb(73,0,106)" stroke="rgb(73,0,106)" stroke-width="1.51"></path><path d="M488,500L712,499L636,499Z" fill="rgb(73,0,106)" stroke="rgb(73,0,106)" stroke-width="1.51"></path></svg>