<svg width="600" height="400" xmlns="http://www.w3.org/2000/svg"><path d="M345,201L432,210L357,149Z" fill="rgb(246,90,64)" stroke="rgb(246,90,64)" stroke-width="1.51"></path><path d="M432,210L396,97L357,149Z" fill="rgb(242,103,75)" stroke="rgb(242,103,75)" stroke-width="1.51"></path><path d="M432,210L480,195L396,97Z" fill="rgb(232,89,65)" stroke="rgb(232,89,65)" stroke-width="1.51"></path><path d="M345,201L349,270L432,210Z" fill="rgb(242,72,51)" stroke="rgb(242,72,51)" stroke-width="1.51"></path><path d="M432,210L488,274L480,195Z" fill="rgb(219,56,42)" stroke="rgb(219,56,42)" stroke-width="1.51"></path><path d="M349,270L398,286L432,210Z" fill="rgb(232,54,41)" stroke="rgb(232,54,41)" stroke-width="1.51"></path><path d="M396,97L339,30L357,149Z" fill="rgb(252,136,107)" stroke="rgb(252,136,107)" stroke-width="1.51"></path><path d="M490,60L391,60L396,97Z" fill="rgb(242,132,108)" stroke="rgb(242,132,108)" stroke-width="1.51"></path><path d="M349,270L357,330L398,286Z" fill="rgb(223,48,38)" stroke="rgb(223,48,38)" stroke-width="1.51"></path><path d="M345,201L280,255L349,270Z" fill="rgb(244,81,56)" stroke="rgb(244,81,56)" stroke-width="1.51"></path><path d="M234,213L280,255L345,201Z" fill="rgb(249,100,70)" stroke="rgb(249,100,70)" stroke-width="1.51"></path><path d="M250,117L345,201L357,149Z" fill="rgb(251,120,88)" stroke="rgb(251,120,88)" stroke-width="1.51"></path><path d="M398,286L488,274L432,210Z" fill="rgb(221,43,36)" stroke="rgb(221,43,36)" stroke-width="1.51"></path><path d="M480,195L513,102L396,97Z" fill="rgb(227,102,78)" stroke="rgb(227,102,78)" stroke-width="1.51"></path><path d="M554,192L513,102L480,195Z" fill="rgb(212,83,61)" stroke="rgb(212,83,61)" stroke-width="1.51"></path><path d="M398,286L464,343L488,274Z" fill="rgb(202,24,29)" stroke="rgb(202,24,29)" stroke-width="1.51"></path><path d="M267,347L357,330L349,270Z" fill="rgb(219,61,45)" stroke="rgb(219,61,45)" stroke-width="1.51"></path><path d="M339,30L250,117L357,149Z" fill="rgb(254,145,114)" stroke="rgb(254,145,114)" stroke-width="1.51"></path><path d="M513,102L490,60L396,97Z" fill="rgb(230,121,97)" stroke="rgb(230,121,97)" stroke-width="1.51"></path><path d="M250,117L234,213L345,201Z" fill="rgb(252,122,89)" stroke="rgb(252,122,89)" stroke-width="1.51"></path><path d="M280,255L267,347L349,270Z" fill="rgb(231,74,53)" stroke="rgb(231,74,53)" stroke-width="1.51"></path><path d="M391,60L339,30L396,97Z" fill="rgb(254,144,118)" stroke="rgb(254,144,118)" stroke-width="1.51"></path><path d="M397,-36L339,30L391,60Z" fill="rgb(255,156,133)" stroke="rgb(255,156,133)" stroke-width="1.51"></path><path d="M357,330L412,346L398,286Z" fill="rgb(209,38,33)" stroke="rgb(209,38,33)" stroke-width="1.51"></path><path d="M488,274L554,192L480,195Z" fill="rgb(210,57,42)" stroke="rgb(210,57,42)" stroke-width="1.51"></path><path d="M412,346L464,343L398,286Z" fill="rgb(199,28,29)" stroke="rgb(199,28,29)" stroke-width="1.51"></path><path d="M488,274L545,296L554,192Z" fill="rgb(198,37,32)" stroke="rgb(198,37,32)" stroke-width="1.51"></path><path d="M250,117L209,182L234,213Z" fill="rgb(252,137,104)" stroke="rgb(252,137,104)" stroke-width="1.51"></path><path d="M339,30L267,42L250,117Z" fill="rgb(255,166,138)" stroke="rgb(255,166,138)" stroke-width="1.51"></path><path d="M250,117L206,136L209,182Z" fill="rgb(252,149,117)" stroke="rgb(252,149,117)" stroke-width="1.51"></path><path d="M464,343L545,296L488,274Z" fill="rgb(189,20,26)" stroke="rgb(189,20,26)" stroke-width="1.51"></path><path d="M194,42L206,136L250,117Z" fill="rgb(253,170,141)" stroke="rgb(253,170,141)" stroke-width="1.51"></path><path d="M513,102L551,39L490,60Z" fill="rgb(217,123,102)" stroke="rgb(217,123,102)" stroke-width="1.51"></path><path d="M554,192L579,120L513,102Z" fill="rgb(200,90,69)" stroke="rgb(200,90,69)" stroke-width="1.51"></path><path d="M636,191L579,120L554,192Z" fill="rgb(180,71,55)" stroke="rgb(180,71,55)" stroke-width="1.51"></path><path d="M234,213L202,252L280,255Z" fill="rgb(248,107,78)" stroke="rgb(248,107,78)" stroke-width="1.51"></path><path d="M209,182L202,252L234,213Z" fill="rgb(251,124,92)" stroke="rgb(251,124,92)" stroke-width="1.51"></path><path d="M140,214L202,252L209,182Z" fill="rgb(252,133,101)" stroke="rgb(252,133,101)" stroke-width="1.51"></path><path d="M202,252L267,347L280,255Z" fill="rgb(234,91,67)" stroke="rgb(234,91,67)" stroke-width="1.51"></path><path d="M357,330L414,433L412,346Z" fill="rgb(184,30,29)" stroke="rgb(184,30,29)" stroke-width="1.51"></path><path d="M490,60L485,2L391,60Z" fill="rgb(237,138,117)" stroke="rgb(237,138,117)" stroke-width="1.51"></path><path d="M339,30L316,-12L267,42Z" fill="rgb(255,172,147)" stroke="rgb(255,172,147)" stroke-width="1.51"></path><path d="M551,39L485,2L490,60Z" fill="rgb(223,134,115)" stroke="rgb(223,134,115)" stroke-width="1.51"></path><path d="M397,-36L316,-12L339,30Z" fill="rgb(255,166,143)" stroke="rgb(255,166,143)" stroke-width="1.51"></path><path d="M579,120L551,39L513,102Z" fill="rgb(204,112,92)" stroke="rgb(204,112,92)" stroke-width="1.51"></path><path d="M485,2L397,-36L391,60Z" fill="rgb(247,149,129)" stroke="rgb(247,149,129)" stroke-width="1.51"></path><path d="M316,-12L288,-35L267,42Z" fill="rgb(255,180,157)" stroke="rgb(255,180,157)" stroke-width="1.51"></path><path d="M267,42L194,42L250,117Z" fill="rgb(255,176,150)" stroke="rgb(255,176,150)" stroke-width="1.51"></path><path d="M339,-76L288,-35L316,-12Z" fill="rgb(255,174,151)" stroke="rgb(255,174,151)" stroke-width="1.51"></path><path d="M171,-8L194,42L267,42Z" fill="rgb(255,194,173)" stroke="rgb(255,194,173)" stroke-width="1.51"></path><path d="M206,136L140,214L209,182Z" fill="rgb(253,147,115)" stroke="rgb(253,147,115)" stroke-width="1.51"></path><path d="M622,287L636,191L554,192Z" fill="rgb(172,45,36)" stroke="rgb(172,45,36)" stroke-width="1.51"></path><path d="M579,120L619,51L551,39Z" fill="rgb(189,111,96)" stroke="rgb(189,111,96)" stroke-width="1.51"></path><path d="M317,439L414,433L357,330Z" fill="rgb(169,35,31)" stroke="rgb(169,35,31)" stroke-width="1.51"></path><path d="M412,346L414,433L464,343Z" fill="rgb(173,21,25)" stroke="rgb(173,21,25)" stroke-width="1.51"></path><path d="M561,405L585,377L545,296Z" fill="rgb(142,8,19)" stroke="rgb(142,8,19)" stroke-width="1.51"></path><path d="M636,191L625,97L579,120Z" fill="rgb(177,83,66)" stroke="rgb(177,83,66)" stroke-width="1.51"></path><path d="M195,426L246,423L267,347Z" fill="rgb(177,74,58)" stroke="rgb(177,74,58)" stroke-width="1.51"></path><path d="M90,143L140,214L206,136Z" fill="rgb(253,162,133)" stroke="rgb(253,162,133)" stroke-width="1.51"></path><path d="M545,296L622,287L554,192Z" fill="rgb(177,30,29)" stroke="rgb(177,30,29)" stroke-width="1.51"></path><path d="M585,377L622,287L545,296Z" fill="rgb(151,10,21)" stroke="rgb(151,10,21)" stroke-width="1.51"></path><path d="M485,2L436,-90L397,-36Z" fill="rgb(244,149,130)" stroke="rgb(244,149,130)" stroke-width="1.51"></path><path d="M551,39L553,-11L485,2Z" fill="rgb(218,136,120)" stroke="rgb(218,136,120)" stroke-width="1.51"></path><path d="M619,51L553,-11L551,39Z" fill="rgb(196,125,112)" stroke="rgb(196,125,112)" stroke-width="1.51"></path><path d="M414,433L497,421L464,343Z" fill="rgb(150,9,21)" stroke="rgb(150,9,21)" stroke-width="1.51"></path><path d="M625,97L619,51L579,120Z" fill="rgb(179,102,86)" stroke="rgb(179,102,86)" stroke-width="1.51"></path><path d="M397,-36L339,-76L316,-12Z" fill="rgb(255,166,143)" stroke="rgb(255,166,143)" stroke-width="1.51"></path><path d="M436,-90L339,-76L397,-36Z" fill="rgb(255,157,136)" stroke="rgb(255,157,136)" stroke-width="1.51"></path><path d="M246,423L317,439L267,347Z" fill="rgb(175,63,48)" stroke="rgb(175,63,48)" stroke-width="1.51"></path><path d="M267,347L317,439L357,330Z" fill="rgb(192,57,42)" stroke="rgb(192,57,42)" stroke-width="1.51"></path><path d="M561,405L545,296L464,343Z" fill="rgb(166,15,21)" stroke="rgb(166,15,21)" stroke-width="1.51"></path><path d="M472,-95L436,-90L485,2Z" fill="rgb(238,145,127)" stroke="rgb(238,145,127)" stroke-width="1.51"></path><path d="M497,421L561,405L464,343Z" fill="rgb(144,8,19)" stroke="rgb(144,8,19)" stroke-width="1.51"></path><path d="M162,351L267,347L202,252Z" fill="rgb(223,97,73)" stroke="rgb(223,97,73)" stroke-width="1.51"></path><path d="M109,267L162,351L202,252Z" fill="rgb(236,117,92)" stroke="rgb(236,117,92)" stroke-width="1.51"></path><path d="M553,-11L472,-95L485,2Z" fill="rgb(227,141,125)" stroke="rgb(227,141,125)" stroke-width="1.51"></path><path d="M585,-92L472,-95L553,-11Z" fill="rgb(215,137,122)" stroke="rgb(215,137,122)" stroke-width="1.51"></path><path d="M194,42L90,143L206,136Z" fill="rgb(252,181,153)" stroke="rgb(252,181,153)" stroke-width="1.51"></path><path d="M288,-35L171,-8L267,42Z" fill="rgb(255,192,171)" stroke="rgb(255,192,171)" stroke-width="1.51"></path><path d="M180,-99L171,-8L288,-35Z" fill="rgb(255,199,179)" stroke="rgb(255,199,179)" stroke-width="1.51"></path><path d="M140,214L109,267L202,252Z" fill="rgb(250,132,103)" stroke="rgb(250,132,103)" stroke-width="1.51"></path><path d="M58,198L109,267L140,214Z" fill="rgb(255,150,123)" stroke="rgb(255,150,123)" stroke-width="1.51"></path><path d="M97,26L90,143L194,42Z" fill="rgb(254,203,183)" stroke="rgb(254,203,183)" stroke-width="1.51"></path><path d="M655,370L688,264L622,287Z" fill="rgb(149,9,21)" stroke="rgb(149,9,21)" stroke-width="1.51"></path><path d="M622,287L688,264L636,191Z" fill="rgb(169,31,29)" stroke="rgb(169,31,29)" stroke-width="1.51"></path><path d="M636,191L705,182L625,97Z" fill="rgb(176,74,58)" stroke="rgb(176,74,58)" stroke-width="1.51"></path><path d="M625,97L722,50L619,51Z" fill="rgb(181,110,96)" stroke="rgb(181,110,96)" stroke-width="1.51"></path><path d="M655,370L622,287L585,377Z" fill="rgb(135,6,18)" stroke="rgb(135,6,18)" stroke-width="1.51"></path><path d="M317,439L344,490L414,433Z" fill="rgb(170,36,32)" stroke="rgb(170,36,32)" stroke-width="1.51"></path><path d="M414,433L479,506L497,421Z" fill="rgb(148,9,21)" stroke="rgb(148,9,21)" stroke-width="1.51"></path><path d="M497,421L550,520L561,405Z" fill="rgb(129,5,17)" stroke="rgb(129,5,17)" stroke-width="1.51"></path><path d="M281,480L344,490L317,439Z" fill="rgb(173,51,39)" stroke="rgb(173,51,39)" stroke-width="1.51"></path><path d="M246,423L281,480L317,439Z" fill="rgb(175,62,47)" stroke="rgb(175,62,47)" stroke-width="1.51"></path><path d="M162,351L195,426L267,347Z" fill="rgb(194,87,68)" stroke="rgb(194,87,68)" stroke-width="1.51"></path><path d="M135,371L195,426L162,351Z" fill="rgb(189,98,79)" stroke="rgb(189,98,79)" stroke-width="1.51"></path><path d="M688,264L705,182L636,191Z" fill="rgb(173,50,39)" stroke="rgb(173,50,39)" stroke-width="1.51"></path><path d="M195,426L281,480L246,423Z" fill="rgb(176,73,57)" stroke="rgb(176,73,57)" stroke-width="1.51"></path><path d="M109,267L135,371L162,351Z" fill="rgb(222,117,93)" stroke="rgb(222,117,93)" stroke-width="1.51"></path><path d="M627,452L585,377L561,405Z" fill="rgb(106,0,14)" stroke="rgb(106,0,14)" stroke-width="1.51"></path><path d="M627,452L655,370L585,377Z" fill="rgb(103,0,13)" stroke="rgb(103,0,13)" stroke-width="1.51"></path><path d="M171,-8L130,-11L194,42Z" fill="rgb(255,210,192)" stroke="rgb(255,210,192)" stroke-width="1.51"></path><path d="M180,-99L130,-11L171,-8Z" fill="rgb(255,213,196)" stroke="rgb(255,213,196)" stroke-width="1.51"></path><path d="M344,490L436,514L414,433Z" fill="rgb(163,24,26)" stroke="rgb(163,24,26)" stroke-width="1.51"></path><path d="M64,521L436,514L344,490Z" fill="rgb(175,62,47)" stroke="rgb(175,62,47)" stroke-width="1.51"></path><path d="M109,267L30,327L135,371Z" fill="rgb(228,129,107)" stroke="rgb(228,129,107)" stroke-width="1.51"></path><path d="M90,143L58,198L140,214Z" fill="rgb(255,168,140)" stroke="rgb(255,168,140)" stroke-width="1.51"></path><path d="M61,116L58,198L90,143Z" fill="rgb(255,185,161)" stroke="rgb(255,185,161)" stroke-width="1.51"></path><path d="M130,-11L97,26L194,42Z" fill="rgb(255,214,198)" stroke="rgb(255,214,198)" stroke-width="1.51"></path><path d="M472,-95L241,-114L436,-90Z" fill="rgb(255,158,137)" stroke="rgb(255,158,137)" stroke-width="1.51"></path><path d="M436,-90L241,-114L339,-76Z" fill="rgb(255,169,146)" stroke="rgb(255,169,146)" stroke-width="1.51"></path><path d="M339,-76L241,-114L288,-35Z" fill="rgb(255,180,157)" stroke="rgb(255,180,157)" stroke-width="1.51"></path><path d="M436,514L479,506L414,433Z" fill="rgb(153,12,22)" stroke="rgb(153,12,22)" stroke-width="1.51"></path><path d="M619,51L646,-31L553,-11Z" fill="rgb(185,125,116)" stroke="rgb(185,125,116)" stroke-width="1.51"></path><path d="M722,50L646,-31L619,51Z" fill="rgb(184,121,111)" stroke="rgb(184,121,111)" stroke-width="1.51"></path><path d="M97,26L61,116L90,143Z" fill="rgb(253,205,185)" stroke="rgb(253,205,185)" stroke-width="1.51"></path><path d="M472,-95L706,-110L241,-114Z" fill="rgb(235,144,127)" stroke="rgb(235,144,127)" stroke-width="1.51"></path><path d="M646,-31L585,-92L553,-11Z" fill="rgb(187,127,117)" stroke="rgb(187,127,117)" stroke-width="1.51"></path><path d="M58,198L60,272L109,267Z" fill="rgb(255,151,126)" stroke="rgb(255,151,126)" stroke-width="1.51"></path><path d="M705,182L740,148L625,97Z" fill="rgb(176,80,64)" stroke="rgb(176,80,64)" stroke-width="1.51"></path><path d="M734,327L740,148L705,182Z" fill="rgb(172,47,37)" stroke="rgb(172,47,37)" stroke-width="1.51"></path><path d="M734,327L705,182L688,264Z" fill="rgb(166,27,28)" stroke="rgb(166,27,28)" stroke-width="1.51"></path><path d="M241,-114L180,-99L288,-35Z" fill="rgb(255,193,172)" stroke="rgb(255,193,172)" stroke-width="1.51"></path><path d="M130,-11L64,-25L97,26Z" fill="rgb(255,229,217)" stroke="rgb(255,229,217)" stroke-width="1.51"></path><path d="M655,370L734,327L688,264Z" fill="rgb(144,8,20)" stroke="rgb(144,8,20)" stroke-width="1.51"></path><path d="M550,520L627,452L561,405Z" fill="rgb(111,1,15)" stroke="rgb(111,1,15)" stroke-width="1.51"></path><path d="M740,148L722,50L625,97Z" fill="rgb(178,98,83)" stroke="rgb(178,98,83)" stroke-width="1.51"></path><path d="M135,371L116,430L195,426Z" fill="rgb(178,98,82)" stroke="rgb(178,98,82)" stroke-width="1.51"></path><path d="M195,426L163,478L281,480Z" fill="rgb(176,81,64)" stroke="rgb(176,81,64)" stroke-width="1.51"></path><path d="M53,413L116,430L135,371Z" fill="rgb(181,109,96)" stroke="rgb(181,109,96)" stroke-width="1.51"></path><path d="M479,506L550,520L497,421Z" fill="rgb(137,7,19)" stroke="rgb(137,7,19)" stroke-width="1.51"></path><path d="M436,514L550,520L479,506Z" fill="rgb(142,7,20)" stroke="rgb(142,7,20)" stroke-width="1.51"></path><path d="M116,430L163,478L195,426Z" fill="rgb(178,96,79)" stroke="rgb(178,96,79)" stroke-width="1.51"></path><path d="M281,480L64,521L344,490Z" fill="rgb(176,76,59)" stroke="rgb(176,76,59)" stroke-width="1.51"></path><path d="M702,432L734,327L655,370Z" fill="rgb(117,2,15)" stroke="rgb(117,2,15)" stroke-width="1.51"></path><path d="M716,-26L649,-101L646,-31Z" fill="rgb(185,126,117)" stroke="rgb(185,126,117)" stroke-width="1.51"></path><path d="M646,-31L649,-101L585,-92Z" fill="rgb(185,126,117)" stroke="rgb(185,126,117)" stroke-width="1.51"></path><path d="M585,-92L649,-101L472,-95Z" fill="rgb(200,131,119)" stroke="rgb(200,131,119)" stroke-width="1.51"></path><path d="M722,50L716,-26L646,-31Z" fill="rgb(185,126,117)" stroke="rgb(185,126,117)" stroke-width="1.51"></path><path d="M740,148L716,-26L722,50Z" fill="rgb(182,113,100)" stroke="rgb(182,113,100)" stroke-width="1.51"></path><path d="M128,-105L64,-25L130,-11Z" fill="rgb(255,226,214)" stroke="rgb(255,226,214)" stroke-width="1.51"></path><path d="M97,26L27,46L61,116Z" fill="rgb(254,221,206)" stroke="rgb(254,221,206)" stroke-width="1.51"></path><path d="M-26,205L60,272L58,198Z" fill="rgb(255,164,140)" stroke="rgb(255,164,140)" stroke-width="1.51"></path><path d="M60,272L30,327L109,267Z" fill="rgb(242,140,118)" stroke="rgb(242,140,118)" stroke-width="1.51"></path><path d="M-17,290L30,327L60,272Z" fill="rgb(242,144,125)" stroke="rgb(242,144,125)" stroke-width="1.51"></path><path d="M-26,205L58,198L-41,139Z" fill="rgb(255,185,162)" stroke="rgb(255,185,162)" stroke-width="1.51"></path><path d="M64,-25L27,46L97,26Z" fill="rgb(255,232,223)" stroke="rgb(255,232,223)" stroke-width="1.51"></path><path d="M241,-114L128,-105L180,-99Z" fill="rgb(255,207,189)" stroke="rgb(255,207,189)" stroke-width="1.51"></path><path d="M180,-99L128,-105L130,-11Z" fill="rgb(255,217,201)" stroke="rgb(255,217,201)" stroke-width="1.51"></path><path d="M627,452L702,432L655,370Z" fill="rgb(103,0,13)" stroke="rgb(103,0,13)" stroke-width="1.51"></path><path d="M694,518L702,432L627,452Z" fill="rgb(103,0,13)" stroke="rgb(103,0,13)" stroke-width="1.51"></path><path d="M116,430L113,474L163,478Z" fill="rgb(179,103,87)" stroke="rgb(179,103,87)" stroke-width="1.51"></path><path d="M163,478L64,521L281,480Z" fill="rgb(178,93,76)" stroke="rgb(178,93,76)" stroke-width="1.51"></path><path d="M53,413L113,474L116,430Z" fill="rgb(181,111,98)" stroke="rgb(181,111,98)" stroke-width="1.51"></path><path d="M550,520L622,518L627,452Z" fill="rgb(103,0,13)" stroke="rgb(103,0,13)" stroke-width="1.51"></path><path d="M30,327L53,413L135,371Z" fill="rgb(203,124,107)" stroke="rgb(203,124,107)" stroke-width="1.51"></path><path d="M30,327L-40,336L53,413Z" fill="rgb(214,135,119)" stroke="rgb(214,135,119)" stroke-width="1.51"></path><path d="M-41,139L58,198L61,116Z" fill="rgb(255,192,170)" stroke="rgb(255,192,170)" stroke-width="1.51"></path><path d="M-26,205L-17,290L60,272Z" fill="rgb(255,157,136)" stroke="rgb(255,157,136)" stroke-width="1.51"></path><path d="M716,-26L706,-110L649,-101Z" fill="rgb(185,126,117)" stroke="rgb(185,126,117)" stroke-width="1.51"></path><path d="M649,-101L706,-110L472,-95Z" fill="rgb(185,126,117)" stroke="rgb(185,126,117)" stroke-width="1.51"></path><path d="M740,148L706,-110L716,-26Z" fill="rgb(185,125,116)" stroke="rgb(185,125,116)" stroke-width="1.51"></path><path d="M-36,71L-41,139L61,116Z" fill="rgb(255,212,196)" stroke="rgb(255,212,196)" stroke-width="1.51"></path><path d="M-94,295L-40,336L-17,290Z" fill="rgb(239,146,128)" stroke="rgb(239,146,128)" stroke-width="1.51"></path><path d="M-36,71L61,116L27,46Z" fill="rgb(255,222,208)" stroke="rgb(255,222,208)" stroke-width="1.51"></path><path d="M-39,-1L27,46L64,-25Z" fill="rgb(255,241,234)" stroke="rgb(255,241,234)" stroke-width="1.51"></path><path d="M-39,-1L-36,71L27,46Z" fill="rgb(255,237,228)" stroke="rgb(255,237,228)" stroke-width="1.51"></path><path d="M702,432L694,518L734,327Z" fill="rgb(103,0,13)" stroke="rgb(103,0,13)" stroke-width="1.51"></path><path d="M622,518L694,518L627,452Z" fill="rgb(103,0,13)" stroke="rgb(103,0,13)" stroke-width="1.51"></path><path d="M550,520L694,518L622,518Z" fill="rgb(103,0,13)" stroke="rgb(103,0,13)" stroke-width="1.51"></path><path d="M-94,295L-17,290L-26,205Z" fill="rgb(254,156,135)" stroke="rgb(254,156,135)" stroke-width="1.51"></path><path d="M-17,290L-40,336L30,327Z" fill="rgb(234,144,127)" stroke="rgb(234,144,127)" stroke-width="1.51"></path><path d="M53,413L64,521L113,474Z" fill="rgb(182,115,103)" stroke="rgb(182,115,103)" stroke-width="1.51"></path><path d="M128,-105L47,-117L64,-25Z" fill="rgb(255,233,223)" stroke="rgb(255,233,223)" stroke-width="1.51"></path><path d="M241,-114L47,-117L128,-105Z" fill="rgb(255,219,204)" stroke="rgb(255,219,204)" stroke-width="1.51"></path><path d="M706,-110L47,-117L241,-114Z" fill="rgb(255,170,147)" stroke="rgb(255,170,147)" stroke-width="1.51"></path><path d="M-24,-113L-39,-1L64,-25Z" fill="rgb(255,245,240)" stroke="rgb(255,245,240)" stroke-width="1.51"></path><path d="M-36,71L-86,145L-41,139Z" fill="rgb(255,208,191)" stroke="rgb(255,208,191)" stroke-width="1.51"></path><path d="M-42,446L64,521L53,413Z" fill="rgb(184,122,112)" stroke="rgb(184,122,112)" stroke-width="1.51"></path><path d="M113,474L64,521L163,478Z" fill="rgb(181,107,92)" stroke="rgb(181,107,92)" stroke-width="1.51"></path><path d="M436,514L64,521L550,520Z" fill="rgb(170,40,33)" stroke="rgb(170,40,33)" stroke-width="1.51"></path><path d="M-90,41L-86,145L-36,71Z" fill="rgb(255,221,207)" stroke="rgb(255,221,207)" stroke-width="1.51"></path><path d="M-41,139L-86,145L-26,205Z" fill="rgb(255,191,170)" stroke="rgb(255,191,170)" stroke-width="1.51"></path><path d="M-40,336L-42,446L53,413Z" fill="rgb(186,126,117)" stroke="rgb(186,126,117)" stroke-width="1.51"></path><path d="M-113,174L-94,295L-26,205Z" fill="rgb(255,169,146)" stroke="rgb(255,169,146)" stroke-width="1.51"></path><path d="M-86,145L-113,174L-26,205Z" fill="rgb(255,187,165)" stroke="rgb(255,187,165)" stroke-width="1.51"></path><path d="M-39,-1L-90,41L-36,71Z" fill="rgb(255,237,229)" stroke="rgb(255,237,229)" stroke-width="1.51"></path><path d="M-107,-4L-90,41L-39,-1Z" fill="rgb(255,242,236)" stroke="rgb(255,242,236)" stroke-width="1.51"></path><path d="M-90,41L-113,174L-86,145Z" fill="rgb(255,208,190)" stroke="rgb(255,208,190)" stroke-width="1.51"></path><path d="M-91,404L-42,446L-40,336Z" fill="rgb(189,127,117)" stroke="rgb(189,127,117)" stroke-width="1.51"></path><path d="M47,-117L-24,-113L64,-25Z" fill="rgb(255,241,234)" stroke="rgb(255,241,234)" stroke-width="1.51"></path><path d="M-94,295L-92,361L-40,336Z" fill="rgb(229,142,125)" stroke="rgb(229,142,125)" stroke-width="1.51"></path><path d="M-113,174L-92,361L-94,295Z" fill="rgb(250,153,133)" stroke="rgb(250,153,133)" stroke-width="1.51"></path><path d="M-92,361L-91,404L-40,336Z" fill="rgb(208,134,121)" stroke="rgb(208,134,121)" stroke-width="1.51"></path><path d="M-113,174L-91,404L-92,361Z" fill="rgb(236,145,127)" stroke="rgb(236,145,127)" stroke-width="1.51"></path><path d="M-42,446L-55,472L64,521Z" fill="rgb(185,126,117)" stroke="rgb(185,126,117)" stroke-width="1.51"></path><path d="M-91,404L-55,472L-42,446Z" fill="rgb(185,126,117)" stroke="rgb(185,126,117)" stroke-width="1.51"></path><path d="M-24,-113L-107,-4L-39,-1Z" fill="rgb(255,245,240)" stroke="rgb(255,245,240)" stroke-width="1.51"></path><path d="M-90,41L-107,-4L-113,174Z" fill="rgb(255,227,215)" stroke="rgb(255,227,215)" stroke-width="1.51"></path><path d="M-55,472L-92,506L64,521Z" fill="rgb(185,126,117)" stroke="rgb(185,126,117)" stroke-width="1.51"></path><path d="M-91,404L-92,506L-55,472Z" fill="rgb(185,126,117)" stroke="rgb(185,126,117)" stroke-width="1.51"></path><path d="M-113,174L-92,506L-91,404Z" fill="rgb(212,136,121)" stroke="rgb(212,136,121)" stroke-width="1.51"></path><path d="M47,-117L-130,-108L-24,-113Z" fill="rgb(255,245,240)" stroke="rgb(255,245,240)" stroke-width="1.51"></path><path d="M-24,-113L-130,-108L-107,-4Z" fill="rgb(255,245,240)" stroke="rgb(255,245,240)" stroke-width="1.51"></path><path d="M-107,-4L-130,-108L-113,174Z" fill="rgb(255,240,234)" stroke="rgb(255,240,234)" stroke-width="1.51"></path></svg>