<svg width="600" height="400" xmlns="http://www.w3.org/2000/svg"><path d="M332,205L340,269L405,207Z" fill="rgb(84,179,101)" stroke="rgb(84,179,101)" stroke-width="1.51"></path><path d="M340,269L414,278L405,207Z" fill="rgb(63,168,90)" stroke="rgb(63,168,90)" stroke-width="1.51"></path><path d="M332,205L271,288L340,269Z" fill="rgb(86,179,102)" stroke="rgb(86,179,102)" stroke-width="1.51"></path><path d="M347,349L418,335L414,278Z" fill="rgb(42,144,73)" stroke="rgb(42,144,73)" stroke-width="1.51"></path><path d="M347,349L414,278L340,269Z" fill="rgb(54,157,83)" stroke="rgb(54,157,83)" stroke-width="1.51"></path><path d="M332,205L255,201L271,288Z" fill="rgb(106,190,113)" stroke="rgb(106,190,113)" stroke-width="1.51"></path><path d="M269,122L255,201L332,205Z" fill="rgb(132,203,130)" stroke="rgb(132,203,130)" stroke-width="1.51"></path><path d="M271,288L347,349L340,269Z" fill="rgb(72,164,89)" stroke="rgb(72,164,89)" stroke-width="1.51"></path><path d="M405,207L322,114L332,205Z" fill="rgb(111,192,118)" stroke="rgb(111,192,118)" stroke-width="1.51"></path><path d="M414,278L482,196L405,207Z" fill="rgb(67,164,89)" stroke="rgb(67,164,89)" stroke-width="1.51"></path><path d="M503,283L482,196L414,278Z" fill="rgb(47,150,77)" stroke="rgb(47,150,77)" stroke-width="1.51"></path><path d="M423,111L322,114L405,207Z" fill="rgb(117,193,124)" stroke="rgb(117,193,124)" stroke-width="1.51"></path><path d="M482,196L423,111L405,207Z" fill="rgb(95,176,105)" stroke="rgb(95,176,105)" stroke-width="1.51"></path><path d="M418,335L503,283L414,278Z" fill="rgb(37,140,70)" stroke="rgb(37,140,70)" stroke-width="1.51"></path><path d="M322,114L269,122L332,205Z" fill="rgb(138,206,136)" stroke="rgb(138,206,136)" stroke-width="1.51"></path><path d="M271,288L270,352L347,349Z" fill="rgb(73,158,86)" stroke="rgb(73,158,86)" stroke-width="1.51"></path><path d="M197,344L270,352L271,288Z" fill="rgb(90,166,99)" stroke="rgb(90,166,99)" stroke-width="1.51"></path><path d="M426,431L418,335L347,349Z" fill="rgb(31,125,61)" stroke="rgb(31,125,61)" stroke-width="1.51"></path><path d="M474,416L488,346L418,335Z" fill="rgb(17,115,52)" stroke="rgb(17,115,52)" stroke-width="1.51"></path><path d="M418,335L488,346L503,283Z" fill="rgb(25,128,60)" stroke="rgb(25,128,60)" stroke-width="1.51"></path><path d="M423,111L406,63L322,114Z" fill="rgb(136,201,141)" stroke="rgb(136,201,141)" stroke-width="1.51"></path><path d="M322,114L268,59L269,122Z" fill="rgb(163,217,159)" stroke="rgb(163,217,159)" stroke-width="1.51"></path><path d="M488,38L406,63L423,111Z" fill="rgb(134,192,139)" stroke="rgb(134,192,139)" stroke-width="1.51"></path><path d="M482,196L499,116L423,111Z" fill="rgb(104,175,111)" stroke="rgb(104,175,111)" stroke-width="1.51"></path><path d="M554,206L499,116L482,196Z" fill="rgb(83,160,92)" stroke="rgb(83,160,92)" stroke-width="1.51"></path><path d="M255,201L194,262L271,288Z" fill="rgb(111,192,120)" stroke="rgb(111,192,120)" stroke-width="1.51"></path><path d="M184,208L194,262L255,201Z" fill="rgb(132,202,134)" stroke="rgb(132,202,134)" stroke-width="1.51"></path><path d="M175,126L184,208L255,201Z" fill="rgb(154,213,149)" stroke="rgb(154,213,149)" stroke-width="1.51"></path><path d="M503,283L554,206L482,196Z" fill="rgb(54,147,75)" stroke="rgb(54,147,75)" stroke-width="1.51"></path><path d="M574,350L550,272L503,283Z" fill="rgb(19,118,54)" stroke="rgb(19,118,54)" stroke-width="1.51"></path><path d="M550,272L554,206L503,283Z" fill="rgb(36,135,66)" stroke="rgb(36,135,66)" stroke-width="1.51"></path><path d="M269,122L175,126L255,201Z" fill="rgb(159,216,153)" stroke="rgb(159,216,153)" stroke-width="1.51"></path><path d="M322,34L268,59L322,114Z" fill="rgb(167,218,164)" stroke="rgb(167,218,164)" stroke-width="1.51"></path><path d="M110,270L197,344L194,262Z" fill="rgb(120,186,127)" stroke="rgb(120,186,127)" stroke-width="1.51"></path><path d="M194,262L197,344L271,288Z" fill="rgb(104,179,112)" stroke="rgb(104,179,112)" stroke-width="1.51"></path><path d="M406,63L322,34L322,114Z" fill="rgb(153,210,155)" stroke="rgb(153,210,155)" stroke-width="1.51"></path><path d="M323,436L347,349L270,352Z" fill="rgb(59,137,72)" stroke="rgb(59,137,72)" stroke-width="1.51"></path><path d="M323,436L426,431L347,349Z" fill="rgb(37,119,60)" stroke="rgb(37,119,60)" stroke-width="1.51"></path><path d="M488,346L574,350L503,283Z" fill="rgb(11,116,50)" stroke="rgb(11,116,50)" stroke-width="1.51"></path><path d="M276,431L323,436L270,352Z" fill="rgb(63,131,72)" stroke="rgb(63,131,72)" stroke-width="1.51"></path><path d="M426,431L474,416L418,335Z" fill="rgb(20,107,50)" stroke="rgb(20,107,50)" stroke-width="1.51"></path><path d="M197,344L276,431L270,352Z" fill="rgb(80,147,87)" stroke="rgb(80,147,87)" stroke-width="1.51"></path><path d="M184,208L110,270L194,262Z" fill="rgb(135,202,140)" stroke="rgb(135,202,140)" stroke-width="1.51"></path><path d="M268,59L175,126L269,122Z" fill="rgb(176,223,169)" stroke="rgb(176,223,169)" stroke-width="1.51"></path><path d="M499,116L488,38L423,111Z" fill="rgb(123,183,128)" stroke="rgb(123,183,128)" stroke-width="1.51"></path><path d="M554,206L566,121L499,116Z" fill="rgb(91,158,97)" stroke="rgb(91,158,97)" stroke-width="1.51"></path><path d="M640,184L566,121L554,206Z" fill="rgb(75,139,82)" stroke="rgb(75,139,82)" stroke-width="1.51"></path><path d="M406,63L344,-18L322,34Z" fill="rgb(162,213,165)" stroke="rgb(162,213,165)" stroke-width="1.51"></path><path d="M573,62L488,38L499,116Z" fill="rgb(121,174,124)" stroke="rgb(121,174,124)" stroke-width="1.51"></path><path d="M474,416L574,350L488,346Z" fill="rgb(3,103,42)" stroke="rgb(3,103,42)" stroke-width="1.51"></path><path d="M550,272L627,272L554,206Z" fill="rgb(34,124,61)" stroke="rgb(34,124,61)" stroke-width="1.51"></path><path d="M322,34L263,-40L268,59Z" fill="rgb(185,225,181)" stroke="rgb(185,225,181)" stroke-width="1.51"></path><path d="M268,59L202,36L175,126Z" fill="rgb(191,229,184)" stroke="rgb(191,229,184)" stroke-width="1.51"></path><path d="M428,-35L344,-18L406,63Z" fill="rgb(157,208,163)" stroke="rgb(157,208,163)" stroke-width="1.51"></path><path d="M175,126L116,186L184,208Z" fill="rgb(168,219,163)" stroke="rgb(168,219,163)" stroke-width="1.51"></path><path d="M263,-40L202,36L268,59Z" fill="rgb(196,231,190)" stroke="rgb(196,231,190)" stroke-width="1.51"></path><path d="M175,126L99,127L116,186Z" fill="rgb(186,227,179)" stroke="rgb(186,227,179)" stroke-width="1.51"></path><path d="M634,422L625,345L574,350Z" fill="rgb(0,79,31)" stroke="rgb(0,79,31)" stroke-width="1.51"></path><path d="M426,431L491,501L474,416Z" fill="rgb(14,100,45)" stroke="rgb(14,100,45)" stroke-width="1.51"></path><path d="M323,436L411,489L426,431Z" fill="rgb(31,115,57)" stroke="rgb(31,115,57)" stroke-width="1.51"></path><path d="M334,502L411,489L323,436Z" fill="rgb(40,120,61)" stroke="rgb(40,120,61)" stroke-width="1.51"></path><path d="M116,186L110,270L184,208Z" fill="rgb(152,210,152)" stroke="rgb(152,210,152)" stroke-width="1.51"></path><path d="M197,344L176,434L276,431Z" fill="rgb(85,140,89)" stroke="rgb(85,140,89)" stroke-width="1.51"></path><path d="M574,350L627,272L550,272Z" fill="rgb(18,108,50)" stroke="rgb(18,108,50)" stroke-width="1.51"></path><path d="M566,121L573,62L499,116Z" fill="rgb(109,163,112)" stroke="rgb(109,163,112)" stroke-width="1.51"></path><path d="M488,38L428,-35L406,63Z" fill="rgb(145,196,151)" stroke="rgb(145,196,151)" stroke-width="1.51"></path><path d="M628,63L573,62L566,121Z" fill="rgb(109,152,111)" stroke="rgb(109,152,111)" stroke-width="1.51"></path><path d="M264,508L334,502L323,436Z" fill="rgb(58,128,69)" stroke="rgb(58,128,69)" stroke-width="1.51"></path><path d="M264,508L323,436L276,431Z" fill="rgb(64,131,73)" stroke="rgb(64,131,73)" stroke-width="1.51"></path><path d="M480,-24L428,-35L488,38Z" fill="rgb(145,192,151)" stroke="rgb(145,192,151)" stroke-width="1.51"></path><path d="M627,272L640,184L554,206Z" fill="rgb(50,125,66)" stroke="rgb(50,125,66)" stroke-width="1.51"></path><path d="M104,355L176,434L197,344Z" fill="rgb(104,156,107)" stroke="rgb(104,156,107)" stroke-width="1.51"></path><path d="M555,-16L480,-24L488,38Z" fill="rgb(139,183,143)" stroke="rgb(139,183,143)" stroke-width="1.51"></path><path d="M574,350L625,345L627,272Z" fill="rgb(9,96,42)" stroke="rgb(9,96,42)" stroke-width="1.51"></path><path d="M627,272L703,187L640,184Z" fill="rgb(53,126,67)" stroke="rgb(53,126,67)" stroke-width="1.51"></path><path d="M577,437L574,350L474,416Z" fill="rgb(0,84,33)" stroke="rgb(0,84,33)" stroke-width="1.51"></path><path d="M22,185L23,284L110,270Z" fill="rgb(157,210,161)" stroke="rgb(157,210,161)" stroke-width="1.51"></path><path d="M114,62L99,127L175,126Z" fill="rgb(201,234,194)" stroke="rgb(201,234,194)" stroke-width="1.51"></path><path d="M110,270L104,355L197,344Z" fill="rgb(120,179,125)" stroke="rgb(120,179,125)" stroke-width="1.51"></path><path d="M23,284L104,355L110,270Z" fill="rgb(137,190,142)" stroke="rgb(137,190,142)" stroke-width="1.51"></path><path d="M491,501L577,437L474,416Z" fill="rgb(2,90,37)" stroke="rgb(2,90,37)" stroke-width="1.51"></path><path d="M640,184L642,132L566,121Z" fill="rgb(84,140,89)" stroke="rgb(84,140,89)" stroke-width="1.51"></path><path d="M202,36L114,62L175,126Z" fill="rgb(203,235,196)" stroke="rgb(203,235,196)" stroke-width="1.51"></path><path d="M344,-18L263,-40L322,34Z" fill="rgb(180,223,179)" stroke="rgb(180,223,179)" stroke-width="1.51"></path><path d="M326,-96L263,-40L344,-18Z" fill="rgb(180,222,178)" stroke="rgb(180,222,178)" stroke-width="1.51"></path><path d="M176,434L264,508L276,431Z" fill="rgb(79,137,84)" stroke="rgb(79,137,84)" stroke-width="1.51"></path><path d="M411,489L491,501L426,431Z" fill="rgb(18,104,48)" stroke="rgb(18,104,48)" stroke-width="1.51"></path><path d="M334,502L491,501L411,489Z" fill="rgb(25,110,53)" stroke="rgb(25,110,53)" stroke-width="1.51"></path><path d="M563,512L491,501L334,502Z" fill="rgb(14,100,45)" stroke="rgb(14,100,45)" stroke-width="1.51"></path><path d="M178,-28L114,62L202,36Z" fill="rgb(216,240,210)" stroke="rgb(216,240,210)" stroke-width="1.51"></path><path d="M642,132L628,63L566,121Z" fill="rgb(100,146,102)" stroke="rgb(100,146,102)" stroke-width="1.51"></path><path d="M573,62L555,-16L488,38Z" fill="rgb(129,173,132)" stroke="rgb(129,173,132)" stroke-width="1.51"></path><path d="M628,63L555,-16L573,62Z" fill="rgb(121,158,124)" stroke="rgb(121,158,124)" stroke-width="1.51"></path><path d="M500,-98L408,-87L428,-35Z" fill="rgb(149,196,154)" stroke="rgb(149,196,154)" stroke-width="1.51"></path><path d="M104,355L123,437L176,434Z" fill="rgb(105,148,107)" stroke="rgb(105,148,107)" stroke-width="1.51"></path><path d="M176,434L173,505L264,508Z" fill="rgb(88,141,92)" stroke="rgb(88,141,92)" stroke-width="1.51"></path><path d="M500,-98L428,-35L480,-24Z" fill="rgb(145,191,150)" stroke="rgb(145,191,150)" stroke-width="1.51"></path><path d="M428,-35L408,-87L344,-18Z" fill="rgb(158,208,164)" stroke="rgb(158,208,164)" stroke-width="1.51"></path><path d="M263,-40L178,-28L202,36Z" fill="rgb(207,236,202)" stroke="rgb(207,236,202)" stroke-width="1.51"></path><path d="M256,-98L178,-28L263,-40Z" fill="rgb(203,234,197)" stroke="rgb(203,234,197)" stroke-width="1.51"></path><path d="M577,437L634,422L574,350Z" fill="rgb(0,69,27)" stroke="rgb(0,69,27)" stroke-width="1.51"></path><path d="M720,264L703,187L627,272Z" fill="rgb(38,119,60)" stroke="rgb(38,119,60)" stroke-width="1.51"></path><path d="M640,184L701,132L642,132Z" fill="rgb(83,139,87)" stroke="rgb(83,139,87)" stroke-width="1.51"></path><path d="M624,515L634,422L577,437Z" fill="rgb(0,68,27)" stroke="rgb(0,68,27)" stroke-width="1.51"></path><path d="M408,-87L326,-96L344,-18Z" fill="rgb(166,215,170)" stroke="rgb(166,215,170)" stroke-width="1.51"></path><path d="M123,437L173,505L176,434Z" fill="rgb(100,146,102)" stroke="rgb(100,146,102)" stroke-width="1.51"></path><path d="M720,264L627,272L728,342Z" fill="rgb(19,105,49)" stroke="rgb(19,105,49)" stroke-width="1.51"></path><path d="M642,132L701,132L628,63Z" fill="rgb(98,145,101)" stroke="rgb(98,145,101)" stroke-width="1.51"></path><path d="M491,501L563,512L577,437Z" fill="rgb(0,83,33)" stroke="rgb(0,83,33)" stroke-width="1.51"></path><path d="M264,508L563,512L334,502Z" fill="rgb(30,115,57)" stroke="rgb(30,115,57)" stroke-width="1.51"></path><path d="M564,-101L500,-98L555,-16Z" fill="rgb(134,175,138)" stroke="rgb(134,175,138)" stroke-width="1.51"></path><path d="M703,187L701,132L640,184Z" fill="rgb(75,136,81)" stroke="rgb(75,136,81)" stroke-width="1.51"></path><path d="M104,355L52,419L123,437Z" fill="rgb(113,151,115)" stroke="rgb(113,151,115)" stroke-width="1.51"></path><path d="M22,185L110,270L116,186Z" fill="rgb(166,217,165)" stroke="rgb(166,217,165)" stroke-width="1.51"></path><path d="M22,185L116,186L99,127Z" fill="rgb(188,227,182)" stroke="rgb(188,227,182)" stroke-width="1.51"></path><path d="M36,115L22,185L99,127Z" fill="rgb(201,233,195)" stroke="rgb(201,233,195)" stroke-width="1.51"></path><path d="M36,115L99,127L114,62Z" fill="rgb(212,239,206)" stroke="rgb(212,239,206)" stroke-width="1.51"></path><path d="M326,-96L256,-98L263,-40Z" fill="rgb(188,227,185)" stroke="rgb(188,227,185)" stroke-width="1.51"></path><path d="M27,51L36,115L114,62Z" fill="rgb(223,243,217)" stroke="rgb(223,243,217)" stroke-width="1.51"></path><path d="M703,187L716,61L701,132Z" fill="rgb(92,143,95)" stroke="rgb(92,143,95)" stroke-width="1.51"></path><path d="M728,342L627,272L625,345Z" fill="rgb(10,97,43)" stroke="rgb(10,97,43)" stroke-width="1.51"></path><path d="M408,-87L500,-98L326,-96Z" fill="rgb(155,204,160)" stroke="rgb(155,204,160)" stroke-width="1.51"></path><path d="M326,-96L199,-116L256,-98Z" fill="rgb(194,230,190)" stroke="rgb(194,230,190)" stroke-width="1.51"></path><path d="M555,-16L500,-98L480,-24Z" fill="rgb(138,182,142)" stroke="rgb(138,182,142)" stroke-width="1.51"></path><path d="M564,-101L555,-16L653,-39Z" fill="rgb(126,159,130)" stroke="rgb(126,159,130)" stroke-width="1.51"></path><path d="M23,284L29,365L104,355Z" fill="rgb(133,182,137)" stroke="rgb(133,182,137)" stroke-width="1.51"></path><path d="M123,437L105,489L173,505Z" fill="rgb(105,148,107)" stroke="rgb(105,148,107)" stroke-width="1.51"></path><path d="M29,365L52,419L104,355Z" fill="rgb(122,162,125)" stroke="rgb(122,162,125)" stroke-width="1.51"></path><path d="M52,419L105,489L123,437Z" fill="rgb(113,151,115)" stroke="rgb(113,151,115)" stroke-width="1.51"></path><path d="M634,422L728,342L625,345Z" fill="rgb(0,80,32)" stroke="rgb(0,80,32)" stroke-width="1.51"></path><path d="M702,436L728,342L634,422Z" fill="rgb(0,68,27)" stroke="rgb(0,68,27)" stroke-width="1.51"></path><path d="M178,-28L104,-37L114,62Z" fill="rgb(227,244,222)" stroke="rgb(227,244,222)" stroke-width="1.51"></path><path d="M117,-84L104,-37L178,-28Z" fill="rgb(227,244,222)" stroke="rgb(227,244,222)" stroke-width="1.51"></path><path d="M264,508L624,515L563,512Z" fill="rgb(9,96,42)" stroke="rgb(9,96,42)" stroke-width="1.51"></path><path d="M563,512L624,515L577,437Z" fill="rgb(0,71,28)" stroke="rgb(0,71,28)" stroke-width="1.51"></path><path d="M-37,128L-39,190L22,185Z" fill="rgb(197,231,193)" stroke="rgb(197,231,193)" stroke-width="1.51"></path><path d="M104,-37L27,51L114,62Z" fill="rgb(232,246,227)" stroke="rgb(232,246,227)" stroke-width="1.51"></path><path d="M500,-98L199,-116L326,-96Z" fill="rgb(171,218,173)" stroke="rgb(171,218,173)" stroke-width="1.51"></path><path d="M653,-39L555,-16L628,63Z" fill="rgb(124,156,128)" stroke="rgb(124,156,128)" stroke-width="1.51"></path><path d="M637,-112L199,-116L500,-98Z" fill="rgb(149,196,154)" stroke="rgb(149,196,154)" stroke-width="1.51"></path><path d="M256,-98L199,-116L178,-28Z" fill="rgb(208,236,203)" stroke="rgb(208,236,203)" stroke-width="1.51"></path><path d="M701,132L716,61L628,63Z" fill="rgb(106,149,108)" stroke="rgb(106,149,108)" stroke-width="1.51"></path><path d="M720,264L716,61L703,187Z" fill="rgb(74,135,80)" stroke="rgb(74,135,80)" stroke-width="1.51"></path><path d="M728,342L716,61L720,264Z" fill="rgb(49,124,65)" stroke="rgb(49,124,65)" stroke-width="1.51"></path><path d="M699,496L702,436L634,422Z" fill="rgb(0,68,27)" stroke="rgb(0,68,27)" stroke-width="1.51"></path><path d="M705,-31L653,-39L628,63Z" fill="rgb(125,156,128)" stroke="rgb(125,156,128)" stroke-width="1.51"></path><path d="M29,365L-38,432L52,419Z" fill="rgb(123,156,126)" stroke="rgb(123,156,126)" stroke-width="1.51"></path><path d="M23,284L-23,344L29,365Z" fill="rgb(139,185,143)" stroke="rgb(139,185,143)" stroke-width="1.51"></path><path d="M22,185L-33,264L23,284Z" fill="rgb(163,214,168)" stroke="rgb(163,214,168)" stroke-width="1.51"></path><path d="M-39,190L-33,264L22,185Z" fill="rgb(178,221,177)" stroke="rgb(178,221,177)" stroke-width="1.51"></path><path d="M199,-116L117,-84L178,-28Z" fill="rgb(220,241,215)" stroke="rgb(220,241,215)" stroke-width="1.51"></path><path d="M104,-37L22,-38L27,51Z" fill="rgb(241,250,238)" stroke="rgb(241,250,238)" stroke-width="1.51"></path><path d="M-33,264L-23,344L23,284Z" fill="rgb(149,196,154)" stroke="rgb(149,196,154)" stroke-width="1.51"></path><path d="M52,419L48,507L105,489Z" fill="rgb(117,153,120)" stroke="rgb(117,153,120)" stroke-width="1.51"></path><path d="M-37,128L22,185L36,115Z" fill="rgb(206,235,201)" stroke="rgb(206,235,201)" stroke-width="1.51"></path><path d="M27,51L-37,128L36,115Z" fill="rgb(223,242,218)" stroke="rgb(223,242,218)" stroke-width="1.51"></path><path d="M-50,57L-37,128L27,51Z" fill="rgb(230,245,225)" stroke="rgb(230,245,225)" stroke-width="1.51"></path><path d="M264,508L48,507L624,515Z" fill="rgb(56,127,68)" stroke="rgb(56,127,68)" stroke-width="1.51"></path><path d="M173,505L48,507L264,508Z" fill="rgb(99,146,101)" stroke="rgb(99,146,101)" stroke-width="1.51"></path><path d="M105,489L48,507L173,505Z" fill="rgb(110,150,112)" stroke="rgb(110,150,112)" stroke-width="1.51"></path><path d="M-27,493L48,507L52,419Z" fill="rgb(122,155,125)" stroke="rgb(122,155,125)" stroke-width="1.51"></path><path d="M624,515L699,496L634,422Z" fill="rgb(0,68,27)" stroke="rgb(0,68,27)" stroke-width="1.51"></path><path d="M702,436L699,496L728,342Z" fill="rgb(0,68,27)" stroke="rgb(0,68,27)" stroke-width="1.51"></path><path d="M716,61L705,-31L628,63Z" fill="rgb(120,154,122)" stroke="rgb(120,154,122)" stroke-width="1.51"></path><path d="M653,-39L637,-112L564,-101Z" fill="rgb(125,156,128)" stroke="rgb(125,156,128)" stroke-width="1.51"></path><path d="M564,-101L637,-112L500,-98Z" fill="rgb(130,166,133)" stroke="rgb(130,166,133)" stroke-width="1.51"></path><path d="M728,-100L637,-112L653,-39Z" fill="rgb(125,156,128)" stroke="rgb(125,156,128)" stroke-width="1.51"></path><path d="M35,-91L22,-38L104,-37Z" fill="rgb(241,250,237)" stroke="rgb(241,250,237)" stroke-width="1.51"></path><path d="M-23,344L-38,432L29,365Z" fill="rgb(129,165,133)" stroke="rgb(129,165,133)" stroke-width="1.51"></path><path d="M-117,357L-38,432L-23,344Z" fill="rgb(130,166,133)" stroke="rgb(130,166,133)" stroke-width="1.51"></path><path d="M-113,290L-23,344L-33,264Z" fill="rgb(148,195,154)" stroke="rgb(148,195,154)" stroke-width="1.51"></path><path d="M-119,197L-113,290L-33,264Z" fill="rgb(161,212,167)" stroke="rgb(161,212,167)" stroke-width="1.51"></path><path d="M-119,197L-33,264L-39,190Z" fill="rgb(176,220,176)" stroke="rgb(176,220,176)" stroke-width="1.51"></path><path d="M-38,-40L-50,57L27,51Z" fill="rgb(243,251,240)" stroke="rgb(243,251,240)" stroke-width="1.51"></path><path d="M22,-38L-38,-40L27,51Z" fill="rgb(247,252,244)" stroke="rgb(247,252,244)" stroke-width="1.51"></path><path d="M117,-84L35,-91L104,-37Z" fill="rgb(236,248,232)" stroke="rgb(236,248,232)" stroke-width="1.51"></path><path d="M199,-116L35,-91L117,-84Z" fill="rgb(230,245,225)" stroke="rgb(230,245,225)" stroke-width="1.51"></path><path d="M-38,432L-27,493L52,419Z" fill="rgb(125,156,128)" stroke="rgb(125,156,128)" stroke-width="1.51"></path><path d="M-38,432L-113,502L-27,493Z" fill="rgb(125,156,128)" stroke="rgb(125,156,128)" stroke-width="1.51"></path><path d="M-119,197L-39,190L-109,118Z" fill="rgb(197,231,192)" stroke="rgb(197,231,192)" stroke-width="1.51"></path><path d="M-109,118L-39,190L-37,128Z" fill="rgb(206,236,201)" stroke="rgb(206,236,201)" stroke-width="1.51"></path><path d="M-24,-113L-38,-40L22,-38Z" fill="rgb(247,252,245)" stroke="rgb(247,252,245)" stroke-width="1.51"></path><path d="M-50,57L-109,118L-37,128Z" fill="rgb(223,243,218)" stroke="rgb(223,243,218)" stroke-width="1.51"></path><path d="M-111,39L-109,118L-50,57Z" fill="rgb(232,246,227)" stroke="rgb(232,246,227)" stroke-width="1.51"></path><path d="M705,-31L728,-100L653,-39Z" fill="rgb(125,156,128)" stroke="rgb(125,156,128)" stroke-width="1.51"></path><path d="M716,61L728,-100L705,-31Z" fill="rgb(125,156,128)" stroke="rgb(125,156,128)" stroke-width="1.51"></path><path d="M728,342L728,-100L716,61Z" fill="rgb(101,147,104)" stroke="rgb(101,147,104)" stroke-width="1.51"></path><path d="M-113,290L-117,357L-23,344Z" fill="rgb(141,186,145)" stroke="rgb(141,186,145)" stroke-width="1.51"></path><path d="M-119,197L-117,357L-113,290Z" fill="rgb(153,202,159)" stroke="rgb(153,202,159)" stroke-width="1.51"></path><path d="M-100,-23L-111,39L-50,57Z" fill="rgb(243,251,240)" stroke="rgb(243,251,240)" stroke-width="1.51"></path><path d="M-109,118L-111,39L-119,197Z" fill="rgb(216,240,212)" stroke="rgb(216,240,212)" stroke-width="1.51"></path><path d="M-38,-40L-100,-23L-50,57Z" fill="rgb(247,252,245)" stroke="rgb(247,252,245)" stroke-width="1.51"></path><path d="M35,-91L-24,-113L22,-38Z" fill="rgb(246,252,243)" stroke="rgb(246,252,243)" stroke-width="1.51"></path><path d="M199,-116L-24,-113L35,-91Z" fill="rgb(239,249,235)" stroke="rgb(239,249,235)" stroke-width="1.51"></path><path d="M-117,357L-122,429L-38,432Z" fill="rgb(125,156,128)" stroke="rgb(125,156,128)" stroke-width="1.51"></path><path d="M-119,197L-122,429L-117,357Z" fill="rgb(141,186,146)" stroke="rgb(141,186,146)" stroke-width="1.51"></path><path d="M-104,-113L-100,-23L-38,-40Z" fill="rgb(247,252,245)" stroke="rgb(247,252,245)" stroke-width="1.51"></path><path d="M-122,429L-113,502L-38,432Z" fill="rgb(125,156,128)" stroke="rgb(125,156,128)" stroke-width="1.51"></path><path d="M-27,493L-113,502L48,507Z" fill="rgb(125,156,128)" stroke="rgb(125,156,128)" stroke-width="1.51"></path><path d="M-24,-113L-104,-113L-38,-40Z" fill="rgb(247,252,245)" stroke="rgb(247,252,245)" stroke-width="1.51"></path><path d="M-100,-23L-104,-113L-111,39Z" fill="rgb(247,252,245)" stroke="rgb(247,252,245)" stroke-width="1.51"></path><path d="M-111,39L-104,-113L-119,197Z" fill="rgb(240,249,236)" stroke="rgb(240,249,236)" stroke-width="1.51"></path><path d="M199,-116L-104,-113L-24,-113Z" fill="rgb(244,251,241)" stroke="rgb(244,251,241)" stroke-width="1.51"></path></svg>