<svg width="600" height="400" xmlns="http://www.w3.org/2000/svg"><path d="M327,196L423,189L348,135Z" fill="rgb(239,238,222)" stroke="rgb(239,238,222)" stroke-width="1.51"></path><path d="M423,189L410,135L348,135Z" fill="rgb(229,226,201)" stroke="rgb(229,226,201)" stroke-width="1.51"></path><path d="M327,196L344,261L423,189Z" fill="rgb(234,245,217)" stroke="rgb(234,245,217)" stroke-width="1.51"></path><path d="M423,189L480,127L410,135Z" fill="rgb(211,215,175)" stroke="rgb(211,215,175)" stroke-width="1.51"></path><path d="M476,280L484,196L423,189Z" fill="rgb(193,223,157)" stroke="rgb(193,223,157)" stroke-width="1.51"></path><path d="M344,261L417,283L423,189Z" fill="rgb(215,239,182)" stroke="rgb(215,239,182)" stroke-width="1.51"></path><path d="M269,49L256,113L348,135Z" fill="rgb(242,197,220)" stroke="rgb(242,197,220)" stroke-width="1.51"></path><path d="M484,196L480,127L423,189Z" fill="rgb(201,215,164)" stroke="rgb(201,215,164)" stroke-width="1.51"></path><path d="M327,196L266,287L344,261Z" fill="rgb(233,244,216)" stroke="rgb(233,244,216)" stroke-width="1.51"></path><path d="M256,113L253,187L327,196Z" fill="rgb(251,233,242)" stroke="rgb(251,233,242)" stroke-width="1.51"></path><path d="M348,135L256,113L327,196Z" fill="rgb(247,229,237)" stroke="rgb(247,229,237)" stroke-width="1.51"></path><path d="M401,44L348,135L410,135Z" fill="rgb(225,198,189)" stroke="rgb(225,198,189)" stroke-width="1.51"></path><path d="M480,127L401,44L410,135Z" fill="rgb(208,189,162)" stroke="rgb(208,189,162)" stroke-width="1.51"></path><path d="M417,283L476,280L423,189Z" fill="rgb(193,227,151)" stroke="rgb(193,227,151)" stroke-width="1.51"></path><path d="M401,44L342,36L348,135Z" fill="rgb(226,177,184)" stroke="rgb(226,177,184)" stroke-width="1.51"></path><path d="M253,187L266,287L327,196Z" fill="rgb(243,243,235)" stroke="rgb(243,243,235)" stroke-width="1.51"></path><path d="M344,261L337,338L417,283Z" fill="rgb(196,228,156)" stroke="rgb(196,228,156)" stroke-width="1.51"></path><path d="M266,287L337,338L344,261Z" fill="rgb(204,229,173)" stroke="rgb(204,229,173)" stroke-width="1.51"></path><path d="M417,283L415,346L476,280Z" fill="rgb(161,209,106)" stroke="rgb(161,209,106)" stroke-width="1.51"></path><path d="M342,36L269,49L348,135Z" fill="rgb(234,178,200)" stroke="rgb(234,178,200)" stroke-width="1.51"></path><path d="M337,338L415,346L417,283Z" fill="rgb(167,210,118)" stroke="rgb(167,210,118)" stroke-width="1.51"></path><path d="M480,127L499,54L401,44Z" fill="rgb(190,160,132)" stroke="rgb(190,160,132)" stroke-width="1.51"></path><path d="M401,44L350,-19L342,36Z" fill="rgb(206,143,152)" stroke="rgb(206,143,152)" stroke-width="1.51"></path><path d="M558,123L499,54L480,127Z" fill="rgb(173,163,126)" stroke="rgb(173,163,126)" stroke-width="1.51"></path><path d="M558,123L480,127L484,196Z" fill="rgb(181,192,143)" stroke="rgb(181,192,143)" stroke-width="1.51"></path><path d="M253,187L185,208L266,287Z" fill="rgb(244,233,229)" stroke="rgb(244,233,229)" stroke-width="1.51"></path><path d="M188,133L185,208L253,187Z" fill="rgb(249,218,235)" stroke="rgb(249,218,235)" stroke-width="1.51"></path><path d="M188,133L253,187L256,113Z" fill="rgb(251,214,233)" stroke="rgb(251,214,233)" stroke-width="1.51"></path><path d="M193,47L188,133L256,113Z" fill="rgb(240,176,211)" stroke="rgb(240,176,211)" stroke-width="1.51"></path><path d="M569,203L558,123L484,196Z" fill="rgb(169,191,139)" stroke="rgb(169,191,139)" stroke-width="1.51"></path><path d="M550,278L569,203L484,196Z" fill="rgb(161,198,130)" stroke="rgb(161,198,130)" stroke-width="1.51"></path><path d="M550,278L484,196L476,280Z" fill="rgb(164,205,121)" stroke="rgb(164,205,121)" stroke-width="1.51"></path><path d="M342,36L258,-23L269,49Z" fill="rgb(215,141,172)" stroke="rgb(215,141,172)" stroke-width="1.51"></path><path d="M408,-23L350,-19L401,44Z" fill="rgb(184,133,129)" stroke="rgb(184,133,129)" stroke-width="1.51"></path><path d="M266,287L269,348L337,338Z" fill="rgb(188,213,155)" stroke="rgb(188,213,155)" stroke-width="1.51"></path><path d="M337,338L419,420L415,346Z" fill="rgb(139,185,102)" stroke="rgb(139,185,102)" stroke-width="1.51"></path><path d="M184,339L269,348L266,287Z" fill="rgb(191,205,151)" stroke="rgb(191,205,151)" stroke-width="1.51"></path><path d="M484,354L550,278L476,280Z" fill="rgb(129,187,73)" stroke="rgb(129,187,73)" stroke-width="1.51"></path><path d="M477,-35L408,-23L401,44Z" fill="rgb(168,127,105)" stroke="rgb(168,127,105)" stroke-width="1.51"></path><path d="M415,346L484,354L476,280Z" fill="rgb(134,191,76)" stroke="rgb(134,191,76)" stroke-width="1.51"></path><path d="M419,420L484,354L415,346Z" fill="rgb(115,171,71)" stroke="rgb(115,171,71)" stroke-width="1.51"></path><path d="M185,208L179,273L266,287Z" fill="rgb(231,221,203)" stroke="rgb(231,221,203)" stroke-width="1.51"></path><path d="M119,211L179,273L185,208Z" fill="rgb(237,204,211)" stroke="rgb(237,204,211)" stroke-width="1.51"></path><path d="M269,49L193,47L256,113Z" fill="rgb(237,163,199)" stroke="rgb(237,163,199)" stroke-width="1.51"></path><path d="M188,133L119,211L185,208Z" fill="rgb(244,202,225)" stroke="rgb(244,202,225)" stroke-width="1.51"></path><path d="M258,-23L193,47L269,49Z" fill="rgb(218,132,171)" stroke="rgb(218,132,171)" stroke-width="1.51"></path><path d="M267,-106L258,-23L350,-19Z" fill="rgb(200,135,160)" stroke="rgb(200,135,160)" stroke-width="1.51"></path><path d="M350,-19L258,-23L342,36Z" fill="rgb(198,136,155)" stroke="rgb(198,136,155)" stroke-width="1.51"></path><path d="M499,54L477,-35L401,44Z" fill="rgb(169,126,101)" stroke="rgb(169,126,101)" stroke-width="1.51"></path><path d="M558,123L562,41L499,54Z" fill="rgb(157,133,104)" stroke="rgb(157,133,104)" stroke-width="1.51"></path><path d="M643,48L562,41L558,123Z" fill="rgb(140,113,96)" stroke="rgb(140,113,96)" stroke-width="1.51"></path><path d="M408,-23L406,-92L350,-19Z" fill="rgb(183,133,127)" stroke="rgb(183,133,127)" stroke-width="1.51"></path><path d="M550,-18L477,-35L499,54Z" fill="rgb(135,105,72)" stroke="rgb(135,105,72)" stroke-width="1.51"></path><path d="M324,422L419,420L337,338Z" fill="rgb(137,174,114)" stroke="rgb(137,174,114)" stroke-width="1.51"></path><path d="M269,348L324,422L337,338Z" fill="rgb(158,190,135)" stroke="rgb(158,190,135)" stroke-width="1.51"></path><path d="M179,273L184,339L266,287Z" fill="rgb(205,206,165)" stroke="rgb(205,206,165)" stroke-width="1.51"></path><path d="M257,431L324,422L269,348Z" fill="rgb(144,169,131)" stroke="rgb(144,169,131)" stroke-width="1.51"></path><path d="M569,203L632,133L558,123Z" fill="rgb(151,164,128)" stroke="rgb(151,164,128)" stroke-width="1.51"></path><path d="M639,269L628,200L569,203Z" fill="rgb(138,171,121)" stroke="rgb(138,171,121)" stroke-width="1.51"></path><path d="M639,269L569,203L550,278Z" fill="rgb(133,173,106)" stroke="rgb(133,173,106)" stroke-width="1.51"></path><path d="M484,354L567,346L550,278Z" fill="rgb(101,166,48)" stroke="rgb(101,166,48)" stroke-width="1.51"></path><path d="M573,420L567,346L484,354Z" fill="rgb(70,137,32)" stroke="rgb(70,137,32)" stroke-width="1.51"></path><path d="M179,273L104,279L184,339Z" fill="rgb(202,186,154)" stroke="rgb(202,186,154)" stroke-width="1.51"></path><path d="M111,114L119,211L188,133Z" fill="rgb(241,178,211)" stroke="rgb(241,178,211)" stroke-width="1.51"></path><path d="M628,200L632,133L569,203Z" fill="rgb(145,166,130)" stroke="rgb(145,166,130)" stroke-width="1.51"></path><path d="M562,41L550,-18L499,54Z" fill="rgb(142,104,78)" stroke="rgb(142,104,78)" stroke-width="1.51"></path><path d="M636,-38L550,-18L562,41Z" fill="rgb(108,79,59)" stroke="rgb(108,79,59)" stroke-width="1.51"></path><path d="M193,47L111,114L188,133Z" fill="rgb(234,157,200)" stroke="rgb(234,157,200)" stroke-width="1.51"></path><path d="M113,46L111,114L193,47Z" fill="rgb(223,119,174)" stroke="rgb(223,119,174)" stroke-width="1.51"></path><path d="M477,-35L406,-92L408,-23Z" fill="rgb(167,127,104)" stroke="rgb(167,127,104)" stroke-width="1.51"></path><path d="M487,-106L406,-92L477,-35Z" fill="rgb(156,119,91)" stroke="rgb(156,119,91)" stroke-width="1.51"></path><path d="M184,339L257,431L269,348Z" fill="rgb(161,177,134)" stroke="rgb(161,177,134)" stroke-width="1.51"></path><path d="M406,492L482,437L419,420Z" fill="rgb(104,156,69)" stroke="rgb(104,156,69)" stroke-width="1.51"></path><path d="M567,346L639,269L550,278Z" fill="rgb(103,159,65)" stroke="rgb(103,159,65)" stroke-width="1.51"></path><path d="M716,208L708,119L632,133Z" fill="rgb(146,158,126)" stroke="rgb(146,158,126)" stroke-width="1.51"></path><path d="M419,420L482,437L484,354Z" fill="rgb(92,148,55)" stroke="rgb(92,148,55)" stroke-width="1.51"></path><path d="M567,346L631,344L639,269Z" fill="rgb(83,143,45)" stroke="rgb(83,143,45)" stroke-width="1.51"></path><path d="M345,492L419,420L324,422Z" fill="rgb(133,170,112)" stroke="rgb(133,170,112)" stroke-width="1.51"></path><path d="M258,-23L178,-31L193,47Z" fill="rgb(197,114,152)" stroke="rgb(197,114,152)" stroke-width="1.51"></path><path d="M184,-102L178,-31L258,-23Z" fill="rgb(197,113,151)" stroke="rgb(197,113,151)" stroke-width="1.51"></path><path d="M119,211L104,279L179,273Z" fill="rgb(224,188,183)" stroke="rgb(224,188,183)" stroke-width="1.51"></path><path d="M184,339L179,434L257,431Z" fill="rgb(145,151,123)" stroke="rgb(145,151,123)" stroke-width="1.51"></path><path d="M39,192L104,279L119,211Z" fill="rgb(228,166,183)" stroke="rgb(228,166,183)" stroke-width="1.51"></path><path d="M111,114L39,192L119,211Z" fill="rgb(234,158,194)" stroke="rgb(234,158,194)" stroke-width="1.51"></path><path d="M178,-31L113,46L193,47Z" fill="rgb(205,100,152)" stroke="rgb(205,100,152)" stroke-width="1.51"></path><path d="M406,-92L340,-113L350,-19Z" fill="rgb(190,136,139)" stroke="rgb(190,136,139)" stroke-width="1.51"></path><path d="M708,119L643,48L632,133Z" fill="rgb(140,129,109)" stroke="rgb(140,129,109)" stroke-width="1.51"></path><path d="M632,133L643,48L558,123Z" fill="rgb(141,130,110)" stroke="rgb(141,130,110)" stroke-width="1.51"></path><path d="M340,-113L267,-106L350,-19Z" fill="rgb(198,136,155)" stroke="rgb(198,136,155)" stroke-width="1.51"></path><path d="M406,-92L487,-106L340,-113Z" fill="rgb(175,130,114)" stroke="rgb(175,130,114)" stroke-width="1.51"></path><path d="M555,-95L487,-106L477,-35Z" fill="rgb(136,105,72)" stroke="rgb(136,105,72)" stroke-width="1.51"></path><path d="M555,-95L477,-35L550,-18Z" fill="rgb(128,99,67)" stroke="rgb(128,99,67)" stroke-width="1.51"></path><path d="M573,420L631,344L567,346Z" fill="rgb(56,120,29)" stroke="rgb(56,120,29)" stroke-width="1.51"></path><path d="M482,437L573,420L484,354Z" fill="rgb(69,132,36)" stroke="rgb(69,132,36)" stroke-width="1.51"></path><path d="M263,505L345,492L324,422Z" fill="rgb(142,172,128)" stroke="rgb(142,172,128)" stroke-width="1.51"></path><path d="M482,437L565,495L573,420Z" fill="rgb(58,123,29)" stroke="rgb(58,123,29)" stroke-width="1.51"></path><path d="M345,492L406,492L419,420Z" fill="rgb(123,165,96)" stroke="rgb(123,165,96)" stroke-width="1.51"></path><path d="M257,431L263,505L324,422Z" fill="rgb(145,169,131)" stroke="rgb(145,169,131)" stroke-width="1.51"></path><path d="M115,424L179,434L184,339Z" fill="rgb(142,134,113)" stroke="rgb(142,134,113)" stroke-width="1.51"></path><path d="M117,-103L122,-28L178,-31Z" fill="rgb(186,81,133)" stroke="rgb(186,81,133)" stroke-width="1.51"></path><path d="M178,-31L122,-28L113,46Z" fill="rgb(186,80,133)" stroke="rgb(186,80,133)" stroke-width="1.51"></path><path d="M636,-38L555,-95L550,-18Z" fill="rgb(109,80,59)" stroke="rgb(109,80,59)" stroke-width="1.51"></path><path d="M104,279L102,362L184,339Z" fill="rgb(180,160,124)" stroke="rgb(180,160,124)" stroke-width="1.51"></path><path d="M104,279L34,286L102,362Z" fill="rgb(184,142,117)" stroke="rgb(184,142,117)" stroke-width="1.51"></path><path d="M37,137L39,192L111,114Z" fill="rgb(228,132,179)" stroke="rgb(228,132,179)" stroke-width="1.51"></path><path d="M37,137L111,114L26,47Z" fill="rgb(215,98,159)" stroke="rgb(215,98,159)" stroke-width="1.51"></path><path d="M406,492L486,497L482,437Z" fill="rgb(93,150,57)" stroke="rgb(93,150,57)" stroke-width="1.51"></path><path d="M263,505L486,497L406,492Z" fill="rgb(124,166,99)" stroke="rgb(124,166,99)" stroke-width="1.51"></path><path d="M117,-103L184,-102L267,-106Z" fill="rgb(195,107,148)" stroke="rgb(195,107,148)" stroke-width="1.51"></path><path d="M267,-106L184,-102L258,-23Z" fill="rgb(200,123,156)" stroke="rgb(200,123,156)" stroke-width="1.51"></path><path d="M716,208L628,200L639,269Z" fill="rgb(137,171,120)" stroke="rgb(137,171,120)" stroke-width="1.51"></path><path d="M716,208L632,133L628,200Z" fill="rgb(145,167,130)" stroke="rgb(145,167,130)" stroke-width="1.51"></path><path d="M643,48L636,-38L562,41Z" fill="rgb(114,78,65)" stroke="rgb(114,78,65)" stroke-width="1.51"></path><path d="M26,47L111,114L113,46Z" fill="rgb(212,86,152)" stroke="rgb(212,86,152)" stroke-width="1.51"></path><path d="M719,-21L636,-38L643,48Z" fill="rgb(103,73,57)" stroke="rgb(103,73,57)" stroke-width="1.51"></path><path d="M706,288L716,208L639,269Z" fill="rgb(125,167,100)" stroke="rgb(125,167,100)" stroke-width="1.51"></path><path d="M345,492L263,505L406,492Z" fill="rgb(137,171,120)" stroke="rgb(137,171,120)" stroke-width="1.51"></path><path d="M193,495L263,505L257,431Z" fill="rgb(147,161,128)" stroke="rgb(147,161,128)" stroke-width="1.51"></path><path d="M631,344L706,288L639,269Z" fill="rgb(97,151,61)" stroke="rgb(97,151,61)" stroke-width="1.51"></path><path d="M708,356L706,288L631,344Z" fill="rgb(77,138,41)" stroke="rgb(77,138,41)" stroke-width="1.51"></path><path d="M565,495L628,423L573,420Z" fill="rgb(43,104,26)" stroke="rgb(43,104,26)" stroke-width="1.51"></path><path d="M573,420L628,423L631,344Z" fill="rgb(41,102,26)" stroke="rgb(41,102,26)" stroke-width="1.51"></path><path d="M39,192L34,286L104,279Z" fill="rgb(214,148,155)" stroke="rgb(214,148,155)" stroke-width="1.51"></path><path d="M-50,212L34,286L39,192Z" fill="rgb(198,139,150)" stroke="rgb(198,139,150)" stroke-width="1.51"></path><path d="M179,434L193,495L257,431Z" fill="rgb(145,152,123)" stroke="rgb(145,152,123)" stroke-width="1.51"></path><path d="M102,362L115,424L184,339Z" fill="rgb(152,136,109)" stroke="rgb(152,136,109)" stroke-width="1.51"></path><path d="M30,420L115,424L102,362Z" fill="rgb(132,97,85)" stroke="rgb(132,97,85)" stroke-width="1.51"></path><path d="M124,507L193,495L179,434Z" fill="rgb(142,136,114)" stroke="rgb(142,136,114)" stroke-width="1.51"></path><path d="M486,497L565,495L482,437Z" fill="rgb(70,132,37)" stroke="rgb(70,132,37)" stroke-width="1.51"></path><path d="M633,512L565,495L486,497Z" fill="rgb(51,114,28)" stroke="rgb(51,114,28)" stroke-width="1.51"></path><path d="M716,208L725,58L708,119Z" fill="rgb(144,147,121)" stroke="rgb(144,147,121)" stroke-width="1.51"></path><path d="M708,119L725,58L643,48Z" fill="rgb(136,112,97)" stroke="rgb(136,112,97)" stroke-width="1.51"></path><path d="M37,137L-27,133L39,192Z" fill="rgb(208,125,161)" stroke="rgb(208,125,161)" stroke-width="1.51"></path><path d="M25,-29L26,47L113,46Z" fill="rgb(181,20,113)" stroke="rgb(181,20,113)" stroke-width="1.51"></path><path d="M25,-29L113,46L122,-28Z" fill="rgb(175,45,113)" stroke="rgb(175,45,113)" stroke-width="1.51"></path><path d="M720,-101L625,-102L636,-38Z" fill="rgb(103,73,57)" stroke="rgb(103,73,57)" stroke-width="1.51"></path><path d="M636,-38L625,-102L555,-95Z" fill="rgb(103,73,57)" stroke="rgb(103,73,57)" stroke-width="1.51"></path><path d="M555,-95L625,-102L487,-106Z" fill="rgb(118,89,62)" stroke="rgb(118,89,62)" stroke-width="1.51"></path><path d="M487,-106L720,-101L340,-113Z" fill="rgb(132,102,70)" stroke="rgb(132,102,70)" stroke-width="1.51"></path><path d="M628,423L708,356L631,344Z" fill="rgb(51,114,28)" stroke="rgb(51,114,28)" stroke-width="1.51"></path><path d="M706,288L708,356L716,208Z" fill="rgb(108,159,75)" stroke="rgb(108,159,75)" stroke-width="1.51"></path><path d="M716,208L722,436L725,58Z" fill="rgb(136,170,116)" stroke="rgb(136,170,116)" stroke-width="1.51"></path><path d="M722,436L708,356L628,423Z" fill="rgb(39,100,25)" stroke="rgb(39,100,25)" stroke-width="1.51"></path><path d="M184,-102L117,-103L178,-31Z" fill="rgb(190,92,140)" stroke="rgb(190,92,140)" stroke-width="1.51"></path><path d="M340,-113L117,-103L267,-106Z" fill="rgb(201,125,157)" stroke="rgb(201,125,157)" stroke-width="1.51"></path><path d="M34,286L26,355L102,362Z" fill="rgb(162,119,93)" stroke="rgb(162,119,93)" stroke-width="1.51"></path><path d="M115,424L124,507L179,434Z" fill="rgb(139,124,106)" stroke="rgb(139,124,106)" stroke-width="1.51"></path><path d="M-49,342L26,355L34,286Z" fill="rgb(143,111,77)" stroke="rgb(143,111,77)" stroke-width="1.51"></path><path d="M725,58L719,-21L643,48Z" fill="rgb(121,82,71)" stroke="rgb(121,82,71)" stroke-width="1.51"></path><path d="M26,47L-27,133L37,137Z" fill="rgb(195,94,144)" stroke="rgb(195,94,144)" stroke-width="1.51"></path><path d="M-46,46L-27,133L26,47Z" fill="rgb(181,65,124)" stroke="rgb(181,65,124)" stroke-width="1.51"></path><path d="M49,-93L25,-29L122,-28Z" fill="rgb(170,23,105)" stroke="rgb(170,23,105)" stroke-width="1.51"></path><path d="M38,513L124,507L115,424Z" fill="rgb(133,101,89)" stroke="rgb(133,101,89)" stroke-width="1.51"></path><path d="M193,495L124,507L263,505Z" fill="rgb(144,147,121)" stroke="rgb(144,147,121)" stroke-width="1.51"></path><path d="M-39,424L30,420L26,355Z" fill="rgb(105,74,59)" stroke="rgb(105,74,59)" stroke-width="1.51"></path><path d="M26,355L30,420L102,362Z" fill="rgb(137,96,79)" stroke="rgb(137,96,79)" stroke-width="1.51"></path><path d="M565,495L633,512L628,423Z" fill="rgb(39,100,25)" stroke="rgb(39,100,25)" stroke-width="1.51"></path><path d="M263,505L633,512L486,497Z" fill="rgb(92,149,56)" stroke="rgb(92,149,56)" stroke-width="1.51"></path><path d="M38,513L633,512L263,505Z" fill="rgb(142,172,128)" stroke="rgb(142,172,128)" stroke-width="1.51"></path><path d="M117,-103L49,-93L122,-28Z" fill="rgb(177,53,117)" stroke="rgb(177,53,117)" stroke-width="1.51"></path><path d="M-27,133L-50,212L39,192Z" fill="rgb(200,130,159)" stroke="rgb(200,130,159)" stroke-width="1.51"></path><path d="M-50,212L-46,277L34,286Z" fill="rgb(183,133,127)" stroke="rgb(183,133,127)" stroke-width="1.51"></path><path d="M708,356L722,436L716,208Z" fill="rgb(74,136,39)" stroke="rgb(74,136,39)" stroke-width="1.51"></path><path d="M708,502L722,436L628,423Z" fill="rgb(39,100,25)" stroke="rgb(39,100,25)" stroke-width="1.51"></path><path d="M-27,133L-121,196L-50,212Z" fill="rgb(201,131,159)" stroke="rgb(201,131,159)" stroke-width="1.51"></path><path d="M-42,-23L-46,46L26,47Z" fill="rgb(158,8,94)" stroke="rgb(158,8,94)" stroke-width="1.51"></path><path d="M-42,-23L26,47L25,-29Z" fill="rgb(143,1,83)" stroke="rgb(143,1,83)" stroke-width="1.51"></path><path d="M725,58L720,-101L719,-21Z" fill="rgb(103,73,57)" stroke="rgb(103,73,57)" stroke-width="1.51"></path><path d="M719,-21L720,-101L636,-38Z" fill="rgb(103,73,57)" stroke="rgb(103,73,57)" stroke-width="1.51"></path><path d="M625,-102L720,-101L487,-106Z" fill="rgb(103,73,57)" stroke="rgb(103,73,57)" stroke-width="1.51"></path><path d="M-112,276L-49,342L-46,277Z" fill="rgb(160,122,95)" stroke="rgb(160,122,95)" stroke-width="1.51"></path><path d="M-46,277L-49,342L34,286Z" fill="rgb(158,121,92)" stroke="rgb(158,121,92)" stroke-width="1.51"></path><path d="M-31,-111L-42,-23L25,-29Z" fill="rgb(142,1,82)" stroke="rgb(142,1,82)" stroke-width="1.51"></path><path d="M633,512L708,502L628,423Z" fill="rgb(39,100,25)" stroke="rgb(39,100,25)" stroke-width="1.51"></path><path d="M124,507L38,513L263,505Z" fill="rgb(139,125,107)" stroke="rgb(139,125,107)" stroke-width="1.51"></path><path d="M30,420L38,513L115,424Z" fill="rgb(129,86,78)" stroke="rgb(129,86,78)" stroke-width="1.51"></path><path d="M-25,489L38,513L30,420Z" fill="rgb(109,76,62)" stroke="rgb(109,76,62)" stroke-width="1.51"></path><path d="M-49,342L-39,424L26,355Z" fill="rgb(116,87,62)" stroke="rgb(116,87,62)" stroke-width="1.51"></path><path d="M-49,342L-106,350L-39,424Z" fill="rgb(117,88,62)" stroke="rgb(117,88,62)" stroke-width="1.51"></path><path d="M-50,212L-112,276L-46,277Z" fill="rgb(185,134,130)" stroke="rgb(185,134,130)" stroke-width="1.51"></path><path d="M-121,116L-121,196L-27,133Z" fill="rgb(199,118,154)" stroke="rgb(199,118,154)" stroke-width="1.51"></path><path d="M-121,116L-27,133L-46,46Z" fill="rgb(187,85,136)" stroke="rgb(187,85,136)" stroke-width="1.51"></path><path d="M-121,196L-112,276L-50,212Z" fill="rgb(195,137,148)" stroke="rgb(195,137,148)" stroke-width="1.51"></path><path d="M49,-93L-31,-111L25,-29Z" fill="rgb(148,4,87)" stroke="rgb(148,4,87)" stroke-width="1.51"></path><path d="M-120,59L-121,116L-46,46Z" fill="rgb(180,63,123)" stroke="rgb(180,63,123)" stroke-width="1.51"></path><path d="M117,-103L-31,-111L49,-93Z" fill="rgb(162,11,98)" stroke="rgb(162,11,98)" stroke-width="1.51"></path><path d="M340,-113L-31,-111L117,-103Z" fill="rgb(187,83,134)" stroke="rgb(187,83,134)" stroke-width="1.51"></path><path d="M-120,59L-46,46L-101,-28Z" fill="rgb(159,9,95)" stroke="rgb(159,9,95)" stroke-width="1.51"></path><path d="M-39,424L-25,489L30,420Z" fill="rgb(103,73,57)" stroke="rgb(103,73,57)" stroke-width="1.51"></path><path d="M-116,489L-25,489L-39,424Z" fill="rgb(103,73,57)" stroke="rgb(103,73,57)" stroke-width="1.51"></path><path d="M-101,-28L-46,46L-42,-23Z" fill="rgb(142,1,82)" stroke="rgb(142,1,82)" stroke-width="1.51"></path><path d="M-112,276L-106,350L-49,342Z" fill="rgb(145,112,78)" stroke="rgb(145,112,78)" stroke-width="1.51"></path><path d="M-118,429L-106,350L-112,276Z" fill="rgb(128,99,67)" stroke="rgb(128,99,67)" stroke-width="1.51"></path><path d="M-105,-89L-101,-28L-42,-23Z" fill="rgb(142,1,82)" stroke="rgb(142,1,82)" stroke-width="1.51"></path><path d="M-101,-28L-105,-89L-120,59Z" fill="rgb(142,1,82)" stroke="rgb(142,1,82)" stroke-width="1.51"></path><path d="M-31,-111L-105,-89L-42,-23Z" fill="rgb(142,1,82)" stroke="rgb(142,1,82)" stroke-width="1.51"></path><path d="M-121,196L-118,429L-112,276Z" fill="rgb(158,121,94)" stroke="rgb(158,121,94)" stroke-width="1.51"></path><path d="M-106,350L-118,429L-39,424Z" fill="rgb(103,73,57)" stroke="rgb(103,73,57)" stroke-width="1.51"></path><path d="M-25,489L-116,489L38,513Z" fill="rgb(103,73,57)" stroke="rgb(103,73,57)" stroke-width="1.51"></path><path d="M-118,429L-116,489L-39,424Z" fill="rgb(103,73,57)" stroke="rgb(103,73,57)" stroke-width="1.51"></path></svg>