<svg width="600" height="400" xmlns="http://www.w3.org/2000/svg"><path d="M325,194L262,214L326,264Z" fill="rgb(250,132,50)" stroke="rgb(250,132,50)" stroke-width="1.51"></path><path d="M262,214L269,285L326,264Z" fill="rgb(246,125,45)" stroke="rgb(246,125,45)" stroke-width="1.51"></path><path d="M325,194L276,117L262,214Z" fill="rgb(254,153,76)" stroke="rgb(254,153,76)" stroke-width="1.51"></path><path d="M326,264L417,198L325,194Z" fill="rgb(247,121,39)" stroke="rgb(247,121,39)" stroke-width="1.51"></path><path d="M325,194L340,112L276,117Z" fill="rgb(253,158,86)" stroke="rgb(253,158,86)" stroke-width="1.51"></path><path d="M402,135L340,112L325,194Z" fill="rgb(250,146,73)" stroke="rgb(250,146,73)" stroke-width="1.51"></path><path d="M326,264L423,270L417,198Z" fill="rgb(240,104,21)" stroke="rgb(240,104,21)" stroke-width="1.51"></path><path d="M269,285L338,351L326,264Z" fill="rgb(234,105,31)" stroke="rgb(234,105,31)" stroke-width="1.51"></path><path d="M269,285L277,354L338,351Z" fill="rgb(220,103,35)" stroke="rgb(220,103,35)" stroke-width="1.51"></path><path d="M399,337L423,270L326,264Z" fill="rgb(231,91,10)" stroke="rgb(231,91,10)" stroke-width="1.51"></path><path d="M262,214L179,285L269,285Z" fill="rgb(246,135,61)" stroke="rgb(246,135,61)" stroke-width="1.51"></path><path d="M269,285L192,360L277,354Z" fill="rgb(219,114,51)" stroke="rgb(219,114,51)" stroke-width="1.51"></path><path d="M194,121L173,209L262,214Z" fill="rgb(254,168,98)" stroke="rgb(254,168,98)" stroke-width="1.51"></path><path d="M173,209L179,285L262,214Z" fill="rgb(251,150,79)" stroke="rgb(251,150,79)" stroke-width="1.51"></path><path d="M417,198L402,135L325,194Z" fill="rgb(247,130,53)" stroke="rgb(247,130,53)" stroke-width="1.51"></path><path d="M338,351L399,337L326,264Z" fill="rgb(222,91,17)" stroke="rgb(222,91,17)" stroke-width="1.51"></path><path d="M276,117L194,121L262,214Z" fill="rgb(253,170,101)" stroke="rgb(253,170,101)" stroke-width="1.51"></path><path d="M267,41L194,121L276,117Z" fill="rgb(254,188,131)" stroke="rgb(254,188,131)" stroke-width="1.51"></path><path d="M179,285L192,360L269,285Z" fill="rgb(233,126,63)" stroke="rgb(233,126,63)" stroke-width="1.51"></path><path d="M277,354L339,434L338,351Z" fill="rgb(195,89,27)" stroke="rgb(195,89,27)" stroke-width="1.51"></path><path d="M340,112L330,58L276,117Z" fill="rgb(255,173,110)" stroke="rgb(255,173,110)" stroke-width="1.51"></path><path d="M402,35L330,58L340,112Z" fill="rgb(255,169,112)" stroke="rgb(255,169,112)" stroke-width="1.51"></path><path d="M492,283L474,202L423,270Z" fill="rgb(224,87,9)" stroke="rgb(224,87,9)" stroke-width="1.51"></path><path d="M423,270L474,202L417,198Z" fill="rgb(235,102,25)" stroke="rgb(235,102,25)" stroke-width="1.51"></path><path d="M417,198L474,202L402,135Z" fill="rgb(239,119,47)" stroke="rgb(239,119,47)" stroke-width="1.51"></path><path d="M402,135L402,35L340,112Z" fill="rgb(251,158,96)" stroke="rgb(251,158,96)" stroke-width="1.51"></path><path d="M330,58L267,41L276,117Z" fill="rgb(255,183,127)" stroke="rgb(255,183,127)" stroke-width="1.51"></path><path d="M179,285L121,361L192,360Z" fill="rgb(221,132,79)" stroke="rgb(221,132,79)" stroke-width="1.51"></path><path d="M173,209L115,273L179,285Z" fill="rgb(250,155,92)" stroke="rgb(250,155,92)" stroke-width="1.51"></path><path d="M113,192L115,273L173,209Z" fill="rgb(255,169,108)" stroke="rgb(255,169,108)" stroke-width="1.51"></path><path d="M126,117L113,192L173,209Z" fill="rgb(255,186,127)" stroke="rgb(255,186,127)" stroke-width="1.51"></path><path d="M126,117L173,209L194,121Z" fill="rgb(254,189,129)" stroke="rgb(254,189,129)" stroke-width="1.51"></path><path d="M488,356L492,283L423,270Z" fill="rgb(209,69,2)" stroke="rgb(209,69,2)" stroke-width="1.51"></path><path d="M338,351L414,413L399,337Z" fill="rgb(195,75,9)" stroke="rgb(195,75,9)" stroke-width="1.51"></path><path d="M399,337L488,356L423,270Z" fill="rgb(208,71,3)" stroke="rgb(208,71,3)" stroke-width="1.51"></path><path d="M260,437L339,434L277,354Z" fill="rgb(189,91,34)" stroke="rgb(189,91,34)" stroke-width="1.51"></path><path d="M177,44L126,117L194,121Z" fill="rgb(254,206,158)" stroke="rgb(254,206,158)" stroke-width="1.51"></path><path d="M192,360L260,437L277,354Z" fill="rgb(196,105,49)" stroke="rgb(196,105,49)" stroke-width="1.51"></path><path d="M172,421L260,437L192,360Z" fill="rgb(191,109,60)" stroke="rgb(191,109,60)" stroke-width="1.51"></path><path d="M339,434L414,413L338,351Z" fill="rgb(184,74,15)" stroke="rgb(184,74,15)" stroke-width="1.51"></path><path d="M330,58L344,-27L267,41Z" fill="rgb(255,187,137)" stroke="rgb(255,187,137)" stroke-width="1.51"></path><path d="M482,56L402,35L402,135Z" fill="rgb(246,153,99)" stroke="rgb(246,153,99)" stroke-width="1.51"></path><path d="M195,-14L177,44L267,41Z" fill="rgb(255,208,168)" stroke="rgb(255,208,168)" stroke-width="1.51"></path><path d="M267,41L177,44L194,121Z" fill="rgb(255,201,152)" stroke="rgb(255,201,152)" stroke-width="1.51"></path><path d="M115,273L121,361L179,285Z" fill="rgb(237,143,89)" stroke="rgb(237,143,89)" stroke-width="1.51"></path><path d="M414,413L488,356L399,337Z" fill="rgb(186,63,4)" stroke="rgb(186,63,4)" stroke-width="1.51"></path><path d="M474,202L495,110L402,135Z" fill="rgb(235,125,59)" stroke="rgb(235,125,59)" stroke-width="1.51"></path><path d="M564,185L495,110L474,202Z" fill="rgb(215,111,50)" stroke="rgb(215,111,50)" stroke-width="1.51"></path><path d="M121,361L172,421L192,360Z" fill="rgb(200,123,77)" stroke="rgb(200,123,77)" stroke-width="1.51"></path><path d="M495,110L482,56L402,135Z" fill="rgb(237,142,86)" stroke="rgb(237,142,86)" stroke-width="1.51"></path><path d="M402,35L344,-27L330,58Z" fill="rgb(255,176,128)" stroke="rgb(255,176,128)" stroke-width="1.51"></path><path d="M402,-27L344,-27L402,35Z" fill="rgb(255,175,129)" stroke="rgb(255,175,129)" stroke-width="1.51"></path><path d="M115,273L49,356L121,361Z" fill="rgb(227,144,99)" stroke="rgb(227,144,99)" stroke-width="1.51"></path><path d="M121,361L99,427L172,421Z" fill="rgb(193,125,85)" stroke="rgb(193,125,85)" stroke-width="1.51"></path><path d="M113,192L45,280L115,273Z" fill="rgb(255,167,112)" stroke="rgb(255,167,112)" stroke-width="1.51"></path><path d="M36,190L45,280L113,192Z" fill="rgb(255,180,128)" stroke="rgb(255,180,128)" stroke-width="1.51"></path><path d="M492,283L563,276L474,202Z" fill="rgb(207,80,9)" stroke="rgb(207,80,9)" stroke-width="1.51"></path><path d="M495,110L574,41L482,56Z" fill="rgb(219,140,96)" stroke="rgb(219,140,96)" stroke-width="1.51"></path><path d="M569,356L563,276L492,283Z" fill="rgb(184,60,2)" stroke="rgb(184,60,2)" stroke-width="1.51"></path><path d="M265,-35L195,-14L267,41Z" fill="rgb(255,206,165)" stroke="rgb(255,206,165)" stroke-width="1.51"></path><path d="M177,44L106,45L126,117Z" fill="rgb(254,217,179)" stroke="rgb(254,217,179)" stroke-width="1.51"></path><path d="M563,276L564,185L474,202Z" fill="rgb(204,89,23)" stroke="rgb(204,89,23)" stroke-width="1.51"></path><path d="M344,-27L265,-35L267,41Z" fill="rgb(255,195,150)" stroke="rgb(255,195,150)" stroke-width="1.51"></path><path d="M28,131L113,192L126,117Z" fill="rgb(255,201,154)" stroke="rgb(255,201,154)" stroke-width="1.51"></path><path d="M28,131L36,190L113,192Z" fill="rgb(255,196,150)" stroke="rgb(255,196,150)" stroke-width="1.51"></path><path d="M117,-14L106,45L177,44Z" fill="rgb(255,225,196)" stroke="rgb(255,225,196)" stroke-width="1.51"></path><path d="M488,356L569,356L492,283Z" fill="rgb(178,58,3)" stroke="rgb(178,58,3)" stroke-width="1.51"></path><path d="M414,413L501,416L488,356Z" fill="rgb(167,54,4)" stroke="rgb(167,54,4)" stroke-width="1.51"></path><path d="M494,490L501,416L414,413Z" fill="rgb(164,53,4)" stroke="rgb(164,53,4)" stroke-width="1.51"></path><path d="M344,-27L335,-86L265,-35Z" fill="rgb(255,190,144)" stroke="rgb(255,190,144)" stroke-width="1.51"></path><path d="M497,-19L402,-27L402,35Z" fill="rgb(250,164,123)" stroke="rgb(250,164,123)" stroke-width="1.51"></path><path d="M339,434L427,502L414,413Z" fill="rgb(179,67,9)" stroke="rgb(179,67,9)" stroke-width="1.51"></path><path d="M260,437L341,507L339,434Z" fill="rgb(187,86,28)" stroke="rgb(187,86,28)" stroke-width="1.51"></path><path d="M251,515L341,507L260,437Z" fill="rgb(189,93,36)" stroke="rgb(189,93,36)" stroke-width="1.51"></path><path d="M45,280L49,356L115,273Z" fill="rgb(243,154,108)" stroke="rgb(243,154,108)" stroke-width="1.51"></path><path d="M-39,349L49,356L45,280Z" fill="rgb(232,153,116)" stroke="rgb(232,153,116)" stroke-width="1.51"></path><path d="M195,502L251,515L260,437Z" fill="rgb(189,104,51)" stroke="rgb(189,104,51)" stroke-width="1.51"></path><path d="M49,356L99,427L121,361Z" fill="rgb(203,134,97)" stroke="rgb(203,134,97)" stroke-width="1.51"></path><path d="M195,502L260,437L172,421Z" fill="rgb(191,109,60)" stroke="rgb(191,109,60)" stroke-width="1.51"></path><path d="M36,190L-23,196L45,280Z" fill="rgb(255,183,136)" stroke="rgb(255,183,136)" stroke-width="1.51"></path><path d="M44,43L28,131L126,117Z" fill="rgb(254,220,187)" stroke="rgb(254,220,187)" stroke-width="1.51"></path><path d="M103,497L195,502L172,421Z" fill="rgb(192,121,78)" stroke="rgb(192,121,78)" stroke-width="1.51"></path><path d="M482,56L497,-19L402,35Z" fill="rgb(243,156,114)" stroke="rgb(243,156,114)" stroke-width="1.51"></path><path d="M564,185L574,119L495,110Z" fill="rgb(206,116,62)" stroke="rgb(206,116,62)" stroke-width="1.51"></path><path d="M636,119L574,119L564,185Z" fill="rgb(192,110,59)" stroke="rgb(192,110,59)" stroke-width="1.51"></path><path d="M501,416L569,356L488,356Z" fill="rgb(157,50,4)" stroke="rgb(157,50,4)" stroke-width="1.51"></path><path d="M563,276L649,213L564,185Z" fill="rgb(188,82,22)" stroke="rgb(188,82,22)" stroke-width="1.51"></path><path d="M341,507L427,502L339,434Z" fill="rgb(183,73,13)" stroke="rgb(183,73,13)" stroke-width="1.51"></path><path d="M501,416L567,414L569,356Z" fill="rgb(143,45,4)" stroke="rgb(143,45,4)" stroke-width="1.51"></path><path d="M554,501L427,502L713,512Z" fill="rgb(136,42,4)" stroke="rgb(136,42,4)" stroke-width="1.51"></path><path d="M106,45L44,43L126,117Z" fill="rgb(254,223,193)" stroke="rgb(254,223,193)" stroke-width="1.51"></path><path d="M195,-14L117,-14L177,44Z" fill="rgb(255,222,192)" stroke="rgb(255,222,192)" stroke-width="1.51"></path><path d="M123,-111L117,-14L195,-14Z" fill="rgb(255,227,200)" stroke="rgb(255,227,200)" stroke-width="1.51"></path><path d="M574,41L497,-19L482,56Z" fill="rgb(222,147,110)" stroke="rgb(222,147,110)" stroke-width="1.51"></path><path d="M409,-88L344,-27L402,-27Z" fill="rgb(255,174,129)" stroke="rgb(255,174,129)" stroke-width="1.51"></path><path d="M409,-88L335,-86L344,-27Z" fill="rgb(255,179,133)" stroke="rgb(255,179,133)" stroke-width="1.51"></path><path d="M265,-35L192,-111L195,-14Z" fill="rgb(255,211,173)" stroke="rgb(255,211,173)" stroke-width="1.51"></path><path d="M117,-14L44,43L106,45Z" fill="rgb(255,232,209)" stroke="rgb(255,232,209)" stroke-width="1.51"></path><path d="M554,501L567,414L501,416Z" fill="rgb(142,45,4)" stroke="rgb(142,45,4)" stroke-width="1.51"></path><path d="M427,502L494,490L414,413Z" fill="rgb(172,56,4)" stroke="rgb(172,56,4)" stroke-width="1.51"></path><path d="M28,131L-23,196L36,190Z" fill="rgb(255,200,157)" stroke="rgb(255,200,157)" stroke-width="1.51"></path><path d="M-48,139L-23,196L28,131Z" fill="rgb(255,208,168)" stroke="rgb(255,208,168)" stroke-width="1.51"></path><path d="M574,119L574,41L495,110Z" fill="rgb(208,131,86)" stroke="rgb(208,131,86)" stroke-width="1.51"></path><path d="M99,427L103,497L172,421Z" fill="rgb(194,125,87)" stroke="rgb(194,125,87)" stroke-width="1.51"></path><path d="M195,502L103,497L251,515Z" fill="rgb(191,115,69)" stroke="rgb(191,115,69)" stroke-width="1.51"></path><path d="M42,493L103,497L99,427Z" fill="rgb(195,132,98)" stroke="rgb(195,132,98)" stroke-width="1.51"></path><path d="M27,419L99,427L49,356Z" fill="rgb(196,134,103)" stroke="rgb(196,134,103)" stroke-width="1.51"></path><path d="M-39,349L27,419L49,356Z" fill="rgb(209,144,113)" stroke="rgb(209,144,113)" stroke-width="1.51"></path><path d="M497,-19L409,-88L402,-27Z" fill="rgb(250,164,123)" stroke="rgb(250,164,123)" stroke-width="1.51"></path><path d="M489,-97L409,-88L497,-19Z" fill="rgb(243,159,121)" stroke="rgb(243,159,121)" stroke-width="1.51"></path><path d="M636,340L636,290L569,356Z" fill="rgb(156,50,4)" stroke="rgb(156,50,4)" stroke-width="1.51"></path><path d="M569,356L636,290L563,276Z" fill="rgb(170,55,3)" stroke="rgb(170,55,3)" stroke-width="1.51"></path><path d="M574,119L626,41L574,41Z" fill="rgb(197,130,94)" stroke="rgb(197,130,94)" stroke-width="1.51"></path><path d="M409,-88L249,-110L335,-86Z" fill="rgb(255,186,140)" stroke="rgb(255,186,140)" stroke-width="1.51"></path><path d="M335,-86L249,-110L265,-35Z" fill="rgb(255,197,152)" stroke="rgb(255,197,152)" stroke-width="1.51"></path><path d="M-23,196L-41,289L45,280Z" fill="rgb(255,175,129)" stroke="rgb(255,175,129)" stroke-width="1.51"></path><path d="M636,290L649,213L563,276Z" fill="rgb(180,68,9)" stroke="rgb(180,68,9)" stroke-width="1.51"></path><path d="M649,213L636,119L564,185Z" fill="rgb(189,98,44)" stroke="rgb(189,98,44)" stroke-width="1.51"></path><path d="M648,420L636,340L569,356Z" fill="rgb(138,43,4)" stroke="rgb(138,43,4)" stroke-width="1.51"></path><path d="M715,212L699,138L649,213Z" fill="rgb(189,93,37)" stroke="rgb(189,93,37)" stroke-width="1.51"></path><path d="M249,-110L192,-111L265,-35Z" fill="rgb(255,207,167)" stroke="rgb(255,207,167)" stroke-width="1.51"></path><path d="M117,-14L31,-29L44,43Z" fill="rgb(255,238,222)" stroke="rgb(255,238,222)" stroke-width="1.51"></path><path d="M-41,289L-39,349L45,280Z" fill="rgb(245,160,121)" stroke="rgb(245,160,121)" stroke-width="1.51"></path><path d="M-115,199L-106,282L-41,289Z" fill="rgb(255,174,129)" stroke="rgb(255,174,129)" stroke-width="1.51"></path><path d="M-41,289L-105,340L-39,349Z" fill="rgb(233,155,119)" stroke="rgb(233,155,119)" stroke-width="1.51"></path><path d="M-53,45L-48,139L28,131Z" fill="rgb(255,225,195)" stroke="rgb(255,225,195)" stroke-width="1.51"></path><path d="M27,419L42,493L99,427Z" fill="rgb(196,134,103)" stroke="rgb(196,134,103)" stroke-width="1.51"></path><path d="M103,497L-50,502L251,515Z" fill="rgb(194,129,93)" stroke="rgb(194,129,93)" stroke-width="1.51"></path><path d="M-36,432L42,493L27,419Z" fill="rgb(198,139,112)" stroke="rgb(198,139,112)" stroke-width="1.51"></path><path d="M567,414L648,420L569,356Z" fill="rgb(130,40,4)" stroke="rgb(130,40,4)" stroke-width="1.51"></path><path d="M494,490L554,501L501,416Z" fill="rgb(149,47,4)" stroke="rgb(149,47,4)" stroke-width="1.51"></path><path d="M427,502L554,501L494,490Z" fill="rgb(157,50,4)" stroke="rgb(157,50,4)" stroke-width="1.51"></path><path d="M713,512L427,502L341,507Z" fill="rgb(156,50,4)" stroke="rgb(156,50,4)" stroke-width="1.51"></path><path d="M44,43L-53,45L28,131Z" fill="rgb(255,232,209)" stroke="rgb(255,232,209)" stroke-width="1.51"></path><path d="M33,-94L31,-29L117,-14Z" fill="rgb(255,239,223)" stroke="rgb(255,239,223)" stroke-width="1.51"></path><path d="M636,119L626,41L574,119Z" fill="rgb(193,124,83)" stroke="rgb(193,124,83)" stroke-width="1.51"></path><path d="M574,-37L489,-97L497,-19Z" fill="rgb(222,150,117)" stroke="rgb(222,150,117)" stroke-width="1.51"></path><path d="M722,58L626,41L636,119Z" fill="rgb(194,128,91)" stroke="rgb(194,128,91)" stroke-width="1.51"></path><path d="M409,-88L489,-97L249,-110Z" fill="rgb(255,175,129)" stroke="rgb(255,175,129)" stroke-width="1.51"></path><path d="M574,-37L497,-19L574,41Z" fill="rgb(213,146,116)" stroke="rgb(213,146,116)" stroke-width="1.51"></path><path d="M635,-17L574,-37L574,41Z" fill="rgb(200,140,114)" stroke="rgb(200,140,114)" stroke-width="1.51"></path><path d="M192,-111L123,-111L195,-14Z" fill="rgb(255,222,191)" stroke="rgb(255,222,191)" stroke-width="1.51"></path><path d="M-100,417L-36,432L-39,349Z" fill="rgb(199,140,114)" stroke="rgb(199,140,114)" stroke-width="1.51"></path><path d="M-39,349L-36,432L27,419Z" fill="rgb(198,139,113)" stroke="rgb(198,139,113)" stroke-width="1.51"></path><path d="M628,499L648,420L567,414Z" fill="rgb(127,39,4)" stroke="rgb(127,39,4)" stroke-width="1.51"></path><path d="M710,276L649,213L636,290Z" fill="rgb(180,68,9)" stroke="rgb(180,68,9)" stroke-width="1.51"></path><path d="M-115,199L-41,289L-23,196Z" fill="rgb(255,184,138)" stroke="rgb(255,184,138)" stroke-width="1.51"></path><path d="M-44,-25L-53,45L44,43Z" fill="rgb(255,242,229)" stroke="rgb(255,242,229)" stroke-width="1.51"></path><path d="M-44,-25L44,43L31,-29Z" fill="rgb(255,244,233)" stroke="rgb(255,244,233)" stroke-width="1.51"></path><path d="M626,41L635,-17L574,41Z" fill="rgb(197,136,108)" stroke="rgb(197,136,108)" stroke-width="1.51"></path><path d="M649,213L699,138L636,119Z" fill="rgb(189,104,51)" stroke="rgb(189,104,51)" stroke-width="1.51"></path><path d="M710,276L636,290L703,344Z" fill="rgb(169,55,4)" stroke="rgb(169,55,4)" stroke-width="1.51"></path><path d="M-115,199L-23,196L-48,139Z" fill="rgb(255,200,157)" stroke="rgb(255,200,157)" stroke-width="1.51"></path><path d="M703,344L636,290L636,340Z" fill="rgb(159,51,4)" stroke="rgb(159,51,4)" stroke-width="1.51"></path><path d="M710,276L715,212L649,213Z" fill="rgb(184,77,18)" stroke="rgb(184,77,18)" stroke-width="1.51"></path><path d="M722,58L635,-17L626,41Z" fill="rgb(197,136,106)" stroke="rgb(197,136,106)" stroke-width="1.51"></path><path d="M574,-37L561,-104L489,-97Z" fill="rgb(215,147,116)" stroke="rgb(215,147,116)" stroke-width="1.51"></path><path d="M648,420L703,344L636,340Z" fill="rgb(139,44,4)" stroke="rgb(139,44,4)" stroke-width="1.51"></path><path d="M-103,110L-115,199L-48,139Z" fill="rgb(255,209,171)" stroke="rgb(255,209,171)" stroke-width="1.51"></path><path d="M123,-111L33,-94L117,-14Z" fill="rgb(255,235,216)" stroke="rgb(255,235,216)" stroke-width="1.51"></path><path d="M-106,282L-105,340L-41,289Z" fill="rgb(246,160,121)" stroke="rgb(246,160,121)" stroke-width="1.51"></path><path d="M-115,199L-105,340L-106,282Z" fill="rgb(254,169,126)" stroke="rgb(254,169,126)" stroke-width="1.51"></path><path d="M-121,51L-103,110L-53,45Z" fill="rgb(255,233,212)" stroke="rgb(255,233,212)" stroke-width="1.51"></path><path d="M-53,45L-103,110L-48,139Z" fill="rgb(255,227,199)" stroke="rgb(255,227,199)" stroke-width="1.51"></path><path d="M489,-97L561,-104L249,-110Z" fill="rgb(250,165,123)" stroke="rgb(250,165,123)" stroke-width="1.51"></path><path d="M639,-89L561,-104L574,-37Z" fill="rgb(200,141,114)" stroke="rgb(200,141,114)" stroke-width="1.51"></path><path d="M648,420L726,412L703,344Z" fill="rgb(130,40,4)" stroke="rgb(130,40,4)" stroke-width="1.51"></path><path d="M554,501L628,499L567,414Z" fill="rgb(131,40,4)" stroke="rgb(131,40,4)" stroke-width="1.51"></path><path d="M713,512L628,499L554,501Z" fill="rgb(127,39,4)" stroke="rgb(127,39,4)" stroke-width="1.51"></path><path d="M-46,-94L-44,-25L31,-29Z" fill="rgb(255,245,235)" stroke="rgb(255,245,235)" stroke-width="1.51"></path><path d="M-105,340L-100,417L-39,349Z" fill="rgb(212,145,116)" stroke="rgb(212,145,116)" stroke-width="1.51"></path><path d="M-36,432L-50,502L42,493Z" fill="rgb(198,139,113)" stroke="rgb(198,139,113)" stroke-width="1.51"></path><path d="M-118,500L-100,417L-105,340Z" fill="rgb(198,139,113)" stroke="rgb(198,139,113)" stroke-width="1.51"></path><path d="M-100,417L-50,502L-36,432Z" fill="rgb(198,139,113)" stroke="rgb(198,139,113)" stroke-width="1.51"></path><path d="M42,493L-50,502L103,497Z" fill="rgb(197,137,108)" stroke="rgb(197,137,108)" stroke-width="1.51"></path><path d="M635,-17L639,-89L574,-37Z" fill="rgb(198,139,113)" stroke="rgb(198,139,113)" stroke-width="1.51"></path><path d="M699,138L722,58L636,119Z" fill="rgb(192,121,77)" stroke="rgb(192,121,77)" stroke-width="1.51"></path><path d="M715,212L722,58L699,138Z" fill="rgb(191,110,61)" stroke="rgb(191,110,61)" stroke-width="1.51"></path><path d="M-109,-29L-121,51L-53,45Z" fill="rgb(255,241,228)" stroke="rgb(255,241,228)" stroke-width="1.51"></path><path d="M-103,110L-121,51L-115,199Z" fill="rgb(255,219,187)" stroke="rgb(255,219,187)" stroke-width="1.51"></path><path d="M713,512L726,412L648,420Z" fill="rgb(127,39,4)" stroke="rgb(127,39,4)" stroke-width="1.51"></path><path d="M703,344L726,412L710,276Z" fill="rgb(149,47,4)" stroke="rgb(149,47,4)" stroke-width="1.51"></path><path d="M710,276L726,412L715,212Z" fill="rgb(171,55,4)" stroke="rgb(171,55,4)" stroke-width="1.51"></path><path d="M715,212L726,412L722,58Z" fill="rgb(185,80,21)" stroke="rgb(185,80,21)" stroke-width="1.51"></path><path d="M701,-35L639,-89L635,-17Z" fill="rgb(198,139,113)" stroke="rgb(198,139,113)" stroke-width="1.51"></path><path d="M-44,-25L-109,-29L-53,45Z" fill="rgb(255,245,235)" stroke="rgb(255,245,235)" stroke-width="1.51"></path><path d="M33,-94L-46,-94L31,-29Z" fill="rgb(255,244,234)" stroke="rgb(255,244,234)" stroke-width="1.51"></path><path d="M123,-111L-46,-94L33,-94Z" fill="rgb(255,241,228)" stroke="rgb(255,241,228)" stroke-width="1.51"></path><path d="M722,58L701,-35L635,-17Z" fill="rgb(198,139,113)" stroke="rgb(198,139,113)" stroke-width="1.51"></path><path d="M-46,-94L-109,-29L-44,-25Z" fill="rgb(255,245,235)" stroke="rgb(255,245,235)" stroke-width="1.51"></path><path d="M628,499L713,512L648,420Z" fill="rgb(127,39,4)" stroke="rgb(127,39,4)" stroke-width="1.51"></path><path d="M251,515L713,512L341,507Z" fill="rgb(173,58,5)" stroke="rgb(173,58,5)" stroke-width="1.51"></path><path d="M-50,502L-118,500L251,515Z" fill="rgb(197,137,109)" stroke="rgb(197,137,109)" stroke-width="1.51"></path><path d="M-100,417L-118,500L-50,502Z" fill="rgb(198,139,113)" stroke="rgb(198,139,113)" stroke-width="1.51"></path><path d="M-115,199L-118,500L-105,340Z" fill="rgb(222,150,117)" stroke="rgb(222,150,117)" stroke-width="1.51"></path><path d="M-121,51L-118,500L-115,199Z" fill="rgb(255,176,130)" stroke="rgb(255,176,130)" stroke-width="1.51"></path><path d="M-46,-94L-104,-101L-109,-29Z" fill="rgb(255,245,235)" stroke="rgb(255,245,235)" stroke-width="1.51"></path><path d="M-109,-29L-104,-101L-121,51Z" fill="rgb(255,245,235)" stroke="rgb(255,245,235)" stroke-width="1.51"></path><path d="M123,-111L-104,-101L-46,-94Z" fill="rgb(255,245,235)" stroke="rgb(255,245,235)" stroke-width="1.51"></path><path d="M722,58L726,-105L701,-35Z" fill="rgb(198,139,113)" stroke="rgb(198,139,113)" stroke-width="1.51"></path><path d="M701,-35L726,-105L639,-89Z" fill="rgb(198,139,113)" stroke="rgb(198,139,113)" stroke-width="1.51"></path><path d="M639,-89L726,-105L561,-104Z" fill="rgb(198,139,113)" stroke="rgb(198,139,113)" stroke-width="1.51"></path><path d="M561,-104L726,-105L249,-110Z" fill="rgb(225,151,118)" stroke="rgb(225,151,118)" stroke-width="1.51"></path><path d="M249,-110L726,-105L192,-111Z" fill="rgb(255,173,128)" stroke="rgb(255,173,128)" stroke-width="1.51"></path><path d="M726,412L726,-105L722,58Z" fill="rgb(191,115,69)" stroke="rgb(191,115,69)" stroke-width="1.51"></path></svg>