<svg width="600" height="400" xmlns="http://www.w3.org/2000/svg"><path d="M263,199L338,201L264,125Z" fill="rgb(251,237,220)" stroke="rgb(251,237,220)" stroke-width="1.51"></path><path d="M338,201L337,123L264,125Z" fill="rgb(250,227,202)" stroke="rgb(250,227,202)" stroke-width="1.51"></path><path d="M338,201L411,126L337,123Z" fill="rgb(238,215,198)" stroke="rgb(238,215,198)" stroke-width="1.51"></path><path d="M411,199L411,126L338,201Z" fill="rgb(226,215,216)" stroke="rgb(226,215,216)" stroke-width="1.51"></path><path d="M412,48L336,49L337,123Z" fill="rgb(226,169,131)" stroke="rgb(226,169,131)" stroke-width="1.51"></path><path d="M337,123L262,50L264,125Z" fill="rgb(250,198,148)" stroke="rgb(250,198,148)" stroke-width="1.51"></path><path d="M336,49L262,50L337,123Z" fill="rgb(239,182,136)" stroke="rgb(239,182,136)" stroke-width="1.51"></path><path d="M185,126L185,199L263,199Z" fill="rgb(255,218,174)" stroke="rgb(255,218,174)" stroke-width="1.51"></path><path d="M263,199L261,275L338,201Z" fill="rgb(239,235,237)" stroke="rgb(239,235,237)" stroke-width="1.51"></path><path d="M338,201L412,272L411,199Z" fill="rgb(213,213,232)" stroke="rgb(213,213,232)" stroke-width="1.51"></path><path d="M185,199L261,275L263,199Z" fill="rgb(243,225,209)" stroke="rgb(243,225,209)" stroke-width="1.51"></path><path d="M261,275L338,277L338,201Z" fill="rgb(223,223,237)" stroke="rgb(223,223,237)" stroke-width="1.51"></path><path d="M185,126L263,199L264,125Z" fill="rgb(255,218,169)" stroke="rgb(255,218,169)" stroke-width="1.51"></path><path d="M262,50L185,126L264,125Z" fill="rgb(249,189,122)" stroke="rgb(249,189,122)" stroke-width="1.51"></path><path d="M411,199L486,198L411,126Z" fill="rgb(210,193,203)" stroke="rgb(210,193,203)" stroke-width="1.51"></path><path d="M338,277L412,272L338,201Z" fill="rgb(210,211,231)" stroke="rgb(210,211,231)" stroke-width="1.51"></path><path d="M411,126L412,48L337,123Z" fill="rgb(227,176,145)" stroke="rgb(227,176,145)" stroke-width="1.51"></path><path d="M486,123L412,48L411,126Z" fill="rgb(210,155,134)" stroke="rgb(210,155,134)" stroke-width="1.51"></path><path d="M185,199L187,275L261,275Z" fill="rgb(235,205,186)" stroke="rgb(235,205,186)" stroke-width="1.51"></path><path d="M263,350L338,348L338,277Z" fill="rgb(181,171,206)" stroke="rgb(181,171,206)" stroke-width="1.51"></path><path d="M262,50L185,49L185,126Z" fill="rgb(239,164,85)" stroke="rgb(239,164,85)" stroke-width="1.51"></path><path d="M187,-27L185,49L262,50Z" fill="rgb(208,139,76)" stroke="rgb(208,139,76)" stroke-width="1.51"></path><path d="M263,-25L262,50L336,49Z" fill="rgb(212,157,119)" stroke="rgb(212,157,119)" stroke-width="1.51"></path><path d="M412,272L486,198L411,199Z" fill="rgb(196,192,220)" stroke="rgb(196,192,220)" stroke-width="1.51"></path><path d="M486,198L486,123L411,126Z" fill="rgb(202,171,173)" stroke="rgb(202,171,173)" stroke-width="1.51"></path><path d="M338,277L414,348L412,272Z" fill="rgb(176,170,207)" stroke="rgb(176,170,207)" stroke-width="1.51"></path><path d="M412,272L488,273L486,198Z" fill="rgb(176,169,206)" stroke="rgb(176,169,206)" stroke-width="1.51"></path><path d="M263,350L338,277L261,275Z" fill="rgb(201,191,212)" stroke="rgb(201,191,212)" stroke-width="1.51"></path><path d="M412,48L338,-24L336,49Z" fill="rgb(197,144,121)" stroke="rgb(197,144,121)" stroke-width="1.51"></path><path d="M189,347L263,350L261,275Z" fill="rgb(191,163,175)" stroke="rgb(191,163,175)" stroke-width="1.51"></path><path d="M338,-24L263,-25L336,49Z" fill="rgb(191,146,122)" stroke="rgb(191,146,122)" stroke-width="1.51"></path><path d="M185,199L113,273L187,275Z" fill="rgb(234,187,154)" stroke="rgb(234,187,154)" stroke-width="1.51"></path><path d="M185,126L113,200L185,199Z" fill="rgb(252,200,142)" stroke="rgb(252,200,142)" stroke-width="1.51"></path><path d="M110,124L113,200L185,126Z" fill="rgb(246,179,105)" stroke="rgb(246,179,105)" stroke-width="1.51"></path><path d="M114,51L110,124L185,126Z" fill="rgb(236,151,55)" stroke="rgb(236,151,55)" stroke-width="1.51"></path><path d="M187,275L189,347L261,275Z" fill="rgb(208,174,170)" stroke="rgb(208,174,170)" stroke-width="1.51"></path><path d="M113,273L189,347L187,275Z" fill="rgb(207,156,139)" stroke="rgb(207,156,139)" stroke-width="1.51"></path><path d="M414,348L488,273L412,272Z" fill="rgb(159,150,196)" stroke="rgb(159,150,196)" stroke-width="1.51"></path><path d="M486,198L560,124L486,123Z" fill="rgb(184,142,158)" stroke="rgb(184,142,158)" stroke-width="1.51"></path><path d="M338,348L414,348L338,277Z" fill="rgb(169,160,201)" stroke="rgb(169,160,201)" stroke-width="1.51"></path><path d="M412,423L414,348L338,348Z" fill="rgb(136,109,169)" stroke="rgb(136,109,169)" stroke-width="1.51"></path><path d="M412,48L414,-27L338,-24Z" fill="rgb(171,125,113)" stroke="rgb(171,125,113)" stroke-width="1.51"></path><path d="M486,123L486,48L412,48Z" fill="rgb(190,127,110)" stroke="rgb(190,127,110)" stroke-width="1.51"></path><path d="M561,51L486,48L486,123Z" fill="rgb(172,98,97)" stroke="rgb(172,98,97)" stroke-width="1.51"></path><path d="M185,49L114,51L185,126Z" fill="rgb(232,146,51)" stroke="rgb(232,146,51)" stroke-width="1.51"></path><path d="M112,-27L114,51L185,49Z" fill="rgb(195,110,27)" stroke="rgb(195,110,27)" stroke-width="1.51"></path><path d="M35,200L113,273L113,200Z" fill="rgb(224,167,130)" stroke="rgb(224,167,130)" stroke-width="1.51"></path><path d="M113,200L113,273L185,199Z" fill="rgb(240,187,145)" stroke="rgb(240,187,145)" stroke-width="1.51"></path><path d="M338,-24L335,-101L263,-25Z" fill="rgb(191,146,122)" stroke="rgb(191,146,122)" stroke-width="1.51"></path><path d="M486,48L414,-27L412,48Z" fill="rgb(171,114,106)" stroke="rgb(171,114,106)" stroke-width="1.51"></path><path d="M263,-102L187,-27L263,-25Z" fill="rgb(192,137,91)" stroke="rgb(192,137,91)" stroke-width="1.51"></path><path d="M263,-25L187,-27L262,50Z" fill="rgb(192,137,91)" stroke="rgb(192,137,91)" stroke-width="1.51"></path><path d="M562,199L560,124L486,198Z" fill="rgb(172,134,172)" stroke="rgb(172,134,172)" stroke-width="1.51"></path><path d="M486,48L487,-25L414,-27Z" fill="rgb(145,94,96)" stroke="rgb(145,94,96)" stroke-width="1.51"></path><path d="M488,273L562,199L486,198Z" fill="rgb(168,150,196)" stroke="rgb(168,150,196)" stroke-width="1.51"></path><path d="M414,348L488,348L488,273Z" fill="rgb(134,119,175)" stroke="rgb(134,119,175)" stroke-width="1.51"></path><path d="M412,423L488,348L414,348Z" fill="rgb(118,90,157)" stroke="rgb(118,90,157)" stroke-width="1.51"></path><path d="M560,276L562,199L488,273Z" fill="rgb(148,123,183)" stroke="rgb(148,123,183)" stroke-width="1.51"></path><path d="M561,51L487,-25L486,48Z" fill="rgb(143,75,87)" stroke="rgb(143,75,87)" stroke-width="1.51"></path><path d="M412,-102L335,-101L338,-24Z" fill="rgb(179,135,117)" stroke="rgb(179,135,117)" stroke-width="1.51"></path><path d="M412,-102L338,-24L414,-27Z" fill="rgb(171,125,113)" stroke="rgb(171,125,113)" stroke-width="1.51"></path><path d="M263,350L336,427L338,348Z" fill="rgb(155,129,177)" stroke="rgb(155,129,177)" stroke-width="1.51"></path><path d="M189,347L260,425L263,350Z" fill="rgb(164,120,148)" stroke="rgb(164,120,148)" stroke-width="1.51"></path><path d="M185,427L260,425L189,347Z" fill="rgb(150,98,111)" stroke="rgb(150,98,111)" stroke-width="1.51"></path><path d="M110,124L35,200L113,200Z" fill="rgb(232,168,113)" stroke="rgb(232,168,113)" stroke-width="1.51"></path><path d="M114,51L38,123L110,124Z" fill="rgb(219,131,39)" stroke="rgb(219,131,39)" stroke-width="1.51"></path><path d="M38,47L38,123L114,51Z" fill="rgb(199,106,12)" stroke="rgb(199,106,12)" stroke-width="1.51"></path><path d="M260,425L336,427L263,350Z" fill="rgb(145,116,151)" stroke="rgb(145,116,151)" stroke-width="1.51"></path><path d="M335,-101L263,-102L263,-25Z" fill="rgb(194,147,116)" stroke="rgb(194,147,116)" stroke-width="1.51"></path><path d="M187,-27L112,-27L185,49Z" fill="rgb(185,111,42)" stroke="rgb(185,111,42)" stroke-width="1.51"></path><path d="M114,-99L112,-27L187,-27Z" fill="rgb(179,101,27)" stroke="rgb(179,101,27)" stroke-width="1.51"></path><path d="M113,273L110,351L189,347Z" fill="rgb(188,126,115)" stroke="rgb(188,126,115)" stroke-width="1.51"></path><path d="M38,276L110,351L113,273Z" fill="rgb(187,125,109)" stroke="rgb(187,125,109)" stroke-width="1.51"></path><path d="M38,123L35,200L110,124Z" fill="rgb(220,150,86)" stroke="rgb(220,150,86)" stroke-width="1.51"></path><path d="M488,348L560,276L488,273Z" fill="rgb(130,109,172)" stroke="rgb(130,109,172)" stroke-width="1.51"></path><path d="M637,125L561,51L560,124Z" fill="rgb(150,80,84)" stroke="rgb(150,80,84)" stroke-width="1.51"></path><path d="M560,124L561,51L486,123Z" fill="rgb(171,97,108)" stroke="rgb(171,97,108)" stroke-width="1.51"></path><path d="M336,427L412,423L338,348Z" fill="rgb(130,105,152)" stroke="rgb(130,105,152)" stroke-width="1.51"></path><path d="M335,-101L412,-102L263,-102Z" fill="rgb(185,141,120)" stroke="rgb(185,141,120)" stroke-width="1.51"></path><path d="M485,-102L412,-102L414,-27Z" fill="rgb(155,106,102)" stroke="rgb(155,106,102)" stroke-width="1.51"></path><path d="M35,200L38,276L113,273Z" fill="rgb(205,147,121)" stroke="rgb(205,147,121)" stroke-width="1.51"></path><path d="M38,123L-39,127L35,200Z" fill="rgb(198,137,83)" stroke="rgb(198,137,83)" stroke-width="1.51"></path><path d="M112,-27L38,47L114,51Z" fill="rgb(178,91,9)" stroke="rgb(178,91,9)" stroke-width="1.51"></path><path d="M263,-102L187,-102L187,-27Z" fill="rgb(191,129,75)" stroke="rgb(191,129,75)" stroke-width="1.51"></path><path d="M110,351L185,427L189,347Z" fill="rgb(163,92,102)" stroke="rgb(163,92,102)" stroke-width="1.51"></path><path d="M264,499L338,498L336,427Z" fill="rgb(141,115,156)" stroke="rgb(141,115,156)" stroke-width="1.51"></path><path d="M488,348L563,349L560,276Z" fill="rgb(106,75,153)" stroke="rgb(106,75,153)" stroke-width="1.51"></path><path d="M639,202L637,125L562,199Z" fill="rgb(147,112,140)" stroke="rgb(147,112,140)" stroke-width="1.51"></path><path d="M562,423L563,349L488,348Z" fill="rgb(78,34,126)" stroke="rgb(78,34,126)" stroke-width="1.51"></path><path d="M187,-102L114,-99L187,-27Z" fill="rgb(185,112,43)" stroke="rgb(185,112,43)" stroke-width="1.51"></path><path d="M112,-27L37,-26L38,47Z" fill="rgb(154,74,8)" stroke="rgb(154,74,8)" stroke-width="1.51"></path><path d="M560,-98L485,-102L487,-25Z" fill="rgb(127,67,84)" stroke="rgb(127,67,84)" stroke-width="1.51"></path><path d="M487,-25L485,-102L414,-27Z" fill="rgb(145,94,96)" stroke="rgb(145,94,96)" stroke-width="1.51"></path><path d="M561,51L562,-27L487,-25Z" fill="rgb(118,50,77)" stroke="rgb(118,50,77)" stroke-width="1.51"></path><path d="M636,-25L562,-27L561,51Z" fill="rgb(98,33,54)" stroke="rgb(98,33,54)" stroke-width="1.51"></path><path d="M637,125L560,124L562,199Z" fill="rgb(155,107,126)" stroke="rgb(155,107,126)" stroke-width="1.51"></path><path d="M412,423L488,426L488,348Z" fill="rgb(94,66,128)" stroke="rgb(94,66,128)" stroke-width="1.51"></path><path d="M414,498L488,426L412,423Z" fill="rgb(104,76,135)" stroke="rgb(104,76,135)" stroke-width="1.51"></path><path d="M110,351L111,424L185,427Z" fill="rgb(141,69,70)" stroke="rgb(141,69,70)" stroke-width="1.51"></path><path d="M37,423L111,424L110,351Z" fill="rgb(127,51,58)" stroke="rgb(127,51,58)" stroke-width="1.51"></path><path d="M-37,350L37,350L38,276Z" fill="rgb(141,84,90)" stroke="rgb(141,84,90)" stroke-width="1.51"></path><path d="M38,276L37,350L110,351Z" fill="rgb(162,96,95)" stroke="rgb(162,96,95)" stroke-width="1.51"></path><path d="M114,-99L37,-26L112,-27Z" fill="rgb(163,82,10)" stroke="rgb(163,82,10)" stroke-width="1.51"></path><path d="M-38,48L-39,127L38,123Z" fill="rgb(182,106,34)" stroke="rgb(182,106,34)" stroke-width="1.51"></path><path d="M336,427L338,498L412,423Z" fill="rgb(129,104,152)" stroke="rgb(129,104,152)" stroke-width="1.51"></path><path d="M264,499L336,427L260,425Z" fill="rgb(145,116,151)" stroke="rgb(145,116,151)" stroke-width="1.51"></path><path d="M264,499L260,425L185,498Z" fill="rgb(149,106,127)" stroke="rgb(149,106,127)" stroke-width="1.51"></path><path d="M639,202L562,199L636,273Z" fill="rgb(135,110,154)" stroke="rgb(135,110,154)" stroke-width="1.51"></path><path d="M185,498L260,425L185,427Z" fill="rgb(150,98,110)" stroke="rgb(150,98,110)" stroke-width="1.51"></path><path d="M636,273L562,199L560,276Z" fill="rgb(130,105,157)" stroke="rgb(130,105,157)" stroke-width="1.51"></path><path d="M-38,48L38,123L38,47Z" fill="rgb(176,93,12)" stroke="rgb(176,93,12)" stroke-width="1.51"></path><path d="M35,200L-39,273L38,276Z" fill="rgb(181,133,116)" stroke="rgb(181,133,116)" stroke-width="1.51"></path><path d="M-39,127L-40,200L35,200Z" fill="rgb(193,143,104)" stroke="rgb(193,143,104)" stroke-width="1.51"></path><path d="M563,349L636,273L560,276Z" fill="rgb(104,76,139)" stroke="rgb(104,76,139)" stroke-width="1.51"></path><path d="M710,51L637,51L637,125Z" fill="rgb(136,59,61)" stroke="rgb(136,59,61)" stroke-width="1.51"></path><path d="M637,125L637,51L561,51Z" fill="rgb(136,59,61)" stroke="rgb(136,59,61)" stroke-width="1.51"></path><path d="M338,498L414,498L412,423Z" fill="rgb(121,95,146)" stroke="rgb(121,95,146)" stroke-width="1.51"></path><path d="M264,499L414,498L338,498Z" fill="rgb(135,110,154)" stroke="rgb(135,110,154)" stroke-width="1.51"></path><path d="M114,501L185,498L185,427Z" fill="rgb(147,80,83)" stroke="rgb(147,80,83)" stroke-width="1.51"></path><path d="M-40,200L-39,273L35,200Z" fill="rgb(185,141,120)" stroke="rgb(185,141,120)" stroke-width="1.51"></path><path d="M-39,127L-112,199L-40,200Z" fill="rgb(193,143,104)" stroke="rgb(193,143,104)" stroke-width="1.51"></path><path d="M37,-26L-38,48L38,47Z" fill="rgb(147,70,8)" stroke="rgb(147,70,8)" stroke-width="1.51"></path><path d="M639,-99L560,-98L562,-27Z" fill="rgb(97,32,54)" stroke="rgb(97,32,54)" stroke-width="1.51"></path><path d="M562,-27L560,-98L487,-25Z" fill="rgb(118,50,77)" stroke="rgb(118,50,77)" stroke-width="1.51"></path><path d="M563,349L639,349L636,273Z" fill="rgb(85,55,121)" stroke="rgb(85,55,121)" stroke-width="1.51"></path><path d="M488,426L562,423L488,348Z" fill="rgb(75,39,113)" stroke="rgb(75,39,113)" stroke-width="1.51"></path><path d="M489,498L562,423L488,426Z" fill="rgb(75,38,112)" stroke="rgb(75,38,112)" stroke-width="1.51"></path><path d="M111,424L114,501L185,427Z" fill="rgb(142,69,70)" stroke="rgb(142,69,70)" stroke-width="1.51"></path><path d="M37,350L37,423L110,351Z" fill="rgb(134,54,72)" stroke="rgb(134,54,72)" stroke-width="1.51"></path><path d="M-37,350L37,423L37,350Z" fill="rgb(113,43,67)" stroke="rgb(113,43,67)" stroke-width="1.51"></path><path d="M37,-26L-37,-27L-38,48Z" fill="rgb(127,59,8)" stroke="rgb(127,59,8)" stroke-width="1.51"></path><path d="M114,-99L37,-103L37,-26Z" fill="rgb(154,74,8)" stroke="rgb(154,74,8)" stroke-width="1.51"></path><path d="M187,-102L37,-103L114,-99Z" fill="rgb(171,91,13)" stroke="rgb(171,91,13)" stroke-width="1.51"></path><path d="M263,-102L37,-103L187,-102Z" fill="rgb(185,112,42)" stroke="rgb(185,112,42)" stroke-width="1.51"></path><path d="M412,-102L37,-103L263,-102Z" fill="rgb(192,137,91)" stroke="rgb(192,137,91)" stroke-width="1.51"></path><path d="M485,-102L37,-103L412,-102Z" fill="rgb(191,146,122)" stroke="rgb(191,146,122)" stroke-width="1.51"></path><path d="M637,51L636,-25L561,51Z" fill="rgb(108,37,52)" stroke="rgb(108,37,52)" stroke-width="1.51"></path><path d="M710,51L636,-25L637,51Z" fill="rgb(108,37,52)" stroke="rgb(108,37,52)" stroke-width="1.51"></path><path d="M414,498L489,498L488,426Z" fill="rgb(94,65,127)" stroke="rgb(94,65,127)" stroke-width="1.51"></path><path d="M564,500L489,498L414,498Z" fill="rgb(84,53,120)" stroke="rgb(84,53,120)" stroke-width="1.51"></path><path d="M635,426L639,349L563,349Z" fill="rgb(57,12,94)" stroke="rgb(57,12,94)" stroke-width="1.51"></path><path d="M711,201L711,125L639,202Z" fill="rgb(147,112,140)" stroke="rgb(147,112,140)" stroke-width="1.51"></path><path d="M635,426L563,349L562,423Z" fill="rgb(49,3,82)" stroke="rgb(49,3,82)" stroke-width="1.51"></path><path d="M39,498L114,501L111,424Z" fill="rgb(127,51,58)" stroke="rgb(127,51,58)" stroke-width="1.51"></path><path d="M185,498L114,501L264,499Z" fill="rgb(150,90,97)" stroke="rgb(150,90,97)" stroke-width="1.51"></path><path d="M264,499L564,500L414,498Z" fill="rgb(113,86,141)" stroke="rgb(113,86,141)" stroke-width="1.51"></path><path d="M-39,273L-37,350L38,276Z" fill="rgb(150,100,99)" stroke="rgb(150,100,99)" stroke-width="1.51"></path><path d="M37,423L39,498L111,424Z" fill="rgb(118,43,54)" stroke="rgb(118,43,54)" stroke-width="1.51"></path><path d="M-38,-99L-37,-27L37,-26Z" fill="rgb(127,59,8)" stroke="rgb(127,59,8)" stroke-width="1.51"></path><path d="M639,202L711,125L637,125Z" fill="rgb(149,103,120)" stroke="rgb(149,103,120)" stroke-width="1.51"></path><path d="M711,201L639,202L713,274Z" fill="rgb(135,110,154)" stroke="rgb(135,110,154)" stroke-width="1.51"></path><path d="M713,274L639,202L636,273Z" fill="rgb(125,100,149)" stroke="rgb(125,100,149)" stroke-width="1.51"></path><path d="M-39,273L-111,349L-37,350Z" fill="rgb(136,83,89)" stroke="rgb(136,83,89)" stroke-width="1.51"></path><path d="M-40,200L-112,274L-39,273Z" fill="rgb(176,130,115)" stroke="rgb(176,130,115)" stroke-width="1.51"></path><path d="M-113,126L-112,199L-39,127Z" fill="rgb(192,134,84)" stroke="rgb(192,134,84)" stroke-width="1.51"></path><path d="M-113,126L-39,127L-114,51Z" fill="rgb(182,107,36)" stroke="rgb(182,107,36)" stroke-width="1.51"></path><path d="M-114,51L-39,127L-38,48Z" fill="rgb(172,91,13)" stroke="rgb(172,91,13)" stroke-width="1.51"></path><path d="M711,125L710,51L637,125Z" fill="rgb(144,75,77)" stroke="rgb(144,75,77)" stroke-width="1.51"></path><path d="M639,349L713,274L636,273Z" fill="rgb(100,72,132)" stroke="rgb(100,72,132)" stroke-width="1.51"></path><path d="M564,500L635,426L562,423Z" fill="rgb(49,3,81)" stroke="rgb(49,3,81)" stroke-width="1.51"></path><path d="M-36,424L39,498L37,423Z" fill="rgb(98,31,49)" stroke="rgb(98,31,49)" stroke-width="1.51"></path><path d="M712,350L713,274L639,349Z" fill="rgb(85,54,120)" stroke="rgb(85,54,120)" stroke-width="1.51"></path><path d="M711,201L713,274L711,125Z" fill="rgb(144,118,158)" stroke="rgb(144,118,158)" stroke-width="1.51"></path><path d="M-111,349L-36,424L-37,350Z" fill="rgb(108,40,66)" stroke="rgb(108,40,66)" stroke-width="1.51"></path><path d="M-37,350L-36,424L37,423Z" fill="rgb(93,29,49)" stroke="rgb(93,29,49)" stroke-width="1.51"></path><path d="M712,-28L639,-99L636,-25Z" fill="rgb(92,28,48)" stroke="rgb(92,28,48)" stroke-width="1.51"></path><path d="M636,-25L639,-99L562,-27Z" fill="rgb(92,28,48)" stroke="rgb(92,28,48)" stroke-width="1.51"></path><path d="M560,-98L639,-99L485,-102Z" fill="rgb(108,40,66)" stroke="rgb(108,40,66)" stroke-width="1.51"></path><path d="M489,498L564,500L562,423Z" fill="rgb(65,20,105)" stroke="rgb(65,20,105)" stroke-width="1.51"></path><path d="M114,501L564,500L264,499Z" fill="rgb(141,115,156)" stroke="rgb(141,115,156)" stroke-width="1.51"></path><path d="M-112,199L-112,274L-40,200Z" fill="rgb(185,141,120)" stroke="rgb(185,141,120)" stroke-width="1.51"></path><path d="M-113,126L-112,274L-112,199Z" fill="rgb(194,149,122)" stroke="rgb(194,149,122)" stroke-width="1.51"></path><path d="M37,-103L-38,-99L37,-26Z" fill="rgb(132,62,8)" stroke="rgb(132,62,8)" stroke-width="1.51"></path><path d="M-111,-25L-114,51L-38,48Z" fill="rgb(143,68,8)" stroke="rgb(143,68,8)" stroke-width="1.51"></path><path d="M-115,501L-113,426L-112,274Z" fill="rgb(92,28,48)" stroke="rgb(92,28,48)" stroke-width="1.51"></path><path d="M-111,-25L-38,48L-37,-27Z" fill="rgb(127,59,8)" stroke="rgb(127,59,8)" stroke-width="1.51"></path><path d="M711,423L712,350L639,349Z" fill="rgb(57,12,94)" stroke="rgb(57,12,94)" stroke-width="1.51"></path><path d="M711,423L639,349L635,426Z" fill="rgb(45,0,75)" stroke="rgb(45,0,75)" stroke-width="1.51"></path><path d="M710,51L712,-28L636,-25Z" fill="rgb(92,28,48)" stroke="rgb(92,28,48)" stroke-width="1.51"></path><path d="M711,125L712,-28L710,51Z" fill="rgb(122,47,56)" stroke="rgb(122,47,56)" stroke-width="1.51"></path><path d="M713,274L712,-28L711,125Z" fill="rgb(150,90,96)" stroke="rgb(150,90,96)" stroke-width="1.51"></path><path d="M-112,274L-111,349L-39,273Z" fill="rgb(151,100,100)" stroke="rgb(151,100,100)" stroke-width="1.51"></path><path d="M-38,-99L-111,-25L-37,-27Z" fill="rgb(127,59,8)" stroke="rgb(127,59,8)" stroke-width="1.51"></path><path d="M564,500L636,497L635,426Z" fill="rgb(45,0,75)" stroke="rgb(45,0,75)" stroke-width="1.51"></path><path d="M-113,426L-37,498L-36,424Z" fill="rgb(92,28,48)" stroke="rgb(92,28,48)" stroke-width="1.51"></path><path d="M-36,424L-37,498L39,498Z" fill="rgb(92,28,48)" stroke="rgb(92,28,48)" stroke-width="1.51"></path><path d="M39,498L-37,498L114,501Z" fill="rgb(108,37,52)" stroke="rgb(108,37,52)" stroke-width="1.51"></path><path d="M636,497L711,423L635,426Z" fill="rgb(45,0,75)" stroke="rgb(45,0,75)" stroke-width="1.51"></path><path d="M712,-28L713,-101L639,-99Z" fill="rgb(92,28,48)" stroke="rgb(92,28,48)" stroke-width="1.51"></path><path d="M639,-99L713,-101L485,-102Z" fill="rgb(92,28,48)" stroke="rgb(92,28,48)" stroke-width="1.51"></path><path d="M713,274L713,-101L712,-28Z" fill="rgb(122,46,55)" stroke="rgb(122,46,55)" stroke-width="1.51"></path><path d="M-38,-99L-111,-102L-111,-25Z" fill="rgb(127,59,8)" stroke="rgb(127,59,8)" stroke-width="1.51"></path><path d="M-111,-25L-111,-102L-114,51Z" fill="rgb(127,59,8)" stroke="rgb(127,59,8)" stroke-width="1.51"></path><path d="M37,-103L-111,-102L-38,-99Z" fill="rgb(127,59,8)" stroke="rgb(127,59,8)" stroke-width="1.51"></path><path d="M-115,501L-112,274L-113,126Z" fill="rgb(150,99,99)" stroke="rgb(150,99,99)" stroke-width="1.51"></path><path d="M-112,274L-113,426L-111,349Z" fill="rgb(122,57,80)" stroke="rgb(122,57,80)" stroke-width="1.51"></path><path d="M-111,349L-113,426L-36,424Z" fill="rgb(92,28,48)" stroke="rgb(92,28,48)" stroke-width="1.51"></path><path d="M564,500L711,499L636,497Z" fill="rgb(45,0,75)" stroke="rgb(45,0,75)" stroke-width="1.51"></path><path d="M636,497L711,499L711,423Z" fill="rgb(45,0,75)" stroke="rgb(45,0,75)" stroke-width="1.51"></path><path d="M711,423L711,499L712,350Z" fill="rgb(45,0,75)" stroke="rgb(45,0,75)" stroke-width="1.51"></path><path d="M712,350L711,499L713,274Z" fill="rgb(57,12,94)" stroke="rgb(57,12,94)" stroke-width="1.51"></path><path d="M-113,426L-115,501L-37,498Z" fill="rgb(92,28,48)" stroke="rgb(92,28,48)" stroke-width="1.51"></path><path d="M-37,498L-115,501L114,501Z" fill="rgb(92,28,48)" stroke="rgb(92,28,48)" stroke-width="1.51"></path><path d="M-114,51L-115,501L-113,126Z" fill="rgb(185,140,119)" stroke="rgb(185,140,119)" stroke-width="1.51"></path></svg>