<svg width="600" height="400" xmlns="http://www.w3.org/2000/svg"><path d="M325,201L274,194L250,259Z" fill="rgb(106,172,213)" stroke="rgb(106,172,213)" stroke-width="1.51"></path><path d="M250,259L343,260L325,201Z" fill="rgb(90,162,207)" stroke="rgb(90,162,207)" stroke-width="1.51"></path><path d="M196,193L197,255L250,259Z" fill="rgb(125,179,215)" stroke="rgb(125,179,215)" stroke-width="1.51"></path><path d="M280,352L343,260L250,259Z" fill="rgb(82,147,200)" stroke="rgb(82,147,200)" stroke-width="1.51"></path><path d="M280,352L350,327L343,260Z" fill="rgb(67,134,191)" stroke="rgb(67,134,191)" stroke-width="1.51"></path><path d="M274,194L196,193L250,259Z" fill="rgb(123,180,216)" stroke="rgb(123,180,216)" stroke-width="1.51"></path><path d="M274,194L239,141L196,193Z" fill="rgb(142,192,221)" stroke="rgb(142,192,221)" stroke-width="1.51"></path><path d="M358,137L239,141L274,194Z" fill="rgb(133,188,219)" stroke="rgb(133,188,219)" stroke-width="1.51"></path><path d="M178,345L280,352L250,259Z" fill="rgb(99,148,198)" stroke="rgb(99,148,198)" stroke-width="1.51"></path><path d="M343,260L408,214L325,201Z" fill="rgb(82,156,203)" stroke="rgb(82,156,203)" stroke-width="1.51"></path><path d="M325,201L358,137L274,194Z" fill="rgb(115,177,215)" stroke="rgb(115,177,215)" stroke-width="1.51"></path><path d="M430,291L408,214L343,260Z" fill="rgb(61,140,195)" stroke="rgb(61,140,195)" stroke-width="1.51"></path><path d="M408,214L358,137L325,201Z" fill="rgb(100,166,209)" stroke="rgb(100,166,209)" stroke-width="1.51"></path><path d="M239,141L194,147L196,193Z" fill="rgb(157,200,226)" stroke="rgb(157,200,226)" stroke-width="1.51"></path><path d="M122,281L178,345L197,255Z" fill="rgb(124,164,210)" stroke="rgb(124,164,210)" stroke-width="1.51"></path><path d="M350,327L430,291L343,260Z" fill="rgb(54,132,191)" stroke="rgb(54,132,191)" stroke-width="1.51"></path><path d="M408,214L403,138L358,137Z" fill="rgb(108,166,209)" stroke="rgb(108,166,209)" stroke-width="1.51"></path><path d="M501,209L403,138L408,214Z" fill="rgb(86,149,201)" stroke="rgb(86,149,201)" stroke-width="1.51"></path><path d="M197,255L178,345L250,259Z" fill="rgb(113,163,207)" stroke="rgb(113,163,207)" stroke-width="1.51"></path><path d="M122,281L197,255L96,213Z" fill="rgb(141,183,219)" stroke="rgb(141,183,219)" stroke-width="1.51"></path><path d="M337,427L411,351L350,327Z" fill="rgb(46,108,169)" stroke="rgb(46,108,169)" stroke-width="1.51"></path><path d="M350,327L411,351L430,291Z" fill="rgb(43,117,181)" stroke="rgb(43,117,181)" stroke-width="1.51"></path><path d="M96,213L197,255L196,193Z" fill="rgb(144,189,222)" stroke="rgb(144,189,222)" stroke-width="1.51"></path><path d="M358,137L249,60L239,141Z" fill="rgb(155,198,226)" stroke="rgb(155,198,226)" stroke-width="1.51"></path><path d="M239,141L249,60L194,147Z" fill="rgb(171,207,230)" stroke="rgb(171,207,230)" stroke-width="1.51"></path><path d="M346,35L249,60L358,137Z" fill="rgb(157,196,227)" stroke="rgb(157,196,227)" stroke-width="1.51"></path><path d="M280,352L337,427L350,327Z" fill="rgb(60,115,173)" stroke="rgb(60,115,173)" stroke-width="1.51"></path><path d="M243,443L337,427L280,352Z" fill="rgb(68,110,160)" stroke="rgb(68,110,160)" stroke-width="1.51"></path><path d="M194,147L96,213L196,193Z" fill="rgb(159,199,227)" stroke="rgb(159,199,227)" stroke-width="1.51"></path><path d="M105,119L96,213L194,147Z" fill="rgb(177,210,232)" stroke="rgb(177,210,232)" stroke-width="1.51"></path><path d="M482,331L500,258L430,291Z" fill="rgb(34,110,178)" stroke="rgb(34,110,178)" stroke-width="1.51"></path><path d="M430,291L500,258L408,214Z" fill="rgb(51,129,190)" stroke="rgb(51,129,190)" stroke-width="1.51"></path><path d="M500,258L501,209L408,214Z" fill="rgb(61,131,189)" stroke="rgb(61,131,189)" stroke-width="1.51"></path><path d="M411,351L482,331L430,291Z" fill="rgb(31,107,176)" stroke="rgb(31,107,176)" stroke-width="1.51"></path><path d="M486,445L482,331L411,351Z" fill="rgb(21,86,154)" stroke="rgb(21,86,154)" stroke-width="1.51"></path><path d="M419,44L346,35L358,137Z" fill="rgb(145,186,221)" stroke="rgb(145,186,221)" stroke-width="1.51"></path><path d="M419,44L358,137L403,138Z" fill="rgb(133,177,216)" stroke="rgb(133,177,216)" stroke-width="1.51"></path><path d="M178,345L243,443L280,352Z" fill="rgb(90,126,174)" stroke="rgb(90,126,174)" stroke-width="1.51"></path><path d="M178,428L243,443L178,345Z" fill="rgb(97,123,167)" stroke="rgb(97,123,167)" stroke-width="1.51"></path><path d="M122,281L92,328L178,345Z" fill="rgb(128,159,207)" stroke="rgb(128,159,207)" stroke-width="1.51"></path><path d="M32,252L92,328L122,281Z" fill="rgb(142,175,216)" stroke="rgb(142,175,216)" stroke-width="1.51"></path><path d="M249,60L183,46L194,147Z" fill="rgb(187,215,235)" stroke="rgb(187,215,235)" stroke-width="1.51"></path><path d="M187,-13L183,46L249,60Z" fill="rgb(200,223,239)" stroke="rgb(200,223,239)" stroke-width="1.51"></path><path d="M104,421L178,428L178,345Z" fill="rgb(110,128,172)" stroke="rgb(110,128,172)" stroke-width="1.51"></path><path d="M183,46L105,119L194,147Z" fill="rgb(194,218,237)" stroke="rgb(194,218,237)" stroke-width="1.51"></path><path d="M501,209L473,103L403,138Z" fill="rgb(105,154,202)" stroke="rgb(105,154,202)" stroke-width="1.51"></path><path d="M473,103L419,44L403,138Z" fill="rgb(131,169,213)" stroke="rgb(131,169,213)" stroke-width="1.51"></path><path d="M337,427L422,438L411,351Z" fill="rgb(37,92,150)" stroke="rgb(37,92,150)" stroke-width="1.51"></path><path d="M317,502L422,438L337,427Z" fill="rgb(46,98,153)" stroke="rgb(46,98,153)" stroke-width="1.51"></path><path d="M354,-3L279,-8L346,35Z" fill="rgb(173,205,231)" stroke="rgb(173,205,231)" stroke-width="1.51"></path><path d="M346,35L279,-8L249,60Z" fill="rgb(176,209,233)" stroke="rgb(176,209,233)" stroke-width="1.51"></path><path d="M419,44L354,-3L346,35Z" fill="rgb(158,194,225)" stroke="rgb(158,194,225)" stroke-width="1.51"></path><path d="M473,103L469,54L419,44Z" fill="rgb(136,168,212)" stroke="rgb(136,168,212)" stroke-width="1.51"></path><path d="M419,44L425,-24L354,-3Z" fill="rgb(159,190,223)" stroke="rgb(159,190,223)" stroke-width="1.51"></path><path d="M568,42L469,54L473,103Z" fill="rgb(131,157,203)" stroke="rgb(131,157,203)" stroke-width="1.51"></path><path d="M501,209L564,186L473,103Z" fill="rgb(91,137,191)" stroke="rgb(91,137,191)" stroke-width="1.51"></path><path d="M500,258L549,258L501,209Z" fill="rgb(50,117,180)" stroke="rgb(50,117,180)" stroke-width="1.51"></path><path d="M482,331L549,258L500,258Z" fill="rgb(34,105,174)" stroke="rgb(34,105,174)" stroke-width="1.51"></path><path d="M561,343L549,258L482,331Z" fill="rgb(20,92,164)" stroke="rgb(20,92,164)" stroke-width="1.51"></path><path d="M14,195L32,252L96,213Z" fill="rgb(166,201,229)" stroke="rgb(166,201,229)" stroke-width="1.51"></path><path d="M96,213L32,252L122,281Z" fill="rgb(150,189,222)" stroke="rgb(150,189,222)" stroke-width="1.51"></path><path d="M32,252L50,336L92,328Z" fill="rgb(143,172,214)" stroke="rgb(143,172,214)" stroke-width="1.51"></path><path d="M92,328L104,421L178,345Z" fill="rgb(121,143,191)" stroke="rgb(121,143,191)" stroke-width="1.51"></path><path d="M265,503L317,502L243,443Z" fill="rgb(73,112,161)" stroke="rgb(73,112,161)" stroke-width="1.51"></path><path d="M50,336L104,421L92,328Z" fill="rgb(129,148,195)" stroke="rgb(129,148,195)" stroke-width="1.51"></path><path d="M31,120L14,195L96,213Z" fill="rgb(183,214,234)" stroke="rgb(183,214,234)" stroke-width="1.51"></path><path d="M183,46L102,57L105,119Z" fill="rgb(208,225,242)" stroke="rgb(208,225,242)" stroke-width="1.51"></path><path d="M135,-42L102,57L183,46Z" fill="rgb(219,232,246)" stroke="rgb(219,232,246)" stroke-width="1.51"></path><path d="M243,443L317,502L337,427Z" fill="rgb(64,108,159)" stroke="rgb(64,108,159)" stroke-width="1.51"></path><path d="M265,503L243,443L180,491Z" fill="rgb(89,119,164)" stroke="rgb(89,119,164)" stroke-width="1.51"></path><path d="M180,491L243,443L178,428Z" fill="rgb(97,123,167)" stroke="rgb(97,123,167)" stroke-width="1.51"></path><path d="M279,-8L187,-13L249,60Z" fill="rgb(196,222,238)" stroke="rgb(196,222,238)" stroke-width="1.51"></path><path d="M549,258L564,186L501,209Z" fill="rgb(60,118,177)" stroke="rgb(60,118,177)" stroke-width="1.51"></path><path d="M133,506L180,491L178,428Z" fill="rgb(107,127,170)" stroke="rgb(107,127,170)" stroke-width="1.51"></path><path d="M422,438L486,445L411,351Z" fill="rgb(25,81,144)" stroke="rgb(25,81,144)" stroke-width="1.51"></path><path d="M491,483L486,445L422,438Z" fill="rgb(19,76,141)" stroke="rgb(19,76,141)" stroke-width="1.51"></path><path d="M31,120L96,213L105,119Z" fill="rgb(190,218,236)" stroke="rgb(190,218,236)" stroke-width="1.51"></path><path d="M-19,414L42,427L50,336Z" fill="rgb(132,143,181)" stroke="rgb(132,143,181)" stroke-width="1.51"></path><path d="M541,424L561,343L482,331Z" fill="rgb(9,75,147)" stroke="rgb(9,75,147)" stroke-width="1.51"></path><path d="M654,220L620,126L564,186Z" fill="rgb(76,114,162)" stroke="rgb(76,114,162)" stroke-width="1.51"></path><path d="M102,57L31,120L105,119Z" fill="rgb(210,226,243)" stroke="rgb(210,226,243)" stroke-width="1.51"></path><path d="M468,-19L425,-24L419,44Z" fill="rgb(155,182,220)" stroke="rgb(155,182,220)" stroke-width="1.51"></path><path d="M244,-119L204,-103L279,-8Z" fill="rgb(198,223,238)" stroke="rgb(198,223,238)" stroke-width="1.51"></path><path d="M204,-103L135,-42L187,-13Z" fill="rgb(216,232,244)" stroke="rgb(216,232,244)" stroke-width="1.51"></path><path d="M468,-19L419,44L469,54Z" fill="rgb(147,175,216)" stroke="rgb(147,175,216)" stroke-width="1.51"></path><path d="M317,502L433,510L422,438Z" fill="rgb(37,92,149)" stroke="rgb(37,92,149)" stroke-width="1.51"></path><path d="M265,503L433,510L317,502Z" fill="rgb(52,101,155)" stroke="rgb(52,101,155)" stroke-width="1.51"></path><path d="M564,186L574,115L473,103Z" fill="rgb(104,138,188)" stroke="rgb(104,138,188)" stroke-width="1.51"></path><path d="M620,126L574,115L564,186Z" fill="rgb(95,125,170)" stroke="rgb(95,125,170)" stroke-width="1.51"></path><path d="M491,483L541,424L486,445Z" fill="rgb(13,68,134)" stroke="rgb(13,68,134)" stroke-width="1.51"></path><path d="M486,445L541,424L482,331Z" fill="rgb(13,69,134)" stroke="rgb(13,69,134)" stroke-width="1.51"></path><path d="M568,42L468,-19L469,54Z" fill="rgb(141,163,207)" stroke="rgb(141,163,207)" stroke-width="1.51"></path><path d="M104,421L133,506L178,428Z" fill="rgb(112,129,172)" stroke="rgb(112,129,172)" stroke-width="1.51"></path><path d="M180,491L133,506L265,503Z" fill="rgb(99,123,167)" stroke="rgb(99,123,167)" stroke-width="1.51"></path><path d="M265,503L33,519L433,510Z" fill="rgb(84,117,163)" stroke="rgb(84,117,163)" stroke-width="1.51"></path><path d="M33,519L133,506L104,421Z" fill="rgb(120,134,174)" stroke="rgb(120,134,174)" stroke-width="1.51"></path><path d="M433,510L491,483L422,438Z" fill="rgb(22,80,143)" stroke="rgb(22,80,143)" stroke-width="1.51"></path><path d="M-28,327L50,336L32,252Z" fill="rgb(150,176,216)" stroke="rgb(150,176,216)" stroke-width="1.51"></path><path d="M50,336L42,427L104,421Z" fill="rgb(125,138,178)" stroke="rgb(125,138,178)" stroke-width="1.51"></path><path d="M102,57L26,64L31,120Z" fill="rgb(218,232,246)" stroke="rgb(218,232,246)" stroke-width="1.51"></path><path d="M31,120L-20,145L14,195Z" fill="rgb(200,224,239)" stroke="rgb(200,224,239)" stroke-width="1.51"></path><path d="M43,-2L26,64L102,57Z" fill="rgb(228,238,249)" stroke="rgb(228,238,249)" stroke-width="1.51"></path><path d="M187,-13L135,-42L183,46Z" fill="rgb(218,233,246)" stroke="rgb(218,233,246)" stroke-width="1.51"></path><path d="M204,-103L187,-13L279,-8Z" fill="rgb(204,226,240)" stroke="rgb(204,226,240)" stroke-width="1.51"></path><path d="M14,195L-34,252L32,252Z" fill="rgb(169,201,229)" stroke="rgb(169,201,229)" stroke-width="1.51"></path><path d="M26,64L-20,145L31,120Z" fill="rgb(217,232,245)" stroke="rgb(217,232,245)" stroke-width="1.51"></path><path d="M-53,183L-34,252L14,195Z" fill="rgb(177,209,233)" stroke="rgb(177,209,233)" stroke-width="1.51"></path><path d="M-34,252L-28,327L32,252Z" fill="rgb(159,187,222)" stroke="rgb(159,187,222)" stroke-width="1.51"></path><path d="M574,115L568,42L473,103Z" fill="rgb(121,145,194)" stroke="rgb(121,145,194)" stroke-width="1.51"></path><path d="M574,115L631,54L568,42Z" fill="rgb(119,134,177)" stroke="rgb(119,134,177)" stroke-width="1.51"></path><path d="M654,220L564,186L549,258Z" fill="rgb(55,105,159)" stroke="rgb(55,105,159)" stroke-width="1.51"></path><path d="M654,220L549,258L654,280Z" fill="rgb(40,94,151)" stroke="rgb(40,94,151)" stroke-width="1.51"></path><path d="M26,64L-60,71L-20,145Z" fill="rgb(224,236,248)" stroke="rgb(224,236,248)" stroke-width="1.51"></path><path d="M135,-42L43,-2L102,57Z" fill="rgb(231,240,250)" stroke="rgb(231,240,250)" stroke-width="1.51"></path><path d="M-20,145L-53,183L14,195Z" fill="rgb(192,219,238)" stroke="rgb(192,219,238)" stroke-width="1.51"></path><path d="M-34,252L-113,261L-28,327Z" fill="rgb(158,186,222)" stroke="rgb(158,186,222)" stroke-width="1.51"></path><path d="M-106,134L-53,183L-20,145Z" fill="rgb(201,225,239)" stroke="rgb(201,225,239)" stroke-width="1.51"></path><path d="M328,-117L279,-8L354,-3Z" fill="rgb(176,208,233)" stroke="rgb(176,208,233)" stroke-width="1.51"></path><path d="M135,-42L22,-79L43,-2Z" fill="rgb(236,244,252)" stroke="rgb(236,244,252)" stroke-width="1.51"></path><path d="M328,-117L354,-3L425,-24Z" fill="rgb(166,198,227)" stroke="rgb(166,198,227)" stroke-width="1.51"></path><path d="M429,-119L425,-24L465,-117Z" fill="rgb(155,181,219)" stroke="rgb(155,181,219)" stroke-width="1.51"></path><path d="M429,-119L328,-117L425,-24Z" fill="rgb(162,192,225)" stroke="rgb(162,192,225)" stroke-width="1.51"></path><path d="M-118,357L-19,414L-28,327Z" fill="rgb(142,155,197)" stroke="rgb(142,155,197)" stroke-width="1.51"></path><path d="M-28,327L-19,414L50,336Z" fill="rgb(144,158,201)" stroke="rgb(144,158,201)" stroke-width="1.51"></path><path d="M42,427L33,519L104,421Z" fill="rgb(125,136,176)" stroke="rgb(125,136,176)" stroke-width="1.51"></path><path d="M654,280L549,258L561,343Z" fill="rgb(25,84,148)" stroke="rgb(25,84,148)" stroke-width="1.51"></path><path d="M328,-117L244,-119L279,-8Z" fill="rgb(186,215,236)" stroke="rgb(186,215,236)" stroke-width="1.51"></path><path d="M541,424L617,402L561,343Z" fill="rgb(8,57,120)" stroke="rgb(8,57,120)" stroke-width="1.51"></path><path d="M614,511L617,402L541,424Z" fill="rgb(8,50,110)" stroke="rgb(8,50,110)" stroke-width="1.51"></path><path d="M651,371L654,280L561,343Z" fill="rgb(14,70,135)" stroke="rgb(14,70,135)" stroke-width="1.51"></path><path d="M568,42L546,-43L468,-19Z" fill="rgb(145,161,204)" stroke="rgb(145,161,204)" stroke-width="1.51"></path><path d="M656,-21L546,-43L568,42Z" fill="rgb(136,144,182)" stroke="rgb(136,144,182)" stroke-width="1.51"></path><path d="M617,402L651,371L561,343Z" fill="rgb(9,57,120)" stroke="rgb(9,57,120)" stroke-width="1.51"></path><path d="M465,-117L425,-24L468,-19Z" fill="rgb(153,179,218)" stroke="rgb(153,179,218)" stroke-width="1.51"></path><path d="M328,-117L429,-119L244,-119Z" fill="rgb(173,205,231)" stroke="rgb(173,205,231)" stroke-width="1.51"></path><path d="M-44,491L33,519L42,427Z" fill="rgb(133,141,179)" stroke="rgb(133,141,179)" stroke-width="1.51"></path><path d="M133,506L33,519L265,503Z" fill="rgb(111,128,172)" stroke="rgb(111,128,172)" stroke-width="1.51"></path><path d="M701,69L631,54L620,126Z" fill="rgb(114,130,173)" stroke="rgb(114,130,173)" stroke-width="1.51"></path><path d="M620,126L631,54L574,115Z" fill="rgb(111,128,171)" stroke="rgb(111,128,171)" stroke-width="1.51"></path><path d="M244,-119L127,-111L204,-103Z" fill="rgb(212,230,243)" stroke="rgb(212,230,243)" stroke-width="1.51"></path><path d="M204,-103L127,-111L135,-42Z" fill="rgb(221,234,247)" stroke="rgb(221,234,247)" stroke-width="1.51"></path><path d="M617,402L692,372L651,371Z" fill="rgb(9,54,116)" stroke="rgb(9,54,116)" stroke-width="1.51"></path><path d="M491,483L559,522L541,424Z" fill="rgb(9,63,129)" stroke="rgb(9,63,129)" stroke-width="1.51"></path><path d="M433,510L559,522L491,483Z" fill="rgb(15,70,136)" stroke="rgb(15,70,136)" stroke-width="1.51"></path><path d="M33,519L559,522L433,510Z" fill="rgb(51,100,155)" stroke="rgb(51,100,155)" stroke-width="1.51"></path><path d="M-31,-34L26,64L43,-2Z" fill="rgb(243,248,254)" stroke="rgb(243,248,254)" stroke-width="1.51"></path><path d="M-31,-34L-60,71L26,64Z" fill="rgb(239,245,253)" stroke="rgb(239,245,253)" stroke-width="1.51"></path><path d="M546,-43L465,-117L468,-19Z" fill="rgb(149,169,211)" stroke="rgb(149,169,211)" stroke-width="1.51"></path><path d="M-106,134L-106,193L-53,183Z" fill="rgb(194,221,238)" stroke="rgb(194,221,238)" stroke-width="1.51"></path><path d="M-53,183L-106,193L-34,252Z" fill="rgb(178,209,233)" stroke="rgb(178,209,233)" stroke-width="1.51"></path><path d="M654,220L702,141L620,126Z" fill="rgb(84,117,163)" stroke="rgb(84,117,163)" stroke-width="1.51"></path><path d="M654,280L699,255L654,220Z" fill="rgb(40,94,151)" stroke="rgb(40,94,151)" stroke-width="1.51"></path><path d="M692,372L699,255L654,280Z" fill="rgb(21,79,143)" stroke="rgb(21,79,143)" stroke-width="1.51"></path><path d="M-19,414L-44,491L42,427Z" fill="rgb(135,142,179)" stroke="rgb(135,142,179)" stroke-width="1.51"></path><path d="M-106,193L-113,261L-34,252Z" fill="rgb(169,201,229)" stroke="rgb(169,201,229)" stroke-width="1.51"></path><path d="M-106,193L-133,53L-113,261Z" fill="rgb(195,221,238)" stroke="rgb(195,221,238)" stroke-width="1.51"></path><path d="M-60,71L-106,134L-20,145Z" fill="rgb(216,232,244)" stroke="rgb(216,232,244)" stroke-width="1.51"></path><path d="M127,-111L22,-79L135,-42Z" fill="rgb(232,241,250)" stroke="rgb(232,241,250)" stroke-width="1.51"></path><path d="M-60,71L-133,53L-106,134Z" fill="rgb(226,237,248)" stroke="rgb(226,237,248)" stroke-width="1.51"></path><path d="M699,255L711,211L654,220Z" fill="rgb(51,100,155)" stroke="rgb(51,100,155)" stroke-width="1.51"></path><path d="M711,211L702,141L654,220Z" fill="rgb(68,110,160)" stroke="rgb(68,110,160)" stroke-width="1.51"></path><path d="M651,371L692,372L654,280Z" fill="rgb(11,67,133)" stroke="rgb(11,67,133)" stroke-width="1.51"></path><path d="M699,255L733,411L711,211Z" fill="rgb(25,82,145)" stroke="rgb(25,82,145)" stroke-width="1.51"></path><path d="M733,411L692,372L617,402Z" fill="rgb(8,49,109)" stroke="rgb(8,49,109)" stroke-width="1.51"></path><path d="M559,522L614,511L541,424Z" fill="rgb(9,54,116)" stroke="rgb(9,54,116)" stroke-width="1.51"></path><path d="M-96,435L-44,491L-19,414Z" fill="rgb(135,142,179)" stroke="rgb(135,142,179)" stroke-width="1.51"></path><path d="M22,-79L-31,-34L43,-2Z" fill="rgb(245,250,255)" stroke="rgb(245,250,255)" stroke-width="1.51"></path><path d="M-113,261L-118,357L-28,327Z" fill="rgb(151,174,214)" stroke="rgb(151,174,214)" stroke-width="1.51"></path><path d="M656,-21L568,42L631,54Z" fill="rgb(129,139,177)" stroke="rgb(129,139,177)" stroke-width="1.51"></path><path d="M634,-114L547,-111L546,-43Z" fill="rgb(139,148,188)" stroke="rgb(139,148,188)" stroke-width="1.51"></path><path d="M546,-43L547,-111L465,-117Z" fill="rgb(146,162,206)" stroke="rgb(146,162,206)" stroke-width="1.51"></path><path d="M-118,357L-96,435L-19,414Z" fill="rgb(135,142,179)" stroke="rgb(135,142,179)" stroke-width="1.51"></path><path d="M702,141L701,69L620,126Z" fill="rgb(106,126,170)" stroke="rgb(106,126,170)" stroke-width="1.51"></path><path d="M711,211L701,69L702,141Z" fill="rgb(94,122,166)" stroke="rgb(94,122,166)" stroke-width="1.51"></path><path d="M701,69L656,-21L631,54Z" fill="rgb(126,137,177)" stroke="rgb(126,137,177)" stroke-width="1.51"></path><path d="M-125,-11L-133,53L-60,71Z" fill="rgb(238,245,252)" stroke="rgb(238,245,252)" stroke-width="1.51"></path><path d="M-106,134L-133,53L-106,193Z" fill="rgb(212,230,243)" stroke="rgb(212,230,243)" stroke-width="1.51"></path><path d="M-113,261L-133,53L-118,357Z" fill="rgb(173,205,231)" stroke="rgb(173,205,231)" stroke-width="1.51"></path><path d="M614,511L733,411L617,402Z" fill="rgb(8,48,107)" stroke="rgb(8,48,107)" stroke-width="1.51"></path><path d="M692,372L733,411L699,255Z" fill="rgb(10,66,132)" stroke="rgb(10,66,132)" stroke-width="1.51"></path><path d="M722,-109L697,-49L701,69Z" fill="rgb(135,142,179)" stroke="rgb(135,142,179)" stroke-width="1.51"></path><path d="M-31,-34L-125,-11L-60,71Z" fill="rgb(245,249,255)" stroke="rgb(245,249,255)" stroke-width="1.51"></path><path d="M-116,-104L-125,-11L-31,-34Z" fill="rgb(247,251,255)" stroke="rgb(247,251,255)" stroke-width="1.51"></path><path d="M697,-49L634,-114L656,-21Z" fill="rgb(135,142,179)" stroke="rgb(135,142,179)" stroke-width="1.51"></path><path d="M656,-21L634,-114L546,-43Z" fill="rgb(135,142,179)" stroke="rgb(135,142,179)" stroke-width="1.51"></path><path d="M547,-111L634,-114L465,-117Z" fill="rgb(142,155,197)" stroke="rgb(142,155,197)" stroke-width="1.51"></path><path d="M465,-117L634,-114L429,-119Z" fill="rgb(147,165,208)" stroke="rgb(147,165,208)" stroke-width="1.51"></path><path d="M701,69L697,-49L656,-21Z" fill="rgb(135,142,179)" stroke="rgb(135,142,179)" stroke-width="1.51"></path><path d="M722,-109L701,69L711,211Z" fill="rgb(121,134,175)" stroke="rgb(121,134,175)" stroke-width="1.51"></path><path d="M22,-79L-56,-113L-31,-34Z" fill="rgb(247,251,255)" stroke="rgb(247,251,255)" stroke-width="1.51"></path><path d="M127,-111L-56,-113L22,-79Z" fill="rgb(242,247,254)" stroke="rgb(242,247,254)" stroke-width="1.51"></path><path d="M244,-119L-56,-113L127,-111Z" fill="rgb(230,240,250)" stroke="rgb(230,240,250)" stroke-width="1.51"></path><path d="M-44,491L-120,514L33,519Z" fill="rgb(135,142,179)" stroke="rgb(135,142,179)" stroke-width="1.51"></path><path d="M-96,435L-120,514L-44,491Z" fill="rgb(135,142,179)" stroke="rgb(135,142,179)" stroke-width="1.51"></path><path d="M-118,357L-120,514L-96,435Z" fill="rgb(135,142,179)" stroke="rgb(135,142,179)" stroke-width="1.51"></path><path d="M-133,53L-120,514L-118,357Z" fill="rgb(152,176,216)" stroke="rgb(152,176,216)" stroke-width="1.51"></path><path d="M559,522L725,517L614,511Z" fill="rgb(8,48,107)" stroke="rgb(8,48,107)" stroke-width="1.51"></path><path d="M614,511L725,517L733,411Z" fill="rgb(8,48,107)" stroke="rgb(8,48,107)" stroke-width="1.51"></path><path d="M-56,-113L-116,-104L-31,-34Z" fill="rgb(247,251,255)" stroke="rgb(247,251,255)" stroke-width="1.51"></path><path d="M-125,-11L-116,-104L-133,53Z" fill="rgb(247,251,255)" stroke="rgb(247,251,255)" stroke-width="1.51"></path><path d="M697,-49L722,-109L634,-114Z" fill="rgb(135,142,179)" stroke="rgb(135,142,179)" stroke-width="1.51"></path><path d="M733,411L722,-109L711,211Z" fill="rgb(80,115,162)" stroke="rgb(80,115,162)" stroke-width="1.51"></path></svg>