<svg width="600" height="400" xmlns="http://www.w3.org/2000/svg"><path d="M262,200L260,125L188,200Z" fill="rgb(143,193,222)" stroke="rgb(143,193,222)" stroke-width="1.51"></path><path d="M260,125L187,123L188,200Z" fill="rgb(162,203,226)" stroke="rgb(162,203,226)" stroke-width="1.51"></path><path d="M260,125L261,52L187,123Z" fill="rgb(175,208,231)" stroke="rgb(175,208,231)" stroke-width="1.51"></path><path d="M262,200L335,127L260,125Z" fill="rgb(138,190,221)" stroke="rgb(138,190,221)" stroke-width="1.51"></path><path d="M335,127L261,52L260,125Z" fill="rgb(159,199,228)" stroke="rgb(159,199,228)" stroke-width="1.51"></path><path d="M188,200L259,276L262,200Z" fill="rgb(121,179,215)" stroke="rgb(121,179,215)" stroke-width="1.51"></path><path d="M262,200L339,201L335,127Z" fill="rgb(118,178,215)" stroke="rgb(118,178,215)" stroke-width="1.51"></path><path d="M187,123L113,202L188,200Z" fill="rgb(163,202,228)" stroke="rgb(163,202,228)" stroke-width="1.51"></path><path d="M188,200L189,277L259,276Z" fill="rgb(120,174,213)" stroke="rgb(120,174,213)" stroke-width="1.51"></path><path d="M261,52L190,50L187,123Z" fill="rgb(188,216,235)" stroke="rgb(188,216,235)" stroke-width="1.51"></path><path d="M187,123L110,122L113,202Z" fill="rgb(181,212,232)" stroke="rgb(181,212,232)" stroke-width="1.51"></path><path d="M113,202L189,277L188,200Z" fill="rgb(143,187,222)" stroke="rgb(143,187,222)" stroke-width="1.51"></path><path d="M337,272L339,201L262,200Z" fill="rgb(95,164,209)" stroke="rgb(95,164,209)" stroke-width="1.51"></path><path d="M111,48L110,122L187,123Z" fill="rgb(201,221,240)" stroke="rgb(201,221,240)" stroke-width="1.51"></path><path d="M259,276L337,272L262,200Z" fill="rgb(94,162,207)" stroke="rgb(94,162,207)" stroke-width="1.51"></path><path d="M113,202L111,276L189,277Z" fill="rgb(140,183,219)" stroke="rgb(140,183,219)" stroke-width="1.51"></path><path d="M40,199L111,276L113,202Z" fill="rgb(157,195,226)" stroke="rgb(157,195,226)" stroke-width="1.51"></path><path d="M190,50L111,48L187,123Z" fill="rgb(201,221,240)" stroke="rgb(201,221,240)" stroke-width="1.51"></path><path d="M335,127L340,47L261,52Z" fill="rgb(159,198,227)" stroke="rgb(159,198,227)" stroke-width="1.51"></path><path d="M261,52L260,-26L190,50Z" fill="rgb(193,220,237)" stroke="rgb(193,220,237)" stroke-width="1.51"></path><path d="M190,50L112,-26L111,48Z" fill="rgb(219,232,246)" stroke="rgb(219,232,246)" stroke-width="1.51"></path><path d="M409,125L340,47L335,127Z" fill="rgb(141,184,220)" stroke="rgb(141,184,220)" stroke-width="1.51"></path><path d="M189,277L188,347L259,276Z" fill="rgb(109,158,204)" stroke="rgb(109,158,204)" stroke-width="1.51"></path><path d="M259,276L335,350L337,272Z" fill="rgb(73,141,197)" stroke="rgb(73,141,197)" stroke-width="1.51"></path><path d="M111,276L188,347L189,277Z" fill="rgb(124,163,209)" stroke="rgb(124,163,209)" stroke-width="1.51"></path><path d="M339,201L409,125L335,127Z" fill="rgb(119,176,213)" stroke="rgb(119,176,213)" stroke-width="1.51"></path><path d="M410,199L409,125L339,201Z" fill="rgb(101,164,208)" stroke="rgb(101,164,208)" stroke-width="1.51"></path><path d="M110,122L40,199L113,202Z" fill="rgb(177,210,233)" stroke="rgb(177,210,233)" stroke-width="1.51"></path><path d="M40,124L40,199L110,122Z" fill="rgb(193,220,236)" stroke="rgb(193,220,236)" stroke-width="1.51"></path><path d="M410,273L410,199L339,201Z" fill="rgb(76,150,200)" stroke="rgb(76,150,200)" stroke-width="1.51"></path><path d="M35,50L40,124L110,122Z" fill="rgb(213,228,244)" stroke="rgb(213,228,244)" stroke-width="1.51"></path><path d="M188,347L259,350L259,276Z" fill="rgb(98,146,196)" stroke="rgb(98,146,196)" stroke-width="1.51"></path><path d="M340,47L260,-26L261,52Z" fill="rgb(179,211,234)" stroke="rgb(179,211,234)" stroke-width="1.51"></path><path d="M260,-26L189,-28L190,50Z" fill="rgb(207,228,241)" stroke="rgb(207,228,241)" stroke-width="1.51"></path><path d="M337,272L410,273L339,201Z" fill="rgb(71,149,199)" stroke="rgb(71,149,199)" stroke-width="1.51"></path><path d="M335,350L410,273L337,272Z" fill="rgb(57,132,192)" stroke="rgb(57,132,192)" stroke-width="1.51"></path><path d="M259,350L335,350L259,276Z" fill="rgb(79,137,192)" stroke="rgb(79,137,192)" stroke-width="1.51"></path><path d="M340,47L337,-28L260,-26Z" fill="rgb(178,209,233)" stroke="rgb(178,209,233)" stroke-width="1.51"></path><path d="M409,125L410,49L340,47Z" fill="rgb(144,183,219)" stroke="rgb(144,183,219)" stroke-width="1.51"></path><path d="M488,52L410,49L409,125Z" fill="rgb(136,171,214)" stroke="rgb(136,171,214)" stroke-width="1.51"></path><path d="M111,276L113,352L188,347Z" fill="rgb(126,157,204)" stroke="rgb(126,157,204)" stroke-width="1.51"></path><path d="M40,199L37,275L111,276Z" fill="rgb(153,191,223)" stroke="rgb(153,191,223)" stroke-width="1.51"></path><path d="M-35,198L37,275L40,199Z" fill="rgb(170,203,230)" stroke="rgb(170,203,230)" stroke-width="1.51"></path><path d="M38,347L113,352L111,276Z" fill="rgb(134,161,207)" stroke="rgb(134,161,207)" stroke-width="1.51"></path><path d="M185,424L263,423L259,350Z" fill="rgb(87,119,164)" stroke="rgb(87,119,164)" stroke-width="1.51"></path><path d="M259,350L263,423L335,350Z" fill="rgb(72,119,173)" stroke="rgb(72,119,173)" stroke-width="1.51"></path><path d="M111,48L35,50L110,122Z" fill="rgb(215,230,244)" stroke="rgb(215,230,244)" stroke-width="1.51"></path><path d="M189,-28L112,-26L190,50Z" fill="rgb(219,233,246)" stroke="rgb(219,233,246)" stroke-width="1.51"></path><path d="M39,-25L35,50L111,48Z" fill="rgb(231,240,249)" stroke="rgb(231,240,249)" stroke-width="1.51"></path><path d="M40,124L-35,198L40,199Z" fill="rgb(190,218,237)" stroke="rgb(190,218,237)" stroke-width="1.51"></path><path d="M260,-26L190,-101L189,-28Z" fill="rgb(207,228,241)" stroke="rgb(207,228,241)" stroke-width="1.51"></path><path d="M412,-27L337,-28L340,47Z" fill="rgb(167,199,228)" stroke="rgb(167,199,228)" stroke-width="1.51"></path><path d="M37,275L38,347L111,276Z" fill="rgb(143,173,215)" stroke="rgb(143,173,215)" stroke-width="1.51"></path><path d="M-38,126L-35,198L40,124Z" fill="rgb(204,226,240)" stroke="rgb(204,226,240)" stroke-width="1.51"></path><path d="M37,275L-39,276L38,347Z" fill="rgb(152,178,218)" stroke="rgb(152,178,218)" stroke-width="1.51"></path><path d="M185,424L188,347L113,352Z" fill="rgb(112,136,184)" stroke="rgb(112,136,184)" stroke-width="1.51"></path><path d="M185,424L259,350L188,347Z" fill="rgb(99,131,179)" stroke="rgb(99,131,179)" stroke-width="1.51"></path><path d="M111,427L185,424L113,352Z" fill="rgb(112,129,172)" stroke="rgb(112,129,172)" stroke-width="1.51"></path><path d="M410,199L487,199L409,125Z" fill="rgb(94,153,202)" stroke="rgb(94,153,202)" stroke-width="1.51"></path><path d="M410,273L487,199L410,199Z" fill="rgb(68,140,195)" stroke="rgb(68,140,195)" stroke-width="1.51"></path><path d="M487,274L487,199L410,273Z" fill="rgb(51,127,188)" stroke="rgb(51,127,188)" stroke-width="1.51"></path><path d="M413,351L410,273L335,350Z" fill="rgb(45,119,182)" stroke="rgb(45,119,182)" stroke-width="1.51"></path><path d="M35,50L-38,126L40,124Z" fill="rgb(221,233,247)" stroke="rgb(221,233,247)" stroke-width="1.51"></path><path d="M112,-26L39,-25L111,48Z" fill="rgb(233,241,251)" stroke="rgb(233,241,251)" stroke-width="1.51"></path><path d="M37,-98L39,-25L112,-26Z" fill="rgb(237,244,252)" stroke="rgb(237,244,252)" stroke-width="1.51"></path><path d="M339,425L413,351L335,350Z" fill="rgb(47,106,165)" stroke="rgb(47,106,165)" stroke-width="1.51"></path><path d="M-38,50L-38,126L35,50Z" fill="rgb(229,239,249)" stroke="rgb(229,239,249)" stroke-width="1.51"></path><path d="M487,199L488,124L409,125Z" fill="rgb(105,153,201)" stroke="rgb(105,153,201)" stroke-width="1.51"></path><path d="M410,49L412,-27L340,47Z" fill="rgb(157,191,223)" stroke="rgb(157,191,223)" stroke-width="1.51"></path><path d="M189,-28L113,-102L112,-26Z" fill="rgb(225,236,248)" stroke="rgb(225,236,248)" stroke-width="1.51"></path><path d="M263,-101L190,-101L260,-26Z" fill="rgb(199,224,239)" stroke="rgb(199,224,239)" stroke-width="1.51"></path><path d="M487,-23L412,-27L410,49Z" fill="rgb(155,182,220)" stroke="rgb(155,182,220)" stroke-width="1.51"></path><path d="M337,-28L263,-101L260,-26Z" fill="rgb(185,214,236)" stroke="rgb(185,214,236)" stroke-width="1.51"></path><path d="M337,-102L263,-101L337,-28Z" fill="rgb(178,209,233)" stroke="rgb(178,209,233)" stroke-width="1.51"></path><path d="M413,351L487,274L410,273Z" fill="rgb(37,116,183)" stroke="rgb(37,116,183)" stroke-width="1.51"></path><path d="M487,199L560,202L488,124Z" fill="rgb(86,136,190)" stroke="rgb(86,136,190)" stroke-width="1.51"></path><path d="M263,423L339,425L335,350Z" fill="rgb(60,105,158)" stroke="rgb(60,105,158)" stroke-width="1.51"></path><path d="M263,501L339,425L263,423Z" fill="rgb(68,110,160)" stroke="rgb(68,110,160)" stroke-width="1.51"></path><path d="M488,124L488,52L409,125Z" fill="rgb(126,161,208)" stroke="rgb(126,161,208)" stroke-width="1.51"></path><path d="M-39,-27L-38,50L35,50Z" fill="rgb(241,247,253)" stroke="rgb(241,247,253)" stroke-width="1.51"></path><path d="M-35,198L-39,276L37,275Z" fill="rgb(164,197,227)" stroke="rgb(164,197,227)" stroke-width="1.51"></path><path d="M-111,201L-39,276L-35,198Z" fill="rgb(173,205,231)" stroke="rgb(173,205,231)" stroke-width="1.51"></path><path d="M-40,347L-39,276L-114,347Z" fill="rgb(150,171,212)" stroke="rgb(150,171,212)" stroke-width="1.51"></path><path d="M39,424L111,427L113,352Z" fill="rgb(120,134,175)" stroke="rgb(120,134,175)" stroke-width="1.51"></path><path d="M185,424L189,499L263,423Z" fill="rgb(94,122,166)" stroke="rgb(94,122,166)" stroke-width="1.51"></path><path d="M39,424L113,352L38,347Z" fill="rgb(130,146,189)" stroke="rgb(130,146,189)" stroke-width="1.51"></path><path d="M39,-25L-39,-27L35,50Z" fill="rgb(245,249,255)" stroke="rgb(245,249,255)" stroke-width="1.51"></path><path d="M190,-101L113,-102L189,-28Z" fill="rgb(219,233,246)" stroke="rgb(219,233,246)" stroke-width="1.51"></path><path d="M337,-102L113,-102L190,-101Z" fill="rgb(206,228,241)" stroke="rgb(206,228,241)" stroke-width="1.51"></path><path d="M263,-101L337,-102L190,-101Z" fill="rgb(192,219,237)" stroke="rgb(192,219,237)" stroke-width="1.51"></path><path d="M412,-27L337,-102L337,-28Z" fill="rgb(167,200,228)" stroke="rgb(167,200,228)" stroke-width="1.51"></path><path d="M-39,423L39,424L38,347Z" fill="rgb(133,141,180)" stroke="rgb(133,141,180)" stroke-width="1.51"></path><path d="M413,351L489,347L487,274Z" fill="rgb(27,102,173)" stroke="rgb(27,102,173)" stroke-width="1.51"></path><path d="M487,274L560,202L487,199Z" fill="rgb(59,123,183)" stroke="rgb(59,123,183)" stroke-width="1.51"></path><path d="M488,124L563,51L488,52Z" fill="rgb(127,153,201)" stroke="rgb(127,153,201)" stroke-width="1.51"></path><path d="M488,422L489,347L413,351Z" fill="rgb(21,86,155)" stroke="rgb(21,86,155)" stroke-width="1.51"></path><path d="M412,-27L413,-102L337,-102Z" fill="rgb(163,194,225)" stroke="rgb(163,194,225)" stroke-width="1.51"></path><path d="M488,52L487,-23L410,49Z" fill="rgb(145,173,214)" stroke="rgb(145,173,214)" stroke-width="1.51"></path><path d="M113,-102L37,-98L112,-26Z" fill="rgb(233,241,251)" stroke="rgb(233,241,251)" stroke-width="1.51"></path><path d="M339,425L412,426L413,351Z" fill="rgb(38,92,150)" stroke="rgb(38,92,150)" stroke-width="1.51"></path><path d="M411,501L412,426L339,425Z" fill="rgb(38,92,150)" stroke="rgb(38,92,150)" stroke-width="1.51"></path><path d="M-111,201L-35,198L-38,126Z" fill="rgb(192,219,238)" stroke="rgb(192,219,238)" stroke-width="1.51"></path><path d="M-39,276L-40,347L38,347Z" fill="rgb(150,171,212)" stroke="rgb(150,171,212)" stroke-width="1.51"></path><path d="M488,-103L413,-102L412,-27Z" fill="rgb(155,182,220)" stroke="rgb(155,182,220)" stroke-width="1.51"></path><path d="M37,-98L-39,-27L39,-25Z" fill="rgb(245,249,255)" stroke="rgb(245,249,255)" stroke-width="1.51"></path><path d="M-115,127L-111,201L-38,126Z" fill="rgb(203,226,240)" stroke="rgb(203,226,240)" stroke-width="1.51"></path><path d="M561,274L560,202L487,274Z" fill="rgb(44,110,173)" stroke="rgb(44,110,173)" stroke-width="1.51"></path><path d="M488,52L563,51L487,-23Z" fill="rgb(140,160,205)" stroke="rgb(140,160,205)" stroke-width="1.51"></path><path d="M115,497L185,424L111,427Z" fill="rgb(112,129,172)" stroke="rgb(112,129,172)" stroke-width="1.51"></path><path d="M115,497L189,499L185,424Z" fill="rgb(107,127,170)" stroke="rgb(107,127,170)" stroke-width="1.51"></path><path d="M-115,127L-38,126L-113,52Z" fill="rgb(222,234,247)" stroke="rgb(222,234,247)" stroke-width="1.51"></path><path d="M189,499L263,501L263,423Z" fill="rgb(85,118,164)" stroke="rgb(85,118,164)" stroke-width="1.51"></path><path d="M-113,52L-38,126L-38,50Z" fill="rgb(229,239,249)" stroke="rgb(229,239,249)" stroke-width="1.51"></path><path d="M560,202L565,124L488,124Z" fill="rgb(97,136,186)" stroke="rgb(97,136,186)" stroke-width="1.51"></path><path d="M39,424L115,497L111,427Z" fill="rgb(120,134,175)" stroke="rgb(120,134,175)" stroke-width="1.51"></path><path d="M489,347L561,274L487,274Z" fill="rgb(25,100,171)" stroke="rgb(25,100,171)" stroke-width="1.51"></path><path d="M560,202L635,199L565,124Z" fill="rgb(79,117,166)" stroke="rgb(79,117,166)" stroke-width="1.51"></path><path d="M564,350L561,274L489,347Z" fill="rgb(17,86,158)" stroke="rgb(17,86,158)" stroke-width="1.51"></path><path d="M-110,-28L-113,52L-38,50Z" fill="rgb(241,247,253)" stroke="rgb(241,247,253)" stroke-width="1.51"></path><path d="M263,501L338,501L339,425Z" fill="rgb(59,105,158)" stroke="rgb(59,105,158)" stroke-width="1.51"></path><path d="M487,-23L488,-103L412,-27Z" fill="rgb(152,176,216)" stroke="rgb(152,176,216)" stroke-width="1.51"></path><path d="M565,124L563,51L488,124Z" fill="rgb(118,143,193)" stroke="rgb(118,143,193)" stroke-width="1.51"></path><path d="M-111,201L-114,274L-39,276Z" fill="rgb(164,197,227)" stroke="rgb(164,197,227)" stroke-width="1.51"></path><path d="M-115,127L-114,274L-111,201Z" fill="rgb(181,212,235)" stroke="rgb(181,212,235)" stroke-width="1.51"></path><path d="M486,502L488,422L412,426Z" fill="rgb(20,77,141)" stroke="rgb(20,77,141)" stroke-width="1.51"></path><path d="M412,426L488,422L413,351Z" fill="rgb(26,82,145)" stroke="rgb(26,82,145)" stroke-width="1.51"></path><path d="M39,424L34,502L115,497Z" fill="rgb(124,136,176)" stroke="rgb(124,136,176)" stroke-width="1.51"></path><path d="M-40,347L-39,423L38,347Z" fill="rgb(141,153,194)" stroke="rgb(141,153,194)" stroke-width="1.51"></path><path d="M-114,347L-39,423L-40,347Z" fill="rgb(141,153,194)" stroke="rgb(141,153,194)" stroke-width="1.51"></path><path d="M-39,-27L-110,-28L-38,50Z" fill="rgb(247,251,255)" stroke="rgb(247,251,255)" stroke-width="1.51"></path><path d="M37,-98L-39,-102L-39,-27Z" fill="rgb(247,251,255)" stroke="rgb(247,251,255)" stroke-width="1.51"></path><path d="M113,-102L-39,-102L37,-98Z" fill="rgb(241,247,253)" stroke="rgb(241,247,253)" stroke-width="1.51"></path><path d="M562,-25L488,-103L487,-23Z" fill="rgb(147,164,207)" stroke="rgb(147,164,207)" stroke-width="1.51"></path><path d="M413,-102L488,-103L337,-102Z" fill="rgb(159,188,222)" stroke="rgb(159,188,222)" stroke-width="1.51"></path><path d="M337,-102L488,-103L113,-102Z" fill="rgb(178,209,233)" stroke="rgb(178,209,233)" stroke-width="1.51"></path><path d="M113,-102L-111,-103L-39,-102Z" fill="rgb(247,251,255)" stroke="rgb(247,251,255)" stroke-width="1.51"></path><path d="M338,501L411,501L339,425Z" fill="rgb(45,97,153)" stroke="rgb(45,97,153)" stroke-width="1.51"></path><path d="M-114,274L-114,347L-39,276Z" fill="rgb(154,180,218)" stroke="rgb(154,180,218)" stroke-width="1.51"></path><path d="M-116,422L-114,347L-114,274Z" fill="rgb(146,162,206)" stroke="rgb(146,162,206)" stroke-width="1.51"></path><path d="M-39,-102L-110,-28L-39,-27Z" fill="rgb(247,251,255)" stroke="rgb(247,251,255)" stroke-width="1.51"></path><path d="M563,51L562,-25L487,-23Z" fill="rgb(144,158,201)" stroke="rgb(144,158,201)" stroke-width="1.51"></path><path d="M635,47L562,-25L563,51Z" fill="rgb(131,142,181)" stroke="rgb(131,142,181)" stroke-width="1.51"></path><path d="M559,422L564,350L489,347Z" fill="rgb(9,70,140)" stroke="rgb(9,70,140)" stroke-width="1.51"></path><path d="M637,273L635,199L560,202Z" fill="rgb(53,101,155)" stroke="rgb(53,101,155)" stroke-width="1.51"></path><path d="M559,422L489,347L488,422Z" fill="rgb(11,68,135)" stroke="rgb(11,68,135)" stroke-width="1.51"></path><path d="M-37,499L34,502L39,424Z" fill="rgb(133,141,179)" stroke="rgb(133,141,179)" stroke-width="1.51"></path><path d="M115,497L34,502L189,499Z" fill="rgb(116,131,173)" stroke="rgb(116,131,173)" stroke-width="1.51"></path><path d="M189,499L34,502L263,501Z" fill="rgb(107,126,170)" stroke="rgb(107,126,170)" stroke-width="1.51"></path><path d="M263,501L486,502L338,501Z" fill="rgb(45,97,153)" stroke="rgb(45,97,153)" stroke-width="1.51"></path><path d="M338,501L486,502L411,501Z" fill="rgb(33,87,148)" stroke="rgb(33,87,148)" stroke-width="1.51"></path><path d="M-37,499L39,424L-39,423Z" fill="rgb(135,142,179)" stroke="rgb(135,142,179)" stroke-width="1.51"></path><path d="M565,124L637,123L563,51Z" fill="rgb(112,131,175)" stroke="rgb(112,131,175)" stroke-width="1.51"></path><path d="M637,273L560,202L561,274Z" fill="rgb(41,98,156)" stroke="rgb(41,98,156)" stroke-width="1.51"></path><path d="M635,199L637,123L565,124Z" fill="rgb(91,120,165)" stroke="rgb(91,120,165)" stroke-width="1.51"></path><path d="M564,350L637,273L561,274Z" fill="rgb(23,83,147)" stroke="rgb(23,83,147)" stroke-width="1.51"></path><path d="M562,500L559,422L488,422Z" fill="rgb(9,62,127)" stroke="rgb(9,62,127)" stroke-width="1.51"></path><path d="M-115,497L-37,499L-39,423Z" fill="rgb(135,142,179)" stroke="rgb(135,142,179)" stroke-width="1.51"></path><path d="M562,-25L561,-102L488,-103Z" fill="rgb(144,158,201)" stroke="rgb(144,158,201)" stroke-width="1.51"></path><path d="M637,123L635,47L563,51Z" fill="rgb(117,131,173)" stroke="rgb(117,131,173)" stroke-width="1.51"></path><path d="M637,352L637,273L564,350Z" fill="rgb(16,72,137)" stroke="rgb(16,72,137)" stroke-width="1.51"></path><path d="M635,199L713,125L637,123Z" fill="rgb(91,120,165)" stroke="rgb(91,120,165)" stroke-width="1.51"></path><path d="M411,501L486,502L412,426Z" fill="rgb(26,82,145)" stroke="rgb(26,82,145)" stroke-width="1.51"></path><path d="M34,502L486,502L263,501Z" fill="rgb(78,114,162)" stroke="rgb(78,114,162)" stroke-width="1.51"></path><path d="M-115,127L-116,422L-114,274Z" fill="rgb(159,188,223)" stroke="rgb(159,188,223)" stroke-width="1.51"></path><path d="M-114,347L-116,422L-39,423Z" fill="rgb(135,143,181)" stroke="rgb(135,143,181)" stroke-width="1.51"></path><path d="M635,-25L561,-102L562,-25Z" fill="rgb(137,146,184)" stroke="rgb(137,146,184)" stroke-width="1.51"></path><path d="M-39,-102L-111,-103L-110,-28Z" fill="rgb(247,251,255)" stroke="rgb(247,251,255)" stroke-width="1.51"></path><path d="M-110,-28L-111,-103L-113,52Z" fill="rgb(247,251,255)" stroke="rgb(247,251,255)" stroke-width="1.51"></path><path d="M-113,52L-111,-103L-115,127Z" fill="rgb(241,247,253)" stroke="rgb(241,247,253)" stroke-width="1.51"></path><path d="M488,-103L-111,-103L113,-102Z" fill="rgb(219,233,246)" stroke="rgb(219,233,246)" stroke-width="1.51"></path><path d="M712,-24L635,-25L635,47Z" fill="rgb(135,142,179)" stroke="rgb(135,142,179)" stroke-width="1.51"></path><path d="M635,47L635,-25L562,-25Z" fill="rgb(135,142,179)" stroke="rgb(135,142,179)" stroke-width="1.51"></path><path d="M559,422L637,352L564,350Z" fill="rgb(9,59,123)" stroke="rgb(9,59,123)" stroke-width="1.51"></path><path d="M639,425L637,352L559,422Z" fill="rgb(8,48,107)" stroke="rgb(8,48,107)" stroke-width="1.51"></path><path d="M486,502L562,500L488,422Z" fill="rgb(11,67,133)" stroke="rgb(11,67,133)" stroke-width="1.51"></path><path d="M-116,422L-115,497L-39,423Z" fill="rgb(135,142,179)" stroke="rgb(135,142,179)" stroke-width="1.51"></path><path d="M-37,499L-115,497L34,502Z" fill="rgb(135,142,179)" stroke="rgb(135,142,179)" stroke-width="1.51"></path><path d="M637,123L710,49L635,47Z" fill="rgb(117,132,173)" stroke="rgb(117,132,173)" stroke-width="1.51"></path><path d="M714,202L713,125L635,199Z" fill="rgb(77,114,162)" stroke="rgb(77,114,162)" stroke-width="1.51"></path><path d="M714,202L635,199L637,273Z" fill="rgb(53,101,155)" stroke="rgb(53,101,155)" stroke-width="1.51"></path><path d="M712,273L714,202L637,273Z" fill="rgb(41,95,151)" stroke="rgb(41,95,151)" stroke-width="1.51"></path><path d="M562,500L639,425L559,422Z" fill="rgb(8,51,111)" stroke="rgb(8,51,111)" stroke-width="1.51"></path><path d="M635,-25L638,-100L561,-102Z" fill="rgb(135,142,179)" stroke="rgb(135,142,179)" stroke-width="1.51"></path><path d="M712,-24L638,-100L635,-25Z" fill="rgb(135,142,179)" stroke="rgb(135,142,179)" stroke-width="1.51"></path><path d="M712,273L637,273L712,347Z" fill="rgb(23,80,144)" stroke="rgb(23,80,144)" stroke-width="1.51"></path><path d="M713,125L710,49L637,123Z" fill="rgb(110,128,171)" stroke="rgb(110,128,171)" stroke-width="1.51"></path><path d="M712,347L637,273L637,352Z" fill="rgb(16,72,137)" stroke="rgb(16,72,137)" stroke-width="1.51"></path><path d="M714,423L712,347L637,352Z" fill="rgb(9,56,119)" stroke="rgb(9,56,119)" stroke-width="1.51"></path><path d="M712,273L712,347L714,202Z" fill="rgb(33,87,148)" stroke="rgb(33,87,148)" stroke-width="1.51"></path><path d="M710,49L712,-24L635,47Z" fill="rgb(129,139,177)" stroke="rgb(129,139,177)" stroke-width="1.51"></path><path d="M713,125L712,-24L710,49Z" fill="rgb(122,135,175)" stroke="rgb(122,135,175)" stroke-width="1.51"></path><path d="M714,202L712,-24L713,125Z" fill="rgb(110,128,171)" stroke="rgb(110,128,171)" stroke-width="1.51"></path><path d="M639,425L714,423L637,352Z" fill="rgb(8,48,107)" stroke="rgb(8,48,107)" stroke-width="1.51"></path><path d="M562,500L636,502L639,425Z" fill="rgb(8,48,107)" stroke="rgb(8,48,107)" stroke-width="1.51"></path><path d="M486,502L636,502L562,500Z" fill="rgb(9,56,119)" stroke="rgb(9,56,119)" stroke-width="1.51"></path><path d="M712,-24L710,-101L638,-100Z" fill="rgb(135,142,179)" stroke="rgb(135,142,179)" stroke-width="1.51"></path><path d="M638,-100L710,-101L561,-102Z" fill="rgb(135,142,179)" stroke="rgb(135,142,179)" stroke-width="1.51"></path><path d="M561,-102L710,-101L488,-103Z" fill="rgb(137,146,184)" stroke="rgb(137,146,184)" stroke-width="1.51"></path><path d="M711,499L714,423L639,425Z" fill="rgb(8,48,107)" stroke="rgb(8,48,107)" stroke-width="1.51"></path><path d="M712,347L714,423L714,202Z" fill="rgb(16,72,137)" stroke="rgb(16,72,137)" stroke-width="1.51"></path><path d="M636,502L711,499L639,425Z" fill="rgb(8,48,107)" stroke="rgb(8,48,107)" stroke-width="1.51"></path></svg>