<svg width="600" height="400" xmlns="http://www.w3.org/2000/svg"><path d="M336,196L326,144L270,138Z" fill="rgb(131,203,131)" stroke="rgb(131,203,131)" stroke-width="1.51"></path><path d="M270,138L242,203L336,196Z" fill="rgb(131,203,129)" stroke="rgb(131,203,129)" stroke-width="1.51"></path><path d="M270,138L204,180L242,203Z" fill="rgb(147,210,142)" stroke="rgb(147,210,142)" stroke-width="1.51"></path><path d="M336,196L393,217L326,144Z" fill="rgb(106,191,115)" stroke="rgb(106,191,115)" stroke-width="1.51"></path><path d="M347,289L393,217L336,196Z" fill="rgb(80,177,99)" stroke="rgb(80,177,99)" stroke-width="1.51"></path><path d="M242,203L256,289L336,196Z" fill="rgb(110,192,116)" stroke="rgb(110,192,116)" stroke-width="1.51"></path><path d="M201,282L256,289L242,203Z" fill="rgb(111,190,120)" stroke="rgb(111,190,120)" stroke-width="1.51"></path><path d="M256,289L347,289L336,196Z" fill="rgb(85,179,101)" stroke="rgb(85,179,101)" stroke-width="1.51"></path><path d="M270,138L168,106L204,180Z" fill="rgb(167,219,160)" stroke="rgb(167,219,160)" stroke-width="1.51"></path><path d="M350,45L243,56L270,138Z" fill="rgb(168,219,164)" stroke="rgb(168,219,164)" stroke-width="1.51"></path><path d="M204,180L201,282L242,203Z" fill="rgb(132,202,133)" stroke="rgb(132,202,133)" stroke-width="1.51"></path><path d="M326,144L350,45L270,138Z" fill="rgb(150,211,149)" stroke="rgb(150,211,149)" stroke-width="1.51"></path><path d="M426,116L350,45L326,144Z" fill="rgb(138,203,143)" stroke="rgb(138,203,143)" stroke-width="1.51"></path><path d="M243,56L168,106L270,138Z" fill="rgb(180,225,173)" stroke="rgb(180,225,173)" stroke-width="1.51"></path><path d="M204,180L131,184L201,282Z" fill="rgb(144,208,144)" stroke="rgb(144,208,144)" stroke-width="1.51"></path><path d="M393,217L426,116L326,144Z" fill="rgb(110,191,119)" stroke="rgb(110,191,119)" stroke-width="1.51"></path><path d="M347,289L422,283L393,217Z" fill="rgb(59,164,88)" stroke="rgb(59,164,88)" stroke-width="1.51"></path><path d="M256,289L328,336L347,289Z" fill="rgb(74,164,91)" stroke="rgb(74,164,91)" stroke-width="1.51"></path><path d="M262,357L328,336L256,289Z" fill="rgb(78,161,90)" stroke="rgb(78,161,90)" stroke-width="1.51"></path><path d="M168,106L131,184L204,180Z" fill="rgb(173,222,166)" stroke="rgb(173,222,166)" stroke-width="1.51"></path><path d="M393,217L472,133L426,116Z" fill="rgb(104,181,112)" stroke="rgb(104,181,112)" stroke-width="1.51"></path><path d="M411,334L422,283L347,289Z" fill="rgb(46,150,77)" stroke="rgb(46,150,77)" stroke-width="1.51"></path><path d="M426,116L426,61L350,45Z" fill="rgb(140,200,145)" stroke="rgb(140,200,145)" stroke-width="1.51"></path><path d="M243,56L182,38L168,106Z" fill="rgb(197,232,190)" stroke="rgb(197,232,190)" stroke-width="1.51"></path><path d="M168,106L114,142L131,184Z" fill="rgb(185,227,178)" stroke="rgb(185,227,178)" stroke-width="1.51"></path><path d="M250,-34L182,38L243,56Z" fill="rgb(201,233,196)" stroke="rgb(201,233,196)" stroke-width="1.51"></path><path d="M201,282L262,357L256,289Z" fill="rgb(96,172,105)" stroke="rgb(96,172,105)" stroke-width="1.51"></path><path d="M426,116L472,133L426,61Z" fill="rgb(123,187,129)" stroke="rgb(123,187,129)" stroke-width="1.51"></path><path d="M500,193L472,133L393,217Z" fill="rgb(88,170,99)" stroke="rgb(88,170,99)" stroke-width="1.51"></path><path d="M104,51L114,142L168,106Z" fill="rgb(204,235,196)" stroke="rgb(204,235,196)" stroke-width="1.51"></path><path d="M131,184L119,264L201,282Z" fill="rgb(139,204,143)" stroke="rgb(139,204,143)" stroke-width="1.51"></path><path d="M201,282L168,369L262,357Z" fill="rgb(99,168,105)" stroke="rgb(99,168,105)" stroke-width="1.51"></path><path d="M48,267L119,264L131,184Z" fill="rgb(152,209,155)" stroke="rgb(152,209,155)" stroke-width="1.51"></path><path d="M328,336L411,334L347,289Z" fill="rgb(51,151,78)" stroke="rgb(51,151,78)" stroke-width="1.51"></path><path d="M422,283L500,193L393,217Z" fill="rgb(64,162,87)" stroke="rgb(64,162,87)" stroke-width="1.51"></path><path d="M477,356L411,334L416,415Z" fill="rgb(23,119,56)" stroke="rgb(23,119,56)" stroke-width="1.51"></path><path d="M500,290L500,193L422,283Z" fill="rgb(45,148,75)" stroke="rgb(45,148,75)" stroke-width="1.51"></path><path d="M350,45L250,-34L243,56Z" fill="rgb(185,225,181)" stroke="rgb(185,225,181)" stroke-width="1.51"></path><path d="M324,-44L250,-34L350,45Z" fill="rgb(181,223,179)" stroke="rgb(181,223,179)" stroke-width="1.51"></path><path d="M182,38L104,51L168,106Z" fill="rgb(209,237,202)" stroke="rgb(209,237,202)" stroke-width="1.51"></path><path d="M250,-34L171,-6L182,38Z" fill="rgb(210,237,206)" stroke="rgb(210,237,206)" stroke-width="1.51"></path><path d="M410,-35L324,-44L350,45Z" fill="rgb(165,215,169)" stroke="rgb(165,215,169)" stroke-width="1.51"></path><path d="M171,-6L104,51L182,38Z" fill="rgb(218,241,212)" stroke="rgb(218,241,212)" stroke-width="1.51"></path><path d="M48,267L104,344L119,264Z" fill="rgb(138,193,143)" stroke="rgb(138,193,143)" stroke-width="1.51"></path><path d="M104,344L168,369L201,282Z" fill="rgb(114,175,118)" stroke="rgb(114,175,118)" stroke-width="1.51"></path><path d="M477,356L500,290L422,283Z" fill="rgb(30,132,63)" stroke="rgb(30,132,63)" stroke-width="1.51"></path><path d="M426,61L410,-35L350,45Z" fill="rgb(153,206,158)" stroke="rgb(153,206,158)" stroke-width="1.51"></path><path d="M472,133L482,31L426,61Z" fill="rgb(129,187,135)" stroke="rgb(129,187,135)" stroke-width="1.51"></path><path d="M548,36L482,31L472,133Z" fill="rgb(126,179,129)" stroke="rgb(126,179,129)" stroke-width="1.51"></path><path d="M482,31L410,-35L426,61Z" fill="rgb(146,196,152)" stroke="rgb(146,196,152)" stroke-width="1.51"></path><path d="M168,369L203,407L262,357Z" fill="rgb(90,151,95)" stroke="rgb(90,151,95)" stroke-width="1.51"></path><path d="M262,357L342,429L328,336Z" fill="rgb(60,139,73)" stroke="rgb(60,139,73)" stroke-width="1.51"></path><path d="M168,369L99,407L203,407Z" fill="rgb(101,149,104)" stroke="rgb(101,149,104)" stroke-width="1.51"></path><path d="M119,264L104,344L201,282Z" fill="rgb(125,187,132)" stroke="rgb(125,187,132)" stroke-width="1.51"></path><path d="M40,136L131,184L114,142Z" fill="rgb(190,229,183)" stroke="rgb(190,229,183)" stroke-width="1.51"></path><path d="M416,415L411,334L328,336Z" fill="rgb(34,132,64)" stroke="rgb(34,132,64)" stroke-width="1.51"></path><path d="M411,334L477,356L422,283Z" fill="rgb(32,134,65)" stroke="rgb(32,134,65)" stroke-width="1.51"></path><path d="M203,407L248,429L262,357Z" fill="rgb(80,138,85)" stroke="rgb(80,138,85)" stroke-width="1.51"></path><path d="M248,429L342,429L262,357Z" fill="rgb(65,132,74)" stroke="rgb(65,132,74)" stroke-width="1.51"></path><path d="M104,51L40,136L114,142Z" fill="rgb(209,237,202)" stroke="rgb(209,237,202)" stroke-width="1.51"></path><path d="M17,206L48,267L131,184Z" fill="rgb(167,216,166)" stroke="rgb(167,216,166)" stroke-width="1.51"></path><path d="M104,51L35,44L40,136Z" fill="rgb(223,243,217)" stroke="rgb(223,243,217)" stroke-width="1.51"></path><path d="M171,-6L128,-26L104,51Z" fill="rgb(225,244,220)" stroke="rgb(225,244,220)" stroke-width="1.51"></path><path d="M176,-110L128,-26L171,-6Z" fill="rgb(221,242,216)" stroke="rgb(221,242,216)" stroke-width="1.51"></path><path d="M176,-110L171,-6L250,-34Z" fill="rgb(211,238,206)" stroke="rgb(211,238,206)" stroke-width="1.51"></path><path d="M342,429L416,415L328,336Z" fill="rgb(39,122,62)" stroke="rgb(39,122,62)" stroke-width="1.51"></path><path d="M500,193L574,132L472,133Z" fill="rgb(92,163,98)" stroke="rgb(92,163,98)" stroke-width="1.51"></path><path d="M500,290L567,198L500,193Z" fill="rgb(53,145,74)" stroke="rgb(53,145,74)" stroke-width="1.51"></path><path d="M577,284L567,198L500,290Z" fill="rgb(34,130,63)" stroke="rgb(34,130,63)" stroke-width="1.51"></path><path d="M324,-44L251,-96L250,-34Z" fill="rgb(190,228,187)" stroke="rgb(190,228,187)" stroke-width="1.51"></path><path d="M330,-117L251,-96L324,-44Z" fill="rgb(183,224,180)" stroke="rgb(183,224,180)" stroke-width="1.51"></path><path d="M40,136L17,206L131,184Z" fill="rgb(186,226,181)" stroke="rgb(186,226,181)" stroke-width="1.51"></path><path d="M482,31L486,-27L410,-35Z" fill="rgb(146,193,152)" stroke="rgb(146,193,152)" stroke-width="1.51"></path><path d="M410,-35L330,-117L324,-44Z" fill="rgb(167,216,171)" stroke="rgb(167,216,171)" stroke-width="1.51"></path><path d="M548,36L486,-27L482,31Z" fill="rgb(137,183,140)" stroke="rgb(137,183,140)" stroke-width="1.51"></path><path d="M567,198L574,132L500,193Z" fill="rgb(78,150,86)" stroke="rgb(78,150,86)" stroke-width="1.51"></path><path d="M574,132L548,36L472,133Z" fill="rgb(111,168,114)" stroke="rgb(111,168,114)" stroke-width="1.51"></path><path d="M40,136L-21,187L17,206Z" fill="rgb(192,229,188)" stroke="rgb(192,229,188)" stroke-width="1.51"></path><path d="M29,-6L35,44L104,51Z" fill="rgb(235,248,231)" stroke="rgb(235,248,231)" stroke-width="1.51"></path><path d="M429,-94L330,-117L410,-35Z" fill="rgb(159,209,164)" stroke="rgb(159,209,164)" stroke-width="1.51"></path><path d="M183,507L269,501L248,429Z" fill="rgb(80,138,85)" stroke="rgb(80,138,85)" stroke-width="1.51"></path><path d="M104,344L99,407L168,369Z" fill="rgb(112,161,115)" stroke="rgb(112,161,115)" stroke-width="1.51"></path><path d="M27,366L99,407L104,344Z" fill="rgb(122,165,124)" stroke="rgb(122,165,124)" stroke-width="1.51"></path><path d="M27,366L104,344L48,267Z" fill="rgb(135,184,138)" stroke="rgb(135,184,138)" stroke-width="1.51"></path><path d="M556,337L577,284L500,290Z" fill="rgb(18,117,53)" stroke="rgb(18,117,53)" stroke-width="1.51"></path><path d="M567,198L618,194L574,132Z" fill="rgb(73,138,81)" stroke="rgb(73,138,81)" stroke-width="1.51"></path><path d="M556,337L500,290L477,356Z" fill="rgb(13,118,52)" stroke="rgb(13,118,52)" stroke-width="1.51"></path><path d="M504,-85L429,-94L486,-27Z" fill="rgb(144,191,149)" stroke="rgb(144,191,149)" stroke-width="1.51"></path><path d="M486,-27L429,-94L410,-35Z" fill="rgb(149,197,155)" stroke="rgb(149,197,155)" stroke-width="1.51"></path><path d="M542,428L556,337L477,356Z" fill="rgb(0,99,40)" stroke="rgb(0,99,40)" stroke-width="1.51"></path><path d="M128,-26L29,-6L104,51Z" fill="rgb(235,247,230)" stroke="rgb(235,247,230)" stroke-width="1.51"></path><path d="M251,-96L176,-110L250,-34Z" fill="rgb(205,235,199)" stroke="rgb(205,235,199)" stroke-width="1.51"></path><path d="M330,-117L176,-110L251,-96Z" fill="rgb(197,231,192)" stroke="rgb(197,231,192)" stroke-width="1.51"></path><path d="M17,206L-24,256L48,267Z" fill="rgb(163,213,167)" stroke="rgb(163,213,167)" stroke-width="1.51"></path><path d="M-22,143L-21,187L40,136Z" fill="rgb(202,234,197)" stroke="rgb(202,234,197)" stroke-width="1.51"></path><path d="M35,44L-22,143L40,136Z" fill="rgb(218,241,213)" stroke="rgb(218,241,213)" stroke-width="1.51"></path><path d="M100,-105L29,-6L128,-26Z" fill="rgb(236,248,232)" stroke="rgb(236,248,232)" stroke-width="1.51"></path><path d="M35,44L-49,69L-22,143Z" fill="rgb(228,245,223)" stroke="rgb(228,245,223)" stroke-width="1.51"></path><path d="M574,132L627,115L548,36Z" fill="rgb(105,152,109)" stroke="rgb(105,152,109)" stroke-width="1.51"></path><path d="M577,284L618,194L567,198Z" fill="rgb(49,127,66)" stroke="rgb(49,127,66)" stroke-width="1.51"></path><path d="M641,288L618,194L577,284Z" fill="rgb(31,116,57)" stroke="rgb(31,116,57)" stroke-width="1.51"></path><path d="M248,429L269,501L342,429Z" fill="rgb(64,131,73)" stroke="rgb(64,131,73)" stroke-width="1.51"></path><path d="M402,485L488,439L416,415Z" fill="rgb(20,105,50)" stroke="rgb(20,105,50)" stroke-width="1.51"></path><path d="M416,415L488,439L477,356Z" fill="rgb(14,101,45)" stroke="rgb(14,101,45)" stroke-width="1.51"></path><path d="M183,507L248,429L203,407Z" fill="rgb(86,141,90)" stroke="rgb(86,141,90)" stroke-width="1.51"></path><path d="M402,485L416,415L342,429Z" fill="rgb(31,115,57)" stroke="rgb(31,115,57)" stroke-width="1.51"></path><path d="M323,519L402,485L342,429Z" fill="rgb(40,120,61)" stroke="rgb(40,120,61)" stroke-width="1.51"></path><path d="M-37,336L27,366L48,267Z" fill="rgb(141,187,145)" stroke="rgb(141,187,145)" stroke-width="1.51"></path><path d="M-21,187L-24,256L17,206Z" fill="rgb(176,221,176)" stroke="rgb(176,221,176)" stroke-width="1.51"></path><path d="M-107,256L-24,256L-21,187Z" fill="rgb(169,216,171)" stroke="rgb(169,216,171)" stroke-width="1.51"></path><path d="M568,-37L486,-27L548,36Z" fill="rgb(135,177,138)" stroke="rgb(135,177,138)" stroke-width="1.51"></path><path d="M568,-37L504,-85L486,-27Z" fill="rgb(137,180,141)" stroke="rgb(137,180,141)" stroke-width="1.51"></path><path d="M429,-94L563,-107L330,-117Z" fill="rgb(149,198,155)" stroke="rgb(149,198,155)" stroke-width="1.51"></path><path d="M618,194L627,115L574,132Z" fill="rgb(84,140,88)" stroke="rgb(84,140,88)" stroke-width="1.51"></path><path d="M176,-110L100,-105L128,-26Z" fill="rgb(226,244,222)" stroke="rgb(226,244,222)" stroke-width="1.51"></path><path d="M269,501L323,519L342,429Z" fill="rgb(56,127,68)" stroke="rgb(56,127,68)" stroke-width="1.51"></path><path d="M648,59L568,-37L548,36Z" fill="rgb(123,158,127)" stroke="rgb(123,158,127)" stroke-width="1.51"></path><path d="M269,501L183,507L323,519Z" fill="rgb(73,135,79)" stroke="rgb(73,135,79)" stroke-width="1.51"></path><path d="M99,407L183,507L203,407Z" fill="rgb(99,146,101)" stroke="rgb(99,146,101)" stroke-width="1.51"></path><path d="M109,510L183,507L99,407Z" fill="rgb(106,148,108)" stroke="rgb(106,148,108)" stroke-width="1.51"></path><path d="M629,365L641,288L577,284Z" fill="rgb(12,99,44)" stroke="rgb(12,99,44)" stroke-width="1.51"></path><path d="M488,439L542,428L477,356Z" fill="rgb(5,92,39)" stroke="rgb(5,92,39)" stroke-width="1.51"></path><path d="M495,501L542,428L488,439Z" fill="rgb(3,91,38)" stroke="rgb(3,91,38)" stroke-width="1.51"></path><path d="M495,501L488,439L402,485Z" fill="rgb(14,100,45)" stroke="rgb(14,100,45)" stroke-width="1.51"></path><path d="M-132,203L-107,256L-21,187Z" fill="rgb(176,221,176)" stroke="rgb(176,221,176)" stroke-width="1.51"></path><path d="M-28,-15L-49,69L35,44Z" fill="rgb(241,250,238)" stroke="rgb(241,250,238)" stroke-width="1.51"></path><path d="M-28,-15L35,44L29,-6Z" fill="rgb(244,251,242)" stroke="rgb(244,251,242)" stroke-width="1.51"></path><path d="M629,365L577,284L556,337Z" fill="rgb(7,98,42)" stroke="rgb(7,98,42)" stroke-width="1.51"></path><path d="M618,194L701,131L627,115Z" fill="rgb(84,140,88)" stroke="rgb(84,140,88)" stroke-width="1.51"></path><path d="M-24,256L-37,336L48,267Z" fill="rgb(152,200,157)" stroke="rgb(152,200,157)" stroke-width="1.51"></path><path d="M27,366L34,437L99,407Z" fill="rgb(119,154,121)" stroke="rgb(119,154,121)" stroke-width="1.51"></path><path d="M-107,256L-37,336L-24,256Z" fill="rgb(152,201,158)" stroke="rgb(152,201,158)" stroke-width="1.51"></path><path d="M-40,434L34,437L27,366Z" fill="rgb(124,156,127)" stroke="rgb(124,156,127)" stroke-width="1.51"></path><path d="M701,131L648,59L627,115Z" fill="rgb(101,146,104)" stroke="rgb(101,146,104)" stroke-width="1.51"></path><path d="M627,115L648,59L548,36Z" fill="rgb(110,150,113)" stroke="rgb(110,150,113)" stroke-width="1.51"></path><path d="M100,-105L58,-113L29,-6Z" fill="rgb(240,249,236)" stroke="rgb(240,249,236)" stroke-width="1.51"></path><path d="M176,-110L58,-113L100,-105Z" fill="rgb(231,246,226)" stroke="rgb(231,246,226)" stroke-width="1.51"></path><path d="M330,-117L58,-113L176,-110Z" fill="rgb(214,239,209)" stroke="rgb(214,239,209)" stroke-width="1.51"></path><path d="M-27,-107L-28,-15L29,-6Z" fill="rgb(247,252,245)" stroke="rgb(247,252,245)" stroke-width="1.51"></path><path d="M57,508L109,510L99,407Z" fill="rgb(114,152,116)" stroke="rgb(114,152,116)" stroke-width="1.51"></path><path d="M183,507L109,510L323,519Z" fill="rgb(88,141,92)" stroke="rgb(88,141,92)" stroke-width="1.51"></path><path d="M323,519L495,501L402,485Z" fill="rgb(26,111,54)" stroke="rgb(26,111,54)" stroke-width="1.51"></path><path d="M542,428L629,365L556,337Z" fill="rgb(0,84,33)" stroke="rgb(0,84,33)" stroke-width="1.51"></path><path d="M648,411L629,365L542,428Z" fill="rgb(0,68,27)" stroke="rgb(0,68,27)" stroke-width="1.51"></path><path d="M654,-41L563,-107L568,-37Z" fill="rgb(126,158,129)" stroke="rgb(126,158,129)" stroke-width="1.51"></path><path d="M568,-37L563,-107L504,-85Z" fill="rgb(133,173,136)" stroke="rgb(133,173,136)" stroke-width="1.51"></path><path d="M504,-85L563,-107L429,-94Z" fill="rgb(140,185,145)" stroke="rgb(140,185,145)" stroke-width="1.51"></path><path d="M34,437L57,508L99,407Z" fill="rgb(118,153,120)" stroke="rgb(118,153,120)" stroke-width="1.51"></path><path d="M109,510L-29,510L323,519Z" fill="rgb(105,148,107)" stroke="rgb(105,148,107)" stroke-width="1.51"></path><path d="M-29,510L57,508L34,437Z" fill="rgb(123,155,126)" stroke="rgb(123,155,126)" stroke-width="1.51"></path><path d="M-37,336L-40,434L27,366Z" fill="rgb(130,166,133)" stroke="rgb(130,166,133)" stroke-width="1.51"></path><path d="M-132,203L-21,187L-133,143Z" fill="rgb(193,229,189)" stroke="rgb(193,229,189)" stroke-width="1.51"></path><path d="M-21,187L-22,143L-133,143Z" fill="rgb(201,233,196)" stroke="rgb(201,233,196)" stroke-width="1.51"></path><path d="M713,208L618,194L641,288Z" fill="rgb(45,122,63)" stroke="rgb(45,122,63)" stroke-width="1.51"></path><path d="M713,208L701,131L618,194Z" fill="rgb(71,133,78)" stroke="rgb(71,133,78)" stroke-width="1.51"></path><path d="M648,59L654,-41L568,-37Z" fill="rgb(125,156,128)" stroke="rgb(125,156,128)" stroke-width="1.51"></path><path d="M495,501L546,503L542,428Z" fill="rgb(0,87,35)" stroke="rgb(0,87,35)" stroke-width="1.51"></path><path d="M323,519L546,503L495,501Z" fill="rgb(15,101,46)" stroke="rgb(15,101,46)" stroke-width="1.51"></path><path d="M704,287L713,208L641,288Z" fill="rgb(30,114,56)" stroke="rgb(30,114,56)" stroke-width="1.51"></path><path d="M708,38L654,-41L648,59Z" fill="rgb(122,155,125)" stroke="rgb(122,155,125)" stroke-width="1.51"></path><path d="M-101,444L-40,434L-37,336Z" fill="rgb(125,156,128)" stroke="rgb(125,156,128)" stroke-width="1.51"></path><path d="M629,365L704,287L641,288Z" fill="rgb(12,99,44)" stroke="rgb(12,99,44)" stroke-width="1.51"></path><path d="M649,487L648,411L542,428Z" fill="rgb(0,68,27)" stroke="rgb(0,68,27)" stroke-width="1.51"></path><path d="M727,370L704,287L629,365Z" fill="rgb(3,91,38)" stroke="rgb(3,91,38)" stroke-width="1.51"></path><path d="M-107,256L-119,329L-37,336Z" fill="rgb(146,193,152)" stroke="rgb(146,193,152)" stroke-width="1.51"></path><path d="M-133,143L-22,143L-49,69Z" fill="rgb(216,240,211)" stroke="rgb(216,240,211)" stroke-width="1.51"></path><path d="M-124,45L-133,143L-49,69Z" fill="rgb(228,244,223)" stroke="rgb(228,244,223)" stroke-width="1.51"></path><path d="M-28,-15L-124,45L-49,69Z" fill="rgb(241,250,238)" stroke="rgb(241,250,238)" stroke-width="1.51"></path><path d="M58,-113L-27,-107L29,-6Z" fill="rgb(245,251,242)" stroke="rgb(245,251,242)" stroke-width="1.51"></path><path d="M713,208L708,38L701,131Z" fill="rgb(92,143,95)" stroke="rgb(92,143,95)" stroke-width="1.51"></path><path d="M701,131L708,38L648,59Z" fill="rgb(108,150,111)" stroke="rgb(108,150,111)" stroke-width="1.51"></path><path d="M-130,-8L-124,45L-28,-15Z" fill="rgb(246,252,243)" stroke="rgb(246,252,243)" stroke-width="1.51"></path><path d="M-132,203L-119,329L-107,256Z" fill="rgb(158,208,164)" stroke="rgb(158,208,164)" stroke-width="1.51"></path><path d="M708,38L708,-27L654,-41Z" fill="rgb(125,156,128)" stroke="rgb(125,156,128)" stroke-width="1.51"></path><path d="M654,-41L654,-115L563,-107Z" fill="rgb(125,156,128)" stroke="rgb(125,156,128)" stroke-width="1.51"></path><path d="M725,-82L708,-27L708,38Z" fill="rgb(125,156,128)" stroke="rgb(125,156,128)" stroke-width="1.51"></path><path d="M-124,45L-130,-8L-133,143Z" fill="rgb(235,248,231)" stroke="rgb(235,248,231)" stroke-width="1.51"></path><path d="M-131,-94L-130,-8L-28,-15Z" fill="rgb(247,252,245)" stroke="rgb(247,252,245)" stroke-width="1.51"></path><path d="M725,-82L654,-115L654,-41Z" fill="rgb(125,156,128)" stroke="rgb(125,156,128)" stroke-width="1.51"></path><path d="M563,-107L654,-115L330,-117Z" fill="rgb(137,182,141)" stroke="rgb(137,182,141)" stroke-width="1.51"></path><path d="M-40,434L-29,510L34,437Z" fill="rgb(125,156,128)" stroke="rgb(125,156,128)" stroke-width="1.51"></path><path d="M57,508L-29,510L109,510Z" fill="rgb(120,154,122)" stroke="rgb(120,154,122)" stroke-width="1.51"></path><path d="M-93,505L-29,510L-40,434Z" fill="rgb(125,156,128)" stroke="rgb(125,156,128)" stroke-width="1.51"></path><path d="M648,411L727,370L629,365Z" fill="rgb(0,75,30)" stroke="rgb(0,75,30)" stroke-width="1.51"></path><path d="M546,503L649,487L542,428Z" fill="rgb(0,73,29)" stroke="rgb(0,73,29)" stroke-width="1.51"></path><path d="M722,441L727,370L648,411Z" fill="rgb(0,68,27)" stroke="rgb(0,68,27)" stroke-width="1.51"></path><path d="M704,287L727,370L713,208Z" fill="rgb(20,106,50)" stroke="rgb(20,106,50)" stroke-width="1.51"></path><path d="M713,208L725,-82L708,38Z" fill="rgb(115,152,117)" stroke="rgb(115,152,117)" stroke-width="1.51"></path><path d="M-119,329L-101,444L-37,336Z" fill="rgb(131,170,135)" stroke="rgb(131,170,135)" stroke-width="1.51"></path><path d="M649,487L722,441L648,411Z" fill="rgb(0,68,27)" stroke="rgb(0,68,27)" stroke-width="1.51"></path><path d="M708,-27L725,-82L654,-41Z" fill="rgb(125,156,128)" stroke="rgb(125,156,128)" stroke-width="1.51"></path><path d="M727,370L725,-82L713,208Z" fill="rgb(76,136,82)" stroke="rgb(76,136,82)" stroke-width="1.51"></path><path d="M-27,-107L-131,-94L-28,-15Z" fill="rgb(247,252,245)" stroke="rgb(247,252,245)" stroke-width="1.51"></path><path d="M-130,-8L-131,-94L-133,143Z" fill="rgb(245,251,242)" stroke="rgb(245,251,242)" stroke-width="1.51"></path><path d="M-101,444L-93,505L-40,434Z" fill="rgb(125,156,128)" stroke="rgb(125,156,128)" stroke-width="1.51"></path><path d="M-119,329L-93,505L-101,444Z" fill="rgb(125,156,128)" stroke="rgb(125,156,128)" stroke-width="1.51"></path><path d="M727,370L728,516L725,-82Z" fill="rgb(27,112,54)" stroke="rgb(27,112,54)" stroke-width="1.51"></path><path d="M722,441L728,516L727,370Z" fill="rgb(0,68,27)" stroke="rgb(0,68,27)" stroke-width="1.51"></path><path d="M649,487L728,516L722,441Z" fill="rgb(0,68,27)" stroke="rgb(0,68,27)" stroke-width="1.51"></path><path d="M546,503L728,516L649,487Z" fill="rgb(0,68,27)" stroke="rgb(0,68,27)" stroke-width="1.51"></path><path d="M323,519L728,516L546,503Z" fill="rgb(0,86,34)" stroke="rgb(0,86,34)" stroke-width="1.51"></path></svg>