<svg width="600" height="400" xmlns="http://www.w3.org/2000/svg"><path d="M267,192L333,198L263,126Z" fill="rgb(252,121,88)" stroke="rgb(252,121,88)" stroke-width="1.51"></path><path d="M333,198L343,124L263,126Z" fill="rgb(251,124,92)" stroke="rgb(251,124,92)" stroke-width="1.51"></path><path d="M343,124L342,57L263,126Z" fill="rgb(253,143,113)" stroke="rgb(253,143,113)" stroke-width="1.51"></path><path d="M342,57L266,50L263,126Z" fill="rgb(255,160,130)" stroke="rgb(255,160,130)" stroke-width="1.51"></path><path d="M333,198L410,195L343,124Z" fill="rgb(247,101,72)" stroke="rgb(247,101,72)" stroke-width="1.51"></path><path d="M343,124L420,120L342,57Z" fill="rgb(250,131,103)" stroke="rgb(250,131,103)" stroke-width="1.51"></path><path d="M263,126L187,126L267,192Z" fill="rgb(252,144,111)" stroke="rgb(252,144,111)" stroke-width="1.51"></path><path d="M192,51L187,126L263,126Z" fill="rgb(253,169,140)" stroke="rgb(253,169,140)" stroke-width="1.51"></path><path d="M410,195L420,120L343,124Z" fill="rgb(243,106,78)" stroke="rgb(243,106,78)" stroke-width="1.51"></path><path d="M267,192L256,270L333,198Z" fill="rgb(249,102,72)" stroke="rgb(249,102,72)" stroke-width="1.51"></path><path d="M333,198L412,280L410,195Z" fill="rgb(240,71,50)" stroke="rgb(240,71,50)" stroke-width="1.51"></path><path d="M179,202L256,270L267,192Z" fill="rgb(250,116,85)" stroke="rgb(250,116,85)" stroke-width="1.51"></path><path d="M256,270L330,280L333,198Z" fill="rgb(245,83,57)" stroke="rgb(245,83,57)" stroke-width="1.51"></path><path d="M187,126L179,202L267,192Z" fill="rgb(252,141,109)" stroke="rgb(252,141,109)" stroke-width="1.51"></path><path d="M266,50L192,51L263,126Z" fill="rgb(255,172,145)" stroke="rgb(255,172,145)" stroke-width="1.51"></path><path d="M187,126L112,192L179,202Z" fill="rgb(253,156,125)" stroke="rgb(253,156,125)" stroke-width="1.51"></path><path d="M420,120L418,44L342,57Z" fill="rgb(249,136,111)" stroke="rgb(249,136,111)" stroke-width="1.51"></path><path d="M342,57L345,-26L266,50Z" fill="rgb(255,168,143)" stroke="rgb(255,168,143)" stroke-width="1.51"></path><path d="M266,50L258,-32L192,51Z" fill="rgb(255,187,165)" stroke="rgb(255,187,165)" stroke-width="1.51"></path><path d="M482,197L480,116L420,120Z" fill="rgb(227,97,72)" stroke="rgb(227,97,72)" stroke-width="1.51"></path><path d="M330,280L412,280L333,198Z" fill="rgb(240,64,47)" stroke="rgb(240,64,47)" stroke-width="1.51"></path><path d="M256,270L255,342L330,280Z" fill="rgb(229,78,56)" stroke="rgb(229,78,56)" stroke-width="1.51"></path><path d="M330,280L404,343L412,280Z" fill="rgb(219,41,36)" stroke="rgb(219,41,36)" stroke-width="1.51"></path><path d="M179,202L182,283L256,270Z" fill="rgb(248,113,84)" stroke="rgb(248,113,84)" stroke-width="1.51"></path><path d="M420,120L480,116L418,44Z" fill="rgb(236,121,96)" stroke="rgb(236,121,96)" stroke-width="1.51"></path><path d="M482,197L420,120L410,195Z" fill="rgb(232,87,63)" stroke="rgb(232,87,63)" stroke-width="1.51"></path><path d="M412,280L482,197L410,195Z" fill="rgb(228,62,45)" stroke="rgb(228,62,45)" stroke-width="1.51"></path><path d="M411,-19L345,-26L342,57Z" fill="rgb(255,161,139)" stroke="rgb(255,161,139)" stroke-width="1.51"></path><path d="M182,283L255,342L256,270Z" fill="rgb(230,93,69)" stroke="rgb(230,93,69)" stroke-width="1.51"></path><path d="M345,-26L258,-32L266,50Z" fill="rgb(255,180,157)" stroke="rgb(255,180,157)" stroke-width="1.51"></path><path d="M179,202L116,274L182,283Z" fill="rgb(249,126,98)" stroke="rgb(249,126,98)" stroke-width="1.51"></path><path d="M105,132L112,192L187,126Z" fill="rgb(254,171,142)" stroke="rgb(254,171,142)" stroke-width="1.51"></path><path d="M255,342L332,354L330,280Z" fill="rgb(217,67,48)" stroke="rgb(217,67,48)" stroke-width="1.51"></path><path d="M115,42L105,132L187,126Z" fill="rgb(253,190,165)" stroke="rgb(253,190,165)" stroke-width="1.51"></path><path d="M115,42L187,126L192,51Z" fill="rgb(254,193,169)" stroke="rgb(254,193,169)" stroke-width="1.51"></path><path d="M480,45L411,-19L418,44Z" fill="rgb(243,144,124)" stroke="rgb(243,144,124)" stroke-width="1.51"></path><path d="M418,44L411,-19L342,57Z" fill="rgb(254,151,129)" stroke="rgb(254,151,129)" stroke-width="1.51"></path><path d="M480,116L480,45L418,44Z" fill="rgb(233,128,106)" stroke="rgb(233,128,106)" stroke-width="1.51"></path><path d="M569,48L480,45L480,116Z" fill="rgb(220,123,102)" stroke="rgb(220,123,102)" stroke-width="1.51"></path><path d="M332,354L404,343L330,280Z" fill="rgb(212,49,38)" stroke="rgb(212,49,38)" stroke-width="1.51"></path><path d="M412,280L494,275L482,197Z" fill="rgb(217,42,36)" stroke="rgb(217,42,36)" stroke-width="1.51"></path><path d="M258,-32L191,-28L192,51Z" fill="rgb(255,199,179)" stroke="rgb(255,199,179)" stroke-width="1.51"></path><path d="M191,-28L115,42L192,51Z" fill="rgb(255,207,188)" stroke="rgb(255,207,188)" stroke-width="1.51"></path><path d="M182,283L181,354L255,342Z" fill="rgb(220,97,73)" stroke="rgb(220,97,73)" stroke-width="1.51"></path><path d="M112,192L116,274L179,202Z" fill="rgb(254,144,114)" stroke="rgb(254,144,114)" stroke-width="1.51"></path><path d="M43,192L116,274L112,192Z" fill="rgb(255,156,129)" stroke="rgb(255,156,129)" stroke-width="1.51"></path><path d="M482,197L563,121L480,116Z" fill="rgb(214,92,69)" stroke="rgb(214,92,69)" stroke-width="1.51"></path><path d="M481,355L494,275L412,280Z" fill="rgb(198,23,28)" stroke="rgb(198,23,28)" stroke-width="1.51"></path><path d="M114,343L181,354L182,283Z" fill="rgb(222,111,87)" stroke="rgb(222,111,87)" stroke-width="1.51"></path><path d="M259,430L330,421L332,354Z" fill="rgb(174,54,41)" stroke="rgb(174,54,41)" stroke-width="1.51"></path><path d="M494,275L555,207L482,197Z" fill="rgb(208,53,40)" stroke="rgb(208,53,40)" stroke-width="1.51"></path><path d="M258,-32L258,-96L191,-28Z" fill="rgb(255,193,172)" stroke="rgb(255,193,172)" stroke-width="1.51"></path><path d="M191,-28L108,-34L115,42Z" fill="rgb(255,219,204)" stroke="rgb(255,219,204)" stroke-width="1.51"></path><path d="M332,-103L258,-96L258,-32Z" fill="rgb(255,182,159)" stroke="rgb(255,182,159)" stroke-width="1.51"></path><path d="M332,-103L258,-32L345,-26Z" fill="rgb(255,175,152)" stroke="rgb(255,175,152)" stroke-width="1.51"></path><path d="M480,45L482,-28L411,-19Z" fill="rgb(239,146,128)" stroke="rgb(239,146,128)" stroke-width="1.51"></path><path d="M407,-102L332,-103L345,-26Z" fill="rgb(255,163,141)" stroke="rgb(255,163,141)" stroke-width="1.51"></path><path d="M567,-22L482,-28L480,45Z" fill="rgb(225,141,124)" stroke="rgb(225,141,124)" stroke-width="1.51"></path><path d="M407,-102L345,-26L411,-19Z" fill="rgb(255,158,136)" stroke="rgb(255,158,136)" stroke-width="1.51"></path><path d="M555,207L563,121L482,197Z" fill="rgb(205,76,55)" stroke="rgb(205,76,55)" stroke-width="1.51"></path><path d="M105,132L43,192L112,192Z" fill="rgb(255,174,148)" stroke="rgb(255,174,148)" stroke-width="1.51"></path><path d="M116,274L114,343L182,283Z" fill="rgb(234,120,96)" stroke="rgb(234,120,96)" stroke-width="1.51"></path><path d="M31,133L43,192L105,132Z" fill="rgb(255,186,163)" stroke="rgb(255,186,163)" stroke-width="1.51"></path><path d="M404,343L481,355L412,280Z" fill="rgb(197,27,28)" stroke="rgb(197,27,28)" stroke-width="1.51"></path><path d="M332,354L330,421L404,343Z" fill="rgb(188,42,34)" stroke="rgb(188,42,34)" stroke-width="1.51"></path><path d="M259,430L332,354L255,342Z" fill="rgb(191,66,49)" stroke="rgb(191,66,49)" stroke-width="1.51"></path><path d="M189,427L259,430L255,342Z" fill="rgb(176,74,58)" stroke="rgb(176,74,58)" stroke-width="1.51"></path><path d="M28,283L114,343L116,274Z" fill="rgb(237,134,112)" stroke="rgb(237,134,112)" stroke-width="1.51"></path><path d="M494,275L567,282L555,207Z" fill="rgb(194,35,31)" stroke="rgb(194,35,31)" stroke-width="1.51"></path><path d="M415,428L481,355L404,343Z" fill="rgb(171,20,25)" stroke="rgb(171,20,25)" stroke-width="1.51"></path><path d="M44,51L31,133L105,132Z" fill="rgb(254,205,186)" stroke="rgb(254,205,186)" stroke-width="1.51"></path><path d="M184,-102L108,-34L191,-28Z" fill="rgb(255,213,196)" stroke="rgb(255,213,196)" stroke-width="1.51"></path><path d="M44,51L105,132L115,42Z" fill="rgb(254,211,193)" stroke="rgb(254,211,193)" stroke-width="1.51"></path><path d="M189,427L255,342L181,354Z" fill="rgb(194,87,68)" stroke="rgb(194,87,68)" stroke-width="1.51"></path><path d="M482,-28L407,-102L411,-19Z" fill="rgb(245,150,131)" stroke="rgb(245,150,131)" stroke-width="1.51"></path><path d="M108,-34L44,51L115,42Z" fill="rgb(255,227,214)" stroke="rgb(255,227,214)" stroke-width="1.51"></path><path d="M332,-103L184,-102L258,-96Z" fill="rgb(255,188,166)" stroke="rgb(255,188,166)" stroke-width="1.51"></path><path d="M258,-96L184,-102L191,-28Z" fill="rgb(255,200,180)" stroke="rgb(255,200,180)" stroke-width="1.51"></path><path d="M482,-28L491,-108L407,-102Z" fill="rgb(239,146,128)" stroke="rgb(239,146,128)" stroke-width="1.51"></path><path d="M563,121L569,48L480,116Z" fill="rgb(207,110,89)" stroke="rgb(207,110,89)" stroke-width="1.51"></path><path d="M562,350L567,282L494,275Z" fill="rgb(176,18,24)" stroke="rgb(176,18,24)" stroke-width="1.51"></path><path d="M642,200L633,123L563,121Z" fill="rgb(176,78,61)" stroke="rgb(176,78,61)" stroke-width="1.51"></path><path d="M563,121L631,50L569,48Z" fill="rgb(186,110,94)" stroke="rgb(186,110,94)" stroke-width="1.51"></path><path d="M330,421L415,428L404,343Z" fill="rgb(168,28,28)" stroke="rgb(168,28,28)" stroke-width="1.51"></path><path d="M481,355L562,350L494,275Z" fill="rgb(177,18,23)" stroke="rgb(177,18,23)" stroke-width="1.51"></path><path d="M335,492L415,428L330,421Z" fill="rgb(170,36,31)" stroke="rgb(170,36,31)" stroke-width="1.51"></path><path d="M119,419L189,427L181,354Z" fill="rgb(178,94,78)" stroke="rgb(178,94,78)" stroke-width="1.51"></path><path d="M43,192L28,283L116,274Z" fill="rgb(255,151,126)" stroke="rgb(255,151,126)" stroke-width="1.51"></path><path d="M114,343L119,419L181,354Z" fill="rgb(198,108,88)" stroke="rgb(198,108,88)" stroke-width="1.51"></path><path d="M-42,191L28,283L43,192Z" fill="rgb(255,168,145)" stroke="rgb(255,168,145)" stroke-width="1.51"></path><path d="M569,48L567,-22L480,45Z" fill="rgb(213,132,116)" stroke="rgb(213,132,116)" stroke-width="1.51"></path><path d="M33,424L119,419L114,343Z" fill="rgb(185,114,100)" stroke="rgb(185,114,100)" stroke-width="1.51"></path><path d="M556,421L562,350L481,355Z" fill="rgb(145,9,19)" stroke="rgb(145,9,19)" stroke-width="1.51"></path><path d="M332,-103L113,-107L184,-102Z" fill="rgb(255,200,180)" stroke="rgb(255,200,180)" stroke-width="1.51"></path><path d="M407,-102L491,-108L332,-103Z" fill="rgb(251,154,134)" stroke="rgb(251,154,134)" stroke-width="1.51"></path><path d="M565,-92L491,-108L482,-28Z" fill="rgb(224,140,124)" stroke="rgb(224,140,124)" stroke-width="1.51"></path><path d="M184,-102L113,-107L108,-34Z" fill="rgb(255,219,205)" stroke="rgb(255,219,205)" stroke-width="1.51"></path><path d="M108,-34L39,-33L44,51Z" fill="rgb(255,236,227)" stroke="rgb(255,236,227)" stroke-width="1.51"></path><path d="M491,-108L113,-107L332,-103Z" fill="rgb(255,175,152)" stroke="rgb(255,175,152)" stroke-width="1.51"></path><path d="M36,-107L39,-33L108,-34Z" fill="rgb(255,236,228)" stroke="rgb(255,236,228)" stroke-width="1.51"></path><path d="M-32,56L-31,133L31,133Z" fill="rgb(255,213,196)" stroke="rgb(255,213,196)" stroke-width="1.51"></path><path d="M415,428L491,428L481,355Z" fill="rgb(149,9,21)" stroke="rgb(149,9,21)" stroke-width="1.51"></path><path d="M491,498L491,428L415,428Z" fill="rgb(148,9,21)" stroke="rgb(148,9,21)" stroke-width="1.51"></path><path d="M642,200L555,207L638,277Z" fill="rgb(171,43,34)" stroke="rgb(171,43,34)" stroke-width="1.51"></path><path d="M642,200L563,121L555,207Z" fill="rgb(181,68,52)" stroke="rgb(181,68,52)" stroke-width="1.51"></path><path d="M569,48L631,50L567,-22Z" fill="rgb(189,122,111)" stroke="rgb(189,122,111)" stroke-width="1.51"></path><path d="M28,283L30,346L114,343Z" fill="rgb(229,135,116)" stroke="rgb(229,135,116)" stroke-width="1.51"></path><path d="M31,133L-42,191L43,192Z" fill="rgb(255,186,164)" stroke="rgb(255,186,164)" stroke-width="1.51"></path><path d="M28,283L-30,357L30,346Z" fill="rgb(229,141,124)" stroke="rgb(229,141,124)" stroke-width="1.51"></path><path d="M-32,56L31,133L44,51Z" fill="rgb(255,221,207)" stroke="rgb(255,221,207)" stroke-width="1.51"></path><path d="M259,430L335,492L330,421Z" fill="rgb(174,54,41)" stroke="rgb(174,54,41)" stroke-width="1.51"></path><path d="M263,504L335,492L259,430Z" fill="rgb(175,60,46)" stroke="rgb(175,60,46)" stroke-width="1.51"></path><path d="M263,504L259,430L185,499Z" fill="rgb(176,74,58)" stroke="rgb(176,74,58)" stroke-width="1.51"></path><path d="M638,277L555,207L567,282Z" fill="rgb(173,30,28)" stroke="rgb(173,30,28)" stroke-width="1.51"></path><path d="M567,-22L565,-92L482,-28Z" fill="rgb(215,137,122)" stroke="rgb(215,137,122)" stroke-width="1.51"></path><path d="M633,123L631,50L563,121Z" fill="rgb(178,98,83)" stroke="rgb(178,98,83)" stroke-width="1.51"></path><path d="M643,-31L631,50L709,-25Z" fill="rgb(185,126,117)" stroke="rgb(185,126,117)" stroke-width="1.51"></path><path d="M-31,133L-42,191L31,133Z" fill="rgb(255,195,174)" stroke="rgb(255,195,174)" stroke-width="1.51"></path><path d="M185,499L259,430L189,427Z" fill="rgb(176,81,65)" stroke="rgb(176,81,65)" stroke-width="1.51"></path><path d="M-31,133L-115,131L-42,191Z" fill="rgb(255,195,175)" stroke="rgb(255,195,175)" stroke-width="1.51"></path><path d="M-34,-27L-32,56L44,51Z" fill="rgb(255,239,232)" stroke="rgb(255,239,232)" stroke-width="1.51"></path><path d="M631,347L638,277L567,282Z" fill="rgb(151,10,21)" stroke="rgb(151,10,21)" stroke-width="1.51"></path><path d="M631,347L567,282L562,350Z" fill="rgb(148,9,20)" stroke="rgb(148,9,20)" stroke-width="1.51"></path><path d="M631,-95L565,-92L567,-22Z" fill="rgb(191,128,118)" stroke="rgb(191,128,118)" stroke-width="1.51"></path><path d="M118,506L185,499L119,419Z" fill="rgb(179,100,84)" stroke="rgb(179,100,84)" stroke-width="1.51"></path><path d="M119,419L185,499L189,427Z" fill="rgb(178,94,78)" stroke="rgb(178,94,78)" stroke-width="1.51"></path><path d="M563,498L556,421L491,428Z" fill="rgb(128,5,17)" stroke="rgb(128,5,17)" stroke-width="1.51"></path><path d="M491,428L556,421L481,355Z" fill="rgb(137,7,19)" stroke="rgb(137,7,19)" stroke-width="1.51"></path><path d="M-42,191L-45,271L28,283Z" fill="rgb(255,160,138)" stroke="rgb(255,160,138)" stroke-width="1.51"></path><path d="M335,492L411,508L415,428Z" fill="rgb(166,27,28)" stroke="rgb(166,27,28)" stroke-width="1.51"></path><path d="M263,504L411,508L335,492Z" fill="rgb(171,44,35)" stroke="rgb(171,44,35)" stroke-width="1.51"></path><path d="M39,-33L-34,-27L44,51Z" fill="rgb(255,242,236)" stroke="rgb(255,242,236)" stroke-width="1.51"></path><path d="M113,-107L36,-107L108,-34Z" fill="rgb(255,232,221)" stroke="rgb(255,232,221)" stroke-width="1.51"></path><path d="M491,-108L36,-107L113,-107Z" fill="rgb(255,199,179)" stroke="rgb(255,199,179)" stroke-width="1.51"></path><path d="M637,419L631,347L562,350Z" fill="rgb(120,3,16)" stroke="rgb(120,3,16)" stroke-width="1.51"></path><path d="M30,346L33,424L114,343Z" fill="rgb(203,125,110)" stroke="rgb(203,125,110)" stroke-width="1.51"></path><path d="M-30,357L33,424L30,346Z" fill="rgb(202,131,118)" stroke="rgb(202,131,118)" stroke-width="1.51"></path><path d="M-105,50L-115,131L-31,133Z" fill="rgb(255,214,198)" stroke="rgb(255,214,198)" stroke-width="1.51"></path><path d="M-42,191L-116,201L-45,271Z" fill="rgb(255,170,147)" stroke="rgb(255,170,147)" stroke-width="1.51"></path><path d="M36,-107L-34,-27L39,-33Z" fill="rgb(255,243,237)" stroke="rgb(255,243,237)" stroke-width="1.51"></path><path d="M631,50L643,-31L567,-22Z" fill="rgb(185,126,117)" stroke="rgb(185,126,117)" stroke-width="1.51"></path><path d="M717,119L631,50L633,123Z" fill="rgb(178,99,83)" stroke="rgb(178,99,83)" stroke-width="1.51"></path><path d="M-45,271L-30,357L28,283Z" fill="rgb(240,146,128)" stroke="rgb(240,146,128)" stroke-width="1.51"></path><path d="M411,508L491,498L415,428Z" fill="rgb(154,13,22)" stroke="rgb(154,13,22)" stroke-width="1.51"></path><path d="M556,421L637,419L562,350Z" fill="rgb(111,1,15)" stroke="rgb(111,1,15)" stroke-width="1.51"></path><path d="M33,491L118,506L119,419Z" fill="rgb(182,112,99)" stroke="rgb(182,112,99)" stroke-width="1.51"></path><path d="M185,499L118,506L263,504Z" fill="rgb(177,87,71)" stroke="rgb(177,87,71)" stroke-width="1.51"></path><path d="M263,504L118,506L411,508Z" fill="rgb(175,66,51)" stroke="rgb(175,66,51)" stroke-width="1.51"></path><path d="M642,200L717,119L633,123Z" fill="rgb(176,78,61)" stroke="rgb(176,78,61)" stroke-width="1.51"></path><path d="M715,273L712,204L642,200Z" fill="rgb(171,44,35)" stroke="rgb(171,44,35)" stroke-width="1.51"></path><path d="M715,273L642,200L638,277Z" fill="rgb(168,30,29)" stroke="rgb(168,30,29)" stroke-width="1.51"></path><path d="M643,-31L631,-95L567,-22Z" fill="rgb(185,126,117)" stroke="rgb(185,126,117)" stroke-width="1.51"></path><path d="M565,-92L631,-95L491,-108Z" fill="rgb(203,132,120)" stroke="rgb(203,132,120)" stroke-width="1.51"></path><path d="M719,-105L631,-95L643,-31Z" fill="rgb(185,126,117)" stroke="rgb(185,126,117)" stroke-width="1.51"></path><path d="M712,204L717,119L642,200Z" fill="rgb(175,67,51)" stroke="rgb(175,67,51)" stroke-width="1.51"></path><path d="M-105,50L-31,133L-32,56Z" fill="rgb(255,223,210)" stroke="rgb(255,223,210)" stroke-width="1.51"></path><path d="M-45,271L-111,278L-30,357Z" fill="rgb(240,147,129)" stroke="rgb(240,147,129)" stroke-width="1.51"></path><path d="M-115,131L-116,201L-42,191Z" fill="rgb(255,187,165)" stroke="rgb(255,187,165)" stroke-width="1.51"></path><path d="M-113,-26L-105,50L-34,-27Z" fill="rgb(255,245,240)" stroke="rgb(255,245,240)" stroke-width="1.51"></path><path d="M-34,-27L-105,50L-32,56Z" fill="rgb(255,239,232)" stroke="rgb(255,239,232)" stroke-width="1.51"></path><path d="M715,350L715,273L638,277Z" fill="rgb(151,10,21)" stroke="rgb(151,10,21)" stroke-width="1.51"></path><path d="M563,498L637,419L556,421Z" fill="rgb(109,1,14)" stroke="rgb(109,1,14)" stroke-width="1.51"></path><path d="M715,350L638,277L631,347Z" fill="rgb(142,8,20)" stroke="rgb(142,8,20)" stroke-width="1.51"></path><path d="M712,204L715,273L717,119Z" fill="rgb(174,56,43)" stroke="rgb(174,56,43)" stroke-width="1.51"></path><path d="M715,273L719,54L717,119Z" fill="rgb(176,78,61)" stroke="rgb(176,78,61)" stroke-width="1.51"></path><path d="M717,119L719,54L631,50Z" fill="rgb(181,107,93)" stroke="rgb(181,107,93)" stroke-width="1.51"></path><path d="M491,498L563,498L491,428Z" fill="rgb(136,6,18)" stroke="rgb(136,6,18)" stroke-width="1.51"></path><path d="M411,508L563,498L491,498Z" fill="rgb(142,7,20)" stroke="rgb(142,7,20)" stroke-width="1.51"></path><path d="M33,424L33,491L119,419Z" fill="rgb(183,118,106)" stroke="rgb(183,118,106)" stroke-width="1.51"></path><path d="M-38,426L33,491L33,424Z" fill="rgb(185,124,115)" stroke="rgb(185,124,115)" stroke-width="1.51"></path><path d="M-38,426L33,424L-30,357Z" fill="rgb(185,126,117)" stroke="rgb(185,126,117)" stroke-width="1.51"></path><path d="M-116,201L-111,278L-45,271Z" fill="rgb(255,160,138)" stroke="rgb(255,160,138)" stroke-width="1.51"></path><path d="M36,-107L-42,-103L-34,-27Z" fill="rgb(255,245,240)" stroke="rgb(255,245,240)" stroke-width="1.51"></path><path d="M-112,421L-38,426L-30,357Z" fill="rgb(185,126,117)" stroke="rgb(185,126,117)" stroke-width="1.51"></path><path d="M719,54L709,-25L631,50Z" fill="rgb(184,120,110)" stroke="rgb(184,120,110)" stroke-width="1.51"></path><path d="M715,273L716,426L719,54Z" fill="rgb(168,29,29)" stroke="rgb(168,29,29)" stroke-width="1.51"></path><path d="M637,419L715,350L631,347Z" fill="rgb(120,3,16)" stroke="rgb(120,3,16)" stroke-width="1.51"></path><path d="M716,426L715,350L637,419Z" fill="rgb(104,0,13)" stroke="rgb(104,0,13)" stroke-width="1.51"></path><path d="M-105,50L-113,-26L-115,131Z" fill="rgb(255,234,224)" stroke="rgb(255,234,224)" stroke-width="1.51"></path><path d="M-115,131L-121,355L-116,201Z" fill="rgb(255,167,144)" stroke="rgb(255,167,144)" stroke-width="1.51"></path><path d="M-42,-103L-113,-26L-34,-27Z" fill="rgb(255,245,240)" stroke="rgb(255,245,240)" stroke-width="1.51"></path><path d="M-111,278L-121,355L-30,357Z" fill="rgb(229,142,125)" stroke="rgb(229,142,125)" stroke-width="1.51"></path><path d="M-38,426L-41,491L33,491Z" fill="rgb(185,126,117)" stroke="rgb(185,126,117)" stroke-width="1.51"></path><path d="M-116,201L-121,355L-111,278Z" fill="rgb(249,152,132)" stroke="rgb(249,152,132)" stroke-width="1.51"></path><path d="M-116,-99L-121,355L-115,131Z" fill="rgb(255,204,186)" stroke="rgb(255,204,186)" stroke-width="1.51"></path><path d="M411,508L632,502L563,498Z" fill="rgb(129,5,17)" stroke="rgb(129,5,17)" stroke-width="1.51"></path><path d="M563,498L632,502L637,419Z" fill="rgb(103,0,13)" stroke="rgb(103,0,13)" stroke-width="1.51"></path><path d="M-112,421L-41,491L-38,426Z" fill="rgb(185,126,117)" stroke="rgb(185,126,117)" stroke-width="1.51"></path><path d="M33,491L-112,504L118,506Z" fill="rgb(185,124,115)" stroke="rgb(185,124,115)" stroke-width="1.51"></path><path d="M719,54L719,-105L709,-25Z" fill="rgb(185,126,117)" stroke="rgb(185,126,117)" stroke-width="1.51"></path><path d="M709,-25L719,-105L643,-31Z" fill="rgb(185,126,117)" stroke="rgb(185,126,117)" stroke-width="1.51"></path><path d="M631,-95L719,-105L491,-108Z" fill="rgb(185,126,117)" stroke="rgb(185,126,117)" stroke-width="1.51"></path><path d="M-42,-103L-116,-99L-113,-26Z" fill="rgb(255,245,240)" stroke="rgb(255,245,240)" stroke-width="1.51"></path><path d="M-113,-26L-116,-99L-115,131Z" fill="rgb(255,244,239)" stroke="rgb(255,244,239)" stroke-width="1.51"></path><path d="M-121,355L-112,421L-30,357Z" fill="rgb(201,132,120)" stroke="rgb(201,132,120)" stroke-width="1.51"></path><path d="M711,499L716,426L637,419Z" fill="rgb(103,0,13)" stroke="rgb(103,0,13)" stroke-width="1.51"></path><path d="M715,350L716,426L715,273Z" fill="rgb(133,6,18)" stroke="rgb(133,6,18)" stroke-width="1.51"></path><path d="M632,502L711,499L637,419Z" fill="rgb(103,0,13)" stroke="rgb(103,0,13)" stroke-width="1.51"></path><path d="M-112,421L-112,504L-41,491Z" fill="rgb(185,126,117)" stroke="rgb(185,126,117)" stroke-width="1.51"></path><path d="M-41,491L-112,504L33,491Z" fill="rgb(185,126,117)" stroke="rgb(185,126,117)" stroke-width="1.51"></path><path d="M-121,355L-112,504L-112,421Z" fill="rgb(185,126,117)" stroke="rgb(185,126,117)" stroke-width="1.51"></path></svg>