<svg width="600" height="400" xmlns="http://www.w3.org/2000/svg"><path d="M279,182L318,144L277,128Z" fill="rgb(255,231,156)" stroke="rgb(255,231,156)" stroke-width="1.51"></path><path d="M279,182L353,195L318,144Z" fill="rgb(252,244,168)" stroke="rgb(252,244,168)" stroke-width="1.51"></path><path d="M178,132L189,204L279,182Z" fill="rgb(255,219,138)" stroke="rgb(255,219,138)" stroke-width="1.51"></path><path d="M279,182L261,279L353,195Z" fill="rgb(249,252,181)" stroke="rgb(249,252,181)" stroke-width="1.51"></path><path d="M277,128L178,132L279,182Z" fill="rgb(254,217,134)" stroke="rgb(254,217,134)" stroke-width="1.51"></path><path d="M353,195L433,130L318,144Z" fill="rgb(239,231,144)" stroke="rgb(239,231,144)" stroke-width="1.51"></path><path d="M395,285L396,201L353,195Z" fill="rgb(224,242,161)" stroke="rgb(224,242,161)" stroke-width="1.51"></path><path d="M357,44L265,31L277,128Z" fill="rgb(252,178,129)" stroke="rgb(252,178,129)" stroke-width="1.51"></path><path d="M277,128L193,48L178,132Z" fill="rgb(253,176,103)" stroke="rgb(253,176,103)" stroke-width="1.51"></path><path d="M357,44L277,128L318,144Z" fill="rgb(253,202,132)" stroke="rgb(253,202,132)" stroke-width="1.51"></path><path d="M189,204L261,279L279,182Z" fill="rgb(249,238,156)" stroke="rgb(249,238,156)" stroke-width="1.51"></path><path d="M396,52L357,44L318,144Z" fill="rgb(244,181,109)" stroke="rgb(244,181,109)" stroke-width="1.51"></path><path d="M265,31L193,48L277,128Z" fill="rgb(249,165,106)" stroke="rgb(249,165,106)" stroke-width="1.51"></path><path d="M396,201L433,130L353,195Z" fill="rgb(227,234,159)" stroke="rgb(227,234,159)" stroke-width="1.51"></path><path d="M433,130L396,52L318,144Z" fill="rgb(235,197,122)" stroke="rgb(235,197,122)" stroke-width="1.51"></path><path d="M261,279L344,293L353,195Z" fill="rgb(228,244,167)" stroke="rgb(228,244,167)" stroke-width="1.51"></path><path d="M189,204L193,273L261,279Z" fill="rgb(235,221,138)" stroke="rgb(235,221,138)" stroke-width="1.51"></path><path d="M261,279L263,330L344,293Z" fill="rgb(199,228,174)" stroke="rgb(199,228,174)" stroke-width="1.51"></path><path d="M108,267L193,273L189,204Z" fill="rgb(239,200,121)" stroke="rgb(239,200,121)" stroke-width="1.51"></path><path d="M344,293L395,285L353,195Z" fill="rgb(216,238,156)" stroke="rgb(216,238,156)" stroke-width="1.51"></path><path d="M396,201L472,184L433,130Z" fill="rgb(209,224,159)" stroke="rgb(209,224,159)" stroke-width="1.51"></path><path d="M265,31L263,-15L193,48Z" fill="rgb(224,139,105)" stroke="rgb(224,139,105)" stroke-width="1.51"></path><path d="M351,-34L263,-15L265,31Z" fill="rgb(212,141,123)" stroke="rgb(212,141,123)" stroke-width="1.51"></path><path d="M351,-34L265,31L357,44Z" fill="rgb(218,149,121)" stroke="rgb(218,149,121)" stroke-width="1.51"></path><path d="M178,132L119,189L189,204Z" fill="rgb(255,196,122)" stroke="rgb(255,196,122)" stroke-width="1.51"></path><path d="M101,134L119,189L178,132Z" fill="rgb(252,170,101)" stroke="rgb(252,170,101)" stroke-width="1.51"></path><path d="M193,273L263,330L261,279Z" fill="rgb(205,218,151)" stroke="rgb(205,218,151)" stroke-width="1.51"></path><path d="M344,293L410,336L395,285Z" fill="rgb(171,220,161)" stroke="rgb(171,220,161)" stroke-width="1.51"></path><path d="M487,49L395,-10L396,52Z" fill="rgb(195,144,118)" stroke="rgb(195,144,118)" stroke-width="1.51"></path><path d="M501,269L472,184L396,201Z" fill="rgb(190,228,169)" stroke="rgb(190,228,169)" stroke-width="1.51"></path><path d="M94,43L101,134L178,132Z" fill="rgb(248,131,76)" stroke="rgb(248,131,76)" stroke-width="1.51"></path><path d="M396,52L395,-10L357,44Z" fill="rgb(211,151,114)" stroke="rgb(211,151,114)" stroke-width="1.51"></path><path d="M487,49L396,52L433,130Z" fill="rgb(210,165,115)" stroke="rgb(210,165,115)" stroke-width="1.51"></path><path d="M395,-10L351,-34L357,44Z" fill="rgb(198,138,109)" stroke="rgb(198,138,109)" stroke-width="1.51"></path><path d="M193,48L94,43L178,132Z" fill="rgb(245,126,76)" stroke="rgb(245,126,76)" stroke-width="1.51"></path><path d="M263,-15L181,-16L193,48Z" fill="rgb(212,119,94)" stroke="rgb(212,119,94)" stroke-width="1.51"></path><path d="M171,-88L181,-16L263,-15Z" fill="rgb(208,113,90)" stroke="rgb(208,113,90)" stroke-width="1.51"></path><path d="M193,273L201,349L263,330Z" fill="rgb(190,203,145)" stroke="rgb(190,203,145)" stroke-width="1.51"></path><path d="M117,341L201,349L193,273Z" fill="rgb(192,181,130)" stroke="rgb(192,181,130)" stroke-width="1.51"></path><path d="M29,195L108,267L119,189Z" fill="rgb(242,171,122)" stroke="rgb(242,171,122)" stroke-width="1.51"></path><path d="M119,189L108,267L189,204Z" fill="rgb(251,192,123)" stroke="rgb(251,192,123)" stroke-width="1.51"></path><path d="M260,439L327,366L263,330Z" fill="rgb(175,175,179)" stroke="rgb(175,175,179)" stroke-width="1.51"></path><path d="M263,330L327,366L344,293Z" fill="rgb(178,216,178)" stroke="rgb(178,216,178)" stroke-width="1.51"></path><path d="M472,184L501,107L433,130Z" fill="rgb(195,201,142)" stroke="rgb(195,201,142)" stroke-width="1.51"></path><path d="M327,366L410,336L344,293Z" fill="rgb(168,210,164)" stroke="rgb(168,210,164)" stroke-width="1.51"></path><path d="M395,285L501,269L396,201Z" fill="rgb(187,227,160)" stroke="rgb(187,227,160)" stroke-width="1.51"></path><path d="M501,107L487,49L433,130Z" fill="rgb(196,170,121)" stroke="rgb(196,170,121)" stroke-width="1.51"></path><path d="M101,134L29,195L119,189Z" fill="rgb(245,161,113)" stroke="rgb(245,161,113)" stroke-width="1.51"></path><path d="M181,-16L94,43L193,48Z" fill="rgb(222,101,80)" stroke="rgb(222,101,80)" stroke-width="1.51"></path><path d="M410,336L501,269L395,285Z" fill="rgb(150,212,165)" stroke="rgb(150,212,165)" stroke-width="1.51"></path><path d="M472,184L553,191L501,107Z" fill="rgb(180,195,160)" stroke="rgb(180,195,160)" stroke-width="1.51"></path><path d="M181,-16L105,-13L94,43Z" fill="rgb(204,72,71)" stroke="rgb(204,72,71)" stroke-width="1.51"></path><path d="M171,-88L105,-13L181,-16Z" fill="rgb(204,86,76)" stroke="rgb(204,86,76)" stroke-width="1.51"></path><path d="M201,349L260,439L263,330Z" fill="rgb(175,169,163)" stroke="rgb(175,169,163)" stroke-width="1.51"></path><path d="M108,267L117,341L193,273Z" fill="rgb(210,175,119)" stroke="rgb(210,175,119)" stroke-width="1.51"></path><path d="M94,43L30,126L101,134Z" fill="rgb(236,111,80)" stroke="rgb(236,111,80)" stroke-width="1.51"></path><path d="M108,267L40,286L117,341Z" fill="rgb(200,154,118)" stroke="rgb(200,154,118)" stroke-width="1.51"></path><path d="M19,60L30,126L94,43Z" fill="rgb(222,80,73)" stroke="rgb(222,80,73)" stroke-width="1.51"></path><path d="M30,126L29,195L101,134Z" fill="rgb(234,141,104)" stroke="rgb(234,141,104)" stroke-width="1.51"></path><path d="M501,269L553,191L472,184Z" fill="rgb(172,208,178)" stroke="rgb(172,208,178)" stroke-width="1.51"></path><path d="M501,107L559,115L487,49Z" fill="rgb(185,146,128)" stroke="rgb(185,146,128)" stroke-width="1.51"></path><path d="M351,-34L344,-110L263,-15Z" fill="rgb(209,142,120)" stroke="rgb(209,142,120)" stroke-width="1.51"></path><path d="M409,-115L344,-110L351,-34Z" fill="rgb(198,138,109)" stroke="rgb(198,138,109)" stroke-width="1.51"></path><path d="M409,-115L351,-34L395,-10Z" fill="rgb(191,136,110)" stroke="rgb(191,136,110)" stroke-width="1.51"></path><path d="M242,-118L171,-88L263,-15Z" fill="rgb(209,122,97)" stroke="rgb(209,122,97)" stroke-width="1.51"></path><path d="M553,191L559,115L501,107Z" fill="rgb(176,166,154)" stroke="rgb(176,166,154)" stroke-width="1.51"></path><path d="M487,49L508,-10L395,-10Z" fill="rgb(165,126,115)" stroke="rgb(165,126,115)" stroke-width="1.51"></path><path d="M579,29L508,-10L487,49Z" fill="rgb(155,107,126)" stroke="rgb(155,107,126)" stroke-width="1.51"></path><path d="M344,-110L242,-118L263,-15Z" fill="rgb(212,139,119)" stroke="rgb(212,139,119)" stroke-width="1.51"></path><path d="M29,195L40,286L108,267Z" fill="rgb(223,157,116)" stroke="rgb(223,157,116)" stroke-width="1.51"></path><path d="M501,269L556,255L553,191Z" fill="rgb(159,190,174)" stroke="rgb(159,190,174)" stroke-width="1.51"></path><path d="M650,33L579,29L559,115Z" fill="rgb(172,85,120)" stroke="rgb(172,85,120)" stroke-width="1.51"></path><path d="M554,345L556,255L501,269Z" fill="rgb(116,175,177)" stroke="rgb(116,175,177)" stroke-width="1.51"></path><path d="M430,407L503,345L410,336Z" fill="rgb(107,169,177)" stroke="rgb(107,169,177)" stroke-width="1.51"></path><path d="M410,336L503,345L501,269Z" fill="rgb(111,197,165)" stroke="rgb(111,197,165)" stroke-width="1.51"></path><path d="M194,427L260,439L201,349Z" fill="rgb(181,139,147)" stroke="rgb(181,139,147)" stroke-width="1.51"></path><path d="M327,366L430,407L410,336Z" fill="rgb(145,176,172)" stroke="rgb(145,176,172)" stroke-width="1.51"></path><path d="M30,126L-31,130L29,195Z" fill="rgb(213,125,98)" stroke="rgb(213,125,98)" stroke-width="1.51"></path><path d="M29,-23L19,60L94,43Z" fill="rgb(197,49,76)" stroke="rgb(197,49,76)" stroke-width="1.51"></path><path d="M29,-23L94,43L105,-13Z" fill="rgb(191,47,72)" stroke="rgb(191,47,72)" stroke-width="1.51"></path><path d="M327,441L430,407L327,366Z" fill="rgb(168,158,161)" stroke="rgb(168,158,161)" stroke-width="1.51"></path><path d="M260,439L327,441L327,366Z" fill="rgb(178,163,178)" stroke="rgb(178,163,178)" stroke-width="1.51"></path><path d="M103,408L201,349L117,341Z" fill="rgb(179,131,133)" stroke="rgb(179,131,133)" stroke-width="1.51"></path><path d="M103,408L194,427L201,349Z" fill="rgb(182,121,132)" stroke="rgb(182,121,132)" stroke-width="1.51"></path><path d="M344,-110L409,-115L242,-118Z" fill="rgb(207,141,116)" stroke="rgb(207,141,116)" stroke-width="1.51"></path><path d="M498,-109L409,-115L395,-10Z" fill="rgb(170,127,113)" stroke="rgb(170,127,113)" stroke-width="1.51"></path><path d="M171,-88L132,-100L105,-13Z" fill="rgb(202,76,72)" stroke="rgb(202,76,72)" stroke-width="1.51"></path><path d="M242,-118L132,-100L171,-88Z" fill="rgb(206,102,83)" stroke="rgb(206,102,83)" stroke-width="1.51"></path><path d="M508,-10L498,-109L395,-10Z" fill="rgb(157,121,113)" stroke="rgb(157,121,113)" stroke-width="1.51"></path><path d="M559,115L579,29L487,49Z" fill="rgb(172,118,130)" stroke="rgb(172,118,130)" stroke-width="1.51"></path><path d="M640,145L559,115L553,191Z" fill="rgb(180,151,153)" stroke="rgb(180,151,153)" stroke-width="1.51"></path><path d="M40,358L103,408L117,341Z" fill="rgb(171,109,128)" stroke="rgb(171,109,128)" stroke-width="1.51"></path><path d="M23,-81L29,-23L105,-13Z" fill="rgb(182,34,72)" stroke="rgb(182,34,72)" stroke-width="1.51"></path><path d="M19,60L-31,130L30,126Z" fill="rgb(207,91,78)" stroke="rgb(207,91,78)" stroke-width="1.51"></path><path d="M29,195L-25,265L40,286Z" fill="rgb(203,142,111)" stroke="rgb(203,142,111)" stroke-width="1.51"></path><path d="M-22,28L-31,130L19,60Z" fill="rgb(198,61,69)" stroke="rgb(198,61,69)" stroke-width="1.51"></path><path d="M-32,353L40,358L40,286Z" fill="rgb(153,115,119)" stroke="rgb(153,115,119)" stroke-width="1.51"></path><path d="M40,286L40,358L117,341Z" fill="rgb(177,134,122)" stroke="rgb(177,134,122)" stroke-width="1.51"></path><path d="M556,255L621,201L553,191Z" fill="rgb(171,173,177)" stroke="rgb(171,173,177)" stroke-width="1.51"></path><path d="M503,345L554,345L501,269Z" fill="rgb(91,175,173)" stroke="rgb(91,175,173)" stroke-width="1.51"></path><path d="M560,423L554,345L503,345Z" fill="rgb(62,129,186)" stroke="rgb(62,129,186)" stroke-width="1.51"></path><path d="M188,481L277,488L260,439Z" fill="rgb(181,148,155)" stroke="rgb(181,148,155)" stroke-width="1.51"></path><path d="M260,439L277,488L327,441Z" fill="rgb(179,160,174)" stroke="rgb(179,160,174)" stroke-width="1.51"></path><path d="M327,441L428,500L430,407Z" fill="rgb(151,153,163)" stroke="rgb(151,153,163)" stroke-width="1.51"></path><path d="M430,407L496,431L503,345Z" fill="rgb(106,142,167)" stroke="rgb(106,142,167)" stroke-width="1.51"></path><path d="M188,481L260,439L194,427Z" fill="rgb(181,137,146)" stroke="rgb(181,137,146)" stroke-width="1.51"></path><path d="M643,283L621,201L556,255Z" fill="rgb(164,157,162)" stroke="rgb(164,157,162)" stroke-width="1.51"></path><path d="M-52,197L-25,265L29,195Z" fill="rgb(207,141,117)" stroke="rgb(207,141,117)" stroke-width="1.51"></path><path d="M553,-116L498,-109L508,-10Z" fill="rgb(141,98,121)" stroke="rgb(141,98,121)" stroke-width="1.51"></path><path d="M29,-23L-22,28L19,60Z" fill="rgb(177,29,71)" stroke="rgb(177,29,71)" stroke-width="1.51"></path><path d="M579,29L583,-20L508,-10Z" fill="rgb(136,79,121)" stroke="rgb(136,79,121)" stroke-width="1.51"></path><path d="M650,33L583,-20L579,29Z" fill="rgb(146,60,116)" stroke="rgb(146,60,116)" stroke-width="1.51"></path><path d="M97,487L188,481L103,408Z" fill="rgb(181,98,120)" stroke="rgb(181,98,120)" stroke-width="1.51"></path><path d="M103,408L188,481L194,427Z" fill="rgb(182,114,129)" stroke="rgb(182,114,129)" stroke-width="1.51"></path><path d="M97,487L335,495L277,488Z" fill="rgb(181,147,153)" stroke="rgb(181,147,153)" stroke-width="1.51"></path><path d="M277,488L335,495L327,441Z" fill="rgb(177,162,175)" stroke="rgb(177,162,175)" stroke-width="1.51"></path><path d="M428,500L496,431L430,407Z" fill="rgb(122,142,165)" stroke="rgb(122,142,165)" stroke-width="1.51"></path><path d="M-105,190L-52,197L-108,128Z" fill="rgb(211,132,109)" stroke="rgb(211,132,109)" stroke-width="1.51"></path><path d="M-31,130L-52,197L29,195Z" fill="rgb(211,133,110)" stroke="rgb(211,133,110)" stroke-width="1.51"></path><path d="M40,358L47,406L103,408Z" fill="rgb(165,83,123)" stroke="rgb(165,83,123)" stroke-width="1.51"></path><path d="M-32,353L47,406L40,358Z" fill="rgb(144,84,123)" stroke="rgb(144,84,123)" stroke-width="1.51"></path><path d="M621,201L640,145L553,191Z" fill="rgb(180,155,166)" stroke="rgb(180,155,166)" stroke-width="1.51"></path><path d="M-108,128L-52,197L-31,130Z" fill="rgb(209,123,98)" stroke="rgb(209,123,98)" stroke-width="1.51"></path><path d="M29,-23L-21,-13L-22,28Z" fill="rgb(158,1,66)" stroke="rgb(158,1,66)" stroke-width="1.51"></path><path d="M23,-81L-21,-13L29,-23Z" fill="rgb(162,9,67)" stroke="rgb(162,9,67)" stroke-width="1.51"></path><path d="M132,-100L23,-81L105,-13Z" fill="rgb(192,51,71)" stroke="rgb(192,51,71)" stroke-width="1.51"></path><path d="M335,495L428,500L327,441Z" fill="rgb(167,158,161)" stroke="rgb(167,158,161)" stroke-width="1.51"></path><path d="M554,345L643,283L556,255Z" fill="rgb(124,152,168)" stroke="rgb(124,152,168)" stroke-width="1.51"></path><path d="M621,201L691,183L640,145Z" fill="rgb(180,154,164)" stroke="rgb(180,154,164)" stroke-width="1.51"></path><path d="M621,360L643,283L554,345Z" fill="rgb(101,130,167)" stroke="rgb(101,130,167)" stroke-width="1.51"></path><path d="M560,423L503,345L496,431Z" fill="rgb(90,118,172)" stroke="rgb(90,118,172)" stroke-width="1.51"></path><path d="M583,-20L553,-116L508,-10Z" fill="rgb(135,84,123)" stroke="rgb(135,84,123)" stroke-width="1.51"></path><path d="M498,-109L553,-116L409,-115Z" fill="rgb(149,115,114)" stroke="rgb(149,115,114)" stroke-width="1.51"></path><path d="M409,-115L553,-116L242,-118Z" fill="rgb(184,133,111)" stroke="rgb(184,133,111)" stroke-width="1.51"></path><path d="M642,-111L553,-116L583,-20Z" fill="rgb(136,58,114)" stroke="rgb(136,58,114)" stroke-width="1.51"></path><path d="M-127,276L-32,353L-25,265Z" fill="rgb(165,125,113)" stroke="rgb(165,125,113)" stroke-width="1.51"></path><path d="M-25,265L-32,353L40,286Z" fill="rgb(163,124,113)" stroke="rgb(163,124,113)" stroke-width="1.51"></path><path d="M702,106L650,33L640,145Z" fill="rgb(181,104,124)" stroke="rgb(181,104,124)" stroke-width="1.51"></path><path d="M640,145L650,33L559,115Z" fill="rgb(182,107,125)" stroke="rgb(182,107,125)" stroke-width="1.51"></path><path d="M542,493L560,423L496,431Z" fill="rgb(84,112,174)" stroke="rgb(84,112,174)" stroke-width="1.51"></path><path d="M27,483L97,487L47,406Z" fill="rgb(163,72,120)" stroke="rgb(163,72,120)" stroke-width="1.51"></path><path d="M47,406L97,487L103,408Z" fill="rgb(171,80,119)" stroke="rgb(171,80,119)" stroke-width="1.51"></path><path d="M188,481L97,487L277,488Z" fill="rgb(182,127,136)" stroke="rgb(182,127,136)" stroke-width="1.51"></path><path d="M335,495L-103,513L428,500Z" fill="rgb(181,140,148)" stroke="rgb(181,140,148)" stroke-width="1.51"></path><path d="M560,423L621,360L554,345Z" fill="rgb(81,107,175)" stroke="rgb(81,107,175)" stroke-width="1.51"></path><path d="M-52,197L-127,276L-25,265Z" fill="rgb(198,138,109)" stroke="rgb(198,138,109)" stroke-width="1.51"></path><path d="M-108,128L-31,130L-102,70Z" fill="rgb(205,92,79)" stroke="rgb(205,92,79)" stroke-width="1.51"></path><path d="M650,33L645,-26L583,-20Z" fill="rgb(137,53,112)" stroke="rgb(137,53,112)" stroke-width="1.51"></path><path d="M-102,70L-31,130L-22,28Z" fill="rgb(199,63,68)" stroke="rgb(199,63,68)" stroke-width="1.51"></path><path d="M-118,-23L-102,70L-22,28Z" fill="rgb(175,27,70)" stroke="rgb(175,27,70)" stroke-width="1.51"></path><path d="M-118,-23L-22,28L-21,-13Z" fill="rgb(158,1,66)" stroke="rgb(158,1,66)" stroke-width="1.51"></path><path d="M732,264L691,183L643,283Z" fill="rgb(166,158,161)" stroke="rgb(166,158,161)" stroke-width="1.51"></path><path d="M643,283L691,183L621,201Z" fill="rgb(173,160,169)" stroke="rgb(173,160,169)" stroke-width="1.51"></path><path d="M650,33L703,34L645,-26Z" fill="rgb(146,60,116)" stroke="rgb(146,60,116)" stroke-width="1.51"></path><path d="M428,500L504,497L496,431Z" fill="rgb(108,137,165)" stroke="rgb(108,137,165)" stroke-width="1.51"></path><path d="M560,423L652,422L621,360Z" fill="rgb(94,79,162)" stroke="rgb(94,79,162)" stroke-width="1.51"></path><path d="M691,183L702,106L640,145Z" fill="rgb(181,139,147)" stroke="rgb(181,139,147)" stroke-width="1.51"></path><path d="M-32,353L-22,433L47,406Z" fill="rgb(137,56,113)" stroke="rgb(137,56,113)" stroke-width="1.51"></path><path d="M-123,416L-22,433L-32,353Z" fill="rgb(137,53,112)" stroke="rgb(137,53,112)" stroke-width="1.51"></path><path d="M-22,433L27,483L47,406Z" fill="rgb(145,59,115)" stroke="rgb(145,59,115)" stroke-width="1.51"></path><path d="M504,497L542,493L496,431Z" fill="rgb(93,121,171)" stroke="rgb(93,121,171)" stroke-width="1.51"></path><path d="M23,-81L-58,-87L-21,-13Z" fill="rgb(158,1,66)" stroke="rgb(158,1,66)" stroke-width="1.51"></path><path d="M-133,-116L-58,-87L23,-81Z" fill="rgb(158,1,66)" stroke="rgb(158,1,66)" stroke-width="1.51"></path><path d="M-133,-116L23,-81L132,-100Z" fill="rgb(161,7,67)" stroke="rgb(161,7,67)" stroke-width="1.51"></path><path d="M702,106L703,34L650,33Z" fill="rgb(172,82,119)" stroke="rgb(172,82,119)" stroke-width="1.51"></path><path d="M-105,190L-127,276L-52,197Z" fill="rgb(207,141,116)" stroke="rgb(207,141,116)" stroke-width="1.51"></path><path d="M-108,128L-127,276L-105,190Z" fill="rgb(212,142,124)" stroke="rgb(212,142,124)" stroke-width="1.51"></path><path d="M-118,-23L-127,276L-108,128Z" fill="rgb(207,106,86)" stroke="rgb(207,106,86)" stroke-width="1.51"></path><path d="M719,-25L642,-111L645,-26Z" fill="rgb(137,53,112)" stroke="rgb(137,53,112)" stroke-width="1.51"></path><path d="M645,-26L642,-111L583,-20Z" fill="rgb(137,53,112)" stroke="rgb(137,53,112)" stroke-width="1.51"></path><path d="M-102,70L-118,-23L-108,128Z" fill="rgb(192,51,71)" stroke="rgb(192,51,71)" stroke-width="1.51"></path><path d="M-58,-87L-118,-23L-21,-13Z" fill="rgb(158,1,66)" stroke="rgb(158,1,66)" stroke-width="1.51"></path><path d="M714,347L732,264L643,283Z" fill="rgb(124,143,165)" stroke="rgb(124,143,165)" stroke-width="1.51"></path><path d="M617,482L652,422L560,423Z" fill="rgb(94,79,162)" stroke="rgb(94,79,162)" stroke-width="1.51"></path><path d="M714,347L643,283L621,360Z" fill="rgb(100,129,168)" stroke="rgb(100,129,168)" stroke-width="1.51"></path><path d="M691,183L732,264L702,106Z" fill="rgb(180,157,170)" stroke="rgb(180,157,170)" stroke-width="1.51"></path><path d="M702,106L719,-25L703,34Z" fill="rgb(163,72,120)" stroke="rgb(163,72,120)" stroke-width="1.51"></path><path d="M542,493L617,482L560,423Z" fill="rgb(89,92,168)" stroke="rgb(89,92,168)" stroke-width="1.51"></path><path d="M703,34L719,-25L645,-26Z" fill="rgb(137,53,112)" stroke="rgb(137,53,112)" stroke-width="1.51"></path><path d="M732,264L719,-25L702,106Z" fill="rgb(182,120,132)" stroke="rgb(182,120,132)" stroke-width="1.51"></path><path d="M726,411L714,347L652,422Z" fill="rgb(92,84,164)" stroke="rgb(92,84,164)" stroke-width="1.51"></path><path d="M652,422L714,347L621,360Z" fill="rgb(87,96,170)" stroke="rgb(87,96,170)" stroke-width="1.51"></path><path d="M-127,276L-134,348L-32,353Z" fill="rgb(149,114,115)" stroke="rgb(149,114,115)" stroke-width="1.51"></path><path d="M-22,433L-34,493L27,483Z" fill="rgb(137,53,112)" stroke="rgb(137,53,112)" stroke-width="1.51"></path><path d="M-133,-116L-134,348L-127,276Z" fill="rgb(210,131,107)" stroke="rgb(210,131,107)" stroke-width="1.51"></path><path d="M-123,416L-34,493L-22,433Z" fill="rgb(137,53,112)" stroke="rgb(137,53,112)" stroke-width="1.51"></path><path d="M27,483L-34,493L97,487Z" fill="rgb(150,63,117)" stroke="rgb(150,63,117)" stroke-width="1.51"></path><path d="M97,487L-103,513L335,495Z" fill="rgb(178,89,118)" stroke="rgb(178,89,118)" stroke-width="1.51"></path><path d="M-134,348L-123,416L-32,353Z" fill="rgb(136,78,121)" stroke="rgb(136,78,121)" stroke-width="1.51"></path><path d="M-58,-87L-133,-116L-118,-23Z" fill="rgb(158,1,66)" stroke="rgb(158,1,66)" stroke-width="1.51"></path><path d="M-118,-23L-133,-116L-127,276Z" fill="rgb(187,42,72)" stroke="rgb(187,42,72)" stroke-width="1.51"></path><path d="M242,-118L-133,-116L132,-100Z" fill="rgb(191,48,71)" stroke="rgb(191,48,71)" stroke-width="1.51"></path><path d="M698,504L726,411L652,422Z" fill="rgb(94,79,162)" stroke="rgb(94,79,162)" stroke-width="1.51"></path><path d="M714,347L726,411L732,264Z" fill="rgb(94,122,170)" stroke="rgb(94,122,170)" stroke-width="1.51"></path><path d="M719,-25L725,-112L642,-111Z" fill="rgb(137,53,112)" stroke="rgb(137,53,112)" stroke-width="1.51"></path><path d="M642,-111L725,-112L553,-116Z" fill="rgb(137,53,112)" stroke="rgb(137,53,112)" stroke-width="1.51"></path><path d="M732,264L725,-112L719,-25Z" fill="rgb(165,74,120)" stroke="rgb(165,74,120)" stroke-width="1.51"></path><path d="M-123,416L-103,513L-34,493Z" fill="rgb(137,53,112)" stroke="rgb(137,53,112)" stroke-width="1.51"></path><path d="M-34,493L-103,513L97,487Z" fill="rgb(137,53,112)" stroke="rgb(137,53,112)" stroke-width="1.51"></path><path d="M-103,513L698,504L428,500Z" fill="rgb(172,160,167)" stroke="rgb(172,160,167)" stroke-width="1.51"></path><path d="M428,500L698,504L504,497Z" fill="rgb(81,107,174)" stroke="rgb(81,107,174)" stroke-width="1.51"></path><path d="M504,497L698,504L542,493Z" fill="rgb(90,88,166)" stroke="rgb(90,88,166)" stroke-width="1.51"></path><path d="M542,493L698,504L617,482Z" fill="rgb(94,79,162)" stroke="rgb(94,79,162)" stroke-width="1.51"></path><path d="M617,482L698,504L652,422Z" fill="rgb(94,79,162)" stroke="rgb(94,79,162)" stroke-width="1.51"></path></svg>