<svg width="600" height="400" xmlns="http://www.w3.org/2000/svg"><path d="M279,198L285,288L345,223Z" fill="rgb(242,249,219)" stroke="rgb(242,249,219)" stroke-width="1.51"></path><path d="M285,288L350,297L345,223Z" fill="rgb(215,237,227)" stroke="rgb(215,237,227)" stroke-width="1.51"></path><path d="M279,198L199,296L285,288Z" fill="rgb(230,230,198)" stroke="rgb(230,230,198)" stroke-width="1.51"></path><path d="M285,288L320,357L350,297Z" fill="rgb(190,214,212)" stroke="rgb(190,214,212)" stroke-width="1.51"></path><path d="M238,350L320,357L285,288Z" fill="rgb(187,199,190)" stroke="rgb(187,199,190)" stroke-width="1.51"></path><path d="M279,198L187,203L199,296Z" fill="rgb(247,227,183)" stroke="rgb(247,227,183)" stroke-width="1.51"></path><path d="M319,114L269,125L279,198Z" fill="rgb(255,227,154)" stroke="rgb(255,227,154)" stroke-width="1.51"></path><path d="M279,198L211,134L187,203Z" fill="rgb(255,225,149)" stroke="rgb(255,225,149)" stroke-width="1.51"></path><path d="M345,223L319,114L279,198Z" fill="rgb(252,245,185)" stroke="rgb(252,245,185)" stroke-width="1.51"></path><path d="M432,266L412,187L345,223Z" fill="rgb(215,237,233)" stroke="rgb(215,237,233)" stroke-width="1.51"></path><path d="M432,266L345,223L350,297Z" fill="rgb(203,232,242)" stroke="rgb(203,232,242)" stroke-width="1.51"></path><path d="M199,296L238,350L285,288Z" fill="rgb(200,203,181)" stroke="rgb(200,203,181)" stroke-width="1.51"></path><path d="M412,187L319,114L345,223Z" fill="rgb(243,239,204)" stroke="rgb(243,239,204)" stroke-width="1.51"></path><path d="M424,332L432,266L350,297Z" fill="rgb(167,211,230)" stroke="rgb(167,211,230)" stroke-width="1.51"></path><path d="M269,125L211,134L279,198Z" fill="rgb(255,222,144)" stroke="rgb(255,222,144)" stroke-width="1.51"></path><path d="M268,64L211,134L269,125Z" fill="rgb(254,192,119)" stroke="rgb(254,192,119)" stroke-width="1.51"></path><path d="M412,187L417,147L319,114Z" fill="rgb(235,222,187)" stroke="rgb(235,222,187)" stroke-width="1.51"></path><path d="M482,176L417,147L412,187Z" fill="rgb(212,218,192)" stroke="rgb(212,218,192)" stroke-width="1.51"></path><path d="M320,357L424,332L350,297Z" fill="rgb(165,200,225)" stroke="rgb(165,200,225)" stroke-width="1.51"></path><path d="M199,296L167,368L238,350Z" fill="rgb(189,169,157)" stroke="rgb(189,169,157)" stroke-width="1.51"></path><path d="M187,203L125,260L199,296Z" fill="rgb(239,200,167)" stroke="rgb(239,200,167)" stroke-width="1.51"></path><path d="M131,192L125,260L187,203Z" fill="rgb(252,195,147)" stroke="rgb(252,195,147)" stroke-width="1.51"></path><path d="M211,134L131,192L187,203Z" fill="rgb(255,204,129)" stroke="rgb(255,204,129)" stroke-width="1.51"></path><path d="M238,350L267,416L320,357Z" fill="rgb(170,164,173)" stroke="rgb(170,164,173)" stroke-width="1.51"></path><path d="M320,357L392,411L424,332Z" fill="rgb(141,168,209)" stroke="rgb(141,168,209)" stroke-width="1.51"></path><path d="M200,411L267,416L238,350Z" fill="rgb(166,138,152)" stroke="rgb(166,138,152)" stroke-width="1.51"></path><path d="M319,114L268,64L269,125Z" fill="rgb(255,196,129)" stroke="rgb(255,196,129)" stroke-width="1.51"></path><path d="M211,134L93,125L131,192Z" fill="rgb(253,175,105)" stroke="rgb(253,175,105)" stroke-width="1.51"></path><path d="M315,58L268,64L319,114Z" fill="rgb(255,183,127)" stroke="rgb(255,183,127)" stroke-width="1.51"></path><path d="M126,369L167,368L199,296Z" fill="rgb(187,148,142)" stroke="rgb(187,148,142)" stroke-width="1.51"></path><path d="M432,48L315,58L319,114Z" fill="rgb(245,174,150)" stroke="rgb(245,174,150)" stroke-width="1.51"></path><path d="M267,416L317,428L320,357Z" fill="rgb(162,148,174)" stroke="rgb(162,148,174)" stroke-width="1.51"></path><path d="M317,428L392,411L320,357Z" fill="rgb(149,146,192)" stroke="rgb(149,146,192)" stroke-width="1.51"></path><path d="M417,147L432,48L319,114Z" fill="rgb(235,189,162)" stroke="rgb(235,189,162)" stroke-width="1.51"></path><path d="M432,266L482,176L412,187Z" fill="rgb(203,226,215)" stroke="rgb(203,226,215)" stroke-width="1.51"></path><path d="M505,276L482,176L432,266Z" fill="rgb(175,210,230)" stroke="rgb(175,210,230)" stroke-width="1.51"></path><path d="M167,368L200,411L238,350Z" fill="rgb(173,139,145)" stroke="rgb(173,139,145)" stroke-width="1.51"></path><path d="M267,416L277,483L317,428Z" fill="rgb(163,145,168)" stroke="rgb(163,145,168)" stroke-width="1.51"></path><path d="M424,332L505,276L432,266Z" fill="rgb(149,198,223)" stroke="rgb(149,198,223)" stroke-width="1.51"></path><path d="M501,352L505,276L424,332Z" fill="rgb(118,174,210)" stroke="rgb(118,174,210)" stroke-width="1.51"></path><path d="M167,368L126,369L200,411Z" fill="rgb(172,117,130)" stroke="rgb(172,117,130)" stroke-width="1.51"></path><path d="M125,260L126,369L199,296Z" fill="rgb(207,166,149)" stroke="rgb(207,166,149)" stroke-width="1.51"></path><path d="M482,176L484,127L417,147Z" fill="rgb(204,199,176)" stroke="rgb(204,199,176)" stroke-width="1.51"></path><path d="M555,132L484,127L482,176Z" fill="rgb(188,175,163)" stroke="rgb(188,175,163)" stroke-width="1.51"></path><path d="M501,404L501,352L424,332Z" fill="rgb(95,144,195)" stroke="rgb(95,144,195)" stroke-width="1.51"></path><path d="M484,127L432,48L417,147Z" fill="rgb(214,177,155)" stroke="rgb(214,177,155)" stroke-width="1.51"></path><path d="M51,180L46,261L125,260Z" fill="rgb(240,160,138)" stroke="rgb(240,160,138)" stroke-width="1.51"></path><path d="M125,260L46,261L126,369Z" fill="rgb(210,149,138)" stroke="rgb(210,149,138)" stroke-width="1.51"></path><path d="M130,57L93,125L211,134Z" fill="rgb(250,144,82)" stroke="rgb(250,144,82)" stroke-width="1.51"></path><path d="M353,506L412,483L392,411Z" fill="rgb(131,138,196)" stroke="rgb(131,138,196)" stroke-width="1.51"></path><path d="M392,411L501,404L424,332Z" fill="rgb(110,140,194)" stroke="rgb(110,140,194)" stroke-width="1.51"></path><path d="M200,411L277,483L267,416Z" fill="rgb(164,135,154)" stroke="rgb(164,135,154)" stroke-width="1.51"></path><path d="M200,518L277,483L200,411Z" fill="rgb(165,128,146)" stroke="rgb(165,128,146)" stroke-width="1.51"></path><path d="M268,64L163,40L211,134Z" fill="rgb(252,157,94)" stroke="rgb(252,157,94)" stroke-width="1.51"></path><path d="M247,-22L163,40L268,64Z" fill="rgb(231,133,83)" stroke="rgb(231,133,83)" stroke-width="1.51"></path><path d="M247,-22L268,64L315,58Z" fill="rgb(239,151,102)" stroke="rgb(239,151,102)" stroke-width="1.51"></path><path d="M163,40L130,57L211,134Z" fill="rgb(248,135,78)" stroke="rgb(248,135,78)" stroke-width="1.51"></path><path d="M51,180L125,260L131,192Z" fill="rgb(251,176,129)" stroke="rgb(251,176,129)" stroke-width="1.51"></path><path d="M505,276L555,267L482,176Z" fill="rgb(160,191,221)" stroke="rgb(160,191,221)" stroke-width="1.51"></path><path d="M561,358L555,267L505,276Z" fill="rgb(108,155,201)" stroke="rgb(108,155,201)" stroke-width="1.51"></path><path d="M93,125L51,180L131,192Z" fill="rgb(247,159,100)" stroke="rgb(247,159,100)" stroke-width="1.51"></path><path d="M46,133L51,180L93,125Z" fill="rgb(240,137,81)" stroke="rgb(240,137,81)" stroke-width="1.51"></path><path d="M484,127L468,46L432,48Z" fill="rgb(206,147,138)" stroke="rgb(206,147,138)" stroke-width="1.51"></path><path d="M343,-44L247,-22L315,58Z" fill="rgb(218,144,110)" stroke="rgb(218,144,110)" stroke-width="1.51"></path><path d="M560,32L468,46L484,127Z" fill="rgb(189,126,128)" stroke="rgb(189,126,128)" stroke-width="1.51"></path><path d="M501,352L561,358L505,276Z" fill="rgb(95,147,196)" stroke="rgb(95,147,196)" stroke-width="1.51"></path><path d="M412,483L501,404L392,411Z" fill="rgb(109,127,188)" stroke="rgb(109,127,188)" stroke-width="1.51"></path><path d="M353,506L392,411L317,428Z" fill="rgb(145,144,196)" stroke="rgb(145,144,196)" stroke-width="1.51"></path><path d="M126,369L90,406L200,411Z" fill="rgb(167,92,119)" stroke="rgb(167,92,119)" stroke-width="1.51"></path><path d="M34,360L90,406L126,369Z" fill="rgb(166,84,110)" stroke="rgb(166,84,110)" stroke-width="1.51"></path><path d="M343,-44L315,58L432,48Z" fill="rgb(221,146,137)" stroke="rgb(221,146,137)" stroke-width="1.51"></path><path d="M163,40L98,-14L130,57Z" fill="rgb(223,83,55)" stroke="rgb(223,83,55)" stroke-width="1.51"></path><path d="M277,483L353,506L317,428Z" fill="rgb(157,147,180)" stroke="rgb(157,147,180)" stroke-width="1.51"></path><path d="M-48,218L-27,294L46,261Z" fill="rgb(199,133,132)" stroke="rgb(199,133,132)" stroke-width="1.51"></path><path d="M44,48L46,133L93,125Z" fill="rgb(234,102,60)" stroke="rgb(234,102,60)" stroke-width="1.51"></path><path d="M579,210L555,132L482,176Z" fill="rgb(174,173,173)" stroke="rgb(174,173,173)" stroke-width="1.51"></path><path d="M555,267L579,210L482,176Z" fill="rgb(163,181,200)" stroke="rgb(163,181,200)" stroke-width="1.51"></path><path d="M639,257L579,210L555,267Z" fill="rgb(141,147,200)" stroke="rgb(141,147,200)" stroke-width="1.51"></path><path d="M501,404L561,358L501,352Z" fill="rgb(75,116,180)" stroke="rgb(75,116,180)" stroke-width="1.51"></path><path d="M574,435L561,358L501,404Z" fill="rgb(61,83,164)" stroke="rgb(61,83,164)" stroke-width="1.51"></path><path d="M389,-49L343,-44L432,48Z" fill="rgb(198,133,132)" stroke="rgb(198,133,132)" stroke-width="1.51"></path><path d="M46,261L34,360L126,369Z" fill="rgb(186,117,121)" stroke="rgb(186,117,121)" stroke-width="1.51"></path><path d="M-27,294L34,360L46,261Z" fill="rgb(180,118,123)" stroke="rgb(180,118,123)" stroke-width="1.51"></path><path d="M277,483L200,518L353,506Z" fill="rgb(163,143,165)" stroke="rgb(163,143,165)" stroke-width="1.51"></path><path d="M97,502L200,518L200,411Z" fill="rgb(166,102,125)" stroke="rgb(166,102,125)" stroke-width="1.51"></path><path d="M97,502L200,411L90,406Z" fill="rgb(165,83,114)" stroke="rgb(165,83,114)" stroke-width="1.51"></path><path d="M34,360L49,412L90,406Z" fill="rgb(155,60,99)" stroke="rgb(155,60,99)" stroke-width="1.51"></path><path d="M509,-30L432,48L468,46Z" fill="rgb(181,117,122)" stroke="rgb(181,117,122)" stroke-width="1.51"></path><path d="M509,-30L389,-49L432,48Z" fill="rgb(178,119,125)" stroke="rgb(178,119,125)" stroke-width="1.51"></path><path d="M130,57L44,48L93,125Z" fill="rgb(236,93,58)" stroke="rgb(236,93,58)" stroke-width="1.51"></path><path d="M247,-22L192,-46L163,40Z" fill="rgb(212,111,73)" stroke="rgb(212,111,73)" stroke-width="1.51"></path><path d="M207,-88L192,-46L247,-22Z" fill="rgb(213,118,78)" stroke="rgb(213,118,78)" stroke-width="1.51"></path><path d="M322,-93L247,-22L343,-44Z" fill="rgb(217,143,111)" stroke="rgb(217,143,111)" stroke-width="1.51"></path><path d="M551,517L505,487L412,483Z" fill="rgb(83,108,177)" stroke="rgb(83,108,177)" stroke-width="1.51"></path><path d="M412,483L505,487L501,404Z" fill="rgb(91,114,181)" stroke="rgb(91,114,181)" stroke-width="1.51"></path><path d="M98,-14L44,48L130,57Z" fill="rgb(217,62,46)" stroke="rgb(217,62,46)" stroke-width="1.51"></path><path d="M-48,218L46,261L51,180Z" fill="rgb(220,145,123)" stroke="rgb(220,145,123)" stroke-width="1.51"></path><path d="M192,-46L98,-14L163,40Z" fill="rgb(207,86,59)" stroke="rgb(207,86,59)" stroke-width="1.51"></path><path d="M49,412L97,502L90,406Z" fill="rgb(157,61,101)" stroke="rgb(157,61,101)" stroke-width="1.51"></path><path d="M34,360L-17,429L49,412Z" fill="rgb(137,43,94)" stroke="rgb(137,43,94)" stroke-width="1.51"></path><path d="M49,412L46,500L97,502Z" fill="rgb(154,54,97)" stroke="rgb(154,54,97)" stroke-width="1.51"></path><path d="M-20,133L51,180L46,133Z" fill="rgb(225,128,82)" stroke="rgb(225,128,82)" stroke-width="1.51"></path><path d="M555,132L560,32L484,127Z" fill="rgb(181,131,133)" stroke="rgb(181,131,133)" stroke-width="1.51"></path><path d="M618,70L560,32L555,132Z" fill="rgb(170,91,117)" stroke="rgb(170,91,117)" stroke-width="1.51"></path><path d="M505,487L574,435L501,404Z" fill="rgb(67,91,168)" stroke="rgb(67,91,168)" stroke-width="1.51"></path><path d="M561,358L639,257L555,267Z" fill="rgb(108,133,191)" stroke="rgb(108,133,191)" stroke-width="1.51"></path><path d="M389,-49L322,-93L343,-44Z" fill="rgb(210,139,132)" stroke="rgb(210,139,132)" stroke-width="1.51"></path><path d="M192,-46L124,-102L98,-14Z" fill="rgb(206,78,56)" stroke="rgb(206,78,56)" stroke-width="1.51"></path><path d="M426,-80L322,-93L389,-49Z" fill="rgb(202,134,133)" stroke="rgb(202,134,133)" stroke-width="1.51"></path><path d="M-23,56L-20,133L46,133Z" fill="rgb(209,91,61)" stroke="rgb(209,91,61)" stroke-width="1.51"></path><path d="M579,210L636,149L555,132Z" fill="rgb(166,141,155)" stroke="rgb(166,141,155)" stroke-width="1.51"></path><path d="M624,371L639,257L561,358Z" fill="rgb(82,106,176)" stroke="rgb(82,106,176)" stroke-width="1.51"></path><path d="M268,-100L207,-88L247,-22Z" fill="rgb(214,128,88)" stroke="rgb(214,128,88)" stroke-width="1.51"></path><path d="M538,-14L509,-30L468,46Z" fill="rgb(155,94,113)" stroke="rgb(155,94,113)" stroke-width="1.51"></path><path d="M322,-93L268,-100L247,-22Z" fill="rgb(217,138,101)" stroke="rgb(217,138,101)" stroke-width="1.51"></path><path d="M509,-30L426,-80L389,-49Z" fill="rgb(178,119,125)" stroke="rgb(178,119,125)" stroke-width="1.51"></path><path d="M322,-93L559,-115L268,-100Z" fill="rgb(200,134,133)" stroke="rgb(200,134,133)" stroke-width="1.51"></path><path d="M647,189L636,149L579,210Z" fill="rgb(163,142,164)" stroke="rgb(163,142,164)" stroke-width="1.51"></path><path d="M574,435L624,371L561,358Z" fill="rgb(56,71,157)" stroke="rgb(56,71,157)" stroke-width="1.51"></path><path d="M-20,133L-48,218L51,180Z" fill="rgb(216,135,97)" stroke="rgb(216,135,97)" stroke-width="1.51"></path><path d="M617,-48L538,-14L560,32Z" fill="rgb(135,58,99)" stroke="rgb(135,58,99)" stroke-width="1.51"></path><path d="M560,32L538,-14L468,46Z" fill="rgb(162,93,112)" stroke="rgb(162,93,112)" stroke-width="1.51"></path><path d="M509,-30L499,-78L426,-80Z" fill="rgb(164,106,119)" stroke="rgb(164,106,119)" stroke-width="1.51"></path><path d="M639,257L647,189L579,210Z" fill="rgb(154,146,185)" stroke="rgb(154,146,185)" stroke-width="1.51"></path><path d="M-27,294L-36,368L34,360Z" fill="rgb(153,91,112)" stroke="rgb(153,91,112)" stroke-width="1.51"></path><path d="M-118,344L-36,368L-27,294Z" fill="rgb(155,95,114)" stroke="rgb(155,95,114)" stroke-width="1.51"></path><path d="M636,149L618,70L555,132Z" fill="rgb(167,107,127)" stroke="rgb(167,107,127)" stroke-width="1.51"></path><path d="M689,116L618,70L636,149Z" fill="rgb(166,103,125)" stroke="rgb(166,103,125)" stroke-width="1.51"></path><path d="M-17,429L46,500L49,412Z" fill="rgb(138,44,94)" stroke="rgb(138,44,94)" stroke-width="1.51"></path><path d="M97,502L46,500L200,518Z" fill="rgb(163,76,110)" stroke="rgb(163,76,110)" stroke-width="1.51"></path><path d="M574,435L617,429L624,371Z" fill="rgb(49,54,149)" stroke="rgb(49,54,149)" stroke-width="1.51"></path><path d="M624,371L692,258L639,257Z" fill="rgb(105,124,187)" stroke="rgb(105,124,187)" stroke-width="1.51"></path><path d="M624,515L617,429L574,435Z" fill="rgb(49,54,149)" stroke="rgb(49,54,149)" stroke-width="1.51"></path><path d="M-36,368L-17,429L34,360Z" fill="rgb(133,53,97)" stroke="rgb(133,53,97)" stroke-width="1.51"></path><path d="M505,487L551,517L574,435Z" fill="rgb(60,83,164)" stroke="rgb(60,83,164)" stroke-width="1.51"></path><path d="M353,506L551,517L412,483Z" fill="rgb(107,126,188)" stroke="rgb(107,126,188)" stroke-width="1.51"></path><path d="M200,518L551,517L353,506Z" fill="rgb(139,142,198)" stroke="rgb(139,142,198)" stroke-width="1.51"></path><path d="M44,48L-23,56L46,133Z" fill="rgb(213,71,52)" stroke="rgb(213,71,52)" stroke-width="1.51"></path><path d="M-125,133L-108,221L-48,218Z" fill="rgb(217,140,104)" stroke="rgb(217,140,104)" stroke-width="1.51"></path><path d="M22,-17L-23,56L44,48Z" fill="rgb(189,28,39)" stroke="rgb(189,28,39)" stroke-width="1.51"></path><path d="M22,-17L44,48L98,-14Z" fill="rgb(191,30,39)" stroke="rgb(191,30,39)" stroke-width="1.51"></path><path d="M559,-115L499,-78L538,-14Z" fill="rgb(145,81,108)" stroke="rgb(145,81,108)" stroke-width="1.51"></path><path d="M538,-14L499,-78L509,-30Z" fill="rgb(151,89,111)" stroke="rgb(151,89,111)" stroke-width="1.51"></path><path d="M426,-80L559,-115L322,-93Z" fill="rgb(181,121,126)" stroke="rgb(181,121,126)" stroke-width="1.51"></path><path d="M24,-104L22,-17L98,-14Z" fill="rgb(185,24,39)" stroke="rgb(185,24,39)" stroke-width="1.51"></path><path d="M268,-100L124,-102L207,-88Z" fill="rgb(212,111,73)" stroke="rgb(212,111,73)" stroke-width="1.51"></path><path d="M207,-88L124,-102L192,-46Z" fill="rgb(210,99,65)" stroke="rgb(210,99,65)" stroke-width="1.51"></path><path d="M647,189L689,116L636,149Z" fill="rgb(165,128,146)" stroke="rgb(165,128,146)" stroke-width="1.51"></path><path d="M639,257L692,258L647,189Z" fill="rgb(145,144,195)" stroke="rgb(145,144,195)" stroke-width="1.51"></path><path d="M734,366L692,258L624,371Z" fill="rgb(80,104,175)" stroke="rgb(80,104,175)" stroke-width="1.51"></path><path d="M-17,429L-31,481L46,500Z" fill="rgb(128,38,93)" stroke="rgb(128,38,93)" stroke-width="1.51"></path><path d="M-90,481L-31,481L-17,429Z" fill="rgb(128,38,93)" stroke="rgb(128,38,93)" stroke-width="1.51"></path><path d="M-117,419L-17,429L-36,368Z" fill="rgb(128,38,93)" stroke="rgb(128,38,93)" stroke-width="1.51"></path><path d="M-48,218L-124,270L-27,294Z" fill="rgb(197,132,132)" stroke="rgb(197,132,132)" stroke-width="1.51"></path><path d="M-125,133L-48,218L-20,133Z" fill="rgb(214,129,88)" stroke="rgb(214,129,88)" stroke-width="1.51"></path><path d="M618,70L617,-48L560,32Z" fill="rgb(139,45,95)" stroke="rgb(139,45,95)" stroke-width="1.51"></path><path d="M732,190L689,116L647,189Z" fill="rgb(164,135,154)" stroke="rgb(164,135,154)" stroke-width="1.51"></path><path d="M721,434L734,366L624,371Z" fill="rgb(53,62,153)" stroke="rgb(53,62,153)" stroke-width="1.51"></path><path d="M551,517L624,515L574,435Z" fill="rgb(53,63,154)" stroke="rgb(53,63,154)" stroke-width="1.51"></path><path d="M-108,221L-124,270L-48,218Z" fill="rgb(209,138,133)" stroke="rgb(209,138,133)" stroke-width="1.51"></path><path d="M-97,46L-125,133L-20,133Z" fill="rgb(208,88,61)" stroke="rgb(208,88,61)" stroke-width="1.51"></path><path d="M-108,221L-125,133L-124,270Z" fill="rgb(217,143,115)" stroke="rgb(217,143,115)" stroke-width="1.51"></path><path d="M22,-17L-43,-12L-23,56Z" fill="rgb(170,7,38)" stroke="rgb(170,7,38)" stroke-width="1.51"></path><path d="M24,-104L-43,-12L22,-17Z" fill="rgb(165,0,38)" stroke="rgb(165,0,38)" stroke-width="1.51"></path><path d="M697,30L617,-48L618,70Z" fill="rgb(138,44,94)" stroke="rgb(138,44,94)" stroke-width="1.51"></path><path d="M-124,270L-118,344L-27,294Z" fill="rgb(173,115,123)" stroke="rgb(173,115,123)" stroke-width="1.51"></path><path d="M692,258L732,190L647,189Z" fill="rgb(157,147,181)" stroke="rgb(157,147,181)" stroke-width="1.51"></path><path d="M689,116L697,30L618,70Z" fill="rgb(162,73,109)" stroke="rgb(162,73,109)" stroke-width="1.51"></path><path d="M734,366L732,190L692,258Z" fill="rgb(122,135,193)" stroke="rgb(122,135,193)" stroke-width="1.51"></path><path d="M-97,46L-20,133L-23,56Z" fill="rgb(204,64,52)" stroke="rgb(204,64,52)" stroke-width="1.51"></path><path d="M499,-78L559,-115L426,-80Z" fill="rgb(158,99,115)" stroke="rgb(158,99,115)" stroke-width="1.51"></path><path d="M268,-100L-24,-125L124,-102Z" fill="rgb(205,67,53)" stroke="rgb(205,67,53)" stroke-width="1.51"></path><path d="M617,-48L559,-115L538,-14Z" fill="rgb(135,58,99)" stroke="rgb(135,58,99)" stroke-width="1.51"></path><path d="M-24,-125L24,-104L124,-102Z" fill="rgb(182,21,39)" stroke="rgb(182,21,39)" stroke-width="1.51"></path><path d="M124,-102L24,-104L98,-14Z" fill="rgb(195,44,44)" stroke="rgb(195,44,44)" stroke-width="1.51"></path><path d="M-103,-14L-97,46L-43,-12Z" fill="rgb(169,5,38)" stroke="rgb(169,5,38)" stroke-width="1.51"></path><path d="M-43,-12L-97,46L-23,56Z" fill="rgb(183,23,39)" stroke="rgb(183,23,39)" stroke-width="1.51"></path><path d="M617,-48L633,-96L559,-115Z" fill="rgb(128,38,93)" stroke="rgb(128,38,93)" stroke-width="1.51"></path><path d="M732,190L697,30L689,116Z" fill="rgb(166,104,125)" stroke="rgb(166,104,125)" stroke-width="1.51"></path><path d="M721,434L624,371L617,429Z" fill="rgb(49,54,149)" stroke="rgb(49,54,149)" stroke-width="1.51"></path><path d="M-124,270L-117,419L-118,344Z" fill="rgb(151,88,111)" stroke="rgb(151,88,111)" stroke-width="1.51"></path><path d="M-118,344L-117,419L-36,368Z" fill="rgb(136,61,100)" stroke="rgb(136,61,100)" stroke-width="1.51"></path><path d="M-31,481L-90,481L46,500Z" fill="rgb(128,38,93)" stroke="rgb(128,38,93)" stroke-width="1.51"></path><path d="M-117,419L-90,481L-17,429Z" fill="rgb(128,38,93)" stroke="rgb(128,38,93)" stroke-width="1.51"></path><path d="M624,515L721,434L617,429Z" fill="rgb(49,54,149)" stroke="rgb(49,54,149)" stroke-width="1.51"></path><path d="M720,-92L633,-96L617,-48Z" fill="rgb(128,38,93)" stroke="rgb(128,38,93)" stroke-width="1.51"></path><path d="M-106,-110L-103,-14L-43,-12Z" fill="rgb(165,0,38)" stroke="rgb(165,0,38)" stroke-width="1.51"></path><path d="M-97,46L-103,-14L-125,133Z" fill="rgb(195,45,44)" stroke="rgb(195,45,44)" stroke-width="1.51"></path><path d="M24,-104L-24,-125L-43,-12Z" fill="rgb(165,0,38)" stroke="rgb(165,0,38)" stroke-width="1.51"></path><path d="M559,-115L-24,-125L268,-100Z" fill="rgb(216,135,98)" stroke="rgb(216,135,98)" stroke-width="1.51"></path><path d="M624,515L723,510L721,434Z" fill="rgb(49,54,149)" stroke="rgb(49,54,149)" stroke-width="1.51"></path><path d="M721,434L723,510L734,366Z" fill="rgb(49,54,149)" stroke="rgb(49,54,149)" stroke-width="1.51"></path><path d="M697,30L730,-33L617,-48Z" fill="rgb(128,38,93)" stroke="rgb(128,38,93)" stroke-width="1.51"></path><path d="M732,190L730,-33L697,30Z" fill="rgb(159,67,105)" stroke="rgb(159,67,105)" stroke-width="1.51"></path><path d="M734,366L730,-33L732,190Z" fill="rgb(164,139,159)" stroke="rgb(164,139,159)" stroke-width="1.51"></path><path d="M730,-33L720,-92L617,-48Z" fill="rgb(128,38,93)" stroke="rgb(128,38,93)" stroke-width="1.51"></path><path d="M633,-96L720,-92L559,-115Z" fill="rgb(128,38,93)" stroke="rgb(128,38,93)" stroke-width="1.51"></path><path d="M-24,-125L-106,-110L-43,-12Z" fill="rgb(165,0,38)" stroke="rgb(165,0,38)" stroke-width="1.51"></path><path d="M-103,-14L-106,-110L-125,133Z" fill="rgb(167,2,38)" stroke="rgb(167,2,38)" stroke-width="1.51"></path></svg>