<svg width="600" height="400" xmlns="http://www.w3.org/2000/svg"><path d="M264,219L198,272L243,280Z" fill="rgb(150,142,194)" stroke="rgb(150,142,194)" stroke-width="1.51"></path><path d="M264,219L203,184L198,272Z" fill="rgb(151,159,203)" stroke="rgb(151,159,203)" stroke-width="1.51"></path><path d="M198,272L196,330L243,280Z" fill="rgb(154,132,189)" stroke="rgb(154,132,189)" stroke-width="1.51"></path><path d="M264,219L261,148L203,184Z" fill="rgb(150,170,209)" stroke="rgb(150,170,209)" stroke-width="1.51"></path><path d="M355,255L344,191L264,219Z" fill="rgb(141,135,190)" stroke="rgb(141,135,190)" stroke-width="1.51"></path><path d="M196,330L268,348L243,280Z" fill="rgb(150,119,179)" stroke="rgb(150,119,179)" stroke-width="1.51"></path><path d="M203,184L111,273L198,272Z" fill="rgb(162,158,203)" stroke="rgb(162,158,203)" stroke-width="1.51"></path><path d="M198,272L111,273L196,330Z" fill="rgb(163,139,193)" stroke="rgb(163,139,193)" stroke-width="1.51"></path><path d="M261,148L187,125L203,184Z" fill="rgb(160,188,218)" stroke="rgb(160,188,218)" stroke-width="1.51"></path><path d="M203,184L93,195L111,273Z" fill="rgb(169,175,212)" stroke="rgb(169,175,212)" stroke-width="1.51"></path><path d="M264,219L344,191L261,148Z" fill="rgb(144,158,202)" stroke="rgb(144,158,202)" stroke-width="1.51"></path><path d="M355,255L264,219L243,280Z" fill="rgb(142,131,188)" stroke="rgb(142,131,188)" stroke-width="1.51"></path><path d="M331,326L355,255L243,280Z" fill="rgb(140,112,178)" stroke="rgb(140,112,178)" stroke-width="1.51"></path><path d="M268,348L331,326L243,280Z" fill="rgb(143,108,174)" stroke="rgb(143,108,174)" stroke-width="1.51"></path><path d="M117,117L93,195L203,184Z" fill="rgb(175,195,222)" stroke="rgb(175,195,222)" stroke-width="1.51"></path><path d="M187,125L117,117L203,184Z" fill="rgb(173,198,224)" stroke="rgb(173,198,224)" stroke-width="1.51"></path><path d="M344,191L358,126L261,148Z" fill="rgb(149,161,204)" stroke="rgb(149,161,204)" stroke-width="1.51"></path><path d="M261,148L272,37L187,125Z" fill="rgb(172,194,222)" stroke="rgb(172,194,222)" stroke-width="1.51"></path><path d="M187,125L195,27L117,117Z" fill="rgb(191,211,230)" stroke="rgb(191,211,230)" stroke-width="1.51"></path><path d="M437,143L358,126L344,191Z" fill="rgb(150,145,196)" stroke="rgb(150,145,196)" stroke-width="1.51"></path><path d="M355,255L404,223L344,191Z" fill="rgb(141,121,183)" stroke="rgb(141,121,183)" stroke-width="1.51"></path><path d="M406,264L404,223L355,255Z" fill="rgb(140,105,175)" stroke="rgb(140,105,175)" stroke-width="1.51"></path><path d="M111,273L93,361L196,330Z" fill="rgb(170,134,188)" stroke="rgb(170,134,188)" stroke-width="1.51"></path><path d="M196,330L241,435L268,348Z" fill="rgb(137,103,157)" stroke="rgb(137,103,157)" stroke-width="1.51"></path><path d="M30,267L93,361L111,273Z" fill="rgb(182,150,200)" stroke="rgb(182,150,200)" stroke-width="1.51"></path><path d="M331,326L406,264L355,255Z" fill="rgb(139,97,172)" stroke="rgb(139,97,172)" stroke-width="1.51"></path><path d="M93,361L172,414L196,330Z" fill="rgb(153,116,166)" stroke="rgb(153,116,166)" stroke-width="1.51"></path><path d="M268,348L322,436L331,326Z" fill="rgb(128,85,149)" stroke="rgb(128,85,149)" stroke-width="1.51"></path><path d="M172,414L241,435L196,330Z" fill="rgb(130,103,149)" stroke="rgb(130,103,149)" stroke-width="1.51"></path><path d="M331,326L392,353L406,264Z" fill="rgb(138,81,162)" stroke="rgb(138,81,162)" stroke-width="1.51"></path><path d="M93,195L30,267L111,273Z" fill="rgb(182,172,211)" stroke="rgb(182,172,211)" stroke-width="1.51"></path><path d="M20,185L30,267L93,195Z" fill="rgb(186,188,219)" stroke="rgb(186,188,219)" stroke-width="1.51"></path><path d="M322,436L392,353L331,326Z" fill="rgb(126,72,142)" stroke="rgb(126,72,142)" stroke-width="1.51"></path><path d="M358,126L272,37L261,148Z" fill="rgb(165,180,214)" stroke="rgb(165,180,214)" stroke-width="1.51"></path><path d="M21,128L20,185L93,195Z" fill="rgb(192,207,229)" stroke="rgb(192,207,229)" stroke-width="1.51"></path><path d="M272,37L195,27L187,125Z" fill="rgb(188,209,230)" stroke="rgb(188,209,230)" stroke-width="1.51"></path><path d="M117,117L21,128L93,195Z" fill="rgb(192,212,231)" stroke="rgb(192,212,231)" stroke-width="1.51"></path><path d="M241,435L322,436L268,348Z" fill="rgb(115,86,137)" stroke="rgb(115,86,137)" stroke-width="1.51"></path><path d="M93,361L129,435L172,414Z" fill="rgb(140,111,151)" stroke="rgb(140,111,151)" stroke-width="1.51"></path><path d="M198,492L249,481L241,435Z" fill="rgb(121,97,143)" stroke="rgb(121,97,143)" stroke-width="1.51"></path><path d="M241,435L249,481L322,436Z" fill="rgb(116,87,138)" stroke="rgb(116,87,138)" stroke-width="1.51"></path><path d="M41,443L129,435L93,361Z" fill="rgb(149,118,155)" stroke="rgb(149,118,155)" stroke-width="1.51"></path><path d="M358,126L336,33L272,37Z" fill="rgb(178,182,216)" stroke="rgb(178,182,216)" stroke-width="1.51"></path><path d="M404,223L437,143L344,191Z" fill="rgb(143,129,188)" stroke="rgb(143,129,188)" stroke-width="1.51"></path><path d="M502,182L437,143L404,223Z" fill="rgb(144,116,181)" stroke="rgb(144,116,181)" stroke-width="1.51"></path><path d="M461,275L404,223L406,264Z" fill="rgb(139,93,169)" stroke="rgb(139,93,169)" stroke-width="1.51"></path><path d="M239,-80L164,-14L195,27Z" fill="rgb(208,224,237)" stroke="rgb(208,224,237)" stroke-width="1.51"></path><path d="M402,37L336,33L358,126Z" fill="rgb(178,169,210)" stroke="rgb(178,169,210)" stroke-width="1.51"></path><path d="M22,59L21,128L117,117Z" fill="rgb(211,225,238)" stroke="rgb(211,225,238)" stroke-width="1.51"></path><path d="M466,343L461,275L406,264Z" fill="rgb(137,69,159)" stroke="rgb(137,69,159)" stroke-width="1.51"></path><path d="M466,343L406,264L392,353Z" fill="rgb(136,66,154)" stroke="rgb(136,66,154)" stroke-width="1.51"></path><path d="M195,27L114,29L117,117Z" fill="rgb(207,223,236)" stroke="rgb(207,223,236)" stroke-width="1.51"></path><path d="M198,492L241,435L172,414Z" fill="rgb(126,101,145)" stroke="rgb(126,101,145)" stroke-width="1.51"></path><path d="M-21,182L30,267L20,185Z" fill="rgb(192,194,222)" stroke="rgb(192,194,222)" stroke-width="1.51"></path><path d="M-14,362L12,365L30,267Z" fill="rgb(191,146,193)" stroke="rgb(191,146,193)" stroke-width="1.51"></path><path d="M30,267L12,365L93,361Z" fill="rgb(186,142,191)" stroke="rgb(186,142,191)" stroke-width="1.51"></path><path d="M107,489L198,492L129,435Z" fill="rgb(138,109,150)" stroke="rgb(138,109,150)" stroke-width="1.51"></path><path d="M129,435L198,492L172,414Z" fill="rgb(133,106,148)" stroke="rgb(133,106,148)" stroke-width="1.51"></path><path d="M322,436L395,430L392,353Z" fill="rgb(109,60,125)" stroke="rgb(109,60,125)" stroke-width="1.51"></path><path d="M402,523L395,430L322,436Z" fill="rgb(109,58,125)" stroke="rgb(109,58,125)" stroke-width="1.51"></path><path d="M21,128L-21,182L20,185Z" fill="rgb(199,213,232)" stroke="rgb(199,213,232)" stroke-width="1.51"></path><path d="M395,430L466,343L392,353Z" fill="rgb(121,51,132)" stroke="rgb(121,51,132)" stroke-width="1.51"></path><path d="M195,27L164,-14L114,29Z" fill="rgb(215,228,239)" stroke="rgb(215,228,239)" stroke-width="1.51"></path><path d="M283,-23L195,27L272,37Z" fill="rgb(197,211,231)" stroke="rgb(197,211,231)" stroke-width="1.51"></path><path d="M437,143L402,37L358,126Z" fill="rgb(166,151,200)" stroke="rgb(166,151,200)" stroke-width="1.51"></path><path d="M336,33L283,-23L272,37Z" fill="rgb(191,198,224)" stroke="rgb(191,198,224)" stroke-width="1.51"></path><path d="M354,-6L283,-23L336,33Z" fill="rgb(193,192,222)" stroke="rgb(193,192,222)" stroke-width="1.51"></path><path d="M-45,291L-14,362L30,267Z" fill="rgb(193,155,203)" stroke="rgb(193,155,203)" stroke-width="1.51"></path><path d="M12,365L41,443L93,361Z" fill="rgb(161,125,163)" stroke="rgb(161,125,163)" stroke-width="1.51"></path><path d="M114,29L22,59L117,117Z" fill="rgb(216,230,241)" stroke="rgb(216,230,241)" stroke-width="1.51"></path><path d="M21,128L-32,118L-21,182Z" fill="rgb(205,221,236)" stroke="rgb(205,221,236)" stroke-width="1.51"></path><path d="M39,-43L22,59L114,29Z" fill="rgb(235,243,248)" stroke="rgb(235,243,248)" stroke-width="1.51"></path><path d="M-55,416L41,443L12,365Z" fill="rgb(162,126,160)" stroke="rgb(162,126,160)" stroke-width="1.51"></path><path d="M41,443L107,489L129,435Z" fill="rgb(148,117,154)" stroke="rgb(148,117,154)" stroke-width="1.51"></path><path d="M-21,182L-45,291L30,267Z" fill="rgb(194,179,215)" stroke="rgb(194,179,215)" stroke-width="1.51"></path><path d="M402,37L354,-6L336,33Z" fill="rgb(189,177,214)" stroke="rgb(189,177,214)" stroke-width="1.51"></path><path d="M461,275L502,182L404,223Z" fill="rgb(140,96,170)" stroke="rgb(140,96,170)" stroke-width="1.51"></path><path d="M437,143L474,53L402,37Z" fill="rgb(174,147,198)" stroke="rgb(174,147,198)" stroke-width="1.51"></path><path d="M557,285L502,182L461,275Z" fill="rgb(137,75,155)" stroke="rgb(137,75,155)" stroke-width="1.51"></path><path d="M-21,182L-94,255L-45,291Z" fill="rgb(194,181,216)" stroke="rgb(194,181,216)" stroke-width="1.51"></path><path d="M22,59L-32,118L21,128Z" fill="rgb(218,230,241)" stroke="rgb(218,230,241)" stroke-width="1.51"></path><path d="M249,481L314,524L322,436Z" fill="rgb(112,82,135)" stroke="rgb(112,82,135)" stroke-width="1.51"></path><path d="M198,492L314,524L249,481Z" fill="rgb(118,91,140)" stroke="rgb(118,91,140)" stroke-width="1.51"></path><path d="M107,489L314,524L198,492Z" fill="rgb(125,101,145)" stroke="rgb(125,101,145)" stroke-width="1.51"></path><path d="M402,37L397,-38L354,-6Z" fill="rgb(194,175,214)" stroke="rgb(194,175,214)" stroke-width="1.51"></path><path d="M502,182L500,106L437,143Z" fill="rgb(153,123,182)" stroke="rgb(153,123,182)" stroke-width="1.51"></path><path d="M22,59L-45,25L-32,118Z" fill="rgb(230,239,246)" stroke="rgb(230,239,246)" stroke-width="1.51"></path><path d="M164,-14L101,-40L114,29Z" fill="rgb(224,235,243)" stroke="rgb(224,235,243)" stroke-width="1.51"></path><path d="M193,-108L101,-40L164,-14Z" fill="rgb(219,231,241)" stroke="rgb(219,231,241)" stroke-width="1.51"></path><path d="M500,106L474,53L437,143Z" fill="rgb(167,134,189)" stroke="rgb(167,134,189)" stroke-width="1.51"></path><path d="M107,489L-42,509L314,524Z" fill="rgb(141,112,151)" stroke="rgb(141,112,151)" stroke-width="1.51"></path><path d="M41,443L27,483L107,489Z" fill="rgb(154,121,157)" stroke="rgb(154,121,157)" stroke-width="1.51"></path><path d="M-55,416L27,483L41,443Z" fill="rgb(162,126,160)" stroke="rgb(162,126,160)" stroke-width="1.51"></path><path d="M-55,416L12,365L-14,362Z" fill="rgb(173,132,170)" stroke="rgb(173,132,170)" stroke-width="1.51"></path><path d="M283,-23L239,-80L195,27Z" fill="rgb(201,216,233)" stroke="rgb(201,216,233)" stroke-width="1.51"></path><path d="M355,-77L239,-80L283,-23Z" fill="rgb(195,202,226)" stroke="rgb(195,202,226)" stroke-width="1.51"></path><path d="M355,-77L283,-23L354,-6Z" fill="rgb(194,191,221)" stroke="rgb(194,191,221)" stroke-width="1.51"></path><path d="M-105,336L-55,416L-14,362Z" fill="rgb(179,134,176)" stroke="rgb(179,134,176)" stroke-width="1.51"></path><path d="M-114,197L-94,255L-21,182Z" fill="rgb(194,194,223)" stroke="rgb(194,194,223)" stroke-width="1.51"></path><path d="M474,53L397,-38L402,37Z" fill="rgb(190,161,207)" stroke="rgb(190,161,207)" stroke-width="1.51"></path><path d="M466,343L557,285L461,275Z" fill="rgb(134,53,146)" stroke="rgb(134,53,146)" stroke-width="1.51"></path><path d="M395,430L503,423L466,343Z" fill="rgb(107,34,114)" stroke="rgb(107,34,114)" stroke-width="1.51"></path><path d="M505,506L503,423L395,430Z" fill="rgb(106,30,111)" stroke="rgb(106,30,111)" stroke-width="1.51"></path><path d="M-105,336L-14,362L-45,291Z" fill="rgb(192,147,194)" stroke="rgb(192,147,194)" stroke-width="1.51"></path><path d="M314,524L402,523L322,436Z" fill="rgb(111,67,128)" stroke="rgb(111,67,128)" stroke-width="1.51"></path><path d="M502,182L562,137L500,106Z" fill="rgb(153,114,172)" stroke="rgb(153,114,172)" stroke-width="1.51"></path><path d="M552,375L557,285L466,343Z" fill="rgb(131,26,129)" stroke="rgb(131,26,129)" stroke-width="1.51"></path><path d="M101,-40L39,-43L114,29Z" fill="rgb(234,242,247)" stroke="rgb(234,242,247)" stroke-width="1.51"></path><path d="M-106,139L-114,197L-21,182Z" fill="rgb(199,211,231)" stroke="rgb(199,211,231)" stroke-width="1.51"></path><path d="M101,-114L39,-43L101,-40Z" fill="rgb(235,243,248)" stroke="rgb(235,243,248)" stroke-width="1.51"></path><path d="M397,-38L355,-77L354,-6Z" fill="rgb(194,180,216)" stroke="rgb(194,180,216)" stroke-width="1.51"></path><path d="M-106,139L-21,182L-32,118Z" fill="rgb(204,221,236)" stroke="rgb(204,221,236)" stroke-width="1.51"></path><path d="M-94,255L-105,336L-45,291Z" fill="rgb(194,160,206)" stroke="rgb(194,160,206)" stroke-width="1.51"></path><path d="M-114,197L-105,336L-94,255Z" fill="rgb(194,172,212)" stroke="rgb(194,172,212)" stroke-width="1.51"></path><path d="M-20,-34L-45,25L22,59Z" fill="rgb(243,249,251)" stroke="rgb(243,249,251)" stroke-width="1.51"></path><path d="M-88,29L-106,139L-32,118Z" fill="rgb(221,232,242)" stroke="rgb(221,232,242)" stroke-width="1.51"></path><path d="M239,-80L193,-108L164,-14Z" fill="rgb(209,224,237)" stroke="rgb(209,224,237)" stroke-width="1.51"></path><path d="M355,-77L193,-108L239,-80Z" fill="rgb(198,210,230)" stroke="rgb(198,210,230)" stroke-width="1.51"></path><path d="M557,285L573,187L502,182Z" fill="rgb(131,81,150)" stroke="rgb(131,81,150)" stroke-width="1.51"></path><path d="M500,106L566,54L474,53Z" fill="rgb(174,131,183)" stroke="rgb(174,131,183)" stroke-width="1.51"></path><path d="M474,53L507,-27L397,-38Z" fill="rgb(193,155,203)" stroke="rgb(193,155,203)" stroke-width="1.51"></path><path d="M573,187L562,137L502,182Z" fill="rgb(138,101,159)" stroke="rgb(138,101,159)" stroke-width="1.51"></path><path d="M503,423L552,375L466,343Z" fill="rgb(114,18,113)" stroke="rgb(114,18,113)" stroke-width="1.51"></path><path d="M557,285L628,252L573,187Z" fill="rgb(114,64,131)" stroke="rgb(114,64,131)" stroke-width="1.51"></path><path d="M586,420L552,375L503,423Z" fill="rgb(95,3,92)" stroke="rgb(95,3,92)" stroke-width="1.51"></path><path d="M-105,336L-93,421L-55,416Z" fill="rgb(167,129,165)" stroke="rgb(167,129,165)" stroke-width="1.51"></path><path d="M-55,416L-42,509L27,483Z" fill="rgb(162,126,160)" stroke="rgb(162,126,160)" stroke-width="1.51"></path><path d="M-45,25L-88,29L-32,118Z" fill="rgb(233,242,247)" stroke="rgb(233,242,247)" stroke-width="1.51"></path><path d="M39,-43L-20,-34L22,59Z" fill="rgb(245,250,252)" stroke="rgb(245,250,252)" stroke-width="1.51"></path><path d="M25,-99L-20,-34L39,-43Z" fill="rgb(245,250,252)" stroke="rgb(245,250,252)" stroke-width="1.51"></path><path d="M193,-108L101,-114L101,-40Z" fill="rgb(223,234,243)" stroke="rgb(223,234,243)" stroke-width="1.51"></path><path d="M-20,-34L-88,29L-45,25Z" fill="rgb(246,251,253)" stroke="rgb(246,251,253)" stroke-width="1.51"></path><path d="M-93,421L-42,509L-55,416Z" fill="rgb(162,126,160)" stroke="rgb(162,126,160)" stroke-width="1.51"></path><path d="M27,483L-42,509L107,489Z" fill="rgb(158,123,158)" stroke="rgb(158,123,158)" stroke-width="1.51"></path><path d="M402,523L505,506L395,430Z" fill="rgb(107,41,117)" stroke="rgb(107,41,117)" stroke-width="1.51"></path><path d="M562,137L566,54L500,106Z" fill="rgb(159,118,170)" stroke="rgb(159,118,170)" stroke-width="1.51"></path><path d="M397,-38L436,-115L355,-77Z" fill="rgb(194,172,212)" stroke="rgb(194,172,212)" stroke-width="1.51"></path><path d="M624,114L566,54L562,137Z" fill="rgb(142,111,155)" stroke="rgb(142,111,155)" stroke-width="1.51"></path><path d="M566,54L507,-27L474,53Z" fill="rgb(186,138,187)" stroke="rgb(186,138,187)" stroke-width="1.51"></path><path d="M-20,-34L-138,-6L-88,29Z" fill="rgb(247,252,253)" stroke="rgb(247,252,253)" stroke-width="1.51"></path><path d="M101,-114L25,-99L39,-43Z" fill="rgb(238,246,249)" stroke="rgb(238,246,249)" stroke-width="1.51"></path><path d="M573,187L624,114L562,137Z" fill="rgb(128,102,149)" stroke="rgb(128,102,149)" stroke-width="1.51"></path><path d="M656,335L628,252L557,285Z" fill="rgb(107,39,117)" stroke="rgb(107,39,117)" stroke-width="1.51"></path><path d="M656,335L557,285L552,375Z" fill="rgb(108,20,108)" stroke="rgb(108,20,108)" stroke-width="1.51"></path><path d="M573,505L586,420L503,423Z" fill="rgb(92,3,90)" stroke="rgb(92,3,90)" stroke-width="1.51"></path><path d="M355,-77L436,-115L193,-108Z" fill="rgb(194,191,221)" stroke="rgb(194,191,221)" stroke-width="1.51"></path><path d="M193,-108L436,-115L101,-114Z" fill="rgb(201,215,233)" stroke="rgb(201,215,233)" stroke-width="1.51"></path><path d="M507,-27L465,-91L397,-38Z" fill="rgb(193,156,203)" stroke="rgb(193,156,203)" stroke-width="1.51"></path><path d="M557,-90L465,-91L507,-27Z" fill="rgb(192,144,191)" stroke="rgb(192,144,191)" stroke-width="1.51"></path><path d="M465,-91L436,-115L397,-38Z" fill="rgb(193,162,207)" stroke="rgb(193,162,207)" stroke-width="1.51"></path><path d="M566,54L554,-34L507,-27Z" fill="rgb(185,137,181)" stroke="rgb(185,137,181)" stroke-width="1.51"></path><path d="M645,215L624,114L573,187Z" fill="rgb(117,90,139)" stroke="rgb(117,90,139)" stroke-width="1.51"></path><path d="M628,252L645,215L573,187Z" fill="rgb(111,72,130)" stroke="rgb(111,72,130)" stroke-width="1.51"></path><path d="M727,204L645,215L725,299Z" fill="rgb(110,63,126)" stroke="rgb(110,63,126)" stroke-width="1.51"></path><path d="M-42,509L-96,519L314,524Z" fill="rgb(154,121,157)" stroke="rgb(154,121,157)" stroke-width="1.51"></path><path d="M-93,421L-96,519L-42,509Z" fill="rgb(162,126,160)" stroke="rgb(162,126,160)" stroke-width="1.51"></path><path d="M-105,336L-96,519L-93,421Z" fill="rgb(162,126,160)" stroke="rgb(162,126,160)" stroke-width="1.51"></path><path d="M-138,-6L-96,519L-105,336Z" fill="rgb(194,164,208)" stroke="rgb(194,164,208)" stroke-width="1.51"></path><path d="M645,-24L554,-34L566,54Z" fill="rgb(167,128,164)" stroke="rgb(167,128,164)" stroke-width="1.51"></path><path d="M465,-91L557,-90L436,-115Z" fill="rgb(192,149,196)" stroke="rgb(192,149,196)" stroke-width="1.51"></path><path d="M586,420L656,335L552,375Z" fill="rgb(89,2,86)" stroke="rgb(89,2,86)" stroke-width="1.51"></path><path d="M505,506L573,505L503,423Z" fill="rgb(102,5,98)" stroke="rgb(102,5,98)" stroke-width="1.51"></path><path d="M402,523L573,505L505,506Z" fill="rgb(104,21,106)" stroke="rgb(104,21,106)" stroke-width="1.51"></path><path d="M629,433L656,335L586,420Z" fill="rgb(79,0,77)" stroke="rgb(79,0,77)" stroke-width="1.51"></path><path d="M-100,-114L-138,-6L-20,-34Z" fill="rgb(247,252,253)" stroke="rgb(247,252,253)" stroke-width="1.51"></path><path d="M-88,29L-138,-6L-106,139Z" fill="rgb(234,243,248)" stroke="rgb(234,243,248)" stroke-width="1.51"></path><path d="M-106,139L-138,-6L-114,197Z" fill="rgb(216,229,240)" stroke="rgb(216,229,240)" stroke-width="1.51"></path><path d="M-114,197L-138,-6L-105,336Z" fill="rgb(198,209,230)" stroke="rgb(198,209,230)" stroke-width="1.51"></path><path d="M25,-99L-28,-121L-20,-34Z" fill="rgb(247,252,253)" stroke="rgb(247,252,253)" stroke-width="1.51"></path><path d="M101,-114L-28,-121L25,-99Z" fill="rgb(242,248,251)" stroke="rgb(242,248,251)" stroke-width="1.51"></path><path d="M436,-115L-28,-121L101,-114Z" fill="rgb(215,228,240)" stroke="rgb(215,228,240)" stroke-width="1.51"></path><path d="M636,485L629,433L586,420Z" fill="rgb(77,0,75)" stroke="rgb(77,0,75)" stroke-width="1.51"></path><path d="M645,-24L557,-90L554,-34Z" fill="rgb(168,129,165)" stroke="rgb(168,129,165)" stroke-width="1.51"></path><path d="M554,-34L557,-90L507,-27Z" fill="rgb(186,138,182)" stroke="rgb(186,138,182)" stroke-width="1.51"></path><path d="M624,114L658,49L566,54Z" fill="rgb(145,114,153)" stroke="rgb(145,114,153)" stroke-width="1.51"></path><path d="M729,123L658,49L624,114Z" fill="rgb(138,109,150)" stroke="rgb(138,109,150)" stroke-width="1.51"></path><path d="M729,123L624,114L645,215Z" fill="rgb(122,98,143)" stroke="rgb(122,98,143)" stroke-width="1.51"></path><path d="M573,505L636,485L586,420Z" fill="rgb(77,0,75)" stroke="rgb(77,0,75)" stroke-width="1.51"></path><path d="M629,433L710,360L656,335Z" fill="rgb(89,2,86)" stroke="rgb(89,2,86)" stroke-width="1.51"></path><path d="M-28,-121L-100,-114L-20,-34Z" fill="rgb(247,252,253)" stroke="rgb(247,252,253)" stroke-width="1.51"></path><path d="M658,49L645,-24L566,54Z" fill="rgb(157,123,158)" stroke="rgb(157,123,158)" stroke-width="1.51"></path><path d="M724,401L710,360L629,433Z" fill="rgb(78,0,76)" stroke="rgb(78,0,76)" stroke-width="1.51"></path><path d="M725,299L645,215L628,252Z" fill="rgb(109,56,123)" stroke="rgb(109,56,123)" stroke-width="1.51"></path><path d="M725,299L628,252L656,335Z" fill="rgb(107,37,116)" stroke="rgb(107,37,116)" stroke-width="1.51"></path><path d="M658,49L721,31L645,-24Z" fill="rgb(158,124,159)" stroke="rgb(158,124,159)" stroke-width="1.51"></path><path d="M710,360L725,299L656,335Z" fill="rgb(104,19,105)" stroke="rgb(104,19,105)" stroke-width="1.51"></path><path d="M724,401L729,123L727,204Z" fill="rgb(110,61,126)" stroke="rgb(110,61,126)" stroke-width="1.51"></path><path d="M727,204L729,123L645,215Z" fill="rgb(116,87,138)" stroke="rgb(116,87,138)" stroke-width="1.51"></path><path d="M710,360L724,401L725,299Z" fill="rgb(100,5,98)" stroke="rgb(100,5,98)" stroke-width="1.51"></path><path d="M725,299L724,401L727,204Z" fill="rgb(106,34,114)" stroke="rgb(106,34,114)" stroke-width="1.51"></path><path d="M720,498L724,401L629,433Z" fill="rgb(77,0,75)" stroke="rgb(77,0,75)" stroke-width="1.51"></path><path d="M729,123L721,31L658,49Z" fill="rgb(146,115,153)" stroke="rgb(146,115,153)" stroke-width="1.51"></path><path d="M645,-24L644,-110L557,-90Z" fill="rgb(162,126,160)" stroke="rgb(162,126,160)" stroke-width="1.51"></path><path d="M710,-115L644,-110L645,-24Z" fill="rgb(162,126,160)" stroke="rgb(162,126,160)" stroke-width="1.51"></path><path d="M557,-90L644,-110L436,-115Z" fill="rgb(183,136,180)" stroke="rgb(183,136,180)" stroke-width="1.51"></path><path d="M636,485L720,498L629,433Z" fill="rgb(77,0,75)" stroke="rgb(77,0,75)" stroke-width="1.51"></path><path d="M573,505L720,498L636,485Z" fill="rgb(77,0,75)" stroke="rgb(77,0,75)" stroke-width="1.51"></path><path d="M402,523L720,498L573,505Z" fill="rgb(89,2,86)" stroke="rgb(89,2,86)" stroke-width="1.51"></path><path d="M721,31L730,-36L645,-24Z" fill="rgb(162,126,160)" stroke="rgb(162,126,160)" stroke-width="1.51"></path><path d="M729,123L730,-36L721,31Z" fill="rgb(154,121,157)" stroke="rgb(154,121,157)" stroke-width="1.51"></path><path d="M730,-36L710,-115L645,-24Z" fill="rgb(162,126,160)" stroke="rgb(162,126,160)" stroke-width="1.51"></path><path d="M644,-110L710,-115L436,-115Z" fill="rgb(163,127,161)" stroke="rgb(163,127,161)" stroke-width="1.51"></path><path d="M436,-115L710,-115L-28,-121Z" fill="rgb(194,178,215)" stroke="rgb(194,178,215)" stroke-width="1.51"></path></svg>