<svg width="600" height="400" xmlns="http://www.w3.org/2000/svg"><path d="M334,196L408,132L344,123Z" fill="rgb(219,220,218)" stroke="rgb(219,220,218)" stroke-width="1.51"></path><path d="M334,196L412,200L408,132Z" fill="rgb(217,229,214)" stroke="rgb(217,229,214)" stroke-width="1.51"></path><path d="M334,196L406,271L412,200Z" fill="rgb(214,238,208)" stroke="rgb(214,238,208)" stroke-width="1.51"></path><path d="M334,196L340,278L406,271Z" fill="rgb(212,238,205)" stroke="rgb(212,238,205)" stroke-width="1.51"></path><path d="M408,132L412,49L344,123Z" fill="rgb(186,185,189)" stroke="rgb(186,185,189)" stroke-width="1.51"></path><path d="M412,200L482,122L408,132Z" fill="rgb(188,206,186)" stroke="rgb(188,206,186)" stroke-width="1.51"></path><path d="M491,200L482,122L412,200Z" fill="rgb(178,207,176)" stroke="rgb(178,207,176)" stroke-width="1.51"></path><path d="M255,121L256,198L334,196Z" fill="rgb(239,229,239)" stroke="rgb(239,229,239)" stroke-width="1.51"></path><path d="M334,196L259,280L340,278Z" fill="rgb(223,240,218)" stroke="rgb(223,240,218)" stroke-width="1.51"></path><path d="M482,122L412,49L408,132Z" fill="rgb(166,175,169)" stroke="rgb(166,175,169)" stroke-width="1.51"></path><path d="M344,123L255,121L334,196Z" fill="rgb(231,221,232)" stroke="rgb(231,221,232)" stroke-width="1.51"></path><path d="M269,47L255,121L344,123Z" fill="rgb(207,187,215)" stroke="rgb(207,187,215)" stroke-width="1.51"></path><path d="M493,274L491,200L412,200Z" fill="rgb(170,214,168)" stroke="rgb(170,214,168)" stroke-width="1.51"></path><path d="M412,49L332,42L344,123Z" fill="rgb(183,167,186)" stroke="rgb(183,167,186)" stroke-width="1.51"></path><path d="M482,122L479,56L412,49Z" fill="rgb(141,150,145)" stroke="rgb(141,150,145)" stroke-width="1.51"></path><path d="M556,56L479,56L482,122Z" fill="rgb(118,133,125)" stroke="rgb(118,133,125)" stroke-width="1.51"></path><path d="M332,42L269,47L344,123Z" fill="rgb(193,169,200)" stroke="rgb(193,169,200)" stroke-width="1.51"></path><path d="M256,198L259,280L334,196Z" fill="rgb(236,240,234)" stroke="rgb(236,240,234)" stroke-width="1.51"></path><path d="M404,345L493,274L406,271Z" fill="rgb(142,204,139)" stroke="rgb(142,204,139)" stroke-width="1.51"></path><path d="M406,271L493,274L412,200Z" fill="rgb(176,221,171)" stroke="rgb(176,221,171)" stroke-width="1.51"></path><path d="M256,198L191,195L259,280Z" fill="rgb(229,226,228)" stroke="rgb(229,226,228)" stroke-width="1.51"></path><path d="M255,121L191,195L256,198Z" fill="rgb(232,214,233)" stroke="rgb(232,214,233)" stroke-width="1.51"></path><path d="M186,119L191,195L255,121Z" fill="rgb(215,191,221)" stroke="rgb(215,191,221)" stroke-width="1.51"></path><path d="M340,278L404,345L406,271Z" fill="rgb(165,216,161)" stroke="rgb(165,216,161)" stroke-width="1.51"></path><path d="M331,346L404,345L340,278Z" fill="rgb(154,205,152)" stroke="rgb(154,205,152)" stroke-width="1.51"></path><path d="M332,42L342,-18L269,47Z" fill="rgb(169,134,172)" stroke="rgb(169,134,172)" stroke-width="1.51"></path><path d="M412,49L342,-18L332,42Z" fill="rgb(158,132,158)" stroke="rgb(158,132,158)" stroke-width="1.51"></path><path d="M411,-29L342,-18L412,49Z" fill="rgb(132,116,131)" stroke="rgb(132,116,131)" stroke-width="1.51"></path><path d="M259,280L331,346L340,278Z" fill="rgb(185,221,183)" stroke="rgb(185,221,183)" stroke-width="1.51"></path><path d="M188,54L186,119L255,121Z" fill="rgb(191,162,203)" stroke="rgb(191,162,203)" stroke-width="1.51"></path><path d="M188,54L255,121L269,47Z" fill="rgb(188,155,198)" stroke="rgb(188,155,198)" stroke-width="1.51"></path><path d="M565,192L561,127L491,200Z" fill="rgb(139,172,143)" stroke="rgb(139,172,143)" stroke-width="1.51"></path><path d="M491,200L561,127L482,122Z" fill="rgb(145,174,149)" stroke="rgb(145,174,149)" stroke-width="1.51"></path><path d="M493,274L565,192L491,200Z" fill="rgb(145,192,146)" stroke="rgb(145,192,146)" stroke-width="1.51"></path><path d="M490,-21L411,-29L412,49Z" fill="rgb(111,106,109)" stroke="rgb(111,106,109)" stroke-width="1.51"></path><path d="M490,-21L412,49L479,56Z" fill="rgb(119,114,118)" stroke="rgb(119,114,118)" stroke-width="1.51"></path><path d="M254,-27L188,54L269,47Z" fill="rgb(163,118,169)" stroke="rgb(163,118,169)" stroke-width="1.51"></path><path d="M561,127L556,56L482,122Z" fill="rgb(116,136,124)" stroke="rgb(116,136,124)" stroke-width="1.51"></path><path d="M259,280L266,351L331,346Z" fill="rgb(165,203,165)" stroke="rgb(165,203,165)" stroke-width="1.51"></path><path d="M331,346L404,426L404,345Z" fill="rgb(113,166,117)" stroke="rgb(113,166,117)" stroke-width="1.51"></path><path d="M183,357L266,351L259,280Z" fill="rgb(157,186,157)" stroke="rgb(157,186,157)" stroke-width="1.51"></path><path d="M556,56L490,-21L479,56Z" fill="rgb(98,97,100)" stroke="rgb(98,97,100)" stroke-width="1.51"></path><path d="M404,345L492,348L493,274Z" fill="rgb(100,179,104)" stroke="rgb(100,179,104)" stroke-width="1.51"></path><path d="M493,274L565,283L565,192Z" fill="rgb(121,176,124)" stroke="rgb(121,176,124)" stroke-width="1.51"></path><path d="M483,418L492,348L404,345Z" fill="rgb(72,147,81)" stroke="rgb(72,147,81)" stroke-width="1.51"></path><path d="M120,120L191,195L186,119Z" fill="rgb(200,173,210)" stroke="rgb(200,173,210)" stroke-width="1.51"></path><path d="M117,202L180,279L191,195Z" fill="rgb(206,196,211)" stroke="rgb(206,196,211)" stroke-width="1.51"></path><path d="M191,195L180,279L259,280Z" fill="rgb(209,211,208)" stroke="rgb(209,211,208)" stroke-width="1.51"></path><path d="M343,-98L254,-27L342,-18Z" fill="rgb(152,121,154)" stroke="rgb(152,121,154)" stroke-width="1.51"></path><path d="M342,-18L254,-27L269,47Z" fill="rgb(153,119,157)" stroke="rgb(153,119,157)" stroke-width="1.51"></path><path d="M492,348L565,283L493,274Z" fill="rgb(91,168,98)" stroke="rgb(91,168,98)" stroke-width="1.51"></path><path d="M118,47L120,120L188,54Z" fill="rgb(158,116,174)" stroke="rgb(158,116,174)" stroke-width="1.51"></path><path d="M188,54L120,120L186,119Z" fill="rgb(177,143,192)" stroke="rgb(177,143,192)" stroke-width="1.51"></path><path d="M120,120L117,202L191,195Z" fill="rgb(202,177,210)" stroke="rgb(202,177,210)" stroke-width="1.51"></path><path d="M254,-27L189,-22L188,54Z" fill="rgb(138,96,146)" stroke="rgb(138,96,146)" stroke-width="1.51"></path><path d="M554,419L558,348L492,348Z" fill="rgb(27,114,53)" stroke="rgb(27,114,53)" stroke-width="1.51"></path><path d="M492,348L558,348L565,283Z" fill="rgb(57,143,73)" stroke="rgb(57,143,73)" stroke-width="1.51"></path><path d="M411,-29L343,-98L342,-18Z" fill="rgb(140,118,139)" stroke="rgb(140,118,139)" stroke-width="1.51"></path><path d="M254,-27L183,-98L189,-22Z" fill="rgb(137,94,144)" stroke="rgb(137,94,144)" stroke-width="1.51"></path><path d="M415,-101L343,-98L411,-29Z" fill="rgb(131,115,130)" stroke="rgb(131,115,130)" stroke-width="1.51"></path><path d="M333,428L404,426L331,346Z" fill="rgb(111,150,114)" stroke="rgb(111,150,114)" stroke-width="1.51"></path><path d="M561,127L635,127L556,56Z" fill="rgb(101,114,110)" stroke="rgb(101,114,110)" stroke-width="1.51"></path><path d="M556,56L563,-28L490,-21Z" fill="rgb(68,71,71)" stroke="rgb(68,71,71)" stroke-width="1.51"></path><path d="M565,192L635,127L561,127Z" fill="rgb(119,138,124)" stroke="rgb(119,138,124)" stroke-width="1.51"></path><path d="M639,199L635,127L565,192Z" fill="rgb(121,143,125)" stroke="rgb(121,143,125)" stroke-width="1.51"></path><path d="M639,199L565,192L638,272Z" fill="rgb(117,152,121)" stroke="rgb(117,152,121)" stroke-width="1.51"></path><path d="M266,351L333,428L331,346Z" fill="rgb(134,171,137)" stroke="rgb(134,171,137)" stroke-width="1.51"></path><path d="M255,425L333,428L266,351Z" fill="rgb(124,150,127)" stroke="rgb(124,150,127)" stroke-width="1.51"></path><path d="M483,-95L415,-101L411,-29Z" fill="rgb(112,106,110)" stroke="rgb(112,106,110)" stroke-width="1.51"></path><path d="M483,-95L411,-29L490,-21Z" fill="rgb(99,98,98)" stroke="rgb(99,98,98)" stroke-width="1.51"></path><path d="M180,279L183,357L259,280Z" fill="rgb(169,189,169)" stroke="rgb(169,189,169)" stroke-width="1.51"></path><path d="M118,354L183,357L180,279Z" fill="rgb(136,156,141)" stroke="rgb(136,156,141)" stroke-width="1.51"></path><path d="M638,272L565,192L565,283Z" fill="rgb(108,153,110)" stroke="rgb(108,153,110)" stroke-width="1.51"></path><path d="M641,55L563,-28L556,56Z" fill="rgb(70,62,74)" stroke="rgb(70,62,74)" stroke-width="1.51"></path><path d="M117,202L117,271L180,279Z" fill="rgb(186,181,190)" stroke="rgb(186,181,190)" stroke-width="1.51"></path><path d="M404,426L483,418L404,345Z" fill="rgb(81,139,86)" stroke="rgb(81,139,86)" stroke-width="1.51"></path><path d="M120,120L37,193L117,202Z" fill="rgb(187,150,194)" stroke="rgb(187,150,194)" stroke-width="1.51"></path><path d="M189,-22L118,47L188,54Z" fill="rgb(142,91,154)" stroke="rgb(142,91,154)" stroke-width="1.51"></path><path d="M563,-28L483,-95L490,-21Z" fill="rgb(76,79,78)" stroke="rgb(76,79,78)" stroke-width="1.51"></path><path d="M183,357L255,425L266,351Z" fill="rgb(128,152,131)" stroke="rgb(128,152,131)" stroke-width="1.51"></path><path d="M189,-22L105,-18L118,47Z" fill="rgb(115,67,128)" stroke="rgb(115,67,128)" stroke-width="1.51"></path><path d="M343,-98L255,-98L254,-27Z" fill="rgb(152,117,156)" stroke="rgb(152,117,156)" stroke-width="1.51"></path><path d="M110,-107L255,-98L343,-98Z" fill="rgb(145,104,149)" stroke="rgb(145,104,149)" stroke-width="1.51"></path><path d="M633,356L638,272L565,283Z" fill="rgb(63,127,72)" stroke="rgb(63,127,72)" stroke-width="1.51"></path><path d="M707,201L635,127L639,199Z" fill="rgb(121,144,125)" stroke="rgb(121,144,125)" stroke-width="1.51"></path><path d="M706,116L641,55L635,127Z" fill="rgb(95,104,104)" stroke="rgb(95,104,104)" stroke-width="1.51"></path><path d="M635,127L641,55L556,56Z" fill="rgb(86,92,96)" stroke="rgb(86,92,96)" stroke-width="1.51"></path><path d="M484,496L554,419L483,418Z" fill="rgb(33,107,52)" stroke="rgb(33,107,52)" stroke-width="1.51"></path><path d="M483,418L554,419L492,348Z" fill="rgb(33,109,52)" stroke="rgb(33,109,52)" stroke-width="1.51"></path><path d="M558,348L633,356L565,283Z" fill="rgb(43,120,60)" stroke="rgb(43,120,60)" stroke-width="1.51"></path><path d="M183,357L195,425L255,425Z" fill="rgb(112,128,118)" stroke="rgb(112,128,118)" stroke-width="1.51"></path><path d="M334,505L404,426L333,428Z" fill="rgb(111,150,114)" stroke="rgb(111,150,114)" stroke-width="1.51"></path><path d="M110,432L195,425L183,357Z" fill="rgb(98,109,108)" stroke="rgb(98,109,108)" stroke-width="1.51"></path><path d="M117,271L118,354L180,279Z" fill="rgb(151,163,155)" stroke="rgb(151,163,155)" stroke-width="1.51"></path><path d="M183,-98L105,-18L189,-22Z" fill="rgb(121,75,132)" stroke="rgb(121,75,132)" stroke-width="1.51"></path><path d="M35,124L37,193L120,120Z" fill="rgb(170,121,178)" stroke="rgb(170,121,178)" stroke-width="1.51"></path><path d="M117,202L37,193L117,271Z" fill="rgb(185,159,189)" stroke="rgb(185,159,189)" stroke-width="1.51"></path><path d="M117,271L36,281L118,354Z" fill="rgb(138,138,140)" stroke="rgb(138,138,140)" stroke-width="1.51"></path><path d="M255,-98L183,-98L254,-27Z" fill="rgb(143,102,148)" stroke="rgb(143,102,148)" stroke-width="1.51"></path><path d="M110,-107L183,-98L255,-98Z" fill="rgb(129,85,139)" stroke="rgb(129,85,139)" stroke-width="1.51"></path><path d="M554,419L633,356L558,348Z" fill="rgb(12,92,40)" stroke="rgb(12,92,40)" stroke-width="1.51"></path><path d="M641,55L635,-28L563,-28Z" fill="rgb(49,44,53)" stroke="rgb(49,44,53)" stroke-width="1.51"></path><path d="M563,-28L568,-97L483,-95Z" fill="rgb(66,69,69)" stroke="rgb(66,69,69)" stroke-width="1.51"></path><path d="M635,-28L568,-97L563,-28Z" fill="rgb(52,48,56)" stroke="rgb(52,48,56)" stroke-width="1.51"></path><path d="M483,-95L568,-97L415,-101Z" fill="rgb(86,89,86)" stroke="rgb(86,89,86)" stroke-width="1.51"></path><path d="M35,124L120,120L41,46Z" fill="rgb(146,92,160)" stroke="rgb(146,92,160)" stroke-width="1.51"></path><path d="M707,271L707,201L638,272Z" fill="rgb(106,148,108)" stroke="rgb(106,148,108)" stroke-width="1.51"></path><path d="M638,272L707,201L639,199Z" fill="rgb(116,152,119)" stroke="rgb(116,152,119)" stroke-width="1.51"></path><path d="M641,55L711,-19L635,-28Z" fill="rgb(50,45,55)" stroke="rgb(50,45,55)" stroke-width="1.51"></path><path d="M41,46L120,120L118,47Z" fill="rgb(142,90,157)" stroke="rgb(142,90,157)" stroke-width="1.51"></path><path d="M707,201L706,116L635,127Z" fill="rgb(114,132,119)" stroke="rgb(114,132,119)" stroke-width="1.51"></path><path d="M334,505L333,428L268,499Z" fill="rgb(122,153,126)" stroke="rgb(122,153,126)" stroke-width="1.51"></path><path d="M334,505L417,501L404,426Z" fill="rgb(100,146,103)" stroke="rgb(100,146,103)" stroke-width="1.51"></path><path d="M404,426L417,501L483,418Z" fill="rgb(77,135,82)" stroke="rgb(77,135,82)" stroke-width="1.51"></path><path d="M268,499L333,428L255,425Z" fill="rgb(124,150,127)" stroke="rgb(124,150,127)" stroke-width="1.51"></path><path d="M36,-26L41,46L105,-18Z" fill="rgb(91,23,103)" stroke="rgb(91,23,103)" stroke-width="1.51"></path><path d="M105,-18L41,46L118,47Z" fill="rgb(116,52,129)" stroke="rgb(116,52,129)" stroke-width="1.51"></path><path d="M182,494L255,425L195,425Z" fill="rgb(112,128,118)" stroke="rgb(112,128,118)" stroke-width="1.51"></path><path d="M182,494L268,499L255,425Z" fill="rgb(118,136,122)" stroke="rgb(118,136,122)" stroke-width="1.51"></path><path d="M417,501L484,496L483,418Z" fill="rgb(59,126,69)" stroke="rgb(59,126,69)" stroke-width="1.51"></path><path d="M554,419L643,419L633,356Z" fill="rgb(0,69,27)" stroke="rgb(0,69,27)" stroke-width="1.51"></path><path d="M714,350L707,271L638,272Z" fill="rgb(69,131,77)" stroke="rgb(69,131,77)" stroke-width="1.51"></path><path d="M37,193L36,281L117,271Z" fill="rgb(168,141,167)" stroke="rgb(168,141,167)" stroke-width="1.51"></path><path d="M118,354L110,432L183,357Z" fill="rgb(100,112,109)" stroke="rgb(100,112,109)" stroke-width="1.51"></path><path d="M-38,202L36,281L37,193Z" fill="rgb(152,124,153)" stroke="rgb(152,124,153)" stroke-width="1.51"></path><path d="M635,-28L642,-102L568,-97Z" fill="rgb(49,44,53)" stroke="rgb(49,44,53)" stroke-width="1.51"></path><path d="M706,116L711,42L641,55Z" fill="rgb(83,86,92)" stroke="rgb(83,86,92)" stroke-width="1.51"></path><path d="M707,201L711,42L706,116Z" fill="rgb(104,117,112)" stroke="rgb(104,117,112)" stroke-width="1.51"></path><path d="M714,350L711,42L707,201Z" fill="rgb(125,153,129)" stroke="rgb(125,153,129)" stroke-width="1.51"></path><path d="M568,495L643,419L554,419Z" fill="rgb(2,73,29)" stroke="rgb(2,73,29)" stroke-width="1.51"></path><path d="M633,356L714,350L638,272Z" fill="rgb(42,115,57)" stroke="rgb(42,115,57)" stroke-width="1.51"></path><path d="M44,420L110,432L118,354Z" fill="rgb(80,78,87)" stroke="rgb(80,78,87)" stroke-width="1.51"></path><path d="M183,-98L110,-107L105,-18Z" fill="rgb(112,64,125)" stroke="rgb(112,64,125)" stroke-width="1.51"></path><path d="M415,-101L110,-107L343,-98Z" fill="rgb(153,119,156)" stroke="rgb(153,119,156)" stroke-width="1.51"></path><path d="M36,281L42,353L118,354Z" fill="rgb(112,110,114)" stroke="rgb(112,110,114)" stroke-width="1.51"></path><path d="M707,-93L642,-102L635,-28Z" fill="rgb(49,44,53)" stroke="rgb(49,44,53)" stroke-width="1.51"></path><path d="M568,-97L642,-102L415,-101Z" fill="rgb(64,67,68)" stroke="rgb(64,67,68)" stroke-width="1.51"></path><path d="M415,-101L642,-102L110,-107Z" fill="rgb(132,115,130)" stroke="rgb(132,115,130)" stroke-width="1.51"></path><path d="M110,432L182,494L195,425Z" fill="rgb(98,109,107)" stroke="rgb(98,109,107)" stroke-width="1.51"></path><path d="M268,499L105,498L334,505Z" fill="rgb(118,137,122)" stroke="rgb(118,137,122)" stroke-width="1.51"></path><path d="M110,-107L36,-26L105,-18Z" fill="rgb(97,37,110)" stroke="rgb(97,37,110)" stroke-width="1.51"></path><path d="M-41,50L-35,127L35,124Z" fill="rgb(118,71,130)" stroke="rgb(118,71,130)" stroke-width="1.51"></path><path d="M484,496L568,495L554,419Z" fill="rgb(16,95,42)" stroke="rgb(16,95,42)" stroke-width="1.51"></path><path d="M417,501L568,495L484,496Z" fill="rgb(42,115,57)" stroke="rgb(42,115,57)" stroke-width="1.51"></path><path d="M638,493L568,495L705,504Z" fill="rgb(0,68,27)" stroke="rgb(0,68,27)" stroke-width="1.51"></path><path d="M711,42L711,-19L641,55Z" fill="rgb(65,56,69)" stroke="rgb(65,56,69)" stroke-width="1.51"></path><path d="M643,419L714,350L633,356Z" fill="rgb(7,84,35)" stroke="rgb(7,84,35)" stroke-width="1.51"></path><path d="M707,271L714,350L707,201Z" fill="rgb(89,142,93)" stroke="rgb(89,142,93)" stroke-width="1.51"></path><path d="M711,42L714,350L711,-19Z" fill="rgb(105,119,113)" stroke="rgb(105,119,113)" stroke-width="1.51"></path><path d="M710,423L714,350L643,419Z" fill="rgb(0,69,28)" stroke="rgb(0,69,28)" stroke-width="1.51"></path><path d="M-41,50L35,124L41,46Z" fill="rgb(110,57,123)" stroke="rgb(110,57,123)" stroke-width="1.51"></path><path d="M35,124L-35,127L37,193Z" fill="rgb(147,103,153)" stroke="rgb(147,103,153)" stroke-width="1.51"></path><path d="M36,281L-42,351L42,353Z" fill="rgb(89,91,90)" stroke="rgb(89,91,90)" stroke-width="1.51"></path><path d="M-35,127L-38,202L37,193Z" fill="rgb(149,111,153)" stroke="rgb(149,111,153)" stroke-width="1.51"></path><path d="M110,432L105,498L182,494Z" fill="rgb(90,97,99)" stroke="rgb(90,97,99)" stroke-width="1.51"></path><path d="M42,353L44,420L118,354Z" fill="rgb(86,82,91)" stroke="rgb(86,82,91)" stroke-width="1.51"></path><path d="M-45,419L44,420L42,353Z" fill="rgb(55,50,59)" stroke="rgb(55,50,59)" stroke-width="1.51"></path><path d="M711,-19L707,-93L635,-28Z" fill="rgb(49,44,53)" stroke="rgb(49,44,53)" stroke-width="1.51"></path><path d="M568,495L638,493L643,419Z" fill="rgb(0,68,27)" stroke="rgb(0,68,27)" stroke-width="1.51"></path><path d="M705,504L568,495L417,501Z" fill="rgb(7,83,35)" stroke="rgb(7,83,35)" stroke-width="1.51"></path><path d="M638,493L710,423L643,419Z" fill="rgb(0,68,27)" stroke="rgb(0,68,27)" stroke-width="1.51"></path><path d="M-38,202L-42,272L36,281Z" fill="rgb(135,117,134)" stroke="rgb(135,117,134)" stroke-width="1.51"></path><path d="M-118,268L-42,272L-38,202Z" fill="rgb(138,118,137)" stroke="rgb(138,118,137)" stroke-width="1.51"></path><path d="M44,420L105,498L110,432Z" fill="rgb(79,76,86)" stroke="rgb(79,76,86)" stroke-width="1.51"></path><path d="M182,494L105,498L268,499Z" fill="rgb(105,119,113)" stroke="rgb(105,119,113)" stroke-width="1.51"></path><path d="M-35,127L-110,130L-38,202Z" fill="rgb(143,102,148)" stroke="rgb(143,102,148)" stroke-width="1.51"></path><path d="M36,-26L-41,50L41,46Z" fill="rgb(84,16,96)" stroke="rgb(84,16,96)" stroke-width="1.51"></path><path d="M-45,-21L-41,50L36,-26Z" fill="rgb(64,0,75)" stroke="rgb(64,0,75)" stroke-width="1.51"></path><path d="M110,-107L35,-108L36,-26Z" fill="rgb(90,21,102)" stroke="rgb(90,21,102)" stroke-width="1.51"></path><path d="M642,-102L35,-108L110,-107Z" fill="rgb(149,111,153)" stroke="rgb(149,111,153)" stroke-width="1.51"></path><path d="M-42,272L-42,351L36,281Z" fill="rgb(104,101,102)" stroke="rgb(104,101,102)" stroke-width="1.51"></path><path d="M44,420L33,502L105,498Z" fill="rgb(74,63,79)" stroke="rgb(74,63,79)" stroke-width="1.51"></path><path d="M-108,51L-110,130L-35,127Z" fill="rgb(119,73,131)" stroke="rgb(119,73,131)" stroke-width="1.51"></path><path d="M-42,272L-118,268L-42,351Z" fill="rgb(107,103,106)" stroke="rgb(107,103,106)" stroke-width="1.51"></path><path d="M-39,-94L-45,-21L36,-26Z" fill="rgb(64,0,75)" stroke="rgb(64,0,75)" stroke-width="1.51"></path><path d="M334,505L705,504L417,501Z" fill="rgb(44,117,59)" stroke="rgb(44,117,59)" stroke-width="1.51"></path><path d="M638,493L705,504L710,423Z" fill="rgb(0,68,27)" stroke="rgb(0,68,27)" stroke-width="1.51"></path><path d="M-32,498L33,502L44,420Z" fill="rgb(55,49,59)" stroke="rgb(55,49,59)" stroke-width="1.51"></path><path d="M105,498L33,502L334,505Z" fill="rgb(97,107,106)" stroke="rgb(97,107,106)" stroke-width="1.51"></path><path d="M-108,51L-35,127L-41,50Z" fill="rgb(106,55,120)" stroke="rgb(106,55,120)" stroke-width="1.51"></path><path d="M35,-108L-39,-94L36,-26Z" fill="rgb(68,3,80)" stroke="rgb(68,3,80)" stroke-width="1.51"></path><path d="M-45,-21L-108,51L-41,50Z" fill="rgb(81,14,93)" stroke="rgb(81,14,93)" stroke-width="1.51"></path><path d="M-120,357L-45,419L-42,351Z" fill="rgb(59,59,62)" stroke="rgb(59,59,62)" stroke-width="1.51"></path><path d="M-42,351L-45,419L42,353Z" fill="rgb(59,60,63)" stroke="rgb(59,60,63)" stroke-width="1.51"></path><path d="M-110,130L-118,192L-38,202Z" fill="rgb(149,111,153)" stroke="rgb(149,111,153)" stroke-width="1.51"></path><path d="M-110,130L-119,-22L-118,192Z" fill="rgb(118,71,130)" stroke="rgb(118,71,130)" stroke-width="1.51"></path><path d="M-119,-22L-108,51L-45,-21Z" fill="rgb(65,1,77)" stroke="rgb(65,1,77)" stroke-width="1.51"></path><path d="M-118,192L-118,268L-38,202Z" fill="rgb(148,120,149)" stroke="rgb(148,120,149)" stroke-width="1.51"></path><path d="M-45,419L-32,498L44,420Z" fill="rgb(49,44,53)" stroke="rgb(49,44,53)" stroke-width="1.51"></path><path d="M-106,494L-32,498L-45,419Z" fill="rgb(49,44,53)" stroke="rgb(49,44,53)" stroke-width="1.51"></path><path d="M-108,51L-119,-22L-110,130Z" fill="rgb(96,35,109)" stroke="rgb(96,35,109)" stroke-width="1.51"></path><path d="M-118,192L-120,357L-118,268Z" fill="rgb(125,112,123)" stroke="rgb(125,112,123)" stroke-width="1.51"></path><path d="M-106,-97L-119,-22L-45,-21Z" fill="rgb(64,0,75)" stroke="rgb(64,0,75)" stroke-width="1.51"></path><path d="M-118,268L-120,357L-42,351Z" fill="rgb(86,89,86)" stroke="rgb(86,89,86)" stroke-width="1.51"></path><path d="M-119,-22L-120,357L-118,192Z" fill="rgb(149,112,153)" stroke="rgb(149,112,153)" stroke-width="1.51"></path><path d="M35,-108L-106,-97L-39,-94Z" fill="rgb(64,0,75)" stroke="rgb(64,0,75)" stroke-width="1.51"></path><path d="M-39,-94L-106,-97L-45,-21Z" fill="rgb(64,0,75)" stroke="rgb(64,0,75)" stroke-width="1.51"></path><path d="M-120,357L-121,428L-45,419Z" fill="rgb(49,44,53)" stroke="rgb(49,44,53)" stroke-width="1.51"></path><path d="M-119,-22L-121,428L-120,357Z" fill="rgb(134,116,133)" stroke="rgb(134,116,133)" stroke-width="1.51"></path><path d="M-32,498L-106,494L33,502Z" fill="rgb(49,44,53)" stroke="rgb(49,44,53)" stroke-width="1.51"></path><path d="M-121,428L-106,494L-45,419Z" fill="rgb(49,44,53)" stroke="rgb(49,44,53)" stroke-width="1.51"></path></svg>