<svg width="600" height="400" xmlns="http://www.w3.org/2000/svg"><path d="M325,209L270,262L338,281Z" fill="rgb(209,235,230)" stroke="rgb(209,235,230)" stroke-width="1.51"></path><path d="M325,209L250,209L270,262Z" fill="rgb(231,240,232)" stroke="rgb(231,240,232)" stroke-width="1.51"></path><path d="M338,281L404,264L325,209Z" fill="rgb(191,231,224)" stroke="rgb(191,231,224)" stroke-width="1.51"></path><path d="M253,343L333,348L338,281Z" fill="rgb(150,195,189)" stroke="rgb(150,195,189)" stroke-width="1.51"></path><path d="M338,281L417,343L404,264Z" fill="rgb(135,202,193)" stroke="rgb(135,202,193)" stroke-width="1.51"></path><path d="M404,264L411,207L325,209Z" fill="rgb(196,231,225)" stroke="rgb(196,231,225)" stroke-width="1.51"></path><path d="M193,136L189,201L250,209Z" fill="rgb(241,226,191)" stroke="rgb(241,226,191)" stroke-width="1.51"></path><path d="M270,262L253,343L338,281Z" fill="rgb(177,213,204)" stroke="rgb(177,213,204)" stroke-width="1.51"></path><path d="M179,276L253,343L270,262Z" fill="rgb(179,207,182)" stroke="rgb(179,207,182)" stroke-width="1.51"></path><path d="M250,209L179,276L270,262Z" fill="rgb(216,228,204)" stroke="rgb(216,228,204)" stroke-width="1.51"></path><path d="M272,114L250,209L325,209Z" fill="rgb(246,239,223)" stroke="rgb(246,239,223)" stroke-width="1.51"></path><path d="M411,207L344,120L325,209Z" fill="rgb(223,236,224)" stroke="rgb(223,236,224)" stroke-width="1.51"></path><path d="M189,201L179,276L250,209Z" fill="rgb(226,223,194)" stroke="rgb(226,223,194)" stroke-width="1.51"></path><path d="M344,120L272,114L325,209Z" fill="rgb(238,231,207)" stroke="rgb(238,231,207)" stroke-width="1.51"></path><path d="M333,348L417,343L338,281Z" fill="rgb(127,189,181)" stroke="rgb(127,189,181)" stroke-width="1.51"></path><path d="M404,264L489,204L411,207Z" fill="rgb(166,215,208)" stroke="rgb(166,215,208)" stroke-width="1.51"></path><path d="M344,120L335,59L272,114Z" fill="rgb(224,199,159)" stroke="rgb(224,199,159)" stroke-width="1.51"></path><path d="M411,207L405,121L344,120Z" fill="rgb(207,222,195)" stroke="rgb(207,222,195)" stroke-width="1.51"></path><path d="M253,343L269,423L333,348Z" fill="rgb(132,164,152)" stroke="rgb(132,164,152)" stroke-width="1.51"></path><path d="M179,276L178,341L253,343Z" fill="rgb(155,180,148)" stroke="rgb(155,180,148)" stroke-width="1.51"></path><path d="M272,114L193,136L250,209Z" fill="rgb(244,228,188)" stroke="rgb(244,228,188)" stroke-width="1.51"></path><path d="M189,201L121,189L179,276Z" fill="rgb(222,206,168)" stroke="rgb(222,206,168)" stroke-width="1.51"></path><path d="M194,419L269,423L253,343Z" fill="rgb(126,144,119)" stroke="rgb(126,144,119)" stroke-width="1.51"></path><path d="M333,348L409,428L417,343Z" fill="rgb(92,152,143)" stroke="rgb(92,152,143)" stroke-width="1.51"></path><path d="M269,423L344,429L333,348Z" fill="rgb(117,146,138)" stroke="rgb(117,146,138)" stroke-width="1.51"></path><path d="M411,207L475,125L405,121Z" fill="rgb(184,210,182)" stroke="rgb(184,210,182)" stroke-width="1.51"></path><path d="M498,281L489,204L404,264Z" fill="rgb(131,196,187)" stroke="rgb(131,196,187)" stroke-width="1.51"></path><path d="M417,343L498,281L404,264Z" fill="rgb(103,185,174)" stroke="rgb(103,185,174)" stroke-width="1.51"></path><path d="M493,339L498,281L417,343Z" fill="rgb(60,155,147)" stroke="rgb(60,155,147)" stroke-width="1.51"></path><path d="M411,62L335,59L344,120Z" fill="rgb(203,180,136)" stroke="rgb(203,180,136)" stroke-width="1.51"></path><path d="M272,114L253,61L193,136Z" fill="rgb(230,199,143)" stroke="rgb(230,199,143)" stroke-width="1.51"></path><path d="M335,59L253,61L272,114Z" fill="rgb(223,183,138)" stroke="rgb(223,183,138)" stroke-width="1.51"></path><path d="M193,136L121,189L189,201Z" fill="rgb(233,208,161)" stroke="rgb(233,208,161)" stroke-width="1.51"></path><path d="M179,276L103,263L178,341Z" fill="rgb(170,177,134)" stroke="rgb(170,177,134)" stroke-width="1.51"></path><path d="M111,116L121,189L193,136Z" fill="rgb(223,185,123)" stroke="rgb(223,185,123)" stroke-width="1.51"></path><path d="M492,417L493,339L417,343Z" fill="rgb(41,128,119)" stroke="rgb(41,128,119)" stroke-width="1.51"></path><path d="M344,429L409,428L333,348Z" fill="rgb(99,142,132)" stroke="rgb(99,142,132)" stroke-width="1.51"></path><path d="M489,204L475,125L411,207Z" fill="rgb(169,204,189)" stroke="rgb(169,204,189)" stroke-width="1.51"></path><path d="M405,121L411,62L344,120Z" fill="rgb(197,192,150)" stroke="rgb(197,192,150)" stroke-width="1.51"></path><path d="M178,341L194,419L253,343Z" fill="rgb(132,152,121)" stroke="rgb(132,152,121)" stroke-width="1.51"></path><path d="M269,423L328,490L344,429Z" fill="rgb(118,147,138)" stroke="rgb(118,147,138)" stroke-width="1.51"></path><path d="M108,416L194,419L178,341Z" fill="rgb(116,119,78)" stroke="rgb(116,119,78)" stroke-width="1.51"></path><path d="M121,189L103,263L179,276Z" fill="rgb(205,187,145)" stroke="rgb(205,187,145)" stroke-width="1.51"></path><path d="M475,125L411,62L405,121Z" fill="rgb(174,181,138)" stroke="rgb(174,181,138)" stroke-width="1.51"></path><path d="M253,61L179,57L193,136Z" fill="rgb(216,173,106)" stroke="rgb(216,173,106)" stroke-width="1.51"></path><path d="M189,-19L179,57L253,61Z" fill="rgb(184,141,82)" stroke="rgb(184,141,82)" stroke-width="1.51"></path><path d="M103,263L101,359L178,341Z" fill="rgb(144,145,101)" stroke="rgb(144,145,101)" stroke-width="1.51"></path><path d="M179,57L111,116L193,136Z" fill="rgb(213,169,95)" stroke="rgb(213,169,95)" stroke-width="1.51"></path><path d="M27,195L27,272L103,263Z" fill="rgb(173,152,116)" stroke="rgb(173,152,116)" stroke-width="1.51"></path><path d="M266,497L328,490L269,423Z" fill="rgb(123,146,135)" stroke="rgb(123,146,135)" stroke-width="1.51"></path><path d="M344,429L400,503L409,428Z" fill="rgb(86,137,126)" stroke="rgb(86,137,126)" stroke-width="1.51"></path><path d="M498,281L553,202L489,204Z" fill="rgb(126,179,172)" stroke="rgb(126,179,172)" stroke-width="1.51"></path><path d="M489,204L553,202L475,125Z" fill="rgb(149,183,168)" stroke="rgb(149,183,168)" stroke-width="1.51"></path><path d="M569,263L553,202L498,281Z" fill="rgb(103,163,155)" stroke="rgb(103,163,155)" stroke-width="1.51"></path><path d="M554,348L569,263L498,281Z" fill="rgb(56,141,131)" stroke="rgb(56,141,131)" stroke-width="1.51"></path><path d="M409,428L492,417L417,343Z" fill="rgb(54,123,111)" stroke="rgb(54,123,111)" stroke-width="1.51"></path><path d="M493,510L492,417L409,428Z" fill="rgb(37,110,99)" stroke="rgb(37,110,99)" stroke-width="1.51"></path><path d="M180,502L266,497L194,419Z" fill="rgb(121,134,103)" stroke="rgb(121,134,103)" stroke-width="1.51"></path><path d="M194,419L266,497L269,423Z" fill="rgb(124,142,118)" stroke="rgb(124,142,118)" stroke-width="1.51"></path><path d="M554,348L498,281L493,339Z" fill="rgb(39,135,127)" stroke="rgb(39,135,127)" stroke-width="1.51"></path><path d="M101,359L108,416L178,341Z" fill="rgb(119,115,71)" stroke="rgb(119,115,71)" stroke-width="1.51"></path><path d="M492,417L554,348L493,339Z" fill="rgb(15,108,100)" stroke="rgb(15,108,100)" stroke-width="1.51"></path><path d="M335,59L334,-14L253,61Z" fill="rgb(192,157,124)" stroke="rgb(192,157,124)" stroke-width="1.51"></path><path d="M411,62L334,-14L335,59Z" fill="rgb(176,153,118)" stroke="rgb(176,153,118)" stroke-width="1.51"></path><path d="M417,-17L334,-14L411,62Z" fill="rgb(143,135,105)" stroke="rgb(143,135,105)" stroke-width="1.51"></path><path d="M475,125L484,47L411,62Z" fill="rgb(154,151,104)" stroke="rgb(154,151,104)" stroke-width="1.51"></path><path d="M551,56L484,47L475,125Z" fill="rgb(133,130,86)" stroke="rgb(133,130,86)" stroke-width="1.51"></path><path d="M266,497L400,503L328,490Z" fill="rgb(111,145,136)" stroke="rgb(111,145,136)" stroke-width="1.51"></path><path d="M328,490L400,503L344,429Z" fill="rgb(101,143,133)" stroke="rgb(101,143,133)" stroke-width="1.51"></path><path d="M334,-14L259,-23L253,61Z" fill="rgb(173,142,113)" stroke="rgb(173,142,113)" stroke-width="1.51"></path><path d="M179,57L115,43L111,116Z" fill="rgb(191,132,52)" stroke="rgb(191,132,52)" stroke-width="1.51"></path><path d="M189,-19L115,43L179,57Z" fill="rgb(167,120,55)" stroke="rgb(167,120,55)" stroke-width="1.51"></path><path d="M633,190L568,129L553,202Z" fill="rgb(127,149,131)" stroke="rgb(127,149,131)" stroke-width="1.51"></path><path d="M553,202L568,129L475,125Z" fill="rgb(139,165,140)" stroke="rgb(139,165,140)" stroke-width="1.51"></path><path d="M101,359L34,424L108,416Z" fill="rgb(92,80,39)" stroke="rgb(92,80,39)" stroke-width="1.51"></path><path d="M103,263L36,344L101,359Z" fill="rgb(127,124,84)" stroke="rgb(127,124,84)" stroke-width="1.51"></path><path d="M27,195L103,263L121,189Z" fill="rgb(201,168,130)" stroke="rgb(201,168,130)" stroke-width="1.51"></path><path d="M27,195L121,189L111,116Z" fill="rgb(208,166,114)" stroke="rgb(208,166,114)" stroke-width="1.51"></path><path d="M118,492L180,502L194,419Z" fill="rgb(114,116,76)" stroke="rgb(114,116,76)" stroke-width="1.51"></path><path d="M266,497L180,502L400,503Z" fill="rgb(123,146,133)" stroke="rgb(123,146,133)" stroke-width="1.51"></path><path d="M484,47L417,-17L411,62Z" fill="rgb(134,130,94)" stroke="rgb(134,130,94)" stroke-width="1.51"></path><path d="M334,-14L261,-98L259,-23Z" fill="rgb(166,139,112)" stroke="rgb(166,139,112)" stroke-width="1.51"></path><path d="M25,117L27,195L111,116Z" fill="rgb(187,144,87)" stroke="rgb(187,144,87)" stroke-width="1.51"></path><path d="M27,272L36,344L103,263Z" fill="rgb(138,132,94)" stroke="rgb(138,132,94)" stroke-width="1.51"></path><path d="M108,416L118,492L194,419Z" fill="rgb(110,105,61)" stroke="rgb(110,105,61)" stroke-width="1.51"></path><path d="M259,-23L189,-19L253,61Z" fill="rgb(168,136,93)" stroke="rgb(168,136,93)" stroke-width="1.51"></path><path d="M492,417L559,424L554,348Z" fill="rgb(3,85,74)" stroke="rgb(3,85,74)" stroke-width="1.51"></path><path d="M646,270L633,190L569,263Z" fill="rgb(99,142,132)" stroke="rgb(99,142,132)" stroke-width="1.51"></path><path d="M493,510L559,424L492,417Z" fill="rgb(12,90,80)" stroke="rgb(12,90,80)" stroke-width="1.51"></path><path d="M484,47L481,-15L417,-17Z" fill="rgb(103,109,81)" stroke="rgb(103,109,81)" stroke-width="1.51"></path><path d="M568,129L551,56L475,125Z" fill="rgb(131,139,98)" stroke="rgb(131,139,98)" stroke-width="1.51"></path><path d="M44,495L118,492L108,416Z" fill="rgb(95,84,42)" stroke="rgb(95,84,42)" stroke-width="1.51"></path><path d="M338,-113L261,-98L334,-14Z" fill="rgb(163,139,116)" stroke="rgb(163,139,116)" stroke-width="1.51"></path><path d="M551,56L481,-15L484,47Z" fill="rgb(104,102,68)" stroke="rgb(104,102,68)" stroke-width="1.51"></path><path d="M-41,269L-26,347L27,272Z" fill="rgb(107,113,86)" stroke="rgb(107,113,86)" stroke-width="1.51"></path><path d="M31,60L25,117L111,116Z" fill="rgb(171,117,47)" stroke="rgb(171,117,47)" stroke-width="1.51"></path><path d="M31,60L111,116L115,43Z" fill="rgb(172,110,33)" stroke="rgb(172,110,33)" stroke-width="1.51"></path><path d="M400,503L493,510L409,428Z" fill="rgb(57,123,111)" stroke="rgb(57,123,111)" stroke-width="1.51"></path><path d="M180,502L493,510L400,503Z" fill="rgb(101,142,133)" stroke="rgb(101,142,133)" stroke-width="1.51"></path><path d="M-26,347L34,424L36,344Z" fill="rgb(73,74,46)" stroke="rgb(73,74,46)" stroke-width="1.51"></path><path d="M36,344L34,424L101,359Z" fill="rgb(92,84,47)" stroke="rgb(92,84,47)" stroke-width="1.51"></path><path d="M569,263L633,190L553,202Z" fill="rgb(115,151,143)" stroke="rgb(115,151,143)" stroke-width="1.51"></path><path d="M568,129L629,60L551,56Z" fill="rgb(111,103,58)" stroke="rgb(111,103,58)" stroke-width="1.51"></path><path d="M646,270L569,263L554,348Z" fill="rgb(54,124,113)" stroke="rgb(54,124,113)" stroke-width="1.51"></path><path d="M189,-19L104,-15L115,43Z" fill="rgb(142,96,36)" stroke="rgb(142,96,36)" stroke-width="1.51"></path><path d="M194,-90L104,-15L189,-19Z" fill="rgb(148,108,52)" stroke="rgb(148,108,52)" stroke-width="1.51"></path><path d="M648,355L646,270L554,348Z" fill="rgb(23,101,91)" stroke="rgb(23,101,91)" stroke-width="1.51"></path><path d="M104,-15L31,60L115,43Z" fill="rgb(142,85,17)" stroke="rgb(142,85,17)" stroke-width="1.51"></path><path d="M551,56L573,-34L481,-15Z" fill="rgb(74,79,53)" stroke="rgb(74,79,53)" stroke-width="1.51"></path><path d="M633,190L639,136L568,129Z" fill="rgb(123,138,110)" stroke="rgb(123,138,110)" stroke-width="1.51"></path><path d="M703,202L639,136L633,190Z" fill="rgb(124,144,126)" stroke="rgb(124,144,126)" stroke-width="1.51"></path><path d="M259,-23L194,-90L189,-19Z" fill="rgb(159,127,81)" stroke="rgb(159,127,81)" stroke-width="1.51"></path><path d="M338,-113L334,-14L402,-103Z" fill="rgb(148,135,111)" stroke="rgb(148,135,111)" stroke-width="1.51"></path><path d="M27,272L-26,347L36,344Z" fill="rgb(95,102,74)" stroke="rgb(95,102,74)" stroke-width="1.51"></path><path d="M-41,269L27,272L27,195Z" fill="rgb(146,135,109)" stroke="rgb(146,135,109)" stroke-width="1.51"></path><path d="M-41,269L27,195L-47,192Z" fill="rgb(158,138,115)" stroke="rgb(158,138,115)" stroke-width="1.51"></path><path d="M-47,192L27,195L-41,125Z" fill="rgb(165,136,101)" stroke="rgb(165,136,101)" stroke-width="1.51"></path><path d="M626,420L648,355L554,348Z" fill="rgb(0,73,62)" stroke="rgb(0,73,62)" stroke-width="1.51"></path><path d="M626,420L554,348L559,424Z" fill="rgb(0,68,57)" stroke="rgb(0,68,57)" stroke-width="1.51"></path><path d="M261,-98L194,-90L259,-23Z" fill="rgb(164,134,94)" stroke="rgb(164,134,94)" stroke-width="1.51"></path><path d="M564,503L626,420L559,424Z" fill="rgb(0,66,54)" stroke="rgb(0,66,54)" stroke-width="1.51"></path><path d="M493,510L564,503L559,424Z" fill="rgb(1,81,71)" stroke="rgb(1,81,71)" stroke-width="1.51"></path><path d="M-41,125L27,195L25,117Z" fill="rgb(162,129,84)" stroke="rgb(162,129,84)" stroke-width="1.51"></path><path d="M34,424L44,495L108,416Z" fill="rgb(85,73,35)" stroke="rgb(85,73,35)" stroke-width="1.51"></path><path d="M118,492L44,495L180,502Z" fill="rgb(104,93,48)" stroke="rgb(104,93,48)" stroke-width="1.51"></path><path d="M-37,491L44,495L34,424Z" fill="rgb(63,59,30)" stroke="rgb(63,59,30)" stroke-width="1.51"></path><path d="M261,-98L100,-107L194,-90Z" fill="rgb(153,119,66)" stroke="rgb(153,119,66)" stroke-width="1.51"></path><path d="M402,-103L334,-14L417,-17Z" fill="rgb(136,130,104)" stroke="rgb(136,130,104)" stroke-width="1.51"></path><path d="M484,-106L402,-103L417,-17Z" fill="rgb(111,117,89)" stroke="rgb(111,117,89)" stroke-width="1.51"></path><path d="M484,-106L417,-17L481,-15Z" fill="rgb(99,106,80)" stroke="rgb(99,106,80)" stroke-width="1.51"></path><path d="M639,136L629,60L568,129Z" fill="rgb(114,116,75)" stroke="rgb(114,116,75)" stroke-width="1.51"></path><path d="M-34,54L25,117L31,60Z" fill="rgb(138,87,23)" stroke="rgb(138,87,23)" stroke-width="1.51"></path><path d="M-34,54L-41,125L25,117Z" fill="rgb(143,101,43)" stroke="rgb(143,101,43)" stroke-width="1.51"></path><path d="M-26,347L-32,419L34,424Z" fill="rgb(58,57,31)" stroke="rgb(58,57,31)" stroke-width="1.51"></path><path d="M-108,348L-32,419L-26,347Z" fill="rgb(67,70,44)" stroke="rgb(67,70,44)" stroke-width="1.51"></path><path d="M-37,491L-32,419L-110,418Z" fill="rgb(57,55,29)" stroke="rgb(57,55,29)" stroke-width="1.51"></path><path d="M628,-21L573,-34L551,56Z" fill="rgb(60,61,35)" stroke="rgb(60,61,35)" stroke-width="1.51"></path><path d="M402,-103L484,-106L338,-113Z" fill="rgb(124,126,98)" stroke="rgb(124,126,98)" stroke-width="1.51"></path><path d="M573,-34L484,-106L481,-15Z" fill="rgb(79,86,60)" stroke="rgb(79,86,60)" stroke-width="1.51"></path><path d="M646,270L703,202L633,190Z" fill="rgb(111,145,136)" stroke="rgb(111,145,136)" stroke-width="1.51"></path><path d="M639,136L721,116L629,60Z" fill="rgb(112,113,71)" stroke="rgb(112,113,71)" stroke-width="1.51"></path><path d="M706,275L703,202L646,270Z" fill="rgb(93,140,129)" stroke="rgb(93,140,129)" stroke-width="1.51"></path><path d="M706,275L646,270L715,337Z" fill="rgb(52,120,108)" stroke="rgb(52,120,108)" stroke-width="1.51"></path><path d="M30,-35L31,60L104,-15Z" fill="rgb(111,64,8)" stroke="rgb(111,64,8)" stroke-width="1.51"></path><path d="M-32,-19L-34,54L31,60Z" fill="rgb(106,61,8)" stroke="rgb(106,61,8)" stroke-width="1.51"></path><path d="M715,337L646,270L648,355Z" fill="rgb(25,103,93)" stroke="rgb(25,103,93)" stroke-width="1.51"></path><path d="M100,-107L30,-35L104,-15Z" fill="rgb(119,71,13)" stroke="rgb(119,71,13)" stroke-width="1.51"></path><path d="M338,-113L100,-107L261,-98Z" fill="rgb(163,132,91)" stroke="rgb(163,132,91)" stroke-width="1.51"></path><path d="M194,-90L100,-107L104,-15Z" fill="rgb(139,93,33)" stroke="rgb(139,93,33)" stroke-width="1.51"></path><path d="M706,275L721,116L703,202Z" fill="rgb(122,147,139)" stroke="rgb(122,147,139)" stroke-width="1.51"></path><path d="M722,423L715,337L648,355Z" fill="rgb(1,74,64)" stroke="rgb(1,74,64)" stroke-width="1.51"></path><path d="M722,423L648,355L626,420Z" fill="rgb(0,60,48)" stroke="rgb(0,60,48)" stroke-width="1.51"></path><path d="M573,-34L558,-109L484,-106Z" fill="rgb(71,76,51)" stroke="rgb(71,76,51)" stroke-width="1.51"></path><path d="M629,60L628,-21L551,56Z" fill="rgb(78,69,33)" stroke="rgb(78,69,33)" stroke-width="1.51"></path><path d="M711,42L628,-21L629,60Z" fill="rgb(75,67,32)" stroke="rgb(75,67,32)" stroke-width="1.51"></path><path d="M564,503L643,502L626,420Z" fill="rgb(0,60,48)" stroke="rgb(0,60,48)" stroke-width="1.51"></path><path d="M493,510L643,502L564,503Z" fill="rgb(0,71,60)" stroke="rgb(0,71,60)" stroke-width="1.51"></path><path d="M44,495L-124,493L180,502Z" fill="rgb(71,65,32)" stroke="rgb(71,65,32)" stroke-width="1.51"></path><path d="M-32,419L-37,491L34,424Z" fill="rgb(57,55,29)" stroke="rgb(57,55,29)" stroke-width="1.51"></path><path d="M-108,348L-26,347L-41,269Z" fill="rgb(89,98,72)" stroke="rgb(89,98,72)" stroke-width="1.51"></path><path d="M-47,192L-116,266L-41,269Z" fill="rgb(146,135,110)" stroke="rgb(146,135,110)" stroke-width="1.51"></path><path d="M-121,201L-116,266L-47,192Z" fill="rgb(157,138,114)" stroke="rgb(157,138,114)" stroke-width="1.51"></path><path d="M-121,201L-47,192L-111,131Z" fill="rgb(165,137,103)" stroke="rgb(165,137,103)" stroke-width="1.51"></path><path d="M-116,266L-108,348L-41,269Z" fill="rgb(108,114,87)" stroke="rgb(108,114,87)" stroke-width="1.51"></path><path d="M715,337L721,116L706,275Z" fill="rgb(97,142,132)" stroke="rgb(97,142,132)" stroke-width="1.51"></path><path d="M703,202L721,116L639,136Z" fill="rgb(123,138,110)" stroke="rgb(123,138,110)" stroke-width="1.51"></path><path d="M-111,131L-47,192L-41,125Z" fill="rgb(161,130,86)" stroke="rgb(161,130,86)" stroke-width="1.51"></path><path d="M-28,-91L-32,-19L30,-35Z" fill="rgb(84,48,5)" stroke="rgb(84,48,5)" stroke-width="1.51"></path><path d="M30,-35L-32,-19L31,60Z" fill="rgb(90,51,6)" stroke="rgb(90,51,6)" stroke-width="1.51"></path><path d="M-116,59L-111,131L-41,125Z" fill="rgb(146,106,49)" stroke="rgb(146,106,49)" stroke-width="1.51"></path><path d="M484,-106L558,-109L338,-113Z" fill="rgb(99,107,80)" stroke="rgb(99,107,80)" stroke-width="1.51"></path><path d="M643,-113L558,-109L573,-34Z" fill="rgb(59,58,32)" stroke="rgb(59,58,32)" stroke-width="1.51"></path><path d="M-116,59L-41,125L-34,54Z" fill="rgb(135,86,24)" stroke="rgb(135,86,24)" stroke-width="1.51"></path><path d="M100,-107L39,-99L30,-35Z" fill="rgb(109,63,8)" stroke="rgb(109,63,8)" stroke-width="1.51"></path><path d="M703,491L722,423L626,420Z" fill="rgb(0,60,48)" stroke="rgb(0,60,48)" stroke-width="1.51"></path><path d="M715,337L722,423L721,116Z" fill="rgb(54,121,109)" stroke="rgb(54,121,109)" stroke-width="1.51"></path><path d="M628,-21L643,-113L573,-34Z" fill="rgb(57,55,29)" stroke="rgb(57,55,29)" stroke-width="1.51"></path><path d="M721,116L711,42L629,60Z" fill="rgb(102,91,47)" stroke="rgb(102,91,47)" stroke-width="1.51"></path><path d="M-124,493L-110,418L-108,348Z" fill="rgb(57,55,29)" stroke="rgb(57,55,29)" stroke-width="1.51"></path><path d="M-108,348L-110,418L-32,419Z" fill="rgb(58,58,31)" stroke="rgb(58,58,31)" stroke-width="1.51"></path><path d="M-124,493L-108,348L-116,266Z" fill="rgb(67,71,45)" stroke="rgb(67,71,45)" stroke-width="1.51"></path><path d="M643,502L703,491L626,420Z" fill="rgb(0,60,48)" stroke="rgb(0,60,48)" stroke-width="1.51"></path><path d="M-117,-35L-116,59L-32,-19Z" fill="rgb(85,48,5)" stroke="rgb(85,48,5)" stroke-width="1.51"></path><path d="M-32,-19L-116,59L-34,54Z" fill="rgb(105,61,8)" stroke="rgb(105,61,8)" stroke-width="1.51"></path><path d="M-111,131L-116,59L-121,201Z" fill="rgb(155,122,71)" stroke="rgb(155,122,71)" stroke-width="1.51"></path><path d="M39,-99L-28,-91L30,-35Z" fill="rgb(90,51,6)" stroke="rgb(90,51,6)" stroke-width="1.51"></path><path d="M-118,-94L-28,-91L39,-99Z" fill="rgb(84,48,5)" stroke="rgb(84,48,5)" stroke-width="1.51"></path><path d="M702,-101L701,-38L711,42Z" fill="rgb(57,55,29)" stroke="rgb(57,55,29)" stroke-width="1.51"></path><path d="M711,42L701,-38L628,-21Z" fill="rgb(57,55,29)" stroke="rgb(57,55,29)" stroke-width="1.51"></path><path d="M701,-38L643,-113L628,-21Z" fill="rgb(57,55,29)" stroke="rgb(57,55,29)" stroke-width="1.51"></path><path d="M558,-109L643,-113L338,-113Z" fill="rgb(79,86,60)" stroke="rgb(79,86,60)" stroke-width="1.51"></path><path d="M-110,418L-124,493L-37,491Z" fill="rgb(57,55,29)" stroke="rgb(57,55,29)" stroke-width="1.51"></path><path d="M-37,491L-124,493L44,495Z" fill="rgb(57,55,29)" stroke="rgb(57,55,29)" stroke-width="1.51"></path><path d="M-121,201L-124,493L-116,266Z" fill="rgb(89,98,73)" stroke="rgb(89,98,73)" stroke-width="1.51"></path><path d="M-28,-91L-117,-35L-32,-19Z" fill="rgb(84,48,5)" stroke="rgb(84,48,5)" stroke-width="1.51"></path><path d="M-116,59L-117,-35L-121,201Z" fill="rgb(133,84,23)" stroke="rgb(133,84,23)" stroke-width="1.51"></path><path d="M701,-38L702,-101L643,-113Z" fill="rgb(57,55,29)" stroke="rgb(57,55,29)" stroke-width="1.51"></path><path d="M721,116L702,-101L711,42Z" fill="rgb(70,63,31)" stroke="rgb(70,63,31)" stroke-width="1.51"></path><path d="M-28,-91L-118,-94L-117,-35Z" fill="rgb(84,48,5)" stroke="rgb(84,48,5)" stroke-width="1.51"></path><path d="M-117,-35L-118,-94L-121,201Z" fill="rgb(100,57,7)" stroke="rgb(100,57,7)" stroke-width="1.51"></path><path d="M-121,201L-118,-94L-124,493Z" fill="rgb(166,140,118)" stroke="rgb(166,140,118)" stroke-width="1.51"></path><path d="M100,-107L-118,-94L39,-99Z" fill="rgb(87,50,6)" stroke="rgb(87,50,6)" stroke-width="1.51"></path></svg>