<svg width="600" height="400" xmlns="http://www.w3.org/2000/svg"><path d="M353,174L440,148L364,144Z" fill="rgb(233,228,207)" stroke="rgb(233,228,207)" stroke-width="1.51"></path><path d="M353,174L415,228L440,148Z" fill="rgb(225,234,200)" stroke="rgb(225,234,200)" stroke-width="1.51"></path><path d="M415,228L476,214L440,148Z" fill="rgb(207,228,176)" stroke="rgb(207,228,176)" stroke-width="1.51"></path><path d="M415,228L437,262L476,214Z" fill="rgb(198,228,161)" stroke="rgb(198,228,161)" stroke-width="1.51"></path><path d="M339,258L437,262L415,228Z" fill="rgb(211,237,177)" stroke="rgb(211,237,177)" stroke-width="1.51"></path><path d="M353,174L339,258L415,228Z" fill="rgb(231,244,212)" stroke="rgb(231,244,212)" stroke-width="1.51"></path><path d="M440,148L401,67L364,144Z" fill="rgb(223,207,188)" stroke="rgb(223,207,188)" stroke-width="1.51"></path><path d="M465,32L401,67L440,148Z" fill="rgb(202,173,149)" stroke="rgb(202,173,149)" stroke-width="1.51"></path><path d="M476,214L509,137L440,148Z" fill="rgb(195,210,157)" stroke="rgb(195,210,157)" stroke-width="1.51"></path><path d="M437,262L467,281L476,214Z" fill="rgb(182,220,137)" stroke="rgb(182,220,137)" stroke-width="1.51"></path><path d="M476,214L564,197L509,137Z" fill="rgb(177,200,146)" stroke="rgb(177,200,146)" stroke-width="1.51"></path><path d="M392,360L467,281L437,262Z" fill="rgb(164,212,110)" stroke="rgb(164,212,110)" stroke-width="1.51"></path><path d="M353,174L261,228L339,258Z" fill="rgb(241,246,231)" stroke="rgb(241,246,231)" stroke-width="1.51"></path><path d="M265,100L261,228L353,174Z" fill="rgb(250,236,243)" stroke="rgb(250,236,243)" stroke-width="1.51"></path><path d="M265,100L353,174L364,144Z" fill="rgb(244,224,229)" stroke="rgb(244,224,229)" stroke-width="1.51"></path><path d="M358,23L265,100L364,144Z" fill="rgb(236,191,206)" stroke="rgb(236,191,206)" stroke-width="1.51"></path><path d="M509,137L465,32L440,148Z" fill="rgb(191,179,141)" stroke="rgb(191,179,141)" stroke-width="1.51"></path><path d="M401,67L358,23L364,144Z" fill="rgb(224,180,181)" stroke="rgb(224,180,181)" stroke-width="1.51"></path><path d="M435,-14L358,23L401,67Z" fill="rgb(197,140,136)" stroke="rgb(197,140,136)" stroke-width="1.51"></path><path d="M537,283L564,197L476,214Z" fill="rgb(163,200,129)" stroke="rgb(163,200,129)" stroke-width="1.51"></path><path d="M509,137L549,98L465,32Z" fill="rgb(173,156,121)" stroke="rgb(173,156,121)" stroke-width="1.51"></path><path d="M564,197L549,98L509,137Z" fill="rgb(167,178,133)" stroke="rgb(167,178,133)" stroke-width="1.51"></path><path d="M467,281L537,283L476,214Z" fill="rgb(163,207,116)" stroke="rgb(163,207,116)" stroke-width="1.51"></path><path d="M339,258L392,360L437,262Z" fill="rgb(187,224,142)" stroke="rgb(187,224,142)" stroke-width="1.51"></path><path d="M467,281L478,355L537,283Z" fill="rgb(131,189,74)" stroke="rgb(131,189,74)" stroke-width="1.51"></path><path d="M261,228L270,302L339,258Z" fill="rgb(227,239,206)" stroke="rgb(227,239,206)" stroke-width="1.51"></path><path d="M270,302L338,348L339,258Z" fill="rgb(199,226,167)" stroke="rgb(199,226,167)" stroke-width="1.51"></path><path d="M338,348L392,360L339,258Z" fill="rgb(180,216,138)" stroke="rgb(180,216,138)" stroke-width="1.51"></path><path d="M358,23L260,47L265,100Z" fill="rgb(233,163,194)" stroke="rgb(233,163,194)" stroke-width="1.51"></path><path d="M265,100L205,217L261,228Z" fill="rgb(252,231,241)" stroke="rgb(252,231,241)" stroke-width="1.51"></path><path d="M465,32L435,-14L401,67Z" fill="rgb(186,136,118)" stroke="rgb(186,136,118)" stroke-width="1.51"></path><path d="M358,23L291,-16L260,47Z" fill="rgb(212,143,170)" stroke="rgb(212,143,170)" stroke-width="1.51"></path><path d="M480,-15L435,-14L465,32Z" fill="rgb(155,119,89)" stroke="rgb(155,119,89)" stroke-width="1.51"></path><path d="M549,98L536,33L465,32Z" fill="rgb(163,127,99)" stroke="rgb(163,127,99)" stroke-width="1.51"></path><path d="M392,360L478,355L467,281Z" fill="rgb(136,192,80)" stroke="rgb(136,192,80)" stroke-width="1.51"></path><path d="M261,228L175,254L270,302Z" fill="rgb(230,228,203)" stroke="rgb(230,228,203)" stroke-width="1.51"></path><path d="M169,134L205,217L265,100Z" fill="rgb(249,210,232)" stroke="rgb(249,210,232)" stroke-width="1.51"></path><path d="M270,302L268,325L338,348Z" fill="rgb(188,214,154)" stroke="rgb(188,214,154)" stroke-width="1.51"></path><path d="M210,365L268,325L270,302Z" fill="rgb(186,203,150)" stroke="rgb(186,203,150)" stroke-width="1.51"></path><path d="M435,-14L364,-24L358,23Z" fill="rgb(184,134,128)" stroke="rgb(184,134,128)" stroke-width="1.51"></path><path d="M435,-14L412,-76L364,-24Z" fill="rgb(177,131,118)" stroke="rgb(177,131,118)" stroke-width="1.51"></path><path d="M536,33L480,-15L465,32Z" fill="rgb(153,115,85)" stroke="rgb(153,115,85)" stroke-width="1.51"></path><path d="M564,197L613,175L549,98Z" fill="rgb(156,170,131)" stroke="rgb(156,170,131)" stroke-width="1.51"></path><path d="M627,-32L548,-23L536,33Z" fill="rgb(113,83,60)" stroke="rgb(113,83,60)" stroke-width="1.51"></path><path d="M663,255L613,175L564,197Z" fill="rgb(141,172,127)" stroke="rgb(141,172,127)" stroke-width="1.51"></path><path d="M364,-24L291,-16L358,23Z" fill="rgb(195,137,150)" stroke="rgb(195,137,150)" stroke-width="1.51"></path><path d="M175,33L265,100L260,47Z" fill="rgb(234,153,192)" stroke="rgb(234,153,192)" stroke-width="1.51"></path><path d="M175,33L169,134L265,100Z" fill="rgb(237,166,205)" stroke="rgb(237,166,205)" stroke-width="1.51"></path><path d="M205,217L175,254L261,228Z" fill="rgb(241,226,223)" stroke="rgb(241,226,223)" stroke-width="1.51"></path><path d="M96,179L175,254L205,217Z" fill="rgb(239,203,217)" stroke="rgb(239,203,217)" stroke-width="1.51"></path><path d="M480,-15L412,-76L435,-14Z" fill="rgb(162,123,98)" stroke="rgb(162,123,98)" stroke-width="1.51"></path><path d="M536,33L548,-23L480,-15Z" fill="rgb(130,101,69)" stroke="rgb(130,101,69)" stroke-width="1.51"></path><path d="M664,68L536,33L549,98Z" fill="rgb(140,112,94)" stroke="rgb(140,112,94)" stroke-width="1.51"></path><path d="M364,-24L342,-125L291,-16Z" fill="rgb(196,136,151)" stroke="rgb(196,136,151)" stroke-width="1.51"></path><path d="M458,-115L412,-76L480,-15Z" fill="rgb(159,121,94)" stroke="rgb(159,121,94)" stroke-width="1.51"></path><path d="M537,283L663,255L564,197Z" fill="rgb(135,174,111)" stroke="rgb(135,174,111)" stroke-width="1.51"></path><path d="M478,355L574,366L537,283Z" fill="rgb(98,162,46)" stroke="rgb(98,162,46)" stroke-width="1.51"></path><path d="M557,426L574,366L478,355Z" fill="rgb(68,134,32)" stroke="rgb(68,134,32)" stroke-width="1.51"></path><path d="M392,360L479,421L478,355Z" fill="rgb(107,165,65)" stroke="rgb(107,165,65)" stroke-width="1.51"></path><path d="M389,442L479,421L392,360Z" fill="rgb(111,161,78)" stroke="rgb(111,161,78)" stroke-width="1.51"></path><path d="M389,442L392,360L338,348Z" fill="rgb(138,179,109)" stroke="rgb(138,179,109)" stroke-width="1.51"></path><path d="M613,175L658,126L549,98Z" fill="rgb(145,149,122)" stroke="rgb(145,149,122)" stroke-width="1.51"></path><path d="M736,201L658,126L613,175Z" fill="rgb(146,163,129)" stroke="rgb(146,163,129)" stroke-width="1.51"></path><path d="M207,-10L175,33L260,47Z" fill="rgb(215,123,166)" stroke="rgb(215,123,166)" stroke-width="1.51"></path><path d="M207,-10L260,47L291,-16Z" fill="rgb(206,129,162)" stroke="rgb(206,129,162)" stroke-width="1.51"></path><path d="M276,-128L207,-10L291,-16Z" fill="rgb(201,128,158)" stroke="rgb(201,128,158)" stroke-width="1.51"></path><path d="M311,447L389,442L338,348Z" fill="rgb(136,170,117)" stroke="rgb(136,170,117)" stroke-width="1.51"></path><path d="M311,447L338,348L249,422Z" fill="rgb(143,172,132)" stroke="rgb(143,172,132)" stroke-width="1.51"></path><path d="M175,254L210,365L270,302Z" fill="rgb(201,206,161)" stroke="rgb(201,206,161)" stroke-width="1.51"></path><path d="M638,360L663,255L537,283Z" fill="rgb(98,152,62)" stroke="rgb(98,152,62)" stroke-width="1.51"></path><path d="M169,134L96,179L205,217Z" fill="rgb(243,196,221)" stroke="rgb(243,196,221)" stroke-width="1.51"></path><path d="M175,33L142,62L169,134Z" fill="rgb(228,138,187)" stroke="rgb(228,138,187)" stroke-width="1.51"></path><path d="M136,5L142,62L175,33Z" fill="rgb(212,97,157)" stroke="rgb(212,97,157)" stroke-width="1.51"></path><path d="M658,126L664,68L549,98Z" fill="rgb(140,127,108)" stroke="rgb(140,127,108)" stroke-width="1.51"></path><path d="M702,38L664,68L730,119Z" fill="rgb(136,112,97)" stroke="rgb(136,112,97)" stroke-width="1.51"></path><path d="M249,422L338,348L268,325Z" fill="rgb(163,190,138)" stroke="rgb(163,190,138)" stroke-width="1.51"></path><path d="M210,365L249,422L268,325Z" fill="rgb(163,180,135)" stroke="rgb(163,180,135)" stroke-width="1.51"></path><path d="M564,-87L458,-115L480,-15Z" fill="rgb(138,107,74)" stroke="rgb(138,107,74)" stroke-width="1.51"></path><path d="M412,-76L342,-125L364,-24Z" fill="rgb(188,135,135)" stroke="rgb(188,135,135)" stroke-width="1.51"></path><path d="M564,-87L480,-15L548,-23Z" fill="rgb(126,97,66)" stroke="rgb(126,97,66)" stroke-width="1.51"></path><path d="M479,421L557,426L478,355Z" fill="rgb(72,135,38)" stroke="rgb(72,135,38)" stroke-width="1.51"></path><path d="M574,366L638,360L537,283Z" fill="rgb(78,141,39)" stroke="rgb(78,141,39)" stroke-width="1.51"></path><path d="M538,506L557,426L479,421Z" fill="rgb(64,128,33)" stroke="rgb(64,128,33)" stroke-width="1.51"></path><path d="M663,420L638,360L574,366Z" fill="rgb(48,110,27)" stroke="rgb(48,110,27)" stroke-width="1.51"></path><path d="M638,360L685,277L663,255Z" fill="rgb(99,153,64)" stroke="rgb(99,153,64)" stroke-width="1.51"></path><path d="M736,201L730,119L658,126Z" fill="rgb(146,156,126)" stroke="rgb(146,156,126)" stroke-width="1.51"></path><path d="M85,329L162,414L210,365Z" fill="rgb(157,148,116)" stroke="rgb(157,148,116)" stroke-width="1.51"></path><path d="M84,139L96,179L169,134Z" fill="rgb(237,165,202)" stroke="rgb(237,165,202)" stroke-width="1.51"></path><path d="M458,-115L342,-125L412,-76Z" fill="rgb(177,131,118)" stroke="rgb(177,131,118)" stroke-width="1.51"></path><path d="M664,68L627,-32L536,33Z" fill="rgb(117,80,68)" stroke="rgb(117,80,68)" stroke-width="1.51"></path><path d="M627,-32L564,-87L548,-23Z" fill="rgb(109,80,59)" stroke="rgb(109,80,59)" stroke-width="1.51"></path><path d="M207,-10L136,5L175,33Z" fill="rgb(199,102,150)" stroke="rgb(199,102,150)" stroke-width="1.51"></path><path d="M142,62L84,139L169,134Z" fill="rgb(232,151,195)" stroke="rgb(232,151,195)" stroke-width="1.51"></path><path d="M161,-115L136,5L207,-10Z" fill="rgb(192,97,143)" stroke="rgb(192,97,143)" stroke-width="1.51"></path><path d="M60,50L84,139L142,62Z" fill="rgb(219,107,165)" stroke="rgb(219,107,165)" stroke-width="1.51"></path><path d="M389,442L421,501L479,421Z" fill="rgb(106,158,73)" stroke="rgb(106,158,73)" stroke-width="1.51"></path><path d="M311,447L329,488L389,442Z" fill="rgb(137,171,118)" stroke="rgb(137,171,118)" stroke-width="1.51"></path><path d="M233,483L329,488L311,447Z" fill="rgb(144,170,131)" stroke="rgb(144,170,131)" stroke-width="1.51"></path><path d="M96,179L86,244L175,254Z" fill="rgb(232,184,197)" stroke="rgb(232,184,197)" stroke-width="1.51"></path><path d="M210,365L162,414L249,422Z" fill="rgb(145,151,123)" stroke="rgb(145,151,123)" stroke-width="1.51"></path><path d="M12,214L86,244L96,179Z" fill="rgb(227,153,181)" stroke="rgb(227,153,181)" stroke-width="1.51"></path><path d="M342,-125L276,-128L291,-16Z" fill="rgb(200,136,160)" stroke="rgb(200,136,160)" stroke-width="1.51"></path><path d="M329,488L421,501L389,442Z" fill="rgb(126,167,102)" stroke="rgb(126,167,102)" stroke-width="1.51"></path><path d="M730,119L664,68L658,126Z" fill="rgb(141,132,112)" stroke="rgb(141,132,112)" stroke-width="1.51"></path><path d="M664,68L702,38L627,-32Z" fill="rgb(119,81,69)" stroke="rgb(119,81,69)" stroke-width="1.51"></path><path d="M736,201L613,175L663,255Z" fill="rgb(141,172,127)" stroke="rgb(141,172,127)" stroke-width="1.51"></path><path d="M557,426L663,420L574,366Z" fill="rgb(40,100,25)" stroke="rgb(40,100,25)" stroke-width="1.51"></path><path d="M421,501L462,505L479,421Z" fill="rgb(95,151,60)" stroke="rgb(95,151,60)" stroke-width="1.51"></path><path d="M721,376L736,201L685,277Z" fill="rgb(107,159,74)" stroke="rgb(107,159,74)" stroke-width="1.51"></path><path d="M685,277L736,201L663,255Z" fill="rgb(132,169,109)" stroke="rgb(132,169,109)" stroke-width="1.51"></path><path d="M249,422L233,483L311,447Z" fill="rgb(146,165,129)" stroke="rgb(146,165,129)" stroke-width="1.51"></path><path d="M85,329L210,365L175,254Z" fill="rgb(190,178,140)" stroke="rgb(190,178,140)" stroke-width="1.51"></path><path d="M217,478L233,483L249,422Z" fill="rgb(147,159,127)" stroke="rgb(147,159,127)" stroke-width="1.51"></path><path d="M329,488L83,506L421,501Z" fill="rgb(145,168,130)" stroke="rgb(145,168,130)" stroke-width="1.51"></path><path d="M421,501L83,506L462,505Z" fill="rgb(140,171,125)" stroke="rgb(140,171,125)" stroke-width="1.51"></path><path d="M86,244L85,329L175,254Z" fill="rgb(210,174,158)" stroke="rgb(210,174,158)" stroke-width="1.51"></path><path d="M63,288L85,329L86,244Z" fill="rgb(198,150,133)" stroke="rgb(198,150,133)" stroke-width="1.51"></path><path d="M162,414L217,478L249,422Z" fill="rgb(145,152,123)" stroke="rgb(145,152,123)" stroke-width="1.51"></path><path d="M111,451L217,478L162,414Z" fill="rgb(142,135,114)" stroke="rgb(142,135,114)" stroke-width="1.51"></path><path d="M12,214L63,288L86,244Z" fill="rgb(213,147,156)" stroke="rgb(213,147,156)" stroke-width="1.51"></path><path d="M564,-87L620,-109L458,-115Z" fill="rgb(120,92,63)" stroke="rgb(120,92,63)" stroke-width="1.51"></path><path d="M458,-115L620,-109L342,-125Z" fill="rgb(149,115,82)" stroke="rgb(149,115,82)" stroke-width="1.51"></path><path d="M627,-32L620,-109L564,-87Z" fill="rgb(103,73,57)" stroke="rgb(103,73,57)" stroke-width="1.51"></path><path d="M687,-44L620,-109L627,-32Z" fill="rgb(103,73,57)" stroke="rgb(103,73,57)" stroke-width="1.51"></path><path d="M462,505L538,506L479,421Z" fill="rgb(77,139,41)" stroke="rgb(77,139,41)" stroke-width="1.51"></path><path d="M638,360L721,376L685,277Z" fill="rgb(72,134,38)" stroke="rgb(72,134,38)" stroke-width="1.51"></path><path d="M647,479L663,420L557,426Z" fill="rgb(39,100,25)" stroke="rgb(39,100,25)" stroke-width="1.51"></path><path d="M702,38L687,-44L627,-32Z" fill="rgb(103,73,57)" stroke="rgb(103,73,57)" stroke-width="1.51"></path><path d="M702,-103L687,-44L702,38Z" fill="rgb(103,73,57)" stroke="rgb(103,73,57)" stroke-width="1.51"></path><path d="M84,139L39,138L96,179Z" fill="rgb(231,141,184)" stroke="rgb(231,141,184)" stroke-width="1.51"></path><path d="M136,5L60,50L142,62Z" fill="rgb(208,75,146)" stroke="rgb(208,75,146)" stroke-width="1.51"></path><path d="M55,-25L60,50L136,5Z" fill="rgb(181,45,117)" stroke="rgb(181,45,117)" stroke-width="1.51"></path><path d="M60,50L39,138L84,139Z" fill="rgb(219,107,165)" stroke="rgb(219,107,165)" stroke-width="1.51"></path><path d="M276,-128L161,-115L207,-10Z" fill="rgb(198,115,153)" stroke="rgb(198,115,153)" stroke-width="1.51"></path><path d="M663,420L721,376L638,360Z" fill="rgb(46,108,27)" stroke="rgb(46,108,27)" stroke-width="1.51"></path><path d="M63,288L41,344L85,329Z" fill="rgb(174,129,101)" stroke="rgb(174,129,101)" stroke-width="1.51"></path><path d="M39,138L12,214L96,179Z" fill="rgb(224,141,177)" stroke="rgb(224,141,177)" stroke-width="1.51"></path><path d="M-28,211L12,214L39,138Z" fill="rgb(204,134,162)" stroke="rgb(204,134,162)" stroke-width="1.51"></path><path d="M538,506L647,479L557,426Z" fill="rgb(45,107,27)" stroke="rgb(45,107,27)" stroke-width="1.51"></path><path d="M663,420L742,409L721,376Z" fill="rgb(39,100,25)" stroke="rgb(39,100,25)" stroke-width="1.51"></path><path d="M-15,289L41,344L63,288Z" fill="rgb(168,125,99)" stroke="rgb(168,125,99)" stroke-width="1.51"></path><path d="M85,329L111,451L162,414Z" fill="rgb(138,116,99)" stroke="rgb(138,116,99)" stroke-width="1.51"></path><path d="M85,-112L55,-25L136,5Z" fill="rgb(176,50,116)" stroke="rgb(176,50,116)" stroke-width="1.51"></path><path d="M-63,141L-28,211L39,138Z" fill="rgb(201,125,157)" stroke="rgb(201,125,157)" stroke-width="1.51"></path><path d="M217,478L83,506L233,483Z" fill="rgb(143,142,118)" stroke="rgb(143,142,118)" stroke-width="1.51"></path><path d="M41,344L111,451L85,329Z" fill="rgb(145,109,89)" stroke="rgb(145,109,89)" stroke-width="1.51"></path><path d="M687,-44L702,-103L620,-109Z" fill="rgb(103,73,57)" stroke="rgb(103,73,57)" stroke-width="1.51"></path><path d="M730,119L702,-103L702,38Z" fill="rgb(114,78,66)" stroke="rgb(114,78,66)" stroke-width="1.51"></path><path d="M736,521L742,409L663,420Z" fill="rgb(39,100,25)" stroke="rgb(39,100,25)" stroke-width="1.51"></path><path d="M721,376L742,409L736,201Z" fill="rgb(77,139,41)" stroke="rgb(77,139,41)" stroke-width="1.51"></path><path d="M161,-115L85,-112L136,5Z" fill="rgb(184,74,129)" stroke="rgb(184,74,129)" stroke-width="1.51"></path><path d="M-12,-124L85,-112L161,-115Z" fill="rgb(173,37,110)" stroke="rgb(173,37,110)" stroke-width="1.51"></path><path d="M-33,37L60,50L55,-25Z" fill="rgb(168,14,102)" stroke="rgb(168,14,102)" stroke-width="1.51"></path><path d="M-33,37L39,138L60,50Z" fill="rgb(191,69,132)" stroke="rgb(191,69,132)" stroke-width="1.51"></path><path d="M12,214L-15,289L63,288Z" fill="rgb(189,137,130)" stroke="rgb(189,137,130)" stroke-width="1.51"></path><path d="M-28,211L-15,289L12,214Z" fill="rgb(193,136,144)" stroke="rgb(193,136,144)" stroke-width="1.51"></path><path d="M11,451L83,506L111,451Z" fill="rgb(130,89,80)" stroke="rgb(130,89,80)" stroke-width="1.51"></path><path d="M-44,-40L-33,37L55,-25Z" fill="rgb(142,1,82)" stroke="rgb(142,1,82)" stroke-width="1.51"></path><path d="M111,451L83,506L217,478Z" fill="rgb(139,123,105)" stroke="rgb(139,123,105)" stroke-width="1.51"></path><path d="M233,483L83,506L329,488Z" fill="rgb(145,154,124)" stroke="rgb(145,154,124)" stroke-width="1.51"></path><path d="M462,505L736,521L538,506Z" fill="rgb(46,108,27)" stroke="rgb(46,108,27)" stroke-width="1.51"></path><path d="M11,451L111,451L41,344Z" fill="rgb(126,84,75)" stroke="rgb(126,84,75)" stroke-width="1.51"></path><path d="M-15,289L-36,323L41,344Z" fill="rgb(147,114,80)" stroke="rgb(147,114,80)" stroke-width="1.51"></path><path d="M-117,246L-36,323L-15,289Z" fill="rgb(168,127,104)" stroke="rgb(168,127,104)" stroke-width="1.51"></path><path d="M-117,246L-15,289L-28,211Z" fill="rgb(188,135,135)" stroke="rgb(188,135,135)" stroke-width="1.51"></path><path d="M-33,37L-63,141L39,138Z" fill="rgb(190,91,140)" stroke="rgb(190,91,140)" stroke-width="1.51"></path><path d="M85,-112L31,-109L55,-25Z" fill="rgb(168,14,102)" stroke="rgb(168,14,102)" stroke-width="1.51"></path><path d="M-12,-124L31,-109L85,-112Z" fill="rgb(157,8,94)" stroke="rgb(157,8,94)" stroke-width="1.51"></path><path d="M-20,443L11,451L41,344Z" fill="rgb(107,75,60)" stroke="rgb(107,75,60)" stroke-width="1.51"></path><path d="M12,511L736,521L462,505Z" fill="rgb(117,163,88)" stroke="rgb(117,163,88)" stroke-width="1.51"></path><path d="M538,506L736,521L647,479Z" fill="rgb(39,100,25)" stroke="rgb(39,100,25)" stroke-width="1.51"></path><path d="M647,479L736,521L663,420Z" fill="rgb(39,100,25)" stroke="rgb(39,100,25)" stroke-width="1.51"></path><path d="M-119,106L-106,185L-63,141Z" fill="rgb(198,116,153)" stroke="rgb(198,116,153)" stroke-width="1.51"></path><path d="M31,-109L-44,-40L55,-25Z" fill="rgb(148,4,87)" stroke="rgb(148,4,87)" stroke-width="1.51"></path><path d="M-130,377L-20,443L-36,323Z" fill="rgb(112,83,60)" stroke="rgb(112,83,60)" stroke-width="1.51"></path><path d="M-36,323L-20,443L41,344Z" fill="rgb(118,89,62)" stroke="rgb(118,89,62)" stroke-width="1.51"></path><path d="M11,451L12,511L83,506Z" fill="rgb(118,80,69)" stroke="rgb(118,80,69)" stroke-width="1.51"></path><path d="M-63,141L-106,185L-28,211Z" fill="rgb(200,130,159)" stroke="rgb(200,130,159)" stroke-width="1.51"></path><path d="M-119,106L-63,141L-33,37Z" fill="rgb(187,83,134)" stroke="rgb(187,83,134)" stroke-width="1.51"></path><path d="M31,-109L-12,-124L-44,-40Z" fill="rgb(142,1,82)" stroke="rgb(142,1,82)" stroke-width="1.51"></path><path d="M276,-128L-12,-124L161,-115Z" fill="rgb(186,82,134)" stroke="rgb(186,82,134)" stroke-width="1.51"></path><path d="M-34,487L12,511L11,451Z" fill="rgb(103,73,57)" stroke="rgb(103,73,57)" stroke-width="1.51"></path><path d="M83,506L12,511L462,505Z" fill="rgb(144,144,120)" stroke="rgb(144,144,120)" stroke-width="1.51"></path><path d="M-106,185L-117,246L-28,211Z" fill="rgb(197,136,154)" stroke="rgb(197,136,154)" stroke-width="1.51"></path><path d="M-20,443L-34,487L11,451Z" fill="rgb(103,73,57)" stroke="rgb(103,73,57)" stroke-width="1.51"></path><path d="M-130,72L-119,106L-33,37Z" fill="rgb(180,61,122)" stroke="rgb(180,61,122)" stroke-width="1.51"></path><path d="M-106,185L-119,106L-117,246Z" fill="rgb(200,130,159)" stroke="rgb(200,130,159)" stroke-width="1.51"></path><path d="M-92,-41L-33,37L-44,-40Z" fill="rgb(142,1,82)" stroke="rgb(142,1,82)" stroke-width="1.51"></path><path d="M-90,491L-34,487L-20,443Z" fill="rgb(103,73,57)" stroke="rgb(103,73,57)" stroke-width="1.51"></path><path d="M-12,-124L-92,-41L-44,-40Z" fill="rgb(142,1,82)" stroke="rgb(142,1,82)" stroke-width="1.51"></path><path d="M-92,-41L-130,72L-33,37Z" fill="rgb(157,8,94)" stroke="rgb(157,8,94)" stroke-width="1.51"></path><path d="M-119,106L-130,72L-117,246Z" fill="rgb(198,114,152)" stroke="rgb(198,114,152)" stroke-width="1.51"></path><path d="M-117,246L-130,377L-36,323Z" fill="rgb(149,115,82)" stroke="rgb(149,115,82)" stroke-width="1.51"></path><path d="M-130,72L-130,377L-117,246Z" fill="rgb(194,136,146)" stroke="rgb(194,136,146)" stroke-width="1.51"></path><path d="M-130,377L-115,443L-20,443Z" fill="rgb(103,73,57)" stroke="rgb(103,73,57)" stroke-width="1.51"></path><path d="M-34,487L-90,491L12,511Z" fill="rgb(103,73,57)" stroke="rgb(103,73,57)" stroke-width="1.51"></path><path d="M-115,443L-90,491L-20,443Z" fill="rgb(103,73,57)" stroke="rgb(103,73,57)" stroke-width="1.51"></path><path d="M-12,-124L-130,-119L-92,-41Z" fill="rgb(142,1,82)" stroke="rgb(142,1,82)" stroke-width="1.51"></path><path d="M-92,-41L-130,-119L-130,72Z" fill="rgb(142,1,82)" stroke="rgb(142,1,82)" stroke-width="1.51"></path></svg>