<svg width="600" height="400" xmlns="http://www.w3.org/2000/svg"><path d="M333,214L385,268L423,202Z" fill="rgb(241,70,50)" stroke="rgb(241,70,50)" stroke-width="1.51"></path><path d="M423,202L368,147L333,214Z" fill="rgb(246,90,64)" stroke="rgb(246,90,64)" stroke-width="1.51"></path><path d="M423,202L418,144L368,147Z" fill="rgb(240,96,69)" stroke="rgb(240,96,69)" stroke-width="1.51"></path><path d="M333,214L316,305L385,268Z" fill="rgb(237,66,48)" stroke="rgb(237,66,48)" stroke-width="1.51"></path><path d="M333,214L290,305L316,305Z" fill="rgb(235,74,52)" stroke="rgb(235,74,52)" stroke-width="1.51"></path><path d="M385,268L473,304L423,202Z" fill="rgb(223,45,38)" stroke="rgb(223,45,38)" stroke-width="1.51"></path><path d="M423,202L517,168L418,144Z" fill="rgb(228,85,62)" stroke="rgb(228,85,62)" stroke-width="1.51"></path><path d="M430,378L473,304L385,268Z" fill="rgb(201,28,29)" stroke="rgb(201,28,29)" stroke-width="1.51"></path><path d="M368,147L264,153L333,214Z" fill="rgb(250,113,81)" stroke="rgb(250,113,81)" stroke-width="1.51"></path><path d="M333,214L245,181L290,305Z" fill="rgb(247,95,67)" stroke="rgb(247,95,67)" stroke-width="1.51"></path><path d="M291,56L264,153L368,147Z" fill="rgb(253,139,106)" stroke="rgb(253,139,106)" stroke-width="1.51"></path><path d="M264,153L245,181L333,214Z" fill="rgb(252,119,86)" stroke="rgb(252,119,86)" stroke-width="1.51"></path><path d="M316,305L338,358L385,268Z" fill="rgb(219,54,41)" stroke="rgb(219,54,41)" stroke-width="1.51"></path><path d="M290,305L338,358L316,305Z" fill="rgb(217,64,46)" stroke="rgb(217,64,46)" stroke-width="1.51"></path><path d="M473,304L517,168L423,202Z" fill="rgb(218,57,43)" stroke="rgb(218,57,43)" stroke-width="1.51"></path><path d="M418,144L359,60L368,147Z" fill="rgb(248,121,93)" stroke="rgb(248,121,93)" stroke-width="1.51"></path><path d="M517,168L468,103L418,144Z" fill="rgb(226,99,74)" stroke="rgb(226,99,74)" stroke-width="1.51"></path><path d="M400,30L359,60L418,144Z" fill="rgb(249,135,109)" stroke="rgb(249,135,109)" stroke-width="1.51"></path><path d="M338,358L430,378L385,268Z" fill="rgb(205,38,32)" stroke="rgb(205,38,32)" stroke-width="1.51"></path><path d="M245,181L206,211L290,305Z" fill="rgb(248,108,78)" stroke="rgb(248,108,78)" stroke-width="1.51"></path><path d="M188,108L206,211L245,181Z" fill="rgb(252,143,111)" stroke="rgb(252,143,111)" stroke-width="1.51"></path><path d="M473,304L539,295L517,168Z" fill="rgb(204,38,32)" stroke="rgb(204,38,32)" stroke-width="1.51"></path><path d="M505,377L539,295L473,304Z" fill="rgb(179,18,24)" stroke="rgb(179,18,24)" stroke-width="1.51"></path><path d="M468,103L400,30L418,144Z" fill="rgb(238,124,98)" stroke="rgb(238,124,98)" stroke-width="1.51"></path><path d="M563,97L485,74L468,103Z" fill="rgb(219,115,92)" stroke="rgb(219,115,92)" stroke-width="1.51"></path><path d="M264,153L188,108L245,181Z" fill="rgb(252,145,113)" stroke="rgb(252,145,113)" stroke-width="1.51"></path><path d="M359,60L291,56L368,147Z" fill="rgb(254,143,114)" stroke="rgb(254,143,114)" stroke-width="1.51"></path><path d="M206,211L205,291L290,305Z" fill="rgb(240,100,73)" stroke="rgb(240,100,73)" stroke-width="1.51"></path><path d="M290,305L237,354L338,358Z" fill="rgb(212,71,51)" stroke="rgb(212,71,51)" stroke-width="1.51"></path><path d="M485,74L400,30L468,103Z" fill="rgb(235,129,106)" stroke="rgb(235,129,106)" stroke-width="1.51"></path><path d="M359,60L339,-25L291,56Z" fill="rgb(255,164,139)" stroke="rgb(255,164,139)" stroke-width="1.51"></path><path d="M205,291L237,354L290,305Z" fill="rgb(222,87,64)" stroke="rgb(222,87,64)" stroke-width="1.51"></path><path d="M338,358L416,433L430,378Z" fill="rgb(170,27,27)" stroke="rgb(170,27,27)" stroke-width="1.51"></path><path d="M430,378L505,377L473,304Z" fill="rgb(177,18,24)" stroke="rgb(177,18,24)" stroke-width="1.51"></path><path d="M237,354L315,412L338,358Z" fill="rgb(191,62,46)" stroke="rgb(191,62,46)" stroke-width="1.51"></path><path d="M430,378L454,448L505,377Z" fill="rgb(148,9,21)" stroke="rgb(148,9,21)" stroke-width="1.51"></path><path d="M539,295L588,223L517,168Z" fill="rgb(193,48,37)" stroke="rgb(193,48,37)" stroke-width="1.51"></path><path d="M517,168L563,97L468,103Z" fill="rgb(214,101,78)" stroke="rgb(214,101,78)" stroke-width="1.51"></path><path d="M662,252L588,223L653,323Z" fill="rgb(163,24,26)" stroke="rgb(163,24,26)" stroke-width="1.51"></path><path d="M315,412L416,433L338,358Z" fill="rgb(170,37,32)" stroke="rgb(170,37,32)" stroke-width="1.51"></path><path d="M454,448L534,379L505,377Z" fill="rgb(140,7,19)" stroke="rgb(140,7,19)" stroke-width="1.51"></path><path d="M505,377L534,379L539,295Z" fill="rgb(164,15,21)" stroke="rgb(164,15,21)" stroke-width="1.51"></path><path d="M625,194L563,97L517,168Z" fill="rgb(190,81,62)" stroke="rgb(190,81,62)" stroke-width="1.51"></path><path d="M434,-58L339,-25L400,30Z" fill="rgb(255,157,136)" stroke="rgb(255,157,136)" stroke-width="1.51"></path><path d="M291,56L188,108L264,153Z" fill="rgb(253,158,129)" stroke="rgb(253,158,129)" stroke-width="1.51"></path><path d="M104,243L181,360L205,291Z" fill="rgb(232,114,89)" stroke="rgb(232,114,89)" stroke-width="1.51"></path><path d="M416,433L454,448L430,378Z" fill="rgb(155,15,23)" stroke="rgb(155,15,23)" stroke-width="1.51"></path><path d="M423,516L454,448L416,433Z" fill="rgb(156,16,23)" stroke="rgb(156,16,23)" stroke-width="1.51"></path><path d="M237,354L231,433L315,412Z" fill="rgb(175,67,52)" stroke="rgb(175,67,52)" stroke-width="1.51"></path><path d="M205,291L181,360L237,354Z" fill="rgb(216,96,72)" stroke="rgb(216,96,72)" stroke-width="1.51"></path><path d="M104,243L205,291L206,211Z" fill="rgb(249,124,95)" stroke="rgb(249,124,95)" stroke-width="1.51"></path><path d="M588,223L625,194L517,168Z" fill="rgb(185,61,45)" stroke="rgb(185,61,45)" stroke-width="1.51"></path><path d="M662,252L625,194L588,223Z" fill="rgb(172,45,36)" stroke="rgb(172,45,36)" stroke-width="1.51"></path><path d="M239,-52L213,37L291,56Z" fill="rgb(255,187,165)" stroke="rgb(255,187,165)" stroke-width="1.51"></path><path d="M291,56L213,37L188,108Z" fill="rgb(255,177,151)" stroke="rgb(255,177,151)" stroke-width="1.51"></path><path d="M400,30L339,-25L359,60Z" fill="rgb(255,158,134)" stroke="rgb(255,158,134)" stroke-width="1.51"></path><path d="M434,-58L400,30L502,-47Z" fill="rgb(242,148,129)" stroke="rgb(242,148,129)" stroke-width="1.51"></path><path d="M563,97L565,41L485,74Z" fill="rgb(210,119,100)" stroke="rgb(210,119,100)" stroke-width="1.51"></path><path d="M631,76L565,41L563,97Z" fill="rgb(187,110,95)" stroke="rgb(187,110,95)" stroke-width="1.51"></path><path d="M181,360L231,433L237,354Z" fill="rgb(188,84,65)" stroke="rgb(188,84,65)" stroke-width="1.51"></path><path d="M315,412L293,494L416,433Z" fill="rgb(171,43,34)" stroke="rgb(171,43,34)" stroke-width="1.51"></path><path d="M625,194L616,109L563,97Z" fill="rgb(177,84,67)" stroke="rgb(177,84,67)" stroke-width="1.51"></path><path d="M81,200L206,211L188,108Z" fill="rgb(253,156,125)" stroke="rgb(253,156,125)" stroke-width="1.51"></path><path d="M81,200L104,243L206,211Z" fill="rgb(254,147,117)" stroke="rgb(254,147,117)" stroke-width="1.51"></path><path d="M699,171L631,76L616,109Z" fill="rgb(178,90,74)" stroke="rgb(178,90,74)" stroke-width="1.51"></path><path d="M653,323L588,223L539,295Z" fill="rgb(161,19,25)" stroke="rgb(161,19,25)" stroke-width="1.51"></path><path d="M502,-47L400,30L485,74Z" fill="rgb(237,142,123)" stroke="rgb(237,142,123)" stroke-width="1.51"></path><path d="M231,433L293,494L315,412Z" fill="rgb(175,62,47)" stroke="rgb(175,62,47)" stroke-width="1.51"></path><path d="M565,41L502,-47L485,74Z" fill="rgb(222,135,117)" stroke="rgb(222,135,117)" stroke-width="1.51"></path><path d="M616,109L631,76L563,97Z" fill="rgb(179,100,84)" stroke="rgb(179,100,84)" stroke-width="1.51"></path><path d="M699,171L616,109L625,194Z" fill="rgb(176,74,58)" stroke="rgb(176,74,58)" stroke-width="1.51"></path><path d="M534,379L653,323L539,295Z" fill="rgb(150,10,20)" stroke="rgb(150,10,20)" stroke-width="1.51"></path><path d="M595,431L653,323L534,379Z" fill="rgb(119,3,16)" stroke="rgb(119,3,16)" stroke-width="1.51"></path><path d="M590,-55L502,-47L565,41Z" fill="rgb(208,134,121)" stroke="rgb(208,134,121)" stroke-width="1.51"></path><path d="M231,433L206,481L293,494Z" fill="rgb(176,72,56)" stroke="rgb(176,72,56)" stroke-width="1.51"></path><path d="M181,360L173,435L231,433Z" fill="rgb(177,86,69)" stroke="rgb(177,86,69)" stroke-width="1.51"></path><path d="M79,373L173,435L181,360Z" fill="rgb(186,102,84)" stroke="rgb(186,102,84)" stroke-width="1.51"></path><path d="M454,448L595,431L534,379Z" fill="rgb(132,5,18)" stroke="rgb(132,5,18)" stroke-width="1.51"></path><path d="M319,531L423,516L416,433Z" fill="rgb(166,27,28)" stroke="rgb(166,27,28)" stroke-width="1.51"></path><path d="M90,107L81,200L188,108Z" fill="rgb(254,179,153)" stroke="rgb(254,179,153)" stroke-width="1.51"></path><path d="M104,243L57,305L181,360Z" fill="rgb(234,126,103)" stroke="rgb(234,126,103)" stroke-width="1.51"></path><path d="M213,37L108,60L188,108Z" fill="rgb(254,193,170)" stroke="rgb(254,193,170)" stroke-width="1.51"></path><path d="M239,-52L185,-7L213,37Z" fill="rgb(255,199,180)" stroke="rgb(255,199,180)" stroke-width="1.51"></path><path d="M239,-52L291,56L339,-25Z" fill="rgb(255,180,157)" stroke="rgb(255,180,157)" stroke-width="1.51"></path><path d="M530,523L595,431L454,448Z" fill="rgb(133,6,18)" stroke="rgb(133,6,18)" stroke-width="1.51"></path><path d="M662,252L699,171L625,194Z" fill="rgb(174,53,41)" stroke="rgb(174,53,41)" stroke-width="1.51"></path><path d="M653,323L683,258L662,252Z" fill="rgb(159,20,25)" stroke="rgb(159,20,25)" stroke-width="1.51"></path><path d="M317,-120L239,-52L339,-25Z" fill="rgb(255,178,155)" stroke="rgb(255,178,155)" stroke-width="1.51"></path><path d="M108,60L90,107L188,108Z" fill="rgb(253,196,172)" stroke="rgb(253,196,172)" stroke-width="1.51"></path><path d="M423,516L463,522L454,448Z" fill="rgb(152,11,22)" stroke="rgb(152,11,22)" stroke-width="1.51"></path><path d="M173,435L206,481L231,433Z" fill="rgb(177,83,66)" stroke="rgb(177,83,66)" stroke-width="1.51"></path><path d="M293,494L319,531L416,433Z" fill="rgb(171,42,34)" stroke="rgb(171,42,34)" stroke-width="1.51"></path><path d="M206,481L319,531L293,494Z" fill="rgb(175,64,49)" stroke="rgb(175,64,49)" stroke-width="1.51"></path><path d="M423,516L319,531L463,522Z" fill="rgb(162,24,26)" stroke="rgb(162,24,26)" stroke-width="1.51"></path><path d="M185,-7L108,60L213,37Z" fill="rgb(255,204,185)" stroke="rgb(255,204,185)" stroke-width="1.51"></path><path d="M683,258L699,171L662,252Z" fill="rgb(171,43,35)" stroke="rgb(171,43,35)" stroke-width="1.51"></path><path d="M434,-58L400,-103L339,-25Z" fill="rgb(255,157,136)" stroke="rgb(255,157,136)" stroke-width="1.51"></path><path d="M502,-100L400,-103L434,-58Z" fill="rgb(242,148,129)" stroke="rgb(242,148,129)" stroke-width="1.51"></path><path d="M90,107L49,180L81,200Z" fill="rgb(255,181,156)" stroke="rgb(255,181,156)" stroke-width="1.51"></path><path d="M81,200L57,305L104,243Z" fill="rgb(255,148,122)" stroke="rgb(255,148,122)" stroke-width="1.51"></path><path d="M11,118L49,180L90,107Z" fill="rgb(255,195,173)" stroke="rgb(255,195,173)" stroke-width="1.51"></path><path d="M49,180L57,305L81,200Z" fill="rgb(255,159,133)" stroke="rgb(255,159,133)" stroke-width="1.51"></path><path d="M173,435L106,509L206,481Z" fill="rgb(178,95,79)" stroke="rgb(178,95,79)" stroke-width="1.51"></path><path d="M57,305L79,373L181,360Z" fill="rgb(217,122,101)" stroke="rgb(217,122,101)" stroke-width="1.51"></path><path d="M319,531L530,523L463,522Z" fill="rgb(154,14,22)" stroke="rgb(154,14,22)" stroke-width="1.51"></path><path d="M463,522L530,523L454,448Z" fill="rgb(143,8,20)" stroke="rgb(143,8,20)" stroke-width="1.51"></path><path d="M653,323L702,321L683,258Z" fill="rgb(151,10,21)" stroke="rgb(151,10,21)" stroke-width="1.51"></path><path d="M683,258L739,158L699,171Z" fill="rgb(174,58,44)" stroke="rgb(174,58,44)" stroke-width="1.51"></path><path d="M670,429L702,321L653,323Z" fill="rgb(128,5,17)" stroke="rgb(128,5,17)" stroke-width="1.51"></path><path d="M670,429L653,323L595,431Z" fill="rgb(106,0,14)" stroke="rgb(106,0,14)" stroke-width="1.51"></path><path d="M631,76L610,-32L565,41Z" fill="rgb(184,120,109)" stroke="rgb(184,120,109)" stroke-width="1.51"></path><path d="M502,-47L502,-100L434,-58Z" fill="rgb(233,144,127)" stroke="rgb(233,144,127)" stroke-width="1.51"></path><path d="M693,-26L610,-32L631,76Z" fill="rgb(185,124,115)" stroke="rgb(185,124,115)" stroke-width="1.51"></path><path d="M590,-55L502,-100L502,-47Z" fill="rgb(218,138,122)" stroke="rgb(218,138,122)" stroke-width="1.51"></path><path d="M400,-103L317,-120L339,-25Z" fill="rgb(255,165,143)" stroke="rgb(255,165,143)" stroke-width="1.51"></path><path d="M239,-52L204,-85L185,-7Z" fill="rgb(255,200,181)" stroke="rgb(255,200,181)" stroke-width="1.51"></path><path d="M502,-100L317,-120L400,-103Z" fill="rgb(252,154,134)" stroke="rgb(252,154,134)" stroke-width="1.51"></path><path d="M610,-32L590,-55L565,41Z" fill="rgb(190,128,118)" stroke="rgb(190,128,118)" stroke-width="1.51"></path><path d="M273,-124L204,-85L239,-52Z" fill="rgb(255,192,172)" stroke="rgb(255,192,172)" stroke-width="1.51"></path><path d="M185,-7L95,-34L108,60Z" fill="rgb(255,219,205)" stroke="rgb(255,219,205)" stroke-width="1.51"></path><path d="M654,487L670,429L595,431Z" fill="rgb(103,0,13)" stroke="rgb(103,0,13)" stroke-width="1.51"></path><path d="M317,-120L273,-124L239,-52Z" fill="rgb(255,183,161)" stroke="rgb(255,183,161)" stroke-width="1.51"></path><path d="M206,481L106,509L319,531Z" fill="rgb(176,81,65)" stroke="rgb(176,81,65)" stroke-width="1.51"></path><path d="M79,373L93,445L173,435Z" fill="rgb(180,106,92)" stroke="rgb(180,106,92)" stroke-width="1.51"></path><path d="M15,439L93,445L79,373Z" fill="rgb(183,118,106)" stroke="rgb(183,118,106)" stroke-width="1.51"></path><path d="M699,171L739,69L631,76Z" fill="rgb(178,96,79)" stroke="rgb(178,96,79)" stroke-width="1.51"></path><path d="M702,321L739,158L683,258Z" fill="rgb(169,32,30)" stroke="rgb(169,32,30)" stroke-width="1.51"></path><path d="M57,305L24,337L79,373Z" fill="rgb(223,134,115)" stroke="rgb(223,134,115)" stroke-width="1.51"></path><path d="M-32,278L24,337L57,305Z" fill="rgb(238,143,125)" stroke="rgb(238,143,125)" stroke-width="1.51"></path><path d="M530,523L654,487L595,431Z" fill="rgb(106,0,14)" stroke="rgb(106,0,14)" stroke-width="1.51"></path><path d="M670,429L728,435L702,321Z" fill="rgb(106,0,14)" stroke="rgb(106,0,14)" stroke-width="1.51"></path><path d="M204,-85L95,-34L185,-7Z" fill="rgb(255,213,196)" stroke="rgb(255,213,196)" stroke-width="1.51"></path><path d="M8,68L11,118L90,107Z" fill="rgb(255,212,194)" stroke="rgb(255,212,194)" stroke-width="1.51"></path><path d="M104,-124L95,-34L204,-85Z" fill="rgb(255,220,205)" stroke="rgb(255,220,205)" stroke-width="1.51"></path><path d="M590,-55L592,-97L502,-100Z" fill="rgb(203,133,120)" stroke="rgb(203,133,120)" stroke-width="1.51"></path><path d="M502,-100L654,-128L317,-120Z" fill="rgb(230,143,126)" stroke="rgb(230,143,126)" stroke-width="1.51"></path><path d="M317,-120L654,-128L273,-124Z" fill="rgb(250,153,133)" stroke="rgb(250,153,133)" stroke-width="1.51"></path><path d="M610,-32L592,-97L590,-55Z" fill="rgb(186,126,117)" stroke="rgb(186,126,117)" stroke-width="1.51"></path><path d="M654,-128L592,-97L610,-32Z" fill="rgb(185,126,117)" stroke="rgb(185,126,117)" stroke-width="1.51"></path><path d="M49,180L-32,278L57,305Z" fill="rgb(255,155,133)" stroke="rgb(255,155,133)" stroke-width="1.51"></path><path d="M8,68L90,107L108,60Z" fill="rgb(254,214,197)" stroke="rgb(254,214,197)" stroke-width="1.51"></path><path d="M739,158L739,69L699,171Z" fill="rgb(177,84,68)" stroke="rgb(177,84,68)" stroke-width="1.51"></path><path d="M95,-34L57,-1L108,60Z" fill="rgb(255,229,218)" stroke="rgb(255,229,218)" stroke-width="1.51"></path><path d="M93,445L106,509L173,435Z" fill="rgb(180,104,89)" stroke="rgb(180,104,89)" stroke-width="1.51"></path><path d="M58,500L106,509L93,445Z" fill="rgb(182,113,100)" stroke="rgb(182,113,100)" stroke-width="1.51"></path><path d="M739,69L693,-26L631,76Z" fill="rgb(183,118,106)" stroke="rgb(183,118,106)" stroke-width="1.51"></path><path d="M11,118L-25,192L49,180Z" fill="rgb(255,190,167)" stroke="rgb(255,190,167)" stroke-width="1.51"></path><path d="M57,-1L8,68L108,60Z" fill="rgb(254,228,216)" stroke="rgb(254,228,216)" stroke-width="1.51"></path><path d="M-54,107L-25,192L11,118Z" fill="rgb(255,200,181)" stroke="rgb(255,200,181)" stroke-width="1.51"></path><path d="M654,487L728,435L670,429Z" fill="rgb(103,0,13)" stroke="rgb(103,0,13)" stroke-width="1.51"></path><path d="M702,321L728,435L739,158Z" fill="rgb(150,9,21)" stroke="rgb(150,9,21)" stroke-width="1.51"></path><path d="M24,337L-9,375L79,373Z" fill="rgb(211,132,116)" stroke="rgb(211,132,116)" stroke-width="1.51"></path><path d="M-25,192L-32,278L49,180Z" fill="rgb(255,172,149)" stroke="rgb(255,172,149)" stroke-width="1.51"></path><path d="M-32,278L-9,375L24,337Z" fill="rgb(229,142,125)" stroke="rgb(229,142,125)" stroke-width="1.51"></path><path d="M-9,375L15,439L79,373Z" fill="rgb(187,123,112)" stroke="rgb(187,123,112)" stroke-width="1.51"></path><path d="M15,439L58,500L93,445Z" fill="rgb(183,118,107)" stroke="rgb(183,118,107)" stroke-width="1.51"></path><path d="M-54,42L-54,107L8,68Z" fill="rgb(255,226,214)" stroke="rgb(255,226,214)" stroke-width="1.51"></path><path d="M65,-132L-31,-6L57,-1Z" fill="rgb(255,240,234)" stroke="rgb(255,240,234)" stroke-width="1.51"></path><path d="M273,-124L104,-124L204,-85Z" fill="rgb(255,204,185)" stroke="rgb(255,204,185)" stroke-width="1.51"></path><path d="M592,-97L654,-128L502,-100Z" fill="rgb(193,129,119)" stroke="rgb(193,129,119)" stroke-width="1.51"></path><path d="M273,-124L65,-132L104,-124Z" fill="rgb(255,216,201)" stroke="rgb(255,216,201)" stroke-width="1.51"></path><path d="M693,-26L654,-128L610,-32Z" fill="rgb(185,126,117)" stroke="rgb(185,126,117)" stroke-width="1.51"></path><path d="M743,-128L654,-128L693,-26Z" fill="rgb(185,126,117)" stroke="rgb(185,126,117)" stroke-width="1.51"></path><path d="M-25,192L-99,275L-32,278Z" fill="rgb(255,160,138)" stroke="rgb(255,160,138)" stroke-width="1.51"></path><path d="M8,68L-54,107L11,118Z" fill="rgb(255,217,201)" stroke="rgb(255,217,201)" stroke-width="1.51"></path><path d="M-54,42L8,68L-31,-6Z" fill="rgb(255,237,229)" stroke="rgb(255,237,229)" stroke-width="1.51"></path><path d="M654,487L741,491L728,435Z" fill="rgb(103,0,13)" stroke="rgb(103,0,13)" stroke-width="1.51"></path><path d="M728,435L741,491L739,158Z" fill="rgb(126,4,17)" stroke="rgb(126,4,17)" stroke-width="1.51"></path><path d="M739,158L743,-128L739,69Z" fill="rgb(183,119,108)" stroke="rgb(183,119,108)" stroke-width="1.51"></path><path d="M530,523L741,491L654,487Z" fill="rgb(103,0,13)" stroke="rgb(103,0,13)" stroke-width="1.51"></path><path d="M-31,-6L8,68L57,-1Z" fill="rgb(255,239,231)" stroke="rgb(255,239,231)" stroke-width="1.51"></path><path d="M65,-132L57,-1L95,-34Z" fill="rgb(255,235,225)" stroke="rgb(255,235,225)" stroke-width="1.51"></path><path d="M104,-124L65,-132L95,-34Z" fill="rgb(255,231,220)" stroke="rgb(255,231,220)" stroke-width="1.51"></path><path d="M654,-128L65,-132L273,-124Z" fill="rgb(255,170,148)" stroke="rgb(255,170,148)" stroke-width="1.51"></path><path d="M-9,375L-48,452L15,439Z" fill="rgb(185,126,117)" stroke="rgb(185,126,117)" stroke-width="1.51"></path><path d="M-32,278L-100,351L-9,375Z" fill="rgb(227,141,125)" stroke="rgb(227,141,125)" stroke-width="1.51"></path><path d="M-141,213L-99,275L-25,192Z" fill="rgb(255,168,146)" stroke="rgb(255,168,146)" stroke-width="1.51"></path><path d="M-111,142L-25,192L-54,107Z" fill="rgb(255,197,177)" stroke="rgb(255,197,177)" stroke-width="1.51"></path><path d="M-100,351L-48,452L-9,375Z" fill="rgb(190,128,118)" stroke="rgb(190,128,118)" stroke-width="1.51"></path><path d="M15,439L-24,508L58,500Z" fill="rgb(184,123,114)" stroke="rgb(184,123,114)" stroke-width="1.51"></path><path d="M-48,452L-24,508L15,439Z" fill="rgb(185,126,117)" stroke="rgb(185,126,117)" stroke-width="1.51"></path><path d="M58,500L-24,508L106,509Z" fill="rgb(184,119,108)" stroke="rgb(184,119,108)" stroke-width="1.51"></path><path d="M106,509L-24,508L319,531Z" fill="rgb(179,102,87)" stroke="rgb(179,102,87)" stroke-width="1.51"></path><path d="M-48,452L-121,481L-24,508Z" fill="rgb(185,126,117)" stroke="rgb(185,126,117)" stroke-width="1.51"></path><path d="M-99,275L-100,351L-32,278Z" fill="rgb(241,147,129)" stroke="rgb(241,147,129)" stroke-width="1.51"></path><path d="M-117,17L-111,142L-54,107Z" fill="rgb(255,220,206)" stroke="rgb(255,220,206)" stroke-width="1.51"></path><path d="M-99,275L-141,213L-100,351Z" fill="rgb(249,152,132)" stroke="rgb(249,152,132)" stroke-width="1.51"></path><path d="M-117,17L-54,107L-54,42Z" fill="rgb(255,232,222)" stroke="rgb(255,232,222)" stroke-width="1.51"></path><path d="M739,69L743,-128L693,-26Z" fill="rgb(185,126,117)" stroke="rgb(185,126,117)" stroke-width="1.51"></path><path d="M654,-128L743,-128L65,-132Z" fill="rgb(231,143,126)" stroke="rgb(231,143,126)" stroke-width="1.51"></path><path d="M741,491L743,-128L739,158Z" fill="rgb(175,68,52)" stroke="rgb(175,68,52)" stroke-width="1.51"></path><path d="M-111,142L-141,213L-25,192Z" fill="rgb(255,184,162)" stroke="rgb(255,184,162)" stroke-width="1.51"></path><path d="M-141,213L-122,407L-100,351Z" fill="rgb(232,143,126)" stroke="rgb(232,143,126)" stroke-width="1.51"></path><path d="M-100,351L-122,407L-48,452Z" fill="rgb(185,126,117)" stroke="rgb(185,126,117)" stroke-width="1.51"></path><path d="M-119,-53L-117,17L-31,-6Z" fill="rgb(255,245,240)" stroke="rgb(255,245,240)" stroke-width="1.51"></path><path d="M-31,-6L-117,17L-54,42Z" fill="rgb(255,241,234)" stroke="rgb(255,241,234)" stroke-width="1.51"></path><path d="M-111,142L-117,17L-141,213Z" fill="rgb(255,206,188)" stroke="rgb(255,206,188)" stroke-width="1.51"></path><path d="M65,-132L-64,-109L-31,-6Z" fill="rgb(255,245,240)" stroke="rgb(255,245,240)" stroke-width="1.51"></path><path d="M-122,407L-121,481L-48,452Z" fill="rgb(185,126,117)" stroke="rgb(185,126,117)" stroke-width="1.51"></path><path d="M-141,213L-121,481L-122,407Z" fill="rgb(208,134,121)" stroke="rgb(208,134,121)" stroke-width="1.51"></path><path d="M-94,-97L-119,-53L-31,-6Z" fill="rgb(255,245,240)" stroke="rgb(255,245,240)" stroke-width="1.51"></path><path d="M-117,17L-119,-53L-141,213Z" fill="rgb(255,231,220)" stroke="rgb(255,231,220)" stroke-width="1.51"></path><path d="M-64,-109L-94,-97L-31,-6Z" fill="rgb(255,245,240)" stroke="rgb(255,245,240)" stroke-width="1.51"></path></svg>