<svg width="600" height="400" xmlns="http://www.w3.org/2000/svg"><path d="M264,200L261,274L337,273Z" fill="rgb(136,136,136)" stroke="rgb(136,136,136)" stroke-width="1.51"></path><path d="M337,273L339,199L264,200Z" fill="rgb(138,138,138)" stroke="rgb(138,138,138)" stroke-width="1.51"></path><path d="M261,274L262,349L337,273Z" fill="rgb(119,119,119)" stroke="rgb(119,119,119)" stroke-width="1.51"></path><path d="M337,273L411,273L339,199Z" fill="rgb(118,118,118)" stroke="rgb(118,118,118)" stroke-width="1.51"></path><path d="M411,348L411,273L337,273Z" fill="rgb(96,96,96)" stroke="rgb(96,96,96)" stroke-width="1.51"></path><path d="M411,273L410,199L339,199Z" fill="rgb(121,121,121)" stroke="rgb(121,121,121)" stroke-width="1.51"></path><path d="M262,349L338,350L337,273Z" fill="rgb(100,100,100)" stroke="rgb(100,100,100)" stroke-width="1.51"></path><path d="M186,201L186,275L261,274Z" fill="rgb(154,154,154)" stroke="rgb(154,154,154)" stroke-width="1.51"></path><path d="M261,274L188,350L262,349Z" fill="rgb(118,118,118)" stroke="rgb(118,118,118)" stroke-width="1.51"></path><path d="M264,200L186,201L261,274Z" fill="rgb(157,157,157)" stroke="rgb(157,157,157)" stroke-width="1.51"></path><path d="M189,126L186,201L264,200Z" fill="rgb(181,181,181)" stroke="rgb(181,181,181)" stroke-width="1.51"></path><path d="M339,199L337,124L264,200Z" fill="rgb(157,157,157)" stroke="rgb(157,157,157)" stroke-width="1.51"></path><path d="M410,199L337,124L339,199Z" fill="rgb(145,145,145)" stroke="rgb(145,145,145)" stroke-width="1.51"></path><path d="M337,124L261,123L264,200Z" fill="rgb(173,173,173)" stroke="rgb(173,173,173)" stroke-width="1.51"></path><path d="M261,123L189,126L264,200Z" fill="rgb(185,185,185)" stroke="rgb(185,185,185)" stroke-width="1.51"></path><path d="M338,350L411,348L337,273Z" fill="rgb(90,90,90)" stroke="rgb(90,90,90)" stroke-width="1.51"></path><path d="M186,275L188,350L261,274Z" fill="rgb(136,136,136)" stroke="rgb(136,136,136)" stroke-width="1.51"></path><path d="M262,349L337,424L338,350Z" fill="rgb(79,79,79)" stroke="rgb(79,79,79)" stroke-width="1.51"></path><path d="M410,199L414,123L337,124Z" fill="rgb(149,149,149)" stroke="rgb(149,149,149)" stroke-width="1.51"></path><path d="M337,124L336,48L261,123Z" fill="rgb(181,181,181)" stroke="rgb(181,181,181)" stroke-width="1.51"></path><path d="M488,198L414,123L410,199Z" fill="rgb(128,128,128)" stroke="rgb(128,128,128)" stroke-width="1.51"></path><path d="M488,198L410,199L411,273Z" fill="rgb(110,110,110)" stroke="rgb(110,110,110)" stroke-width="1.51"></path><path d="M338,350L411,423L411,348Z" fill="rgb(64,64,64)" stroke="rgb(64,64,64)" stroke-width="1.51"></path><path d="M262,425L337,424L262,349Z" fill="rgb(76,76,76)" stroke="rgb(76,76,76)" stroke-width="1.51"></path><path d="M188,350L262,425L262,349Z" fill="rgb(96,96,96)" stroke="rgb(96,96,96)" stroke-width="1.51"></path><path d="M186,275L112,348L188,350Z" fill="rgb(131,131,131)" stroke="rgb(131,131,131)" stroke-width="1.51"></path><path d="M188,350L186,424L262,425Z" fill="rgb(92,92,92)" stroke="rgb(92,92,92)" stroke-width="1.51"></path><path d="M186,201L111,273L186,275Z" fill="rgb(163,163,163)" stroke="rgb(163,163,163)" stroke-width="1.51"></path><path d="M111,201L111,273L186,201Z" fill="rgb(175,175,175)" stroke="rgb(175,175,175)" stroke-width="1.51"></path><path d="M112,125L111,201L186,201Z" fill="rgb(195,195,195)" stroke="rgb(195,195,195)" stroke-width="1.51"></path><path d="M411,348L487,274L411,273Z" fill="rgb(85,85,85)" stroke="rgb(85,85,85)" stroke-width="1.51"></path><path d="M487,350L487,274L411,348Z" fill="rgb(67,67,67)" stroke="rgb(67,67,67)" stroke-width="1.51"></path><path d="M487,274L488,198L411,273Z" fill="rgb(95,95,95)" stroke="rgb(95,95,95)" stroke-width="1.51"></path><path d="M411,48L336,48L337,124Z" fill="rgb(173,173,173)" stroke="rgb(173,173,173)" stroke-width="1.51"></path><path d="M261,123L189,48L189,126Z" fill="rgb(205,205,205)" stroke="rgb(205,205,205)" stroke-width="1.51"></path><path d="M336,48L261,48L261,123Z" fill="rgb(192,192,192)" stroke="rgb(192,192,192)" stroke-width="1.51"></path><path d="M189,126L112,125L186,201Z" fill="rgb(200,200,200)" stroke="rgb(200,200,200)" stroke-width="1.51"></path><path d="M337,424L411,423L338,350Z" fill="rgb(61,61,61)" stroke="rgb(61,61,61)" stroke-width="1.51"></path><path d="M111,273L112,348L186,275Z" fill="rgb(149,149,149)" stroke="rgb(149,149,149)" stroke-width="1.51"></path><path d="M112,348L186,424L188,350Z" fill="rgb(110,110,110)" stroke="rgb(110,110,110)" stroke-width="1.51"></path><path d="M113,51L112,125L189,126Z" fill="rgb(219,219,219)" stroke="rgb(219,219,219)" stroke-width="1.51"></path><path d="M411,423L487,350L411,348Z" fill="rgb(54,54,54)" stroke="rgb(54,54,54)" stroke-width="1.51"></path><path d="M487,274L560,276L488,198Z" fill="rgb(79,79,79)" stroke="rgb(79,79,79)" stroke-width="1.51"></path><path d="M261,48L189,48L261,123Z" fill="rgb(206,206,206)" stroke="rgb(206,206,206)" stroke-width="1.51"></path><path d="M488,50L411,48L414,123Z" fill="rgb(155,155,155)" stroke="rgb(155,155,155)" stroke-width="1.51"></path><path d="M414,123L411,48L337,124Z" fill="rgb(162,162,162)" stroke="rgb(162,162,162)" stroke-width="1.51"></path><path d="M488,198L488,123L414,123Z" fill="rgb(130,130,130)" stroke="rgb(130,130,130)" stroke-width="1.51"></path><path d="M411,423L486,425L487,350Z" fill="rgb(40,40,40)" stroke="rgb(40,40,40)" stroke-width="1.51"></path><path d="M337,424L337,498L411,423Z" fill="rgb(60,60,60)" stroke="rgb(60,60,60)" stroke-width="1.51"></path><path d="M262,425L337,498L337,424Z" fill="rgb(70,70,70)" stroke="rgb(70,70,70)" stroke-width="1.51"></path><path d="M263,500L337,498L262,425Z" fill="rgb(76,76,76)" stroke="rgb(76,76,76)" stroke-width="1.51"></path><path d="M111,201L38,199L111,273Z" fill="rgb(183,183,183)" stroke="rgb(183,183,183)" stroke-width="1.51"></path><path d="M111,273L36,276L112,348Z" fill="rgb(156,156,156)" stroke="rgb(156,156,156)" stroke-width="1.51"></path><path d="M112,125L38,199L111,201Z" fill="rgb(202,202,202)" stroke="rgb(202,202,202)" stroke-width="1.51"></path><path d="M112,125L36,123L38,199Z" fill="rgb(216,216,216)" stroke="rgb(216,216,216)" stroke-width="1.51"></path><path d="M189,48L113,51L189,126Z" fill="rgb(220,220,220)" stroke="rgb(220,220,220)" stroke-width="1.51"></path><path d="M187,500L263,500L262,425Z" fill="rgb(87,87,87)" stroke="rgb(87,87,87)" stroke-width="1.51"></path><path d="M488,198L562,125L488,123Z" fill="rgb(113,113,113)" stroke="rgb(113,113,113)" stroke-width="1.51"></path><path d="M487,350L560,276L487,274Z" fill="rgb(63,63,63)" stroke="rgb(63,63,63)" stroke-width="1.51"></path><path d="M487,350L563,349L560,276Z" fill="rgb(45,45,45)" stroke="rgb(45,45,45)" stroke-width="1.51"></path><path d="M413,501L486,425L411,423Z" fill="rgb(45,45,45)" stroke="rgb(45,45,45)" stroke-width="1.51"></path><path d="M186,424L187,500L262,425Z" fill="rgb(92,92,92)" stroke="rgb(92,92,92)" stroke-width="1.51"></path><path d="M112,348L110,424L186,424Z" fill="rgb(104,104,104)" stroke="rgb(104,104,104)" stroke-width="1.51"></path><path d="M37,351L110,424L112,348Z" fill="rgb(120,120,120)" stroke="rgb(120,120,120)" stroke-width="1.51"></path><path d="M38,199L36,276L111,273Z" fill="rgb(177,177,177)" stroke="rgb(177,177,177)" stroke-width="1.51"></path><path d="M411,48L338,-24L336,48Z" fill="rgb(182,182,182)" stroke="rgb(182,182,182)" stroke-width="1.51"></path><path d="M336,48L263,-25L261,48Z" fill="rgb(202,202,202)" stroke="rgb(202,202,202)" stroke-width="1.51"></path><path d="M261,48L263,-25L189,48Z" fill="rgb(215,215,215)" stroke="rgb(215,215,215)" stroke-width="1.51"></path><path d="M189,48L185,-27L113,51Z" fill="rgb(230,230,230)" stroke="rgb(230,230,230)" stroke-width="1.51"></path><path d="M411,-25L338,-24L411,48Z" fill="rgb(180,180,180)" stroke="rgb(180,180,180)" stroke-width="1.51"></path><path d="M338,-24L263,-25L336,48Z" fill="rgb(198,198,198)" stroke="rgb(198,198,198)" stroke-width="1.51"></path><path d="M488,123L488,50L414,123Z" fill="rgb(143,143,143)" stroke="rgb(143,143,143)" stroke-width="1.51"></path><path d="M561,50L488,50L488,123Z" fill="rgb(130,130,130)" stroke="rgb(130,130,130)" stroke-width="1.51"></path><path d="M560,276L564,198L488,198Z" fill="rgb(80,80,80)" stroke="rgb(80,80,80)" stroke-width="1.51"></path><path d="M113,501L187,500L186,424Z" fill="rgb(100,100,100)" stroke="rgb(100,100,100)" stroke-width="1.51"></path><path d="M36,276L37,351L112,348Z" fill="rgb(145,145,145)" stroke="rgb(145,145,145)" stroke-width="1.51"></path><path d="M337,498L413,501L411,423Z" fill="rgb(55,55,55)" stroke="rgb(55,55,55)" stroke-width="1.51"></path><path d="M263,500L413,501L337,498Z" fill="rgb(65,65,65)" stroke="rgb(65,65,65)" stroke-width="1.51"></path><path d="M113,501L413,501L263,500Z" fill="rgb(81,81,81)" stroke="rgb(81,81,81)" stroke-width="1.51"></path><path d="M337,-101L261,-101L263,-25Z" fill="rgb(205,205,205)" stroke="rgb(205,205,205)" stroke-width="1.51"></path><path d="M487,-24L411,-25L411,48Z" fill="rgb(168,168,168)" stroke="rgb(168,168,168)" stroke-width="1.51"></path><path d="M562,425L563,349L487,350Z" fill="rgb(27,27,27)" stroke="rgb(27,27,27)" stroke-width="1.51"></path><path d="M560,276L635,273L564,198Z" fill="rgb(61,61,61)" stroke="rgb(61,61,61)" stroke-width="1.51"></path><path d="M562,425L487,350L486,425Z" fill="rgb(26,26,26)" stroke="rgb(26,26,26)" stroke-width="1.51"></path><path d="M38,199L-36,200L36,276Z" fill="rgb(190,190,190)" stroke="rgb(190,190,190)" stroke-width="1.51"></path><path d="M113,51L36,123L112,125Z" fill="rgb(226,226,226)" stroke="rgb(226,226,226)" stroke-width="1.51"></path><path d="M564,198L562,125L488,198Z" fill="rgb(96,96,96)" stroke="rgb(96,96,96)" stroke-width="1.51"></path><path d="M113,51L38,49L36,123Z" fill="rgb(236,236,236)" stroke="rgb(236,236,236)" stroke-width="1.51"></path><path d="M263,-25L185,-27L189,48Z" fill="rgb(224,224,224)" stroke="rgb(224,224,224)" stroke-width="1.51"></path><path d="M261,-101L185,-27L263,-25Z" fill="rgb(218,218,218)" stroke="rgb(218,218,218)" stroke-width="1.51"></path><path d="M37,351L38,424L110,424Z" fill="rgb(114,114,114)" stroke="rgb(114,114,114)" stroke-width="1.51"></path><path d="M110,424L113,501L186,424Z" fill="rgb(104,104,104)" stroke="rgb(104,104,104)" stroke-width="1.51"></path><path d="M413,501L488,498L486,425Z" fill="rgb(39,39,39)" stroke="rgb(39,39,39)" stroke-width="1.51"></path><path d="M38,498L113,501L110,424Z" fill="rgb(111,111,111)" stroke="rgb(111,111,111)" stroke-width="1.51"></path><path d="M187,500L113,501L263,500Z" fill="rgb(96,96,96)" stroke="rgb(96,96,96)" stroke-width="1.51"></path><path d="M111,-26L38,49L113,51Z" fill="rgb(242,242,242)" stroke="rgb(242,242,242)" stroke-width="1.51"></path><path d="M488,498L562,425L486,425Z" fill="rgb(25,25,25)" stroke="rgb(25,25,25)" stroke-width="1.51"></path><path d="M562,125L561,50L488,123Z" fill="rgb(118,118,118)" stroke="rgb(118,118,118)" stroke-width="1.51"></path><path d="M488,50L487,-24L411,48Z" fill="rgb(156,156,156)" stroke="rgb(156,156,156)" stroke-width="1.51"></path><path d="M637,123L561,50L562,125Z" fill="rgb(106,106,106)" stroke="rgb(106,106,106)" stroke-width="1.51"></path><path d="M561,50L487,-24L488,50Z" fill="rgb(138,138,138)" stroke="rgb(138,138,138)" stroke-width="1.51"></path><path d="M185,-27L111,-26L113,51Z" fill="rgb(238,238,238)" stroke="rgb(238,238,238)" stroke-width="1.51"></path><path d="M36,123L-36,200L38,199Z" fill="rgb(210,210,210)" stroke="rgb(210,210,210)" stroke-width="1.51"></path><path d="M36,276L-37,350L37,351Z" fill="rgb(149,149,149)" stroke="rgb(149,149,149)" stroke-width="1.51"></path><path d="M37,351L-38,425L38,424Z" fill="rgb(118,118,118)" stroke="rgb(118,118,118)" stroke-width="1.51"></path><path d="M-38,125L-36,200L36,123Z" fill="rgb(222,222,222)" stroke="rgb(222,222,222)" stroke-width="1.51"></path><path d="M564,198L637,123L562,125Z" fill="rgb(94,94,94)" stroke="rgb(94,94,94)" stroke-width="1.51"></path><path d="M563,349L635,273L560,276Z" fill="rgb(46,46,46)" stroke="rgb(46,46,46)" stroke-width="1.51"></path><path d="M636,350L635,273L563,349Z" fill="rgb(33,33,33)" stroke="rgb(33,33,33)" stroke-width="1.51"></path><path d="M-36,200L-38,273L36,276Z" fill="rgb(182,182,182)" stroke="rgb(182,182,182)" stroke-width="1.51"></path><path d="M635,273L637,201L564,198Z" fill="rgb(66,66,66)" stroke="rgb(66,66,66)" stroke-width="1.51"></path><path d="M337,-101L338,-24L411,-25Z" fill="rgb(186,186,186)" stroke="rgb(186,186,186)" stroke-width="1.51"></path><path d="M337,-101L263,-25L338,-24Z" fill="rgb(198,198,198)" stroke="rgb(198,198,198)" stroke-width="1.51"></path><path d="M185,-27L110,-99L111,-26Z" fill="rgb(238,238,238)" stroke="rgb(238,238,238)" stroke-width="1.51"></path><path d="M412,-102L337,-101L411,-25Z" fill="rgb(180,180,180)" stroke="rgb(180,180,180)" stroke-width="1.51"></path><path d="M-38,273L-37,350L36,276Z" fill="rgb(164,164,164)" stroke="rgb(164,164,164)" stroke-width="1.51"></path><path d="M38,424L38,498L110,424Z" fill="rgb(114,114,114)" stroke="rgb(114,114,114)" stroke-width="1.51"></path><path d="M-36,200L-112,200L-38,273Z" fill="rgb(192,192,192)" stroke="rgb(192,192,192)" stroke-width="1.51"></path><path d="M-37,48L-38,125L36,123Z" fill="rgb(236,236,236)" stroke="rgb(236,236,236)" stroke-width="1.51"></path><path d="M-37,48L36,123L38,49Z" fill="rgb(241,241,241)" stroke="rgb(241,241,241)" stroke-width="1.51"></path><path d="M562,425L636,350L563,349Z" fill="rgb(16,16,16)" stroke="rgb(16,16,16)" stroke-width="1.51"></path><path d="M635,273L712,276L637,201Z" fill="rgb(58,58,58)" stroke="rgb(58,58,58)" stroke-width="1.51"></path><path d="M561,50L563,-26L487,-24Z" fill="rgb(135,135,135)" stroke="rgb(135,135,135)" stroke-width="1.51"></path><path d="M637,201L637,123L564,198Z" fill="rgb(82,82,82)" stroke="rgb(82,82,82)" stroke-width="1.51"></path><path d="M261,-101L186,-101L185,-27Z" fill="rgb(224,224,224)" stroke="rgb(224,224,224)" stroke-width="1.51"></path><path d="M488,-100L412,-102L411,-25Z" fill="rgb(168,168,168)" stroke="rgb(168,168,168)" stroke-width="1.51"></path><path d="M337,-101L412,-102L261,-101Z" fill="rgb(192,192,192)" stroke="rgb(192,192,192)" stroke-width="1.51"></path><path d="M261,-101L412,-102L186,-101Z" fill="rgb(205,205,205)" stroke="rgb(205,205,205)" stroke-width="1.51"></path><path d="M488,-100L411,-25L487,-24Z" fill="rgb(160,160,160)" stroke="rgb(160,160,160)" stroke-width="1.51"></path><path d="M-38,425L38,498L38,424Z" fill="rgb(118,118,118)" stroke="rgb(118,118,118)" stroke-width="1.51"></path><path d="M111,-26L38,-24L38,49Z" fill="rgb(249,249,249)" stroke="rgb(249,249,249)" stroke-width="1.51"></path><path d="M110,-99L38,-24L111,-26Z" fill="rgb(245,245,245)" stroke="rgb(245,245,245)" stroke-width="1.51"></path><path d="M562,425L637,426L636,350Z" fill="rgb(0,0,0)" stroke="rgb(0,0,0)" stroke-width="1.51"></path><path d="M488,498L562,498L562,425Z" fill="rgb(20,20,20)" stroke="rgb(20,20,20)" stroke-width="1.51"></path><path d="M413,501L562,498L488,498Z" fill="rgb(32,32,32)" stroke="rgb(32,32,32)" stroke-width="1.51"></path><path d="M636,-24L563,-26L561,50Z" fill="rgb(122,122,122)" stroke="rgb(122,122,122)" stroke-width="1.51"></path><path d="M-37,350L-38,425L37,351Z" fill="rgb(128,128,128)" stroke="rgb(128,128,128)" stroke-width="1.51"></path><path d="M-114,351L-38,425L-37,350Z" fill="rgb(128,128,128)" stroke="rgb(128,128,128)" stroke-width="1.51"></path><path d="M38,-24L-37,48L38,49Z" fill="rgb(250,250,250)" stroke="rgb(250,250,250)" stroke-width="1.51"></path><path d="M38,-24L-37,-26L-37,48Z" fill="rgb(255,255,255)" stroke="rgb(255,255,255)" stroke-width="1.51"></path><path d="M186,-101L110,-99L185,-27Z" fill="rgb(234,234,234)" stroke="rgb(234,234,234)" stroke-width="1.51"></path><path d="M637,123L637,51L561,50Z" fill="rgb(108,108,108)" stroke="rgb(108,108,108)" stroke-width="1.51"></path><path d="M562,498L637,426L562,425Z" fill="rgb(4,5,4)" stroke="rgb(4,5,4)" stroke-width="1.51"></path><path d="M636,350L712,276L635,273Z" fill="rgb(43,43,43)" stroke="rgb(43,43,43)" stroke-width="1.51"></path><path d="M563,-26L488,-100L487,-24Z" fill="rgb(142,142,142)" stroke="rgb(142,142,142)" stroke-width="1.51"></path><path d="M-112,126L-112,200L-38,125Z" fill="rgb(222,222,222)" stroke="rgb(222,222,222)" stroke-width="1.51"></path><path d="M-38,125L-112,200L-36,200Z" fill="rgb(211,211,211)" stroke="rgb(211,211,211)" stroke-width="1.51"></path><path d="M-38,273L-115,274L-37,350Z" fill="rgb(165,165,165)" stroke="rgb(165,165,165)" stroke-width="1.51"></path><path d="M-112,200L-115,274L-38,273Z" fill="rgb(183,183,183)" stroke="rgb(183,183,183)" stroke-width="1.51"></path><path d="M637,201L712,123L637,123Z" fill="rgb(91,91,91)" stroke="rgb(91,91,91)" stroke-width="1.51"></path><path d="M637,123L712,123L637,51Z" fill="rgb(102,102,102)" stroke="rgb(102,102,102)" stroke-width="1.51"></path><path d="M711,350L712,276L636,350Z" fill="rgb(32,32,32)" stroke="rgb(32,32,32)" stroke-width="1.51"></path><path d="M712,276L713,201L637,201Z" fill="rgb(65,65,65)" stroke="rgb(65,65,65)" stroke-width="1.51"></path><path d="M38,498L-37,500L113,501Z" fill="rgb(115,115,115)" stroke="rgb(115,115,115)" stroke-width="1.51"></path><path d="M-38,425L-37,500L38,498Z" fill="rgb(119,119,119)" stroke="rgb(119,119,119)" stroke-width="1.51"></path><path d="M-112,499L-37,500L-38,425Z" fill="rgb(119,119,119)" stroke="rgb(119,119,119)" stroke-width="1.51"></path><path d="M-112,200L-112,126L-115,274Z" fill="rgb(201,201,201)" stroke="rgb(201,201,201)" stroke-width="1.51"></path><path d="M-114,49L-112,126L-38,125Z" fill="rgb(236,236,236)" stroke="rgb(236,236,236)" stroke-width="1.51"></path><path d="M637,426L711,350L636,350Z" fill="rgb(13,13,13)" stroke="rgb(13,13,13)" stroke-width="1.51"></path><path d="M562,498L637,498L637,426Z" fill="rgb(0,0,0)" stroke="rgb(0,0,0)" stroke-width="1.51"></path><path d="M714,501L637,498L562,498Z" fill="rgb(0,0,0)" stroke="rgb(0,0,0)" stroke-width="1.51"></path><path d="M35,-99L-37,-26L38,-24Z" fill="rgb(254,254,254)" stroke="rgb(254,254,254)" stroke-width="1.51"></path><path d="M-37,48L-114,49L-38,125Z" fill="rgb(242,242,242)" stroke="rgb(242,242,242)" stroke-width="1.51"></path><path d="M712,424L711,350L637,426Z" fill="rgb(0,0,0)" stroke="rgb(0,0,0)" stroke-width="1.51"></path><path d="M563,-26L563,-100L488,-100Z" fill="rgb(135,135,135)" stroke="rgb(135,135,135)" stroke-width="1.51"></path><path d="M637,51L636,-24L561,50Z" fill="rgb(115,115,115)" stroke="rgb(115,115,115)" stroke-width="1.51"></path><path d="M713,-24L636,-24L637,51Z" fill="rgb(119,119,119)" stroke="rgb(119,119,119)" stroke-width="1.51"></path><path d="M-115,274L-114,351L-37,350Z" fill="rgb(151,151,151)" stroke="rgb(151,151,151)" stroke-width="1.51"></path><path d="M110,-99L35,-99L38,-24Z" fill="rgb(249,249,249)" stroke="rgb(249,249,249)" stroke-width="1.51"></path><path d="M-39,-102L35,-99L110,-99Z" fill="rgb(251,251,251)" stroke="rgb(251,251,251)" stroke-width="1.51"></path><path d="M713,201L712,123L637,201Z" fill="rgb(81,81,81)" stroke="rgb(81,81,81)" stroke-width="1.51"></path><path d="M488,-100L563,-100L412,-102Z" fill="rgb(151,151,151)" stroke="rgb(151,151,151)" stroke-width="1.51"></path><path d="M636,-24L563,-100L563,-26Z" fill="rgb(122,122,122)" stroke="rgb(122,122,122)" stroke-width="1.51"></path><path d="M637,498L712,424L637,426Z" fill="rgb(0,0,0)" stroke="rgb(0,0,0)" stroke-width="1.51"></path><path d="M711,350L712,424L712,276Z" fill="rgb(22,22,22)" stroke="rgb(22,22,22)" stroke-width="1.51"></path><path d="M712,276L714,501L713,201Z" fill="rgb(32,32,32)" stroke="rgb(32,32,32)" stroke-width="1.51"></path><path d="M-115,274L-115,425L-114,351Z" fill="rgb(138,138,138)" stroke="rgb(138,138,138)" stroke-width="1.51"></path><path d="M-114,351L-115,425L-38,425Z" fill="rgb(119,119,119)" stroke="rgb(119,119,119)" stroke-width="1.51"></path><path d="M-114,-27L-114,49L-37,-26Z" fill="rgb(255,255,255)" stroke="rgb(255,255,255)" stroke-width="1.51"></path><path d="M-37,-26L-114,49L-37,48Z" fill="rgb(251,251,251)" stroke="rgb(251,251,251)" stroke-width="1.51"></path><path d="M-112,126L-114,49L-115,274Z" fill="rgb(222,222,222)" stroke="rgb(222,222,222)" stroke-width="1.51"></path><path d="M636,-24L639,-101L563,-100Z" fill="rgb(119,119,119)" stroke="rgb(119,119,119)" stroke-width="1.51"></path><path d="M712,123L714,49L637,51Z" fill="rgb(108,108,108)" stroke="rgb(108,108,108)" stroke-width="1.51"></path><path d="M713,201L714,49L712,123Z" fill="rgb(96,96,96)" stroke="rgb(96,96,96)" stroke-width="1.51"></path><path d="M714,501L714,49L713,201Z" fill="rgb(58,58,58)" stroke="rgb(58,58,58)" stroke-width="1.51"></path><path d="M35,-99L-39,-102L-37,-26Z" fill="rgb(255,255,255)" stroke="rgb(255,255,255)" stroke-width="1.51"></path><path d="M186,-101L-39,-102L110,-99Z" fill="rgb(246,246,246)" stroke="rgb(246,246,246)" stroke-width="1.51"></path><path d="M412,-102L-39,-102L186,-101Z" fill="rgb(229,229,229)" stroke="rgb(229,229,229)" stroke-width="1.51"></path><path d="M713,-24L639,-101L636,-24Z" fill="rgb(119,119,119)" stroke="rgb(119,119,119)" stroke-width="1.51"></path><path d="M563,-100L639,-101L412,-102Z" fill="rgb(135,135,135)" stroke="rgb(135,135,135)" stroke-width="1.51"></path><path d="M-115,425L-112,499L-38,425Z" fill="rgb(119,119,119)" stroke="rgb(119,119,119)" stroke-width="1.51"></path><path d="M-39,-102L-114,-27L-37,-26Z" fill="rgb(255,255,255)" stroke="rgb(255,255,255)" stroke-width="1.51"></path><path d="M-114,49L-115,-101L-115,274Z" fill="rgb(242,242,242)" stroke="rgb(242,242,242)" stroke-width="1.51"></path><path d="M714,49L713,-24L637,51Z" fill="rgb(115,115,115)" stroke="rgb(115,115,115)" stroke-width="1.51"></path><path d="M712,424L714,501L712,276Z" fill="rgb(0,0,0)" stroke="rgb(0,0,0)" stroke-width="1.51"></path><path d="M637,498L714,501L712,424Z" fill="rgb(0,0,0)" stroke="rgb(0,0,0)" stroke-width="1.51"></path><path d="M413,501L714,501L562,498Z" fill="rgb(13,13,13)" stroke="rgb(13,13,13)" stroke-width="1.51"></path><path d="M-39,-102L-115,-101L-114,-27Z" fill="rgb(255,255,255)" stroke="rgb(255,255,255)" stroke-width="1.51"></path><path d="M-114,-27L-115,-101L-114,49Z" fill="rgb(255,255,255)" stroke="rgb(255,255,255)" stroke-width="1.51"></path><path d="M714,49L713,-101L713,-24Z" fill="rgb(119,119,119)" stroke="rgb(119,119,119)" stroke-width="1.51"></path><path d="M713,-24L713,-101L639,-101Z" fill="rgb(119,119,119)" stroke="rgb(119,119,119)" stroke-width="1.51"></path><path d="M639,-101L713,-101L412,-102Z" fill="rgb(122,122,122)" stroke="rgb(122,122,122)" stroke-width="1.51"></path></svg>