<svg width="600" height="400" xmlns="http://www.w3.org/2000/svg"><path d="M287,221L329,247L325,193Z" fill="rgb(112,196,201)" stroke="rgb(112,196,201)" stroke-width="1.51"></path><path d="M287,221L275,276L329,247Z" fill="rgb(105,192,203)" stroke="rgb(105,192,203)" stroke-width="1.51"></path><path d="M329,247L389,210L325,193Z" fill="rgb(104,192,204)" stroke="rgb(104,192,204)" stroke-width="1.51"></path><path d="M329,247L387,271L389,210Z" fill="rgb(85,182,210)" stroke="rgb(85,182,210)" stroke-width="1.51"></path><path d="M282,335L387,271L329,247Z" fill="rgb(84,172,200)" stroke="rgb(84,172,200)" stroke-width="1.51"></path><path d="M325,193L255,151L287,221Z" fill="rgb(133,207,194)" stroke="rgb(133,207,194)" stroke-width="1.51"></path><path d="M287,221L191,213L275,276Z" fill="rgb(127,200,197)" stroke="rgb(127,200,197)" stroke-width="1.51"></path><path d="M367,110L255,151L325,193Z" fill="rgb(143,210,190)" stroke="rgb(143,210,190)" stroke-width="1.51"></path><path d="M275,276L282,335L329,247Z" fill="rgb(96,178,196)" stroke="rgb(96,178,196)" stroke-width="1.51"></path><path d="M205,296L282,335L275,276Z" fill="rgb(108,175,189)" stroke="rgb(108,175,189)" stroke-width="1.51"></path><path d="M389,210L367,110L325,193Z" fill="rgb(123,199,198)" stroke="rgb(123,199,198)" stroke-width="1.51"></path><path d="M255,151L191,213L287,221Z" fill="rgb(143,211,190)" stroke="rgb(143,211,190)" stroke-width="1.51"></path><path d="M466,155L394,114L389,210Z" fill="rgb(119,187,192)" stroke="rgb(119,187,192)" stroke-width="1.51"></path><path d="M389,210L394,114L367,110Z" fill="rgb(132,199,197)" stroke="rgb(132,199,197)" stroke-width="1.51"></path><path d="M191,213L205,296L275,276Z" fill="rgb(128,195,194)" stroke="rgb(128,195,194)" stroke-width="1.51"></path><path d="M387,271L459,266L389,210Z" fill="rgb(71,169,206)" stroke="rgb(71,169,206)" stroke-width="1.51"></path><path d="M413,369L459,266L387,271Z" fill="rgb(51,147,194)" stroke="rgb(51,147,194)" stroke-width="1.51"></path><path d="M282,335L308,379L387,271Z" fill="rgb(78,156,191)" stroke="rgb(78,156,191)" stroke-width="1.51"></path><path d="M290,447L308,379L282,335Z" fill="rgb(82,137,168)" stroke="rgb(82,137,168)" stroke-width="1.51"></path><path d="M484,213L466,155L389,210Z" fill="rgb(95,173,193)" stroke="rgb(95,173,193)" stroke-width="1.51"></path><path d="M459,266L484,213L389,210Z" fill="rgb(76,166,199)" stroke="rgb(76,166,199)" stroke-width="1.51"></path><path d="M205,296L176,325L282,335Z" fill="rgb(117,172,184)" stroke="rgb(117,172,184)" stroke-width="1.51"></path><path d="M126,327L176,325L100,271Z" fill="rgb(138,184,195)" stroke="rgb(138,184,195)" stroke-width="1.51"></path><path d="M308,379L413,369L387,271Z" fill="rgb(57,145,193)" stroke="rgb(57,145,193)" stroke-width="1.51"></path><path d="M459,266L566,307L484,213Z" fill="rgb(51,141,192)" stroke="rgb(51,141,192)" stroke-width="1.51"></path><path d="M255,151L176,103L191,213Z" fill="rgb(170,222,184)" stroke="rgb(170,222,184)" stroke-width="1.51"></path><path d="M191,213L100,271L205,296Z" fill="rgb(144,201,201)" stroke="rgb(144,201,201)" stroke-width="1.51"></path><path d="M188,52L176,103L255,151Z" fill="rgb(190,230,190)" stroke="rgb(190,230,190)" stroke-width="1.51"></path><path d="M176,103L125,201L191,213Z" fill="rgb(174,223,191)" stroke="rgb(174,223,191)" stroke-width="1.51"></path><path d="M367,110L315,18L255,151Z" fill="rgb(165,218,200)" stroke="rgb(165,218,200)" stroke-width="1.51"></path><path d="M383,26L315,18L367,110Z" fill="rgb(164,214,213)" stroke="rgb(164,214,213)" stroke-width="1.51"></path><path d="M383,26L367,110L394,114Z" fill="rgb(153,206,207)" stroke="rgb(153,206,207)" stroke-width="1.51"></path><path d="M503,48L383,26L394,114Z" fill="rgb(149,195,206)" stroke="rgb(149,195,206)" stroke-width="1.51"></path><path d="M315,18L251,21L255,151Z" fill="rgb(181,226,202)" stroke="rgb(181,226,202)" stroke-width="1.51"></path><path d="M176,103L79,105L125,201Z" fill="rgb(194,232,194)" stroke="rgb(194,232,194)" stroke-width="1.51"></path><path d="M251,21L188,52L255,151Z" fill="rgb(190,230,195)" stroke="rgb(190,230,195)" stroke-width="1.51"></path><path d="M413,369L503,332L459,266Z" fill="rgb(36,130,185)" stroke="rgb(36,130,185)" stroke-width="1.51"></path><path d="M100,271L176,325L205,296Z" fill="rgb(136,186,194)" stroke="rgb(136,186,194)" stroke-width="1.51"></path><path d="M290,447L312,444L308,379Z" fill="rgb(76,130,163)" stroke="rgb(76,130,163)" stroke-width="1.51"></path><path d="M125,201L100,271L191,213Z" fill="rgb(159,213,203)" stroke="rgb(159,213,203)" stroke-width="1.51"></path><path d="M308,379L312,444L413,369Z" fill="rgb(63,125,168)" stroke="rgb(63,125,168)" stroke-width="1.51"></path><path d="M413,369L461,391L503,332Z" fill="rgb(28,114,174)" stroke="rgb(28,114,174)" stroke-width="1.51"></path><path d="M290,447L282,335L159,446Z" fill="rgb(98,136,158)" stroke="rgb(98,136,158)" stroke-width="1.51"></path><path d="M435,454L461,391L413,369Z" fill="rgb(34,104,161)" stroke="rgb(34,104,161)" stroke-width="1.51"></path><path d="M159,446L282,335L176,325Z" fill="rgb(113,154,172)" stroke="rgb(113,154,172)" stroke-width="1.51"></path><path d="M251,21L154,-26L188,52Z" fill="rgb(211,238,210)" stroke="rgb(211,238,210)" stroke-width="1.51"></path><path d="M315,18L265,-5L251,21Z" fill="rgb(191,230,213)" stroke="rgb(191,230,213)" stroke-width="1.51"></path><path d="M304,-12L265,-5L315,18Z" fill="rgb(189,229,217)" stroke="rgb(189,229,217)" stroke-width="1.51"></path><path d="M383,26L304,-12L315,18Z" fill="rgb(178,221,219)" stroke="rgb(178,221,219)" stroke-width="1.51"></path><path d="M188,52L135,70L176,103Z" fill="rgb(205,236,200)" stroke="rgb(205,236,200)" stroke-width="1.51"></path><path d="M36,174L62,292L100,271Z" fill="rgb(163,212,216)" stroke="rgb(163,212,216)" stroke-width="1.51"></path><path d="M154,-26L135,70L188,52Z" fill="rgb(216,240,211)" stroke="rgb(216,240,211)" stroke-width="1.51"></path><path d="M484,213L566,195L466,155Z" fill="rgb(92,159,185)" stroke="rgb(92,159,185)" stroke-width="1.51"></path><path d="M466,155L503,48L394,114Z" fill="rgb(135,184,193)" stroke="rgb(135,184,193)" stroke-width="1.51"></path><path d="M566,307L566,195L484,213Z" fill="rgb(61,140,186)" stroke="rgb(61,140,186)" stroke-width="1.51"></path><path d="M547,53L503,48L466,155Z" fill="rgb(135,172,191)" stroke="rgb(135,172,191)" stroke-width="1.51"></path><path d="M399,-92L338,-101L304,-12Z" fill="rgb(178,220,223)" stroke="rgb(178,220,223)" stroke-width="1.51"></path><path d="M365,494L435,454L312,444Z" fill="rgb(52,120,169)" stroke="rgb(52,120,169)" stroke-width="1.51"></path><path d="M312,444L435,454L413,369Z" fill="rgb(47,116,168)" stroke="rgb(47,116,168)" stroke-width="1.51"></path><path d="M583,355L566,307L503,332Z" fill="rgb(19,103,168)" stroke="rgb(19,103,168)" stroke-width="1.51"></path><path d="M135,70L79,105L176,103Z" fill="rgb(208,237,201)" stroke="rgb(208,237,201)" stroke-width="1.51"></path><path d="M126,327L143,427L176,325Z" fill="rgb(128,162,182)" stroke="rgb(128,162,182)" stroke-width="1.51"></path><path d="M100,271L62,292L126,327Z" fill="rgb(145,191,203)" stroke="rgb(145,191,203)" stroke-width="1.51"></path><path d="M36,174L100,271L125,201Z" fill="rgb(170,219,208)" stroke="rgb(170,219,208)" stroke-width="1.51"></path><path d="M503,332L566,307L459,266Z" fill="rgb(33,125,183)" stroke="rgb(33,125,183)" stroke-width="1.51"></path><path d="M583,355L503,332L582,391Z" fill="rgb(10,91,159)" stroke="rgb(10,91,159)" stroke-width="1.51"></path><path d="M503,48L440,-16L383,26Z" fill="rgb(156,195,212)" stroke="rgb(156,195,212)" stroke-width="1.51"></path><path d="M51,375L143,427L126,327Z" fill="rgb(131,157,180)" stroke="rgb(131,157,180)" stroke-width="1.51"></path><path d="M290,447L259,489L312,444Z" fill="rgb(83,132,161)" stroke="rgb(83,132,161)" stroke-width="1.51"></path><path d="M177,471L259,489L290,447Z" fill="rgb(98,136,158)" stroke="rgb(98,136,158)" stroke-width="1.51"></path><path d="M143,427L159,446L176,325Z" fill="rgb(120,144,164)" stroke="rgb(120,144,164)" stroke-width="1.51"></path><path d="M259,489L365,494L312,444Z" fill="rgb(74,129,164)" stroke="rgb(74,129,164)" stroke-width="1.51"></path><path d="M79,105L36,174L125,201Z" fill="rgb(192,230,201)" stroke="rgb(192,230,201)" stroke-width="1.51"></path><path d="M503,48L494,-51L440,-16Z" fill="rgb(155,187,212)" stroke="rgb(155,187,212)" stroke-width="1.51"></path><path d="M585,101L547,53L466,155Z" fill="rgb(128,164,183)" stroke="rgb(128,164,183)" stroke-width="1.51"></path><path d="M365,494L391,497L435,454Z" fill="rgb(45,114,166)" stroke="rgb(45,114,166)" stroke-width="1.51"></path><path d="M115,510L391,497L365,494Z" fill="rgb(82,131,162)" stroke="rgb(82,131,162)" stroke-width="1.51"></path><path d="M115,510L177,471L159,446Z" fill="rgb(121,144,164)" stroke="rgb(121,144,164)" stroke-width="1.51"></path><path d="M159,446L177,471L290,447Z" fill="rgb(108,139,158)" stroke="rgb(108,139,158)" stroke-width="1.51"></path><path d="M640,209L585,101L566,195Z" fill="rgb(95,137,160)" stroke="rgb(95,137,160)" stroke-width="1.51"></path><path d="M566,195L585,101L466,155Z" fill="rgb(110,156,174)" stroke="rgb(110,156,174)" stroke-width="1.51"></path><path d="M135,70L41,58L79,105Z" fill="rgb(217,241,211)" stroke="rgb(217,241,211)" stroke-width="1.51"></path><path d="M79,105L30,128L36,174Z" fill="rgb(205,236,206)" stroke="rgb(205,236,206)" stroke-width="1.51"></path><path d="M265,-5L154,-26L251,21Z" fill="rgb(208,237,210)" stroke="rgb(208,237,210)" stroke-width="1.51"></path><path d="M241,-71L154,-26L265,-5Z" fill="rgb(209,237,211)" stroke="rgb(209,237,211)" stroke-width="1.51"></path><path d="M241,-71L265,-5L304,-12Z" fill="rgb(196,232,215)" stroke="rgb(196,232,215)" stroke-width="1.51"></path><path d="M566,307L640,209L566,195Z" fill="rgb(59,125,170)" stroke="rgb(59,125,170)" stroke-width="1.51"></path><path d="M582,391L503,332L461,391Z" fill="rgb(13,98,163)" stroke="rgb(13,98,163)" stroke-width="1.51"></path><path d="M582,391L461,391L546,499Z" fill="rgb(9,82,149)" stroke="rgb(9,82,149)" stroke-width="1.51"></path><path d="M41,58L30,128L79,105Z" fill="rgb(219,241,212)" stroke="rgb(219,241,212)" stroke-width="1.51"></path><path d="M338,-101L241,-71L304,-12Z" fill="rgb(189,229,217)" stroke="rgb(189,229,217)" stroke-width="1.51"></path><path d="M143,427L115,510L159,446Z" fill="rgb(123,145,165)" stroke="rgb(123,145,165)" stroke-width="1.51"></path><path d="M62,292L51,375L126,327Z" fill="rgb(142,177,199)" stroke="rgb(142,177,199)" stroke-width="1.51"></path><path d="M-15,289L51,375L62,292Z" fill="rgb(151,185,208)" stroke="rgb(151,185,208)" stroke-width="1.51"></path><path d="M-13,188L62,292L36,174Z" fill="rgb(177,222,217)" stroke="rgb(177,222,217)" stroke-width="1.51"></path><path d="M154,-26L111,-18L135,70Z" fill="rgb(226,244,219)" stroke="rgb(226,244,219)" stroke-width="1.51"></path><path d="M92,-117L111,-18L154,-26Z" fill="rgb(230,245,223)" stroke="rgb(230,245,223)" stroke-width="1.51"></path><path d="M471,502L461,391L435,454Z" fill="rgb(28,99,159)" stroke="rgb(28,99,159)" stroke-width="1.51"></path><path d="M111,-18L41,58L135,70Z" fill="rgb(225,243,219)" stroke="rgb(225,243,219)" stroke-width="1.51"></path><path d="M391,497L471,502L435,454Z" fill="rgb(35,105,162)" stroke="rgb(35,105,162)" stroke-width="1.51"></path><path d="M643,528L471,502L391,497Z" fill="rgb(18,89,153)" stroke="rgb(18,89,153)" stroke-width="1.51"></path><path d="M399,-92L383,26L440,-16Z" fill="rgb(166,206,221)" stroke="rgb(166,206,221)" stroke-width="1.51"></path><path d="M399,-92L304,-12L383,26Z" fill="rgb(175,217,224)" stroke="rgb(175,217,224)" stroke-width="1.51"></path><path d="M494,-51L399,-92L440,-16Z" fill="rgb(160,196,216)" stroke="rgb(160,196,216)" stroke-width="1.51"></path><path d="M663,243L566,307L684,345Z" fill="rgb(30,101,160)" stroke="rgb(30,101,160)" stroke-width="1.51"></path><path d="M663,243L640,209L566,307Z" fill="rgb(49,118,169)" stroke="rgb(49,118,169)" stroke-width="1.51"></path><path d="M564,-36L503,48L547,53Z" fill="rgb(144,169,198)" stroke="rgb(144,169,198)" stroke-width="1.51"></path><path d="M564,-36L494,-51L503,48Z" fill="rgb(151,176,207)" stroke="rgb(151,176,207)" stroke-width="1.51"></path><path d="M-22,131L-13,188L36,174Z" fill="rgb(202,234,212)" stroke="rgb(202,234,212)" stroke-width="1.51"></path><path d="M-22,131L36,174L30,128Z" fill="rgb(208,237,209)" stroke="rgb(208,237,209)" stroke-width="1.51"></path><path d="M582,391L613,381L583,355Z" fill="rgb(9,75,141)" stroke="rgb(9,75,141)" stroke-width="1.51"></path><path d="M623,423L613,381L582,391Z" fill="rgb(8,64,129)" stroke="rgb(8,64,129)" stroke-width="1.51"></path><path d="M-13,188L-15,289L62,292Z" fill="rgb(169,212,223)" stroke="rgb(169,212,223)" stroke-width="1.51"></path><path d="M663,106L622,52L585,101Z" fill="rgb(124,145,167)" stroke="rgb(124,145,167)" stroke-width="1.51"></path><path d="M684,345L566,307L583,355Z" fill="rgb(17,88,153)" stroke="rgb(17,88,153)" stroke-width="1.51"></path><path d="M585,101L622,52L547,53Z" fill="rgb(129,151,175)" stroke="rgb(129,151,175)" stroke-width="1.51"></path><path d="M663,106L585,101L640,209Z" fill="rgb(108,139,158)" stroke="rgb(108,139,158)" stroke-width="1.51"></path><path d="M51,375L70,469L143,427Z" fill="rgb(129,147,172)" stroke="rgb(129,147,172)" stroke-width="1.51"></path><path d="M177,471L115,510L259,489Z" fill="rgb(113,142,161)" stroke="rgb(113,142,161)" stroke-width="1.51"></path><path d="M14,444L70,469L51,375Z" fill="rgb(134,150,178)" stroke="rgb(134,150,178)" stroke-width="1.51"></path><path d="M-141,253L-62,353L-15,289Z" fill="rgb(159,195,216)" stroke="rgb(159,195,216)" stroke-width="1.51"></path><path d="M41,58L-22,131L30,128Z" fill="rgb(221,242,215)" stroke="rgb(221,242,215)" stroke-width="1.51"></path><path d="M70,469L115,510L143,427Z" fill="rgb(126,146,170)" stroke="rgb(126,146,170)" stroke-width="1.51"></path><path d="M259,489L115,510L365,494Z" fill="rgb(97,136,158)" stroke="rgb(97,136,158)" stroke-width="1.51"></path><path d="M622,52L564,-36L547,53Z" fill="rgb(138,157,186)" stroke="rgb(138,157,186)" stroke-width="1.51"></path><path d="M494,-51L496,-130L399,-92Z" fill="rgb(157,191,214)" stroke="rgb(157,191,214)" stroke-width="1.51"></path><path d="M471,502L546,499L461,391Z" fill="rgb(20,91,154)" stroke="rgb(20,91,154)" stroke-width="1.51"></path><path d="M338,-101L197,-121L241,-71Z" fill="rgb(199,233,214)" stroke="rgb(199,233,214)" stroke-width="1.51"></path><path d="M241,-71L197,-121L154,-26Z" fill="rgb(214,239,213)" stroke="rgb(214,239,213)" stroke-width="1.51"></path><path d="M24,-34L-5,30L41,58Z" fill="rgb(240,250,233)" stroke="rgb(240,250,233)" stroke-width="1.51"></path><path d="M622,52L659,3L564,-36Z" fill="rgb(139,151,183)" stroke="rgb(139,151,183)" stroke-width="1.51"></path><path d="M698,124L663,106L640,209Z" fill="rgb(105,139,157)" stroke="rgb(105,139,157)" stroke-width="1.51"></path><path d="M613,381L684,345L583,355Z" fill="rgb(9,80,146)" stroke="rgb(9,80,146)" stroke-width="1.51"></path><path d="M546,499L623,423L582,391Z" fill="rgb(9,68,133)" stroke="rgb(9,68,133)" stroke-width="1.51"></path><path d="M41,58L-5,30L-22,131Z" fill="rgb(231,245,224)" stroke="rgb(231,245,224)" stroke-width="1.51"></path><path d="M24,-34L41,58L111,-18Z" fill="rgb(238,249,231)" stroke="rgb(238,249,231)" stroke-width="1.51"></path><path d="M70,469L-29,474L115,510Z" fill="rgb(133,149,177)" stroke="rgb(133,149,177)" stroke-width="1.51"></path><path d="M-48,414L14,444L51,375Z" fill="rgb(140,151,183)" stroke="rgb(140,151,183)" stroke-width="1.51"></path><path d="M92,-117L24,-34L111,-18Z" fill="rgb(236,248,229)" stroke="rgb(236,248,229)" stroke-width="1.51"></path><path d="M689,413L684,345L613,381Z" fill="rgb(9,72,137)" stroke="rgb(9,72,137)" stroke-width="1.51"></path><path d="M718,203L698,124L640,209Z" fill="rgb(90,134,160)" stroke="rgb(90,134,160)" stroke-width="1.51"></path><path d="M722,76L659,3L622,52Z" fill="rgb(132,148,176)" stroke="rgb(132,148,176)" stroke-width="1.51"></path><path d="M718,203L640,209L663,243Z" fill="rgb(69,126,165)" stroke="rgb(69,126,165)" stroke-width="1.51"></path><path d="M571,-130L494,-51L564,-36Z" fill="rgb(148,169,201)" stroke="rgb(148,169,201)" stroke-width="1.51"></path><path d="M571,-130L496,-130L494,-51Z" fill="rgb(151,176,207)" stroke="rgb(151,176,207)" stroke-width="1.51"></path><path d="M399,-92L496,-130L338,-101Z" fill="rgb(166,205,221)" stroke="rgb(166,205,221)" stroke-width="1.51"></path><path d="M338,-101L496,-130L197,-121Z" fill="rgb(179,220,223)" stroke="rgb(179,220,223)" stroke-width="1.51"></path><path d="M-15,289L-62,353L51,375Z" fill="rgb(152,179,208)" stroke="rgb(152,179,208)" stroke-width="1.51"></path><path d="M-98,174L-15,289L-13,188Z" fill="rgb(182,223,220)" stroke="rgb(182,223,220)" stroke-width="1.51"></path><path d="M-98,174L-13,188L-22,131Z" fill="rgb(202,234,212)" stroke="rgb(202,234,212)" stroke-width="1.51"></path><path d="M730,271L718,203L663,243Z" fill="rgb(57,121,168)" stroke="rgb(57,121,168)" stroke-width="1.51"></path><path d="M197,-121L92,-117L154,-26Z" fill="rgb(226,244,219)" stroke="rgb(226,244,219)" stroke-width="1.51"></path><path d="M722,76L622,52L663,106Z" fill="rgb(125,146,169)" stroke="rgb(125,146,169)" stroke-width="1.51"></path><path d="M-62,353L-48,414L51,375Z" fill="rgb(144,161,193)" stroke="rgb(144,161,193)" stroke-width="1.51"></path><path d="M14,444L-29,474L70,469Z" fill="rgb(138,151,182)" stroke="rgb(138,151,182)" stroke-width="1.51"></path><path d="M-106,44L-22,131L-5,30Z" fill="rgb(232,246,225)" stroke="rgb(232,246,225)" stroke-width="1.51"></path><path d="M-129,99L-98,174L-22,131Z" fill="rgb(213,239,213)" stroke="rgb(213,239,213)" stroke-width="1.51"></path><path d="M684,345L730,271L663,243Z" fill="rgb(36,106,162)" stroke="rgb(36,106,162)" stroke-width="1.51"></path><path d="M684,345L689,413L730,271Z" fill="rgb(13,86,152)" stroke="rgb(13,86,152)" stroke-width="1.51"></path><path d="M623,423L689,413L613,381Z" fill="rgb(8,64,129)" stroke="rgb(8,64,129)" stroke-width="1.51"></path><path d="M719,477L689,413L623,423Z" fill="rgb(8,64,129)" stroke="rgb(8,64,129)" stroke-width="1.51"></path><path d="M-48,414L-29,474L14,444Z" fill="rgb(141,152,184)" stroke="rgb(141,152,184)" stroke-width="1.51"></path><path d="M698,124L722,76L663,106Z" fill="rgb(121,144,164)" stroke="rgb(121,144,164)" stroke-width="1.51"></path><path d="M718,203L722,76L698,124Z" fill="rgb(109,140,159)" stroke="rgb(109,140,159)" stroke-width="1.51"></path><path d="M730,271L722,76L718,203Z" fill="rgb(87,133,161)" stroke="rgb(87,133,161)" stroke-width="1.51"></path><path d="M656,-69L564,-36L659,3Z" fill="rgb(141,152,184)" stroke="rgb(141,152,184)" stroke-width="1.51"></path><path d="M656,-69L571,-130L564,-36Z" fill="rgb(141,153,185)" stroke="rgb(141,153,185)" stroke-width="1.51"></path><path d="M24,-34L-62,3L-5,30Z" fill="rgb(247,252,240)" stroke="rgb(247,252,240)" stroke-width="1.51"></path><path d="M-33,-118L-62,3L24,-34Z" fill="rgb(247,252,240)" stroke="rgb(247,252,240)" stroke-width="1.51"></path><path d="M687,-32L656,-69L659,3Z" fill="rgb(141,152,184)" stroke="rgb(141,152,184)" stroke-width="1.51"></path><path d="M115,510L643,528L391,497Z" fill="rgb(49,117,168)" stroke="rgb(49,117,168)" stroke-width="1.51"></path><path d="M471,502L643,528L546,499Z" fill="rgb(10,76,142)" stroke="rgb(10,76,142)" stroke-width="1.51"></path><path d="M546,499L643,528L623,423Z" fill="rgb(8,64,129)" stroke="rgb(8,64,129)" stroke-width="1.51"></path><path d="M722,76L687,-32L659,3Z" fill="rgb(138,151,181)" stroke="rgb(138,151,181)" stroke-width="1.51"></path><path d="M-48,414L-107,475L-29,474Z" fill="rgb(141,152,184)" stroke="rgb(141,152,184)" stroke-width="1.51"></path><path d="M-62,353L-101,392L-48,414Z" fill="rgb(143,158,190)" stroke="rgb(143,158,190)" stroke-width="1.51"></path><path d="M-138,339L-101,392L-62,353Z" fill="rgb(148,170,201)" stroke="rgb(148,170,201)" stroke-width="1.51"></path><path d="M92,-117L21,-128L24,-34Z" fill="rgb(240,250,233)" stroke="rgb(240,250,233)" stroke-width="1.51"></path><path d="M197,-121L21,-128L92,-117Z" fill="rgb(232,246,225)" stroke="rgb(232,246,225)" stroke-width="1.51"></path><path d="M496,-130L21,-128L197,-121Z" fill="rgb(204,235,212)" stroke="rgb(204,235,212)" stroke-width="1.51"></path><path d="M-98,174L-141,253L-15,289Z" fill="rgb(175,218,224)" stroke="rgb(175,218,224)" stroke-width="1.51"></path><path d="M-62,3L-106,44L-5,30Z" fill="rgb(241,250,234)" stroke="rgb(241,250,234)" stroke-width="1.51"></path><path d="M-109,-27L-106,44L-62,3Z" fill="rgb(246,252,238)" stroke="rgb(246,252,238)" stroke-width="1.51"></path><path d="M-129,99L-141,253L-98,174Z" fill="rgb(198,232,214)" stroke="rgb(198,232,214)" stroke-width="1.51"></path><path d="M-106,44L-129,99L-22,131Z" fill="rgb(227,244,220)" stroke="rgb(227,244,220)" stroke-width="1.51"></path><path d="M-141,253L-138,339L-62,353Z" fill="rgb(156,188,213)" stroke="rgb(156,188,213)" stroke-width="1.51"></path><path d="M643,528L719,477L623,423Z" fill="rgb(8,64,129)" stroke="rgb(8,64,129)" stroke-width="1.51"></path><path d="M689,413L719,477L730,271Z" fill="rgb(9,69,134)" stroke="rgb(9,69,134)" stroke-width="1.51"></path><path d="M21,-128L-33,-118L24,-34Z" fill="rgb(247,252,239)" stroke="rgb(247,252,239)" stroke-width="1.51"></path><path d="M-33,-118L-109,-27L-62,3Z" fill="rgb(247,252,240)" stroke="rgb(247,252,240)" stroke-width="1.51"></path><path d="M-106,44L-109,-27L-129,99Z" fill="rgb(238,249,232)" stroke="rgb(238,249,232)" stroke-width="1.51"></path><path d="M-138,339L-107,475L-101,392Z" fill="rgb(141,152,184)" stroke="rgb(141,152,184)" stroke-width="1.51"></path><path d="M-101,392L-107,475L-48,414Z" fill="rgb(141,152,184)" stroke="rgb(141,152,184)" stroke-width="1.51"></path><path d="M-29,474L-107,475L115,510Z" fill="rgb(141,152,184)" stroke="rgb(141,152,184)" stroke-width="1.51"></path><path d="M722,76L721,-106L687,-32Z" fill="rgb(141,152,184)" stroke="rgb(141,152,184)" stroke-width="1.51"></path><path d="M687,-32L721,-106L656,-69Z" fill="rgb(141,152,184)" stroke="rgb(141,152,184)" stroke-width="1.51"></path><path d="M656,-69L721,-106L571,-130Z" fill="rgb(141,152,184)" stroke="rgb(141,152,184)" stroke-width="1.51"></path><path d="M730,271L721,-106L722,76Z" fill="rgb(125,146,168)" stroke="rgb(125,146,168)" stroke-width="1.51"></path><path d="M-33,-118L-119,-92L-109,-27Z" fill="rgb(247,252,240)" stroke="rgb(247,252,240)" stroke-width="1.51"></path><path d="M-109,-27L-119,-92L-129,99Z" fill="rgb(247,252,240)" stroke="rgb(247,252,240)" stroke-width="1.51"></path><path d="M-129,99L-119,-92L-141,253Z" fill="rgb(228,245,221)" stroke="rgb(228,245,221)" stroke-width="1.51"></path></svg>