<svg width="600" height="400" xmlns="http://www.w3.org/2000/svg"><path d="M285,183L313,123L240,137Z" fill="rgb(231,216,233)" stroke="rgb(231,216,233)" stroke-width="1.51"></path><path d="M285,183L353,169L313,123Z" fill="rgb(234,227,234)" stroke="rgb(234,227,234)" stroke-width="1.51"></path><path d="M240,137L192,175L285,183Z" fill="rgb(232,213,233)" stroke="rgb(232,213,233)" stroke-width="1.51"></path><path d="M277,27L216,53L240,137Z" fill="rgb(190,156,198)" stroke="rgb(190,156,198)" stroke-width="1.51"></path><path d="M240,137L178,102L192,175Z" fill="rgb(210,184,218)" stroke="rgb(210,184,218)" stroke-width="1.51"></path><path d="M411,56L328,53L313,123Z" fill="rgb(188,173,193)" stroke="rgb(188,173,193)" stroke-width="1.51"></path><path d="M216,53L178,102L240,137Z" fill="rgb(192,162,203)" stroke="rgb(192,162,203)" stroke-width="1.51"></path><path d="M277,27L240,137L313,123Z" fill="rgb(205,182,213)" stroke="rgb(205,182,213)" stroke-width="1.51"></path><path d="M192,175L271,257L285,183Z" fill="rgb(239,231,238)" stroke="rgb(239,231,238)" stroke-width="1.51"></path><path d="M285,183L309,289L353,169Z" fill="rgb(238,245,236)" stroke="rgb(238,245,236)" stroke-width="1.51"></path><path d="M328,53L277,27L313,123Z" fill="rgb(194,167,201)" stroke="rgb(194,167,201)" stroke-width="1.51"></path><path d="M353,169L422,148L313,123Z" fill="rgb(218,218,217)" stroke="rgb(218,218,217)" stroke-width="1.51"></path><path d="M420,222L422,148L353,169Z" fill="rgb(213,228,208)" stroke="rgb(213,228,208)" stroke-width="1.51"></path><path d="M178,102L132,135L192,175Z" fill="rgb(197,169,208)" stroke="rgb(197,169,208)" stroke-width="1.51"></path><path d="M192,175L191,283L271,257Z" fill="rgb(218,218,218)" stroke="rgb(218,218,218)" stroke-width="1.51"></path><path d="M132,59L132,135L178,102Z" fill="rgb(172,136,187)" stroke="rgb(172,136,187)" stroke-width="1.51"></path><path d="M271,257L309,289L285,183Z" fill="rgb(229,239,225)" stroke="rgb(229,239,225)" stroke-width="1.51"></path><path d="M422,148L411,56L313,123Z" fill="rgb(192,191,195)" stroke="rgb(192,191,195)" stroke-width="1.51"></path><path d="M328,53L362,-2L277,27Z" fill="rgb(169,135,171)" stroke="rgb(169,135,171)" stroke-width="1.51"></path><path d="M404,267L420,222L353,169Z" fill="rgb(212,237,206)" stroke="rgb(212,237,206)" stroke-width="1.51"></path><path d="M117,276L191,283L192,175Z" fill="rgb(199,195,203)" stroke="rgb(199,195,203)" stroke-width="1.51"></path><path d="M271,257L250,368L309,289Z" fill="rgb(182,213,180)" stroke="rgb(182,213,180)" stroke-width="1.51"></path><path d="M411,56L362,-2L328,53Z" fill="rgb(165,138,165)" stroke="rgb(165,138,165)" stroke-width="1.51"></path><path d="M277,27L208,-30L216,53Z" fill="rgb(156,112,162)" stroke="rgb(156,112,162)" stroke-width="1.51"></path><path d="M216,53L132,59L178,102Z" fill="rgb(169,129,183)" stroke="rgb(169,129,183)" stroke-width="1.51"></path><path d="M362,-2L284,-25L277,27Z" fill="rgb(153,121,155)" stroke="rgb(153,121,155)" stroke-width="1.51"></path><path d="M208,-30L132,59L216,53Z" fill="rgb(149,100,160)" stroke="rgb(149,100,160)" stroke-width="1.51"></path><path d="M309,289L404,267L353,169Z" fill="rgb(217,240,211)" stroke="rgb(217,240,211)" stroke-width="1.51"></path><path d="M362,-2L318,-111L284,-25Z" fill="rgb(150,121,152)" stroke="rgb(150,121,152)" stroke-width="1.51"></path><path d="M411,56L394,2L362,-2Z" fill="rgb(145,126,143)" stroke="rgb(145,126,143)" stroke-width="1.51"></path><path d="M284,-25L208,-30L277,27Z" fill="rgb(148,109,152)" stroke="rgb(148,109,152)" stroke-width="1.51"></path><path d="M132,135L90,181L192,175Z" fill="rgb(198,171,207)" stroke="rgb(198,171,207)" stroke-width="1.51"></path><path d="M58,110L90,181L132,135Z" fill="rgb(176,136,187)" stroke="rgb(176,136,187)" stroke-width="1.51"></path><path d="M90,181L117,276L192,175Z" fill="rgb(201,183,208)" stroke="rgb(201,183,208)" stroke-width="1.51"></path><path d="M132,59L58,110L132,135Z" fill="rgb(161,119,176)" stroke="rgb(161,119,176)" stroke-width="1.51"></path><path d="M90,181L60,254L117,276Z" fill="rgb(179,158,182)" stroke="rgb(179,158,182)" stroke-width="1.51"></path><path d="M42,34L58,110L132,59Z" fill="rgb(136,78,150)" stroke="rgb(136,78,150)" stroke-width="1.51"></path><path d="M422,148L502,123L411,56Z" fill="rgb(163,176,166)" stroke="rgb(163,176,166)" stroke-width="1.51"></path><path d="M411,56L493,47L394,2Z" fill="rgb(139,126,137)" stroke="rgb(139,126,137)" stroke-width="1.51"></path><path d="M505,172L502,123L422,148Z" fill="rgb(162,189,162)" stroke="rgb(162,189,162)" stroke-width="1.51"></path><path d="M505,172L422,148L420,222Z" fill="rgb(186,214,184)" stroke="rgb(186,214,184)" stroke-width="1.51"></path><path d="M180,359L250,368L191,283Z" fill="rgb(144,170,147)" stroke="rgb(144,170,147)" stroke-width="1.51"></path><path d="M191,283L250,368L271,257Z" fill="rgb(179,203,177)" stroke="rgb(179,203,177)" stroke-width="1.51"></path><path d="M431,347L465,291L404,267Z" fill="rgb(138,202,135)" stroke="rgb(138,202,135)" stroke-width="1.51"></path><path d="M465,291L505,172L420,222Z" fill="rgb(170,214,167)" stroke="rgb(170,214,167)" stroke-width="1.51"></path><path d="M208,-30L113,-12L132,59Z" fill="rgb(122,74,134)" stroke="rgb(122,74,134)" stroke-width="1.51"></path><path d="M502,123L493,47L411,56Z" fill="rgb(135,145,139)" stroke="rgb(135,145,139)" stroke-width="1.51"></path><path d="M117,276L180,359L191,283Z" fill="rgb(155,171,159)" stroke="rgb(155,171,159)" stroke-width="1.51"></path><path d="M404,267L465,291L420,222Z" fill="rgb(173,221,167)" stroke="rgb(173,221,167)" stroke-width="1.51"></path><path d="M367,366L404,267L309,289Z" fill="rgb(167,214,163)" stroke="rgb(167,214,163)" stroke-width="1.51"></path><path d="M250,368L367,366L309,289Z" fill="rgb(154,195,156)" stroke="rgb(154,195,156)" stroke-width="1.51"></path><path d="M47,228L60,254L90,181Z" fill="rgb(178,145,181)" stroke="rgb(178,145,181)" stroke-width="1.51"></path><path d="M117,276L96,354L180,359Z" fill="rgb(127,144,134)" stroke="rgb(127,144,134)" stroke-width="1.51"></path><path d="M-32,149L47,228L90,181Z" fill="rgb(168,129,173)" stroke="rgb(168,129,173)" stroke-width="1.51"></path><path d="M367,366L431,347L404,267Z" fill="rgb(133,195,132)" stroke="rgb(133,195,132)" stroke-width="1.51"></path><path d="M432,-109L318,-111L362,-2Z" fill="rgb(138,118,137)" stroke="rgb(138,118,137)" stroke-width="1.51"></path><path d="M284,-25L258,-116L208,-30Z" fill="rgb(148,108,152)" stroke="rgb(148,108,152)" stroke-width="1.51"></path><path d="M208,-30L107,-74L113,-12Z" fill="rgb(115,68,128)" stroke="rgb(115,68,128)" stroke-width="1.51"></path><path d="M432,-109L362,-2L394,2Z" fill="rgb(129,114,127)" stroke="rgb(129,114,127)" stroke-width="1.51"></path><path d="M318,-111L258,-116L284,-25Z" fill="rgb(153,118,156)" stroke="rgb(153,118,156)" stroke-width="1.51"></path><path d="M58,110L-32,149L90,181Z" fill="rgb(159,111,166)" stroke="rgb(159,111,166)" stroke-width="1.51"></path><path d="M113,-12L42,34L132,59Z" fill="rgb(120,58,133)" stroke="rgb(120,58,133)" stroke-width="1.51"></path><path d="M10,-54L42,34L113,-12Z" fill="rgb(88,20,100)" stroke="rgb(88,20,100)" stroke-width="1.51"></path><path d="M258,-116L213,-111L208,-30Z" fill="rgb(142,100,148)" stroke="rgb(142,100,148)" stroke-width="1.51"></path><path d="M250,368L284,412L367,366Z" fill="rgb(133,167,137)" stroke="rgb(133,167,137)" stroke-width="1.51"></path><path d="M367,366L384,436L431,347Z" fill="rgb(103,156,107)" stroke="rgb(103,156,107)" stroke-width="1.51"></path><path d="M164,412L284,412L250,368Z" fill="rgb(118,137,123)" stroke="rgb(118,137,123)" stroke-width="1.51"></path><path d="M493,47L501,-11L394,2Z" fill="rgb(107,104,106)" stroke="rgb(107,104,106)" stroke-width="1.51"></path><path d="M544,33L501,-11L493,47Z" fill="rgb(91,91,94)" stroke="rgb(91,91,94)" stroke-width="1.51"></path><path d="M544,33L493,47L502,123Z" fill="rgb(112,121,118)" stroke="rgb(112,121,118)" stroke-width="1.51"></path><path d="M213,-111L107,-74L208,-30Z" fill="rgb(127,82,138)" stroke="rgb(127,82,138)" stroke-width="1.51"></path><path d="M180,359L164,412L250,368Z" fill="rgb(117,137,124)" stroke="rgb(117,137,124)" stroke-width="1.51"></path><path d="M60,254L96,354L117,276Z" fill="rgb(145,142,146)" stroke="rgb(145,142,146)" stroke-width="1.51"></path><path d="M15,349L96,354L60,254Z" fill="rgb(116,113,117)" stroke="rgb(116,113,117)" stroke-width="1.51"></path><path d="M568,150L544,33L502,123Z" fill="rgb(114,134,123)" stroke="rgb(114,134,123)" stroke-width="1.51"></path><path d="M284,412L364,419L367,366Z" fill="rgb(116,152,119)" stroke="rgb(116,152,119)" stroke-width="1.51"></path><path d="M571,208L568,150L505,172Z" fill="rgb(137,170,140)" stroke="rgb(137,170,140)" stroke-width="1.51"></path><path d="M505,172L568,150L502,123Z" fill="rgb(139,167,143)" stroke="rgb(139,167,143)" stroke-width="1.51"></path><path d="M431,347L474,357L465,291Z" fill="rgb(97,174,102)" stroke="rgb(97,174,102)" stroke-width="1.51"></path><path d="M472,405L474,357L431,347Z" fill="rgb(72,148,82)" stroke="rgb(72,148,82)" stroke-width="1.51"></path><path d="M571,208L505,172L570,254Z" fill="rgb(136,177,140)" stroke="rgb(136,177,140)" stroke-width="1.51"></path><path d="M96,354L164,412L180,359Z" fill="rgb(105,120,114)" stroke="rgb(105,120,114)" stroke-width="1.51"></path><path d="M321,528L384,436L364,419Z" fill="rgb(111,150,114)" stroke="rgb(111,150,114)" stroke-width="1.51"></path><path d="M318,-111L514,-130L258,-116Z" fill="rgb(141,119,140)" stroke="rgb(141,119,140)" stroke-width="1.51"></path><path d="M501,-11L432,-109L394,2Z" fill="rgb(109,104,107)" stroke="rgb(109,104,107)" stroke-width="1.51"></path><path d="M540,-95L432,-109L501,-11Z" fill="rgb(85,88,85)" stroke="rgb(85,88,85)" stroke-width="1.51"></path><path d="M570,254L505,172L465,291Z" fill="rgb(140,192,140)" stroke="rgb(140,192,140)" stroke-width="1.51"></path><path d="M364,419L384,436L367,366Z" fill="rgb(106,148,108)" stroke="rgb(106,148,108)" stroke-width="1.51"></path><path d="M410,469L384,436L321,528Z" fill="rgb(106,148,108)" stroke="rgb(106,148,108)" stroke-width="1.51"></path><path d="M568,364L570,254L465,291Z" fill="rgb(81,158,90)" stroke="rgb(81,158,90)" stroke-width="1.51"></path><path d="M47,228L-18,265L60,254Z" fill="rgb(151,128,151)" stroke="rgb(151,128,151)" stroke-width="1.51"></path><path d="M-34,37L-32,149L58,110Z" fill="rgb(117,70,130)" stroke="rgb(117,70,130)" stroke-width="1.51"></path><path d="M-34,37L58,110L42,34Z" fill="rgb(109,49,122)" stroke="rgb(109,49,122)" stroke-width="1.51"></path><path d="M544,33L542,-27L501,-11Z" fill="rgb(69,73,72)" stroke="rgb(69,73,72)" stroke-width="1.51"></path><path d="M610,-11L542,-27L544,33Z" fill="rgb(58,58,62)" stroke="rgb(58,58,62)" stroke-width="1.51"></path><path d="M-32,149L-18,265L47,228Z" fill="rgb(150,121,152)" stroke="rgb(150,121,152)" stroke-width="1.51"></path><path d="M96,354L95,443L164,412Z" fill="rgb(86,91,96)" stroke="rgb(86,91,96)" stroke-width="1.51"></path><path d="M384,436L472,405L431,347Z" fill="rgb(82,140,87)" stroke="rgb(82,140,87)" stroke-width="1.51"></path><path d="M474,357L568,364L465,291Z" fill="rgb(66,152,79)" stroke="rgb(66,152,79)" stroke-width="1.51"></path><path d="M10,-54L-34,37L42,34Z" fill="rgb(70,4,81)" stroke="rgb(70,4,81)" stroke-width="1.51"></path><path d="M107,-74L10,-54L113,-12Z" fill="rgb(95,33,108)" stroke="rgb(95,33,108)" stroke-width="1.51"></path><path d="M65,-126L10,-54L107,-74Z" fill="rgb(90,22,102)" stroke="rgb(90,22,102)" stroke-width="1.51"></path><path d="M-18,265L15,349L60,254Z" fill="rgb(122,113,120)" stroke="rgb(122,113,120)" stroke-width="1.51"></path><path d="M514,-130L65,-126L258,-116Z" fill="rgb(151,116,155)" stroke="rgb(151,116,155)" stroke-width="1.51"></path><path d="M258,-116L65,-126L213,-111Z" fill="rgb(128,83,138)" stroke="rgb(128,83,138)" stroke-width="1.51"></path><path d="M213,-111L65,-126L107,-74Z" fill="rgb(111,62,124)" stroke="rgb(111,62,124)" stroke-width="1.51"></path><path d="M-18,265L-49,319L15,349Z" fill="rgb(96,96,95)" stroke="rgb(96,96,95)" stroke-width="1.51"></path><path d="M-32,149L-67,179L-18,265Z" fill="rgb(154,121,157)" stroke="rgb(154,121,157)" stroke-width="1.51"></path><path d="M-93,107L-67,179L-32,149Z" fill="rgb(139,97,146)" stroke="rgb(139,97,146)" stroke-width="1.51"></path><path d="M384,436L410,469L472,405Z" fill="rgb(84,139,89)" stroke="rgb(84,139,89)" stroke-width="1.51"></path><path d="M321,528L364,419L284,412Z" fill="rgb(120,152,123)" stroke="rgb(120,152,123)" stroke-width="1.51"></path><path d="M181,524L287,520L284,412Z" fill="rgb(120,141,124)" stroke="rgb(120,141,124)" stroke-width="1.51"></path><path d="M56,442L95,443L96,354Z" fill="rgb(79,74,85)" stroke="rgb(79,74,85)" stroke-width="1.51"></path><path d="M542,-27L540,-95L501,-11Z" fill="rgb(70,73,72)" stroke="rgb(70,73,72)" stroke-width="1.51"></path><path d="M610,-11L540,-95L542,-27Z" fill="rgb(58,59,62)" stroke="rgb(58,59,62)" stroke-width="1.51"></path><path d="M540,-95L514,-130L432,-109Z" fill="rgb(83,86,84)" stroke="rgb(83,86,84)" stroke-width="1.51"></path><path d="M432,-109L514,-130L318,-111Z" fill="rgb(120,111,118)" stroke="rgb(120,111,118)" stroke-width="1.51"></path><path d="M667,55L610,-11L544,33Z" fill="rgb(64,56,69)" stroke="rgb(64,56,69)" stroke-width="1.51"></path><path d="M571,208L638,188L568,150Z" fill="rgb(125,150,128)" stroke="rgb(125,150,128)" stroke-width="1.51"></path><path d="M628,245L638,188L571,208Z" fill="rgb(120,153,124)" stroke="rgb(120,153,124)" stroke-width="1.51"></path><path d="M628,245L571,208L570,254Z" fill="rgb(115,156,118)" stroke="rgb(115,156,118)" stroke-width="1.51"></path><path d="M472,405L568,364L474,357Z" fill="rgb(43,125,61)" stroke="rgb(43,125,61)" stroke-width="1.51"></path><path d="M581,436L568,364L472,405Z" fill="rgb(12,93,41)" stroke="rgb(12,93,41)" stroke-width="1.51"></path><path d="M610,346L628,245L570,254Z" fill="rgb(84,139,88)" stroke="rgb(84,139,88)" stroke-width="1.51"></path><path d="M540,-95L634,-131L514,-130Z" fill="rgb(59,59,62)" stroke="rgb(59,59,62)" stroke-width="1.51"></path><path d="M667,55L544,33L568,150Z" fill="rgb(88,95,98)" stroke="rgb(88,95,98)" stroke-width="1.51"></path><path d="M-67,179L-82,200L-18,265Z" fill="rgb(150,120,152)" stroke="rgb(150,120,152)" stroke-width="1.51"></path><path d="M-93,107L-82,200L-67,179Z" fill="rgb(146,106,151)" stroke="rgb(146,106,151)" stroke-width="1.51"></path><path d="M-9,-98L-37,-50L10,-54Z" fill="rgb(64,0,75)" stroke="rgb(64,0,75)" stroke-width="1.51"></path><path d="M10,-54L-37,-50L-34,37Z" fill="rgb(64,0,75)" stroke="rgb(64,0,75)" stroke-width="1.51"></path><path d="M-34,37L-93,107L-32,149Z" fill="rgb(117,70,129)" stroke="rgb(117,70,129)" stroke-width="1.51"></path><path d="M-82,303L-49,319L-18,265Z" fill="rgb(108,103,107)" stroke="rgb(108,103,107)" stroke-width="1.51"></path><path d="M15,349L56,442L96,354Z" fill="rgb(80,73,84)" stroke="rgb(80,73,84)" stroke-width="1.51"></path><path d="M-52,394L56,442L15,349Z" fill="rgb(53,49,57)" stroke="rgb(53,49,57)" stroke-width="1.51"></path><path d="M181,524L284,412L164,412Z" fill="rgb(111,127,117)" stroke="rgb(111,127,117)" stroke-width="1.51"></path><path d="M-89,47L-93,107L-34,37Z" fill="rgb(101,45,114)" stroke="rgb(101,45,114)" stroke-width="1.51"></path><path d="M65,-126L-9,-98L10,-54Z" fill="rgb(73,7,85)" stroke="rgb(73,7,85)" stroke-width="1.51"></path><path d="M181,524L164,412L95,443Z" fill="rgb(94,103,103)" stroke="rgb(94,103,103)" stroke-width="1.51"></path><path d="M-37,-50L-89,47L-34,37Z" fill="rgb(71,5,82)" stroke="rgb(71,5,82)" stroke-width="1.51"></path><path d="M638,188L664,149L568,150Z" fill="rgb(120,139,123)" stroke="rgb(120,139,123)" stroke-width="1.51"></path><path d="M692,135L664,149L730,186Z" fill="rgb(118,136,122)" stroke="rgb(118,136,122)" stroke-width="1.51"></path><path d="M287,520L321,528L284,412Z" fill="rgb(125,153,129)" stroke="rgb(125,153,129)" stroke-width="1.51"></path><path d="M730,186L664,149L638,188Z" fill="rgb(121,144,125)" stroke="rgb(121,144,125)" stroke-width="1.51"></path><path d="M568,364L610,346L570,254Z" fill="rgb(50,126,64)" stroke="rgb(50,126,64)" stroke-width="1.51"></path><path d="M649,406L610,346L568,364Z" fill="rgb(8,86,36)" stroke="rgb(8,86,36)" stroke-width="1.51"></path><path d="M468,510L472,405L410,469Z" fill="rgb(67,129,75)" stroke="rgb(67,129,75)" stroke-width="1.51"></path><path d="M56,442L67,471L95,443Z" fill="rgb(77,69,82)" stroke="rgb(77,69,82)" stroke-width="1.51"></path><path d="M287,520L181,524L321,528Z" fill="rgb(121,144,125)" stroke="rgb(121,144,125)" stroke-width="1.51"></path><path d="M-28,501L67,471L56,442Z" fill="rgb(62,54,66)" stroke="rgb(62,54,66)" stroke-width="1.51"></path><path d="M97,504L181,524L95,443Z" fill="rgb(88,94,97)" stroke="rgb(88,94,97)" stroke-width="1.51"></path><path d="M-49,319L-52,394L15,349Z" fill="rgb(69,72,71)" stroke="rgb(69,72,71)" stroke-width="1.51"></path><path d="M-82,200L-82,303L-18,265Z" fill="rgb(133,116,132)" stroke="rgb(133,116,132)" stroke-width="1.51"></path><path d="M-93,350L-82,303L-82,200Z" fill="rgb(117,109,115)" stroke="rgb(117,109,115)" stroke-width="1.51"></path><path d="M610,-11L634,-131L540,-95Z" fill="rgb(50,46,54)" stroke="rgb(50,46,54)" stroke-width="1.51"></path><path d="M664,149L667,55L568,150Z" fill="rgb(103,115,111)" stroke="rgb(103,115,111)" stroke-width="1.51"></path><path d="M67,471L97,504L95,443Z" fill="rgb(79,76,86)" stroke="rgb(79,76,86)" stroke-width="1.51"></path><path d="M321,528L468,510L410,469Z" fill="rgb(94,143,97)" stroke="rgb(94,143,97)" stroke-width="1.51"></path><path d="M664,149L692,135L667,55Z" fill="rgb(101,113,109)" stroke="rgb(101,113,109)" stroke-width="1.51"></path><path d="M707,250L638,188L628,245Z" fill="rgb(115,151,118)" stroke="rgb(115,151,118)" stroke-width="1.51"></path><path d="M67,471L-28,501L97,504Z" fill="rgb(67,58,72)" stroke="rgb(67,58,72)" stroke-width="1.51"></path><path d="M-93,350L-52,394L-49,319Z" fill="rgb(68,71,71)" stroke="rgb(68,71,71)" stroke-width="1.51"></path><path d="M692,356L707,250L628,245Z" fill="rgb(82,138,87)" stroke="rgb(82,138,87)" stroke-width="1.51"></path><path d="M468,510L581,436L472,405Z" fill="rgb(33,107,52)" stroke="rgb(33,107,52)" stroke-width="1.51"></path><path d="M-82,303L-93,350L-49,319Z" fill="rgb(87,89,87)" stroke="rgb(87,89,87)" stroke-width="1.51"></path><path d="M-93,107L-93,350L-82,200Z" fill="rgb(148,121,150)" stroke="rgb(148,121,150)" stroke-width="1.51"></path><path d="M692,135L700,70L667,55Z" fill="rgb(89,96,99)" stroke="rgb(89,96,99)" stroke-width="1.51"></path><path d="M682,-111L634,-131L610,-11Z" fill="rgb(49,44,53)" stroke="rgb(49,44,53)" stroke-width="1.51"></path><path d="M692,356L628,245L610,346Z" fill="rgb(52,121,64)" stroke="rgb(52,121,64)" stroke-width="1.51"></path><path d="M692,135L730,186L700,70Z" fill="rgb(108,122,115)" stroke="rgb(108,122,115)" stroke-width="1.51"></path><path d="M-93,107L-130,-26L-93,350Z" fill="rgb(139,97,146)" stroke="rgb(139,97,146)" stroke-width="1.51"></path><path d="M-89,47L-130,-26L-93,107Z" fill="rgb(91,24,104)" stroke="rgb(91,24,104)" stroke-width="1.51"></path><path d="M-37,-50L-130,-26L-89,47Z" fill="rgb(64,0,75)" stroke="rgb(64,0,75)" stroke-width="1.51"></path><path d="M-97,-120L-130,-26L-37,-50Z" fill="rgb(64,0,75)" stroke="rgb(64,0,75)" stroke-width="1.51"></path><path d="M682,-111L610,-11L720,-51Z" fill="rgb(49,44,53)" stroke="rgb(49,44,53)" stroke-width="1.51"></path><path d="M707,250L730,186L638,188Z" fill="rgb(122,153,126)" stroke="rgb(122,153,126)" stroke-width="1.51"></path><path d="M651,476L649,406L581,436Z" fill="rgb(0,68,27)" stroke="rgb(0,68,27)" stroke-width="1.51"></path><path d="M581,436L649,406L568,364Z" fill="rgb(0,68,27)" stroke="rgb(0,68,27)" stroke-width="1.51"></path><path d="M-9,-98L-97,-120L-37,-50Z" fill="rgb(64,0,75)" stroke="rgb(64,0,75)" stroke-width="1.51"></path><path d="M65,-126L-97,-120L-9,-98Z" fill="rgb(64,0,75)" stroke="rgb(64,0,75)" stroke-width="1.51"></path><path d="M-52,394L-28,501L56,442Z" fill="rgb(49,44,53)" stroke="rgb(49,44,53)" stroke-width="1.51"></path><path d="M-93,350L-100,407L-52,394Z" fill="rgb(55,54,59)" stroke="rgb(55,54,59)" stroke-width="1.51"></path><path d="M-130,-26L-100,407L-93,350Z" fill="rgb(140,118,139)" stroke="rgb(140,118,139)" stroke-width="1.51"></path><path d="M649,406L692,356L610,346Z" fill="rgb(9,87,37)" stroke="rgb(9,87,37)" stroke-width="1.51"></path><path d="M707,250L729,450L730,186Z" fill="rgb(72,132,78)" stroke="rgb(72,132,78)" stroke-width="1.51"></path><path d="M-100,407L-28,501L-52,394Z" fill="rgb(49,44,53)" stroke="rgb(49,44,53)" stroke-width="1.51"></path><path d="M97,504L-28,501L181,524Z" fill="rgb(79,74,85)" stroke="rgb(79,74,85)" stroke-width="1.51"></path><path d="M720,-51L667,55L700,70Z" fill="rgb(64,56,68)" stroke="rgb(64,56,68)" stroke-width="1.51"></path><path d="M720,-51L610,-11L667,55Z" fill="rgb(49,44,53)" stroke="rgb(49,44,53)" stroke-width="1.51"></path><path d="M730,186L720,-51L700,70Z" fill="rgb(83,83,91)" stroke="rgb(83,83,91)" stroke-width="1.51"></path><path d="M468,510L581,530L581,436Z" fill="rgb(11,92,40)" stroke="rgb(11,92,40)" stroke-width="1.51"></path><path d="M649,406L729,450L692,356Z" fill="rgb(0,68,27)" stroke="rgb(0,68,27)" stroke-width="1.51"></path><path d="M321,528L581,530L468,510Z" fill="rgb(62,127,72)" stroke="rgb(62,127,72)" stroke-width="1.51"></path><path d="M581,530L651,476L581,436Z" fill="rgb(0,68,27)" stroke="rgb(0,68,27)" stroke-width="1.51"></path><path d="M-100,407L-101,504L-28,501Z" fill="rgb(49,44,53)" stroke="rgb(49,44,53)" stroke-width="1.51"></path><path d="M-28,501L-101,504L181,524Z" fill="rgb(56,49,60)" stroke="rgb(56,49,60)" stroke-width="1.51"></path><path d="M-130,-26L-101,504L-100,407Z" fill="rgb(109,104,107)" stroke="rgb(109,104,107)" stroke-width="1.51"></path><path d="M651,476L729,450L649,406Z" fill="rgb(0,68,27)" stroke="rgb(0,68,27)" stroke-width="1.51"></path><path d="M692,356L729,450L707,250Z" fill="rgb(21,99,44)" stroke="rgb(21,99,44)" stroke-width="1.51"></path><path d="M734,518L729,450L651,476Z" fill="rgb(0,68,27)" stroke="rgb(0,68,27)" stroke-width="1.51"></path><path d="M729,450L734,518L730,186Z" fill="rgb(4,77,32)" stroke="rgb(4,77,32)" stroke-width="1.51"></path><path d="M581,530L734,518L651,476Z" fill="rgb(0,68,27)" stroke="rgb(0,68,27)" stroke-width="1.51"></path></svg>