<svg width="600" height="400" xmlns="http://www.w3.org/2000/svg"><path d="M264,213L273,265L343,275Z" fill="rgb(96,185,107)" stroke="rgb(96,185,107)" stroke-width="1.51"></path><path d="M343,275L355,194L264,213Z" fill="rgb(99,187,109)" stroke="rgb(99,187,109)" stroke-width="1.51"></path><path d="M343,275L410,266L355,194Z" fill="rgb(71,173,95)" stroke="rgb(71,173,95)" stroke-width="1.51"></path><path d="M355,194L327,127L264,213Z" fill="rgb(127,200,122)" stroke="rgb(127,200,122)" stroke-width="1.51"></path><path d="M416,110L327,127L355,194Z" fill="rgb(129,199,120)" stroke="rgb(129,199,120)" stroke-width="1.51"></path><path d="M327,127L263,137L264,213Z" fill="rgb(148,210,131)" stroke="rgb(148,210,131)" stroke-width="1.51"></path><path d="M410,266L422,198L355,194Z" fill="rgb(79,174,98)" stroke="rgb(79,174,98)" stroke-width="1.51"></path><path d="M264,213L185,210L273,265Z" fill="rgb(127,199,121)" stroke="rgb(127,199,121)" stroke-width="1.51"></path><path d="M263,137L185,210L264,213Z" fill="rgb(150,211,133)" stroke="rgb(150,211,133)" stroke-width="1.51"></path><path d="M273,265L276,360L343,275Z" fill="rgb(81,165,94)" stroke="rgb(81,165,94)" stroke-width="1.51"></path><path d="M343,275L405,343L410,266Z" fill="rgb(50,150,79)" stroke="rgb(50,150,79)" stroke-width="1.51"></path><path d="M181,281L276,360L273,265Z" fill="rgb(101,172,101)" stroke="rgb(101,172,101)" stroke-width="1.51"></path><path d="M185,210L181,281L273,265Z" fill="rgb(126,197,118)" stroke="rgb(126,197,118)" stroke-width="1.51"></path><path d="M276,360L349,369L343,275Z" fill="rgb(64,150,85)" stroke="rgb(64,150,85)" stroke-width="1.51"></path><path d="M349,369L405,343L343,275Z" fill="rgb(47,144,78)" stroke="rgb(47,144,78)" stroke-width="1.51"></path><path d="M410,266L475,270L422,198Z" fill="rgb(57,156,84)" stroke="rgb(57,156,84)" stroke-width="1.51"></path><path d="M422,198L416,110L355,194Z" fill="rgb(109,186,110)" stroke="rgb(109,186,110)" stroke-width="1.51"></path><path d="M177,54L176,136L263,137Z" fill="rgb(197,232,153)" stroke="rgb(197,232,153)" stroke-width="1.51"></path><path d="M405,343L475,270L410,266Z" fill="rgb(41,139,72)" stroke="rgb(41,139,72)" stroke-width="1.51"></path><path d="M422,198L497,132L416,110Z" fill="rgb(111,178,105)" stroke="rgb(111,178,105)" stroke-width="1.51"></path><path d="M263,137L176,136L185,210Z" fill="rgb(173,221,142)" stroke="rgb(173,221,142)" stroke-width="1.51"></path><path d="M185,210L111,265L181,281Z" fill="rgb(143,204,125)" stroke="rgb(143,204,125)" stroke-width="1.51"></path><path d="M320,60L263,137L327,127Z" fill="rgb(165,217,140)" stroke="rgb(165,217,140)" stroke-width="1.51"></path><path d="M416,110L320,60L327,127Z" fill="rgb(153,209,131)" stroke="rgb(153,209,131)" stroke-width="1.51"></path><path d="M181,281L179,348L276,360Z" fill="rgb(106,168,101)" stroke="rgb(106,168,101)" stroke-width="1.51"></path><path d="M111,265L179,348L181,281Z" fill="rgb(130,185,113)" stroke="rgb(130,185,113)" stroke-width="1.51"></path><path d="M475,270L503,210L422,198Z" fill="rgb(63,155,85)" stroke="rgb(63,155,85)" stroke-width="1.51"></path><path d="M320,60L273,38L263,137Z" fill="rgb(181,224,149)" stroke="rgb(181,224,149)" stroke-width="1.51"></path><path d="M276,360L336,439L349,369Z" fill="rgb(57,131,77)" stroke="rgb(57,131,77)" stroke-width="1.51"></path><path d="M349,369L396,438L405,343Z" fill="rgb(33,122,67)" stroke="rgb(33,122,67)" stroke-width="1.51"></path><path d="M179,348L257,422L276,360Z" fill="rgb(89,149,91)" stroke="rgb(89,149,91)" stroke-width="1.51"></path><path d="M99,191L111,265L185,210Z" fill="rgb(163,215,138)" stroke="rgb(163,215,138)" stroke-width="1.51"></path><path d="M416,110L425,56L320,60Z" fill="rgb(151,206,130)" stroke="rgb(151,206,130)" stroke-width="1.51"></path><path d="M320,60L336,-8L273,38Z" fill="rgb(184,224,159)" stroke="rgb(184,224,159)" stroke-width="1.51"></path><path d="M468,42L425,56L416,110Z" fill="rgb(143,193,122)" stroke="rgb(143,193,122)" stroke-width="1.51"></path><path d="M503,210L497,132L422,198Z" fill="rgb(88,164,95)" stroke="rgb(88,164,95)" stroke-width="1.51"></path><path d="M405,343L491,365L475,270Z" fill="rgb(26,123,63)" stroke="rgb(26,123,63)" stroke-width="1.51"></path><path d="M257,422L336,439L276,360Z" fill="rgb(67,132,81)" stroke="rgb(67,132,81)" stroke-width="1.51"></path><path d="M176,136L99,191L185,210Z" fill="rgb(179,224,146)" stroke="rgb(179,224,146)" stroke-width="1.51"></path><path d="M95,128L99,191L176,136Z" fill="rgb(200,232,156)" stroke="rgb(200,232,156)" stroke-width="1.51"></path><path d="M475,270L558,284L503,210Z" fill="rgb(38,137,74)" stroke="rgb(38,137,74)" stroke-width="1.51"></path><path d="M482,412L491,365L405,343Z" fill="rgb(17,107,56)" stroke="rgb(17,107,56)" stroke-width="1.51"></path><path d="M336,439L396,438L349,369Z" fill="rgb(40,120,69)" stroke="rgb(40,120,69)" stroke-width="1.51"></path><path d="M273,38L177,54L263,137Z" fill="rgb(198,232,155)" stroke="rgb(198,232,155)" stroke-width="1.51"></path><path d="M179,348L196,428L257,422Z" fill="rgb(94,143,91)" stroke="rgb(94,143,91)" stroke-width="1.51"></path><path d="M266,502L344,494L336,439Z" fill="rgb(58,128,76)" stroke="rgb(58,128,76)" stroke-width="1.51"></path><path d="M132,434L196,428L179,348Z" fill="rgb(106,148,96)" stroke="rgb(106,148,96)" stroke-width="1.51"></path><path d="M273,38L264,-8L177,54Z" fill="rgb(208,235,171)" stroke="rgb(208,235,171)" stroke-width="1.51"></path><path d="M425,56L336,-8L320,60Z" fill="rgb(167,215,146)" stroke="rgb(167,215,146)" stroke-width="1.51"></path><path d="M97,60L95,128L176,136Z" fill="rgb(219,241,165)" stroke="rgb(219,241,165)" stroke-width="1.51"></path><path d="M425,56L416,-33L336,-8Z" fill="rgb(161,209,154)" stroke="rgb(161,209,154)" stroke-width="1.51"></path><path d="M497,132L468,42L416,110Z" fill="rgb(131,184,113)" stroke="rgb(131,184,113)" stroke-width="1.51"></path><path d="M336,-8L264,-8L273,38Z" fill="rgb(192,228,172)" stroke="rgb(192,228,172)" stroke-width="1.51"></path><path d="M45,265L111,265L99,191Z" fill="rgb(164,213,139)" stroke="rgb(164,213,139)" stroke-width="1.51"></path><path d="M40,360L109,368L111,265Z" fill="rgb(137,181,118)" stroke="rgb(137,181,118)" stroke-width="1.51"></path><path d="M111,265L109,368L179,348Z" fill="rgb(129,179,112)" stroke="rgb(129,179,112)" stroke-width="1.51"></path><path d="M396,438L482,412L405,343Z" fill="rgb(23,106,58)" stroke="rgb(23,106,58)" stroke-width="1.51"></path><path d="M503,210L573,181L497,132Z" fill="rgb(84,156,92)" stroke="rgb(84,156,92)" stroke-width="1.51"></path><path d="M497,132L562,46L468,42Z" fill="rgb(130,176,114)" stroke="rgb(130,176,114)" stroke-width="1.51"></path><path d="M491,365L558,284L475,270Z" fill="rgb(22,119,61)" stroke="rgb(22,119,61)" stroke-width="1.51"></path><path d="M579,357L558,284L491,365Z" fill="rgb(6,104,55)" stroke="rgb(6,104,55)" stroke-width="1.51"></path><path d="M558,284L573,181L503,210Z" fill="rgb(53,138,78)" stroke="rgb(53,138,78)" stroke-width="1.51"></path><path d="M396,438L422,490L482,412Z" fill="rgb(21,104,57)" stroke="rgb(21,104,57)" stroke-width="1.51"></path><path d="M336,439L344,494L396,438Z" fill="rgb(40,121,69)" stroke="rgb(40,121,69)" stroke-width="1.51"></path><path d="M266,502L336,439L257,422Z" fill="rgb(68,133,81)" stroke="rgb(68,133,81)" stroke-width="1.51"></path><path d="M573,181L566,138L497,132Z" fill="rgb(95,155,95)" stroke="rgb(95,155,95)" stroke-width="1.51"></path><path d="M33,206L45,265L99,191Z" fill="rgb(176,220,151)" stroke="rgb(176,220,151)" stroke-width="1.51"></path><path d="M192,491L266,502L257,422Z" fill="rgb(85,140,87)" stroke="rgb(85,140,87)" stroke-width="1.51"></path><path d="M109,368L132,434L179,348Z" fill="rgb(116,158,103)" stroke="rgb(116,158,103)" stroke-width="1.51"></path><path d="M46,427L132,434L109,368Z" fill="rgb(122,155,106)" stroke="rgb(122,155,106)" stroke-width="1.51"></path><path d="M192,491L257,422L196,428Z" fill="rgb(93,143,90)" stroke="rgb(93,143,90)" stroke-width="1.51"></path><path d="M177,54L97,60L176,136Z" fill="rgb(222,242,166)" stroke="rgb(222,242,166)" stroke-width="1.51"></path><path d="M95,128L33,206L99,191Z" fill="rgb(198,231,158)" stroke="rgb(198,231,158)" stroke-width="1.51"></path><path d="M104,-37L97,60L177,54Z" fill="rgb(239,249,188)" stroke="rgb(239,249,188)" stroke-width="1.51"></path><path d="M344,494L422,490L396,438Z" fill="rgb(31,115,64)" stroke="rgb(31,115,64)" stroke-width="1.51"></path><path d="M505,499L422,490L553,520Z" fill="rgb(8,92,50)" stroke="rgb(8,92,50)" stroke-width="1.51"></path><path d="M33,117L33,206L95,128Z" fill="rgb(212,237,170)" stroke="rgb(212,237,170)" stroke-width="1.51"></path><path d="M468,42L416,-33L425,56Z" fill="rgb(152,196,138)" stroke="rgb(152,196,138)" stroke-width="1.51"></path><path d="M205,-86L196,-38L264,-8Z" fill="rgb(215,239,186)" stroke="rgb(215,239,186)" stroke-width="1.51"></path><path d="M486,-28L416,-33L468,42Z" fill="rgb(149,191,144)" stroke="rgb(149,191,144)" stroke-width="1.51"></path><path d="M132,434L192,491L196,428Z" fill="rgb(105,148,95)" stroke="rgb(105,148,95)" stroke-width="1.51"></path><path d="M205,-86L264,-8L279,-110Z" fill="rgb(206,235,181)" stroke="rgb(206,235,181)" stroke-width="1.51"></path><path d="M264,-8L196,-38L177,54Z" fill="rgb(218,240,186)" stroke="rgb(218,240,186)" stroke-width="1.51"></path><path d="M561,416L579,357L491,365Z" fill="rgb(0,89,49)" stroke="rgb(0,89,49)" stroke-width="1.51"></path><path d="M558,284L637,266L573,181Z" fill="rgb(38,122,69)" stroke="rgb(38,122,69)" stroke-width="1.51"></path><path d="M561,416L491,365L482,412Z" fill="rgb(3,90,49)" stroke="rgb(3,90,49)" stroke-width="1.51"></path><path d="M45,265L40,360L111,265Z" fill="rgb(148,193,128)" stroke="rgb(148,193,128)" stroke-width="1.51"></path><path d="M132,434L94,508L192,491Z" fill="rgb(113,151,100)" stroke="rgb(113,151,100)" stroke-width="1.51"></path><path d="M-39,340L40,360L45,265Z" fill="rgb(145,186,137)" stroke="rgb(145,186,137)" stroke-width="1.51"></path><path d="M45,41L33,117L97,60Z" fill="rgb(241,250,185)" stroke="rgb(241,250,185)" stroke-width="1.51"></path><path d="M97,60L33,117L95,128Z" fill="rgb(232,246,173)" stroke="rgb(232,246,173)" stroke-width="1.51"></path><path d="M505,499L561,416L482,412Z" fill="rgb(2,88,48)" stroke="rgb(2,88,48)" stroke-width="1.51"></path><path d="M566,138L562,46L497,132Z" fill="rgb(115,165,104)" stroke="rgb(115,165,104)" stroke-width="1.51"></path><path d="M629,127L562,46L566,138Z" fill="rgb(111,153,99)" stroke="rgb(111,153,99)" stroke-width="1.51"></path><path d="M562,46L486,-28L468,42Z" fill="rgb(140,181,131)" stroke="rgb(140,181,131)" stroke-width="1.51"></path><path d="M573,181L629,127L566,138Z" fill="rgb(91,145,91)" stroke="rgb(91,145,91)" stroke-width="1.51"></path><path d="M644,344L637,266L558,284Z" fill="rgb(18,101,54)" stroke="rgb(18,101,54)" stroke-width="1.51"></path><path d="M644,344L558,284L579,357Z" fill="rgb(8,94,51)" stroke="rgb(8,94,51)" stroke-width="1.51"></path><path d="M104,-37L45,41L97,60Z" fill="rgb(248,253,197)" stroke="rgb(248,253,197)" stroke-width="1.51"></path><path d="M422,490L505,499L482,412Z" fill="rgb(13,96,52)" stroke="rgb(13,96,52)" stroke-width="1.51"></path><path d="M553,520L422,490L344,494Z" fill="rgb(20,102,55)" stroke="rgb(20,102,55)" stroke-width="1.51"></path><path d="M40,360L46,427L109,368Z" fill="rgb(129,162,114)" stroke="rgb(129,162,114)" stroke-width="1.51"></path><path d="M647,212L629,127L573,181Z" fill="rgb(78,136,84)" stroke="rgb(78,136,84)" stroke-width="1.51"></path><path d="M637,266L647,212L573,181Z" fill="rgb(52,126,74)" stroke="rgb(52,126,74)" stroke-width="1.51"></path><path d="M279,-110L336,-8L356,-114Z" fill="rgb(181,222,169)" stroke="rgb(181,222,169)" stroke-width="1.51"></path><path d="M279,-110L264,-8L336,-8Z" fill="rgb(191,228,175)" stroke="rgb(191,228,175)" stroke-width="1.51"></path><path d="M196,-38L104,-37L177,54Z" fill="rgb(234,247,194)" stroke="rgb(234,247,194)" stroke-width="1.51"></path><path d="M123,-109L104,-37L196,-38Z" fill="rgb(238,248,197)" stroke="rgb(238,248,197)" stroke-width="1.51"></path><path d="M356,-114L336,-8L416,-33Z" fill="rgb(167,215,160)" stroke="rgb(167,215,160)" stroke-width="1.51"></path><path d="M33,117L-28,192L33,206Z" fill="rgb(203,233,177)" stroke="rgb(203,233,177)" stroke-width="1.51"></path><path d="M33,206L-28,192L45,265Z" fill="rgb(178,221,163)" stroke="rgb(178,221,163)" stroke-width="1.51"></path><path d="M40,360L-54,426L46,427Z" fill="rgb(129,158,126)" stroke="rgb(129,158,126)" stroke-width="1.51"></path><path d="M-49,136L-28,192L33,117Z" fill="rgb(215,239,186)" stroke="rgb(215,239,186)" stroke-width="1.51"></path><path d="M408,-119L356,-114L416,-33Z" fill="rgb(162,208,156)" stroke="rgb(162,208,156)" stroke-width="1.51"></path><path d="M637,438L644,344L579,357Z" fill="rgb(0,76,44)" stroke="rgb(0,76,44)" stroke-width="1.51"></path><path d="M637,266L702,257L647,212Z" fill="rgb(37,119,68)" stroke="rgb(37,119,68)" stroke-width="1.51"></path><path d="M637,438L579,357L561,416Z" fill="rgb(0,70,42)" stroke="rgb(0,70,42)" stroke-width="1.51"></path><path d="M46,427L94,508L132,434Z" fill="rgb(123,155,106)" stroke="rgb(123,155,106)" stroke-width="1.51"></path><path d="M192,491L94,508L266,502Z" fill="rgb(102,146,94)" stroke="rgb(102,146,94)" stroke-width="1.51"></path><path d="M266,502L553,520L344,494Z" fill="rgb(31,115,64)" stroke="rgb(31,115,64)" stroke-width="1.51"></path><path d="M647,57L572,-11L562,46Z" fill="rgb(128,159,117)" stroke="rgb(128,159,117)" stroke-width="1.51"></path><path d="M562,46L572,-11L486,-28Z" fill="rgb(136,174,135)" stroke="rgb(136,174,135)" stroke-width="1.51"></path><path d="M487,-95L408,-119L416,-33Z" fill="rgb(153,197,147)" stroke="rgb(153,197,147)" stroke-width="1.51"></path><path d="M487,-95L416,-33L486,-28Z" fill="rgb(148,190,143)" stroke="rgb(148,190,143)" stroke-width="1.51"></path><path d="M356,-114L408,-119L279,-110Z" fill="rgb(174,219,165)" stroke="rgb(174,219,165)" stroke-width="1.51"></path><path d="M-58,277L-39,340L45,265Z" fill="rgb(152,196,146)" stroke="rgb(152,196,146)" stroke-width="1.51"></path><path d="M46,427L47,495L94,508Z" fill="rgb(127,157,112)" stroke="rgb(127,157,112)" stroke-width="1.51"></path><path d="M572,-11L487,-95L486,-28Z" fill="rgb(140,180,139)" stroke="rgb(140,180,139)" stroke-width="1.51"></path><path d="M-20,39L-49,136L33,117Z" fill="rgb(237,248,196)" stroke="rgb(237,248,196)" stroke-width="1.51"></path><path d="M104,-37L54,-38L45,41Z" fill="rgb(252,253,209)" stroke="rgb(252,253,209)" stroke-width="1.51"></path><path d="M123,-109L54,-38L104,-37Z" fill="rgb(248,252,204)" stroke="rgb(248,252,204)" stroke-width="1.51"></path><path d="M123,-109L196,-38L205,-86Z" fill="rgb(229,245,192)" stroke="rgb(229,245,192)" stroke-width="1.51"></path><path d="M-28,192L-58,277L45,265Z" fill="rgb(168,215,161)" stroke="rgb(168,215,161)" stroke-width="1.51"></path><path d="M-115,191L-101,286L-58,277Z" fill="rgb(165,213,159)" stroke="rgb(165,213,159)" stroke-width="1.51"></path><path d="M-20,39L33,117L45,41Z" fill="rgb(246,251,198)" stroke="rgb(246,251,198)" stroke-width="1.51"></path><path d="M-19,498L47,495L46,427Z" fill="rgb(128,157,122)" stroke="rgb(128,157,122)" stroke-width="1.51"></path><path d="M505,499L553,520L561,416Z" fill="rgb(0,83,46)" stroke="rgb(0,83,46)" stroke-width="1.51"></path><path d="M94,508L553,520L266,502Z" fill="rgb(61,130,78)" stroke="rgb(61,130,78)" stroke-width="1.51"></path><path d="M572,-11L571,-114L487,-95Z" fill="rgb(136,173,135)" stroke="rgb(136,173,135)" stroke-width="1.51"></path><path d="M629,127L647,57L562,46Z" fill="rgb(118,153,103)" stroke="rgb(118,153,103)" stroke-width="1.51"></path><path d="M705,58L647,57L629,127Z" fill="rgb(117,153,102)" stroke="rgb(117,153,102)" stroke-width="1.51"></path><path d="M553,520L637,438L561,416Z" fill="rgb(0,72,42)" stroke="rgb(0,72,42)" stroke-width="1.51"></path><path d="M-26,-8L-20,39L45,41Z" fill="rgb(253,255,219)" stroke="rgb(253,255,219)" stroke-width="1.51"></path><path d="M647,212L728,119L629,127Z" fill="rgb(88,141,88)" stroke="rgb(88,141,88)" stroke-width="1.51"></path><path d="M705,344L702,257L637,266Z" fill="rgb(21,103,57)" stroke="rgb(21,103,57)" stroke-width="1.51"></path><path d="M705,344L637,266L644,344Z" fill="rgb(12,95,52)" stroke="rgb(12,95,52)" stroke-width="1.51"></path><path d="M408,-119L123,-109L279,-110Z" fill="rgb(199,231,178)" stroke="rgb(199,231,178)" stroke-width="1.51"></path><path d="M279,-110L123,-109L205,-86Z" fill="rgb(221,241,188)" stroke="rgb(221,241,188)" stroke-width="1.51"></path><path d="M711,409L705,344L644,344Z" fill="rgb(0,81,46)" stroke="rgb(0,81,46)" stroke-width="1.51"></path><path d="M24,-104L-26,-8L54,-38Z" fill="rgb(254,254,224)" stroke="rgb(254,254,224)" stroke-width="1.51"></path><path d="M54,-38L-26,-8L45,41Z" fill="rgb(254,254,222)" stroke="rgb(254,254,222)" stroke-width="1.51"></path><path d="M-103,50L-96,126L-49,136Z" fill="rgb(235,247,195)" stroke="rgb(235,247,195)" stroke-width="1.51"></path><path d="M-39,340L-54,426L40,360Z" fill="rgb(134,168,133)" stroke="rgb(134,168,133)" stroke-width="1.51"></path><path d="M-101,417L-54,426L-39,340Z" fill="rgb(130,160,130)" stroke="rgb(130,160,130)" stroke-width="1.51"></path><path d="M702,257L730,213L647,212Z" fill="rgb(48,124,72)" stroke="rgb(48,124,72)" stroke-width="1.51"></path><path d="M705,344L730,213L702,257Z" fill="rgb(27,110,61)" stroke="rgb(27,110,61)" stroke-width="1.51"></path><path d="M-58,277L-101,286L-39,340Z" fill="rgb(150,192,145)" stroke="rgb(150,192,145)" stroke-width="1.51"></path><path d="M-115,191L-58,277L-28,192Z" fill="rgb(179,221,168)" stroke="rgb(179,221,168)" stroke-width="1.51"></path><path d="M-115,191L-28,192L-49,136Z" fill="rgb(203,233,180)" stroke="rgb(203,233,180)" stroke-width="1.51"></path><path d="M-103,50L-49,136L-20,39Z" fill="rgb(244,251,202)" stroke="rgb(244,251,202)" stroke-width="1.51"></path><path d="M647,57L636,-45L572,-11Z" fill="rgb(129,158,129)" stroke="rgb(129,158,129)" stroke-width="1.51"></path><path d="M693,-44L636,-45L647,57Z" fill="rgb(129,158,129)" stroke="rgb(129,158,129)" stroke-width="1.51"></path><path d="M-54,426L-19,498L46,427Z" fill="rgb(129,158,129)" stroke="rgb(129,158,129)" stroke-width="1.51"></path><path d="M47,495L-19,498L94,508Z" fill="rgb(127,157,118)" stroke="rgb(127,157,118)" stroke-width="1.51"></path><path d="M728,119L705,58L629,127Z" fill="rgb(111,150,98)" stroke="rgb(111,150,98)" stroke-width="1.51"></path><path d="M730,213L728,119L647,212Z" fill="rgb(73,135,83)" stroke="rgb(73,135,83)" stroke-width="1.51"></path><path d="M-96,126L-115,191L-49,136Z" fill="rgb(214,238,185)" stroke="rgb(214,238,185)" stroke-width="1.51"></path><path d="M636,-45L571,-114L572,-11Z" fill="rgb(130,160,129)" stroke="rgb(130,160,129)" stroke-width="1.51"></path><path d="M487,-95L571,-114L408,-119Z" fill="rgb(144,185,141)" stroke="rgb(144,185,141)" stroke-width="1.51"></path><path d="M-54,426L-120,499L-19,498Z" fill="rgb(129,158,129)" stroke="rgb(129,158,129)" stroke-width="1.51"></path><path d="M-101,286L-106,343L-39,340Z" fill="rgb(145,186,141)" stroke="rgb(145,186,141)" stroke-width="1.51"></path><path d="M-115,191L-106,343L-101,286Z" fill="rgb(158,204,153)" stroke="rgb(158,204,153)" stroke-width="1.51"></path><path d="M553,520L647,510L637,438Z" fill="rgb(0,69,41)" stroke="rgb(0,69,41)" stroke-width="1.51"></path><path d="M637,438L711,409L644,344Z" fill="rgb(0,70,41)" stroke="rgb(0,70,41)" stroke-width="1.51"></path><path d="M698,514L711,409L637,438Z" fill="rgb(0,69,41)" stroke="rgb(0,69,41)" stroke-width="1.51"></path><path d="M705,344L711,409L730,213Z" fill="rgb(10,94,51)" stroke="rgb(10,94,51)" stroke-width="1.51"></path><path d="M-26,-8L-103,50L-20,39Z" fill="rgb(253,254,217)" stroke="rgb(253,254,217)" stroke-width="1.51"></path><path d="M123,-109L24,-104L54,-38Z" fill="rgb(252,253,210)" stroke="rgb(252,253,210)" stroke-width="1.51"></path><path d="M636,-45L625,-99L571,-114Z" fill="rgb(129,158,129)" stroke="rgb(129,158,129)" stroke-width="1.51"></path><path d="M693,-44L625,-99L636,-45Z" fill="rgb(129,158,129)" stroke="rgb(129,158,129)" stroke-width="1.51"></path><path d="M-94,-19L-103,50L-26,-8Z" fill="rgb(255,255,226)" stroke="rgb(255,255,226)" stroke-width="1.51"></path><path d="M-96,126L-103,50L-115,191Z" fill="rgb(226,244,191)" stroke="rgb(226,244,191)" stroke-width="1.51"></path><path d="M-106,343L-101,417L-39,340Z" fill="rgb(135,171,134)" stroke="rgb(135,171,134)" stroke-width="1.51"></path><path d="M705,58L693,-44L647,57Z" fill="rgb(128,157,119)" stroke="rgb(128,157,119)" stroke-width="1.51"></path><path d="M716,-82L693,-44L705,58Z" fill="rgb(129,158,129)" stroke="rgb(129,158,129)" stroke-width="1.51"></path><path d="M647,510L698,514L637,438Z" fill="rgb(0,69,41)" stroke="rgb(0,69,41)" stroke-width="1.51"></path><path d="M553,520L698,514L647,510Z" fill="rgb(0,69,41)" stroke="rgb(0,69,41)" stroke-width="1.51"></path><path d="M-33,-101L-94,-19L-26,-8Z" fill="rgb(255,255,229)" stroke="rgb(255,255,229)" stroke-width="1.51"></path><path d="M24,-104L-33,-101L-26,-8Z" fill="rgb(255,255,229)" stroke="rgb(255,255,229)" stroke-width="1.51"></path><path d="M-19,498L-120,499L94,508Z" fill="rgb(129,158,129)" stroke="rgb(129,158,129)" stroke-width="1.51"></path><path d="M-101,417L-120,499L-54,426Z" fill="rgb(129,158,129)" stroke="rgb(129,158,129)" stroke-width="1.51"></path><path d="M-106,343L-120,499L-101,417Z" fill="rgb(129,158,129)" stroke="rgb(129,158,129)" stroke-width="1.51"></path><path d="M-115,191L-120,499L-106,343Z" fill="rgb(140,180,138)" stroke="rgb(140,180,138)" stroke-width="1.51"></path><path d="M728,119L716,-82L705,58Z" fill="rgb(127,157,116)" stroke="rgb(127,157,116)" stroke-width="1.51"></path><path d="M693,-44L716,-82L625,-99Z" fill="rgb(129,158,129)" stroke="rgb(129,158,129)" stroke-width="1.51"></path><path d="M625,-99L716,-82L571,-114Z" fill="rgb(129,158,129)" stroke="rgb(129,158,129)" stroke-width="1.51"></path><path d="M24,-104L-128,-99L-33,-101Z" fill="rgb(255,255,229)" stroke="rgb(255,255,229)" stroke-width="1.51"></path><path d="M-33,-101L-128,-99L-94,-19Z" fill="rgb(255,255,229)" stroke="rgb(255,255,229)" stroke-width="1.51"></path><path d="M-94,-19L-128,-99L-103,50Z" fill="rgb(255,255,229)" stroke="rgb(255,255,229)" stroke-width="1.51"></path><path d="M-103,50L-128,-99L-115,191Z" fill="rgb(251,253,208)" stroke="rgb(251,253,208)" stroke-width="1.51"></path><path d="M-115,191L-128,-99L-120,499Z" fill="rgb(190,227,175)" stroke="rgb(190,227,175)" stroke-width="1.51"></path><path d="M123,-109L-128,-99L24,-104Z" fill="rgb(255,255,227)" stroke="rgb(255,255,227)" stroke-width="1.51"></path></svg>