<svg width="600" height="400" xmlns="http://www.w3.org/2000/svg"><path d="M262,200L262,276L334,275Z" fill="rgb(90,186,144)" stroke="rgb(90,186,144)" stroke-width="1.51"></path><path d="M334,275L339,204L262,200Z" fill="rgb(91,187,148)" stroke="rgb(91,187,148)" stroke-width="1.51"></path><path d="M334,275L409,269L339,204Z" fill="rgb(70,176,123)" stroke="rgb(70,176,123)" stroke-width="1.51"></path><path d="M339,204L343,128L262,200Z" fill="rgb(111,197,168)" stroke="rgb(111,197,168)" stroke-width="1.51"></path><path d="M417,202L343,128L339,204Z" fill="rgb(99,190,151)" stroke="rgb(99,190,151)" stroke-width="1.51"></path><path d="M262,276L268,354L334,275Z" fill="rgb(76,168,118)" stroke="rgb(76,168,118)" stroke-width="1.51"></path><path d="M334,275L343,350L409,269Z" fill="rgb(55,158,98)" stroke="rgb(55,158,98)" stroke-width="1.51"></path><path d="M343,128L261,124L262,200Z" fill="rgb(131,207,185)" stroke="rgb(131,207,185)" stroke-width="1.51"></path><path d="M262,200L182,276L262,276Z" fill="rgb(108,194,156)" stroke="rgb(108,194,156)" stroke-width="1.51"></path><path d="M268,354L343,350L334,275Z" fill="rgb(62,156,105)" stroke="rgb(62,156,105)" stroke-width="1.51"></path><path d="M181,197L182,276L262,200Z" fill="rgb(127,202,174)" stroke="rgb(127,202,174)" stroke-width="1.51"></path><path d="M262,276L187,349L268,354Z" fill="rgb(89,167,123)" stroke="rgb(89,167,123)" stroke-width="1.51"></path><path d="M188,130L181,197L262,200Z" fill="rgb(146,213,194)" stroke="rgb(146,213,194)" stroke-width="1.51"></path><path d="M409,269L417,202L339,204Z" fill="rgb(73,176,125)" stroke="rgb(73,176,125)" stroke-width="1.51"></path><path d="M261,124L188,130L262,200Z" fill="rgb(149,214,197)" stroke="rgb(149,214,197)" stroke-width="1.51"></path><path d="M182,276L187,349L262,276Z" fill="rgb(105,179,136)" stroke="rgb(105,179,136)" stroke-width="1.51"></path><path d="M409,269L481,277L417,202Z" fill="rgb(54,160,98)" stroke="rgb(54,160,98)" stroke-width="1.51"></path><path d="M343,350L415,347L409,269Z" fill="rgb(43,146,83)" stroke="rgb(43,146,83)" stroke-width="1.51"></path><path d="M416,425L415,347L343,350Z" fill="rgb(32,126,70)" stroke="rgb(32,126,70)" stroke-width="1.51"></path><path d="M417,202L419,119L343,128Z" fill="rgb(109,191,153)" stroke="rgb(109,191,153)" stroke-width="1.51"></path><path d="M343,128L341,57L261,124Z" fill="rgb(150,213,191)" stroke="rgb(150,213,191)" stroke-width="1.51"></path><path d="M485,197L419,119L417,202Z" fill="rgb(89,174,128)" stroke="rgb(89,174,128)" stroke-width="1.51"></path><path d="M268,354L331,418L343,350Z" fill="rgb(54,138,93)" stroke="rgb(54,138,93)" stroke-width="1.51"></path><path d="M259,428L331,418L268,354Z" fill="rgb(59,130,95)" stroke="rgb(59,130,95)" stroke-width="1.51"></path><path d="M181,197L119,197L182,276Z" fill="rgb(144,209,183)" stroke="rgb(144,209,183)" stroke-width="1.51"></path><path d="M182,276L107,344L187,349Z" fill="rgb(118,179,139)" stroke="rgb(118,179,139)" stroke-width="1.51"></path><path d="M188,130L119,197L181,197Z" fill="rgb(163,219,204)" stroke="rgb(163,219,204)" stroke-width="1.51"></path><path d="M419,119L341,57L343,128Z" fill="rgb(140,206,174)" stroke="rgb(140,206,174)" stroke-width="1.51"></path><path d="M261,124L187,45L188,130Z" fill="rgb(183,228,218)" stroke="rgb(183,228,218)" stroke-width="1.51"></path><path d="M415,347L481,277L409,269Z" fill="rgb(40,143,75)" stroke="rgb(40,143,75)" stroke-width="1.51"></path><path d="M341,57L266,50L261,124Z" fill="rgb(165,219,203)" stroke="rgb(165,219,203)" stroke-width="1.51"></path><path d="M188,130L108,120L119,197Z" fill="rgb(181,227,217)" stroke="rgb(181,227,217)" stroke-width="1.51"></path><path d="M481,277L485,197L417,202Z" fill="rgb(60,159,103)" stroke="rgb(60,159,103)" stroke-width="1.51"></path><path d="M119,197L109,279L182,276Z" fill="rgb(141,206,174)" stroke="rgb(141,206,174)" stroke-width="1.51"></path><path d="M187,422L259,428L268,354Z" fill="rgb(75,137,106)" stroke="rgb(75,137,106)" stroke-width="1.51"></path><path d="M187,422L268,354L187,349Z" fill="rgb(88,151,116)" stroke="rgb(88,151,116)" stroke-width="1.51"></path><path d="M108,426L187,422L187,349Z" fill="rgb(101,147,120)" stroke="rgb(101,147,120)" stroke-width="1.51"></path><path d="M415,347L486,347L481,277Z" fill="rgb(26,130,61)" stroke="rgb(26,130,61)" stroke-width="1.51"></path><path d="M481,277L561,200L485,197Z" fill="rgb(53,149,94)" stroke="rgb(53,149,94)" stroke-width="1.51"></path><path d="M416,425L486,347L415,347Z" fill="rgb(21,116,56)" stroke="rgb(21,116,56)" stroke-width="1.51"></path><path d="M109,279L107,344L182,276Z" fill="rgb(129,188,149)" stroke="rgb(129,188,149)" stroke-width="1.51"></path><path d="M340,-27L260,-21L266,50Z" fill="rgb(181,225,211)" stroke="rgb(181,225,211)" stroke-width="1.51"></path><path d="M419,119L417,53L341,57Z" fill="rgb(143,203,171)" stroke="rgb(143,203,171)" stroke-width="1.51"></path><path d="M481,43L417,53L419,119Z" fill="rgb(135,192,156)" stroke="rgb(135,192,156)" stroke-width="1.51"></path><path d="M331,418L416,425L343,350Z" fill="rgb(37,121,74)" stroke="rgb(37,121,74)" stroke-width="1.51"></path><path d="M338,495L416,425L331,418Z" fill="rgb(37,121,74)" stroke="rgb(37,121,74)" stroke-width="1.51"></path><path d="M266,50L187,45L261,124Z" fill="rgb(182,227,217)" stroke="rgb(182,227,217)" stroke-width="1.51"></path><path d="M260,-21L187,45L266,50Z" fill="rgb(192,231,223)" stroke="rgb(192,231,223)" stroke-width="1.51"></path><path d="M115,54L108,120L188,130Z" fill="rgb(205,236,231)" stroke="rgb(205,236,231)" stroke-width="1.51"></path><path d="M119,197L44,205L109,279Z" fill="rgb(157,213,191)" stroke="rgb(157,213,191)" stroke-width="1.51"></path><path d="M109,279L33,279L107,344Z" fill="rgb(137,191,155)" stroke="rgb(137,191,155)" stroke-width="1.51"></path><path d="M485,197L492,124L419,119Z" fill="rgb(99,175,132)" stroke="rgb(99,175,132)" stroke-width="1.51"></path><path d="M561,200L492,124L485,197Z" fill="rgb(78,159,114)" stroke="rgb(78,159,114)" stroke-width="1.51"></path><path d="M42,124L44,205L119,197Z" fill="rgb(181,226,215)" stroke="rgb(181,226,215)" stroke-width="1.51"></path><path d="M108,120L42,124L119,197Z" fill="rgb(190,230,224)" stroke="rgb(190,230,224)" stroke-width="1.51"></path><path d="M187,45L115,54L188,130Z" fill="rgb(206,236,232)" stroke="rgb(206,236,232)" stroke-width="1.51"></path><path d="M259,428L267,496L331,418Z" fill="rgb(59,130,95)" stroke="rgb(59,130,95)" stroke-width="1.51"></path><path d="M191,506L267,496L259,428Z" fill="rgb(75,137,105)" stroke="rgb(75,137,105)" stroke-width="1.51"></path><path d="M267,496L338,495L331,418Z" fill="rgb(51,127,89)" stroke="rgb(51,127,89)" stroke-width="1.51"></path><path d="M340,-27L266,50L341,57Z" fill="rgb(169,219,202)" stroke="rgb(169,219,202)" stroke-width="1.51"></path><path d="M187,45L184,-19L115,54Z" fill="rgb(217,241,238)" stroke="rgb(217,241,238)" stroke-width="1.51"></path><path d="M567,274L561,200L481,277Z" fill="rgb(38,138,79)" stroke="rgb(38,138,79)" stroke-width="1.51"></path><path d="M187,422L191,506L259,428Z" fill="rgb(84,140,111)" stroke="rgb(84,140,111)" stroke-width="1.51"></path><path d="M107,344L108,426L187,349Z" fill="rgb(112,162,130)" stroke="rgb(112,162,130)" stroke-width="1.51"></path><path d="M40,356L108,426L107,344Z" fill="rgb(120,164,134)" stroke="rgb(120,164,134)" stroke-width="1.51"></path><path d="M44,205L33,279L109,279Z" fill="rgb(153,209,180)" stroke="rgb(153,209,180)" stroke-width="1.51"></path><path d="M492,124L481,43L419,119Z" fill="rgb(125,185,145)" stroke="rgb(125,185,145)" stroke-width="1.51"></path><path d="M410,-20L340,-27L341,57Z" fill="rgb(163,215,187)" stroke="rgb(163,215,187)" stroke-width="1.51"></path><path d="M567,51L481,43L492,124Z" fill="rgb(123,177,140)" stroke="rgb(123,177,140)" stroke-width="1.51"></path><path d="M410,-20L341,57L417,53Z" fill="rgb(153,208,178)" stroke="rgb(153,208,178)" stroke-width="1.51"></path><path d="M555,344L567,274L481,277Z" fill="rgb(20,122,56)" stroke="rgb(20,122,56)" stroke-width="1.51"></path><path d="M416,425L493,423L486,347Z" fill="rgb(13,100,45)" stroke="rgb(13,100,45)" stroke-width="1.51"></path><path d="M488,499L493,423L416,425Z" fill="rgb(13,100,45)" stroke="rgb(13,100,45)" stroke-width="1.51"></path><path d="M555,344L481,277L486,347Z" fill="rgb(17,120,54)" stroke="rgb(17,120,54)" stroke-width="1.51"></path><path d="M493,423L555,344L486,347Z" fill="rgb(3,102,42)" stroke="rgb(3,102,42)" stroke-width="1.51"></path><path d="M44,205L-32,271L33,279Z" fill="rgb(159,213,182)" stroke="rgb(159,213,182)" stroke-width="1.51"></path><path d="M44,45L42,124L108,120Z" fill="rgb(219,242,240)" stroke="rgb(219,242,240)" stroke-width="1.51"></path><path d="M115,54L44,45L108,120Z" fill="rgb(221,242,242)" stroke="rgb(221,242,242)" stroke-width="1.51"></path><path d="M260,-21L184,-19L187,45Z" fill="rgb(205,236,230)" stroke="rgb(205,236,230)" stroke-width="1.51"></path><path d="M107,-21L184,-19L116,-103Z" fill="rgb(228,245,243)" stroke="rgb(228,245,243)" stroke-width="1.51"></path><path d="M481,43L410,-20L417,53Z" fill="rgb(146,197,161)" stroke="rgb(146,197,161)" stroke-width="1.51"></path><path d="M33,279L40,356L107,344Z" fill="rgb(135,184,149)" stroke="rgb(135,184,149)" stroke-width="1.51"></path><path d="M637,131L561,127L561,200Z" fill="rgb(79,142,110)" stroke="rgb(79,142,110)" stroke-width="1.51"></path><path d="M561,200L561,127L492,124Z" fill="rgb(87,158,118)" stroke="rgb(87,158,118)" stroke-width="1.51"></path><path d="M117,494L191,506L187,422Z" fill="rgb(100,146,119)" stroke="rgb(100,146,119)" stroke-width="1.51"></path><path d="M267,496L415,506L338,495Z" fill="rgb(43,123,80)" stroke="rgb(43,123,80)" stroke-width="1.51"></path><path d="M338,495L415,506L416,425Z" fill="rgb(30,116,66)" stroke="rgb(30,116,66)" stroke-width="1.51"></path><path d="M191,506L415,506L267,496Z" fill="rgb(57,130,94)" stroke="rgb(57,130,94)" stroke-width="1.51"></path><path d="M39,424L117,494L108,426Z" fill="rgb(115,152,129)" stroke="rgb(115,152,129)" stroke-width="1.51"></path><path d="M108,426L117,494L187,422Z" fill="rgb(106,149,123)" stroke="rgb(106,149,123)" stroke-width="1.51"></path><path d="M-33,421L39,424L40,356Z" fill="rgb(123,156,131)" stroke="rgb(123,156,131)" stroke-width="1.51"></path><path d="M40,356L39,424L108,426Z" fill="rgb(118,153,131)" stroke="rgb(118,153,131)" stroke-width="1.51"></path><path d="M107,-21L44,45L115,54Z" fill="rgb(231,246,248)" stroke="rgb(231,246,248)" stroke-width="1.51"></path><path d="M-43,197L-32,271L44,205Z" fill="rgb(170,218,196)" stroke="rgb(170,218,196)" stroke-width="1.51"></path><path d="M493,423L563,419L555,344Z" fill="rgb(0,87,35)" stroke="rgb(0,87,35)" stroke-width="1.51"></path><path d="M636,349L637,277L567,274Z" fill="rgb(16,102,47)" stroke="rgb(16,102,47)" stroke-width="1.51"></path><path d="M562,498L563,419L493,423Z" fill="rgb(0,84,34)" stroke="rgb(0,84,34)" stroke-width="1.51"></path><path d="M184,-19L107,-21L115,54Z" fill="rgb(227,245,243)" stroke="rgb(227,245,243)" stroke-width="1.51"></path><path d="M256,-96L184,-19L260,-21Z" fill="rgb(198,233,225)" stroke="rgb(198,233,225)" stroke-width="1.51"></path><path d="M567,51L492,-19L481,43Z" fill="rgb(133,181,145)" stroke="rgb(133,181,145)" stroke-width="1.51"></path><path d="M481,43L492,-19L410,-20Z" fill="rgb(146,193,155)" stroke="rgb(146,193,155)" stroke-width="1.51"></path><path d="M336,-106L256,-96L340,-27Z" fill="rgb(175,222,204)" stroke="rgb(175,222,204)" stroke-width="1.51"></path><path d="M415,506L488,499L416,425Z" fill="rgb(19,105,51)" stroke="rgb(19,105,51)" stroke-width="1.51"></path><path d="M561,127L567,51L492,124Z" fill="rgb(112,167,131)" stroke="rgb(112,167,131)" stroke-width="1.51"></path><path d="M635,53L567,51L561,127Z" fill="rgb(112,154,128)" stroke="rgb(112,154,128)" stroke-width="1.51"></path><path d="M33,279L-37,345L40,356Z" fill="rgb(140,186,150)" stroke="rgb(140,186,150)" stroke-width="1.51"></path><path d="M-43,197L44,205L42,124Z" fill="rgb(187,228,216)" stroke="rgb(187,228,216)" stroke-width="1.51"></path><path d="M336,-106L340,-27L405,-98Z" fill="rgb(165,216,188)" stroke="rgb(165,216,188)" stroke-width="1.51"></path><path d="M340,-27L256,-96L260,-21Z" fill="rgb(182,225,211)" stroke="rgb(182,225,211)" stroke-width="1.51"></path><path d="M567,274L641,203L561,200Z" fill="rgb(44,126,82)" stroke="rgb(44,126,82)" stroke-width="1.51"></path><path d="M636,349L567,274L555,344Z" fill="rgb(9,99,44)" stroke="rgb(9,99,44)" stroke-width="1.51"></path><path d="M-31,120L-43,197L42,124Z" fill="rgb(202,235,228)" stroke="rgb(202,235,228)" stroke-width="1.51"></path><path d="M637,277L641,203L567,274Z" fill="rgb(32,118,70)" stroke="rgb(32,118,70)" stroke-width="1.51"></path><path d="M405,-98L340,-27L410,-20Z" fill="rgb(160,211,180)" stroke="rgb(160,211,180)" stroke-width="1.51"></path><path d="M-31,55L42,124L44,45Z" fill="rgb(230,246,246)" stroke="rgb(230,246,246)" stroke-width="1.51"></path><path d="M-31,55L-31,120L42,124Z" fill="rgb(226,244,241)" stroke="rgb(226,244,241)" stroke-width="1.51"></path><path d="M-32,271L-37,345L33,279Z" fill="rgb(148,196,159)" stroke="rgb(148,196,159)" stroke-width="1.51"></path><path d="M-108,344L-37,345L-32,271Z" fill="rgb(143,189,152)" stroke="rgb(143,189,152)" stroke-width="1.51"></path><path d="M483,-95L405,-98L410,-20Z" fill="rgb(151,200,163)" stroke="rgb(151,200,163)" stroke-width="1.51"></path><path d="M641,203L637,131L561,200Z" fill="rgb(65,133,99)" stroke="rgb(65,133,99)" stroke-width="1.51"></path><path d="M563,419L636,349L555,344Z" fill="rgb(0,84,33)" stroke="rgb(0,84,33)" stroke-width="1.51"></path><path d="M714,274L712,206L641,203Z" fill="rgb(43,123,80)" stroke="rgb(43,123,80)" stroke-width="1.51"></path><path d="M635,428L636,349L563,419Z" fill="rgb(0,68,27)" stroke="rgb(0,68,27)" stroke-width="1.51"></path><path d="M256,-96L184,-101L184,-19Z" fill="rgb(207,237,230)" stroke="rgb(207,237,230)" stroke-width="1.51"></path><path d="M107,-21L35,-27L44,45Z" fill="rgb(240,249,252)" stroke="rgb(240,249,252)" stroke-width="1.51"></path><path d="M336,-106L184,-101L256,-96Z" fill="rgb(190,229,218)" stroke="rgb(190,229,218)" stroke-width="1.51"></path><path d="M415,506L562,498L488,499Z" fill="rgb(8,95,41)" stroke="rgb(8,95,41)" stroke-width="1.51"></path><path d="M488,499L562,498L493,423Z" fill="rgb(2,90,37)" stroke="rgb(2,90,37)" stroke-width="1.51"></path><path d="M44,-94L35,-27L107,-21Z" fill="rgb(240,249,252)" stroke="rgb(240,249,252)" stroke-width="1.51"></path><path d="M642,-31L555,-32L567,51Z" fill="rgb(127,160,134)" stroke="rgb(127,160,134)" stroke-width="1.51"></path><path d="M567,51L555,-32L492,-19Z" fill="rgb(134,175,141)" stroke="rgb(134,175,141)" stroke-width="1.51"></path><path d="M492,-19L483,-95L410,-20Z" fill="rgb(146,193,155)" stroke="rgb(146,193,155)" stroke-width="1.51"></path><path d="M35,-27L-31,55L44,45Z" fill="rgb(241,250,252)" stroke="rgb(241,250,252)" stroke-width="1.51"></path><path d="M-117,120L-108,203L-43,197Z" fill="rgb(190,229,218)" stroke="rgb(190,229,218)" stroke-width="1.51"></path><path d="M39,424L30,503L117,494Z" fill="rgb(118,153,131)" stroke="rgb(118,153,131)" stroke-width="1.51"></path><path d="M117,494L30,503L191,506Z" fill="rgb(110,151,126)" stroke="rgb(110,151,126)" stroke-width="1.51"></path><path d="M-33,421L30,503L39,424Z" fill="rgb(124,156,131)" stroke="rgb(124,156,131)" stroke-width="1.51"></path><path d="M-37,345L-33,421L40,356Z" fill="rgb(131,168,138)" stroke="rgb(131,168,138)" stroke-width="1.51"></path><path d="M555,-32L483,-95L492,-19Z" fill="rgb(138,183,146)" stroke="rgb(138,183,146)" stroke-width="1.51"></path><path d="M405,-98L565,-105L336,-106Z" fill="rgb(151,199,162)" stroke="rgb(151,199,162)" stroke-width="1.51"></path><path d="M709,130L635,53L637,131Z" fill="rgb(102,147,120)" stroke="rgb(102,147,120)" stroke-width="1.51"></path><path d="M637,131L635,53L561,127Z" fill="rgb(102,148,121)" stroke="rgb(102,148,121)" stroke-width="1.51"></path><path d="M336,-106L116,-103L184,-101Z" fill="rgb(205,236,229)" stroke="rgb(205,236,229)" stroke-width="1.51"></path><path d="M184,-101L116,-103L184,-19Z" fill="rgb(222,243,239)" stroke="rgb(222,243,239)" stroke-width="1.51"></path><path d="M562,498L635,428L563,419Z" fill="rgb(0,71,28)" stroke="rgb(0,71,28)" stroke-width="1.51"></path><path d="M714,274L641,203L637,277Z" fill="rgb(32,118,70)" stroke="rgb(32,118,70)" stroke-width="1.51"></path><path d="M-117,120L-43,197L-31,120Z" fill="rgb(203,235,228)" stroke="rgb(203,235,228)" stroke-width="1.51"></path><path d="M-43,197L-108,203L-32,271Z" fill="rgb(170,219,196)" stroke="rgb(170,219,196)" stroke-width="1.51"></path><path d="M-37,345L-108,344L-33,421Z" fill="rgb(132,170,139)" stroke="rgb(132,170,139)" stroke-width="1.51"></path><path d="M641,203L709,130L637,131Z" fill="rgb(77,138,107)" stroke="rgb(77,138,107)" stroke-width="1.51"></path><path d="M714,274L637,277L709,345Z" fill="rgb(17,103,48)" stroke="rgb(17,103,48)" stroke-width="1.51"></path><path d="M-108,203L-118,270L-32,271Z" fill="rgb(162,214,185)" stroke="rgb(162,214,185)" stroke-width="1.51"></path><path d="M116,-103L44,-94L107,-21Z" fill="rgb(236,248,249)" stroke="rgb(236,248,249)" stroke-width="1.51"></path><path d="M35,-27L-36,-28L-31,55Z" fill="rgb(247,252,253)" stroke="rgb(247,252,253)" stroke-width="1.51"></path><path d="M-31,55L-117,120L-31,120Z" fill="rgb(226,244,242)" stroke="rgb(226,244,242)" stroke-width="1.51"></path><path d="M709,345L637,277L636,349Z" fill="rgb(8,96,42)" stroke="rgb(8,96,42)" stroke-width="1.51"></path><path d="M-118,270L-108,344L-32,271Z" fill="rgb(149,197,160)" stroke="rgb(149,197,160)" stroke-width="1.51"></path><path d="M-33,421L-45,494L30,503Z" fill="rgb(125,156,132)" stroke="rgb(125,156,132)" stroke-width="1.51"></path><path d="M710,426L709,345L636,349Z" fill="rgb(0,78,31)" stroke="rgb(0,78,31)" stroke-width="1.51"></path><path d="M630,-96L565,-105L555,-32Z" fill="rgb(127,161,135)" stroke="rgb(127,161,135)" stroke-width="1.51"></path><path d="M712,206L709,130L641,203Z" fill="rgb(64,133,99)" stroke="rgb(64,133,99)" stroke-width="1.51"></path><path d="M-35,-96L-36,-28L35,-27Z" fill="rgb(247,252,253)" stroke="rgb(247,252,253)" stroke-width="1.51"></path><path d="M-113,424L-45,494L-33,421Z" fill="rgb(125,156,132)" stroke="rgb(125,156,132)" stroke-width="1.51"></path><path d="M635,428L710,426L636,349Z" fill="rgb(0,68,27)" stroke="rgb(0,68,27)" stroke-width="1.51"></path><path d="M562,498L643,494L635,428Z" fill="rgb(0,68,27)" stroke="rgb(0,68,27)" stroke-width="1.51"></path><path d="M711,503L643,494L562,498Z" fill="rgb(0,68,27)" stroke="rgb(0,68,27)" stroke-width="1.51"></path><path d="M-108,203L-117,120L-118,270Z" fill="rgb(179,224,209)" stroke="rgb(179,224,209)" stroke-width="1.51"></path><path d="M-115,51L-117,120L-31,55Z" fill="rgb(232,246,246)" stroke="rgb(232,246,246)" stroke-width="1.51"></path><path d="M642,-31L567,51L635,53Z" fill="rgb(121,155,131)" stroke="rgb(121,155,131)" stroke-width="1.51"></path><path d="M555,-32L565,-105L483,-95Z" fill="rgb(135,177,142)" stroke="rgb(135,177,142)" stroke-width="1.51"></path><path d="M483,-95L565,-105L405,-98Z" fill="rgb(142,188,151)" stroke="rgb(142,188,151)" stroke-width="1.51"></path><path d="M708,-19L642,-31L635,53Z" fill="rgb(125,156,132)" stroke="rgb(125,156,132)" stroke-width="1.51"></path><path d="M-108,344L-113,424L-33,421Z" fill="rgb(126,158,133)" stroke="rgb(126,158,133)" stroke-width="1.51"></path><path d="M-118,270L-113,424L-108,344Z" fill="rgb(137,180,145)" stroke="rgb(137,180,145)" stroke-width="1.51"></path><path d="M-36,-28L-115,51L-31,55Z" fill="rgb(243,250,252)" stroke="rgb(243,250,252)" stroke-width="1.51"></path><path d="M643,494L710,426L635,428Z" fill="rgb(0,68,27)" stroke="rgb(0,68,27)" stroke-width="1.51"></path><path d="M709,345L710,426L714,274Z" fill="rgb(0,89,36)" stroke="rgb(0,89,36)" stroke-width="1.51"></path><path d="M709,130L713,54L635,53Z" fill="rgb(110,150,125)" stroke="rgb(110,150,125)" stroke-width="1.51"></path><path d="M712,206L713,54L709,130Z" fill="rgb(90,143,114)" stroke="rgb(90,143,114)" stroke-width="1.51"></path><path d="M714,274L713,54L712,206Z" fill="rgb(65,133,99)" stroke="rgb(65,133,99)" stroke-width="1.51"></path><path d="M-36,-28L-117,-32L-115,51Z" fill="rgb(247,252,253)" stroke="rgb(247,252,253)" stroke-width="1.51"></path><path d="M44,-94L-35,-96L35,-27Z" fill="rgb(246,252,252)" stroke="rgb(246,252,252)" stroke-width="1.51"></path><path d="M116,-103L-35,-96L44,-94Z" fill="rgb(242,250,252)" stroke="rgb(242,250,252)" stroke-width="1.51"></path><path d="M711,-98L630,-96L642,-31Z" fill="rgb(125,156,132)" stroke="rgb(125,156,132)" stroke-width="1.51"></path><path d="M642,-31L630,-96L555,-32Z" fill="rgb(125,156,132)" stroke="rgb(125,156,132)" stroke-width="1.51"></path><path d="M713,54L708,-19L635,53Z" fill="rgb(120,154,131)" stroke="rgb(120,154,131)" stroke-width="1.51"></path><path d="M-45,494L-115,502L30,503Z" fill="rgb(125,156,132)" stroke="rgb(125,156,132)" stroke-width="1.51"></path><path d="M30,503L-115,502L191,506Z" fill="rgb(121,155,131)" stroke="rgb(121,155,131)" stroke-width="1.51"></path><path d="M-113,424L-115,502L-45,494Z" fill="rgb(125,156,132)" stroke="rgb(125,156,132)" stroke-width="1.51"></path><path d="M-118,270L-115,502L-113,424Z" fill="rgb(125,157,132)" stroke="rgb(125,157,132)" stroke-width="1.51"></path><path d="M643,494L711,503L710,426Z" fill="rgb(0,68,27)" stroke="rgb(0,68,27)" stroke-width="1.51"></path><path d="M710,426L711,503L714,274Z" fill="rgb(0,68,27)" stroke="rgb(0,68,27)" stroke-width="1.51"></path><path d="M415,506L711,503L562,498Z" fill="rgb(0,78,31)" stroke="rgb(0,78,31)" stroke-width="1.51"></path><path d="M-113,-98L-117,-32L-36,-28Z" fill="rgb(247,252,253)" stroke="rgb(247,252,253)" stroke-width="1.51"></path><path d="M-115,51L-117,-32L-117,120Z" fill="rgb(239,249,251)" stroke="rgb(239,249,251)" stroke-width="1.51"></path><path d="M-117,120L-117,-32L-118,270Z" fill="rgb(216,240,236)" stroke="rgb(216,240,236)" stroke-width="1.51"></path><path d="M-35,-96L-113,-98L-36,-28Z" fill="rgb(247,252,253)" stroke="rgb(247,252,253)" stroke-width="1.51"></path><path d="M116,-103L-113,-98L-35,-96Z" fill="rgb(247,252,253)" stroke="rgb(247,252,253)" stroke-width="1.51"></path><path d="M713,54L711,-98L708,-19Z" fill="rgb(125,156,132)" stroke="rgb(125,156,132)" stroke-width="1.51"></path><path d="M708,-19L711,-98L642,-31Z" fill="rgb(125,156,132)" stroke="rgb(125,156,132)" stroke-width="1.51"></path><path d="M630,-96L711,-98L565,-105Z" fill="rgb(125,156,132)" stroke="rgb(125,156,132)" stroke-width="1.51"></path></svg>