<svg width="600" height="400" xmlns="http://www.w3.org/2000/svg"><path d="M262,200L260,126L186,198Z" fill="rgb(156,214,135)" stroke="rgb(156,214,135)" stroke-width="1.51"></path><path d="M260,126L187,123L186,198Z" fill="rgb(178,223,144)" stroke="rgb(178,223,144)" stroke-width="1.51"></path><path d="M186,198L189,274L262,200Z" fill="rgb(140,205,126)" stroke="rgb(140,205,126)" stroke-width="1.51"></path><path d="M189,274L263,275L262,200Z" fill="rgb(118,194,115)" stroke="rgb(118,194,115)" stroke-width="1.51"></path><path d="M260,126L188,50L187,123Z" fill="rgb(199,232,154)" stroke="rgb(199,232,154)" stroke-width="1.51"></path><path d="M262,200L336,125L260,126Z" fill="rgb(152,212,133)" stroke="rgb(152,212,133)" stroke-width="1.51"></path><path d="M339,199L336,125L262,200Z" fill="rgb(130,202,124)" stroke="rgb(130,202,124)" stroke-width="1.51"></path><path d="M187,123L113,126L186,198Z" fill="rgb(192,229,151)" stroke="rgb(192,229,151)" stroke-width="1.51"></path><path d="M186,198L114,273L189,274Z" fill="rgb(142,205,126)" stroke="rgb(142,205,126)" stroke-width="1.51"></path><path d="M263,275L339,199L262,200Z" fill="rgb(112,194,115)" stroke="rgb(112,194,115)" stroke-width="1.51"></path><path d="M263,48L188,50L260,126Z" fill="rgb(199,232,156)" stroke="rgb(199,232,156)" stroke-width="1.51"></path><path d="M187,123L113,52L113,126Z" fill="rgb(220,241,165)" stroke="rgb(220,241,165)" stroke-width="1.51"></path><path d="M113,126L110,198L186,198Z" fill="rgb(185,226,149)" stroke="rgb(185,226,149)" stroke-width="1.51"></path><path d="M336,125L263,48L260,126Z" fill="rgb(174,221,144)" stroke="rgb(174,221,144)" stroke-width="1.51"></path><path d="M110,198L114,273L186,198Z" fill="rgb(161,214,137)" stroke="rgb(161,214,137)" stroke-width="1.51"></path><path d="M264,349L337,277L263,275Z" fill="rgb(85,166,95)" stroke="rgb(85,166,95)" stroke-width="1.51"></path><path d="M188,50L113,52L187,123Z" fill="rgb(221,242,166)" stroke="rgb(221,242,166)" stroke-width="1.51"></path><path d="M39,123L38,198L110,198Z" fill="rgb(199,232,162)" stroke="rgb(199,232,162)" stroke-width="1.51"></path><path d="M264,349L263,275L189,274Z" fill="rgb(104,174,102)" stroke="rgb(104,174,102)" stroke-width="1.51"></path><path d="M263,275L337,277L339,199Z" fill="rgb(89,182,104)" stroke="rgb(89,182,104)" stroke-width="1.51"></path><path d="M336,125L336,47L263,48Z" fill="rgb(174,220,146)" stroke="rgb(174,220,146)" stroke-width="1.51"></path><path d="M413,50L336,47L336,125Z" fill="rgb(158,211,135)" stroke="rgb(158,211,135)" stroke-width="1.51"></path><path d="M185,351L264,349L189,274Z" fill="rgb(106,170,102)" stroke="rgb(106,170,102)" stroke-width="1.51"></path><path d="M339,199L412,125L336,125Z" fill="rgb(127,199,120)" stroke="rgb(127,199,120)" stroke-width="1.51"></path><path d="M411,276L411,199L339,199Z" fill="rgb(78,175,98)" stroke="rgb(78,175,98)" stroke-width="1.51"></path><path d="M110,198L37,273L114,273Z" fill="rgb(160,211,136)" stroke="rgb(160,211,136)" stroke-width="1.51"></path><path d="M39,123L110,198L113,126Z" fill="rgb(208,236,161)" stroke="rgb(208,236,161)" stroke-width="1.51"></path><path d="M113,52L39,123L113,126Z" fill="rgb(230,245,172)" stroke="rgb(230,245,172)" stroke-width="1.51"></path><path d="M411,199L412,125L339,199Z" fill="rgb(107,187,110)" stroke="rgb(107,187,110)" stroke-width="1.51"></path><path d="M114,273L185,351L189,274Z" fill="rgb(128,184,111)" stroke="rgb(128,184,111)" stroke-width="1.51"></path><path d="M113,351L185,351L114,273Z" fill="rgb(128,179,112)" stroke="rgb(128,179,112)" stroke-width="1.51"></path><path d="M263,48L262,-24L188,50Z" fill="rgb(208,236,172)" stroke="rgb(208,236,172)" stroke-width="1.51"></path><path d="M188,50L110,-23L113,52Z" fill="rgb(237,248,186)" stroke="rgb(237,248,186)" stroke-width="1.51"></path><path d="M336,47L262,-24L263,48Z" fill="rgb(192,228,166)" stroke="rgb(192,228,166)" stroke-width="1.51"></path><path d="M262,-24L186,-28L188,50Z" fill="rgb(218,240,187)" stroke="rgb(218,240,187)" stroke-width="1.51"></path><path d="M113,52L38,48L39,123Z" fill="rgb(240,249,183)" stroke="rgb(240,249,183)" stroke-width="1.51"></path><path d="M337,277L411,276L339,199Z" fill="rgb(70,173,95)" stroke="rgb(70,173,95)" stroke-width="1.51"></path><path d="M411,199L485,197L412,125Z" fill="rgb(98,174,101)" stroke="rgb(98,174,101)" stroke-width="1.51"></path><path d="M412,348L411,276L337,277Z" fill="rgb(48,148,78)" stroke="rgb(48,148,78)" stroke-width="1.51"></path><path d="M38,198L37,273L110,198Z" fill="rgb(175,220,150)" stroke="rgb(175,220,150)" stroke-width="1.51"></path><path d="M36,348L113,351L114,273Z" fill="rgb(138,183,118)" stroke="rgb(138,183,118)" stroke-width="1.51"></path><path d="M264,349L336,352L337,277Z" fill="rgb(70,155,88)" stroke="rgb(70,155,88)" stroke-width="1.51"></path><path d="M263,425L336,352L264,349Z" fill="rgb(70,142,84)" stroke="rgb(70,142,84)" stroke-width="1.51"></path><path d="M189,424L264,349L185,351Z" fill="rgb(97,153,94)" stroke="rgb(97,153,94)" stroke-width="1.51"></path><path d="M186,-28L110,-23L188,50Z" fill="rgb(233,246,194)" stroke="rgb(233,246,194)" stroke-width="1.51"></path><path d="M336,47L339,-25L262,-24Z" fill="rgb(185,225,171)" stroke="rgb(185,225,171)" stroke-width="1.51"></path><path d="M412,125L413,50L336,125Z" fill="rgb(143,203,125)" stroke="rgb(143,203,125)" stroke-width="1.51"></path><path d="M487,52L413,50L412,125Z" fill="rgb(141,191,121)" stroke="rgb(141,191,121)" stroke-width="1.51"></path><path d="M110,-23L38,48L113,52Z" fill="rgb(247,252,194)" stroke="rgb(247,252,194)" stroke-width="1.51"></path><path d="M-39,124L-38,198L38,198Z" fill="rgb(203,233,180)" stroke="rgb(203,233,180)" stroke-width="1.51"></path><path d="M38,198L-38,198L37,273Z" fill="rgb(177,221,164)" stroke="rgb(177,221,164)" stroke-width="1.51"></path><path d="M262,-24L260,-99L186,-28Z" fill="rgb(211,237,184)" stroke="rgb(211,237,184)" stroke-width="1.51"></path><path d="M413,50L339,-25L336,47Z" fill="rgb(167,215,152)" stroke="rgb(167,215,152)" stroke-width="1.51"></path><path d="M487,274L485,197L411,199Z" fill="rgb(65,156,86)" stroke="rgb(65,156,86)" stroke-width="1.51"></path><path d="M411,276L487,274L411,199Z" fill="rgb(53,155,82)" stroke="rgb(53,155,82)" stroke-width="1.51"></path><path d="M336,352L412,348L337,277Z" fill="rgb(50,146,79)" stroke="rgb(50,146,79)" stroke-width="1.51"></path><path d="M113,427L189,424L185,351Z" fill="rgb(108,149,97)" stroke="rgb(108,149,97)" stroke-width="1.51"></path><path d="M336,352L410,423L412,348Z" fill="rgb(33,125,68)" stroke="rgb(33,125,68)" stroke-width="1.51"></path><path d="M113,351L113,427L185,351Z" fill="rgb(118,161,104)" stroke="rgb(118,161,104)" stroke-width="1.51"></path><path d="M37,273L36,348L114,273Z" fill="rgb(148,193,128)" stroke="rgb(148,193,128)" stroke-width="1.51"></path><path d="M-37,276L36,348L37,273Z" fill="rgb(150,193,142)" stroke="rgb(150,193,142)" stroke-width="1.51"></path><path d="M189,424L263,425L264,349Z" fill="rgb(85,140,87)" stroke="rgb(85,140,87)" stroke-width="1.51"></path><path d="M-39,124L38,198L39,123Z" fill="rgb(214,238,182)" stroke="rgb(214,238,182)" stroke-width="1.51"></path><path d="M337,-102L260,-99L262,-24Z" fill="rgb(194,229,176)" stroke="rgb(194,229,176)" stroke-width="1.51"></path><path d="M186,-28L114,-101L110,-23Z" fill="rgb(239,249,198)" stroke="rgb(239,249,198)" stroke-width="1.51"></path><path d="M260,-99L185,-99L186,-28Z" fill="rgb(219,240,187)" stroke="rgb(219,240,187)" stroke-width="1.51"></path><path d="M110,-23L38,-26L38,48Z" fill="rgb(252,254,211)" stroke="rgb(252,254,211)" stroke-width="1.51"></path><path d="M-39,50L-39,124L39,123Z" fill="rgb(237,248,196)" stroke="rgb(237,248,196)" stroke-width="1.51"></path><path d="M36,-99L38,-26L110,-23Z" fill="rgb(252,254,211)" stroke="rgb(252,254,211)" stroke-width="1.51"></path><path d="M413,50L413,-25L339,-25Z" fill="rgb(163,210,156)" stroke="rgb(163,210,156)" stroke-width="1.51"></path><path d="M339,-25L337,-102L262,-24Z" fill="rgb(185,224,171)" stroke="rgb(185,224,171)" stroke-width="1.51"></path><path d="M486,-27L413,-25L413,50Z" fill="rgb(153,196,147)" stroke="rgb(153,196,147)" stroke-width="1.51"></path><path d="M-39,50L39,123L38,48Z" fill="rgb(244,250,199)" stroke="rgb(244,250,199)" stroke-width="1.51"></path><path d="M485,197L489,124L412,125Z" fill="rgb(107,174,103)" stroke="rgb(107,174,103)" stroke-width="1.51"></path><path d="M412,348L487,274L411,276Z" fill="rgb(38,136,69)" stroke="rgb(38,136,69)" stroke-width="1.51"></path><path d="M485,197L562,198L489,124Z" fill="rgb(86,158,93)" stroke="rgb(86,158,93)" stroke-width="1.51"></path><path d="M263,425L336,426L336,352Z" fill="rgb(59,129,77)" stroke="rgb(59,129,77)" stroke-width="1.51"></path><path d="M412,348L489,348L487,274Z" fill="rgb(26,123,63)" stroke="rgb(26,123,63)" stroke-width="1.51"></path><path d="M262,498L336,426L263,425Z" fill="rgb(68,133,81)" stroke="rgb(68,133,81)" stroke-width="1.51"></path><path d="M-38,198L-37,276L37,273Z" fill="rgb(166,214,160)" stroke="rgb(166,214,160)" stroke-width="1.51"></path><path d="M-40,349L-37,276L-112,276Z" fill="rgb(150,193,145)" stroke="rgb(150,193,145)" stroke-width="1.51"></path><path d="M489,124L487,52L412,125Z" fill="rgb(129,183,112)" stroke="rgb(129,183,112)" stroke-width="1.51"></path><path d="M38,424L113,427L113,351Z" fill="rgb(123,155,107)" stroke="rgb(123,155,107)" stroke-width="1.51"></path><path d="M189,424L262,498L263,425Z" fill="rgb(85,140,87)" stroke="rgb(85,140,87)" stroke-width="1.51"></path><path d="M38,424L113,351L36,348Z" fill="rgb(131,167,116)" stroke="rgb(131,167,116)" stroke-width="1.51"></path><path d="M337,-102L114,-101L185,-99Z" fill="rgb(218,240,187)" stroke="rgb(218,240,187)" stroke-width="1.51"></path><path d="M185,-99L114,-101L186,-28Z" fill="rgb(233,246,194)" stroke="rgb(233,246,194)" stroke-width="1.51"></path><path d="M-37,-26L-39,50L38,48Z" fill="rgb(253,255,219)" stroke="rgb(253,255,219)" stroke-width="1.51"></path><path d="M260,-99L337,-102L185,-99Z" fill="rgb(202,233,180)" stroke="rgb(202,233,180)" stroke-width="1.51"></path><path d="M413,-102L337,-102L339,-25Z" fill="rgb(169,216,161)" stroke="rgb(169,216,161)" stroke-width="1.51"></path><path d="M336,426L410,423L336,352Z" fill="rgb(40,120,69)" stroke="rgb(40,120,69)" stroke-width="1.51"></path><path d="M-40,422L38,424L36,348Z" fill="rgb(129,158,126)" stroke="rgb(129,158,126)" stroke-width="1.51"></path><path d="M486,426L489,348L412,348Z" fill="rgb(16,107,56)" stroke="rgb(16,107,56)" stroke-width="1.51"></path><path d="M487,274L562,198L485,197Z" fill="rgb(57,147,82)" stroke="rgb(57,147,82)" stroke-width="1.51"></path><path d="M-112,199L-38,198L-113,126Z" fill="rgb(202,233,180)" stroke="rgb(202,233,180)" stroke-width="1.51"></path><path d="M-112,199L-37,276L-38,198Z" fill="rgb(178,220,167)" stroke="rgb(178,220,167)" stroke-width="1.51"></path><path d="M-37,276L-40,349L36,348Z" fill="rgb(144,185,141)" stroke="rgb(144,185,141)" stroke-width="1.51"></path><path d="M413,-25L413,-102L339,-25Z" fill="rgb(163,210,156)" stroke="rgb(163,210,156)" stroke-width="1.51"></path><path d="M487,52L486,-27L413,50Z" fill="rgb(146,189,133)" stroke="rgb(146,189,133)" stroke-width="1.51"></path><path d="M563,47L486,-27L487,52Z" fill="rgb(138,180,129)" stroke="rgb(138,180,129)" stroke-width="1.51"></path><path d="M38,-26L-37,-26L38,48Z" fill="rgb(255,254,225)" stroke="rgb(255,254,225)" stroke-width="1.51"></path><path d="M36,-99L-37,-26L38,-26Z" fill="rgb(255,255,226)" stroke="rgb(255,255,226)" stroke-width="1.51"></path><path d="M114,-101L36,-99L110,-23Z" fill="rgb(249,253,206)" stroke="rgb(249,253,206)" stroke-width="1.51"></path><path d="M486,-27L413,-102L413,-25Z" fill="rgb(153,196,147)" stroke="rgb(153,196,147)" stroke-width="1.51"></path><path d="M186,499L189,424L113,427Z" fill="rgb(108,149,97)" stroke="rgb(108,149,97)" stroke-width="1.51"></path><path d="M186,499L262,498L189,424Z" fill="rgb(94,143,91)" stroke="rgb(94,143,91)" stroke-width="1.51"></path><path d="M336,426L338,500L410,423Z" fill="rgb(39,120,69)" stroke="rgb(39,120,69)" stroke-width="1.51"></path><path d="M113,502L186,499L113,427Z" fill="rgb(114,151,100)" stroke="rgb(114,151,100)" stroke-width="1.51"></path><path d="M-113,126L-38,198L-39,124Z" fill="rgb(215,238,185)" stroke="rgb(215,238,185)" stroke-width="1.51"></path><path d="M-113,126L-39,124L-113,49Z" fill="rgb(236,248,196)" stroke="rgb(236,248,196)" stroke-width="1.51"></path><path d="M489,124L563,126L487,52Z" fill="rgb(121,172,108)" stroke="rgb(121,172,108)" stroke-width="1.51"></path><path d="M562,275L562,198L487,274Z" fill="rgb(37,134,73)" stroke="rgb(37,134,73)" stroke-width="1.51"></path><path d="M-113,49L-39,124L-39,50Z" fill="rgb(244,251,202)" stroke="rgb(244,251,202)" stroke-width="1.51"></path><path d="M562,198L563,126L489,124Z" fill="rgb(96,158,96)" stroke="rgb(96,158,96)" stroke-width="1.51"></path><path d="M262,498L338,500L336,426Z" fill="rgb(59,129,77)" stroke="rgb(59,129,77)" stroke-width="1.51"></path><path d="M410,423L486,426L412,348Z" fill="rgb(21,103,56)" stroke="rgb(21,103,56)" stroke-width="1.51"></path><path d="M186,499L338,500L262,498Z" fill="rgb(77,136,84)" stroke="rgb(77,136,84)" stroke-width="1.51"></path><path d="M489,348L562,275L487,274Z" fill="rgb(24,121,62)" stroke="rgb(24,121,62)" stroke-width="1.51"></path><path d="M637,200L636,122L563,126Z" fill="rgb(90,141,89)" stroke="rgb(90,141,89)" stroke-width="1.51"></path><path d="M563,349L562,275L489,348Z" fill="rgb(11,108,57)" stroke="rgb(11,108,57)" stroke-width="1.51"></path><path d="M-112,199L-112,276L-37,276Z" fill="rgb(165,214,159)" stroke="rgb(165,214,159)" stroke-width="1.51"></path><path d="M-113,126L-112,276L-112,199Z" fill="rgb(189,227,174)" stroke="rgb(189,227,174)" stroke-width="1.51"></path><path d="M186,499L113,502L338,500Z" fill="rgb(94,143,91)" stroke="rgb(94,143,91)" stroke-width="1.51"></path><path d="M36,499L113,502L113,427Z" fill="rgb(123,155,107)" stroke="rgb(123,155,107)" stroke-width="1.51"></path><path d="M36,499L113,427L38,424Z" fill="rgb(127,157,112)" stroke="rgb(127,157,112)" stroke-width="1.51"></path><path d="M-113,-27L-113,49L-37,-26Z" fill="rgb(255,255,229)" stroke="rgb(255,255,229)" stroke-width="1.51"></path><path d="M-37,-26L-113,49L-39,50Z" fill="rgb(253,255,219)" stroke="rgb(253,255,219)" stroke-width="1.51"></path><path d="M486,-27L489,-101L413,-102Z" fill="rgb(148,190,143)" stroke="rgb(148,190,143)" stroke-width="1.51"></path><path d="M563,126L563,47L487,52Z" fill="rgb(126,170,111)" stroke="rgb(126,170,111)" stroke-width="1.51"></path><path d="M-40,349L-40,422L36,348Z" fill="rgb(134,169,134)" stroke="rgb(134,169,134)" stroke-width="1.51"></path><path d="M-111,349L-40,422L-40,349Z" fill="rgb(134,168,133)" stroke="rgb(134,168,133)" stroke-width="1.51"></path><path d="M413,500L486,426L410,423Z" fill="rgb(21,103,56)" stroke="rgb(21,103,56)" stroke-width="1.51"></path><path d="M36,-99L-36,-99L-37,-26Z" fill="rgb(255,255,229)" stroke="rgb(255,255,229)" stroke-width="1.51"></path><path d="M-113,-101L-36,-99L36,-99Z" fill="rgb(255,255,229)" stroke="rgb(255,255,229)" stroke-width="1.51"></path><path d="M563,-26L489,-101L486,-27Z" fill="rgb(140,181,139)" stroke="rgb(140,181,139)" stroke-width="1.51"></path><path d="M-112,276L-111,349L-40,349Z" fill="rgb(144,185,141)" stroke="rgb(144,185,141)" stroke-width="1.51"></path><path d="M-37,500L36,499L38,424Z" fill="rgb(129,158,125)" stroke="rgb(129,158,125)" stroke-width="1.51"></path><path d="M338,500L413,500L410,423Z" fill="rgb(31,115,64)" stroke="rgb(31,115,64)" stroke-width="1.51"></path><path d="M113,502L413,500L338,500Z" fill="rgb(67,133,81)" stroke="rgb(67,133,81)" stroke-width="1.51"></path><path d="M564,426L563,349L489,348Z" fill="rgb(0,92,50)" stroke="rgb(0,92,50)" stroke-width="1.51"></path><path d="M637,200L563,126L562,198Z" fill="rgb(78,140,85)" stroke="rgb(78,140,85)" stroke-width="1.51"></path><path d="M564,426L489,348L486,426Z" fill="rgb(3,88,49)" stroke="rgb(3,88,49)" stroke-width="1.51"></path><path d="M563,47L563,-26L486,-27Z" fill="rgb(137,174,136)" stroke="rgb(137,174,136)" stroke-width="1.51"></path><path d="M-36,-99L-113,-27L-37,-26Z" fill="rgb(255,255,229)" stroke="rgb(255,255,229)" stroke-width="1.51"></path><path d="M563,126L636,122L563,47Z" fill="rgb(113,154,100)" stroke="rgb(113,154,100)" stroke-width="1.51"></path><path d="M563,47L635,48L563,-26Z" fill="rgb(129,161,121)" stroke="rgb(129,161,121)" stroke-width="1.51"></path><path d="M637,200L562,198L562,275Z" fill="rgb(50,128,74)" stroke="rgb(50,128,74)" stroke-width="1.51"></path><path d="M638,276L637,200L562,275Z" fill="rgb(33,118,66)" stroke="rgb(33,118,66)" stroke-width="1.51"></path><path d="M413,500L485,500L486,426Z" fill="rgb(15,98,53)" stroke="rgb(15,98,53)" stroke-width="1.51"></path><path d="M637,501L485,500L413,500Z" fill="rgb(3,89,49)" stroke="rgb(3,89,49)" stroke-width="1.51"></path><path d="M-40,422L-37,500L38,424Z" fill="rgb(129,158,129)" stroke="rgb(129,158,129)" stroke-width="1.51"></path><path d="M36,499L-37,500L113,502Z" fill="rgb(127,157,119)" stroke="rgb(127,157,119)" stroke-width="1.51"></path><path d="M-113,426L-37,500L-40,422Z" fill="rgb(129,158,129)" stroke="rgb(129,158,129)" stroke-width="1.51"></path><path d="M636,122L635,48L563,47Z" fill="rgb(119,154,104)" stroke="rgb(119,154,104)" stroke-width="1.51"></path><path d="M-113,126L-113,426L-112,276Z" fill="rgb(157,203,151)" stroke="rgb(157,203,151)" stroke-width="1.51"></path><path d="M-112,276L-113,426L-111,349Z" fill="rgb(138,178,137)" stroke="rgb(138,178,137)" stroke-width="1.51"></path><path d="M-111,349L-113,426L-40,422Z" fill="rgb(129,158,129)" stroke="rgb(129,158,129)" stroke-width="1.51"></path><path d="M635,349L638,276L562,275Z" fill="rgb(17,100,54)" stroke="rgb(17,100,54)" stroke-width="1.51"></path><path d="M710,50L635,48L636,122Z" fill="rgb(119,153,104)" stroke="rgb(119,153,104)" stroke-width="1.51"></path><path d="M635,349L562,275L563,349Z" fill="rgb(9,96,52)" stroke="rgb(9,96,52)" stroke-width="1.51"></path><path d="M561,498L564,426L486,426Z" fill="rgb(0,83,47)" stroke="rgb(0,83,47)" stroke-width="1.51"></path><path d="M-36,-99L-113,-101L-113,-27Z" fill="rgb(255,255,229)" stroke="rgb(255,255,229)" stroke-width="1.51"></path><path d="M114,-101L-113,-101L36,-99Z" fill="rgb(255,255,226)" stroke="rgb(255,255,226)" stroke-width="1.51"></path><path d="M337,-102L-113,-101L114,-101Z" fill="rgb(244,251,202)" stroke="rgb(244,251,202)" stroke-width="1.51"></path><path d="M638,-26L564,-101L563,-26Z" fill="rgb(130,161,130)" stroke="rgb(130,161,130)" stroke-width="1.51"></path><path d="M563,-26L564,-101L489,-101Z" fill="rgb(136,174,136)" stroke="rgb(136,174,136)" stroke-width="1.51"></path><path d="M489,-101L564,-101L413,-102Z" fill="rgb(144,185,141)" stroke="rgb(144,185,141)" stroke-width="1.51"></path><path d="M564,426L635,349L563,349Z" fill="rgb(0,80,45)" stroke="rgb(0,80,45)" stroke-width="1.51"></path><path d="M635,48L638,-26L563,-26Z" fill="rgb(129,158,129)" stroke="rgb(129,158,129)" stroke-width="1.51"></path><path d="M710,50L638,-26L635,48Z" fill="rgb(127,157,119)" stroke="rgb(127,157,119)" stroke-width="1.51"></path><path d="M711,198L636,122L637,200Z" fill="rgb(78,136,84)" stroke="rgb(78,136,84)" stroke-width="1.51"></path><path d="M485,500L561,498L486,426Z" fill="rgb(3,89,49)" stroke="rgb(3,89,49)" stroke-width="1.51"></path><path d="M564,426L637,424L635,349Z" fill="rgb(0,69,41)" stroke="rgb(0,69,41)" stroke-width="1.51"></path><path d="M-113,426L-114,498L-37,500Z" fill="rgb(129,158,129)" stroke="rgb(129,158,129)" stroke-width="1.51"></path><path d="M-113,126L-114,498L-113,426Z" fill="rgb(138,178,137)" stroke="rgb(138,178,137)" stroke-width="1.51"></path><path d="M-113,49L-114,498L-113,126Z" fill="rgb(178,220,167)" stroke="rgb(178,220,167)" stroke-width="1.51"></path><path d="M-113,-27L-114,498L-113,49Z" fill="rgb(203,233,180)" stroke="rgb(203,233,180)" stroke-width="1.51"></path><path d="M-113,-101L-114,498L-113,-27Z" fill="rgb(226,243,191)" stroke="rgb(226,243,191)" stroke-width="1.51"></path><path d="M637,501L637,424L564,426Z" fill="rgb(0,69,41)" stroke="rgb(0,69,41)" stroke-width="1.51"></path><path d="M712,274L637,200L638,276Z" fill="rgb(33,118,66)" stroke="rgb(33,118,66)" stroke-width="1.51"></path><path d="M712,274L638,276L711,350Z" fill="rgb(17,100,54)" stroke="rgb(17,100,54)" stroke-width="1.51"></path><path d="M712,274L711,198L637,200Z" fill="rgb(50,125,73)" stroke="rgb(50,125,73)" stroke-width="1.51"></path><path d="M711,198L712,123L636,122Z" fill="rgb(91,142,89)" stroke="rgb(91,142,89)" stroke-width="1.51"></path><path d="M638,-26L639,-99L564,-101Z" fill="rgb(129,158,129)" stroke="rgb(129,158,129)" stroke-width="1.51"></path><path d="M712,-99L639,-99L638,-26Z" fill="rgb(129,158,129)" stroke="rgb(129,158,129)" stroke-width="1.51"></path><path d="M712,123L710,50L636,122Z" fill="rgb(112,150,99)" stroke="rgb(112,150,99)" stroke-width="1.51"></path><path d="M711,350L638,276L635,349Z" fill="rgb(9,93,51)" stroke="rgb(9,93,51)" stroke-width="1.51"></path><path d="M711,198L712,274L712,123Z" fill="rgb(64,131,80)" stroke="rgb(64,131,80)" stroke-width="1.51"></path><path d="M637,424L711,350L635,349Z" fill="rgb(0,78,44)" stroke="rgb(0,78,44)" stroke-width="1.51"></path><path d="M710,50L714,-27L638,-26Z" fill="rgb(129,158,129)" stroke="rgb(129,158,129)" stroke-width="1.51"></path><path d="M712,123L714,-27L710,50Z" fill="rgb(126,156,109)" stroke="rgb(126,156,109)" stroke-width="1.51"></path><path d="M712,274L714,-27L712,123Z" fill="rgb(102,146,94)" stroke="rgb(102,146,94)" stroke-width="1.51"></path><path d="M113,502L637,501L413,500Z" fill="rgb(31,115,64)" stroke="rgb(31,115,64)" stroke-width="1.51"></path><path d="M485,500L637,501L561,498Z" fill="rgb(0,78,44)" stroke="rgb(0,78,44)" stroke-width="1.51"></path><path d="M561,498L637,501L564,426Z" fill="rgb(0,72,42)" stroke="rgb(0,72,42)" stroke-width="1.51"></path><path d="M637,424L711,425L711,350Z" fill="rgb(0,69,41)" stroke="rgb(0,69,41)" stroke-width="1.51"></path><path d="M637,501L711,425L637,424Z" fill="rgb(0,69,41)" stroke="rgb(0,69,41)" stroke-width="1.51"></path><path d="M711,350L712,499L712,274Z" fill="rgb(0,78,44)" stroke="rgb(0,78,44)" stroke-width="1.51"></path><path d="M712,274L712,499L714,-27Z" fill="rgb(34,118,67)" stroke="rgb(34,118,67)" stroke-width="1.51"></path><path d="M714,-27L712,-99L638,-26Z" fill="rgb(129,158,129)" stroke="rgb(129,158,129)" stroke-width="1.51"></path><path d="M639,-99L712,-99L564,-101Z" fill="rgb(129,158,129)" stroke="rgb(129,158,129)" stroke-width="1.51"></path><path d="M637,501L712,499L711,425Z" fill="rgb(0,69,41)" stroke="rgb(0,69,41)" stroke-width="1.51"></path><path d="M711,425L712,499L711,350Z" fill="rgb(0,69,41)" stroke="rgb(0,69,41)" stroke-width="1.51"></path></svg>