<svg width="600" height="400" xmlns="http://www.w3.org/2000/svg"><path d="M262,199L337,125L264,124Z" fill="rgb(254,168,114)" stroke="rgb(254,168,114)" stroke-width="1.51"></path><path d="M262,199L338,200L337,125Z" fill="rgb(252,150,98)" stroke="rgb(252,150,98)" stroke-width="1.51"></path><path d="M338,200L410,198L337,125Z" fill="rgb(248,137,93)" stroke="rgb(248,137,93)" stroke-width="1.51"></path><path d="M338,49L261,51L264,124Z" fill="rgb(255,186,137)" stroke="rgb(255,186,137)" stroke-width="1.51"></path><path d="M264,124L186,124L262,199Z" fill="rgb(253,184,129)" stroke="rgb(253,184,129)" stroke-width="1.51"></path><path d="M262,199L336,276L338,200Z" fill="rgb(248,129,83)" stroke="rgb(248,129,83)" stroke-width="1.51"></path><path d="M338,200L414,273L410,198Z" fill="rgb(241,108,73)" stroke="rgb(241,108,73)" stroke-width="1.51"></path><path d="M262,199L263,276L336,276Z" fill="rgb(246,126,84)" stroke="rgb(246,126,84)" stroke-width="1.51"></path><path d="M337,125L338,49L264,124Z" fill="rgb(254,174,122)" stroke="rgb(254,174,122)" stroke-width="1.51"></path><path d="M410,198L413,124L337,125Z" fill="rgb(246,143,99)" stroke="rgb(246,143,99)" stroke-width="1.51"></path><path d="M410,51L338,49L337,125Z" fill="rgb(252,167,125)" stroke="rgb(252,167,125)" stroke-width="1.51"></path><path d="M261,51L186,124L264,124Z" fill="rgb(253,196,141)" stroke="rgb(253,196,141)" stroke-width="1.51"></path><path d="M262,199L185,276L263,276Z" fill="rgb(247,142,98)" stroke="rgb(247,142,98)" stroke-width="1.51"></path><path d="M186,124L185,198L262,199Z" fill="rgb(253,179,124)" stroke="rgb(253,179,124)" stroke-width="1.51"></path><path d="M413,124L410,51L337,125Z" fill="rgb(248,155,111)" stroke="rgb(248,155,111)" stroke-width="1.51"></path><path d="M410,198L486,199L413,124Z" fill="rgb(238,117,74)" stroke="rgb(238,117,74)" stroke-width="1.51"></path><path d="M336,276L414,273L338,200Z" fill="rgb(240,105,73)" stroke="rgb(240,105,73)" stroke-width="1.51"></path><path d="M261,51L185,51L186,124Z" fill="rgb(254,207,158)" stroke="rgb(254,207,158)" stroke-width="1.51"></path><path d="M186,124L113,123L185,198Z" fill="rgb(253,198,143)" stroke="rgb(253,198,143)" stroke-width="1.51"></path><path d="M185,-27L185,51L261,51Z" fill="rgb(255,215,177)" stroke="rgb(255,215,177)" stroke-width="1.51"></path><path d="M185,198L185,276L262,199Z" fill="rgb(251,158,108)" stroke="rgb(251,158,108)" stroke-width="1.51"></path><path d="M338,49L263,-25L261,51Z" fill="rgb(255,194,156)" stroke="rgb(255,194,156)" stroke-width="1.51"></path><path d="M410,51L337,-23L338,49Z" fill="rgb(255,175,144)" stroke="rgb(255,175,144)" stroke-width="1.51"></path><path d="M263,276L261,348L336,276Z" fill="rgb(235,103,63)" stroke="rgb(235,103,63)" stroke-width="1.51"></path><path d="M336,276L410,349L414,273Z" fill="rgb(225,73,49)" stroke="rgb(225,73,49)" stroke-width="1.51"></path><path d="M185,276L261,348L263,276Z" fill="rgb(237,121,77)" stroke="rgb(237,121,77)" stroke-width="1.51"></path><path d="M414,273L486,199L410,198Z" fill="rgb(233,93,59)" stroke="rgb(233,93,59)" stroke-width="1.51"></path><path d="M413,124L488,48L410,51Z" fill="rgb(243,146,106)" stroke="rgb(243,146,106)" stroke-width="1.51"></path><path d="M337,-23L263,-25L338,49Z" fill="rgb(255,191,159)" stroke="rgb(255,191,159)" stroke-width="1.51"></path><path d="M185,51L113,123L186,124Z" fill="rgb(253,210,156)" stroke="rgb(253,210,156)" stroke-width="1.51"></path><path d="M185,198L113,274L185,276Z" fill="rgb(249,157,112)" stroke="rgb(249,157,112)" stroke-width="1.51"></path><path d="M113,123L112,198L185,198Z" fill="rgb(254,191,138)" stroke="rgb(254,191,138)" stroke-width="1.51"></path><path d="M486,199L488,124L413,124Z" fill="rgb(235,123,78)" stroke="rgb(235,123,78)" stroke-width="1.51"></path><path d="M410,51L410,-28L337,-23Z" fill="rgb(254,173,148)" stroke="rgb(254,173,148)" stroke-width="1.51"></path><path d="M261,348L336,351L336,276Z" fill="rgb(225,89,51)" stroke="rgb(225,89,51)" stroke-width="1.51"></path><path d="M336,351L410,349L336,276Z" fill="rgb(220,74,46)" stroke="rgb(220,74,46)" stroke-width="1.51"></path><path d="M414,273L489,273L486,199Z" fill="rgb(224,75,50)" stroke="rgb(224,75,50)" stroke-width="1.51"></path><path d="M185,276L186,350L261,348Z" fill="rgb(229,120,75)" stroke="rgb(229,120,75)" stroke-width="1.51"></path><path d="M112,198L113,274L185,198Z" fill="rgb(252,171,122)" stroke="rgb(252,171,122)" stroke-width="1.51"></path><path d="M185,51L112,52L113,123Z" fill="rgb(254,219,172)" stroke="rgb(254,219,172)" stroke-width="1.51"></path><path d="M35,126L39,201L112,198Z" fill="rgb(255,200,157)" stroke="rgb(255,200,157)" stroke-width="1.51"></path><path d="M111,-26L112,52L185,51Z" fill="rgb(255,227,191)" stroke="rgb(255,227,191)" stroke-width="1.51"></path><path d="M486,351L489,273L414,273Z" fill="rgb(212,46,29)" stroke="rgb(212,46,29)" stroke-width="1.51"></path><path d="M486,199L561,198L488,124Z" fill="rgb(222,102,58)" stroke="rgb(222,102,58)" stroke-width="1.51"></path><path d="M114,350L186,350L185,276Z" fill="rgb(231,129,83)" stroke="rgb(231,129,83)" stroke-width="1.51"></path><path d="M261,348L336,423L336,351Z" fill="rgb(202,79,43)" stroke="rgb(202,79,43)" stroke-width="1.51"></path><path d="M337,-100L263,-100L263,-25Z" fill="rgb(255,198,165)" stroke="rgb(255,198,165)" stroke-width="1.51"></path><path d="M485,-25L410,-28L410,51Z" fill="rgb(249,159,133)" stroke="rgb(249,159,133)" stroke-width="1.51"></path><path d="M488,124L488,48L413,124Z" fill="rgb(237,136,90)" stroke="rgb(237,136,90)" stroke-width="1.51"></path><path d="M563,49L488,48L488,124Z" fill="rgb(228,131,90)" stroke="rgb(228,131,90)" stroke-width="1.51"></path><path d="M188,-101L185,-27L263,-25Z" fill="rgb(255,219,185)" stroke="rgb(255,219,185)" stroke-width="1.51"></path><path d="M263,-25L185,-27L261,51Z" fill="rgb(255,213,180)" stroke="rgb(255,213,180)" stroke-width="1.51"></path><path d="M410,349L486,351L414,273Z" fill="rgb(208,46,27)" stroke="rgb(208,46,27)" stroke-width="1.51"></path><path d="M336,351L336,423L410,349Z" fill="rgb(197,64,38)" stroke="rgb(197,64,38)" stroke-width="1.51"></path><path d="M261,426L336,423L261,348Z" fill="rgb(190,83,47)" stroke="rgb(190,83,47)" stroke-width="1.51"></path><path d="M488,48L485,-25L410,51Z" fill="rgb(243,149,118)" stroke="rgb(243,149,118)" stroke-width="1.51"></path><path d="M489,273L561,198L486,199Z" fill="rgb(216,78,44)" stroke="rgb(216,78,44)" stroke-width="1.51"></path><path d="M488,48L561,-24L485,-25Z" fill="rgb(233,143,116)" stroke="rgb(233,143,116)" stroke-width="1.51"></path><path d="M561,198L561,126L488,124Z" fill="rgb(216,110,65)" stroke="rgb(216,110,65)" stroke-width="1.51"></path><path d="M112,198L39,201L113,274Z" fill="rgb(254,177,136)" stroke="rgb(254,177,136)" stroke-width="1.51"></path><path d="M113,274L114,350L185,276Z" fill="rgb(240,139,95)" stroke="rgb(240,139,95)" stroke-width="1.51"></path><path d="M35,126L112,198L113,123Z" fill="rgb(255,208,163)" stroke="rgb(255,208,163)" stroke-width="1.51"></path><path d="M188,423L261,426L261,348Z" fill="rgb(192,99,60)" stroke="rgb(192,99,60)" stroke-width="1.51"></path><path d="M36,348L114,350L113,274Z" fill="rgb(235,139,101)" stroke="rgb(235,139,101)" stroke-width="1.51"></path><path d="M489,273L563,276L561,198Z" fill="rgb(205,62,37)" stroke="rgb(205,62,37)" stroke-width="1.51"></path><path d="M411,425L486,351L410,349Z" fill="rgb(186,35,20)" stroke="rgb(186,35,20)" stroke-width="1.51"></path><path d="M337,-100L263,-25L337,-23Z" fill="rgb(255,191,159)" stroke="rgb(255,191,159)" stroke-width="1.51"></path><path d="M337,-100L337,-23L410,-28Z" fill="rgb(255,179,153)" stroke="rgb(255,179,153)" stroke-width="1.51"></path><path d="M413,-103L337,-100L410,-28Z" fill="rgb(254,173,148)" stroke="rgb(254,173,148)" stroke-width="1.51"></path><path d="M188,423L261,348L186,350Z" fill="rgb(207,109,67)" stroke="rgb(207,109,67)" stroke-width="1.51"></path><path d="M112,52L35,126L113,123Z" fill="rgb(254,220,175)" stroke="rgb(254,220,175)" stroke-width="1.51"></path><path d="M185,-27L111,-26L185,51Z" fill="rgb(255,228,195)" stroke="rgb(255,228,195)" stroke-width="1.51"></path><path d="M111,-98L111,-26L185,-27Z" fill="rgb(255,231,201)" stroke="rgb(255,231,201)" stroke-width="1.51"></path><path d="M35,50L35,126L112,52Z" fill="rgb(254,228,192)" stroke="rgb(254,228,192)" stroke-width="1.51"></path><path d="M114,350L188,423L186,350Z" fill="rgb(208,117,75)" stroke="rgb(208,117,75)" stroke-width="1.51"></path><path d="M39,201L38,273L113,274Z" fill="rgb(253,170,137)" stroke="rgb(253,170,137)" stroke-width="1.51"></path><path d="M-36,201L38,273L39,201Z" fill="rgb(255,184,152)" stroke="rgb(255,184,152)" stroke-width="1.51"></path><path d="M336,423L411,425L410,349Z" fill="rgb(181,53,33)" stroke="rgb(181,53,33)" stroke-width="1.51"></path><path d="M337,499L411,425L336,423Z" fill="rgb(183,61,38)" stroke="rgb(183,61,38)" stroke-width="1.51"></path><path d="M413,-103L188,-101L263,-100Z" fill="rgb(255,198,165)" stroke="rgb(255,198,165)" stroke-width="1.51"></path><path d="M263,-100L188,-101L263,-25Z" fill="rgb(255,213,179)" stroke="rgb(255,213,179)" stroke-width="1.51"></path><path d="M639,125L563,49L561,126Z" fill="rgb(198,116,76)" stroke="rgb(198,116,76)" stroke-width="1.51"></path><path d="M561,126L563,49L488,124Z" fill="rgb(218,122,77)" stroke="rgb(218,122,77)" stroke-width="1.51"></path><path d="M561,351L563,276L489,273Z" fill="rgb(192,29,16)" stroke="rgb(192,29,16)" stroke-width="1.51"></path><path d="M561,198L635,198L561,126Z" fill="rgb(196,92,54)" stroke="rgb(196,92,54)" stroke-width="1.51"></path><path d="M561,351L489,273L486,351Z" fill="rgb(191,22,10)" stroke="rgb(191,22,10)" stroke-width="1.51"></path><path d="M37,-23L35,50L112,52Z" fill="rgb(255,237,212)" stroke="rgb(255,237,212)" stroke-width="1.51"></path><path d="M337,-100L413,-103L263,-100Z" fill="rgb(255,185,156)" stroke="rgb(255,185,156)" stroke-width="1.51"></path><path d="M487,-100L413,-103L410,-28Z" fill="rgb(248,158,133)" stroke="rgb(248,158,133)" stroke-width="1.51"></path><path d="M487,-100L410,-28L485,-25Z" fill="rgb(245,153,127)" stroke="rgb(245,153,127)" stroke-width="1.51"></path><path d="M563,49L561,-24L488,48Z" fill="rgb(223,136,105)" stroke="rgb(223,136,105)" stroke-width="1.51"></path><path d="M111,-26L37,-23L112,52Z" fill="rgb(255,238,214)" stroke="rgb(255,238,214)" stroke-width="1.51"></path><path d="M111,-98L37,-23L111,-26Z" fill="rgb(255,238,215)" stroke="rgb(255,238,215)" stroke-width="1.51"></path><path d="M188,-101L111,-98L185,-27Z" fill="rgb(255,227,195)" stroke="rgb(255,227,195)" stroke-width="1.51"></path><path d="M489,426L561,351L486,351Z" fill="rgb(168,6,3)" stroke="rgb(168,6,3)" stroke-width="1.51"></path><path d="M561,-24L487,-100L485,-25Z" fill="rgb(233,143,116)" stroke="rgb(233,143,116)" stroke-width="1.51"></path><path d="M114,350L113,427L188,423Z" fill="rgb(194,116,79)" stroke="rgb(194,116,79)" stroke-width="1.51"></path><path d="M38,273L36,348L113,274Z" fill="rgb(244,150,115)" stroke="rgb(244,150,115)" stroke-width="1.51"></path><path d="M-39,275L36,348L38,273Z" fill="rgb(247,154,127)" stroke="rgb(247,154,127)" stroke-width="1.51"></path><path d="M38,425L113,427L114,350Z" fill="rgb(197,122,91)" stroke="rgb(197,122,91)" stroke-width="1.51"></path><path d="M262,501L337,499L261,426Z" fill="rgb(190,82,47)" stroke="rgb(190,82,47)" stroke-width="1.51"></path><path d="M413,497L489,426L411,425Z" fill="rgb(172,32,20)" stroke="rgb(172,32,20)" stroke-width="1.51"></path><path d="M411,425L489,426L486,351Z" fill="rgb(167,22,14)" stroke="rgb(167,22,14)" stroke-width="1.51"></path><path d="M337,499L336,423L261,426Z" fill="rgb(188,75,42)" stroke="rgb(188,75,42)" stroke-width="1.51"></path><path d="M639,275L635,198L563,276Z" fill="rgb(182,56,36)" stroke="rgb(182,56,36)" stroke-width="1.51"></path><path d="M563,276L635,198L561,198Z" fill="rgb(191,69,41)" stroke="rgb(191,69,41)" stroke-width="1.51"></path><path d="M563,49L637,-25L561,-24Z" fill="rgb(206,133,111)" stroke="rgb(206,133,111)" stroke-width="1.51"></path><path d="M35,126L-36,201L39,201Z" fill="rgb(255,203,168)" stroke="rgb(255,203,168)" stroke-width="1.51"></path><path d="M-39,125L-36,201L35,126Z" fill="rgb(255,216,183)" stroke="rgb(255,216,183)" stroke-width="1.51"></path><path d="M-39,125L35,126L35,50Z" fill="rgb(255,228,194)" stroke="rgb(255,228,194)" stroke-width="1.51"></path><path d="M262,501L261,426L185,498Z" fill="rgb(191,99,61)" stroke="rgb(191,99,61)" stroke-width="1.51"></path><path d="M185,498L261,426L188,423Z" fill="rgb(192,105,66)" stroke="rgb(192,105,66)" stroke-width="1.51"></path><path d="M-37,48L-39,125L35,50Z" fill="rgb(255,234,207)" stroke="rgb(255,234,207)" stroke-width="1.51"></path><path d="M635,198L639,125L561,126Z" fill="rgb(192,102,63)" stroke="rgb(192,102,63)" stroke-width="1.51"></path><path d="M337,499L413,497L411,425Z" fill="rgb(180,52,33)" stroke="rgb(180,52,33)" stroke-width="1.51"></path><path d="M489,501L413,497L337,499Z" fill="rgb(176,42,26)" stroke="rgb(176,42,26)" stroke-width="1.51"></path><path d="M113,427L185,498L188,423Z" fill="rgb(194,113,73)" stroke="rgb(194,113,73)" stroke-width="1.51"></path><path d="M-39,-27L-37,48L37,-23Z" fill="rgb(255,247,236)" stroke="rgb(255,247,236)" stroke-width="1.51"></path><path d="M37,-23L-37,48L35,50Z" fill="rgb(255,242,224)" stroke="rgb(255,242,224)" stroke-width="1.51"></path><path d="M561,-24L562,-102L487,-100Z" fill="rgb(226,139,113)" stroke="rgb(226,139,113)" stroke-width="1.51"></path><path d="M639,125L639,51L563,49Z" fill="rgb(196,120,85)" stroke="rgb(196,120,85)" stroke-width="1.51"></path><path d="M-36,201L-39,275L38,273Z" fill="rgb(255,176,151)" stroke="rgb(255,176,151)" stroke-width="1.51"></path><path d="M36,348L38,425L114,350Z" fill="rgb(212,130,99)" stroke="rgb(212,130,99)" stroke-width="1.51"></path><path d="M-112,199L-39,275L-36,201Z" fill="rgb(255,185,156)" stroke="rgb(255,185,156)" stroke-width="1.51"></path><path d="M637,350L639,275L563,276Z" fill="rgb(170,26,16)" stroke="rgb(170,26,16)" stroke-width="1.51"></path><path d="M635,198L711,202L639,125Z" fill="rgb(190,90,53)" stroke="rgb(190,90,53)" stroke-width="1.51"></path><path d="M637,350L563,276L561,351Z" fill="rgb(165,15,8)" stroke="rgb(165,15,8)" stroke-width="1.51"></path><path d="M562,501L561,424L489,426Z" fill="rgb(148,0,1)" stroke="rgb(148,0,1)" stroke-width="1.51"></path><path d="M489,426L561,424L561,351Z" fill="rgb(148,0,1)" stroke="rgb(148,0,1)" stroke-width="1.51"></path><path d="M113,427L112,499L185,498Z" fill="rgb(194,117,78)" stroke="rgb(194,117,78)" stroke-width="1.51"></path><path d="M-36,425L38,425L36,348Z" fill="rgb(200,130,108)" stroke="rgb(200,130,108)" stroke-width="1.51"></path><path d="M637,-100L562,-102L561,-24Z" fill="rgb(206,133,111)" stroke="rgb(206,133,111)" stroke-width="1.51"></path><path d="M487,-100L562,-102L413,-103Z" fill="rgb(239,148,121)" stroke="rgb(239,148,121)" stroke-width="1.51"></path><path d="M111,-98L36,-101L37,-23Z" fill="rgb(255,241,221)" stroke="rgb(255,241,221)" stroke-width="1.51"></path><path d="M188,-101L36,-101L111,-98Z" fill="rgb(255,234,207)" stroke="rgb(255,234,207)" stroke-width="1.51"></path><path d="M413,-103L36,-101L188,-101Z" fill="rgb(255,219,185)" stroke="rgb(255,219,185)" stroke-width="1.51"></path><path d="M38,425L112,499L113,427Z" fill="rgb(197,123,91)" stroke="rgb(197,123,91)" stroke-width="1.51"></path><path d="M185,498L112,499L262,501Z" fill="rgb(193,109,69)" stroke="rgb(193,109,69)" stroke-width="1.51"></path><path d="M639,51L637,-25L563,49Z" fill="rgb(199,127,103)" stroke="rgb(199,127,103)" stroke-width="1.51"></path><path d="M561,424L637,350L561,351Z" fill="rgb(144,0,1)" stroke="rgb(144,0,1)" stroke-width="1.51"></path><path d="M-39,275L-39,348L36,348Z" fill="rgb(239,148,122)" stroke="rgb(239,148,122)" stroke-width="1.51"></path><path d="M413,497L489,501L489,426Z" fill="rgb(167,22,14)" stroke="rgb(167,22,14)" stroke-width="1.51"></path><path d="M561,424L639,425L637,350Z" fill="rgb(127,0,0)" stroke="rgb(127,0,0)" stroke-width="1.51"></path><path d="M262,501L489,501L337,499Z" fill="rgb(183,60,38)" stroke="rgb(183,60,38)" stroke-width="1.51"></path><path d="M36,-101L-39,-27L37,-23Z" fill="rgb(255,246,233)" stroke="rgb(255,246,233)" stroke-width="1.51"></path><path d="M-115,123L-112,199L-39,125Z" fill="rgb(255,217,184)" stroke="rgb(255,217,184)" stroke-width="1.51"></path><path d="M639,125L713,125L639,51Z" fill="rgb(194,115,75)" stroke="rgb(194,115,75)" stroke-width="1.51"></path><path d="M639,51L711,-23L637,-25Z" fill="rgb(200,131,110)" stroke="rgb(200,131,110)" stroke-width="1.51"></path><path d="M639,275L711,202L635,198Z" fill="rgb(186,68,40)" stroke="rgb(186,68,40)" stroke-width="1.51"></path><path d="M712,272L711,202L639,275Z" fill="rgb(182,56,36)" stroke="rgb(182,56,36)" stroke-width="1.51"></path><path d="M-39,275L-113,348L-39,348Z" fill="rgb(239,148,122)" stroke="rgb(239,148,122)" stroke-width="1.51"></path><path d="M-39,125L-112,199L-36,201Z" fill="rgb(255,205,172)" stroke="rgb(255,205,172)" stroke-width="1.51"></path><path d="M-115,123L-39,125L-112,50Z" fill="rgb(255,229,197)" stroke="rgb(255,229,197)" stroke-width="1.51"></path><path d="M711,202L713,125L639,125Z" fill="rgb(192,102,63)" stroke="rgb(192,102,63)" stroke-width="1.51"></path><path d="M-112,50L-39,125L-37,48Z" fill="rgb(255,234,207)" stroke="rgb(255,234,207)" stroke-width="1.51"></path><path d="M710,348L712,272L639,275Z" fill="rgb(170,27,17)" stroke="rgb(170,27,17)" stroke-width="1.51"></path><path d="M711,202L712,272L713,125Z" fill="rgb(189,78,44)" stroke="rgb(189,78,44)" stroke-width="1.51"></path><path d="M38,425L35,500L112,499Z" fill="rgb(198,126,97)" stroke="rgb(198,126,97)" stroke-width="1.51"></path><path d="M-39,348L-36,425L36,348Z" fill="rgb(216,136,112)" stroke="rgb(216,136,112)" stroke-width="1.51"></path><path d="M-114,424L-36,425L-39,348Z" fill="rgb(201,131,111)" stroke="rgb(201,131,111)" stroke-width="1.51"></path><path d="M-111,-26L-112,50L-37,48Z" fill="rgb(255,243,227)" stroke="rgb(255,243,227)" stroke-width="1.51"></path><path d="M711,-23L637,-100L637,-25Z" fill="rgb(200,131,111)" stroke="rgb(200,131,111)" stroke-width="1.51"></path><path d="M637,-25L637,-100L561,-24Z" fill="rgb(200,131,111)" stroke="rgb(200,131,111)" stroke-width="1.51"></path><path d="M713,125L712,49L639,51Z" fill="rgb(196,120,85)" stroke="rgb(196,120,85)" stroke-width="1.51"></path><path d="M489,501L562,501L489,426Z" fill="rgb(155,4,3)" stroke="rgb(155,4,3)" stroke-width="1.51"></path><path d="M637,350L710,348L639,275Z" fill="rgb(161,15,9)" stroke="rgb(161,15,9)" stroke-width="1.51"></path><path d="M-112,199L-114,274L-39,275Z" fill="rgb(255,176,151)" stroke="rgb(255,176,151)" stroke-width="1.51"></path><path d="M-115,123L-114,274L-112,199Z" fill="rgb(255,195,161)" stroke="rgb(255,195,161)" stroke-width="1.51"></path><path d="M638,500L639,425L561,424Z" fill="rgb(127,0,0)" stroke="rgb(127,0,0)" stroke-width="1.51"></path><path d="M36,-101L-40,-99L-39,-27Z" fill="rgb(255,247,236)" stroke="rgb(255,247,236)" stroke-width="1.51"></path><path d="M-39,-27L-111,-26L-37,48Z" fill="rgb(255,247,236)" stroke="rgb(255,247,236)" stroke-width="1.51"></path><path d="M-36,425L35,500L38,425Z" fill="rgb(200,130,108)" stroke="rgb(200,130,108)" stroke-width="1.51"></path><path d="M112,499L35,500L262,501Z" fill="rgb(194,117,79)" stroke="rgb(194,117,79)" stroke-width="1.51"></path><path d="M639,425L710,348L637,350Z" fill="rgb(140,0,1)" stroke="rgb(140,0,1)" stroke-width="1.51"></path><path d="M712,49L711,-23L639,51Z" fill="rgb(199,127,102)" stroke="rgb(199,127,102)" stroke-width="1.51"></path><path d="M-40,-99L-111,-26L-39,-27Z" fill="rgb(255,247,236)" stroke="rgb(255,247,236)" stroke-width="1.51"></path><path d="M-112,50L-114,-100L-115,123Z" fill="rgb(255,243,227)" stroke="rgb(255,243,227)" stroke-width="1.51"></path><path d="M-114,274L-113,348L-39,275Z" fill="rgb(247,155,129)" stroke="rgb(247,155,129)" stroke-width="1.51"></path><path d="M-36,425L-38,500L35,500Z" fill="rgb(200,131,111)" stroke="rgb(200,131,111)" stroke-width="1.51"></path><path d="M-114,424L-38,500L-36,425Z" fill="rgb(200,131,111)" stroke="rgb(200,131,111)" stroke-width="1.51"></path><path d="M35,500L-38,500L262,501Z" fill="rgb(197,123,92)" stroke="rgb(197,123,92)" stroke-width="1.51"></path><path d="M639,425L714,424L710,348Z" fill="rgb(127,0,0)" stroke="rgb(127,0,0)" stroke-width="1.51"></path><path d="M562,501L638,500L561,424Z" fill="rgb(131,0,1)" stroke="rgb(131,0,1)" stroke-width="1.51"></path><path d="M712,49L711,-102L711,-23Z" fill="rgb(200,131,111)" stroke="rgb(200,131,111)" stroke-width="1.51"></path><path d="M711,-23L711,-102L637,-100Z" fill="rgb(200,131,111)" stroke="rgb(200,131,111)" stroke-width="1.51"></path><path d="M637,-100L711,-102L562,-102Z" fill="rgb(200,131,111)" stroke="rgb(200,131,111)" stroke-width="1.51"></path><path d="M562,-102L711,-102L413,-103Z" fill="rgb(215,136,112)" stroke="rgb(215,136,112)" stroke-width="1.51"></path><path d="M713,125L711,-102L712,49Z" fill="rgb(199,128,103)" stroke="rgb(199,128,103)" stroke-width="1.51"></path><path d="M-115,123L-114,424L-114,274Z" fill="rgb(252,166,141)" stroke="rgb(252,166,141)" stroke-width="1.51"></path><path d="M-114,274L-114,424L-113,348Z" fill="rgb(231,141,114)" stroke="rgb(231,141,114)" stroke-width="1.51"></path><path d="M-113,348L-114,424L-39,348Z" fill="rgb(216,136,112)" stroke="rgb(216,136,112)" stroke-width="1.51"></path><path d="M712,498L714,424L639,425Z" fill="rgb(127,0,0)" stroke="rgb(127,0,0)" stroke-width="1.51"></path><path d="M710,348L714,424L712,272Z" fill="rgb(153,1,2)" stroke="rgb(153,1,2)" stroke-width="1.51"></path><path d="M712,272L714,424L713,125Z" fill="rgb(176,43,27)" stroke="rgb(176,43,27)" stroke-width="1.51"></path><path d="M-40,-99L-114,-100L-111,-26Z" fill="rgb(255,247,236)" stroke="rgb(255,247,236)" stroke-width="1.51"></path><path d="M-111,-26L-114,-100L-112,50Z" fill="rgb(255,247,236)" stroke="rgb(255,247,236)" stroke-width="1.51"></path><path d="M36,-101L-114,-100L-40,-99Z" fill="rgb(255,247,236)" stroke="rgb(255,247,236)" stroke-width="1.51"></path><path d="M638,500L712,498L639,425Z" fill="rgb(127,0,0)" stroke="rgb(127,0,0)" stroke-width="1.51"></path><path d="M-114,424L-113,500L-38,500Z" fill="rgb(200,131,111)" stroke="rgb(200,131,111)" stroke-width="1.51"></path><path d="M-38,500L-113,500L262,501Z" fill="rgb(199,128,103)" stroke="rgb(199,128,103)" stroke-width="1.51"></path></svg>