<svg width="600" height="400" xmlns="http://www.w3.org/2000/svg"><path d="M285,209L270,260L304,261Z" fill="rgb(112,194,201)" stroke="rgb(112,194,201)" stroke-width="1.51"></path><path d="M304,261L351,197L285,209Z" fill="rgb(111,196,201)" stroke="rgb(111,196,201)" stroke-width="1.51"></path><path d="M304,261L378,217L351,197Z" fill="rgb(101,190,205)" stroke="rgb(101,190,205)" stroke-width="1.51"></path><path d="M304,261L412,318L378,217Z" fill="rgb(77,174,207)" stroke="rgb(77,174,207)" stroke-width="1.51"></path><path d="M285,342L330,333L304,261Z" fill="rgb(87,166,192)" stroke="rgb(87,166,192)" stroke-width="1.51"></path><path d="M270,260L285,342L304,261Z" fill="rgb(99,177,194)" stroke="rgb(99,177,194)" stroke-width="1.51"></path><path d="M417,111L322,130L351,197Z" fill="rgb(135,202,196)" stroke="rgb(135,202,196)" stroke-width="1.51"></path><path d="M351,197L322,130L285,209Z" fill="rgb(129,204,195)" stroke="rgb(129,204,195)" stroke-width="1.51"></path><path d="M160,221L165,272L270,260Z" fill="rgb(137,202,200)" stroke="rgb(137,202,200)" stroke-width="1.51"></path><path d="M270,260L191,335L285,342Z" fill="rgb(109,172,187)" stroke="rgb(109,172,187)" stroke-width="1.51"></path><path d="M160,221L270,260L285,209Z" fill="rgb(133,203,195)" stroke="rgb(133,203,195)" stroke-width="1.51"></path><path d="M153,119L160,221L285,209Z" fill="rgb(161,218,189)" stroke="rgb(161,218,189)" stroke-width="1.51"></path><path d="M165,272L191,335L270,260Z" fill="rgb(126,185,190)" stroke="rgb(126,185,190)" stroke-width="1.51"></path><path d="M322,130L287,93L285,209Z" fill="rgb(149,213,190)" stroke="rgb(149,213,190)" stroke-width="1.51"></path><path d="M330,333L412,318L304,261Z" fill="rgb(73,162,198)" stroke="rgb(73,162,198)" stroke-width="1.51"></path><path d="M417,419L412,318L330,333Z" fill="rgb(49,135,187)" stroke="rgb(49,135,187)" stroke-width="1.51"></path><path d="M412,318L438,294L378,217Z" fill="rgb(62,159,201)" stroke="rgb(62,159,201)" stroke-width="1.51"></path><path d="M378,217L417,111L351,197Z" fill="rgb(117,193,199)" stroke="rgb(117,193,199)" stroke-width="1.51"></path><path d="M165,272L118,271L191,335Z" fill="rgb(138,189,195)" stroke="rgb(138,189,195)" stroke-width="1.51"></path><path d="M160,221L118,271L165,272Z" fill="rgb(150,204,204)" stroke="rgb(150,204,204)" stroke-width="1.51"></path><path d="M287,93L153,119L285,209Z" fill="rgb(167,220,184)" stroke="rgb(167,220,184)" stroke-width="1.51"></path><path d="M160,221L111,187L118,271Z" fill="rgb(160,214,204)" stroke="rgb(160,214,204)" stroke-width="1.51"></path><path d="M492,171L417,111L378,217Z" fill="rgb(114,182,192)" stroke="rgb(114,182,192)" stroke-width="1.51"></path><path d="M322,130L340,39L287,93Z" fill="rgb(165,217,201)" stroke="rgb(165,217,201)" stroke-width="1.51"></path><path d="M153,119L111,187L160,221Z" fill="rgb(177,224,195)" stroke="rgb(177,224,195)" stroke-width="1.51"></path><path d="M438,294L479,278L378,217Z" fill="rgb(62,159,200)" stroke="rgb(62,159,200)" stroke-width="1.51"></path><path d="M510,341L479,278L438,294Z" fill="rgb(38,132,186)" stroke="rgb(38,132,186)" stroke-width="1.51"></path><path d="M153,119L114,129L111,187Z" fill="rgb(191,230,193)" stroke="rgb(191,230,193)" stroke-width="1.51"></path><path d="M287,93L181,64L153,119Z" fill="rgb(192,230,193)" stroke="rgb(192,230,193)" stroke-width="1.51"></path><path d="M250,22L181,64L287,93Z" fill="rgb(190,230,199)" stroke="rgb(190,230,199)" stroke-width="1.51"></path><path d="M81,44L114,129L153,119Z" fill="rgb(209,237,202)" stroke="rgb(209,237,202)" stroke-width="1.51"></path><path d="M417,111L340,39L322,130Z" fill="rgb(155,210,204)" stroke="rgb(155,210,204)" stroke-width="1.51"></path><path d="M285,342L311,443L330,333Z" fill="rgb(78,141,175)" stroke="rgb(78,141,175)" stroke-width="1.51"></path><path d="M412,318L510,341L438,294Z" fill="rgb(38,132,187)" stroke="rgb(38,132,187)" stroke-width="1.51"></path><path d="M275,450L311,443L285,342Z" fill="rgb(82,131,162)" stroke="rgb(82,131,162)" stroke-width="1.51"></path><path d="M275,450L285,342L191,335Z" fill="rgb(99,146,169)" stroke="rgb(99,146,169)" stroke-width="1.51"></path><path d="M157,424L275,450L191,335Z" fill="rgb(108,139,158)" stroke="rgb(108,139,158)" stroke-width="1.51"></path><path d="M430,-33L321,-2L340,39Z" fill="rgb(174,217,224)" stroke="rgb(174,217,224)" stroke-width="1.51"></path><path d="M479,278L492,171L378,217Z" fill="rgb(79,166,197)" stroke="rgb(79,166,197)" stroke-width="1.51"></path><path d="M340,39L250,22L287,93Z" fill="rgb(178,225,206)" stroke="rgb(178,225,206)" stroke-width="1.51"></path><path d="M311,443L417,419L330,333Z" fill="rgb(60,123,168)" stroke="rgb(60,123,168)" stroke-width="1.51"></path><path d="M92,374L157,424L191,335Z" fill="rgb(126,154,174)" stroke="rgb(126,154,174)" stroke-width="1.51"></path><path d="M118,271L92,374L191,335Z" fill="rgb(135,177,192)" stroke="rgb(135,177,192)" stroke-width="1.51"></path><path d="M111,187L58,241L118,271Z" fill="rgb(163,214,210)" stroke="rgb(163,214,210)" stroke-width="1.51"></path><path d="M39,229L58,241L111,187Z" fill="rgb(171,219,212)" stroke="rgb(171,219,212)" stroke-width="1.51"></path><path d="M37,339L92,374L118,271Z" fill="rgb(142,179,199)" stroke="rgb(142,179,199)" stroke-width="1.51"></path><path d="M340,39L321,-2L250,22Z" fill="rgb(182,226,214)" stroke="rgb(182,226,214)" stroke-width="1.51"></path><path d="M436,39L340,39L417,111Z" fill="rgb(154,203,210)" stroke="rgb(154,203,210)" stroke-width="1.51"></path><path d="M496,412L510,341L412,318Z" fill="rgb(25,113,175)" stroke="rgb(25,113,175)" stroke-width="1.51"></path><path d="M479,278L546,272L492,171Z" fill="rgb(62,148,193)" stroke="rgb(62,148,193)" stroke-width="1.51"></path><path d="M515,114L436,39L417,111Z" fill="rgb(140,185,196)" stroke="rgb(140,185,196)" stroke-width="1.51"></path><path d="M45,100L39,229L111,187Z" fill="rgb(189,229,205)" stroke="rgb(189,229,205)" stroke-width="1.51"></path><path d="M58,241L37,339L118,271Z" fill="rgb(152,197,209)" stroke="rgb(152,197,209)" stroke-width="1.51"></path><path d="M275,450L260,486L311,443Z" fill="rgb(85,132,161)" stroke="rgb(85,132,161)" stroke-width="1.51"></path><path d="M311,443L357,510L417,419Z" fill="rgb(56,121,168)" stroke="rgb(56,121,168)" stroke-width="1.51"></path><path d="M175,471L260,486L275,450Z" fill="rgb(100,137,157)" stroke="rgb(100,137,157)" stroke-width="1.51"></path><path d="M250,22L155,-6L181,64Z" fill="rgb(209,237,208)" stroke="rgb(209,237,208)" stroke-width="1.51"></path><path d="M321,-2L277,-14L250,22Z" fill="rgb(192,230,216)" stroke="rgb(192,230,216)" stroke-width="1.51"></path><path d="M492,171L515,114L417,111Z" fill="rgb(123,175,187)" stroke="rgb(123,175,187)" stroke-width="1.51"></path><path d="M573,173L515,114L492,171Z" fill="rgb(110,159,178)" stroke="rgb(110,159,178)" stroke-width="1.51"></path><path d="M157,424L175,471L275,450Z" fill="rgb(109,140,159)" stroke="rgb(109,140,159)" stroke-width="1.51"></path><path d="M115,444L175,471L157,424Z" fill="rgb(121,144,164)" stroke="rgb(121,144,164)" stroke-width="1.51"></path><path d="M510,341L546,272L479,278Z" fill="rgb(34,126,183)" stroke="rgb(34,126,183)" stroke-width="1.51"></path><path d="M92,374L115,444L157,424Z" fill="rgb(125,146,168)" stroke="rgb(125,146,168)" stroke-width="1.51"></path><path d="M31,408L115,444L92,374Z" fill="rgb(130,148,174)" stroke="rgb(130,148,174)" stroke-width="1.51"></path><path d="M39,229L37,339L58,241Z" fill="rgb(160,204,215)" stroke="rgb(160,204,215)" stroke-width="1.51"></path><path d="M510,341L611,328L546,272Z" fill="rgb(26,108,169)" stroke="rgb(26,108,169)" stroke-width="1.51"></path><path d="M417,419L496,412L412,318Z" fill="rgb(33,110,167)" stroke="rgb(33,110,167)" stroke-width="1.51"></path><path d="M464,513L496,412L417,419Z" fill="rgb(28,99,158)" stroke="rgb(28,99,158)" stroke-width="1.51"></path><path d="M114,129L45,100L111,187Z" fill="rgb(198,233,200)" stroke="rgb(198,233,200)" stroke-width="1.51"></path><path d="M81,44L45,100L114,129Z" fill="rgb(216,239,209)" stroke="rgb(216,239,209)" stroke-width="1.51"></path><path d="M277,-14L155,-6L250,22Z" fill="rgb(207,236,210)" stroke="rgb(207,236,210)" stroke-width="1.51"></path><path d="M81,44L153,119L181,64Z" fill="rgb(211,238,204)" stroke="rgb(211,238,204)" stroke-width="1.51"></path><path d="M260,486L357,510L311,443Z" fill="rgb(75,129,164)" stroke="rgb(75,129,164)" stroke-width="1.51"></path><path d="M95,516L357,510L260,486Z" fill="rgb(100,137,158)" stroke="rgb(100,137,158)" stroke-width="1.51"></path><path d="M155,-6L81,44L181,64Z" fill="rgb(219,241,213)" stroke="rgb(219,241,213)" stroke-width="1.51"></path><path d="M546,272L573,173L492,171Z" fill="rgb(79,147,182)" stroke="rgb(79,147,182)" stroke-width="1.51"></path><path d="M547,79L505,32L515,114Z" fill="rgb(135,169,192)" stroke="rgb(135,169,192)" stroke-width="1.51"></path><path d="M515,114L505,32L436,39Z" fill="rgb(141,180,199)" stroke="rgb(141,180,199)" stroke-width="1.51"></path><path d="M436,39L430,-33L340,39Z" fill="rgb(164,206,219)" stroke="rgb(164,206,219)" stroke-width="1.51"></path><path d="M321,-2L352,-75L277,-14Z" fill="rgb(184,225,219)" stroke="rgb(184,225,219)" stroke-width="1.51"></path><path d="M45,100L-13,212L39,229Z" fill="rgb(192,230,211)" stroke="rgb(192,230,211)" stroke-width="1.51"></path><path d="M39,229L-68,305L37,339Z" fill="rgb(161,198,217)" stroke="rgb(161,198,217)" stroke-width="1.51"></path><path d="M576,93L547,79L515,114Z" fill="rgb(128,161,181)" stroke="rgb(128,161,181)" stroke-width="1.51"></path><path d="M505,32L430,-33L436,39Z" fill="rgb(155,192,212)" stroke="rgb(155,192,212)" stroke-width="1.51"></path><path d="M277,-14L233,-120L155,-6Z" fill="rgb(209,237,211)" stroke="rgb(209,237,211)" stroke-width="1.51"></path><path d="M357,510L403,521L417,419Z" fill="rgb(46,115,167)" stroke="rgb(46,115,167)" stroke-width="1.51"></path><path d="M95,516L403,521L357,510Z" fill="rgb(83,132,161)" stroke="rgb(83,132,161)" stroke-width="1.51"></path><path d="M-41,400L31,408L37,339Z" fill="rgb(143,159,191)" stroke="rgb(143,159,191)" stroke-width="1.51"></path><path d="M37,339L31,408L92,374Z" fill="rgb(138,161,189)" stroke="rgb(138,161,189)" stroke-width="1.51"></path><path d="M115,444L95,516L175,471Z" fill="rgb(124,145,167)" stroke="rgb(124,145,167)" stroke-width="1.51"></path><path d="M81,-16L68,21L81,44Z" fill="rgb(232,246,226)" stroke="rgb(232,246,226)" stroke-width="1.51"></path><path d="M81,44L68,21L45,100Z" fill="rgb(225,243,219)" stroke="rgb(225,243,219)" stroke-width="1.51"></path><path d="M45,100L-13,114L-13,212Z" fill="rgb(210,237,211)" stroke="rgb(210,237,211)" stroke-width="1.51"></path><path d="M496,412L566,379L510,341Z" fill="rgb(10,93,160)" stroke="rgb(10,93,160)" stroke-width="1.51"></path><path d="M546,272L604,209L573,173Z" fill="rgb(70,134,173)" stroke="rgb(70,134,173)" stroke-width="1.51"></path><path d="M548,453L566,379L496,412Z" fill="rgb(10,81,147)" stroke="rgb(10,81,147)" stroke-width="1.51"></path><path d="M646,305L604,209L546,272Z" fill="rgb(46,115,167)" stroke="rgb(46,115,167)" stroke-width="1.51"></path><path d="M573,173L576,93L515,114Z" fill="rgb(117,155,173)" stroke="rgb(117,155,173)" stroke-width="1.51"></path><path d="M430,-33L352,-75L321,-2Z" fill="rgb(174,216,225)" stroke="rgb(174,216,225)" stroke-width="1.51"></path><path d="M155,-6L81,-16L81,44Z" fill="rgb(230,246,223)" stroke="rgb(230,246,223)" stroke-width="1.51"></path><path d="M505,32L489,-59L430,-33Z" fill="rgb(156,188,212)" stroke="rgb(156,188,212)" stroke-width="1.51"></path><path d="M547,79L557,-35L505,32Z" fill="rgb(143,169,198)" stroke="rgb(143,169,198)" stroke-width="1.51"></path><path d="M617,125L576,93L573,173Z" fill="rgb(112,144,162)" stroke="rgb(112,144,162)" stroke-width="1.51"></path><path d="M-53,84L-13,114L-28,2Z" fill="rgb(232,246,226)" stroke="rgb(232,246,226)" stroke-width="1.51"></path><path d="M-28,2L-13,114L45,100Z" fill="rgb(231,246,224)" stroke="rgb(231,246,224)" stroke-width="1.51"></path><path d="M94,-80L81,-16L155,-6Z" fill="rgb(231,246,224)" stroke="rgb(231,246,224)" stroke-width="1.51"></path><path d="M403,521L464,513L417,419Z" fill="rgb(37,106,162)" stroke="rgb(37,106,162)" stroke-width="1.51"></path><path d="M566,379L611,328L510,341Z" fill="rgb(10,94,161)" stroke="rgb(10,94,161)" stroke-width="1.51"></path><path d="M654,428L611,328L566,379Z" fill="rgb(9,72,138)" stroke="rgb(9,72,138)" stroke-width="1.51"></path><path d="M464,513L548,453L496,412Z" fill="rgb(17,89,153)" stroke="rgb(17,89,153)" stroke-width="1.51"></path><path d="M31,408L95,516L115,444Z" fill="rgb(130,147,173)" stroke="rgb(130,147,173)" stroke-width="1.51"></path><path d="M175,471L95,516L260,486Z" fill="rgb(115,142,161)" stroke="rgb(115,142,161)" stroke-width="1.51"></path><path d="M494,-76L489,-59L557,-35Z" fill="rgb(151,177,208)" stroke="rgb(151,177,208)" stroke-width="1.51"></path><path d="M604,209L617,125L573,173Z" fill="rgb(95,136,159)" stroke="rgb(95,136,159)" stroke-width="1.51"></path><path d="M681,209L617,125L604,209Z" fill="rgb(89,133,160)" stroke="rgb(89,133,160)" stroke-width="1.51"></path><path d="M464,513L555,468L548,453Z" fill="rgb(10,84,151)" stroke="rgb(10,84,151)" stroke-width="1.51"></path><path d="M548,453L654,428L566,379Z" fill="rgb(9,67,132)" stroke="rgb(9,67,132)" stroke-width="1.51"></path><path d="M489,-59L505,32L557,-35Z" fill="rgb(151,177,207)" stroke="rgb(151,177,207)" stroke-width="1.51"></path><path d="M430,-33L430,-122L352,-75Z" fill="rgb(167,207,222)" stroke="rgb(167,207,222)" stroke-width="1.51"></path><path d="M430,-122L233,-120L352,-75Z" fill="rgb(180,221,222)" stroke="rgb(180,221,222)" stroke-width="1.51"></path><path d="M352,-75L233,-120L277,-14Z" fill="rgb(191,230,217)" stroke="rgb(191,230,217)" stroke-width="1.51"></path><path d="M-82,256L-68,305L-13,212Z" fill="rgb(170,212,224)" stroke="rgb(170,212,224)" stroke-width="1.51"></path><path d="M-13,212L-68,305L39,229Z" fill="rgb(172,216,226)" stroke="rgb(172,216,226)" stroke-width="1.51"></path><path d="M31,408L5,521L95,516Z" fill="rgb(135,150,179)" stroke="rgb(135,150,179)" stroke-width="1.51"></path><path d="M654,428L646,305L611,328Z" fill="rgb(9,82,149)" stroke="rgb(9,82,149)" stroke-width="1.51"></path><path d="M611,328L646,305L546,272Z" fill="rgb(29,100,159)" stroke="rgb(29,100,159)" stroke-width="1.51"></path><path d="M-62,381L-41,400L37,339Z" fill="rgb(146,164,196)" stroke="rgb(146,164,196)" stroke-width="1.51"></path><path d="M-68,305L-62,381L37,339Z" fill="rgb(152,178,208)" stroke="rgb(152,178,208)" stroke-width="1.51"></path><path d="M-126,223L-82,256L-13,212Z" fill="rgb(178,220,223)" stroke="rgb(178,220,223)" stroke-width="1.51"></path><path d="M81,-16L33,-34L68,21Z" fill="rgb(238,249,231)" stroke="rgb(238,249,231)" stroke-width="1.51"></path><path d="M183,-125L94,-80L155,-6Z" fill="rgb(227,244,219)" stroke="rgb(227,244,219)" stroke-width="1.51"></path><path d="M94,-80L33,-34L81,-16Z" fill="rgb(237,248,230)" stroke="rgb(237,248,230)" stroke-width="1.51"></path><path d="M-13,114L-86,123L-13,212Z" fill="rgb(208,237,210)" stroke="rgb(208,237,210)" stroke-width="1.51"></path><path d="M-28,2L45,100L68,21Z" fill="rgb(233,247,227)" stroke="rgb(233,247,227)" stroke-width="1.51"></path><path d="M489,-59L430,-122L430,-33Z" fill="rgb(159,194,215)" stroke="rgb(159,194,215)" stroke-width="1.51"></path><path d="M557,-35L547,79L636,36Z" fill="rgb(138,155,185)" stroke="rgb(138,155,185)" stroke-width="1.51"></path><path d="M233,-120L183,-125L155,-6Z" fill="rgb(216,240,214)" stroke="rgb(216,240,214)" stroke-width="1.51"></path><path d="M-117,335L-62,381L-68,305Z" fill="rgb(152,178,208)" stroke="rgb(152,178,208)" stroke-width="1.51"></path><path d="M636,36L547,79L576,93Z" fill="rgb(128,150,174)" stroke="rgb(128,150,174)" stroke-width="1.51"></path><path d="M494,-76L430,-122L489,-59Z" fill="rgb(156,189,213)" stroke="rgb(156,189,213)" stroke-width="1.51"></path><path d="M233,-120L430,-122L183,-125Z" fill="rgb(193,230,216)" stroke="rgb(193,230,216)" stroke-width="1.51"></path><path d="M568,-131L430,-122L494,-76Z" fill="rgb(153,182,210)" stroke="rgb(153,182,210)" stroke-width="1.51"></path><path d="M-53,84L-86,123L-13,114Z" fill="rgb(223,243,217)" stroke="rgb(223,243,217)" stroke-width="1.51"></path><path d="M-102,62L-86,123L-53,84Z" fill="rgb(228,245,221)" stroke="rgb(228,245,221)" stroke-width="1.51"></path><path d="M33,-34L-28,2L68,21Z" fill="rgb(244,251,236)" stroke="rgb(244,251,236)" stroke-width="1.51"></path><path d="M-15,-76L-28,2L33,-34Z" fill="rgb(247,252,240)" stroke="rgb(247,252,240)" stroke-width="1.51"></path><path d="M646,305L681,209L604,209Z" fill="rgb(56,121,168)" stroke="rgb(56,121,168)" stroke-width="1.51"></path><path d="M617,125L636,36L576,93Z" fill="rgb(124,145,167)" stroke="rgb(124,145,167)" stroke-width="1.51"></path><path d="M-62,530L5,521L-41,400Z" fill="rgb(141,152,184)" stroke="rgb(141,152,184)" stroke-width="1.51"></path><path d="M-41,400L5,521L31,408Z" fill="rgb(141,152,184)" stroke="rgb(141,152,184)" stroke-width="1.51"></path><path d="M95,516L-62,530L403,521Z" fill="rgb(122,145,165)" stroke="rgb(122,145,165)" stroke-width="1.51"></path><path d="M703,79L636,36L617,125Z" fill="rgb(125,146,168)" stroke="rgb(125,146,168)" stroke-width="1.51"></path><path d="M555,468L654,428L548,453Z" fill="rgb(9,67,133)" stroke="rgb(9,67,133)" stroke-width="1.51"></path><path d="M646,305L725,257L681,209Z" fill="rgb(48,116,168)" stroke="rgb(48,116,168)" stroke-width="1.51"></path><path d="M616,521L654,428L555,468Z" fill="rgb(8,64,129)" stroke="rgb(8,64,129)" stroke-width="1.51"></path><path d="M-86,123L-126,223L-13,212Z" fill="rgb(193,231,216)" stroke="rgb(193,231,216)" stroke-width="1.51"></path><path d="M-82,256L-117,335L-68,305Z" fill="rgb(159,195,216)" stroke="rgb(159,195,216)" stroke-width="1.51"></path><path d="M94,-80L58,-108L33,-34Z" fill="rgb(238,249,231)" stroke="rgb(238,249,231)" stroke-width="1.51"></path><path d="M183,-125L58,-108L94,-80Z" fill="rgb(231,246,224)" stroke="rgb(231,246,224)" stroke-width="1.51"></path><path d="M-119,448L-62,530L-41,400Z" fill="rgb(141,152,184)" stroke="rgb(141,152,184)" stroke-width="1.51"></path><path d="M-126,223L-117,335L-82,256Z" fill="rgb(166,206,221)" stroke="rgb(166,206,221)" stroke-width="1.51"></path><path d="M681,209L700,156L617,125Z" fill="rgb(97,136,158)" stroke="rgb(97,136,158)" stroke-width="1.51"></path><path d="M725,257L700,156L681,209Z" fill="rgb(75,129,164)" stroke="rgb(75,129,164)" stroke-width="1.51"></path><path d="M-125,-24L-102,62L-28,2Z" fill="rgb(244,251,237)" stroke="rgb(244,251,237)" stroke-width="1.51"></path><path d="M-28,2L-102,62L-53,84Z" fill="rgb(236,248,229)" stroke="rgb(236,248,229)" stroke-width="1.51"></path><path d="M-86,123L-102,62L-126,223Z" fill="rgb(213,239,212)" stroke="rgb(213,239,212)" stroke-width="1.51"></path><path d="M403,521L616,521L464,513Z" fill="rgb(20,91,154)" stroke="rgb(20,91,154)" stroke-width="1.51"></path><path d="M464,513L616,521L555,468Z" fill="rgb(9,78,144)" stroke="rgb(9,78,144)" stroke-width="1.51"></path><path d="M58,-108L-15,-76L33,-34Z" fill="rgb(243,251,236)" stroke="rgb(243,251,236)" stroke-width="1.51"></path><path d="M732,325L646,305L654,428Z" fill="rgb(9,83,149)" stroke="rgb(9,83,149)" stroke-width="1.51"></path><path d="M732,325L725,257L646,305Z" fill="rgb(32,102,160)" stroke="rgb(32,102,160)" stroke-width="1.51"></path><path d="M636,36L628,-45L557,-35Z" fill="rgb(141,152,184)" stroke="rgb(141,152,184)" stroke-width="1.51"></path><path d="M557,-35L568,-131L494,-76Z" fill="rgb(148,170,202)" stroke="rgb(148,170,202)" stroke-width="1.51"></path><path d="M730,-25L628,-45L636,36Z" fill="rgb(141,152,184)" stroke="rgb(141,152,184)" stroke-width="1.51"></path><path d="M725,257L703,79L700,156Z" fill="rgb(97,136,158)" stroke="rgb(97,136,158)" stroke-width="1.51"></path><path d="M700,156L703,79L617,125Z" fill="rgb(114,142,161)" stroke="rgb(114,142,161)" stroke-width="1.51"></path><path d="M724,420L732,325L654,428Z" fill="rgb(9,67,133)" stroke="rgb(9,67,133)" stroke-width="1.51"></path><path d="M5,521L-62,530L95,516Z" fill="rgb(139,151,182)" stroke="rgb(139,151,182)" stroke-width="1.51"></path><path d="M403,521L-62,530L616,521Z" fill="rgb(72,128,165)" stroke="rgb(72,128,165)" stroke-width="1.51"></path><path d="M-119,448L-41,400L-62,381Z" fill="rgb(141,152,184)" stroke="rgb(141,152,184)" stroke-width="1.51"></path><path d="M-117,335L-119,448L-62,381Z" fill="rgb(143,157,189)" stroke="rgb(143,157,189)" stroke-width="1.51"></path><path d="M-137,528L-119,448L-117,335Z" fill="rgb(141,152,184)" stroke="rgb(141,152,184)" stroke-width="1.51"></path><path d="M430,-122L568,-131L183,-125Z" fill="rgb(169,210,223)" stroke="rgb(169,210,223)" stroke-width="1.51"></path><path d="M628,-45L568,-131L557,-35Z" fill="rgb(143,157,189)" stroke="rgb(143,157,189)" stroke-width="1.51"></path><path d="M733,468L724,420L654,428Z" fill="rgb(8,64,129)" stroke="rgb(8,64,129)" stroke-width="1.51"></path><path d="M-15,-76L-125,-24L-28,2Z" fill="rgb(247,252,240)" stroke="rgb(247,252,240)" stroke-width="1.51"></path><path d="M-102,62L-125,-24L-126,223Z" fill="rgb(228,245,221)" stroke="rgb(228,245,221)" stroke-width="1.51"></path><path d="M616,521L733,468L654,428Z" fill="rgb(8,64,129)" stroke="rgb(8,64,129)" stroke-width="1.51"></path><path d="M724,420L733,468L732,325Z" fill="rgb(8,64,129)" stroke="rgb(8,64,129)" stroke-width="1.51"></path><path d="M628,-45L670,-133L568,-131Z" fill="rgb(141,152,184)" stroke="rgb(141,152,184)" stroke-width="1.51"></path><path d="M703,79L730,-25L636,36Z" fill="rgb(134,150,178)" stroke="rgb(134,150,178)" stroke-width="1.51"></path><path d="M725,257L730,-25L703,79Z" fill="rgb(120,144,164)" stroke="rgb(120,144,164)" stroke-width="1.51"></path><path d="M732,325L730,-25L725,257Z" fill="rgb(86,133,161)" stroke="rgb(86,133,161)" stroke-width="1.51"></path><path d="M742,-126L730,-25L732,325Z" fill="rgb(129,147,172)" stroke="rgb(129,147,172)" stroke-width="1.51"></path><path d="M-140,-99L-137,528L-126,223Z" fill="rgb(182,223,220)" stroke="rgb(182,223,220)" stroke-width="1.51"></path><path d="M-126,223L-137,528L-117,335Z" fill="rgb(148,169,201)" stroke="rgb(148,169,201)" stroke-width="1.51"></path><path d="M-119,448L-137,528L-62,530Z" fill="rgb(141,152,184)" stroke="rgb(141,152,184)" stroke-width="1.51"></path><path d="M730,-25L670,-133L628,-45Z" fill="rgb(141,152,184)" stroke="rgb(141,152,184)" stroke-width="1.51"></path><path d="M568,-131L670,-133L183,-125Z" fill="rgb(156,188,212)" stroke="rgb(156,188,212)" stroke-width="1.51"></path><path d="M-125,-24L-140,-99L-126,223Z" fill="rgb(240,249,233)" stroke="rgb(240,249,233)" stroke-width="1.51"></path><path d="M-15,-76L-140,-99L-125,-24Z" fill="rgb(247,252,240)" stroke="rgb(247,252,240)" stroke-width="1.51"></path><path d="M58,-108L-140,-99L-15,-76Z" fill="rgb(247,252,240)" stroke="rgb(247,252,240)" stroke-width="1.51"></path><path d="M183,-125L-140,-99L58,-108Z" fill="rgb(242,250,235)" stroke="rgb(242,250,235)" stroke-width="1.51"></path><path d="M730,-25L742,-126L670,-133Z" fill="rgb(141,152,184)" stroke="rgb(141,152,184)" stroke-width="1.51"></path><path d="M733,468L742,-126L732,325Z" fill="rgb(67,126,166)" stroke="rgb(67,126,166)" stroke-width="1.51"></path></svg>