<svg width="600" height="400" xmlns="http://www.w3.org/2000/svg"><path d="M271,191L250,262L329,205Z" fill="rgb(102,193,159)" stroke="rgb(102,193,159)" stroke-width="1.51"></path><path d="M250,262L350,272L329,205Z" fill="rgb(84,183,139)" stroke="rgb(84,183,139)" stroke-width="1.51"></path><path d="M174,213L198,272L250,262Z" fill="rgb(119,198,163)" stroke="rgb(119,198,163)" stroke-width="1.51"></path><path d="M250,262L265,364L350,272Z" fill="rgb(76,168,119)" stroke="rgb(76,168,119)" stroke-width="1.51"></path><path d="M350,272L407,216L329,205Z" fill="rgb(76,179,130)" stroke="rgb(76,179,130)" stroke-width="1.51"></path><path d="M329,205L342,121L271,191Z" fill="rgb(114,198,169)" stroke="rgb(114,198,169)" stroke-width="1.51"></path><path d="M271,191L174,213L250,262Z" fill="rgb(119,200,171)" stroke="rgb(119,200,171)" stroke-width="1.51"></path><path d="M407,216L342,121L329,205Z" fill="rgb(99,191,153)" stroke="rgb(99,191,153)" stroke-width="1.51"></path><path d="M271,191L179,111L174,213Z" fill="rgb(149,214,196)" stroke="rgb(149,214,196)" stroke-width="1.51"></path><path d="M342,121L266,110L271,191Z" fill="rgb(136,208,186)" stroke="rgb(136,208,186)" stroke-width="1.51"></path><path d="M198,272L265,364L250,262Z" fill="rgb(95,175,131)" stroke="rgb(95,175,131)" stroke-width="1.51"></path><path d="M350,272L424,291L407,216Z" fill="rgb(59,166,107)" stroke="rgb(59,166,107)" stroke-width="1.51"></path><path d="M265,364L333,365L350,272Z" fill="rgb(60,154,102)" stroke="rgb(60,154,102)" stroke-width="1.51"></path><path d="M409,364L424,291L350,272Z" fill="rgb(45,149,84)" stroke="rgb(45,149,84)" stroke-width="1.51"></path><path d="M266,110L179,111L271,191Z" fill="rgb(155,217,201)" stroke="rgb(155,217,201)" stroke-width="1.51"></path><path d="M198,272L181,365L265,364Z" fill="rgb(96,168,126)" stroke="rgb(96,168,126)" stroke-width="1.51"></path><path d="M265,364L333,424L333,365Z" fill="rgb(53,134,92)" stroke="rgb(53,134,92)" stroke-width="1.51"></path><path d="M104,287L181,365L198,272Z" fill="rgb(121,183,143)" stroke="rgb(121,183,143)" stroke-width="1.51"></path><path d="M407,216L423,127L342,121Z" fill="rgb(107,191,152)" stroke="rgb(107,191,152)" stroke-width="1.51"></path><path d="M350,47L264,41L266,110Z" fill="rgb(166,219,204)" stroke="rgb(166,219,204)" stroke-width="1.51"></path><path d="M503,190L423,127L407,216Z" fill="rgb(86,173,126)" stroke="rgb(86,173,126)" stroke-width="1.51"></path><path d="M333,365L409,364L350,272Z" fill="rgb(46,148,88)" stroke="rgb(46,148,88)" stroke-width="1.51"></path><path d="M174,213L104,287L198,272Z" fill="rgb(134,202,168)" stroke="rgb(134,202,168)" stroke-width="1.51"></path><path d="M179,111L111,209L174,213Z" fill="rgb(164,220,204)" stroke="rgb(164,220,204)" stroke-width="1.51"></path><path d="M479,336L478,279L424,291Z" fill="rgb(33,136,66)" stroke="rgb(33,136,66)" stroke-width="1.51"></path><path d="M424,291L478,279L407,216Z" fill="rgb(50,155,92)" stroke="rgb(50,155,92)" stroke-width="1.51"></path><path d="M333,365L333,424L409,364Z" fill="rgb(40,127,78)" stroke="rgb(40,127,78)" stroke-width="1.51"></path><path d="M255,427L333,424L265,364Z" fill="rgb(59,131,95)" stroke="rgb(59,131,95)" stroke-width="1.51"></path><path d="M111,209L104,287L174,213Z" fill="rgb(147,209,181)" stroke="rgb(147,209,181)" stroke-width="1.51"></path><path d="M202,433L255,427L265,364Z" fill="rgb(74,136,105)" stroke="rgb(74,136,105)" stroke-width="1.51"></path><path d="M266,110L190,56L179,111Z" fill="rgb(185,229,219)" stroke="rgb(185,229,219)" stroke-width="1.51"></path><path d="M350,47L266,110L342,121Z" fill="rgb(153,213,192)" stroke="rgb(153,213,192)" stroke-width="1.51"></path><path d="M396,51L350,47L342,121Z" fill="rgb(149,209,181)" stroke="rgb(149,209,181)" stroke-width="1.51"></path><path d="M179,111L97,121L111,209Z" fill="rgb(184,228,219)" stroke="rgb(184,228,219)" stroke-width="1.51"></path><path d="M264,41L190,56L266,110Z" fill="rgb(182,227,218)" stroke="rgb(182,227,218)" stroke-width="1.51"></path><path d="M488,61L396,51L423,127Z" fill="rgb(134,193,155)" stroke="rgb(134,193,155)" stroke-width="1.51"></path><path d="M423,127L396,51L342,121Z" fill="rgb(137,202,169)" stroke="rgb(137,202,169)" stroke-width="1.51"></path><path d="M479,413L479,336L409,364Z" fill="rgb(17,114,52)" stroke="rgb(17,114,52)" stroke-width="1.51"></path><path d="M409,364L479,336L424,291Z" fill="rgb(30,133,65)" stroke="rgb(30,133,65)" stroke-width="1.51"></path><path d="M181,365L202,433L265,364Z" fill="rgb(85,145,113)" stroke="rgb(85,145,113)" stroke-width="1.51"></path><path d="M255,427L268,504L333,424Z" fill="rgb(59,130,95)" stroke="rgb(59,130,95)" stroke-width="1.51"></path><path d="M99,422L202,433L181,365Z" fill="rgb(101,147,120)" stroke="rgb(101,147,120)" stroke-width="1.51"></path><path d="M551,260L503,190L478,279Z" fill="rgb(44,145,86)" stroke="rgb(44,145,86)" stroke-width="1.51"></path><path d="M478,279L503,190L407,216Z" fill="rgb(58,158,101)" stroke="rgb(58,158,101)" stroke-width="1.51"></path><path d="M503,190L489,131L423,127Z" fill="rgb(97,172,130)" stroke="rgb(97,172,130)" stroke-width="1.51"></path><path d="M21,339L98,350L104,287Z" fill="rgb(133,184,149)" stroke="rgb(133,184,149)" stroke-width="1.51"></path><path d="M104,287L98,350L181,365Z" fill="rgb(122,178,140)" stroke="rgb(122,178,140)" stroke-width="1.51"></path><path d="M125,57L97,121L179,111Z" fill="rgb(208,238,232)" stroke="rgb(208,238,232)" stroke-width="1.51"></path><path d="M111,209L31,276L104,287Z" fill="rgb(149,207,177)" stroke="rgb(149,207,177)" stroke-width="1.51"></path><path d="M333,424L418,427L409,364Z" fill="rgb(31,116,67)" stroke="rgb(31,116,67)" stroke-width="1.51"></path><path d="M418,484L418,427L333,424Z" fill="rgb(30,116,66)" stroke="rgb(30,116,66)" stroke-width="1.51"></path><path d="M190,56L125,57L179,111Z" fill="rgb(206,237,232)" stroke="rgb(206,237,232)" stroke-width="1.51"></path><path d="M128,-13L125,57L190,56Z" fill="rgb(220,242,240)" stroke="rgb(220,242,240)" stroke-width="1.51"></path><path d="M559,345L551,260L478,279Z" fill="rgb(22,125,58)" stroke="rgb(22,125,58)" stroke-width="1.51"></path><path d="M418,427L479,413L409,364Z" fill="rgb(20,106,52)" stroke="rgb(20,106,52)" stroke-width="1.51"></path><path d="M503,190L552,117L489,131Z" fill="rgb(92,165,122)" stroke="rgb(92,165,122)" stroke-width="1.51"></path><path d="M559,345L478,279L479,336Z" fill="rgb(17,122,54)" stroke="rgb(17,122,54)" stroke-width="1.51"></path><path d="M264,41L192,-10L190,56Z" fill="rgb(199,234,228)" stroke="rgb(199,234,228)" stroke-width="1.51"></path><path d="M349,-35L247,-23L264,41Z" fill="rgb(182,225,211)" stroke="rgb(182,225,211)" stroke-width="1.51"></path><path d="M349,-35L264,41L350,47Z" fill="rgb(170,219,200)" stroke="rgb(170,219,200)" stroke-width="1.51"></path><path d="M30,199L31,276L111,209Z" fill="rgb(161,215,193)" stroke="rgb(161,215,193)" stroke-width="1.51"></path><path d="M489,131L488,61L423,127Z" fill="rgb(120,182,142)" stroke="rgb(120,182,142)" stroke-width="1.51"></path><path d="M396,51L349,-35L350,47Z" fill="rgb(160,214,186)" stroke="rgb(160,214,186)" stroke-width="1.51"></path><path d="M552,117L488,61L489,131Z" fill="rgb(115,174,135)" stroke="rgb(115,174,135)" stroke-width="1.51"></path><path d="M97,121L30,199L111,209Z" fill="rgb(179,224,214)" stroke="rgb(179,224,214)" stroke-width="1.51"></path><path d="M49,113L30,199L97,121Z" fill="rgb(196,233,227)" stroke="rgb(196,233,227)" stroke-width="1.51"></path><path d="M247,-23L192,-10L264,41Z" fill="rgb(197,233,224)" stroke="rgb(197,233,224)" stroke-width="1.51"></path><path d="M24,433L99,422L98,350Z" fill="rgb(116,153,130)" stroke="rgb(116,153,130)" stroke-width="1.51"></path><path d="M98,350L99,422L181,365Z" fill="rgb(113,160,129)" stroke="rgb(113,160,129)" stroke-width="1.51"></path><path d="M174,486L268,504L202,433Z" fill="rgb(83,140,110)" stroke="rgb(83,140,110)" stroke-width="1.51"></path><path d="M202,433L268,504L255,427Z" fill="rgb(74,136,105)" stroke="rgb(74,136,105)" stroke-width="1.51"></path><path d="M418,427L472,494L479,413Z" fill="rgb(15,101,46)" stroke="rgb(15,101,46)" stroke-width="1.51"></path><path d="M23,53L49,113L125,57Z" fill="rgb(224,244,244)" stroke="rgb(224,244,244)" stroke-width="1.51"></path><path d="M125,57L49,113L97,121Z" fill="rgb(215,240,238)" stroke="rgb(215,240,238)" stroke-width="1.51"></path><path d="M268,504L330,507L333,424Z" fill="rgb(51,127,89)" stroke="rgb(51,127,89)" stroke-width="1.51"></path><path d="M99,422L174,486L202,433Z" fill="rgb(101,147,120)" stroke="rgb(101,147,120)" stroke-width="1.51"></path><path d="M413,-33L349,-35L396,51Z" fill="rgb(160,211,180)" stroke="rgb(160,211,180)" stroke-width="1.51"></path><path d="M551,260L569,214L503,190Z" fill="rgb(50,141,91)" stroke="rgb(50,141,91)" stroke-width="1.51"></path><path d="M330,507L418,484L333,424Z" fill="rgb(37,121,75)" stroke="rgb(37,121,75)" stroke-width="1.51"></path><path d="M569,214L552,117L503,190Z" fill="rgb(74,152,109)" stroke="rgb(74,152,109)" stroke-width="1.51"></path><path d="M31,276L21,339L104,287Z" fill="rgb(142,193,156)" stroke="rgb(142,193,156)" stroke-width="1.51"></path><path d="M-33,268L21,339L31,276Z" fill="rgb(149,197,160)" stroke="rgb(149,197,160)" stroke-width="1.51"></path><path d="M479,413L559,345L479,336Z" fill="rgb(5,107,44)" stroke="rgb(5,107,44)" stroke-width="1.51"></path><path d="M551,260L621,262L569,214Z" fill="rgb(37,125,75)" stroke="rgb(37,125,75)" stroke-width="1.51"></path><path d="M578,409L559,345L479,413Z" fill="rgb(0,89,36)" stroke="rgb(0,89,36)" stroke-width="1.51"></path><path d="M490,-15L396,51L488,61Z" fill="rgb(141,191,155)" stroke="rgb(141,191,155)" stroke-width="1.51"></path><path d="M490,-15L413,-33L396,51Z" fill="rgb(151,200,163)" stroke="rgb(151,200,163)" stroke-width="1.51"></path><path d="M192,-10L128,-13L190,56Z" fill="rgb(217,241,237)" stroke="rgb(217,241,237)" stroke-width="1.51"></path><path d="M123,-87L128,-13L192,-10Z" fill="rgb(226,244,242)" stroke="rgb(226,244,242)" stroke-width="1.51"></path><path d="M184,-115L192,-10L247,-23Z" fill="rgb(207,237,230)" stroke="rgb(207,237,230)" stroke-width="1.51"></path><path d="M418,484L472,494L418,427Z" fill="rgb(20,105,52)" stroke="rgb(20,105,52)" stroke-width="1.51"></path><path d="M330,507L472,494L418,484Z" fill="rgb(26,112,61)" stroke="rgb(26,112,61)" stroke-width="1.51"></path><path d="M567,47L490,-15L488,61Z" fill="rgb(132,180,144)" stroke="rgb(132,180,144)" stroke-width="1.51"></path><path d="M99,422L98,491L174,486Z" fill="rgb(109,150,125)" stroke="rgb(109,150,125)" stroke-width="1.51"></path><path d="M174,486L98,491L268,504Z" fill="rgb(95,144,116)" stroke="rgb(95,144,116)" stroke-width="1.51"></path><path d="M24,433L98,491L99,422Z" fill="rgb(116,153,130)" stroke="rgb(116,153,130)" stroke-width="1.51"></path><path d="M128,-13L23,53L125,57Z" fill="rgb(229,245,247)" stroke="rgb(229,245,247)" stroke-width="1.51"></path><path d="M-50,122L-48,186L30,199Z" fill="rgb(192,230,220)" stroke="rgb(192,230,220)" stroke-width="1.51"></path><path d="M30,199L-33,268L31,276Z" fill="rgb(161,214,185)" stroke="rgb(161,214,185)" stroke-width="1.51"></path><path d="M21,339L24,433L98,350Z" fill="rgb(125,166,137)" stroke="rgb(125,166,137)" stroke-width="1.51"></path><path d="M-48,186L-33,268L30,199Z" fill="rgb(172,220,199)" stroke="rgb(172,220,199)" stroke-width="1.51"></path><path d="M569,214L631,196L552,117Z" fill="rgb(68,138,103)" stroke="rgb(68,138,103)" stroke-width="1.51"></path><path d="M552,117L567,47L488,61Z" fill="rgb(120,171,136)" stroke="rgb(120,171,136)" stroke-width="1.51"></path><path d="M559,345L621,262L551,260Z" fill="rgb(22,113,55)" stroke="rgb(22,113,55)" stroke-width="1.51"></path><path d="M639,339L621,262L559,345Z" fill="rgb(11,98,43)" stroke="rgb(11,98,43)" stroke-width="1.51"></path><path d="M-26,422L24,433L21,339Z" fill="rgb(125,157,133)" stroke="rgb(125,157,133)" stroke-width="1.51"></path><path d="M407,-97L349,-35L413,-33Z" fill="rgb(159,210,178)" stroke="rgb(159,210,178)" stroke-width="1.51"></path><path d="M407,-97L327,-95L349,-35Z" fill="rgb(165,216,188)" stroke="rgb(165,216,188)" stroke-width="1.51"></path><path d="M349,-35L327,-95L247,-23Z" fill="rgb(176,222,205)" stroke="rgb(176,222,205)" stroke-width="1.51"></path><path d="M629,118L567,47L552,117Z" fill="rgb(108,154,125)" stroke="rgb(108,154,125)" stroke-width="1.51"></path><path d="M472,494L578,409L479,413Z" fill="rgb(3,91,38)" stroke="rgb(3,91,38)" stroke-width="1.51"></path><path d="M621,262L631,196L569,214Z" fill="rgb(44,124,82)" stroke="rgb(44,124,82)" stroke-width="1.51"></path><path d="M-50,122L30,199L49,113Z" fill="rgb(203,235,228)" stroke="rgb(203,235,228)" stroke-width="1.51"></path><path d="M327,-95L277,-110L247,-23Z" fill="rgb(183,226,212)" stroke="rgb(183,226,212)" stroke-width="1.51"></path><path d="M128,-13L34,-27L23,53Z" fill="rgb(239,249,251)" stroke="rgb(239,249,251)" stroke-width="1.51"></path><path d="M327,-95L407,-97L277,-110Z" fill="rgb(170,218,196)" stroke="rgb(170,218,196)" stroke-width="1.51"></path><path d="M478,-85L407,-97L413,-33Z" fill="rgb(151,200,163)" stroke="rgb(151,200,163)" stroke-width="1.51"></path><path d="M478,-85L413,-33L490,-15Z" fill="rgb(146,193,155)" stroke="rgb(146,193,155)" stroke-width="1.51"></path><path d="M-33,268L-45,349L21,339Z" fill="rgb(143,190,152)" stroke="rgb(143,190,152)" stroke-width="1.51"></path><path d="M-104,333L-45,349L-33,268Z" fill="rgb(144,190,153)" stroke="rgb(144,190,153)" stroke-width="1.51"></path><path d="M631,196L629,118L552,117Z" fill="rgb(83,140,110)" stroke="rgb(83,140,110)" stroke-width="1.51"></path><path d="M-128,287L-104,333L-33,268Z" fill="rgb(149,197,160)" stroke="rgb(149,197,160)" stroke-width="1.51"></path><path d="M23,53L-50,122L49,113Z" fill="rgb(226,244,242)" stroke="rgb(226,244,242)" stroke-width="1.51"></path><path d="M578,409L639,339L559,345Z" fill="rgb(0,84,34)" stroke="rgb(0,84,34)" stroke-width="1.51"></path><path d="M621,262L709,200L631,196Z" fill="rgb(46,125,83)" stroke="rgb(46,125,83)" stroke-width="1.51"></path><path d="M702,47L640,41L629,118Z" fill="rgb(112,151,127)" stroke="rgb(112,151,127)" stroke-width="1.51"></path><path d="M23,53L-23,35L-50,122Z" fill="rgb(233,247,247)" stroke="rgb(233,247,247)" stroke-width="1.51"></path><path d="M184,-115L123,-87L192,-10Z" fill="rgb(220,242,238)" stroke="rgb(220,242,238)" stroke-width="1.51"></path><path d="M277,-110L184,-115L247,-23Z" fill="rgb(197,233,224)" stroke="rgb(197,233,224)" stroke-width="1.51"></path><path d="M123,-87L34,-27L128,-13Z" fill="rgb(235,248,248)" stroke="rgb(235,248,248)" stroke-width="1.51"></path><path d="M24,433L30,495L98,491Z" fill="rgb(119,154,131)" stroke="rgb(119,154,131)" stroke-width="1.51"></path><path d="M-45,349L-26,422L21,339Z" fill="rgb(132,170,139)" stroke="rgb(132,170,139)" stroke-width="1.51"></path><path d="M-26,422L30,495L24,433Z" fill="rgb(124,156,132)" stroke="rgb(124,156,132)" stroke-width="1.51"></path><path d="M98,491L30,495L268,504Z" fill="rgb(107,149,124)" stroke="rgb(107,149,124)" stroke-width="1.51"></path><path d="M268,504L-47,501L330,507Z" fill="rgb(93,144,116)" stroke="rgb(93,144,116)" stroke-width="1.51"></path><path d="M560,-27L490,-15L567,47Z" fill="rgb(133,175,141)" stroke="rgb(133,175,141)" stroke-width="1.51"></path><path d="M560,-27L478,-85L490,-15Z" fill="rgb(138,183,146)" stroke="rgb(138,183,146)" stroke-width="1.51"></path><path d="M34,-27L-23,35L23,53Z" fill="rgb(242,250,252)" stroke="rgb(242,250,252)" stroke-width="1.51"></path><path d="M624,-34L560,-27L567,47Z" fill="rgb(127,161,135)" stroke="rgb(127,161,135)" stroke-width="1.51"></path><path d="M578,409L641,416L639,339Z" fill="rgb(0,73,29)" stroke="rgb(0,73,29)" stroke-width="1.51"></path><path d="M624,488L641,416L578,409Z" fill="rgb(0,68,27)" stroke="rgb(0,68,27)" stroke-width="1.51"></path><path d="M330,507L578,509L472,494Z" fill="rgb(14,101,46)" stroke="rgb(14,101,46)" stroke-width="1.51"></path><path d="M472,494L578,509L578,409Z" fill="rgb(0,83,33)" stroke="rgb(0,83,33)" stroke-width="1.51"></path><path d="M629,118L640,41L567,47Z" fill="rgb(112,151,127)" stroke="rgb(112,151,127)" stroke-width="1.51"></path><path d="M709,200L629,118L631,196Z" fill="rgb(69,134,101)" stroke="rgb(69,134,101)" stroke-width="1.51"></path><path d="M709,200L621,262L724,279Z" fill="rgb(35,119,72)" stroke="rgb(35,119,72)" stroke-width="1.51"></path><path d="M-45,349L-99,441L-26,422Z" fill="rgb(125,156,132)" stroke="rgb(125,156,132)" stroke-width="1.51"></path><path d="M-26,422L-47,501L30,495Z" fill="rgb(125,156,132)" stroke="rgb(125,156,132)" stroke-width="1.51"></path><path d="M-125,193L-33,268L-48,186Z" fill="rgb(172,220,200)" stroke="rgb(172,220,200)" stroke-width="1.51"></path><path d="M578,509L624,488L578,409Z" fill="rgb(0,70,28)" stroke="rgb(0,70,28)" stroke-width="1.51"></path><path d="M-50,122L-125,193L-48,186Z" fill="rgb(193,231,220)" stroke="rgb(193,231,220)" stroke-width="1.51"></path><path d="M-129,120L-125,193L-50,122Z" fill="rgb(203,235,228)" stroke="rgb(203,235,228)" stroke-width="1.51"></path><path d="M724,279L639,339L716,348Z" fill="rgb(9,96,42)" stroke="rgb(9,96,42)" stroke-width="1.51"></path><path d="M724,279L621,262L639,339Z" fill="rgb(19,105,50)" stroke="rgb(19,105,50)" stroke-width="1.51"></path><path d="M-125,193L-128,287L-33,268Z" fill="rgb(162,214,184)" stroke="rgb(162,214,184)" stroke-width="1.51"></path><path d="M640,41L624,-34L567,47Z" fill="rgb(122,155,131)" stroke="rgb(122,155,131)" stroke-width="1.51"></path><path d="M560,-27L576,-90L478,-85Z" fill="rgb(134,175,141)" stroke="rgb(134,175,141)" stroke-width="1.51"></path><path d="M728,-23L624,-34L640,41Z" fill="rgb(125,156,132)" stroke="rgb(125,156,132)" stroke-width="1.51"></path><path d="M-99,441L-45,349L-104,333Z" fill="rgb(131,168,138)" stroke="rgb(131,168,138)" stroke-width="1.51"></path><path d="M-99,441L-47,501L-26,422Z" fill="rgb(125,156,132)" stroke="rgb(125,156,132)" stroke-width="1.51"></path><path d="M30,495L-47,501L268,504Z" fill="rgb(115,152,129)" stroke="rgb(115,152,129)" stroke-width="1.51"></path><path d="M-108,41L-129,120L-50,122Z" fill="rgb(227,245,242)" stroke="rgb(227,245,242)" stroke-width="1.51"></path><path d="M34,-27L-44,-34L-23,35Z" fill="rgb(247,252,253)" stroke="rgb(247,252,253)" stroke-width="1.51"></path><path d="M21,-107L-44,-34L34,-27Z" fill="rgb(247,252,253)" stroke="rgb(247,252,253)" stroke-width="1.51"></path><path d="M21,-107L34,-27L123,-87Z" fill="rgb(240,249,252)" stroke="rgb(240,249,252)" stroke-width="1.51"></path><path d="M624,-34L576,-90L560,-27Z" fill="rgb(127,160,134)" stroke="rgb(127,160,134)" stroke-width="1.51"></path><path d="M478,-85L576,-90L407,-97Z" fill="rgb(142,187,151)" stroke="rgb(142,187,151)" stroke-width="1.51"></path><path d="M407,-97L723,-103L277,-110Z" fill="rgb(145,191,154)" stroke="rgb(145,191,154)" stroke-width="1.51"></path><path d="M716,348L639,339L641,416Z" fill="rgb(0,81,32)" stroke="rgb(0,81,32)" stroke-width="1.51"></path><path d="M-125,193L-129,120L-128,287Z" fill="rgb(177,223,208)" stroke="rgb(177,223,208)" stroke-width="1.51"></path><path d="M-108,41L-50,122L-23,35Z" fill="rgb(234,247,248)" stroke="rgb(234,247,248)" stroke-width="1.51"></path><path d="M184,-115L21,-107L123,-87Z" fill="rgb(233,247,246)" stroke="rgb(233,247,246)" stroke-width="1.51"></path><path d="M721,436L716,348L641,416Z" fill="rgb(0,68,27)" stroke="rgb(0,68,27)" stroke-width="1.51"></path><path d="M-121,490L-99,441L-104,333Z" fill="rgb(125,156,132)" stroke="rgb(125,156,132)" stroke-width="1.51"></path><path d="M-44,-34L-108,41L-23,35Z" fill="rgb(245,251,253)" stroke="rgb(245,251,253)" stroke-width="1.51"></path><path d="M724,279L722,111L709,200Z" fill="rgb(55,129,93)" stroke="rgb(55,129,93)" stroke-width="1.51"></path><path d="M709,200L722,111L629,118Z" fill="rgb(83,140,110)" stroke="rgb(83,140,110)" stroke-width="1.51"></path><path d="M722,111L702,47L629,118Z" fill="rgb(106,149,123)" stroke="rgb(106,149,123)" stroke-width="1.51"></path><path d="M624,-34L647,-94L576,-90Z" fill="rgb(125,156,132)" stroke="rgb(125,156,132)" stroke-width="1.51"></path><path d="M624,488L721,436L641,416Z" fill="rgb(0,68,27)" stroke="rgb(0,68,27)" stroke-width="1.51"></path><path d="M716,348L721,436L724,279Z" fill="rgb(0,86,34)" stroke="rgb(0,86,34)" stroke-width="1.51"></path><path d="M-44,-34L-105,-30L-108,41Z" fill="rgb(247,252,253)" stroke="rgb(247,252,253)" stroke-width="1.51"></path><path d="M-108,41L-129,-84L-129,120Z" fill="rgb(243,250,252)" stroke="rgb(243,250,252)" stroke-width="1.51"></path><path d="M-45,-116L-105,-30L-44,-34Z" fill="rgb(247,252,253)" stroke="rgb(247,252,253)" stroke-width="1.51"></path><path d="M-128,287L-121,490L-104,333Z" fill="rgb(132,170,139)" stroke="rgb(132,170,139)" stroke-width="1.51"></path><path d="M-99,441L-121,490L-47,501Z" fill="rgb(125,156,132)" stroke="rgb(125,156,132)" stroke-width="1.51"></path><path d="M728,-23L647,-94L624,-34Z" fill="rgb(125,156,132)" stroke="rgb(125,156,132)" stroke-width="1.51"></path><path d="M576,-90L723,-103L407,-97Z" fill="rgb(130,166,137)" stroke="rgb(130,166,137)" stroke-width="1.51"></path><path d="M277,-110L723,-103L184,-115Z" fill="rgb(158,209,177)" stroke="rgb(158,209,177)" stroke-width="1.51"></path><path d="M21,-107L-45,-116L-44,-34Z" fill="rgb(247,252,253)" stroke="rgb(247,252,253)" stroke-width="1.51"></path><path d="M184,-115L-45,-116L21,-107Z" fill="rgb(241,250,251)" stroke="rgb(241,250,251)" stroke-width="1.51"></path><path d="M702,47L728,-23L640,41Z" fill="rgb(121,155,131)" stroke="rgb(121,155,131)" stroke-width="1.51"></path><path d="M722,111L728,-23L702,47Z" fill="rgb(117,153,130)" stroke="rgb(117,153,130)" stroke-width="1.51"></path><path d="M724,279L728,-23L722,111Z" fill="rgb(94,144,116)" stroke="rgb(94,144,116)" stroke-width="1.51"></path><path d="M624,488L727,500L721,436Z" fill="rgb(0,68,27)" stroke="rgb(0,68,27)" stroke-width="1.51"></path><path d="M721,436L727,500L724,279Z" fill="rgb(0,68,27)" stroke="rgb(0,68,27)" stroke-width="1.51"></path><path d="M724,279L727,500L728,-23Z" fill="rgb(32,118,69)" stroke="rgb(32,118,69)" stroke-width="1.51"></path><path d="M578,509L727,500L624,488Z" fill="rgb(0,68,27)" stroke="rgb(0,68,27)" stroke-width="1.51"></path><path d="M-45,-116L-129,-84L-105,-30Z" fill="rgb(247,252,253)" stroke="rgb(247,252,253)" stroke-width="1.51"></path><path d="M-105,-30L-129,-84L-108,41Z" fill="rgb(247,252,253)" stroke="rgb(247,252,253)" stroke-width="1.51"></path><path d="M728,-23L723,-103L647,-94Z" fill="rgb(125,156,132)" stroke="rgb(125,156,132)" stroke-width="1.51"></path><path d="M647,-94L723,-103L576,-90Z" fill="rgb(125,156,132)" stroke="rgb(125,156,132)" stroke-width="1.51"></path></svg>