<svg width="600" height="400" xmlns="http://www.w3.org/2000/svg"><path d="M360,179L418,141L323,139Z" fill="rgb(234,226,133)" stroke="rgb(234,226,133)" stroke-width="1.51"></path><path d="M360,179L423,198L418,141Z" fill="rgb(220,229,136)" stroke="rgb(220,229,136)" stroke-width="1.51"></path><path d="M418,141L318,64L323,139Z" fill="rgb(240,204,119)" stroke="rgb(240,204,119)" stroke-width="1.51"></path><path d="M418,141L404,33L318,64Z" fill="rgb(230,174,96)" stroke="rgb(230,174,96)" stroke-width="1.51"></path><path d="M423,198L469,148L418,141Z" fill="rgb(203,218,123)" stroke="rgb(203,218,123)" stroke-width="1.51"></path><path d="M472,73L404,33L418,141Z" fill="rgb(209,168,86)" stroke="rgb(209,168,86)" stroke-width="1.51"></path><path d="M469,148L472,73L418,141Z" fill="rgb(199,191,100)" stroke="rgb(199,191,100)" stroke-width="1.51"></path><path d="M323,139L241,178L360,179Z" fill="rgb(252,240,165)" stroke="rgb(252,240,165)" stroke-width="1.51"></path><path d="M318,64L240,135L323,139Z" fill="rgb(255,208,137)" stroke="rgb(255,208,137)" stroke-width="1.51"></path><path d="M240,135L241,178L323,139Z" fill="rgb(255,225,146)" stroke="rgb(255,225,146)" stroke-width="1.51"></path><path d="M360,179L360,277L423,198Z" fill="rgb(219,240,148)" stroke="rgb(219,240,148)" stroke-width="1.51"></path><path d="M423,198L496,190L469,148Z" fill="rgb(191,218,132)" stroke="rgb(191,218,132)" stroke-width="1.51"></path><path d="M469,148L552,105L472,73Z" fill="rgb(179,171,90)" stroke="rgb(179,171,90)" stroke-width="1.51"></path><path d="M318,64L259,42L240,135Z" fill="rgb(254,178,115)" stroke="rgb(254,178,115)" stroke-width="1.51"></path><path d="M263,-23L259,42L318,64Z" fill="rgb(235,150,102)" stroke="rgb(235,150,102)" stroke-width="1.51"></path><path d="M258,277L360,277L360,179Z" fill="rgb(226,243,152)" stroke="rgb(226,243,152)" stroke-width="1.51"></path><path d="M423,198L428,267L496,190Z" fill="rgb(188,226,135)" stroke="rgb(188,226,135)" stroke-width="1.51"></path><path d="M360,277L428,267L423,198Z" fill="rgb(194,229,124)" stroke="rgb(194,229,124)" stroke-width="1.51"></path><path d="M404,33L355,-44L318,64Z" fill="rgb(212,145,86)" stroke="rgb(212,145,86)" stroke-width="1.51"></path><path d="M493,-23L408,-21L404,33Z" fill="rgb(171,127,69)" stroke="rgb(171,127,69)" stroke-width="1.51"></path><path d="M408,-21L355,-44L404,33Z" fill="rgb(189,134,78)" stroke="rgb(189,134,78)" stroke-width="1.51"></path><path d="M241,178L258,277L360,179Z" fill="rgb(250,250,178)" stroke="rgb(250,250,178)" stroke-width="1.51"></path><path d="M240,135L206,200L241,178Z" fill="rgb(255,223,142)" stroke="rgb(255,223,142)" stroke-width="1.51"></path><path d="M163,125L206,200L240,135Z" fill="rgb(254,205,122)" stroke="rgb(254,205,122)" stroke-width="1.51"></path><path d="M496,190L552,105L469,148Z" fill="rgb(172,193,108)" stroke="rgb(172,193,108)" stroke-width="1.51"></path><path d="M472,73L493,-23L404,33Z" fill="rgb(179,133,68)" stroke="rgb(179,133,68)" stroke-width="1.51"></path><path d="M206,200L258,277L241,178Z" fill="rgb(247,234,151)" stroke="rgb(247,234,151)" stroke-width="1.51"></path><path d="M259,42L188,51L240,135Z" fill="rgb(250,162,96)" stroke="rgb(250,162,96)" stroke-width="1.51"></path><path d="M355,-44L263,-23L318,64Z" fill="rgb(215,143,104)" stroke="rgb(215,143,104)" stroke-width="1.51"></path><path d="M408,-21L425,-111L355,-44Z" fill="rgb(187,133,76)" stroke="rgb(187,133,76)" stroke-width="1.51"></path><path d="M551,-21L493,-23L472,73Z" fill="rgb(148,115,63)" stroke="rgb(148,115,63)" stroke-width="1.51"></path><path d="M263,-23L188,51L259,42Z" fill="rgb(229,136,85)" stroke="rgb(229,136,85)" stroke-width="1.51"></path><path d="M428,267L492,295L496,190Z" fill="rgb(159,213,115)" stroke="rgb(159,213,115)" stroke-width="1.51"></path><path d="M496,190L568,195L552,105Z" fill="rgb(156,191,111)" stroke="rgb(156,191,111)" stroke-width="1.51"></path><path d="M436,328L492,295L428,267Z" fill="rgb(137,204,103)" stroke="rgb(137,204,103)" stroke-width="1.51"></path><path d="M436,328L428,267L360,277Z" fill="rgb(163,216,108)" stroke="rgb(163,216,108)" stroke-width="1.51"></path><path d="M350,355L436,328L360,277Z" fill="rgb(152,210,113)" stroke="rgb(152,210,113)" stroke-width="1.51"></path><path d="M492,295L568,195L496,190Z" fill="rgb(150,205,121)" stroke="rgb(150,205,121)" stroke-width="1.51"></path><path d="M188,51L163,125L240,135Z" fill="rgb(252,169,96)" stroke="rgb(252,169,96)" stroke-width="1.51"></path><path d="M552,105L583,73L472,73Z" fill="rgb(164,143,75)" stroke="rgb(164,143,75)" stroke-width="1.51"></path><path d="M621,127L583,73L552,105Z" fill="rgb(150,135,72)" stroke="rgb(150,135,72)" stroke-width="1.51"></path><path d="M280,346L350,355L360,277Z" fill="rgb(167,215,130)" stroke="rgb(167,215,130)" stroke-width="1.51"></path><path d="M258,277L280,346L360,277Z" fill="rgb(196,229,146)" stroke="rgb(196,229,146)" stroke-width="1.51"></path><path d="M197,347L280,346L258,277Z" fill="rgb(180,208,120)" stroke="rgb(180,208,120)" stroke-width="1.51"></path><path d="M176,274L258,277L206,200Z" fill="rgb(231,218,125)" stroke="rgb(231,218,125)" stroke-width="1.51"></path><path d="M583,73L551,-21L472,73Z" fill="rgb(155,119,59)" stroke="rgb(155,119,59)" stroke-width="1.51"></path><path d="M493,-23L425,-111L408,-21Z" fill="rgb(168,125,68)" stroke="rgb(168,125,68)" stroke-width="1.51"></path><path d="M103,207L176,274L206,200Z" fill="rgb(244,201,121)" stroke="rgb(244,201,121)" stroke-width="1.51"></path><path d="M505,-108L425,-111L493,-23Z" fill="rgb(155,119,67)" stroke="rgb(155,119,67)" stroke-width="1.51"></path><path d="M355,-44L283,-113L263,-23Z" fill="rgb(218,144,109)" stroke="rgb(218,144,109)" stroke-width="1.51"></path><path d="M568,195L621,127L552,105Z" fill="rgb(148,162,91)" stroke="rgb(148,162,91)" stroke-width="1.51"></path><path d="M583,73L613,-40L551,-21Z" fill="rgb(119,87,49)" stroke="rgb(119,87,49)" stroke-width="1.51"></path><path d="M629,190L621,127L568,195Z" fill="rgb(141,167,102)" stroke="rgb(141,167,102)" stroke-width="1.51"></path><path d="M263,-23L171,-21L188,51Z" fill="rgb(214,115,75)" stroke="rgb(214,115,75)" stroke-width="1.51"></path><path d="M188,51L119,104L163,125Z" fill="rgb(249,141,81)" stroke="rgb(249,141,81)" stroke-width="1.51"></path><path d="M169,-92L171,-21L263,-23Z" fill="rgb(212,112,73)" stroke="rgb(212,112,73)" stroke-width="1.51"></path><path d="M163,125L103,207L206,200Z" fill="rgb(255,194,122)" stroke="rgb(255,194,122)" stroke-width="1.51"></path><path d="M98,44L119,104L188,51Z" fill="rgb(241,109,65)" stroke="rgb(241,109,65)" stroke-width="1.51"></path><path d="M425,-111L340,-121L355,-44Z" fill="rgb(195,136,82)" stroke="rgb(195,136,82)" stroke-width="1.51"></path><path d="M492,295L581,286L568,195Z" fill="rgb(120,187,100)" stroke="rgb(120,187,100)" stroke-width="1.51"></path><path d="M436,328L509,347L492,295Z" fill="rgb(100,187,98)" stroke="rgb(100,187,98)" stroke-width="1.51"></path><path d="M419,417L509,347L436,328Z" fill="rgb(85,174,89)" stroke="rgb(85,174,89)" stroke-width="1.51"></path><path d="M340,-121L283,-113L355,-44Z" fill="rgb(211,141,99)" stroke="rgb(211,141,99)" stroke-width="1.51"></path><path d="M509,347L581,286L492,295Z" fill="rgb(87,178,92)" stroke="rgb(87,178,92)" stroke-width="1.51"></path><path d="M581,286L629,190L568,195Z" fill="rgb(130,176,107)" stroke="rgb(130,176,107)" stroke-width="1.51"></path><path d="M425,-111L505,-108L340,-121Z" fill="rgb(176,129,70)" stroke="rgb(176,129,70)" stroke-width="1.51"></path><path d="M551,-21L505,-108L493,-23Z" fill="rgb(137,108,61)" stroke="rgb(137,108,61)" stroke-width="1.51"></path><path d="M176,274L197,347L258,277Z" fill="rgb(199,203,110)" stroke="rgb(199,203,110)" stroke-width="1.51"></path><path d="M352,441L419,417L350,355Z" fill="rgb(114,167,92)" stroke="rgb(114,167,92)" stroke-width="1.51"></path><path d="M105,342L197,347L176,274Z" fill="rgb(186,174,92)" stroke="rgb(186,174,92)" stroke-width="1.51"></path><path d="M119,104L103,207L163,125Z" fill="rgb(252,164,96)" stroke="rgb(252,164,96)" stroke-width="1.51"></path><path d="M621,127L650,72L583,73Z" fill="rgb(146,122,64)" stroke="rgb(146,122,64)" stroke-width="1.51"></path><path d="M551,-21L586,-99L505,-108Z" fill="rgb(126,99,56)" stroke="rgb(126,99,56)" stroke-width="1.51"></path><path d="M690,134L650,72L621,127Z" fill="rgb(145,135,72)" stroke="rgb(145,135,72)" stroke-width="1.51"></path><path d="M119,104L54,117L103,207Z" fill="rgb(245,146,86)" stroke="rgb(245,146,86)" stroke-width="1.51"></path><path d="M171,-21L98,44L188,51Z" fill="rgb(224,96,60)" stroke="rgb(224,96,60)" stroke-width="1.51"></path><path d="M352,441L350,355L280,346Z" fill="rgb(137,187,115)" stroke="rgb(137,187,115)" stroke-width="1.51"></path><path d="M350,355L419,417L436,328Z" fill="rgb(113,184,96)" stroke="rgb(113,184,96)" stroke-width="1.51"></path><path d="M650,72L613,-40L583,73Z" fill="rgb(132,91,46)" stroke="rgb(132,91,46)" stroke-width="1.51"></path><path d="M575,415L567,359L509,347Z" fill="rgb(20,139,73)" stroke="rgb(20,139,73)" stroke-width="1.51"></path><path d="M509,347L567,359L581,286Z" fill="rgb(58,160,84)" stroke="rgb(58,160,84)" stroke-width="1.51"></path><path d="M581,286L655,268L629,190Z" fill="rgb(115,168,92)" stroke="rgb(115,168,92)" stroke-width="1.51"></path><path d="M171,-21L101,-13L98,44Z" fill="rgb(207,69,53)" stroke="rgb(207,69,53)" stroke-width="1.51"></path><path d="M283,-113L169,-92L263,-23Z" fill="rgb(214,128,85)" stroke="rgb(214,128,85)" stroke-width="1.51"></path><path d="M169,-92L101,-13L171,-21Z" fill="rgb(207,83,58)" stroke="rgb(207,83,58)" stroke-width="1.51"></path><path d="M261,436L352,441L280,346Z" fill="rgb(139,177,119)" stroke="rgb(139,177,119)" stroke-width="1.51"></path><path d="M103,207L89,267L176,274Z" fill="rgb(232,177,98)" stroke="rgb(232,177,98)" stroke-width="1.51"></path><path d="M56,196L89,267L103,207Z" fill="rgb(238,166,102)" stroke="rgb(238,166,102)" stroke-width="1.51"></path><path d="M617,364L655,268L581,286Z" fill="rgb(73,150,77)" stroke="rgb(73,150,77)" stroke-width="1.51"></path><path d="M629,190L690,134L621,127Z" fill="rgb(142,158,91)" stroke="rgb(142,158,91)" stroke-width="1.51"></path><path d="M613,-40L586,-99L551,-21Z" fill="rgb(116,85,49)" stroke="rgb(116,85,49)" stroke-width="1.51"></path><path d="M98,44L54,117L119,104Z" fill="rgb(238,103,63)" stroke="rgb(238,103,63)" stroke-width="1.51"></path><path d="M53,28L54,117L98,44Z" fill="rgb(226,73,49)" stroke="rgb(226,73,49)" stroke-width="1.51"></path><path d="M650,72L689,-33L613,-40Z" fill="rgb(112,78,45)" stroke="rgb(112,78,45)" stroke-width="1.51"></path><path d="M693,179L690,134L629,190Z" fill="rgb(141,166,100)" stroke="rgb(141,166,100)" stroke-width="1.51"></path><path d="M54,117L56,196L103,207Z" fill="rgb(244,154,97)" stroke="rgb(244,154,97)" stroke-width="1.51"></path><path d="M170,412L261,436L197,347Z" fill="rgb(144,153,85)" stroke="rgb(144,153,85)" stroke-width="1.51"></path><path d="M197,347L261,436L280,346Z" fill="rgb(149,180,106)" stroke="rgb(149,180,106)" stroke-width="1.51"></path><path d="M655,268L693,179L629,190Z" fill="rgb(133,175,112)" stroke="rgb(133,175,112)" stroke-width="1.51"></path><path d="M419,417L465,448L509,347Z" fill="rgb(69,149,77)" stroke="rgb(69,149,77)" stroke-width="1.51"></path><path d="M390,517L465,448L419,417Z" fill="rgb(92,158,79)" stroke="rgb(92,158,79)" stroke-width="1.51"></path><path d="M390,517L419,417L352,441Z" fill="rgb(109,165,88)" stroke="rgb(109,165,88)" stroke-width="1.51"></path><path d="M57,-8L53,28L101,-13Z" fill="rgb(194,38,41)" stroke="rgb(194,38,41)" stroke-width="1.51"></path><path d="M101,-13L53,28L98,44Z" fill="rgb(208,54,44)" stroke="rgb(208,54,44)" stroke-width="1.51"></path><path d="M655,268L698,261L693,179Z" fill="rgb(122,171,98)" stroke="rgb(122,171,98)" stroke-width="1.51"></path><path d="M567,359L617,364L581,286Z" fill="rgb(46,143,75)" stroke="rgb(46,143,75)" stroke-width="1.51"></path><path d="M575,415L617,364L567,359Z" fill="rgb(9,121,64)" stroke="rgb(9,121,64)" stroke-width="1.51"></path><path d="M89,267L105,342L176,274Z" fill="rgb(205,166,86)" stroke="rgb(205,166,86)" stroke-width="1.51"></path><path d="M26,293L105,342L89,267Z" fill="rgb(192,145,72)" stroke="rgb(192,145,72)" stroke-width="1.51"></path><path d="M169,-92L129,-110L101,-13Z" fill="rgb(206,74,55)" stroke="rgb(206,74,55)" stroke-width="1.51"></path><path d="M283,-113L129,-110L169,-92Z" fill="rgb(211,109,70)" stroke="rgb(211,109,70)" stroke-width="1.51"></path><path d="M340,-121L129,-110L283,-113Z" fill="rgb(215,131,89)" stroke="rgb(215,131,89)" stroke-width="1.51"></path><path d="M45,-84L57,-8L101,-13Z" fill="rgb(192,34,40)" stroke="rgb(192,34,40)" stroke-width="1.51"></path><path d="M613,-40L658,-105L586,-99Z" fill="rgb(112,78,45)" stroke="rgb(112,78,45)" stroke-width="1.51"></path><path d="M690,134L704,46L650,72Z" fill="rgb(145,117,62)" stroke="rgb(145,117,62)" stroke-width="1.51"></path><path d="M693,179L704,46L690,134Z" fill="rgb(145,141,75)" stroke="rgb(145,141,75)" stroke-width="1.51"></path><path d="M105,342L170,412L197,347Z" fill="rgb(159,151,80)" stroke="rgb(159,151,80)" stroke-width="1.51"></path><path d="M465,448L575,415L509,347Z" fill="rgb(36,134,71)" stroke="rgb(36,134,71)" stroke-width="1.51"></path><path d="M718,373L698,261L655,268Z" fill="rgb(77,152,78)" stroke="rgb(77,152,78)" stroke-width="1.51"></path><path d="M693,179L698,261L704,46Z" fill="rgb(141,164,97)" stroke="rgb(141,164,97)" stroke-width="1.51"></path><path d="M704,46L689,-33L650,72Z" fill="rgb(128,89,46)" stroke="rgb(128,89,46)" stroke-width="1.51"></path><path d="M261,436L345,501L352,441Z" fill="rgb(133,175,112)" stroke="rgb(133,175,112)" stroke-width="1.51"></path><path d="M561,518L621,443L575,415Z" fill="rgb(2,109,58)" stroke="rgb(2,109,58)" stroke-width="1.51"></path><path d="M244,483L345,501L261,436Z" fill="rgb(139,174,113)" stroke="rgb(139,174,113)" stroke-width="1.51"></path><path d="M689,-33L658,-105L613,-40Z" fill="rgb(112,78,45)" stroke="rgb(112,78,45)" stroke-width="1.51"></path><path d="M586,-99L658,-105L505,-108Z" fill="rgb(116,85,49)" stroke="rgb(116,85,49)" stroke-width="1.51"></path><path d="M505,-108L727,-122L340,-121Z" fill="rgb(135,106,60)" stroke="rgb(135,106,60)" stroke-width="1.51"></path><path d="M170,412L244,483L261,436Z" fill="rgb(142,158,90)" stroke="rgb(142,158,90)" stroke-width="1.51"></path><path d="M56,196L26,293L89,267Z" fill="rgb(217,150,81)" stroke="rgb(217,150,81)" stroke-width="1.51"></path><path d="M105,342L101,411L170,412Z" fill="rgb(150,124,65)" stroke="rgb(150,124,65)" stroke-width="1.51"></path><path d="M170,412L195,501L244,483Z" fill="rgb(144,150,83)" stroke="rgb(144,150,83)" stroke-width="1.51"></path><path d="M-18,194L26,293L56,196Z" fill="rgb(215,146,93)" stroke="rgb(215,146,93)" stroke-width="1.51"></path><path d="M-18,194L56,196L54,117Z" fill="rgb(228,140,92)" stroke="rgb(228,140,92)" stroke-width="1.51"></path><path d="M195,501L390,517L345,501Z" fill="rgb(136,176,115)" stroke="rgb(136,176,115)" stroke-width="1.51"></path><path d="M345,501L390,517L352,441Z" fill="rgb(119,169,95)" stroke="rgb(119,169,95)" stroke-width="1.51"></path><path d="M40,368L101,411L105,342Z" fill="rgb(150,117,59)" stroke="rgb(150,117,59)" stroke-width="1.51"></path><path d="M129,-110L45,-84L101,-13Z" fill="rgb(198,50,46)" stroke="rgb(198,50,46)" stroke-width="1.51"></path><path d="M-46,39L54,117L53,28Z" fill="rgb(206,56,46)" stroke="rgb(206,56,46)" stroke-width="1.51"></path><path d="M-43,126L-18,194L54,117Z" fill="rgb(213,119,78)" stroke="rgb(213,119,78)" stroke-width="1.51"></path><path d="M-43,126L54,117L-46,39Z" fill="rgb(207,79,57)" stroke="rgb(207,79,57)" stroke-width="1.51"></path><path d="M561,518L575,415L465,448Z" fill="rgb(21,130,68)" stroke="rgb(21,130,68)" stroke-width="1.51"></path><path d="M575,415L621,443L617,364Z" fill="rgb(0,104,55)" stroke="rgb(0,104,55)" stroke-width="1.51"></path><path d="M617,364L718,373L655,268Z" fill="rgb(45,139,73)" stroke="rgb(45,139,73)" stroke-width="1.51"></path><path d="M390,517L495,517L465,448Z" fill="rgb(77,152,78)" stroke="rgb(77,152,78)" stroke-width="1.51"></path><path d="M-29,331L40,368L26,293Z" fill="rgb(151,117,64)" stroke="rgb(151,117,64)" stroke-width="1.51"></path><path d="M26,293L40,368L105,342Z" fill="rgb(167,127,64)" stroke="rgb(167,127,64)" stroke-width="1.51"></path><path d="M113,519L170,412L101,411Z" fill="rgb(146,118,62)" stroke="rgb(146,118,62)" stroke-width="1.51"></path><path d="M113,519L195,501L170,412Z" fill="rgb(146,132,70)" stroke="rgb(146,132,70)" stroke-width="1.51"></path><path d="M244,483L195,501L345,501Z" fill="rgb(140,169,104)" stroke="rgb(140,169,104)" stroke-width="1.51"></path><path d="M-46,39L53,28L57,-8Z" fill="rgb(186,25,39)" stroke="rgb(186,25,39)" stroke-width="1.51"></path><path d="M-18,194L-42,286L26,293Z" fill="rgb(190,134,78)" stroke="rgb(190,134,78)" stroke-width="1.51"></path><path d="M691,429L718,373L617,364Z" fill="rgb(3,110,58)" stroke="rgb(3,110,58)" stroke-width="1.51"></path><path d="M698,261L718,373L704,46Z" fill="rgb(127,172,103)" stroke="rgb(127,172,103)" stroke-width="1.51"></path><path d="M-46,-39L-46,39L57,-8Z" fill="rgb(165,0,38)" stroke="rgb(165,0,38)" stroke-width="1.51"></path><path d="M621,443L691,429L617,364Z" fill="rgb(0,104,55)" stroke="rgb(0,104,55)" stroke-width="1.51"></path><path d="M495,517L561,518L465,448Z" fill="rgb(42,137,72)" stroke="rgb(42,137,72)" stroke-width="1.51"></path><path d="M390,517L561,518L495,517Z" fill="rgb(58,145,76)" stroke="rgb(58,145,76)" stroke-width="1.51"></path><path d="M657,504L691,429L621,443Z" fill="rgb(0,104,55)" stroke="rgb(0,104,55)" stroke-width="1.51"></path><path d="M689,-33L727,-122L658,-105Z" fill="rgb(112,78,45)" stroke="rgb(112,78,45)" stroke-width="1.51"></path><path d="M658,-105L727,-122L505,-108Z" fill="rgb(112,78,45)" stroke="rgb(112,78,45)" stroke-width="1.51"></path><path d="M704,46L727,-122L689,-33Z" fill="rgb(112,78,45)" stroke="rgb(112,78,45)" stroke-width="1.51"></path><path d="M718,373L727,-122L704,46Z" fill="rgb(145,127,67)" stroke="rgb(145,127,67)" stroke-width="1.51"></path><path d="M-92,186L-18,194L-43,126Z" fill="rgb(215,132,90)" stroke="rgb(215,132,90)" stroke-width="1.51"></path><path d="M-92,186L-42,286L-18,194Z" fill="rgb(208,140,96)" stroke="rgb(208,140,96)" stroke-width="1.51"></path><path d="M-42,286L-29,331L26,293Z" fill="rgb(163,123,68)" stroke="rgb(163,123,68)" stroke-width="1.51"></path><path d="M40,368L20,416L101,411Z" fill="rgb(134,92,47)" stroke="rgb(134,92,47)" stroke-width="1.51"></path><path d="M45,-84L-46,-39L57,-8Z" fill="rgb(172,11,39)" stroke="rgb(172,11,39)" stroke-width="1.51"></path><path d="M-29,331L20,416L40,368Z" fill="rgb(128,98,54)" stroke="rgb(128,98,54)" stroke-width="1.51"></path><path d="M45,-84L-17,-108L-46,-39Z" fill="rgb(165,0,38)" stroke="rgb(165,0,38)" stroke-width="1.51"></path><path d="M129,-110L-17,-108L45,-84Z" fill="rgb(186,25,39)" stroke="rgb(186,25,39)" stroke-width="1.51"></path><path d="M-117,-119L-17,-108L129,-110Z" fill="rgb(165,0,38)" stroke="rgb(165,0,38)" stroke-width="1.51"></path><path d="M49,519L113,519L101,411Z" fill="rgb(140,103,53)" stroke="rgb(140,103,53)" stroke-width="1.51"></path><path d="M195,501L113,519L390,517Z" fill="rgb(141,161,93)" stroke="rgb(141,161,93)" stroke-width="1.51"></path><path d="M390,517L113,519L561,518Z" fill="rgb(122,170,98)" stroke="rgb(122,170,98)" stroke-width="1.51"></path><path d="M-100,59L-43,126L-46,39Z" fill="rgb(202,62,50)" stroke="rgb(202,62,50)" stroke-width="1.51"></path><path d="M-116,119L-92,186L-43,126Z" fill="rgb(213,118,77)" stroke="rgb(213,118,77)" stroke-width="1.51"></path><path d="M-111,426L-23,447L-29,331Z" fill="rgb(112,78,45)" stroke="rgb(112,78,45)" stroke-width="1.51"></path><path d="M561,518L657,504L621,443Z" fill="rgb(0,104,55)" stroke="rgb(0,104,55)" stroke-width="1.51"></path><path d="M691,429L700,510L718,373Z" fill="rgb(0,104,55)" stroke="rgb(0,104,55)" stroke-width="1.51"></path><path d="M-101,-42L-100,59L-46,39Z" fill="rgb(176,15,39)" stroke="rgb(176,15,39)" stroke-width="1.51"></path><path d="M-101,-42L-46,39L-46,-39Z" fill="rgb(165,0,38)" stroke="rgb(165,0,38)" stroke-width="1.51"></path><path d="M-100,59L-116,119L-43,126Z" fill="rgb(208,86,60)" stroke="rgb(208,86,60)" stroke-width="1.51"></path><path d="M561,518L700,510L657,504Z" fill="rgb(0,104,55)" stroke="rgb(0,104,55)" stroke-width="1.51"></path><path d="M657,504L700,510L691,429Z" fill="rgb(0,104,55)" stroke="rgb(0,104,55)" stroke-width="1.51"></path><path d="M-100,59L-101,-42L-116,119Z" fill="rgb(192,35,41)" stroke="rgb(192,35,41)" stroke-width="1.51"></path><path d="M-117,-119L-101,-42L-46,-39Z" fill="rgb(165,0,38)" stroke="rgb(165,0,38)" stroke-width="1.51"></path><path d="M20,416L49,519L101,411Z" fill="rgb(134,92,46)" stroke="rgb(134,92,46)" stroke-width="1.51"></path><path d="M-23,447L49,519L20,416Z" fill="rgb(118,82,46)" stroke="rgb(118,82,46)" stroke-width="1.51"></path><path d="M-23,447L20,416L-29,331Z" fill="rgb(113,79,46)" stroke="rgb(113,79,46)" stroke-width="1.51"></path><path d="M-121,281L-42,286L-92,186Z" fill="rgb(194,136,81)" stroke="rgb(194,136,81)" stroke-width="1.51"></path><path d="M-113,343L-29,331L-42,286Z" fill="rgb(152,118,66)" stroke="rgb(152,118,66)" stroke-width="1.51"></path><path d="M-116,119L-121,281L-92,186Z" fill="rgb(218,142,106)" stroke="rgb(218,142,106)" stroke-width="1.51"></path><path d="M-121,281L-113,343L-42,286Z" fill="rgb(163,123,68)" stroke="rgb(163,123,68)" stroke-width="1.51"></path><path d="M-23,447L-31,490L49,519Z" fill="rgb(112,78,45)" stroke="rgb(112,78,45)" stroke-width="1.51"></path><path d="M-111,426L-31,490L-23,447Z" fill="rgb(112,78,45)" stroke="rgb(112,78,45)" stroke-width="1.51"></path><path d="M-116,119L-117,-119L-121,281Z" fill="rgb(207,79,57)" stroke="rgb(207,79,57)" stroke-width="1.51"></path><path d="M-101,-42L-117,-119L-116,119Z" fill="rgb(165,0,38)" stroke="rgb(165,0,38)" stroke-width="1.51"></path><path d="M-17,-108L-117,-119L-46,-39Z" fill="rgb(165,0,38)" stroke="rgb(165,0,38)" stroke-width="1.51"></path><path d="M340,-121L-117,-119L129,-110Z" fill="rgb(204,64,52)" stroke="rgb(204,64,52)" stroke-width="1.51"></path><path d="M-121,281L-111,426L-113,343Z" fill="rgb(134,106,60)" stroke="rgb(134,106,60)" stroke-width="1.51"></path><path d="M-113,343L-111,426L-29,331Z" fill="rgb(126,98,55)" stroke="rgb(126,98,55)" stroke-width="1.51"></path><path d="M-111,426L-111,514L-31,490Z" fill="rgb(112,78,45)" stroke="rgb(112,78,45)" stroke-width="1.51"></path><path d="M-31,490L-111,514L49,519Z" fill="rgb(112,78,45)" stroke="rgb(112,78,45)" stroke-width="1.51"></path><path d="M-121,281L-111,514L-111,426Z" fill="rgb(112,78,45)" stroke="rgb(112,78,45)" stroke-width="1.51"></path></svg>