<svg width="600" height="400" xmlns="http://www.w3.org/2000/svg"><path d="M314,179L235,121L253,175Z" fill="rgb(149,182,214)" stroke="rgb(149,182,214)" stroke-width="1.51"></path><path d="M314,179L334,100L235,121Z" fill="rgb(151,183,216)" stroke="rgb(151,183,216)" stroke-width="1.51"></path><path d="M334,100L260,71L235,121Z" fill="rgb(172,192,221)" stroke="rgb(172,192,221)" stroke-width="1.51"></path><path d="M235,121L198,138L253,175Z" fill="rgb(168,189,219)" stroke="rgb(168,189,219)" stroke-width="1.51"></path><path d="M172,65L198,138L235,121Z" fill="rgb(190,200,225)" stroke="rgb(190,200,225)" stroke-width="1.51"></path><path d="M334,100L359,73L260,71Z" fill="rgb(164,190,219)" stroke="rgb(164,190,219)" stroke-width="1.51"></path><path d="M414,102L359,73L334,100Z" fill="rgb(146,179,213)" stroke="rgb(146,179,213)" stroke-width="1.51"></path><path d="M275,275L317,263L314,179Z" fill="rgb(94,158,201)" stroke="rgb(94,158,201)" stroke-width="1.51"></path><path d="M198,138L205,206L253,175Z" fill="rgb(157,185,216)" stroke="rgb(157,185,216)" stroke-width="1.51"></path><path d="M359,73L341,-26L260,71Z" fill="rgb(174,197,224)" stroke="rgb(174,197,224)" stroke-width="1.51"></path><path d="M414,102L390,53L359,73Z" fill="rgb(146,178,213)" stroke="rgb(146,178,213)" stroke-width="1.51"></path><path d="M402,198L414,102L334,100Z" fill="rgb(124,168,207)" stroke="rgb(124,168,207)" stroke-width="1.51"></path><path d="M314,179L402,198L334,100Z" fill="rgb(121,168,207)" stroke="rgb(121,168,207)" stroke-width="1.51"></path><path d="M317,263L402,198L314,179Z" fill="rgb(93,158,200)" stroke="rgb(93,158,200)" stroke-width="1.51"></path><path d="M275,275L314,179L253,175Z" fill="rgb(118,169,207)" stroke="rgb(118,169,207)" stroke-width="1.51"></path><path d="M260,71L172,65L235,121Z" fill="rgb(192,202,226)" stroke="rgb(192,202,226)" stroke-width="1.51"></path><path d="M198,138L139,192L205,206Z" fill="rgb(165,189,219)" stroke="rgb(165,189,219)" stroke-width="1.51"></path><path d="M240,-33L172,65L260,71Z" fill="rgb(205,212,232)" stroke="rgb(205,212,232)" stroke-width="1.51"></path><path d="M205,206L275,275L253,175Z" fill="rgb(127,172,208)" stroke="rgb(127,172,208)" stroke-width="1.51"></path><path d="M89,113L139,192L198,138Z" fill="rgb(190,200,226)" stroke="rgb(190,200,226)" stroke-width="1.51"></path><path d="M205,206L199,287L275,275Z" fill="rgb(115,164,205)" stroke="rgb(115,164,205)" stroke-width="1.51"></path><path d="M390,53L341,-26L359,73Z" fill="rgb(162,191,220)" stroke="rgb(162,191,220)" stroke-width="1.51"></path><path d="M341,-26L240,-33L260,71Z" fill="rgb(193,209,230)" stroke="rgb(193,209,230)" stroke-width="1.51"></path><path d="M110,260L199,287L205,206Z" fill="rgb(134,173,210)" stroke="rgb(134,173,210)" stroke-width="1.51"></path><path d="M402,198L465,179L414,102Z" fill="rgb(105,153,199)" stroke="rgb(105,153,199)" stroke-width="1.51"></path><path d="M494,25L433,-6L390,53Z" fill="rgb(151,176,213)" stroke="rgb(151,176,213)" stroke-width="1.51"></path><path d="M438,276L465,179L402,198Z" fill="rgb(67,139,191)" stroke="rgb(67,139,191)" stroke-width="1.51"></path><path d="M172,65L89,113L198,138Z" fill="rgb(205,207,229)" stroke="rgb(205,207,229)" stroke-width="1.51"></path><path d="M240,-33L171,-19L172,65Z" fill="rgb(218,221,237)" stroke="rgb(218,221,237)" stroke-width="1.51"></path><path d="M171,-19L120,33L172,65Z" fill="rgb(225,223,237)" stroke="rgb(225,223,237)" stroke-width="1.51"></path><path d="M120,33L89,113L172,65Z" fill="rgb(221,219,236)" stroke="rgb(221,219,236)" stroke-width="1.51"></path><path d="M139,192L110,260L205,206Z" fill="rgb(155,184,216)" stroke="rgb(155,184,216)" stroke-width="1.51"></path><path d="M465,179L486,139L414,102Z" fill="rgb(111,151,198)" stroke="rgb(111,151,198)" stroke-width="1.51"></path><path d="M390,53L433,-6L341,-26Z" fill="rgb(162,190,220)" stroke="rgb(162,190,220)" stroke-width="1.51"></path><path d="M494,25L390,53L414,102Z" fill="rgb(144,171,210)" stroke="rgb(144,171,210)" stroke-width="1.51"></path><path d="M317,263L438,276L402,198Z" fill="rgb(55,142,192)" stroke="rgb(55,142,192)" stroke-width="1.51"></path><path d="M275,275L348,332L317,263Z" fill="rgb(73,141,192)" stroke="rgb(73,141,192)" stroke-width="1.51"></path><path d="M259,341L348,332L275,275Z" fill="rgb(77,137,186)" stroke="rgb(77,137,186)" stroke-width="1.51"></path><path d="M465,179L548,144L486,139Z" fill="rgb(100,141,185)" stroke="rgb(100,141,185)" stroke-width="1.51"></path><path d="M348,332L438,276L317,263Z" fill="rgb(45,132,186)" stroke="rgb(45,132,186)" stroke-width="1.51"></path><path d="M199,287L259,341L275,275Z" fill="rgb(99,147,196)" stroke="rgb(99,147,196)" stroke-width="1.51"></path><path d="M55,55L53,151L89,113Z" fill="rgb(221,219,236)" stroke="rgb(221,219,236)" stroke-width="1.51"></path><path d="M171,-19L136,-16L120,33Z" fill="rgb(233,229,241)" stroke="rgb(233,229,241)" stroke-width="1.51"></path><path d="M160,-92L136,-16L171,-19Z" fill="rgb(230,227,240)" stroke="rgb(230,227,240)" stroke-width="1.51"></path><path d="M199,287L186,349L259,341Z" fill="rgb(106,145,189)" stroke="rgb(106,145,189)" stroke-width="1.51"></path><path d="M53,151L110,260L139,192Z" fill="rgb(173,195,223)" stroke="rgb(173,195,223)" stroke-width="1.51"></path><path d="M89,113L53,151L139,192Z" fill="rgb(197,206,229)" stroke="rgb(197,206,229)" stroke-width="1.51"></path><path d="M55,55L89,113L120,33Z" fill="rgb(228,225,239)" stroke="rgb(228,225,239)" stroke-width="1.51"></path><path d="M486,139L494,25L414,102Z" fill="rgb(132,159,201)" stroke="rgb(132,159,201)" stroke-width="1.51"></path><path d="M129,361L186,349L199,287Z" fill="rgb(119,149,190)" stroke="rgb(119,149,190)" stroke-width="1.51"></path><path d="M440,402L423,358L354,440Z" fill="rgb(20,92,135)" stroke="rgb(20,92,135)" stroke-width="1.51"></path><path d="M240,-33L160,-92L171,-19Z" fill="rgb(221,222,237)" stroke="rgb(221,222,237)" stroke-width="1.51"></path><path d="M341,-26L236,-102L240,-33Z" fill="rgb(196,211,231)" stroke="rgb(196,211,231)" stroke-width="1.51"></path><path d="M350,-119L236,-102L341,-26Z" fill="rgb(185,206,228)" stroke="rgb(185,206,228)" stroke-width="1.51"></path><path d="M30,-14L55,55L120,33Z" fill="rgb(242,235,245)" stroke="rgb(242,235,245)" stroke-width="1.51"></path><path d="M438,276L504,251L465,179Z" fill="rgb(50,128,181)" stroke="rgb(50,128,181)" stroke-width="1.51"></path><path d="M486,139L553,69L494,25Z" fill="rgb(131,154,190)" stroke="rgb(131,154,190)" stroke-width="1.51"></path><path d="M496,328L504,251L438,276Z" fill="rgb(18,112,171)" stroke="rgb(18,112,171)" stroke-width="1.51"></path><path d="M401,-103L350,-119L341,-26Z" fill="rgb(169,196,222)" stroke="rgb(169,196,222)" stroke-width="1.51"></path><path d="M494,25L498,-10L433,-6Z" fill="rgb(151,172,207)" stroke="rgb(151,172,207)" stroke-width="1.51"></path><path d="M553,69L498,-10L494,25Z" fill="rgb(142,162,195)" stroke="rgb(142,162,195)" stroke-width="1.51"></path><path d="M136,-16L30,-14L120,33Z" fill="rgb(241,236,245)" stroke="rgb(241,236,245)" stroke-width="1.51"></path><path d="M236,-102L160,-92L240,-33Z" fill="rgb(214,219,236)" stroke="rgb(214,219,236)" stroke-width="1.51"></path><path d="M401,-103L341,-26L433,-6Z" fill="rgb(163,190,220)" stroke="rgb(163,190,220)" stroke-width="1.51"></path><path d="M236,-102L133,-108L160,-92Z" fill="rgb(224,224,238)" stroke="rgb(224,224,238)" stroke-width="1.51"></path><path d="M564,202L548,144L465,179Z" fill="rgb(86,133,176)" stroke="rgb(86,133,176)" stroke-width="1.51"></path><path d="M348,332L423,358L438,276Z" fill="rgb(27,117,173)" stroke="rgb(27,117,173)" stroke-width="1.51"></path><path d="M354,440L348,332L259,341Z" fill="rgb(60,117,160)" stroke="rgb(60,117,160)" stroke-width="1.51"></path><path d="M514,-108L401,-103L433,-6Z" fill="rgb(154,177,214)" stroke="rgb(154,177,214)" stroke-width="1.51"></path><path d="M548,144L553,69L486,139Z" fill="rgb(115,143,181)" stroke="rgb(115,143,181)" stroke-width="1.51"></path><path d="M53,151L14,172L110,260Z" fill="rgb(183,202,226)" stroke="rgb(183,202,226)" stroke-width="1.51"></path><path d="M110,260L129,361L199,287Z" fill="rgb(130,159,203)" stroke="rgb(130,159,203)" stroke-width="1.51"></path><path d="M-41,110L14,172L53,151Z" fill="rgb(212,218,235)" stroke="rgb(212,218,235)" stroke-width="1.51"></path><path d="M186,349L203,423L259,341Z" fill="rgb(98,131,168)" stroke="rgb(98,131,168)" stroke-width="1.51"></path><path d="M44,282L129,361L110,260Z" fill="rgb(141,166,207)" stroke="rgb(141,166,207)" stroke-width="1.51"></path><path d="M14,172L44,282L110,260Z" fill="rgb(164,192,220)" stroke="rgb(164,192,220)" stroke-width="1.51"></path><path d="M504,251L564,202L465,179Z" fill="rgb(65,128,175)" stroke="rgb(65,128,175)" stroke-width="1.51"></path><path d="M423,358L496,328L438,276Z" fill="rgb(5,107,168)" stroke="rgb(5,107,168)" stroke-width="1.51"></path><path d="M548,302L564,202L504,251Z" fill="rgb(32,113,161)" stroke="rgb(32,113,161)" stroke-width="1.51"></path><path d="M621,99L612,64L553,69Z" fill="rgb(118,134,160)" stroke="rgb(118,134,160)" stroke-width="1.51"></path><path d="M160,-92L133,-108L136,-16Z" fill="rgb(233,229,241)" stroke="rgb(233,229,241)" stroke-width="1.51"></path><path d="M350,-119L133,-108L236,-102Z" fill="rgb(207,216,234)" stroke="rgb(207,216,234)" stroke-width="1.51"></path><path d="M51,-111L30,-14L136,-16Z" fill="rgb(246,239,246)" stroke="rgb(246,239,246)" stroke-width="1.51"></path><path d="M55,55L-41,110L53,151Z" fill="rgb(226,224,238)" stroke="rgb(226,224,238)" stroke-width="1.51"></path><path d="M129,361L203,423L186,349Z" fill="rgb(110,134,167)" stroke="rgb(110,134,167)" stroke-width="1.51"></path><path d="M553,69L534,-46L498,-10Z" fill="rgb(145,163,194)" stroke="rgb(145,163,194)" stroke-width="1.51"></path><path d="M498,-10L514,-108L433,-6Z" fill="rgb(151,172,206)" stroke="rgb(151,172,206)" stroke-width="1.51"></path><path d="M203,423L258,439L259,341Z" fill="rgb(85,117,150)" stroke="rgb(85,117,150)" stroke-width="1.51"></path><path d="M423,358L440,402L496,328Z" fill="rgb(4,96,151)" stroke="rgb(4,96,151)" stroke-width="1.51"></path><path d="M354,440L423,358L348,332Z" fill="rgb(31,107,151)" stroke="rgb(31,107,151)" stroke-width="1.51"></path><path d="M496,328L548,302L504,251Z" fill="rgb(10,104,161)" stroke="rgb(10,104,161)" stroke-width="1.51"></path><path d="M556,365L548,302L496,328Z" fill="rgb(4,92,144)" stroke="rgb(4,92,144)" stroke-width="1.51"></path><path d="M258,439L354,440L259,341Z" fill="rgb(67,111,146)" stroke="rgb(67,111,146)" stroke-width="1.51"></path><path d="M129,361L104,446L203,423Z" fill="rgb(112,129,157)" stroke="rgb(112,129,157)" stroke-width="1.51"></path><path d="M44,282L45,352L129,361Z" fill="rgb(140,162,198)" stroke="rgb(140,162,198)" stroke-width="1.51"></path><path d="M-25,322L45,352L44,282Z" fill="rgb(149,170,205)" stroke="rgb(149,170,205)" stroke-width="1.51"></path><path d="M-49,58L-41,110L55,55Z" fill="rgb(238,233,243)" stroke="rgb(238,233,243)" stroke-width="1.51"></path><path d="M14,172L-43,227L44,282Z" fill="rgb(175,200,225)" stroke="rgb(175,200,225)" stroke-width="1.51"></path><path d="M534,-46L514,-108L498,-10Z" fill="rgb(147,166,197)" stroke="rgb(147,166,197)" stroke-width="1.51"></path><path d="M401,-103L514,-108L350,-119Z" fill="rgb(159,183,217)" stroke="rgb(159,183,217)" stroke-width="1.51"></path><path d="M621,99L548,144L645,182Z" fill="rgb(93,120,152)" stroke="rgb(93,120,152)" stroke-width="1.51"></path><path d="M621,99L553,69L548,144Z" fill="rgb(113,133,166)" stroke="rgb(113,133,166)" stroke-width="1.51"></path><path d="M553,69L612,64L534,-46Z" fill="rgb(134,150,177)" stroke="rgb(134,150,177)" stroke-width="1.51"></path><path d="M534,-46L546,-107L514,-108Z" fill="rgb(145,163,192)" stroke="rgb(145,163,192)" stroke-width="1.51"></path><path d="M645,182L548,144L564,202Z" fill="rgb(78,118,154)" stroke="rgb(78,118,154)" stroke-width="1.51"></path><path d="M30,-14L-49,58L55,55Z" fill="rgb(247,240,247)" stroke="rgb(247,240,247)" stroke-width="1.51"></path><path d="M133,-108L51,-111L136,-16Z" fill="rgb(239,234,244)" stroke="rgb(239,234,244)" stroke-width="1.51"></path><path d="M350,-119L51,-111L133,-108Z" fill="rgb(224,224,238)" stroke="rgb(224,224,238)" stroke-width="1.51"></path><path d="M-41,110L-43,227L14,172Z" fill="rgb(202,214,232)" stroke="rgb(202,214,232)" stroke-width="1.51"></path><path d="M-41,110L-123,143L-43,227Z" fill="rgb(207,216,234)" stroke="rgb(207,216,234)" stroke-width="1.51"></path><path d="M-24,-33L-49,58L30,-14Z" fill="rgb(254,246,250)" stroke="rgb(254,246,250)" stroke-width="1.51"></path><path d="M51,-111L-24,-33L30,-14Z" fill="rgb(252,245,250)" stroke="rgb(252,245,250)" stroke-width="1.51"></path><path d="M-43,227L-46,252L44,282Z" fill="rgb(165,193,221)" stroke="rgb(165,193,221)" stroke-width="1.51"></path><path d="M-114,298L-46,252L-140,222Z" fill="rgb(164,192,221)" stroke="rgb(164,192,221)" stroke-width="1.51"></path><path d="M626,-102L546,-107L534,-46Z" fill="rgb(139,153,178)" stroke="rgb(139,153,178)" stroke-width="1.51"></path><path d="M514,-108L546,-107L350,-119Z" fill="rgb(152,173,209)" stroke="rgb(152,173,209)" stroke-width="1.51"></path><path d="M616,287L645,182L564,202Z" fill="rgb(49,104,142)" stroke="rgb(49,104,142)" stroke-width="1.51"></path><path d="M480,443L556,365L496,328Z" fill="rgb(4,82,129)" stroke="rgb(4,82,129)" stroke-width="1.51"></path><path d="M480,443L496,328L440,402Z" fill="rgb(3,83,131)" stroke="rgb(3,83,131)" stroke-width="1.51"></path><path d="M45,352L59,414L129,361Z" fill="rgb(130,147,176)" stroke="rgb(130,147,176)" stroke-width="1.51"></path><path d="M211,497L278,497L258,439Z" fill="rgb(82,116,149)" stroke="rgb(82,116,149)" stroke-width="1.51"></path><path d="M-20,419L59,414L45,352Z" fill="rgb(131,144,168)" stroke="rgb(131,144,168)" stroke-width="1.51"></path><path d="M59,414L104,446L129,361Z" fill="rgb(121,135,160)" stroke="rgb(121,135,160)" stroke-width="1.51"></path><path d="M258,439L278,497L354,440Z" fill="rgb(64,110,146)" stroke="rgb(64,110,146)" stroke-width="1.51"></path><path d="M616,287L564,202L548,302Z" fill="rgb(25,100,145)" stroke="rgb(25,100,145)" stroke-width="1.51"></path><path d="M731,65L663,-21L612,64Z" fill="rgb(127,140,163)" stroke="rgb(127,140,163)" stroke-width="1.51"></path><path d="M211,497L258,439L203,423Z" fill="rgb(90,119,151)" stroke="rgb(90,119,151)" stroke-width="1.51"></path><path d="M465,476L480,443L440,402Z" fill="rgb(3,82,128)" stroke="rgb(3,82,128)" stroke-width="1.51"></path><path d="M556,365L616,287L548,302Z" fill="rgb(4,86,134)" stroke="rgb(4,86,134)" stroke-width="1.51"></path><path d="M-46,252L-25,322L44,282Z" fill="rgb(158,182,216)" stroke="rgb(158,182,216)" stroke-width="1.51"></path><path d="M465,476L440,402L354,440Z" fill="rgb(16,89,133)" stroke="rgb(16,89,133)" stroke-width="1.51"></path><path d="M128,493L211,497L203,423Z" fill="rgb(102,124,154)" stroke="rgb(102,124,154)" stroke-width="1.51"></path><path d="M404,526L358,498L278,497Z" fill="rgb(44,102,141)" stroke="rgb(44,102,141)" stroke-width="1.51"></path><path d="M278,497L358,498L354,440Z" fill="rgb(51,105,142)" stroke="rgb(51,105,142)" stroke-width="1.51"></path><path d="M358,498L465,476L354,440Z" fill="rgb(24,94,136)" stroke="rgb(24,94,136)" stroke-width="1.51"></path><path d="M480,443L576,417L556,365Z" fill="rgb(3,70,110)" stroke="rgb(3,70,110)" stroke-width="1.51"></path><path d="M104,446L128,493L203,423Z" fill="rgb(112,129,157)" stroke="rgb(112,129,157)" stroke-width="1.51"></path><path d="M56,481L128,493L104,446Z" fill="rgb(120,135,160)" stroke="rgb(120,135,160)" stroke-width="1.51"></path><path d="M56,481L104,446L59,414Z" fill="rgb(125,138,162)" stroke="rgb(125,138,162)" stroke-width="1.51"></path><path d="M556,365L656,334L616,287Z" fill="rgb(3,77,121)" stroke="rgb(3,77,121)" stroke-width="1.51"></path><path d="M534,524L576,417L480,443Z" fill="rgb(3,72,112)" stroke="rgb(3,72,112)" stroke-width="1.51"></path><path d="M731,65L612,64L621,99Z" fill="rgb(117,133,159)" stroke="rgb(117,133,159)" stroke-width="1.51"></path><path d="M612,64L663,-21L534,-46Z" fill="rgb(133,145,166)" stroke="rgb(133,145,166)" stroke-width="1.51"></path><path d="M465,476L534,524L480,443Z" fill="rgb(3,77,121)" stroke="rgb(3,77,121)" stroke-width="1.51"></path><path d="M358,498L404,526L465,476Z" fill="rgb(19,91,135)" stroke="rgb(19,91,135)" stroke-width="1.51"></path><path d="M211,497L404,526L278,497Z" fill="rgb(64,110,145)" stroke="rgb(64,110,145)" stroke-width="1.51"></path><path d="M-61,515L404,526L211,497Z" fill="rgb(101,124,154)" stroke="rgb(101,124,154)" stroke-width="1.51"></path><path d="M-46,252L-114,298L-25,322Z" fill="rgb(156,180,215)" stroke="rgb(156,180,215)" stroke-width="1.51"></path><path d="M-49,58L-123,143L-41,110Z" fill="rgb(230,227,240)" stroke="rgb(230,227,240)" stroke-width="1.51"></path><path d="M-125,33L-123,143L-49,58Z" fill="rgb(237,233,243)" stroke="rgb(237,233,243)" stroke-width="1.51"></path><path d="M663,-21L626,-102L534,-46Z" fill="rgb(133,145,166)" stroke="rgb(133,145,166)" stroke-width="1.51"></path><path d="M-20,419L45,352L-25,322Z" fill="rgb(143,159,187)" stroke="rgb(143,159,187)" stroke-width="1.51"></path><path d="M-20,419L56,481L59,414Z" fill="rgb(130,142,164)" stroke="rgb(130,142,164)" stroke-width="1.51"></path><path d="M-86,420L-20,419L-25,322Z" fill="rgb(137,151,173)" stroke="rgb(137,151,173)" stroke-width="1.51"></path><path d="M645,182L731,106L621,99Z" fill="rgb(99,123,153)" stroke="rgb(99,123,153)" stroke-width="1.51"></path><path d="M616,287L699,204L645,182Z" fill="rgb(48,104,142)" stroke="rgb(48,104,142)" stroke-width="1.51"></path><path d="M702,285L699,204L616,287Z" fill="rgb(25,95,137)" stroke="rgb(25,95,137)" stroke-width="1.51"></path><path d="M51,-111L-49,-119L-24,-33Z" fill="rgb(255,247,251)" stroke="rgb(255,247,251)" stroke-width="1.51"></path><path d="M-106,-34L-125,33L-49,58Z" fill="rgb(251,244,250)" stroke="rgb(251,244,250)" stroke-width="1.51"></path><path d="M350,-119L-49,-119L51,-111Z" fill="rgb(237,233,243)" stroke="rgb(237,233,243)" stroke-width="1.51"></path><path d="M576,417L656,334L556,365Z" fill="rgb(2,66,104)" stroke="rgb(2,66,104)" stroke-width="1.51"></path><path d="M-106,-34L-49,58L-24,-33Z" fill="rgb(255,247,251)" stroke="rgb(255,247,251)" stroke-width="1.51"></path><path d="M-49,-119L-106,-34L-24,-33Z" fill="rgb(255,247,251)" stroke="rgb(255,247,251)" stroke-width="1.51"></path><path d="M-140,222L-46,252L-43,227Z" fill="rgb(173,198,224)" stroke="rgb(173,198,224)" stroke-width="1.51"></path><path d="M-123,143L-140,222L-43,227Z" fill="rgb(189,208,230)" stroke="rgb(189,208,230)" stroke-width="1.51"></path><path d="M-125,33L-140,222L-123,143Z" fill="rgb(218,221,237)" stroke="rgb(218,221,237)" stroke-width="1.51"></path><path d="M656,334L702,285L616,287Z" fill="rgb(3,83,130)" stroke="rgb(3,83,130)" stroke-width="1.51"></path><path d="M699,204L731,106L645,182Z" fill="rgb(83,116,150)" stroke="rgb(83,116,150)" stroke-width="1.51"></path><path d="M663,-21L735,-84L626,-102Z" fill="rgb(133,145,166)" stroke="rgb(133,145,166)" stroke-width="1.51"></path><path d="M702,285L731,106L699,204Z" fill="rgb(64,110,145)" stroke="rgb(64,110,145)" stroke-width="1.51"></path><path d="M713,405L687,334L656,334Z" fill="rgb(3,70,110)" stroke="rgb(3,70,110)" stroke-width="1.51"></path><path d="M656,334L687,334L702,285Z" fill="rgb(3,79,124)" stroke="rgb(3,79,124)" stroke-width="1.51"></path><path d="M731,106L731,65L621,99Z" fill="rgb(114,130,157)" stroke="rgb(114,130,157)" stroke-width="1.51"></path><path d="M404,526L534,524L465,476Z" fill="rgb(3,81,127)" stroke="rgb(3,81,127)" stroke-width="1.51"></path><path d="M576,417L663,428L656,334Z" fill="rgb(2,58,91)" stroke="rgb(2,58,91)" stroke-width="1.51"></path><path d="M731,65L722,-28L663,-21Z" fill="rgb(132,144,166)" stroke="rgb(132,144,166)" stroke-width="1.51"></path><path d="M-20,419L-61,515L56,481Z" fill="rgb(133,145,166)" stroke="rgb(133,145,166)" stroke-width="1.51"></path><path d="M-133,350L-86,420L-25,322Z" fill="rgb(143,159,187)" stroke="rgb(143,159,187)" stroke-width="1.51"></path><path d="M-133,350L-25,322L-114,298Z" fill="rgb(151,171,205)" stroke="rgb(151,171,205)" stroke-width="1.51"></path><path d="M-140,222L-133,350L-114,298Z" fill="rgb(157,180,215)" stroke="rgb(157,180,215)" stroke-width="1.51"></path><path d="M632,478L663,428L576,417Z" fill="rgb(2,56,88)" stroke="rgb(2,56,88)" stroke-width="1.51"></path><path d="M687,334L713,405L702,285Z" fill="rgb(3,75,117)" stroke="rgb(3,75,117)" stroke-width="1.51"></path><path d="M534,524L632,478L576,417Z" fill="rgb(2,60,94)" stroke="rgb(2,60,94)" stroke-width="1.51"></path><path d="M-49,-119L-133,-125L-106,-34Z" fill="rgb(255,247,251)" stroke="rgb(255,247,251)" stroke-width="1.51"></path><path d="M-106,-34L-133,-125L-125,33Z" fill="rgb(255,247,251)" stroke="rgb(255,247,251)" stroke-width="1.51"></path><path d="M-125,33L-133,-125L-140,222Z" fill="rgb(247,240,247)" stroke="rgb(247,240,247)" stroke-width="1.51"></path><path d="M350,-119L-133,-125L-49,-119Z" fill="rgb(248,241,247)" stroke="rgb(248,241,247)" stroke-width="1.51"></path><path d="M722,-28L735,-84L663,-21Z" fill="rgb(133,145,166)" stroke="rgb(133,145,166)" stroke-width="1.51"></path><path d="M731,65L735,-84L722,-28Z" fill="rgb(133,145,166)" stroke="rgb(133,145,166)" stroke-width="1.51"></path><path d="M731,106L735,-84L731,65Z" fill="rgb(128,141,164)" stroke="rgb(128,141,164)" stroke-width="1.51"></path><path d="M735,503L713,405L663,428Z" fill="rgb(2,56,88)" stroke="rgb(2,56,88)" stroke-width="1.51"></path><path d="M663,428L713,405L656,334Z" fill="rgb(2,59,93)" stroke="rgb(2,59,93)" stroke-width="1.51"></path><path d="M702,285L713,405L731,106Z" fill="rgb(23,94,136)" stroke="rgb(23,94,136)" stroke-width="1.51"></path><path d="M-86,420L-61,515L-20,419Z" fill="rgb(133,145,166)" stroke="rgb(133,145,166)" stroke-width="1.51"></path><path d="M56,481L-61,515L128,493Z" fill="rgb(129,141,164)" stroke="rgb(129,141,164)" stroke-width="1.51"></path><path d="M128,493L-61,515L211,497Z" fill="rgb(121,136,160)" stroke="rgb(121,136,160)" stroke-width="1.51"></path><path d="M-90,501L-61,515L-86,420Z" fill="rgb(133,145,166)" stroke="rgb(133,145,166)" stroke-width="1.51"></path><path d="M-133,350L-90,501L-86,420Z" fill="rgb(133,145,166)" stroke="rgb(133,145,166)" stroke-width="1.51"></path><path d="M632,478L735,503L663,428Z" fill="rgb(2,56,88)" stroke="rgb(2,56,88)" stroke-width="1.51"></path><path d="M713,405L735,503L731,106Z" fill="rgb(3,75,118)" stroke="rgb(3,75,118)" stroke-width="1.51"></path><path d="M731,106L735,503L735,-84Z" fill="rgb(77,114,148)" stroke="rgb(77,114,148)" stroke-width="1.51"></path><path d="M534,524L735,503L632,478Z" fill="rgb(2,56,88)" stroke="rgb(2,56,88)" stroke-width="1.51"></path></svg>