<svg width="600" height="400" xmlns="http://www.w3.org/2000/svg"><path d="M323,208L415,179L339,141Z" fill="rgb(109,164,204)" stroke="rgb(109,164,204)" stroke-width="1.51"></path><path d="M415,179L409,132L339,141Z" fill="rgb(115,163,204)" stroke="rgb(115,163,204)" stroke-width="1.51"></path><path d="M323,208L335,276L415,179Z" fill="rgb(83,154,198)" stroke="rgb(83,154,198)" stroke-width="1.51"></path><path d="M509,187L467,142L415,179Z" fill="rgb(94,143,192)" stroke="rgb(94,143,192)" stroke-width="1.51"></path><path d="M415,179L467,142L409,132Z" fill="rgb(108,154,200)" stroke="rgb(108,154,200)" stroke-width="1.51"></path><path d="M339,141L248,186L323,208Z" fill="rgb(127,173,209)" stroke="rgb(127,173,209)" stroke-width="1.51"></path><path d="M323,208L270,257L335,276Z" fill="rgb(87,155,199)" stroke="rgb(87,155,199)" stroke-width="1.51"></path><path d="M338,45L276,112L339,141Z" fill="rgb(159,186,217)" stroke="rgb(159,186,217)" stroke-width="1.51"></path><path d="M276,112L248,186L339,141Z" fill="rgb(148,181,214)" stroke="rgb(148,181,214)" stroke-width="1.51"></path><path d="M335,276L411,294L415,179Z" fill="rgb(52,141,190)" stroke="rgb(52,141,190)" stroke-width="1.51"></path><path d="M248,186L270,257L323,208Z" fill="rgb(115,167,206)" stroke="rgb(115,167,206)" stroke-width="1.51"></path><path d="M409,132L414,69L339,141Z" fill="rgb(133,171,208)" stroke="rgb(133,171,208)" stroke-width="1.51"></path><path d="M467,142L414,69L409,132Z" fill="rgb(126,160,204)" stroke="rgb(126,160,204)" stroke-width="1.51"></path><path d="M414,69L338,45L339,141Z" fill="rgb(149,182,214)" stroke="rgb(149,182,214)" stroke-width="1.51"></path><path d="M499,294L509,187L415,179Z" fill="rgb(61,131,182)" stroke="rgb(61,131,182)" stroke-width="1.51"></path><path d="M467,142L500,28L414,69Z" fill="rgb(135,162,203)" stroke="rgb(135,162,203)" stroke-width="1.51"></path><path d="M248,186L200,263L270,257Z" fill="rgb(120,168,206)" stroke="rgb(120,168,206)" stroke-width="1.51"></path><path d="M169,104L197,198L248,186Z" fill="rgb(166,189,219)" stroke="rgb(166,189,219)" stroke-width="1.51"></path><path d="M411,294L499,294L415,179Z" fill="rgb(36,127,184)" stroke="rgb(36,127,184)" stroke-width="1.51"></path><path d="M276,112L169,104L248,186Z" fill="rgb(171,191,220)" stroke="rgb(171,191,220)" stroke-width="1.51"></path><path d="M338,45L239,53L276,112Z" fill="rgb(178,197,224)" stroke="rgb(178,197,224)" stroke-width="1.51"></path><path d="M547,67L500,28L467,142Z" fill="rgb(131,155,192)" stroke="rgb(131,155,192)" stroke-width="1.51"></path><path d="M499,294L546,211L509,187Z" fill="rgb(51,122,171)" stroke="rgb(51,122,171)" stroke-width="1.51"></path><path d="M197,198L200,263L248,186Z" fill="rgb(138,176,211)" stroke="rgb(138,176,211)" stroke-width="1.51"></path><path d="M276,370L350,368L335,276Z" fill="rgb(64,128,176)" stroke="rgb(64,128,176)" stroke-width="1.51"></path><path d="M335,276L350,368L411,294Z" fill="rgb(42,126,180)" stroke="rgb(42,126,180)" stroke-width="1.51"></path><path d="M276,370L335,276L270,257Z" fill="rgb(79,141,192)" stroke="rgb(79,141,192)" stroke-width="1.51"></path><path d="M411,294L486,349L499,294Z" fill="rgb(5,106,168)" stroke="rgb(5,106,168)" stroke-width="1.51"></path><path d="M350,368L398,371L411,294Z" fill="rgb(31,115,167)" stroke="rgb(31,115,167)" stroke-width="1.51"></path><path d="M561,103L467,142L509,187Z" fill="rgb(104,141,183)" stroke="rgb(104,141,183)" stroke-width="1.51"></path><path d="M414,69L394,-24L338,45Z" fill="rgb(159,188,219)" stroke="rgb(159,188,219)" stroke-width="1.51"></path><path d="M338,45L283,-7L239,53Z" fill="rgb(186,205,227)" stroke="rgb(186,205,227)" stroke-width="1.51"></path><path d="M398,371L486,349L411,294Z" fill="rgb(15,107,164)" stroke="rgb(15,107,164)" stroke-width="1.51"></path><path d="M499,294L562,288L546,211Z" fill="rgb(27,109,160)" stroke="rgb(27,109,160)" stroke-width="1.51"></path><path d="M328,-30L283,-7L338,45Z" fill="rgb(183,204,228)" stroke="rgb(183,204,228)" stroke-width="1.51"></path><path d="M200,263L276,370L270,257Z" fill="rgb(98,148,196)" stroke="rgb(98,148,196)" stroke-width="1.51"></path><path d="M356,442L431,425L398,371Z" fill="rgb(23,94,136)" stroke="rgb(23,94,136)" stroke-width="1.51"></path><path d="M500,28L394,-24L414,69Z" fill="rgb(152,176,213)" stroke="rgb(152,176,213)" stroke-width="1.51"></path><path d="M546,211L561,103L509,187Z" fill="rgb(89,131,172)" stroke="rgb(89,131,172)" stroke-width="1.51"></path><path d="M164,49L169,104L239,53Z" fill="rgb(206,210,231)" stroke="rgb(206,210,231)" stroke-width="1.51"></path><path d="M239,53L169,104L276,112Z" fill="rgb(189,201,226)" stroke="rgb(189,201,226)" stroke-width="1.51"></path><path d="M197,198L121,275L200,263Z" fill="rgb(137,174,210)" stroke="rgb(137,174,210)" stroke-width="1.51"></path><path d="M561,103L547,67L467,142Z" fill="rgb(121,146,184)" stroke="rgb(121,146,184)" stroke-width="1.51"></path><path d="M394,-24L328,-30L338,45Z" fill="rgb(172,198,223)" stroke="rgb(172,198,223)" stroke-width="1.51"></path><path d="M554,362L562,288L499,294Z" fill="rgb(5,94,148)" stroke="rgb(5,94,148)" stroke-width="1.51"></path><path d="M546,211L627,146L561,103Z" fill="rgb(91,124,159)" stroke="rgb(91,124,159)" stroke-width="1.51"></path><path d="M167,-25L164,49L239,53Z" fill="rgb(216,218,235)" stroke="rgb(216,218,235)" stroke-width="1.51"></path><path d="M167,-25L239,53L283,-7Z" fill="rgb(208,216,234)" stroke="rgb(208,216,234)" stroke-width="1.51"></path><path d="M394,-24L332,-82L328,-30Z" fill="rgb(173,198,224)" stroke="rgb(173,198,224)" stroke-width="1.51"></path><path d="M500,28L500,-23L394,-24Z" fill="rgb(153,175,210)" stroke="rgb(153,175,210)" stroke-width="1.51"></path><path d="M556,-37L500,-23L500,28Z" fill="rgb(147,166,197)" stroke="rgb(147,166,197)" stroke-width="1.51"></path><path d="M356,442L398,371L350,368Z" fill="rgb(33,101,142)" stroke="rgb(33,101,142)" stroke-width="1.51"></path><path d="M200,263L202,371L276,370Z" fill="rgb(101,141,185)" stroke="rgb(101,141,185)" stroke-width="1.51"></path><path d="M121,275L202,371L200,263Z" fill="rgb(122,155,200)" stroke="rgb(122,155,200)" stroke-width="1.51"></path><path d="M486,349L554,362L499,294Z" fill="rgb(4,95,149)" stroke="rgb(4,95,149)" stroke-width="1.51"></path><path d="M398,371L471,419L486,349Z" fill="rgb(4,91,141)" stroke="rgb(4,91,141)" stroke-width="1.51"></path><path d="M356,442L350,368L276,370Z" fill="rgb(53,108,147)" stroke="rgb(53,108,147)" stroke-width="1.51"></path><path d="M431,425L471,419L398,371Z" fill="rgb(11,87,133)" stroke="rgb(11,87,133)" stroke-width="1.51"></path><path d="M259,445L356,442L276,370Z" fill="rgb(64,110,145)" stroke="rgb(64,110,145)" stroke-width="1.51"></path><path d="M431,425L483,500L471,419Z" fill="rgb(3,82,128)" stroke="rgb(3,82,128)" stroke-width="1.51"></path><path d="M471,419L554,362L486,349Z" fill="rgb(4,84,131)" stroke="rgb(4,84,131)" stroke-width="1.51"></path><path d="M104,206L121,275L197,198Z" fill="rgb(154,184,215)" stroke="rgb(154,184,215)" stroke-width="1.51"></path><path d="M104,206L197,198L169,104Z" fill="rgb(176,194,222)" stroke="rgb(176,194,222)" stroke-width="1.51"></path><path d="M95,103L104,206L169,104Z" fill="rgb(198,205,228)" stroke="rgb(198,205,228)" stroke-width="1.51"></path><path d="M622,272L546,211L562,288Z" fill="rgb(28,101,146)" stroke="rgb(28,101,146)" stroke-width="1.51"></path><path d="M645,194L627,146L546,211Z" fill="rgb(72,113,147)" stroke="rgb(72,113,147)" stroke-width="1.51"></path><path d="M561,103L654,47L547,67Z" fill="rgb(120,137,165)" stroke="rgb(120,137,165)" stroke-width="1.51"></path><path d="M547,67L556,-37L500,28Z" fill="rgb(141,160,190)" stroke="rgb(141,160,190)" stroke-width="1.51"></path><path d="M328,-30L332,-82L283,-7Z" fill="rgb(184,205,228)" stroke="rgb(184,205,228)" stroke-width="1.51"></path><path d="M395,-89L332,-82L394,-24Z" fill="rgb(166,194,222)" stroke="rgb(166,194,222)" stroke-width="1.51"></path><path d="M658,349L622,272L562,288Z" fill="rgb(3,83,130)" stroke="rgb(3,83,130)" stroke-width="1.51"></path><path d="M500,-23L395,-89L394,-24Z" fill="rgb(157,182,216)" stroke="rgb(157,182,216)" stroke-width="1.51"></path><path d="M622,272L645,194L546,211Z" fill="rgb(48,104,142)" stroke="rgb(48,104,142)" stroke-width="1.51"></path><path d="M164,49L95,103L169,104Z" fill="rgb(213,213,232)" stroke="rgb(213,213,232)" stroke-width="1.51"></path><path d="M202,371L259,445L276,370Z" fill="rgb(84,118,152)" stroke="rgb(84,118,152)" stroke-width="1.51"></path><path d="M180,405L259,445L202,371Z" fill="rgb(92,120,152)" stroke="rgb(92,120,152)" stroke-width="1.51"></path><path d="M164,49L110,31L95,103Z" fill="rgb(224,221,236)" stroke="rgb(224,221,236)" stroke-width="1.51"></path><path d="M255,-111L167,-25L283,-7Z" fill="rgb(208,216,234)" stroke="rgb(208,216,234)" stroke-width="1.51"></path><path d="M101,359L180,405L202,371Z" fill="rgb(113,135,167)" stroke="rgb(113,135,167)" stroke-width="1.51"></path><path d="M646,-17L556,-37L547,67Z" fill="rgb(135,149,172)" stroke="rgb(135,149,172)" stroke-width="1.51"></path><path d="M500,-23L508,-88L395,-89Z" fill="rgb(153,174,209)" stroke="rgb(153,174,209)" stroke-width="1.51"></path><path d="M167,-25L110,31L164,49Z" fill="rgb(228,225,239)" stroke="rgb(228,225,239)" stroke-width="1.51"></path><path d="M559,498L571,402L471,419Z" fill="rgb(3,71,111)" stroke="rgb(3,71,111)" stroke-width="1.51"></path><path d="M471,419L571,402L554,362Z" fill="rgb(3,73,115)" stroke="rgb(3,73,115)" stroke-width="1.51"></path><path d="M554,362L658,349L562,288Z" fill="rgb(3,78,123)" stroke="rgb(3,78,123)" stroke-width="1.51"></path><path d="M556,-37L508,-88L500,-23Z" fill="rgb(147,165,196)" stroke="rgb(147,165,196)" stroke-width="1.51"></path><path d="M356,442L420,502L431,425Z" fill="rgb(22,93,135)" stroke="rgb(22,93,135)" stroke-width="1.51"></path><path d="M271,487L342,495L356,442Z" fill="rgb(54,106,143)" stroke="rgb(54,106,143)" stroke-width="1.51"></path><path d="M271,487L356,442L259,445Z" fill="rgb(64,110,146)" stroke="rgb(64,110,146)" stroke-width="1.51"></path><path d="M547,-101L255,-111L395,-89Z" fill="rgb(162,189,219)" stroke="rgb(162,189,219)" stroke-width="1.51"></path><path d="M395,-89L255,-111L332,-82Z" fill="rgb(180,203,227)" stroke="rgb(180,203,227)" stroke-width="1.51"></path><path d="M332,-82L255,-111L283,-7Z" fill="rgb(191,209,230)" stroke="rgb(191,209,230)" stroke-width="1.51"></path><path d="M95,103L56,122L104,206Z" fill="rgb(202,210,230)" stroke="rgb(202,210,230)" stroke-width="1.51"></path><path d="M21,280L101,359L121,275Z" fill="rgb(143,167,207)" stroke="rgb(143,167,207)" stroke-width="1.51"></path><path d="M37,40L56,122L95,103Z" fill="rgb(227,224,238)" stroke="rgb(227,224,238)" stroke-width="1.51"></path><path d="M42,208L121,275L104,206Z" fill="rgb(162,190,219)" stroke="rgb(162,190,219)" stroke-width="1.51"></path><path d="M121,275L101,359L202,371Z" fill="rgb(126,152,191)" stroke="rgb(126,152,191)" stroke-width="1.51"></path><path d="M192,517L259,445L180,405Z" fill="rgb(94,121,152)" stroke="rgb(94,121,152)" stroke-width="1.51"></path><path d="M192,517L271,487L259,445Z" fill="rgb(84,117,150)" stroke="rgb(84,117,150)" stroke-width="1.51"></path><path d="M556,-37L547,-101L508,-88Z" fill="rgb(144,161,190)" stroke="rgb(144,161,190)" stroke-width="1.51"></path><path d="M627,146L654,47L561,103Z" fill="rgb(111,129,156)" stroke="rgb(111,129,156)" stroke-width="1.51"></path><path d="M709,114L654,47L627,146Z" fill="rgb(110,128,156)" stroke="rgb(110,128,156)" stroke-width="1.51"></path><path d="M342,495L420,502L356,442Z" fill="rgb(30,99,138)" stroke="rgb(30,99,138)" stroke-width="1.51"></path><path d="M56,122L42,208L104,206Z" fill="rgb(189,205,228)" stroke="rgb(189,205,228)" stroke-width="1.51"></path><path d="M571,402L658,349L554,362Z" fill="rgb(2,66,105)" stroke="rgb(2,66,105)" stroke-width="1.51"></path><path d="M726,274L728,187L645,194Z" fill="rgb(52,106,142)" stroke="rgb(52,106,142)" stroke-width="1.51"></path><path d="M645,194L709,114L627,146Z" fill="rgb(89,119,151)" stroke="rgb(89,119,151)" stroke-width="1.51"></path><path d="M618,423L658,349L571,402Z" fill="rgb(2,59,92)" stroke="rgb(2,59,92)" stroke-width="1.51"></path><path d="M508,-88L547,-101L395,-89Z" fill="rgb(151,171,205)" stroke="rgb(151,171,205)" stroke-width="1.51"></path><path d="M622,-92L547,-101L556,-37Z" fill="rgb(138,152,176)" stroke="rgb(138,152,176)" stroke-width="1.51"></path><path d="M420,502L483,500L431,425Z" fill="rgb(6,84,131)" stroke="rgb(6,84,131)" stroke-width="1.51"></path><path d="M110,31L37,40L95,103Z" fill="rgb(233,228,241)" stroke="rgb(233,228,241)" stroke-width="1.51"></path><path d="M167,-25L96,-26L110,31Z" fill="rgb(236,231,242)" stroke="rgb(236,231,242)" stroke-width="1.51"></path><path d="M123,-84L96,-26L167,-25Z" fill="rgb(235,231,242)" stroke="rgb(235,231,242)" stroke-width="1.51"></path><path d="M654,47L646,-17L547,67Z" fill="rgb(128,141,163)" stroke="rgb(128,141,163)" stroke-width="1.51"></path><path d="M559,498L618,423L571,402Z" fill="rgb(2,60,94)" stroke="rgb(2,60,94)" stroke-width="1.51"></path><path d="M728,187L709,114L645,194Z" fill="rgb(82,116,149)" stroke="rgb(82,116,149)" stroke-width="1.51"></path><path d="M654,47L709,41L646,-17Z" fill="rgb(129,142,164)" stroke="rgb(129,142,164)" stroke-width="1.51"></path><path d="M101,359L99,415L180,405Z" fill="rgb(117,134,162)" stroke="rgb(117,134,162)" stroke-width="1.51"></path><path d="M18,368L99,415L101,359Z" fill="rgb(130,146,173)" stroke="rgb(130,146,173)" stroke-width="1.51"></path><path d="M255,-111L167,-111L167,-25Z" fill="rgb(219,222,237)" stroke="rgb(219,222,237)" stroke-width="1.51"></path><path d="M42,208L21,280L121,275Z" fill="rgb(156,186,218)" stroke="rgb(156,186,218)" stroke-width="1.51"></path><path d="M-34,198L21,280L42,208Z" fill="rgb(174,199,224)" stroke="rgb(174,199,224)" stroke-width="1.51"></path><path d="M56,122L-34,198L42,208Z" fill="rgb(197,210,231)" stroke="rgb(197,210,231)" stroke-width="1.51"></path><path d="M96,-26L37,40L110,31Z" fill="rgb(241,235,244)" stroke="rgb(241,235,244)" stroke-width="1.51"></path><path d="M47,-39L37,40L96,-26Z" fill="rgb(247,240,247)" stroke="rgb(247,240,247)" stroke-width="1.51"></path><path d="M167,-111L123,-84L167,-25Z" fill="rgb(231,227,240)" stroke="rgb(231,227,240)" stroke-width="1.51"></path><path d="M726,274L645,194L622,272Z" fill="rgb(31,99,139)" stroke="rgb(31,99,139)" stroke-width="1.51"></path><path d="M483,500L559,498L471,419Z" fill="rgb(3,76,119)" stroke="rgb(3,76,119)" stroke-width="1.51"></path><path d="M725,519L559,498L483,500Z" fill="rgb(2,58,91)" stroke="rgb(2,58,91)" stroke-width="1.51"></path><path d="M728,187L709,41L709,114Z" fill="rgb(105,125,155)" stroke="rgb(105,125,155)" stroke-width="1.51"></path><path d="M709,114L709,41L654,47Z" fill="rgb(120,135,160)" stroke="rgb(120,135,160)" stroke-width="1.51"></path><path d="M710,336L726,274L622,272Z" fill="rgb(7,85,132)" stroke="rgb(7,85,132)" stroke-width="1.51"></path><path d="M710,336L622,272L658,349Z" fill="rgb(3,79,124)" stroke="rgb(3,79,124)" stroke-width="1.51"></path><path d="M718,-48L622,-92L646,-17Z" fill="rgb(133,145,166)" stroke="rgb(133,145,166)" stroke-width="1.51"></path><path d="M646,-17L622,-92L556,-37Z" fill="rgb(133,145,166)" stroke="rgb(133,145,166)" stroke-width="1.51"></path><path d="M130,515L192,517L180,405Z" fill="rgb(106,126,155)" stroke="rgb(106,126,155)" stroke-width="1.51"></path><path d="M271,487L192,517L342,495Z" fill="rgb(75,113,148)" stroke="rgb(75,113,148)" stroke-width="1.51"></path><path d="M342,495L192,517L420,502Z" fill="rgb(56,107,143)" stroke="rgb(56,107,143)" stroke-width="1.51"></path><path d="M420,502L725,519L483,500Z" fill="rgb(3,69,108)" stroke="rgb(3,69,108)" stroke-width="1.51"></path><path d="M695,421L710,336L658,349Z" fill="rgb(2,66,104)" stroke="rgb(2,66,104)" stroke-width="1.51"></path><path d="M695,421L658,349L618,423Z" fill="rgb(2,57,89)" stroke="rgb(2,57,89)" stroke-width="1.51"></path><path d="M-24,-11L47,-39L20,-104Z" fill="rgb(253,245,250)" stroke="rgb(253,245,250)" stroke-width="1.51"></path><path d="M123,-84L47,-39L96,-26Z" fill="rgb(243,237,245)" stroke="rgb(243,237,245)" stroke-width="1.51"></path><path d="M21,280L18,368L101,359Z" fill="rgb(143,163,198)" stroke="rgb(143,163,198)" stroke-width="1.51"></path><path d="M99,415L130,515L180,405Z" fill="rgb(113,130,157)" stroke="rgb(113,130,157)" stroke-width="1.51"></path><path d="M21,280L-46,358L18,368Z" fill="rgb(149,168,200)" stroke="rgb(149,168,200)" stroke-width="1.51"></path><path d="M-47,103L-34,198L56,122Z" fill="rgb(215,220,236)" stroke="rgb(215,220,236)" stroke-width="1.51"></path><path d="M-47,103L56,122L37,40Z" fill="rgb(233,229,241)" stroke="rgb(233,229,241)" stroke-width="1.51"></path><path d="M710,336L725,519L726,274Z" fill="rgb(2,64,100)" stroke="rgb(2,64,100)" stroke-width="1.51"></path><path d="M650,494L695,421L618,423Z" fill="rgb(2,56,88)" stroke="rgb(2,56,88)" stroke-width="1.51"></path><path d="M35,441L130,515L99,415Z" fill="rgb(122,136,161)" stroke="rgb(122,136,161)" stroke-width="1.51"></path><path d="M-34,198L-46,255L21,280Z" fill="rgb(168,196,223)" stroke="rgb(168,196,223)" stroke-width="1.51"></path><path d="M-51,436L35,441L18,368Z" fill="rgb(133,145,166)" stroke="rgb(133,145,166)" stroke-width="1.51"></path><path d="M18,368L35,441L99,415Z" fill="rgb(127,140,163)" stroke="rgb(127,140,163)" stroke-width="1.51"></path><path d="M-41,57L-47,103L37,40Z" fill="rgb(241,235,244)" stroke="rgb(241,235,244)" stroke-width="1.51"></path><path d="M-34,198L-119,254L-46,255Z" fill="rgb(172,198,223)" stroke="rgb(172,198,223)" stroke-width="1.51"></path><path d="M709,41L718,-48L646,-17Z" fill="rgb(133,145,166)" stroke="rgb(133,145,166)" stroke-width="1.51"></path><path d="M728,187L718,-48L709,41Z" fill="rgb(121,136,161)" stroke="rgb(121,136,161)" stroke-width="1.51"></path><path d="M725,519L650,494L559,498Z" fill="rgb(2,56,88)" stroke="rgb(2,56,88)" stroke-width="1.51"></path><path d="M559,498L650,494L618,423Z" fill="rgb(2,56,88)" stroke="rgb(2,56,88)" stroke-width="1.51"></path><path d="M-24,-11L-41,57L37,40Z" fill="rgb(249,242,248)" stroke="rgb(249,242,248)" stroke-width="1.51"></path><path d="M20,-104L47,-39L123,-84Z" fill="rgb(247,240,247)" stroke="rgb(247,240,247)" stroke-width="1.51"></path><path d="M47,-39L-24,-11L37,40Z" fill="rgb(252,245,250)" stroke="rgb(252,245,250)" stroke-width="1.51"></path><path d="M-46,255L-46,358L21,280Z" fill="rgb(155,177,214)" stroke="rgb(155,177,214)" stroke-width="1.51"></path><path d="M-118,328L-46,358L-46,255Z" fill="rgb(152,174,208)" stroke="rgb(152,174,208)" stroke-width="1.51"></path><path d="M167,-111L20,-104L123,-84Z" fill="rgb(240,235,244)" stroke="rgb(240,235,244)" stroke-width="1.51"></path><path d="M718,-48L732,-105L622,-92Z" fill="rgb(133,145,166)" stroke="rgb(133,145,166)" stroke-width="1.51"></path><path d="M622,-92L732,-105L547,-101Z" fill="rgb(133,145,166)" stroke="rgb(133,145,166)" stroke-width="1.51"></path><path d="M547,-101L732,-105L255,-111Z" fill="rgb(148,167,198)" stroke="rgb(148,167,198)" stroke-width="1.51"></path><path d="M728,187L732,-105L718,-48Z" fill="rgb(132,144,165)" stroke="rgb(132,144,165)" stroke-width="1.51"></path><path d="M-25,495L20,507L35,441Z" fill="rgb(132,144,166)" stroke="rgb(132,144,166)" stroke-width="1.51"></path><path d="M35,441L20,507L130,515Z" fill="rgb(126,140,163)" stroke="rgb(126,140,163)" stroke-width="1.51"></path><path d="M-47,103L-119,117L-34,198Z" fill="rgb(215,220,236)" stroke="rgb(215,220,236)" stroke-width="1.51"></path><path d="M-41,57L-98,64L-47,103Z" fill="rgb(238,233,243)" stroke="rgb(238,233,243)" stroke-width="1.51"></path><path d="M-24,-11L-98,64L-41,57Z" fill="rgb(248,241,247)" stroke="rgb(248,241,247)" stroke-width="1.51"></path><path d="M-132,-22L-98,64L-24,-11Z" fill="rgb(253,245,250)" stroke="rgb(253,245,250)" stroke-width="1.51"></path><path d="M-106,426L-51,436L-46,358Z" fill="rgb(133,145,166)" stroke="rgb(133,145,166)" stroke-width="1.51"></path><path d="M-46,358L-51,436L18,368Z" fill="rgb(137,150,173)" stroke="rgb(137,150,173)" stroke-width="1.51"></path><path d="M-98,64L-119,117L-47,103Z" fill="rgb(233,229,241)" stroke="rgb(233,229,241)" stroke-width="1.51"></path><path d="M-133,197L-119,254L-34,198Z" fill="rgb(181,203,227)" stroke="rgb(181,203,227)" stroke-width="1.51"></path><path d="M650,494L725,519L695,421Z" fill="rgb(2,56,88)" stroke="rgb(2,56,88)" stroke-width="1.51"></path><path d="M695,421L725,519L710,336Z" fill="rgb(2,56,88)" stroke="rgb(2,56,88)" stroke-width="1.51"></path><path d="M726,274L725,519L728,187Z" fill="rgb(3,77,122)" stroke="rgb(3,77,122)" stroke-width="1.51"></path><path d="M728,187L725,519L732,-105Z" fill="rgb(63,110,145)" stroke="rgb(63,110,145)" stroke-width="1.51"></path><path d="M192,517L725,519L420,502Z" fill="rgb(5,84,131)" stroke="rgb(5,84,131)" stroke-width="1.51"></path><path d="M-119,117L-133,197L-34,198Z" fill="rgb(201,214,232)" stroke="rgb(201,214,232)" stroke-width="1.51"></path><path d="M-51,436L-25,495L35,441Z" fill="rgb(133,145,166)" stroke="rgb(133,145,166)" stroke-width="1.51"></path><path d="M-133,197L-118,328L-119,254Z" fill="rgb(163,191,220)" stroke="rgb(163,191,220)" stroke-width="1.51"></path><path d="M-119,254L-118,328L-46,255Z" fill="rgb(159,184,217)" stroke="rgb(159,184,217)" stroke-width="1.51"></path><path d="M-51,436L-100,513L-25,495Z" fill="rgb(133,145,166)" stroke="rgb(133,145,166)" stroke-width="1.51"></path><path d="M20,-104L-50,-108L-24,-11Z" fill="rgb(255,247,251)" stroke="rgb(255,247,251)" stroke-width="1.51"></path><path d="M-98,64L-132,-22L-119,117Z" fill="rgb(244,238,246)" stroke="rgb(244,238,246)" stroke-width="1.51"></path><path d="M-109,-123L-50,-108L20,-104Z" fill="rgb(255,247,251)" stroke="rgb(255,247,251)" stroke-width="1.51"></path><path d="M-118,328L-106,426L-46,358Z" fill="rgb(141,157,183)" stroke="rgb(141,157,183)" stroke-width="1.51"></path><path d="M-119,117L-132,-22L-133,197Z" fill="rgb(232,228,241)" stroke="rgb(232,228,241)" stroke-width="1.51"></path><path d="M-50,-108L-132,-22L-24,-11Z" fill="rgb(255,247,251)" stroke="rgb(255,247,251)" stroke-width="1.51"></path><path d="M-50,-108L-109,-123L-132,-22Z" fill="rgb(255,247,251)" stroke="rgb(255,247,251)" stroke-width="1.51"></path><path d="M167,-111L-109,-123L20,-104Z" fill="rgb(251,244,250)" stroke="rgb(251,244,250)" stroke-width="1.51"></path><path d="M255,-111L-109,-123L167,-111Z" fill="rgb(240,234,244)" stroke="rgb(240,234,244)" stroke-width="1.51"></path><path d="M732,-105L-109,-123L255,-111Z" fill="rgb(190,208,230)" stroke="rgb(190,208,230)" stroke-width="1.51"></path><path d="M-118,328L-100,513L-106,426Z" fill="rgb(133,145,166)" stroke="rgb(133,145,166)" stroke-width="1.51"></path><path d="M-106,426L-100,513L-51,436Z" fill="rgb(133,145,166)" stroke="rgb(133,145,166)" stroke-width="1.51"></path><path d="M-25,495L-100,513L20,507Z" fill="rgb(133,145,166)" stroke="rgb(133,145,166)" stroke-width="1.51"></path><path d="M20,507L-100,513L130,515Z" fill="rgb(132,144,165)" stroke="rgb(132,144,165)" stroke-width="1.51"></path><path d="M130,515L-100,513L192,517Z" fill="rgb(124,138,162)" stroke="rgb(124,138,162)" stroke-width="1.51"></path><path d="M-133,197L-100,513L-118,328Z" fill="rgb(147,166,197)" stroke="rgb(147,166,197)" stroke-width="1.51"></path></svg>