<svg width="600" height="400" xmlns="http://www.w3.org/2000/svg"><path d="M269,228L219,259L282,252Z" fill="rgb(104,163,203)" stroke="rgb(104,163,203)" stroke-width="1.51"></path><path d="M281,353L320,283L282,252Z" fill="rgb(69,150,174)" stroke="rgb(69,150,174)" stroke-width="1.51"></path><path d="M282,252L337,230L269,228Z" fill="rgb(89,160,202)" stroke="rgb(89,160,202)" stroke-width="1.51"></path><path d="M269,228L208,183L219,259Z" fill="rgb(125,172,209)" stroke="rgb(125,172,209)" stroke-width="1.51"></path><path d="M219,259L281,353L282,252Z" fill="rgb(90,156,181)" stroke="rgb(90,156,181)" stroke-width="1.51"></path><path d="M98,279L195,322L219,259Z" fill="rgb(124,168,189)" stroke="rgb(124,168,189)" stroke-width="1.51"></path><path d="M320,283L337,230L282,252Z" fill="rgb(75,154,195)" stroke="rgb(75,154,195)" stroke-width="1.51"></path><path d="M269,228L247,93L208,183Z" fill="rgb(149,183,216)" stroke="rgb(149,183,216)" stroke-width="1.51"></path><path d="M195,322L281,353L219,259Z" fill="rgb(98,155,171)" stroke="rgb(98,155,171)" stroke-width="1.51"></path><path d="M320,283L379,242L337,230Z" fill="rgb(65,149,194)" stroke="rgb(65,149,194)" stroke-width="1.51"></path><path d="M281,353L354,327L320,283Z" fill="rgb(58,141,159)" stroke="rgb(58,141,159)" stroke-width="1.51"></path><path d="M354,327L379,242L320,283Z" fill="rgb(52,143,176)" stroke="rgb(52,143,176)" stroke-width="1.51"></path><path d="M337,230L346,140L269,228Z" fill="rgb(99,166,206)" stroke="rgb(99,166,206)" stroke-width="1.51"></path><path d="M404,188L346,140L337,230Z" fill="rgb(96,161,203)" stroke="rgb(96,161,203)" stroke-width="1.51"></path><path d="M247,93L206,106L208,183Z" fill="rgb(177,194,222)" stroke="rgb(177,194,222)" stroke-width="1.51"></path><path d="M208,183L98,279L219,259Z" fill="rgb(137,175,211)" stroke="rgb(137,175,211)" stroke-width="1.51"></path><path d="M80,209L98,279L208,183Z" fill="rgb(155,185,217)" stroke="rgb(155,185,217)" stroke-width="1.51"></path><path d="M346,140L247,93L269,228Z" fill="rgb(139,180,214)" stroke="rgb(139,180,214)" stroke-width="1.51"></path><path d="M500,197L404,188L379,242Z" fill="rgb(65,149,179)" stroke="rgb(65,149,179)" stroke-width="1.51"></path><path d="M379,242L404,188L337,230Z" fill="rgb(72,152,196)" stroke="rgb(72,152,196)" stroke-width="1.51"></path><path d="M211,433L260,427L281,353Z" fill="rgb(78,124,130)" stroke="rgb(78,124,130)" stroke-width="1.51"></path><path d="M281,353L386,424L354,327Z" fill="rgb(47,124,135)" stroke="rgb(47,124,135)" stroke-width="1.51"></path><path d="M211,433L281,353L195,322Z" fill="rgb(92,140,143)" stroke="rgb(92,140,143)" stroke-width="1.51"></path><path d="M86,105L80,209L208,183Z" fill="rgb(183,199,224)" stroke="rgb(183,199,224)" stroke-width="1.51"></path><path d="M354,327L417,320L379,242Z" fill="rgb(35,136,164)" stroke="rgb(35,136,164)" stroke-width="1.51"></path><path d="M386,424L417,320L354,327Z" fill="rgb(33,122,133)" stroke="rgb(33,122,133)" stroke-width="1.51"></path><path d="M104,371L211,433L195,322Z" fill="rgb(108,145,145)" stroke="rgb(108,145,145)" stroke-width="1.51"></path><path d="M206,106L86,105L208,183Z" fill="rgb(191,200,226)" stroke="rgb(191,200,226)" stroke-width="1.51"></path><path d="M247,93L181,80L206,106Z" fill="rgb(193,202,226)" stroke="rgb(193,202,226)" stroke-width="1.51"></path><path d="M98,279L104,371L195,322Z" fill="rgb(126,166,171)" stroke="rgb(126,166,171)" stroke-width="1.51"></path><path d="M97,397L104,371L11,380Z" fill="rgb(126,153,149)" stroke="rgb(126,153,149)" stroke-width="1.51"></path><path d="M404,188L381,115L346,140Z" fill="rgb(118,167,205)" stroke="rgb(118,167,205)" stroke-width="1.51"></path><path d="M346,140L367,66L247,93Z" fill="rgb(154,185,217)" stroke="rgb(154,185,217)" stroke-width="1.51"></path><path d="M247,93L276,30L181,80Z" fill="rgb(193,203,227)" stroke="rgb(193,203,227)" stroke-width="1.51"></path><path d="M80,209L13,253L98,279Z" fill="rgb(159,186,218)" stroke="rgb(159,186,218)" stroke-width="1.51"></path><path d="M86,105L52,190L80,209Z" fill="rgb(192,204,228)" stroke="rgb(192,204,228)" stroke-width="1.51"></path><path d="M104,371L97,397L211,433Z" fill="rgb(111,139,138)" stroke="rgb(111,139,138)" stroke-width="1.51"></path><path d="M11,380L104,371L98,279Z" fill="rgb(134,168,165)" stroke="rgb(134,168,165)" stroke-width="1.51"></path><path d="M211,433L237,468L260,427Z" fill="rgb(84,126,131)" stroke="rgb(84,126,131)" stroke-width="1.51"></path><path d="M366,454L386,424L281,353Z" fill="rgb(42,111,122)" stroke="rgb(42,111,122)" stroke-width="1.51"></path><path d="M175,519L237,468L211,433Z" fill="rgb(93,130,133)" stroke="rgb(93,130,133)" stroke-width="1.51"></path><path d="M366,454L281,353L260,427Z" fill="rgb(55,117,127)" stroke="rgb(55,117,127)" stroke-width="1.51"></path><path d="M434,73L367,66L381,115Z" fill="rgb(142,177,205)" stroke="rgb(142,177,205)" stroke-width="1.51"></path><path d="M381,115L367,66L346,140Z" fill="rgb(140,176,211)" stroke="rgb(140,176,211)" stroke-width="1.51"></path><path d="M181,80L86,105L206,106Z" fill="rgb(207,208,230)" stroke="rgb(207,208,230)" stroke-width="1.51"></path><path d="M417,320L500,197L379,242Z" fill="rgb(40,138,170)" stroke="rgb(40,138,170)" stroke-width="1.51"></path><path d="M490,154L434,73L381,115Z" fill="rgb(122,167,187)" stroke="rgb(122,167,187)" stroke-width="1.51"></path><path d="M386,424L459,334L417,320Z" fill="rgb(21,118,120)" stroke="rgb(21,118,120)" stroke-width="1.51"></path><path d="M367,66L276,30L247,93Z" fill="rgb(171,196,223)" stroke="rgb(171,196,223)" stroke-width="1.51"></path><path d="M181,80L87,55L86,105Z" fill="rgb(220,216,234)" stroke="rgb(220,216,234)" stroke-width="1.51"></path><path d="M386,424L481,396L459,334Z" fill="rgb(9,105,103)" stroke="rgb(9,105,103)" stroke-width="1.51"></path><path d="M322,504L366,454L260,427Z" fill="rgb(51,116,125)" stroke="rgb(51,116,125)" stroke-width="1.51"></path><path d="M52,190L13,253L80,209Z" fill="rgb(171,196,223)" stroke="rgb(171,196,223)" stroke-width="1.51"></path><path d="M-21,242L13,253L-10,168Z" fill="rgb(176,202,226)" stroke="rgb(176,202,226)" stroke-width="1.51"></path><path d="M86,105L23,147L52,190Z" fill="rgb(205,211,232)" stroke="rgb(205,211,232)" stroke-width="1.51"></path><path d="M517,306L500,197L417,320Z" fill="rgb(24,129,142)" stroke="rgb(24,129,142)" stroke-width="1.51"></path><path d="M86,105L69,50L23,147Z" fill="rgb(224,219,236)" stroke="rgb(224,219,236)" stroke-width="1.51"></path><path d="M122,-32L87,55L181,80Z" fill="rgb(229,223,238)" stroke="rgb(229,223,238)" stroke-width="1.51"></path><path d="M490,154L381,115L404,188Z" fill="rgb(106,161,187)" stroke="rgb(106,161,187)" stroke-width="1.51"></path><path d="M367,66L364,-5L276,30Z" fill="rgb(169,195,222)" stroke="rgb(169,195,222)" stroke-width="1.51"></path><path d="M500,197L490,154L404,188Z" fill="rgb(81,151,169)" stroke="rgb(81,151,169)" stroke-width="1.51"></path><path d="M237,468L322,504L260,427Z" fill="rgb(69,121,128)" stroke="rgb(69,121,128)" stroke-width="1.51"></path><path d="M13,253L11,380L98,279Z" fill="rgb(144,181,188)" stroke="rgb(144,181,188)" stroke-width="1.51"></path><path d="M97,397L175,519L211,433Z" fill="rgb(105,136,136)" stroke="rgb(105,136,136)" stroke-width="1.51"></path><path d="M237,468L175,519L322,504Z" fill="rgb(80,125,131)" stroke="rgb(80,125,131)" stroke-width="1.51"></path><path d="M459,334L517,306L417,320Z" fill="rgb(5,123,123)" stroke="rgb(5,123,123)" stroke-width="1.51"></path><path d="M413,497L481,396L386,424Z" fill="rgb(16,101,103)" stroke="rgb(16,101,103)" stroke-width="1.51"></path><path d="M413,497L386,424L366,454Z" fill="rgb(28,105,115)" stroke="rgb(28,105,115)" stroke-width="1.51"></path><path d="M13,253L-47,376L11,380Z" fill="rgb(143,179,173)" stroke="rgb(143,179,173)" stroke-width="1.51"></path><path d="M-10,168L13,253L52,190Z" fill="rgb(179,204,227)" stroke="rgb(179,204,227)" stroke-width="1.51"></path><path d="M481,396L517,306L459,334Z" fill="rgb(4,114,103)" stroke="rgb(4,114,103)" stroke-width="1.51"></path><path d="M87,55L69,50L86,105Z" fill="rgb(230,222,238)" stroke="rgb(230,222,238)" stroke-width="1.51"></path><path d="M122,-32L69,50L87,55Z" fill="rgb(237,229,242)" stroke="rgb(237,229,242)" stroke-width="1.51"></path><path d="M23,147L-10,168L52,190Z" fill="rgb(198,211,232)" stroke="rgb(198,211,232)" stroke-width="1.51"></path><path d="M-20,157L-10,168L23,147Z" fill="rgb(207,216,234)" stroke="rgb(207,216,234)" stroke-width="1.51"></path><path d="M80,498L175,519L97,397Z" fill="rgb(114,140,139)" stroke="rgb(114,140,139)" stroke-width="1.51"></path><path d="M276,30L232,-37L181,80Z" fill="rgb(204,212,232)" stroke="rgb(204,212,232)" stroke-width="1.51"></path><path d="M434,73L364,-5L367,66Z" fill="rgb(154,184,211)" stroke="rgb(154,184,211)" stroke-width="1.51"></path><path d="M11,380L20,425L97,397Z" fill="rgb(125,149,144)" stroke="rgb(125,149,144)" stroke-width="1.51"></path><path d="M-47,376L20,425L11,380Z" fill="rgb(132,158,149)" stroke="rgb(132,158,149)" stroke-width="1.51"></path><path d="M-39,36L-20,157L23,147Z" fill="rgb(226,225,239)" stroke="rgb(226,225,239)" stroke-width="1.51"></path><path d="M-10,168L-20,157L-21,242Z" fill="rgb(189,209,231)" stroke="rgb(189,209,231)" stroke-width="1.51"></path><path d="M364,-5L232,-37L276,30Z" fill="rgb(187,208,230)" stroke="rgb(187,208,230)" stroke-width="1.51"></path><path d="M322,504L413,497L366,454Z" fill="rgb(35,107,121)" stroke="rgb(35,107,121)" stroke-width="1.51"></path><path d="M467,519L413,497L322,504Z" fill="rgb(25,104,111)" stroke="rgb(25,104,111)" stroke-width="1.51"></path><path d="M20,425L80,498L97,397Z" fill="rgb(123,147,142)" stroke="rgb(123,147,142)" stroke-width="1.51"></path><path d="M69,50L-39,36L23,147Z" fill="rgb(236,229,241)" stroke="rgb(236,229,241)" stroke-width="1.51"></path><path d="M159,-52L122,-32L181,80Z" fill="rgb(230,227,240)" stroke="rgb(230,227,240)" stroke-width="1.51"></path><path d="M232,-37L159,-52L181,80Z" fill="rgb(220,222,237)" stroke="rgb(220,222,237)" stroke-width="1.51"></path><path d="M-125,265L-47,376L-21,242Z" fill="rgb(151,188,196)" stroke="rgb(151,188,196)" stroke-width="1.51"></path><path d="M-21,242L-47,376L13,253Z" fill="rgb(152,189,198)" stroke="rgb(152,189,198)" stroke-width="1.51"></path><path d="M20,425L-6,454L80,498Z" fill="rgb(127,151,144)" stroke="rgb(127,151,144)" stroke-width="1.51"></path><path d="M517,306L572,280L500,197Z" fill="rgb(32,123,132)" stroke="rgb(32,123,132)" stroke-width="1.51"></path><path d="M500,197L574,173L490,154Z" fill="rgb(81,144,150)" stroke="rgb(81,144,150)" stroke-width="1.51"></path><path d="M576,326L572,280L517,306Z" fill="rgb(4,109,104)" stroke="rgb(4,109,104)" stroke-width="1.51"></path><path d="M576,326L517,306L481,396Z" fill="rgb(2,109,92)" stroke="rgb(2,109,92)" stroke-width="1.51"></path><path d="M-47,376L-6,454L20,425Z" fill="rgb(130,155,146)" stroke="rgb(130,155,146)" stroke-width="1.51"></path><path d="M-6,454L55,519L80,498Z" fill="rgb(125,149,144)" stroke="rgb(125,149,144)" stroke-width="1.51"></path><path d="M80,498L55,519L175,519Z" fill="rgb(116,142,139)" stroke="rgb(116,142,139)" stroke-width="1.51"></path><path d="M434,73L476,-37L364,-5Z" fill="rgb(153,188,202)" stroke="rgb(153,188,202)" stroke-width="1.51"></path><path d="M364,-5L246,-83L232,-37Z" fill="rgb(190,210,231)" stroke="rgb(190,210,231)" stroke-width="1.51"></path><path d="M555,93L492,26L434,73Z" fill="rgb(132,169,171)" stroke="rgb(132,169,171)" stroke-width="1.51"></path><path d="M555,93L434,73L490,154Z" fill="rgb(119,161,168)" stroke="rgb(119,161,168)" stroke-width="1.51"></path><path d="M572,280L574,173L500,197Z" fill="rgb(53,128,138)" stroke="rgb(53,128,138)" stroke-width="1.51"></path><path d="M634,103L555,93L574,173Z" fill="rgb(101,136,138)" stroke="rgb(101,136,138)" stroke-width="1.51"></path><path d="M579,426L576,326L481,396Z" fill="rgb(1,90,72)" stroke="rgb(1,90,72)" stroke-width="1.51"></path><path d="M232,-37L246,-83L159,-52Z" fill="rgb(214,219,236)" stroke="rgb(214,219,236)" stroke-width="1.51"></path><path d="M336,-114L246,-83L364,-5Z" fill="rgb(179,205,228)" stroke="rgb(179,205,228)" stroke-width="1.51"></path><path d="M476,-37L396,-55L364,-5Z" fill="rgb(158,191,207)" stroke="rgb(158,191,207)" stroke-width="1.51"></path><path d="M413,497L467,519L481,396Z" fill="rgb(5,98,94)" stroke="rgb(5,98,94)" stroke-width="1.51"></path><path d="M175,519L467,519L322,504Z" fill="rgb(50,115,125)" stroke="rgb(50,115,125)" stroke-width="1.51"></path><path d="M122,-32L11,6L69,50Z" fill="rgb(245,236,245)" stroke="rgb(245,236,245)" stroke-width="1.51"></path><path d="M-23,-43L11,6L13,-121Z" fill="rgb(255,247,251)" stroke="rgb(255,247,251)" stroke-width="1.51"></path><path d="M574,173L555,93L490,154Z" fill="rgb(99,146,149)" stroke="rgb(99,146,149)" stroke-width="1.51"></path><path d="M11,6L-39,36L69,50Z" fill="rgb(247,238,246)" stroke="rgb(247,238,246)" stroke-width="1.51"></path><path d="M-20,157L-118,195L-21,242Z" fill="rgb(184,208,229)" stroke="rgb(184,208,229)" stroke-width="1.51"></path><path d="M571,-32L476,-37L492,26Z" fill="rgb(142,178,171)" stroke="rgb(142,178,171)" stroke-width="1.51"></path><path d="M492,26L476,-37L434,73Z" fill="rgb(144,180,184)" stroke="rgb(144,180,184)" stroke-width="1.51"></path><path d="M558,504L579,426L481,396Z" fill="rgb(1,85,68)" stroke="rgb(1,85,68)" stroke-width="1.51"></path><path d="M646,232L574,173L572,280Z" fill="rgb(43,112,123)" stroke="rgb(43,112,123)" stroke-width="1.51"></path><path d="M-126,101L-118,195L-20,157Z" fill="rgb(210,218,235)" stroke="rgb(210,218,235)" stroke-width="1.51"></path><path d="M-136,451L-32,505L-6,454Z" fill="rgb(130,155,146)" stroke="rgb(130,155,146)" stroke-width="1.51"></path><path d="M-118,195L-125,265L-21,242Z" fill="rgb(171,198,224)" stroke="rgb(171,198,224)" stroke-width="1.51"></path><path d="M382,-117L336,-114L396,-55Z" fill="rgb(166,195,222)" stroke="rgb(166,195,222)" stroke-width="1.51"></path><path d="M396,-55L336,-114L364,-5Z" fill="rgb(168,196,223)" stroke="rgb(168,196,223)" stroke-width="1.51"></path><path d="M-6,454L-32,505L55,519Z" fill="rgb(130,154,146)" stroke="rgb(130,154,146)" stroke-width="1.51"></path><path d="M-136,451L-6,454L-47,376Z" fill="rgb(130,155,146)" stroke="rgb(130,155,146)" stroke-width="1.51"></path><path d="M159,-52L100,-117L122,-32Z" fill="rgb(236,230,242)" stroke="rgb(236,230,242)" stroke-width="1.51"></path><path d="M11,6L-23,-43L-39,36Z" fill="rgb(255,247,251)" stroke="rgb(255,247,251)" stroke-width="1.51"></path><path d="M246,-83L173,-128L159,-52Z" fill="rgb(220,222,237)" stroke="rgb(220,222,237)" stroke-width="1.51"></path><path d="M336,-114L173,-128L246,-83Z" fill="rgb(201,214,233)" stroke="rgb(201,214,233)" stroke-width="1.51"></path><path d="M555,93L594,67L492,26Z" fill="rgb(126,158,154)" stroke="rgb(126,158,154)" stroke-width="1.51"></path><path d="M634,103L594,67L555,93Z" fill="rgb(113,141,139)" stroke="rgb(113,141,139)" stroke-width="1.51"></path><path d="M646,232L572,280L666,299Z" fill="rgb(24,103,110)" stroke="rgb(24,103,110)" stroke-width="1.51"></path><path d="M336,-114L382,-117L173,-128Z" fill="rgb(184,208,229)" stroke="rgb(184,208,229)" stroke-width="1.51"></path><path d="M487,-105L382,-117L396,-55Z" fill="rgb(155,190,204)" stroke="rgb(155,190,204)" stroke-width="1.51"></path><path d="M666,299L572,280L576,326Z" fill="rgb(4,98,94)" stroke="rgb(4,98,94)" stroke-width="1.51"></path><path d="M663,364L666,299L576,326Z" fill="rgb(3,93,81)" stroke="rgb(3,93,81)" stroke-width="1.51"></path><path d="M467,519L558,504L481,396Z" fill="rgb(3,92,78)" stroke="rgb(3,92,78)" stroke-width="1.51"></path><path d="M-125,265L-133,363L-47,376Z" fill="rgb(143,179,175)" stroke="rgb(143,179,175)" stroke-width="1.51"></path><path d="M173,-128L100,-117L159,-52Z" fill="rgb(232,228,241)" stroke="rgb(232,228,241)" stroke-width="1.51"></path><path d="M13,-121L11,6L122,-32Z" fill="rgb(249,240,247)" stroke="rgb(249,240,247)" stroke-width="1.51"></path><path d="M-39,36L-126,101L-20,157Z" fill="rgb(232,228,240)" stroke="rgb(232,228,240)" stroke-width="1.51"></path><path d="M-118,195L-126,101L-125,265Z" fill="rgb(190,210,231)" stroke="rgb(190,210,231)" stroke-width="1.51"></path><path d="M-125,265L-126,101L-133,363Z" fill="rgb(168,196,223)" stroke="rgb(168,196,223)" stroke-width="1.51"></path><path d="M-101,24L-126,101L-39,36Z" fill="rgb(244,236,245)" stroke="rgb(244,236,245)" stroke-width="1.51"></path><path d="M646,232L634,103L574,173Z" fill="rgb(76,124,130)" stroke="rgb(76,124,130)" stroke-width="1.51"></path><path d="M646,232L731,136L634,103Z" fill="rgb(84,126,131)" stroke="rgb(84,126,131)" stroke-width="1.51"></path><path d="M663,364L576,326L579,426Z" fill="rgb(1,80,63)" stroke="rgb(1,80,63)" stroke-width="1.51"></path><path d="M-23,-43L-101,24L-39,36Z" fill="rgb(254,246,250)" stroke="rgb(254,246,250)" stroke-width="1.51"></path><path d="M650,416L663,364L579,426Z" fill="rgb(1,70,54)" stroke="rgb(1,70,54)" stroke-width="1.51"></path><path d="M617,21L571,-32L594,67Z" fill="rgb(128,153,146)" stroke="rgb(128,153,146)" stroke-width="1.51"></path><path d="M594,67L571,-32L492,26Z" fill="rgb(133,164,157)" stroke="rgb(133,164,157)" stroke-width="1.51"></path><path d="M476,-37L487,-105L396,-55Z" fill="rgb(149,187,192)" stroke="rgb(149,187,192)" stroke-width="1.51"></path><path d="M571,-32L487,-105L476,-37Z" fill="rgb(142,178,171)" stroke="rgb(142,178,171)" stroke-width="1.51"></path><path d="M654,527L650,416L579,426Z" fill="rgb(1,70,54)" stroke="rgb(1,70,54)" stroke-width="1.51"></path><path d="M-132,-54L-136,451L-133,363Z" fill="rgb(164,194,219)" stroke="rgb(164,194,219)" stroke-width="1.51"></path><path d="M-133,363L-136,451L-47,376Z" fill="rgb(131,156,147)" stroke="rgb(131,156,147)" stroke-width="1.51"></path><path d="M634,103L617,21L594,67Z" fill="rgb(118,143,140)" stroke="rgb(118,143,140)" stroke-width="1.51"></path><path d="M-136,451L-135,469L-32,505Z" fill="rgb(130,155,146)" stroke="rgb(130,155,146)" stroke-width="1.51"></path><path d="M-23,-43L-132,-54L-101,24Z" fill="rgb(255,247,251)" stroke="rgb(255,247,251)" stroke-width="1.51"></path><path d="M100,-117L13,-121L122,-32Z" fill="rgb(245,236,245)" stroke="rgb(245,236,245)" stroke-width="1.51"></path><path d="M173,-128L13,-121L100,-117Z" fill="rgb(241,234,244)" stroke="rgb(241,234,244)" stroke-width="1.51"></path><path d="M681,408L681,367L663,364Z" fill="rgb(1,77,61)" stroke="rgb(1,77,61)" stroke-width="1.51"></path><path d="M663,364L681,367L666,299Z" fill="rgb(2,90,74)" stroke="rgb(2,90,74)" stroke-width="1.51"></path><path d="M666,299L723,264L646,232Z" fill="rgb(26,104,112)" stroke="rgb(26,104,112)" stroke-width="1.51"></path><path d="M650,416L681,408L663,364Z" fill="rgb(1,71,55)" stroke="rgb(1,71,55)" stroke-width="1.51"></path><path d="M732,482L681,408L650,416Z" fill="rgb(1,70,54)" stroke="rgb(1,70,54)" stroke-width="1.51"></path><path d="M13,-121L-56,-90L-23,-43Z" fill="rgb(255,247,251)" stroke="rgb(255,247,251)" stroke-width="1.51"></path><path d="M732,482L723,264L681,367Z" fill="rgb(1,81,64)" stroke="rgb(1,81,64)" stroke-width="1.51"></path><path d="M681,367L723,264L666,299Z" fill="rgb(4,97,90)" stroke="rgb(4,97,90)" stroke-width="1.51"></path><path d="M634,103L691,51L617,21Z" fill="rgb(119,144,140)" stroke="rgb(119,144,140)" stroke-width="1.51"></path><path d="M731,136L691,51L634,103Z" fill="rgb(109,138,137)" stroke="rgb(109,138,137)" stroke-width="1.51"></path><path d="M617,21L643,-45L571,-32Z" fill="rgb(130,155,146)" stroke="rgb(130,155,146)" stroke-width="1.51"></path><path d="M571,-32L582,-113L487,-105Z" fill="rgb(138,170,161)" stroke="rgb(138,170,161)" stroke-width="1.51"></path><path d="M732,482L737,223L723,264Z" fill="rgb(4,94,84)" stroke="rgb(4,94,84)" stroke-width="1.51"></path><path d="M558,504L654,527L579,426Z" fill="rgb(1,70,54)" stroke="rgb(1,70,54)" stroke-width="1.51"></path><path d="M467,519L654,527L558,504Z" fill="rgb(1,80,63)" stroke="rgb(1,80,63)" stroke-width="1.51"></path><path d="M175,519L654,527L467,519Z" fill="rgb(14,101,101)" stroke="rgb(14,101,101)" stroke-width="1.51"></path><path d="M55,519L654,527L175,519Z" fill="rgb(58,118,127)" stroke="rgb(58,118,127)" stroke-width="1.51"></path><path d="M723,264L737,223L646,232Z" fill="rgb(38,108,121)" stroke="rgb(38,108,121)" stroke-width="1.51"></path><path d="M732,482L681,367L681,408Z" fill="rgb(1,70,54)" stroke="rgb(1,70,54)" stroke-width="1.51"></path><path d="M-56,-90L-132,-54L-23,-43Z" fill="rgb(255,247,251)" stroke="rgb(255,247,251)" stroke-width="1.51"></path><path d="M-101,24L-132,-54L-126,101Z" fill="rgb(250,242,248)" stroke="rgb(250,242,248)" stroke-width="1.51"></path><path d="M-126,101L-132,-54L-133,363Z" fill="rgb(216,220,236)" stroke="rgb(216,220,236)" stroke-width="1.51"></path><path d="M706,-14L643,-45L617,21Z" fill="rgb(130,155,146)" stroke="rgb(130,155,146)" stroke-width="1.51"></path><path d="M612,-98L582,-113L571,-32Z" fill="rgb(132,158,149)" stroke="rgb(132,158,149)" stroke-width="1.51"></path><path d="M487,-105L582,-113L382,-117Z" fill="rgb(146,182,181)" stroke="rgb(146,182,181)" stroke-width="1.51"></path><path d="M382,-117L740,-127L173,-128Z" fill="rgb(153,189,200)" stroke="rgb(153,189,200)" stroke-width="1.51"></path><path d="M737,223L731,136L646,232Z" fill="rgb(58,118,127)" stroke="rgb(58,118,127)" stroke-width="1.51"></path><path d="M-56,-90L-127,-73L-132,-54Z" fill="rgb(255,247,251)" stroke="rgb(255,247,251)" stroke-width="1.51"></path><path d="M13,-121L-127,-73L-56,-90Z" fill="rgb(255,247,251)" stroke="rgb(255,247,251)" stroke-width="1.51"></path><path d="M643,-45L612,-98L571,-32Z" fill="rgb(130,155,146)" stroke="rgb(130,155,146)" stroke-width="1.51"></path><path d="M643,-45L740,-127L612,-98Z" fill="rgb(130,155,146)" stroke="rgb(130,155,146)" stroke-width="1.51"></path><path d="M691,51L706,-14L617,21Z" fill="rgb(127,151,144)" stroke="rgb(127,151,144)" stroke-width="1.51"></path><path d="M731,136L706,-14L691,51Z" fill="rgb(120,144,140)" stroke="rgb(120,144,140)" stroke-width="1.51"></path><path d="M654,527L732,482L650,416Z" fill="rgb(1,70,54)" stroke="rgb(1,70,54)" stroke-width="1.51"></path><path d="M731,136L740,-127L706,-14Z" fill="rgb(130,155,146)" stroke="rgb(130,155,146)" stroke-width="1.51"></path><path d="M706,-14L740,-127L643,-45Z" fill="rgb(130,155,146)" stroke="rgb(130,155,146)" stroke-width="1.51"></path><path d="M612,-98L740,-127L582,-113Z" fill="rgb(130,155,146)" stroke="rgb(130,155,146)" stroke-width="1.51"></path><path d="M582,-113L740,-127L382,-117Z" fill="rgb(135,164,155)" stroke="rgb(135,164,155)" stroke-width="1.51"></path><path d="M737,223L740,-127L731,136Z" fill="rgb(115,141,139)" stroke="rgb(115,141,139)" stroke-width="1.51"></path></svg>