<svg width="600" height="400" xmlns="http://www.w3.org/2000/svg"><path d="M335,201L339,276L410,201Z" fill="rgb(221,222,237)" stroke="rgb(221,222,237)" stroke-width="1.51"></path><path d="M339,276L415,277L410,201Z" fill="rgb(201,200,225)" stroke="rgb(201,200,225)" stroke-width="1.51"></path><path d="M410,201L336,123L335,201Z" fill="rgb(235,225,221)" stroke="rgb(235,225,221)" stroke-width="1.51"></path><path d="M485,198L414,128L410,201Z" fill="rgb(209,193,204)" stroke="rgb(209,193,204)" stroke-width="1.51"></path><path d="M335,201L259,275L339,276Z" fill="rgb(223,223,237)" stroke="rgb(223,223,237)" stroke-width="1.51"></path><path d="M261,125L260,203L335,201Z" fill="rgb(251,237,219)" stroke="rgb(251,237,219)" stroke-width="1.51"></path><path d="M339,276L413,350L415,277Z" fill="rgb(175,168,206)" stroke="rgb(175,168,206)" stroke-width="1.51"></path><path d="M262,346L338,349L339,276Z" fill="rgb(182,172,206)" stroke="rgb(182,172,206)" stroke-width="1.51"></path><path d="M415,277L485,273L410,201Z" fill="rgb(185,180,214)" stroke="rgb(185,180,214)" stroke-width="1.51"></path><path d="M486,348L485,273L415,277Z" fill="rgb(148,137,187)" stroke="rgb(148,137,187)" stroke-width="1.51"></path><path d="M485,273L485,198L410,201Z" fill="rgb(186,180,212)" stroke="rgb(186,180,212)" stroke-width="1.51"></path><path d="M414,128L336,123L410,201Z" fill="rgb(230,206,194)" stroke="rgb(230,206,194)" stroke-width="1.51"></path><path d="M260,203L259,275L335,201Z" fill="rgb(239,234,235)" stroke="rgb(239,234,235)" stroke-width="1.51"></path><path d="M338,349L413,350L339,276Z" fill="rgb(168,159,201)" stroke="rgb(168,159,201)" stroke-width="1.51"></path><path d="M259,275L262,346L339,276Z" fill="rgb(202,192,212)" stroke="rgb(202,192,212)" stroke-width="1.51"></path><path d="M336,123L261,125L335,201Z" fill="rgb(250,228,203)" stroke="rgb(250,228,203)" stroke-width="1.51"></path><path d="M260,203L185,202L259,275Z" fill="rgb(242,224,207)" stroke="rgb(242,224,207)" stroke-width="1.51"></path><path d="M560,197L489,122L485,198Z" fill="rgb(181,150,179)" stroke="rgb(181,150,179)" stroke-width="1.51"></path><path d="M413,350L486,348L415,277Z" fill="rgb(143,130,183)" stroke="rgb(143,130,183)" stroke-width="1.51"></path><path d="M485,198L489,122L414,128Z" fill="rgb(201,171,173)" stroke="rgb(201,171,173)" stroke-width="1.51"></path><path d="M414,51L335,52L336,123Z" fill="rgb(228,170,132)" stroke="rgb(228,170,132)" stroke-width="1.51"></path><path d="M560,197L485,198L485,273Z" fill="rgb(168,151,197)" stroke="rgb(168,151,197)" stroke-width="1.51"></path><path d="M336,123L335,52L261,125Z" fill="rgb(248,199,154)" stroke="rgb(248,199,154)" stroke-width="1.51"></path><path d="M414,51L336,123L414,128Z" fill="rgb(227,177,146)" stroke="rgb(227,177,146)" stroke-width="1.51"></path><path d="M413,350L486,427L486,348Z" fill="rgb(107,78,148)" stroke="rgb(107,78,148)" stroke-width="1.51"></path><path d="M338,349L410,423L413,350Z" fill="rgb(135,109,168)" stroke="rgb(135,109,168)" stroke-width="1.51"></path><path d="M336,424L410,423L338,349Z" fill="rgb(130,106,153)" stroke="rgb(130,106,153)" stroke-width="1.51"></path><path d="M489,122L414,51L414,128Z" fill="rgb(209,154,134)" stroke="rgb(209,154,134)" stroke-width="1.51"></path><path d="M187,127L185,202L260,203Z" fill="rgb(255,219,176)" stroke="rgb(255,219,176)" stroke-width="1.51"></path><path d="M259,275L189,351L262,346Z" fill="rgb(191,163,174)" stroke="rgb(191,163,174)" stroke-width="1.51"></path><path d="M262,346L336,424L338,349Z" fill="rgb(157,130,180)" stroke="rgb(157,130,180)" stroke-width="1.51"></path><path d="M562,272L560,197L485,273Z" fill="rgb(149,125,184)" stroke="rgb(149,125,184)" stroke-width="1.51"></path><path d="M185,202L185,277L259,275Z" fill="rgb(234,204,185)" stroke="rgb(234,204,185)" stroke-width="1.51"></path><path d="M262,346L261,428L336,424Z" fill="rgb(146,116,152)" stroke="rgb(146,116,152)" stroke-width="1.51"></path><path d="M486,348L562,272L485,273Z" fill="rgb(131,111,173)" stroke="rgb(131,111,173)" stroke-width="1.51"></path><path d="M261,125L187,127L260,203Z" fill="rgb(255,218,170)" stroke="rgb(255,218,170)" stroke-width="1.51"></path><path d="M259,51L187,127L261,125Z" fill="rgb(249,189,121)" stroke="rgb(249,189,121)" stroke-width="1.51"></path><path d="M185,277L189,351L259,275Z" fill="rgb(207,172,168)" stroke="rgb(207,172,168)" stroke-width="1.51"></path><path d="M562,121L487,53L489,122Z" fill="rgb(180,112,113)" stroke="rgb(180,112,113)" stroke-width="1.51"></path><path d="M489,122L487,53L414,51Z" fill="rgb(191,127,110)" stroke="rgb(191,127,110)" stroke-width="1.51"></path><path d="M260,-24L259,51L335,52Z" fill="rgb(213,157,118)" stroke="rgb(213,157,118)" stroke-width="1.51"></path><path d="M335,52L259,51L261,125Z" fill="rgb(243,183,129)" stroke="rgb(243,183,129)" stroke-width="1.51"></path><path d="M486,348L561,352L562,272Z" fill="rgb(106,76,153)" stroke="rgb(106,76,153)" stroke-width="1.51"></path><path d="M486,427L561,352L486,348Z" fill="rgb(87,51,132)" stroke="rgb(87,51,132)" stroke-width="1.51"></path><path d="M189,351L261,428L262,346Z" fill="rgb(163,119,147)" stroke="rgb(163,119,147)" stroke-width="1.51"></path><path d="M410,497L486,427L410,423Z" fill="rgb(105,77,135)" stroke="rgb(105,77,135)" stroke-width="1.51"></path><path d="M410,423L486,427L413,350Z" fill="rgb(104,77,135)" stroke="rgb(104,77,135)" stroke-width="1.51"></path><path d="M339,497L410,423L336,424Z" fill="rgb(129,105,152)" stroke="rgb(129,105,152)" stroke-width="1.51"></path><path d="M560,197L562,121L489,122Z" fill="rgb(175,124,149)" stroke="rgb(175,124,149)" stroke-width="1.51"></path><path d="M634,124L562,121L560,197Z" fill="rgb(155,106,125)" stroke="rgb(155,106,125)" stroke-width="1.51"></path><path d="M259,51L187,51L187,127Z" fill="rgb(240,165,85)" stroke="rgb(240,165,85)" stroke-width="1.51"></path><path d="M110,201L110,272L185,202Z" fill="rgb(239,185,144)" stroke="rgb(239,185,144)" stroke-width="1.51"></path><path d="M261,428L339,497L336,424Z" fill="rgb(141,115,157)" stroke="rgb(141,115,157)" stroke-width="1.51"></path><path d="M339,497L410,497L410,423Z" fill="rgb(121,96,147)" stroke="rgb(121,96,147)" stroke-width="1.51"></path><path d="M414,51L412,-24L335,52Z" fill="rgb(191,136,117)" stroke="rgb(191,136,117)" stroke-width="1.51"></path><path d="M259,51L188,-25L187,51Z" fill="rgb(209,140,77)" stroke="rgb(209,140,77)" stroke-width="1.51"></path><path d="M484,-26L412,-24L414,51Z" fill="rgb(155,106,102)" stroke="rgb(155,106,102)" stroke-width="1.51"></path><path d="M484,-26L414,51L487,53Z" fill="rgb(163,104,100)" stroke="rgb(163,104,100)" stroke-width="1.51"></path><path d="M185,277L112,349L189,351Z" fill="rgb(191,134,127)" stroke="rgb(191,134,127)" stroke-width="1.51"></path><path d="M189,351L185,427L261,428Z" fill="rgb(150,98,111)" stroke="rgb(150,98,111)" stroke-width="1.51"></path><path d="M185,202L110,272L185,277Z" fill="rgb(233,186,153)" stroke="rgb(233,186,153)" stroke-width="1.51"></path><path d="M110,201L185,202L187,127Z" fill="rgb(252,200,143)" stroke="rgb(252,200,143)" stroke-width="1.51"></path><path d="M112,123L110,201L187,127Z" fill="rgb(246,179,106)" stroke="rgb(246,179,106)" stroke-width="1.51"></path><path d="M562,121L561,50L487,53Z" fill="rgb(163,81,91)" stroke="rgb(163,81,91)" stroke-width="1.51"></path><path d="M562,272L636,201L560,197Z" fill="rgb(141,116,162)" stroke="rgb(141,116,162)" stroke-width="1.51"></path><path d="M562,121L634,124L561,50Z" fill="rgb(150,79,83)" stroke="rgb(150,79,83)" stroke-width="1.51"></path><path d="M636,276L636,201L562,272Z" fill="rgb(125,100,149)" stroke="rgb(125,100,149)" stroke-width="1.51"></path><path d="M634,350L636,276L562,272Z" fill="rgb(99,71,132)" stroke="rgb(99,71,132)" stroke-width="1.51"></path><path d="M261,428L264,500L339,497Z" fill="rgb(145,116,152)" stroke="rgb(145,116,152)" stroke-width="1.51"></path><path d="M115,427L185,427L189,351Z" fill="rgb(147,81,84)" stroke="rgb(147,81,84)" stroke-width="1.51"></path><path d="M412,-24L338,-29L335,52Z" fill="rgb(179,135,117)" stroke="rgb(179,135,117)" stroke-width="1.51"></path><path d="M561,352L634,350L562,272Z" fill="rgb(89,58,128)" stroke="rgb(89,58,128)" stroke-width="1.51"></path><path d="M486,427L563,427L561,352Z" fill="rgb(66,22,106)" stroke="rgb(66,22,106)" stroke-width="1.51"></path><path d="M484,496L563,427L486,427Z" fill="rgb(75,39,113)" stroke="rgb(75,39,113)" stroke-width="1.51"></path><path d="M410,497L484,496L486,427Z" fill="rgb(95,67,128)" stroke="rgb(95,67,128)" stroke-width="1.51"></path><path d="M110,272L112,349L185,277Z" fill="rgb(203,143,124)" stroke="rgb(203,143,124)" stroke-width="1.51"></path><path d="M338,-29L260,-24L335,52Z" fill="rgb(191,147,122)" stroke="rgb(191,147,122)" stroke-width="1.51"></path><path d="M111,52L112,123L187,51Z" fill="rgb(226,135,33)" stroke="rgb(226,135,33)" stroke-width="1.51"></path><path d="M187,51L112,123L187,127Z" fill="rgb(242,162,71)" stroke="rgb(242,162,71)" stroke-width="1.51"></path><path d="M636,201L634,124L560,197Z" fill="rgb(148,111,139)" stroke="rgb(148,111,139)" stroke-width="1.51"></path><path d="M187,497L264,500L261,428Z" fill="rgb(149,106,127)" stroke="rgb(149,106,127)" stroke-width="1.51"></path><path d="M339,497L264,500L410,497Z" fill="rgb(135,110,154)" stroke="rgb(135,110,154)" stroke-width="1.51"></path><path d="M410,497L563,501L484,496Z" fill="rgb(85,55,121)" stroke="rgb(85,55,121)" stroke-width="1.51"></path><path d="M563,427L634,350L561,352Z" fill="rgb(61,16,99)" stroke="rgb(61,16,99)" stroke-width="1.51"></path><path d="M412,-24L415,-99L338,-29Z" fill="rgb(171,125,113)" stroke="rgb(171,125,113)" stroke-width="1.51"></path><path d="M561,50L484,-26L487,53Z" fill="rgb(144,76,87)" stroke="rgb(144,76,87)" stroke-width="1.51"></path><path d="M185,427L187,497L261,428Z" fill="rgb(150,98,111)" stroke="rgb(150,98,111)" stroke-width="1.51"></path><path d="M115,427L187,497L185,427Z" fill="rgb(147,80,83)" stroke="rgb(147,80,83)" stroke-width="1.51"></path><path d="M112,-26L111,52L187,51Z" fill="rgb(196,110,27)" stroke="rgb(196,110,27)" stroke-width="1.51"></path><path d="M112,123L39,198L110,201Z" fill="rgb(232,168,112)" stroke="rgb(232,168,112)" stroke-width="1.51"></path><path d="M260,-24L188,-25L259,51Z" fill="rgb(193,137,90)" stroke="rgb(193,137,90)" stroke-width="1.51"></path><path d="M259,-101L188,-25L260,-24Z" fill="rgb(192,137,90)" stroke="rgb(192,137,90)" stroke-width="1.51"></path><path d="M112,349L115,427L189,351Z" fill="rgb(158,82,89)" stroke="rgb(158,82,89)" stroke-width="1.51"></path><path d="M484,-26L415,-99L412,-24Z" fill="rgb(155,106,102)" stroke="rgb(155,106,102)" stroke-width="1.51"></path><path d="M561,50L562,-25L484,-26Z" fill="rgb(118,50,77)" stroke="rgb(118,50,77)" stroke-width="1.51"></path><path d="M636,47L562,-25L561,50Z" fill="rgb(113,41,57)" stroke="rgb(113,41,57)" stroke-width="1.51"></path><path d="M634,124L636,47L561,50Z" fill="rgb(135,59,61)" stroke="rgb(135,59,61)" stroke-width="1.51"></path><path d="M711,122L636,47L634,124Z" fill="rgb(144,74,75)" stroke="rgb(144,74,75)" stroke-width="1.51"></path><path d="M264,500L563,501L410,497Z" fill="rgb(114,87,142)" stroke="rgb(114,87,142)" stroke-width="1.51"></path><path d="M484,496L563,501L563,427Z" fill="rgb(66,22,106)" stroke="rgb(66,22,106)" stroke-width="1.51"></path><path d="M563,427L639,428L634,350Z" fill="rgb(45,0,75)" stroke="rgb(45,0,75)" stroke-width="1.51"></path><path d="M563,501L639,428L563,427Z" fill="rgb(48,3,80)" stroke="rgb(48,3,80)" stroke-width="1.51"></path><path d="M715,347L714,273L636,276Z" fill="rgb(100,72,132)" stroke="rgb(100,72,132)" stroke-width="1.51"></path><path d="M636,276L714,273L636,201Z" fill="rgb(125,100,149)" stroke="rgb(125,100,149)" stroke-width="1.51"></path><path d="M636,201L711,122L634,124Z" fill="rgb(149,102,118)" stroke="rgb(149,102,118)" stroke-width="1.51"></path><path d="M34,128L39,198L112,123Z" fill="rgb(221,151,87)" stroke="rgb(221,151,87)" stroke-width="1.51"></path><path d="M110,201L39,198L110,272Z" fill="rgb(225,167,130)" stroke="rgb(225,167,130)" stroke-width="1.51"></path><path d="M110,272L36,347L112,349Z" fill="rgb(173,107,100)" stroke="rgb(173,107,100)" stroke-width="1.51"></path><path d="M112,349L37,427L115,427Z" fill="rgb(127,51,58)" stroke="rgb(127,51,58)" stroke-width="1.51"></path><path d="M484,-100L415,-99L484,-26Z" fill="rgb(145,94,96)" stroke="rgb(145,94,96)" stroke-width="1.51"></path><path d="M338,-29L259,-101L260,-24Z" fill="rgb(194,146,115)" stroke="rgb(194,146,115)" stroke-width="1.51"></path><path d="M39,198L34,273L110,272Z" fill="rgb(206,148,121)" stroke="rgb(206,148,121)" stroke-width="1.51"></path><path d="M415,-99L337,-102L338,-29Z" fill="rgb(179,134,117)" stroke="rgb(179,134,117)" stroke-width="1.51"></path><path d="M715,347L636,276L634,350Z" fill="rgb(85,54,120)" stroke="rgb(85,54,120)" stroke-width="1.51"></path><path d="M714,273L715,202L636,201Z" fill="rgb(135,110,154)" stroke="rgb(135,110,154)" stroke-width="1.51"></path><path d="M34,273L36,347L110,272Z" fill="rgb(179,117,106)" stroke="rgb(179,117,106)" stroke-width="1.51"></path><path d="M415,-99L484,-100L337,-102Z" fill="rgb(164,116,108)" stroke="rgb(164,116,108)" stroke-width="1.51"></path><path d="M562,-25L484,-100L484,-26Z" fill="rgb(127,67,84)" stroke="rgb(127,67,84)" stroke-width="1.51"></path><path d="M-38,199L-35,274L34,273Z" fill="rgb(176,131,116)" stroke="rgb(176,131,116)" stroke-width="1.51"></path><path d="M34,52L34,128L112,123Z" fill="rgb(210,123,38)" stroke="rgb(210,123,38)" stroke-width="1.51"></path><path d="M34,52L112,123L111,52Z" fill="rgb(208,115,15)" stroke="rgb(208,115,15)" stroke-width="1.51"></path><path d="M337,-102L259,-101L338,-29Z" fill="rgb(191,146,122)" stroke="rgb(191,146,122)" stroke-width="1.51"></path><path d="M188,-25L112,-26L187,51Z" fill="rgb(185,112,42)" stroke="rgb(185,112,42)" stroke-width="1.51"></path><path d="M715,202L711,122L636,201Z" fill="rgb(147,112,139)" stroke="rgb(147,112,139)" stroke-width="1.51"></path><path d="M709,423L715,347L634,350Z" fill="rgb(58,12,95)" stroke="rgb(58,12,95)" stroke-width="1.51"></path><path d="M714,273L715,347L715,202Z" fill="rgb(114,87,142)" stroke="rgb(114,87,142)" stroke-width="1.51"></path><path d="M37,427L112,499L115,427Z" fill="rgb(127,51,58)" stroke="rgb(127,51,58)" stroke-width="1.51"></path><path d="M115,427L112,499L187,497Z" fill="rgb(142,70,71)" stroke="rgb(142,70,71)" stroke-width="1.51"></path><path d="M187,497L112,499L264,500Z" fill="rgb(150,90,97)" stroke="rgb(150,90,97)" stroke-width="1.51"></path><path d="M187,-102L112,-26L188,-25Z" fill="rgb(185,112,42)" stroke="rgb(185,112,42)" stroke-width="1.51"></path><path d="M709,-24L636,-24L636,47Z" fill="rgb(92,28,48)" stroke="rgb(92,28,48)" stroke-width="1.51"></path><path d="M636,47L636,-24L562,-25Z" fill="rgb(92,28,48)" stroke="rgb(92,28,48)" stroke-width="1.51"></path><path d="M562,-25L560,-103L484,-100Z" fill="rgb(118,50,77)" stroke="rgb(118,50,77)" stroke-width="1.51"></path><path d="M639,428L709,423L634,350Z" fill="rgb(45,0,75)" stroke="rgb(45,0,75)" stroke-width="1.51"></path><path d="M563,501L638,503L639,428Z" fill="rgb(45,0,75)" stroke="rgb(45,0,75)" stroke-width="1.51"></path><path d="M264,500L638,503L563,501Z" fill="rgb(84,53,120)" stroke="rgb(84,53,120)" stroke-width="1.51"></path><path d="M39,502L638,503L264,500Z" fill="rgb(141,115,156)" stroke="rgb(141,115,156)" stroke-width="1.51"></path><path d="M713,502L709,423L639,428Z" fill="rgb(45,0,75)" stroke="rgb(45,0,75)" stroke-width="1.51"></path><path d="M36,-25L34,52L111,52Z" fill="rgb(170,83,7)" stroke="rgb(170,83,7)" stroke-width="1.51"></path><path d="M36,347L37,427L112,349Z" fill="rgb(134,54,72)" stroke="rgb(134,54,72)" stroke-width="1.51"></path><path d="M-38,352L37,427L36,347Z" fill="rgb(112,42,66)" stroke="rgb(112,42,66)" stroke-width="1.51"></path><path d="M112,-26L36,-25L111,52Z" fill="rgb(162,82,10)" stroke="rgb(162,82,10)" stroke-width="1.51"></path><path d="M259,-101L187,-102L188,-25Z" fill="rgb(191,129,74)" stroke="rgb(191,129,74)" stroke-width="1.51"></path><path d="M337,-102L187,-102L259,-101Z" fill="rgb(193,142,103)" stroke="rgb(193,142,103)" stroke-width="1.51"></path><path d="M637,-103L560,-103L562,-25Z" fill="rgb(98,33,54)" stroke="rgb(98,33,54)" stroke-width="1.51"></path><path d="M484,-100L560,-103L337,-102Z" fill="rgb(145,95,96)" stroke="rgb(145,95,96)" stroke-width="1.51"></path><path d="M337,-102L113,-103L187,-102Z" fill="rgb(191,129,75)" stroke="rgb(191,129,75)" stroke-width="1.51"></path><path d="M636,-24L637,-103L562,-25Z" fill="rgb(92,28,48)" stroke="rgb(92,28,48)" stroke-width="1.51"></path><path d="M711,122L713,49L636,47Z" fill="rgb(135,58,61)" stroke="rgb(135,58,61)" stroke-width="1.51"></path><path d="M715,202L713,49L711,122Z" fill="rgb(150,90,96)" stroke="rgb(150,90,96)" stroke-width="1.51"></path><path d="M34,273L-35,274L36,347Z" fill="rgb(156,103,101)" stroke="rgb(156,103,101)" stroke-width="1.51"></path><path d="M-38,199L34,273L39,198Z" fill="rgb(191,144,121)" stroke="rgb(191,144,121)" stroke-width="1.51"></path><path d="M-38,199L39,198L34,128Z" fill="rgb(199,146,105)" stroke="rgb(199,146,105)" stroke-width="1.51"></path><path d="M-40,123L-38,199L34,128Z" fill="rgb(192,134,83)" stroke="rgb(192,134,83)" stroke-width="1.51"></path><path d="M713,49L709,-24L636,47Z" fill="rgb(107,36,51)" stroke="rgb(107,36,51)" stroke-width="1.51"></path><path d="M112,499L39,502L264,500Z" fill="rgb(142,70,71)" stroke="rgb(142,70,71)" stroke-width="1.51"></path><path d="M37,427L39,502L112,499Z" fill="rgb(118,43,54)" stroke="rgb(118,43,54)" stroke-width="1.51"></path><path d="M-35,502L39,502L37,427Z" fill="rgb(98,31,49)" stroke="rgb(98,31,49)" stroke-width="1.51"></path><path d="M37,-103L36,-25L112,-26Z" fill="rgb(153,74,8)" stroke="rgb(153,74,8)" stroke-width="1.51"></path><path d="M34,52L-40,123L34,128Z" fill="rgb(187,109,36)" stroke="rgb(187,109,36)" stroke-width="1.51"></path><path d="M-35,274L-38,352L36,347Z" fill="rgb(136,82,89)" stroke="rgb(136,82,89)" stroke-width="1.51"></path><path d="M-111,348L-38,352L-35,274Z" fill="rgb(135,81,89)" stroke="rgb(135,81,89)" stroke-width="1.51"></path><path d="M187,-102L113,-103L112,-26Z" fill="rgb(179,101,27)" stroke="rgb(179,101,27)" stroke-width="1.51"></path><path d="M560,-103L113,-103L337,-102Z" fill="rgb(185,141,120)" stroke="rgb(185,141,120)" stroke-width="1.51"></path><path d="M-38,199L-115,272L-35,274Z" fill="rgb(176,131,116)" stroke="rgb(176,131,116)" stroke-width="1.51"></path><path d="M-38,47L-40,123L34,52Z" fill="rgb(171,91,13)" stroke="rgb(171,91,13)" stroke-width="1.51"></path><path d="M709,-24L637,-103L636,-24Z" fill="rgb(92,28,48)" stroke="rgb(92,28,48)" stroke-width="1.51"></path><path d="M638,503L713,502L639,428Z" fill="rgb(45,0,75)" stroke="rgb(45,0,75)" stroke-width="1.51"></path><path d="M709,423L713,502L715,347Z" fill="rgb(45,0,75)" stroke="rgb(45,0,75)" stroke-width="1.51"></path><path d="M-36,-23L34,52L36,-25Z" fill="rgb(133,62,8)" stroke="rgb(133,62,8)" stroke-width="1.51"></path><path d="M-36,-23L-38,47L34,52Z" fill="rgb(143,68,8)" stroke="rgb(143,68,8)" stroke-width="1.51"></path><path d="M-38,352L-38,427L37,427Z" fill="rgb(92,28,48)" stroke="rgb(92,28,48)" stroke-width="1.51"></path><path d="M-113,425L-38,427L-38,352Z" fill="rgb(92,28,48)" stroke="rgb(92,28,48)" stroke-width="1.51"></path><path d="M113,-103L37,-103L112,-26Z" fill="rgb(162,82,10)" stroke="rgb(162,82,10)" stroke-width="1.51"></path><path d="M709,-24L712,-101L637,-103Z" fill="rgb(92,28,48)" stroke="rgb(92,28,48)" stroke-width="1.51"></path><path d="M713,49L712,-101L709,-24Z" fill="rgb(92,28,48)" stroke="rgb(92,28,48)" stroke-width="1.51"></path><path d="M715,202L712,-101L713,49Z" fill="rgb(122,46,56)" stroke="rgb(122,46,56)" stroke-width="1.51"></path><path d="M-38,-103L-36,-23L36,-25Z" fill="rgb(127,59,8)" stroke="rgb(127,59,8)" stroke-width="1.51"></path><path d="M39,502L-35,502L638,503Z" fill="rgb(150,99,113)" stroke="rgb(150,99,113)" stroke-width="1.51"></path><path d="M-38,427L-35,502L37,427Z" fill="rgb(92,28,48)" stroke="rgb(92,28,48)" stroke-width="1.51"></path><path d="M-40,123L-113,197L-38,199Z" fill="rgb(193,142,102)" stroke="rgb(193,142,102)" stroke-width="1.51"></path><path d="M-38,427L-111,496L-35,502Z" fill="rgb(92,28,48)" stroke="rgb(92,28,48)" stroke-width="1.51"></path><path d="M-115,123L-113,197L-40,123Z" fill="rgb(192,133,80)" stroke="rgb(192,133,80)" stroke-width="1.51"></path><path d="M-115,123L-40,123L-112,51Z" fill="rgb(181,106,34)" stroke="rgb(181,106,34)" stroke-width="1.51"></path><path d="M-113,197L-115,272L-38,199Z" fill="rgb(186,141,120)" stroke="rgb(186,141,120)" stroke-width="1.51"></path><path d="M-115,272L-111,348L-35,274Z" fill="rgb(151,101,100)" stroke="rgb(151,101,100)" stroke-width="1.51"></path><path d="M-113,197L-115,123L-115,272Z" fill="rgb(194,148,121)" stroke="rgb(194,148,121)" stroke-width="1.51"></path><path d="M-112,51L-40,123L-38,47Z" fill="rgb(171,90,13)" stroke="rgb(171,90,13)" stroke-width="1.51"></path><path d="M-111,-24L-38,47L-36,-23Z" fill="rgb(127,59,8)" stroke="rgb(127,59,8)" stroke-width="1.51"></path><path d="M-111,-24L-112,51L-38,47Z" fill="rgb(143,68,8)" stroke="rgb(143,68,8)" stroke-width="1.51"></path><path d="M-115,272L-113,425L-111,348Z" fill="rgb(123,59,81)" stroke="rgb(123,59,81)" stroke-width="1.51"></path><path d="M-111,348L-113,425L-38,352Z" fill="rgb(107,40,65)" stroke="rgb(107,40,65)" stroke-width="1.51"></path><path d="M37,-103L-38,-103L36,-25Z" fill="rgb(132,61,8)" stroke="rgb(132,61,8)" stroke-width="1.51"></path><path d="M-113,425L-111,496L-38,427Z" fill="rgb(92,28,48)" stroke="rgb(92,28,48)" stroke-width="1.51"></path><path d="M-112,51L-113,-100L-115,123Z" fill="rgb(143,68,8)" stroke="rgb(143,68,8)" stroke-width="1.51"></path><path d="M-38,-103L-111,-24L-36,-23Z" fill="rgb(127,59,8)" stroke="rgb(127,59,8)" stroke-width="1.51"></path><path d="M-38,-103L-113,-100L-111,-24Z" fill="rgb(127,59,8)" stroke="rgb(127,59,8)" stroke-width="1.51"></path><path d="M-111,-24L-113,-100L-112,51Z" fill="rgb(127,59,8)" stroke="rgb(127,59,8)" stroke-width="1.51"></path></svg>