<svg width="600" height="400" xmlns="http://www.w3.org/2000/svg"><path d="M262,225L198,253L261,280Z" fill="rgb(217,223,214)" stroke="rgb(217,223,214)" stroke-width="1.51"></path><path d="M262,225L197,227L198,253Z" fill="rgb(220,218,219)" stroke="rgb(220,218,219)" stroke-width="1.51"></path><path d="M261,280L335,272L262,225Z" fill="rgb(218,235,215)" stroke="rgb(218,235,215)" stroke-width="1.51"></path><path d="M335,272L346,227L262,225Z" fill="rgb(228,242,223)" stroke="rgb(228,242,223)" stroke-width="1.51"></path><path d="M198,253L171,363L261,280Z" fill="rgb(175,194,175)" stroke="rgb(175,194,175)" stroke-width="1.51"></path><path d="M197,227L124,270L198,253Z" fill="rgb(198,197,201)" stroke="rgb(198,197,201)" stroke-width="1.51"></path><path d="M197,227L124,208L124,270Z" fill="rgb(198,188,202)" stroke="rgb(198,188,202)" stroke-width="1.51"></path><path d="M183,144L124,208L197,227Z" fill="rgb(215,197,222)" stroke="rgb(215,197,222)" stroke-width="1.51"></path><path d="M183,144L197,227L262,225Z" fill="rgb(231,218,234)" stroke="rgb(231,218,234)" stroke-width="1.51"></path><path d="M237,108L183,144L262,225Z" fill="rgb(227,206,229)" stroke="rgb(227,206,229)" stroke-width="1.51"></path><path d="M124,270L171,363L198,253Z" fill="rgb(165,178,167)" stroke="rgb(165,178,167)" stroke-width="1.51"></path><path d="M261,280L324,369L335,272Z" fill="rgb(181,218,179)" stroke="rgb(181,218,179)" stroke-width="1.51"></path><path d="M171,363L286,376L261,280Z" fill="rgb(151,180,152)" stroke="rgb(151,180,152)" stroke-width="1.51"></path><path d="M363,140L237,108L262,225Z" fill="rgb(237,224,238)" stroke="rgb(237,224,238)" stroke-width="1.51"></path><path d="M286,376L324,369L261,280Z" fill="rgb(154,193,157)" stroke="rgb(154,193,157)" stroke-width="1.51"></path><path d="M431,261L424,221L346,227Z" fill="rgb(202,234,195)" stroke="rgb(202,234,195)" stroke-width="1.51"></path><path d="M183,144L129,136L124,208Z" fill="rgb(201,173,209)" stroke="rgb(201,173,209)" stroke-width="1.51"></path><path d="M191,42L129,136L183,144Z" fill="rgb(183,151,198)" stroke="rgb(183,151,198)" stroke-width="1.51"></path><path d="M346,227L363,140L262,225Z" fill="rgb(241,245,239)" stroke="rgb(241,245,239)" stroke-width="1.51"></path><path d="M424,221L363,140L346,227Z" fill="rgb(224,239,221)" stroke="rgb(224,239,221)" stroke-width="1.51"></path><path d="M171,363L196,441L286,376Z" fill="rgb(116,134,122)" stroke="rgb(116,134,122)" stroke-width="1.51"></path><path d="M124,270L88,354L171,363Z" fill="rgb(126,143,133)" stroke="rgb(126,143,133)" stroke-width="1.51"></path><path d="M49,344L88,354L124,270Z" fill="rgb(121,126,124)" stroke="rgb(121,126,124)" stroke-width="1.51"></path><path d="M54,187L124,270L124,208Z" fill="rgb(188,165,193)" stroke="rgb(188,165,193)" stroke-width="1.51"></path><path d="M431,261L346,227L335,272Z" fill="rgb(204,235,198)" stroke="rgb(204,235,198)" stroke-width="1.51"></path><path d="M129,136L54,187L124,208Z" fill="rgb(191,158,198)" stroke="rgb(191,158,198)" stroke-width="1.51"></path><path d="M122,423L196,441L171,363Z" fill="rgb(98,110,108)" stroke="rgb(98,110,108)" stroke-width="1.51"></path><path d="M286,376L285,439L324,369Z" fill="rgb(128,157,132)" stroke="rgb(128,157,132)" stroke-width="1.51"></path><path d="M415,362L431,261L335,272Z" fill="rgb(161,213,156)" stroke="rgb(161,213,156)" stroke-width="1.51"></path><path d="M196,441L285,439L286,376Z" fill="rgb(121,142,124)" stroke="rgb(121,142,124)" stroke-width="1.51"></path><path d="M415,362L335,272L324,369Z" fill="rgb(146,197,145)" stroke="rgb(146,197,145)" stroke-width="1.51"></path><path d="M88,354L122,423L171,363Z" fill="rgb(97,108,106)" stroke="rgb(97,108,106)" stroke-width="1.51"></path><path d="M26,271L49,344L124,270Z" fill="rgb(139,129,138)" stroke="rgb(139,129,138)" stroke-width="1.51"></path><path d="M88,354L21,428L122,423Z" fill="rgb(77,71,83)" stroke="rgb(77,71,83)" stroke-width="1.51"></path><path d="M285,439L356,423L324,369Z" fill="rgb(120,153,123)" stroke="rgb(120,153,123)" stroke-width="1.51"></path><path d="M356,423L415,362L324,369Z" fill="rgb(115,160,117)" stroke="rgb(115,160,117)" stroke-width="1.51"></path><path d="M54,187L26,271L124,270Z" fill="rgb(172,145,173)" stroke="rgb(172,145,173)" stroke-width="1.51"></path><path d="M363,140L319,55L237,108Z" fill="rgb(209,192,216)" stroke="rgb(209,192,216)" stroke-width="1.51"></path><path d="M237,108L191,42L183,144Z" fill="rgb(190,159,202)" stroke="rgb(190,159,202)" stroke-width="1.51"></path><path d="M419,106L319,55L363,140Z" fill="rgb(194,188,198)" stroke="rgb(194,188,198)" stroke-width="1.51"></path><path d="M252,33L191,42L237,108Z" fill="rgb(180,139,189)" stroke="rgb(180,139,189)" stroke-width="1.51"></path><path d="M129,136L49,103L54,187Z" fill="rgb(172,127,181)" stroke="rgb(172,127,181)" stroke-width="1.51"></path><path d="M319,55L252,33L237,108Z" fill="rgb(190,156,197)" stroke="rgb(190,156,197)" stroke-width="1.51"></path><path d="M191,42L104,73L129,136Z" fill="rgb(162,124,179)" stroke="rgb(162,124,179)" stroke-width="1.51"></path><path d="M424,221L419,106L363,140Z" fill="rgb(206,217,202)" stroke="rgb(206,217,202)" stroke-width="1.51"></path><path d="M431,261L462,266L424,221Z" fill="rgb(174,220,169)" stroke="rgb(174,220,169)" stroke-width="1.51"></path><path d="M415,362L462,266L431,261Z" fill="rgb(141,204,138)" stroke="rgb(141,204,138)" stroke-width="1.51"></path><path d="M462,266L465,205L424,221Z" fill="rgb(177,219,173)" stroke="rgb(177,219,173)" stroke-width="1.51"></path><path d="M465,205L419,106L424,221Z" fill="rgb(193,218,191)" stroke="rgb(193,218,191)" stroke-width="1.51"></path><path d="M415,362L506,326L462,266Z" fill="rgb(105,182,108)" stroke="rgb(105,182,108)" stroke-width="1.51"></path><path d="M356,423L420,401L415,362Z" fill="rgb(97,147,100)" stroke="rgb(97,147,100)" stroke-width="1.51"></path><path d="M104,73L49,103L129,136Z" fill="rgb(158,113,173)" stroke="rgb(158,113,173)" stroke-width="1.51"></path><path d="M-52,183L-34,298L26,271Z" fill="rgb(136,117,135)" stroke="rgb(136,117,135)" stroke-width="1.51"></path><path d="M356,423L415,496L420,401Z" fill="rgb(95,144,98)" stroke="rgb(95,144,98)" stroke-width="1.51"></path><path d="M285,439L317,528L356,423Z" fill="rgb(120,153,124)" stroke="rgb(120,153,124)" stroke-width="1.51"></path><path d="M196,441L267,512L285,439Z" fill="rgb(120,140,124)" stroke="rgb(120,140,124)" stroke-width="1.51"></path><path d="M164,526L267,512L196,441Z" fill="rgb(111,127,117)" stroke="rgb(111,127,117)" stroke-width="1.51"></path><path d="M191,42L137,-4L104,73Z" fill="rgb(142,87,156)" stroke="rgb(142,87,156)" stroke-width="1.51"></path><path d="M104,73L42,27L49,103Z" fill="rgb(132,71,146)" stroke="rgb(132,71,146)" stroke-width="1.51"></path><path d="M252,33L171,-13L191,42Z" fill="rgb(150,103,159)" stroke="rgb(150,103,159)" stroke-width="1.51"></path><path d="M288,-16L171,-13L252,33Z" fill="rgb(146,105,151)" stroke="rgb(146,105,151)" stroke-width="1.51"></path><path d="M319,55L288,-16L252,33Z" fill="rgb(170,131,174)" stroke="rgb(170,131,174)" stroke-width="1.51"></path><path d="M349,-51L288,-16L319,55Z" fill="rgb(151,121,153)" stroke="rgb(151,121,153)" stroke-width="1.51"></path><path d="M26,271L-34,298L49,344Z" fill="rgb(108,105,106)" stroke="rgb(108,105,106)" stroke-width="1.51"></path><path d="M49,344L21,428L88,354Z" fill="rgb(81,76,85)" stroke="rgb(81,76,85)" stroke-width="1.51"></path><path d="M-52,183L26,271L54,187Z" fill="rgb(155,124,157)" stroke="rgb(155,124,157)" stroke-width="1.51"></path><path d="M171,-13L137,-4L191,42Z" fill="rgb(130,82,141)" stroke="rgb(130,82,141)" stroke-width="1.51"></path><path d="M122,423L164,526L196,441Z" fill="rgb(98,109,107)" stroke="rgb(98,109,107)" stroke-width="1.51"></path><path d="M-53,341L21,428L49,344Z" fill="rgb(63,63,66)" stroke="rgb(63,63,66)" stroke-width="1.51"></path><path d="M420,401L506,326L415,362Z" fill="rgb(83,157,91)" stroke="rgb(83,157,91)" stroke-width="1.51"></path><path d="M462,266L567,222L465,205Z" fill="rgb(150,199,150)" stroke="rgb(150,199,150)" stroke-width="1.51"></path><path d="M419,106L427,44L319,55Z" fill="rgb(171,161,174)" stroke="rgb(171,161,174)" stroke-width="1.51"></path><path d="M505,27L427,44L419,106Z" fill="rgb(139,138,141)" stroke="rgb(139,138,141)" stroke-width="1.51"></path><path d="M505,152L419,106L465,205Z" fill="rgb(172,197,171)" stroke="rgb(172,197,171)" stroke-width="1.51"></path><path d="M94,526L164,526L122,423Z" fill="rgb(88,95,98)" stroke="rgb(88,95,98)" stroke-width="1.51"></path><path d="M567,222L505,152L465,205Z" fill="rgb(154,193,156)" stroke="rgb(154,193,156)" stroke-width="1.51"></path><path d="M267,512L317,528L285,439Z" fill="rgb(124,151,128)" stroke="rgb(124,151,128)" stroke-width="1.51"></path><path d="M420,401L499,442L506,326Z" fill="rgb(54,128,67)" stroke="rgb(54,128,67)" stroke-width="1.51"></path><path d="M164,526L317,528L267,512Z" fill="rgb(120,140,124)" stroke="rgb(120,140,124)" stroke-width="1.51"></path><path d="M-47,35L-37,141L49,103Z" fill="rgb(114,67,127)" stroke="rgb(114,67,127)" stroke-width="1.51"></path><path d="M49,103L-37,141L54,187Z" fill="rgb(149,104,157)" stroke="rgb(149,104,157)" stroke-width="1.51"></path><path d="M-37,141L-52,183L54,187Z" fill="rgb(148,109,152)" stroke="rgb(148,109,152)" stroke-width="1.51"></path><path d="M137,-4L42,27L104,73Z" fill="rgb(123,59,136)" stroke="rgb(123,59,136)" stroke-width="1.51"></path><path d="M-34,298L-53,341L49,344Z" fill="rgb(85,87,85)" stroke="rgb(85,87,85)" stroke-width="1.51"></path><path d="M-88,334L-53,341L-34,298Z" fill="rgb(87,89,87)" stroke="rgb(87,89,87)" stroke-width="1.51"></path><path d="M317,528L415,496L356,423Z" fill="rgb(110,150,112)" stroke="rgb(110,150,112)" stroke-width="1.51"></path><path d="M16,487L94,526L122,423Z" fill="rgb(78,71,83)" stroke="rgb(78,71,83)" stroke-width="1.51"></path><path d="M164,526L94,526L317,528Z" fill="rgb(106,121,114)" stroke="rgb(106,121,114)" stroke-width="1.51"></path><path d="M16,487L122,423L21,428Z" fill="rgb(70,61,75)" stroke="rgb(70,61,75)" stroke-width="1.51"></path><path d="M-55,450L16,487L21,428Z" fill="rgb(49,44,53)" stroke="rgb(49,44,53)" stroke-width="1.51"></path><path d="M288,-16L240,-91L171,-13Z" fill="rgb(144,103,149)" stroke="rgb(144,103,149)" stroke-width="1.51"></path><path d="M424,-15L349,-51L319,55Z" fill="rgb(141,119,140)" stroke="rgb(141,119,140)" stroke-width="1.51"></path><path d="M415,496L499,442L420,401Z" fill="rgb(71,131,78)" stroke="rgb(71,131,78)" stroke-width="1.51"></path><path d="M496,2L424,-15L427,44Z" fill="rgb(112,107,111)" stroke="rgb(112,107,111)" stroke-width="1.51"></path><path d="M427,44L424,-15L319,55Z" fill="rgb(151,131,150)" stroke="rgb(151,131,150)" stroke-width="1.51"></path><path d="M574,291L462,266L506,326Z" fill="rgb(99,173,104)" stroke="rgb(99,173,104)" stroke-width="1.51"></path><path d="M574,291L567,222L462,266Z" fill="rgb(117,177,120)" stroke="rgb(117,177,120)" stroke-width="1.51"></path><path d="M505,152L505,27L419,106Z" fill="rgb(139,157,144)" stroke="rgb(139,157,144)" stroke-width="1.51"></path><path d="M-53,341L-55,450L21,428Z" fill="rgb(49,44,53)" stroke="rgb(49,44,53)" stroke-width="1.51"></path><path d="M-136,297L-88,334L-34,298Z" fill="rgb(97,97,96)" stroke="rgb(97,97,96)" stroke-width="1.51"></path><path d="M565,346L574,291L506,326Z" fill="rgb(58,142,73)" stroke="rgb(58,142,73)" stroke-width="1.51"></path><path d="M556,419L565,346L506,326Z" fill="rgb(25,116,53)" stroke="rgb(25,116,53)" stroke-width="1.51"></path><path d="M171,-13L103,-108L137,-4Z" fill="rgb(114,66,126)" stroke="rgb(114,66,126)" stroke-width="1.51"></path><path d="M137,-4L20,-29L42,27Z" fill="rgb(92,26,104)" stroke="rgb(92,26,104)" stroke-width="1.51"></path><path d="M329,-92L240,-91L288,-16Z" fill="rgb(152,118,156)" stroke="rgb(152,118,156)" stroke-width="1.51"></path><path d="M-52,183L-108,204L-34,298Z" fill="rgb(146,120,146)" stroke="rgb(146,120,146)" stroke-width="1.51"></path><path d="M-97,140L-108,204L-52,183Z" fill="rgb(149,112,153)" stroke="rgb(149,112,153)" stroke-width="1.51"></path><path d="M-97,140L-52,183L-37,141Z" fill="rgb(144,103,149)" stroke="rgb(144,103,149)" stroke-width="1.51"></path><path d="M567,99L505,27L505,152Z" fill="rgb(115,134,124)" stroke="rgb(115,134,124)" stroke-width="1.51"></path><path d="M-47,35L-97,140L-37,141Z" fill="rgb(121,74,132)" stroke="rgb(121,74,132)" stroke-width="1.51"></path><path d="M-88,334L-55,450L-53,341Z" fill="rgb(59,59,62)" stroke="rgb(59,59,62)" stroke-width="1.51"></path><path d="M42,27L-47,35L49,103Z" fill="rgb(104,42,116)" stroke="rgb(104,42,116)" stroke-width="1.51"></path><path d="M103,-108L20,-29L137,-4Z" fill="rgb(98,40,111)" stroke="rgb(98,40,111)" stroke-width="1.51"></path><path d="M-31,-8L-47,35L42,27Z" fill="rgb(76,9,87)" stroke="rgb(76,9,87)" stroke-width="1.51"></path><path d="M349,-51L329,-92L288,-16Z" fill="rgb(150,120,152)" stroke="rgb(150,120,152)" stroke-width="1.51"></path><path d="M406,-106L329,-92L349,-51Z" fill="rgb(141,119,141)" stroke="rgb(141,119,141)" stroke-width="1.51"></path><path d="M406,-106L349,-51L424,-15Z" fill="rgb(130,115,129)" stroke="rgb(130,115,129)" stroke-width="1.51"></path><path d="M505,27L496,2L427,44Z" fill="rgb(108,106,108)" stroke="rgb(108,106,108)" stroke-width="1.51"></path><path d="M499,442L556,419L506,326Z" fill="rgb(27,104,48)" stroke="rgb(27,104,48)" stroke-width="1.51"></path><path d="M656,288L567,222L574,291Z" fill="rgb(94,144,97)" stroke="rgb(94,144,97)" stroke-width="1.51"></path><path d="M580,501L556,419L499,442Z" fill="rgb(11,91,40)" stroke="rgb(11,91,40)" stroke-width="1.51"></path><path d="M505,27L585,21L496,2Z" fill="rgb(80,81,84)" stroke="rgb(80,81,84)" stroke-width="1.51"></path><path d="M567,222L567,99L505,152Z" fill="rgb(134,162,138)" stroke="rgb(134,162,138)" stroke-width="1.51"></path><path d="M637,145L567,99L567,222Z" fill="rgb(120,140,124)" stroke="rgb(120,140,124)" stroke-width="1.51"></path><path d="M20,-29L-31,-8L42,27Z" fill="rgb(68,3,79)" stroke="rgb(68,3,79)" stroke-width="1.51"></path><path d="M-47,35L-92,31L-97,140Z" fill="rgb(103,49,116)" stroke="rgb(103,49,116)" stroke-width="1.51"></path><path d="M-118,452L-99,471L-55,450Z" fill="rgb(49,44,53)" stroke="rgb(49,44,53)" stroke-width="1.51"></path><path d="M-108,204L-136,297L-34,298Z" fill="rgb(128,114,126)" stroke="rgb(128,114,126)" stroke-width="1.51"></path><path d="M-102,0L-136,297L-108,204Z" fill="rgb(148,108,152)" stroke="rgb(148,108,152)" stroke-width="1.51"></path><path d="M317,528L495,527L415,496Z" fill="rgb(90,142,94)" stroke="rgb(90,142,94)" stroke-width="1.51"></path><path d="M415,496L495,527L499,442Z" fill="rgb(54,123,66)" stroke="rgb(54,123,66)" stroke-width="1.51"></path><path d="M160,-127L103,-108L171,-13Z" fill="rgb(116,69,129)" stroke="rgb(116,69,129)" stroke-width="1.51"></path><path d="M20,-29L-65,-78L-31,-8Z" fill="rgb(64,0,75)" stroke="rgb(64,0,75)" stroke-width="1.51"></path><path d="M160,-127L171,-13L240,-91Z" fill="rgb(131,87,140)" stroke="rgb(131,87,140)" stroke-width="1.51"></path><path d="M-55,450L-47,514L16,487Z" fill="rgb(49,44,53)" stroke="rgb(49,44,53)" stroke-width="1.51"></path><path d="M16,487L-47,514L94,526Z" fill="rgb(57,51,62)" stroke="rgb(57,51,62)" stroke-width="1.51"></path><path d="M-99,471L-47,514L-55,450Z" fill="rgb(49,44,53)" stroke="rgb(49,44,53)" stroke-width="1.51"></path><path d="M329,-92L160,-127L240,-91Z" fill="rgb(146,106,151)" stroke="rgb(146,106,151)" stroke-width="1.51"></path><path d="M-102,0L-47,35L-31,-8Z" fill="rgb(70,4,81)" stroke="rgb(70,4,81)" stroke-width="1.51"></path><path d="M-102,0L-92,31L-47,35Z" fill="rgb(78,11,90)" stroke="rgb(78,11,90)" stroke-width="1.51"></path><path d="M-97,140L-102,0L-108,204Z" fill="rgb(126,80,136)" stroke="rgb(126,80,136)" stroke-width="1.51"></path><path d="M329,-92L406,-106L160,-127Z" fill="rgb(154,121,157)" stroke="rgb(154,121,157)" stroke-width="1.51"></path><path d="M512,-80L406,-106L424,-15Z" fill="rgb(106,102,105)" stroke="rgb(106,102,105)" stroke-width="1.51"></path><path d="M-118,452L-55,450L-88,334Z" fill="rgb(49,44,53)" stroke="rgb(49,44,53)" stroke-width="1.51"></path><path d="M-136,297L-118,452L-88,334Z" fill="rgb(65,68,68)" stroke="rgb(65,68,68)" stroke-width="1.51"></path><path d="M160,-127L38,-110L103,-108Z" fill="rgb(102,47,115)" stroke="rgb(102,47,115)" stroke-width="1.51"></path><path d="M103,-108L38,-110L20,-29Z" fill="rgb(88,19,99)" stroke="rgb(88,19,99)" stroke-width="1.51"></path><path d="M656,288L646,202L567,222Z" fill="rgb(111,150,114)" stroke="rgb(111,150,114)" stroke-width="1.51"></path><path d="M567,99L585,21L505,27Z" fill="rgb(90,90,96)" stroke="rgb(90,90,96)" stroke-width="1.51"></path><path d="M656,288L574,291L662,349Z" fill="rgb(58,125,68)" stroke="rgb(58,125,68)" stroke-width="1.51"></path><path d="M496,2L512,-80L424,-15Z" fill="rgb(91,93,90)" stroke="rgb(91,93,90)" stroke-width="1.51"></path><path d="M646,202L637,145L567,222Z" fill="rgb(124,150,127)" stroke="rgb(124,150,127)" stroke-width="1.51"></path><path d="M616,52L585,21L567,99Z" fill="rgb(82,80,89)" stroke="rgb(82,80,89)" stroke-width="1.51"></path><path d="M-65,-78L-102,0L-31,-8Z" fill="rgb(64,0,75)" stroke="rgb(64,0,75)" stroke-width="1.51"></path><path d="M-92,31L-102,0L-97,140Z" fill="rgb(98,38,110)" stroke="rgb(98,38,110)" stroke-width="1.51"></path><path d="M662,349L565,346L632,443Z" fill="rgb(5,81,34)" stroke="rgb(5,81,34)" stroke-width="1.51"></path><path d="M662,349L574,291L565,346Z" fill="rgb(40,113,56)" stroke="rgb(40,113,56)" stroke-width="1.51"></path><path d="M495,527L580,501L499,442Z" fill="rgb(23,100,45)" stroke="rgb(23,100,45)" stroke-width="1.51"></path><path d="M637,145L616,52L567,99Z" fill="rgb(94,103,104)" stroke="rgb(94,103,104)" stroke-width="1.51"></path><path d="M551,-49L496,2L585,21Z" fill="rgb(64,66,67)" stroke="rgb(64,66,67)" stroke-width="1.51"></path><path d="M551,-49L512,-80L496,2Z" fill="rgb(73,76,75)" stroke="rgb(73,76,75)" stroke-width="1.51"></path><path d="M549,-113L551,-49L627,-107Z" fill="rgb(55,53,59)" stroke="rgb(55,53,59)" stroke-width="1.51"></path><path d="M632,443L565,346L556,419Z" fill="rgb(2,74,30)" stroke="rgb(2,74,30)" stroke-width="1.51"></path><path d="M623,477L632,443L556,419Z" fill="rgb(0,68,27)" stroke="rgb(0,68,27)" stroke-width="1.51"></path><path d="M38,-110L-65,-78L20,-29Z" fill="rgb(64,0,75)" stroke="rgb(64,0,75)" stroke-width="1.51"></path><path d="M580,501L623,477L556,419Z" fill="rgb(2,73,30)" stroke="rgb(2,73,30)" stroke-width="1.51"></path><path d="M731,361L712,281L662,349Z" fill="rgb(39,112,55)" stroke="rgb(39,112,55)" stroke-width="1.51"></path><path d="M634,-21L551,-49L585,21Z" fill="rgb(51,48,55)" stroke="rgb(51,48,55)" stroke-width="1.51"></path><path d="M637,145L697,146L616,52Z" fill="rgb(101,113,110)" stroke="rgb(101,113,110)" stroke-width="1.51"></path><path d="M646,202L697,146L637,145Z" fill="rgb(120,140,124)" stroke="rgb(120,140,124)" stroke-width="1.51"></path><path d="M714,191L697,146L646,202Z" fill="rgb(122,146,126)" stroke="rgb(122,146,126)" stroke-width="1.51"></path><path d="M712,281L646,202L656,288Z" fill="rgb(100,146,103)" stroke="rgb(100,146,103)" stroke-width="1.51"></path><path d="M662,349L712,281L656,288Z" fill="rgb(61,126,71)" stroke="rgb(61,126,71)" stroke-width="1.51"></path><path d="M731,361L662,349L728,418Z" fill="rgb(6,83,35)" stroke="rgb(6,83,35)" stroke-width="1.51"></path><path d="M634,-21L585,21L616,52Z" fill="rgb(59,52,64)" stroke="rgb(59,52,64)" stroke-width="1.51"></path><path d="M551,-49L549,-113L512,-80Z" fill="rgb(66,69,69)" stroke="rgb(66,69,69)" stroke-width="1.51"></path><path d="M512,-80L549,-113L406,-106Z" fill="rgb(86,89,86)" stroke="rgb(86,89,86)" stroke-width="1.51"></path><path d="M406,-106L549,-113L160,-127Z" fill="rgb(138,118,137)" stroke="rgb(138,118,137)" stroke-width="1.51"></path><path d="M712,281L714,191L646,202Z" fill="rgb(116,152,119)" stroke="rgb(116,152,119)" stroke-width="1.51"></path><path d="M699,2L634,-21L616,52Z" fill="rgb(55,49,60)" stroke="rgb(55,49,60)" stroke-width="1.51"></path><path d="M715,44L616,52L697,146Z" fill="rgb(87,93,97)" stroke="rgb(87,93,97)" stroke-width="1.51"></path><path d="M38,-110L-118,-78L-65,-78Z" fill="rgb(64,0,75)" stroke="rgb(64,0,75)" stroke-width="1.51"></path><path d="M-65,-78L-118,-78L-102,0Z" fill="rgb(64,0,75)" stroke="rgb(64,0,75)" stroke-width="1.51"></path><path d="M-102,0L-118,-78L-136,297Z" fill="rgb(105,52,118)" stroke="rgb(105,52,118)" stroke-width="1.51"></path><path d="M728,418L662,349L632,443Z" fill="rgb(0,68,27)" stroke="rgb(0,68,27)" stroke-width="1.51"></path><path d="M712,281L731,361L714,191Z" fill="rgb(87,141,91)" stroke="rgb(87,141,91)" stroke-width="1.51"></path><path d="M738,487L728,418L632,443Z" fill="rgb(0,68,27)" stroke="rgb(0,68,27)" stroke-width="1.51"></path><path d="M634,-21L627,-107L551,-49Z" fill="rgb(49,44,53)" stroke="rgb(49,44,53)" stroke-width="1.51"></path><path d="M714,191L715,44L697,146Z" fill="rgb(106,120,114)" stroke="rgb(106,120,114)" stroke-width="1.51"></path><path d="M731,361L715,44L714,191Z" fill="rgb(125,153,129)" stroke="rgb(125,153,129)" stroke-width="1.51"></path><path d="M715,44L699,2L616,52Z" fill="rgb(69,60,73)" stroke="rgb(69,60,73)" stroke-width="1.51"></path><path d="M715,-94L627,-107L634,-21Z" fill="rgb(49,44,53)" stroke="rgb(49,44,53)" stroke-width="1.51"></path><path d="M623,477L738,487L632,443Z" fill="rgb(0,68,27)" stroke="rgb(0,68,27)" stroke-width="1.51"></path><path d="M728,418L738,487L731,361Z" fill="rgb(0,68,27)" stroke="rgb(0,68,27)" stroke-width="1.51"></path><path d="M731,361L715,-94L715,44Z" fill="rgb(96,107,105)" stroke="rgb(96,107,105)" stroke-width="1.51"></path><path d="M580,501L738,487L623,477Z" fill="rgb(0,68,27)" stroke="rgb(0,68,27)" stroke-width="1.51"></path><path d="M495,527L738,487L580,501Z" fill="rgb(0,68,27)" stroke="rgb(0,68,27)" stroke-width="1.51"></path><path d="M699,2L715,-94L634,-21Z" fill="rgb(49,44,53)" stroke="rgb(49,44,53)" stroke-width="1.51"></path><path d="M715,44L715,-94L699,2Z" fill="rgb(49,44,53)" stroke="rgb(49,44,53)" stroke-width="1.51"></path><path d="M738,487L715,-94L731,361Z" fill="rgb(104,147,106)" stroke="rgb(104,147,106)" stroke-width="1.51"></path></svg>