<svg width="600" height="400" xmlns="http://www.w3.org/2000/svg"><path d="M337,199L412,200L338,125Z" fill="rgb(247,100,71)" stroke="rgb(247,100,71)" stroke-width="1.51"></path><path d="M412,200L411,123L338,125Z" fill="rgb(244,106,78)" stroke="rgb(244,106,78)" stroke-width="1.51"></path><path d="M337,199L412,273L412,200Z" fill="rgb(240,70,50)" stroke="rgb(240,70,50)" stroke-width="1.51"></path><path d="M486,200L486,126L412,200Z" fill="rgb(225,82,60)" stroke="rgb(225,82,60)" stroke-width="1.51"></path><path d="M412,200L486,126L411,123Z" fill="rgb(232,97,72)" stroke="rgb(232,97,72)" stroke-width="1.51"></path><path d="M412,273L486,200L412,200Z" fill="rgb(227,61,45)" stroke="rgb(227,61,45)" stroke-width="1.51"></path><path d="M338,125L262,125L337,199Z" fill="rgb(251,123,91)" stroke="rgb(251,123,91)" stroke-width="1.51"></path><path d="M338,49L262,125L338,125Z" fill="rgb(253,145,114)" stroke="rgb(253,145,114)" stroke-width="1.51"></path><path d="M337,199L336,275L412,273Z" fill="rgb(240,65,47)" stroke="rgb(240,65,47)" stroke-width="1.51"></path><path d="M263,273L336,275L337,199Z" fill="rgb(244,81,57)" stroke="rgb(244,81,57)" stroke-width="1.51"></path><path d="M262,125L262,201L337,199Z" fill="rgb(252,120,87)" stroke="rgb(252,120,87)" stroke-width="1.51"></path><path d="M411,123L338,49L338,125Z" fill="rgb(251,133,104)" stroke="rgb(251,133,104)" stroke-width="1.51"></path><path d="M412,49L338,49L411,123Z" fill="rgb(250,138,112)" stroke="rgb(250,138,112)" stroke-width="1.51"></path><path d="M486,48L412,49L411,123Z" fill="rgb(238,130,106)" stroke="rgb(238,130,106)" stroke-width="1.51"></path><path d="M262,201L263,273L337,199Z" fill="rgb(248,99,70)" stroke="rgb(248,99,70)" stroke-width="1.51"></path><path d="M563,198L562,125L486,126Z" fill="rgb(204,86,65)" stroke="rgb(204,86,65)" stroke-width="1.51"></path><path d="M412,273L487,274L486,200Z" fill="rgb(218,43,36)" stroke="rgb(218,43,36)" stroke-width="1.51"></path><path d="M411,349L487,274L412,273Z" fill="rgb(206,28,30)" stroke="rgb(206,28,30)" stroke-width="1.51"></path><path d="M486,126L486,48L411,123Z" fill="rgb(229,117,92)" stroke="rgb(229,117,92)" stroke-width="1.51"></path><path d="M412,49L413,-25L338,49Z" fill="rgb(255,153,129)" stroke="rgb(255,153,129)" stroke-width="1.51"></path><path d="M563,51L486,48L486,126Z" fill="rgb(219,121,99)" stroke="rgb(219,121,99)" stroke-width="1.51"></path><path d="M338,49L262,49L262,125Z" fill="rgb(255,161,132)" stroke="rgb(255,161,132)" stroke-width="1.51"></path><path d="M336,-26L262,49L338,49Z" fill="rgb(255,170,145)" stroke="rgb(255,170,145)" stroke-width="1.51"></path><path d="M336,275L411,349L412,273Z" fill="rgb(219,41,35)" stroke="rgb(219,41,35)" stroke-width="1.51"></path><path d="M336,350L411,349L336,275Z" fill="rgb(212,47,37)" stroke="rgb(212,47,37)" stroke-width="1.51"></path><path d="M262,201L188,274L263,273Z" fill="rgb(247,104,75)" stroke="rgb(247,104,75)" stroke-width="1.51"></path><path d="M262,125L188,199L262,201Z" fill="rgb(252,134,100)" stroke="rgb(252,134,100)" stroke-width="1.51"></path><path d="M186,124L188,199L262,125Z" fill="rgb(252,150,118)" stroke="rgb(252,150,118)" stroke-width="1.51"></path><path d="M563,198L486,126L486,200Z" fill="rgb(212,79,57)" stroke="rgb(212,79,57)" stroke-width="1.51"></path><path d="M486,48L413,-25L412,49Z" fill="rgb(243,144,124)" stroke="rgb(243,144,124)" stroke-width="1.51"></path><path d="M487,274L563,198L486,200Z" fill="rgb(208,55,40)" stroke="rgb(208,55,40)" stroke-width="1.51"></path><path d="M263,351L336,350L336,275Z" fill="rgb(216,65,46)" stroke="rgb(216,65,46)" stroke-width="1.51"></path><path d="M263,351L336,275L263,273Z" fill="rgb(227,75,54)" stroke="rgb(227,75,54)" stroke-width="1.51"></path><path d="M413,-25L336,-26L338,49Z" fill="rgb(255,163,141)" stroke="rgb(255,163,141)" stroke-width="1.51"></path><path d="M262,49L186,124L262,125Z" fill="rgb(253,164,135)" stroke="rgb(253,164,135)" stroke-width="1.51"></path><path d="M186,50L186,124L262,49Z" fill="rgb(254,180,154)" stroke="rgb(254,180,154)" stroke-width="1.51"></path><path d="M411,349L487,349L487,274Z" fill="rgb(191,21,26)" stroke="rgb(191,21,26)" stroke-width="1.51"></path><path d="M487,274L562,276L563,198Z" fill="rgb(196,38,32)" stroke="rgb(196,38,32)" stroke-width="1.51"></path><path d="M561,350L487,349L487,423Z" fill="rgb(153,11,20)" stroke="rgb(153,11,20)" stroke-width="1.51"></path><path d="M188,199L188,274L262,201Z" fill="rgb(250,121,90)" stroke="rgb(250,121,90)" stroke-width="1.51"></path><path d="M112,274L188,274L188,199Z" fill="rgb(250,126,98)" stroke="rgb(250,126,98)" stroke-width="1.51"></path><path d="M486,48L488,-26L413,-25Z" fill="rgb(238,146,128)" stroke="rgb(238,146,128)" stroke-width="1.51"></path><path d="M562,125L563,51L486,126Z" fill="rgb(207,108,86)" stroke="rgb(207,108,86)" stroke-width="1.51"></path><path d="M637,126L563,51L562,125Z" fill="rgb(184,99,82)" stroke="rgb(184,99,82)" stroke-width="1.51"></path><path d="M487,349L562,276L487,274Z" fill="rgb(187,20,25)" stroke="rgb(187,20,25)" stroke-width="1.51"></path><path d="M188,274L263,351L263,273Z" fill="rgb(229,91,67)" stroke="rgb(229,91,67)" stroke-width="1.51"></path><path d="M487,423L487,349L411,349Z" fill="rgb(165,14,23)" stroke="rgb(165,14,23)" stroke-width="1.51"></path><path d="M336,-26L262,-26L262,49Z" fill="rgb(255,181,158)" stroke="rgb(255,181,158)" stroke-width="1.51"></path><path d="M413,-25L413,-101L336,-26Z" fill="rgb(255,158,136)" stroke="rgb(255,158,136)" stroke-width="1.51"></path><path d="M562,-26L488,-26L486,48Z" fill="rgb(224,140,124)" stroke="rgb(224,140,124)" stroke-width="1.51"></path><path d="M188,-27L186,50L262,49Z" fill="rgb(255,194,173)" stroke="rgb(255,194,173)" stroke-width="1.51"></path><path d="M563,198L637,126L562,125Z" fill="rgb(181,79,61)" stroke="rgb(181,79,61)" stroke-width="1.51"></path><path d="M562,276L636,201L563,198Z" fill="rgb(177,45,36)" stroke="rgb(177,45,36)" stroke-width="1.51"></path><path d="M562,276L638,275L636,201Z" fill="rgb(168,30,29)" stroke="rgb(168,30,29)" stroke-width="1.51"></path><path d="M487,349L561,350L562,276Z" fill="rgb(169,15,22)" stroke="rgb(169,15,22)" stroke-width="1.51"></path><path d="M411,426L411,349L336,350Z" fill="rgb(182,32,30)" stroke="rgb(182,32,30)" stroke-width="1.51"></path><path d="M636,201L637,126L563,198Z" fill="rgb(175,67,51)" stroke="rgb(175,67,51)" stroke-width="1.51"></path><path d="M563,51L562,-26L486,48Z" fill="rgb(214,132,115)" stroke="rgb(214,132,115)" stroke-width="1.51"></path><path d="M186,124L111,198L188,199Z" fill="rgb(253,155,124)" stroke="rgb(253,155,124)" stroke-width="1.51"></path><path d="M186,50L113,123L186,124Z" fill="rgb(252,185,158)" stroke="rgb(252,185,158)" stroke-width="1.51"></path><path d="M112,274L186,349L188,274Z" fill="rgb(232,114,89)" stroke="rgb(232,114,89)" stroke-width="1.51"></path><path d="M188,274L186,349L263,351Z" fill="rgb(220,95,72)" stroke="rgb(220,95,72)" stroke-width="1.51"></path><path d="M637,49L562,-26L563,51Z" fill="rgb(190,123,111)" stroke="rgb(190,123,111)" stroke-width="1.51"></path><path d="M336,426L336,350L263,351Z" fill="rgb(189,57,42)" stroke="rgb(189,57,42)" stroke-width="1.51"></path><path d="M336,426L411,426L336,350Z" fill="rgb(169,35,31)" stroke="rgb(169,35,31)" stroke-width="1.51"></path><path d="M186,50L112,50L113,123Z" fill="rgb(254,199,177)" stroke="rgb(254,199,177)" stroke-width="1.51"></path><path d="M262,-26L188,-27L262,49Z" fill="rgb(255,193,172)" stroke="rgb(255,193,172)" stroke-width="1.51"></path><path d="M261,-101L188,-27L262,-26Z" fill="rgb(255,193,172)" stroke="rgb(255,193,172)" stroke-width="1.51"></path><path d="M261,-101L262,-26L336,-26Z" fill="rgb(255,181,158)" stroke="rgb(255,181,158)" stroke-width="1.51"></path><path d="M413,-101L413,-25L486,-99Z" fill="rgb(244,149,130)" stroke="rgb(244,149,130)" stroke-width="1.51"></path><path d="M486,-99L413,-25L488,-26Z" fill="rgb(238,146,128)" stroke="rgb(238,146,128)" stroke-width="1.51"></path><path d="M262,424L336,426L263,351Z" fill="rgb(175,60,45)" stroke="rgb(175,60,45)" stroke-width="1.51"></path><path d="M113,123L111,198L186,124Z" fill="rgb(254,171,143)" stroke="rgb(254,171,143)" stroke-width="1.51"></path><path d="M413,-101L337,-102L336,-26Z" fill="rgb(255,163,141)" stroke="rgb(255,163,141)" stroke-width="1.51"></path><path d="M411,426L487,423L411,349Z" fill="rgb(155,15,23)" stroke="rgb(155,15,23)" stroke-width="1.51"></path><path d="M561,-102L486,-99L488,-26Z" fill="rgb(225,141,124)" stroke="rgb(225,141,124)" stroke-width="1.51"></path><path d="M186,424L262,424L263,351Z" fill="rgb(176,74,58)" stroke="rgb(176,74,58)" stroke-width="1.51"></path><path d="M637,126L637,49L563,51Z" fill="rgb(181,107,92)" stroke="rgb(181,107,92)" stroke-width="1.51"></path><path d="M111,198L112,274L188,199Z" fill="rgb(254,143,113)" stroke="rgb(254,143,113)" stroke-width="1.51"></path><path d="M36,125L37,198L111,198Z" fill="rgb(255,179,154)" stroke="rgb(255,179,154)" stroke-width="1.51"></path><path d="M113,-27L112,50L186,50Z" fill="rgb(255,214,197)" stroke="rgb(255,214,197)" stroke-width="1.51"></path><path d="M636,350L638,275L562,276Z" fill="rgb(151,10,21)" stroke="rgb(151,10,21)" stroke-width="1.51"></path><path d="M636,201L711,199L637,126Z" fill="rgb(175,66,51)" stroke="rgb(175,66,51)" stroke-width="1.51"></path><path d="M637,126L712,125L637,49Z" fill="rgb(178,98,82)" stroke="rgb(178,98,82)" stroke-width="1.51"></path><path d="M636,350L562,276L561,350Z" fill="rgb(148,9,20)" stroke="rgb(148,9,20)" stroke-width="1.51"></path><path d="M188,-27L113,-27L186,50Z" fill="rgb(255,212,196)" stroke="rgb(255,212,196)" stroke-width="1.51"></path><path d="M337,-102L261,-101L336,-26Z" fill="rgb(255,175,152)" stroke="rgb(255,175,152)" stroke-width="1.51"></path><path d="M561,425L636,350L561,350Z" fill="rgb(123,4,17)" stroke="rgb(123,4,17)" stroke-width="1.51"></path><path d="M487,423L561,425L561,350Z" fill="rgb(129,5,17)" stroke="rgb(129,5,17)" stroke-width="1.51"></path><path d="M488,500L561,425L487,423Z" fill="rgb(136,7,18)" stroke="rgb(136,7,18)" stroke-width="1.51"></path><path d="M186,349L186,424L263,351Z" fill="rgb(193,86,67)" stroke="rgb(193,86,67)" stroke-width="1.51"></path><path d="M112,274L112,349L186,349Z" fill="rgb(224,118,94)" stroke="rgb(224,118,94)" stroke-width="1.51"></path><path d="M37,274L112,349L112,274Z" fill="rgb(238,134,111)" stroke="rgb(238,134,111)" stroke-width="1.51"></path><path d="M112,349L186,424L186,349Z" fill="rgb(196,101,82)" stroke="rgb(196,101,82)" stroke-width="1.51"></path><path d="M263,501L338,499L336,426Z" fill="rgb(173,52,40)" stroke="rgb(173,52,40)" stroke-width="1.51"></path><path d="M637,49L637,-26L562,-26Z" fill="rgb(185,126,117)" stroke="rgb(185,126,117)" stroke-width="1.51"></path><path d="M562,-26L561,-102L488,-26Z" fill="rgb(215,137,122)" stroke="rgb(215,137,122)" stroke-width="1.51"></path><path d="M712,-26L637,-26L637,49Z" fill="rgb(185,126,117)" stroke="rgb(185,126,117)" stroke-width="1.51"></path><path d="M186,-101L113,-27L188,-27Z" fill="rgb(255,212,196)" stroke="rgb(255,212,196)" stroke-width="1.51"></path><path d="M486,-99L561,-102L413,-101Z" fill="rgb(231,143,126)" stroke="rgb(231,143,126)" stroke-width="1.51"></path><path d="M413,-101L561,-102L337,-102Z" fill="rgb(244,149,130)" stroke="rgb(244,149,130)" stroke-width="1.51"></path><path d="M637,-99L561,-102L562,-26Z" fill="rgb(192,128,118)" stroke="rgb(192,128,118)" stroke-width="1.51"></path><path d="M261,-101L186,-101L188,-27Z" fill="rgb(255,199,180)" stroke="rgb(255,199,180)" stroke-width="1.51"></path><path d="M337,-102L186,-101L261,-101Z" fill="rgb(255,187,165)" stroke="rgb(255,187,165)" stroke-width="1.51"></path><path d="M638,275L711,199L636,201Z" fill="rgb(171,44,35)" stroke="rgb(171,44,35)" stroke-width="1.51"></path><path d="M712,275L711,199L638,275Z" fill="rgb(168,30,29)" stroke="rgb(168,30,29)" stroke-width="1.51"></path><path d="M336,426L338,499L411,426Z" fill="rgb(169,35,31)" stroke="rgb(169,35,31)" stroke-width="1.51"></path><path d="M411,426L488,500L487,423Z" fill="rgb(149,9,21)" stroke="rgb(149,9,21)" stroke-width="1.51"></path><path d="M263,501L336,426L262,424Z" fill="rgb(175,60,45)" stroke="rgb(175,60,45)" stroke-width="1.51"></path><path d="M711,199L712,125L637,126Z" fill="rgb(176,77,60)" stroke="rgb(176,77,60)" stroke-width="1.51"></path><path d="M111,198L37,274L112,274Z" fill="rgb(255,147,121)" stroke="rgb(255,147,121)" stroke-width="1.51"></path><path d="M36,125L111,198L113,123Z" fill="rgb(255,183,158)" stroke="rgb(255,183,158)" stroke-width="1.51"></path><path d="M36,125L113,123L38,50Z" fill="rgb(254,207,188)" stroke="rgb(254,207,188)" stroke-width="1.51"></path><path d="M338,499L412,501L411,426Z" fill="rgb(166,27,28)" stroke="rgb(166,27,28)" stroke-width="1.51"></path><path d="M38,50L113,123L112,50Z" fill="rgb(254,212,194)" stroke="rgb(254,212,194)" stroke-width="1.51"></path><path d="M36,-25L38,50L112,50Z" fill="rgb(255,231,220)" stroke="rgb(255,231,220)" stroke-width="1.51"></path><path d="M713,350L712,275L638,275Z" fill="rgb(151,10,21)" stroke="rgb(151,10,21)" stroke-width="1.51"></path><path d="M711,199L712,275L712,125Z" fill="rgb(174,56,42)" stroke="rgb(174,56,42)" stroke-width="1.51"></path><path d="M713,350L638,275L636,350Z" fill="rgb(142,7,20)" stroke="rgb(142,7,20)" stroke-width="1.51"></path><path d="M37,198L37,274L111,198Z" fill="rgb(255,161,135)" stroke="rgb(255,161,135)" stroke-width="1.51"></path><path d="M112,349L111,423L186,424Z" fill="rgb(180,102,86)" stroke="rgb(180,102,86)" stroke-width="1.51"></path><path d="M-37,198L37,274L37,198Z" fill="rgb(255,168,144)" stroke="rgb(255,168,144)" stroke-width="1.51"></path><path d="M561,425L638,423L636,350Z" fill="rgb(103,0,13)" stroke="rgb(103,0,13)" stroke-width="1.51"></path><path d="M412,501L488,500L411,426Z" fill="rgb(154,14,23)" stroke="rgb(154,14,23)" stroke-width="1.51"></path><path d="M338,499L263,501L412,501Z" fill="rgb(171,44,35)" stroke="rgb(171,44,35)" stroke-width="1.51"></path><path d="M188,499L263,501L262,424Z" fill="rgb(176,74,57)" stroke="rgb(176,74,57)" stroke-width="1.51"></path><path d="M637,-26L637,-99L562,-26Z" fill="rgb(185,126,117)" stroke="rgb(185,126,117)" stroke-width="1.51"></path><path d="M712,125L713,48L637,49Z" fill="rgb(181,107,93)" stroke="rgb(181,107,93)" stroke-width="1.51"></path><path d="M713,350L713,48L712,125Z" fill="rgb(175,67,51)" stroke="rgb(175,67,51)" stroke-width="1.51"></path><path d="M636,498L638,423L561,425Z" fill="rgb(103,0,13)" stroke="rgb(103,0,13)" stroke-width="1.51"></path><path d="M712,-26L637,-99L637,-26Z" fill="rgb(185,126,117)" stroke="rgb(185,126,117)" stroke-width="1.51"></path><path d="M186,424L188,499L262,424Z" fill="rgb(176,81,64)" stroke="rgb(176,81,64)" stroke-width="1.51"></path><path d="M37,349L111,423L112,349Z" fill="rgb(200,120,103)" stroke="rgb(200,120,103)" stroke-width="1.51"></path><path d="M113,-27L36,-25L112,50Z" fill="rgb(255,231,221)" stroke="rgb(255,231,221)" stroke-width="1.51"></path><path d="M186,-101L111,-100L113,-27Z" fill="rgb(255,219,205)" stroke="rgb(255,219,205)" stroke-width="1.51"></path><path d="M111,501L188,499L186,424Z" fill="rgb(178,95,79)" stroke="rgb(178,95,79)" stroke-width="1.51"></path><path d="M37,274L37,349L112,349Z" fill="rgb(229,135,115)" stroke="rgb(229,135,115)" stroke-width="1.51"></path><path d="M-38,274L37,349L37,274Z" fill="rgb(241,146,126)" stroke="rgb(241,146,126)" stroke-width="1.51"></path><path d="M713,48L712,-26L637,49Z" fill="rgb(184,121,111)" stroke="rgb(184,121,111)" stroke-width="1.51"></path><path d="M488,500L563,500L561,425Z" fill="rgb(128,5,17)" stroke="rgb(128,5,17)" stroke-width="1.51"></path><path d="M412,501L563,500L488,500Z" fill="rgb(142,7,20)" stroke="rgb(142,7,20)" stroke-width="1.51"></path><path d="M638,423L713,350L636,350Z" fill="rgb(118,3,16)" stroke="rgb(118,3,16)" stroke-width="1.51"></path><path d="M712,275L713,350L712,125Z" fill="rgb(168,30,29)" stroke="rgb(168,30,29)" stroke-width="1.51"></path><path d="M711,425L713,350L638,423Z" fill="rgb(103,0,13)" stroke="rgb(103,0,13)" stroke-width="1.51"></path><path d="M37,-100L36,-25L113,-27Z" fill="rgb(255,236,227)" stroke="rgb(255,236,227)" stroke-width="1.51"></path><path d="M-39,125L-37,198L36,125Z" fill="rgb(255,196,176)" stroke="rgb(255,196,176)" stroke-width="1.51"></path><path d="M-39,125L36,125L-38,48Z" fill="rgb(255,216,200)" stroke="rgb(255,216,200)" stroke-width="1.51"></path><path d="M36,125L-37,198L37,198Z" fill="rgb(255,186,163)" stroke="rgb(255,186,163)" stroke-width="1.51"></path><path d="M-38,48L36,125L38,50Z" fill="rgb(255,224,210)" stroke="rgb(255,224,210)" stroke-width="1.51"></path><path d="M563,500L636,498L561,425Z" fill="rgb(108,1,14)" stroke="rgb(108,1,14)" stroke-width="1.51"></path><path d="M636,498L711,425L638,423Z" fill="rgb(103,0,13)" stroke="rgb(103,0,13)" stroke-width="1.51"></path><path d="M111,423L111,501L186,424Z" fill="rgb(179,101,86)" stroke="rgb(179,101,86)" stroke-width="1.51"></path><path d="M37,349L38,426L111,423Z" fill="rgb(183,118,106)" stroke="rgb(183,118,106)" stroke-width="1.51"></path><path d="M-39,425L38,426L37,349Z" fill="rgb(185,124,115)" stroke="rgb(185,124,115)" stroke-width="1.51"></path><path d="M-37,198L-38,274L37,274Z" fill="rgb(255,160,138)" stroke="rgb(255,160,138)" stroke-width="1.51"></path><path d="M-113,199L-38,274L-37,198Z" fill="rgb(255,169,147)" stroke="rgb(255,169,147)" stroke-width="1.51"></path><path d="M111,-100L37,-100L113,-27Z" fill="rgb(255,231,221)" stroke="rgb(255,231,221)" stroke-width="1.51"></path><path d="M36,-25L-38,48L38,50Z" fill="rgb(255,238,230)" stroke="rgb(255,238,230)" stroke-width="1.51"></path><path d="M186,-101L37,-100L111,-100Z" fill="rgb(255,225,213)" stroke="rgb(255,225,213)" stroke-width="1.51"></path><path d="M-37,-26L-38,48L36,-25Z" fill="rgb(255,245,240)" stroke="rgb(255,245,240)" stroke-width="1.51"></path><path d="M713,48L713,-102L712,-26Z" fill="rgb(185,126,117)" stroke="rgb(185,126,117)" stroke-width="1.51"></path><path d="M712,-26L713,-102L637,-99Z" fill="rgb(185,126,117)" stroke="rgb(185,126,117)" stroke-width="1.51"></path><path d="M637,-99L713,-102L561,-102Z" fill="rgb(185,126,117)" stroke="rgb(185,126,117)" stroke-width="1.51"></path><path d="M38,426L111,501L111,423Z" fill="rgb(182,113,100)" stroke="rgb(182,113,100)" stroke-width="1.51"></path><path d="M188,499L111,501L263,501Z" fill="rgb(177,88,71)" stroke="rgb(177,88,71)" stroke-width="1.51"></path><path d="M-37,-99L-37,-26L36,-25Z" fill="rgb(255,245,240)" stroke="rgb(255,245,240)" stroke-width="1.51"></path><path d="M-38,274L-38,349L37,349Z" fill="rgb(232,143,126)" stroke="rgb(232,143,126)" stroke-width="1.51"></path><path d="M38,426L38,501L111,501Z" fill="rgb(183,118,106)" stroke="rgb(183,118,106)" stroke-width="1.51"></path><path d="M-114,274L-38,349L-38,274Z" fill="rgb(242,147,129)" stroke="rgb(242,147,129)" stroke-width="1.51"></path><path d="M-38,499L38,501L38,426Z" fill="rgb(185,124,115)" stroke="rgb(185,124,115)" stroke-width="1.51"></path><path d="M711,425L713,500L713,350Z" fill="rgb(103,0,13)" stroke="rgb(103,0,13)" stroke-width="1.51"></path><path d="M636,498L713,500L711,425Z" fill="rgb(103,0,13)" stroke="rgb(103,0,13)" stroke-width="1.51"></path><path d="M563,500L713,500L636,498Z" fill="rgb(103,0,13)" stroke="rgb(103,0,13)" stroke-width="1.51"></path><path d="M412,501L713,500L563,500Z" fill="rgb(118,3,16)" stroke="rgb(118,3,16)" stroke-width="1.51"></path><path d="M37,-100L-37,-99L36,-25Z" fill="rgb(255,243,237)" stroke="rgb(255,243,237)" stroke-width="1.51"></path><path d="M-114,126L-39,125L-113,51Z" fill="rgb(255,215,199)" stroke="rgb(255,215,199)" stroke-width="1.51"></path><path d="M-114,126L-113,199L-39,125Z" fill="rgb(255,196,175)" stroke="rgb(255,196,175)" stroke-width="1.51"></path><path d="M-39,125L-38,48L-113,51Z" fill="rgb(255,225,213)" stroke="rgb(255,225,213)" stroke-width="1.51"></path><path d="M-39,125L-113,199L-37,198Z" fill="rgb(255,187,165)" stroke="rgb(255,187,165)" stroke-width="1.51"></path><path d="M-112,351L-39,425L-38,349Z" fill="rgb(203,132,120)" stroke="rgb(203,132,120)" stroke-width="1.51"></path><path d="M-38,349L-39,425L37,349Z" fill="rgb(203,133,120)" stroke="rgb(203,133,120)" stroke-width="1.51"></path><path d="M-113,51L-38,48L-112,-25Z" fill="rgb(255,240,232)" stroke="rgb(255,240,232)" stroke-width="1.51"></path><path d="M-112,-25L-38,48L-37,-26Z" fill="rgb(255,245,240)" stroke="rgb(255,245,240)" stroke-width="1.51"></path><path d="M-113,199L-114,274L-38,274Z" fill="rgb(255,160,138)" stroke="rgb(255,160,138)" stroke-width="1.51"></path><path d="M-114,126L-114,274L-113,199Z" fill="rgb(255,178,154)" stroke="rgb(255,178,154)" stroke-width="1.51"></path><path d="M-37,-99L-112,-25L-37,-26Z" fill="rgb(255,245,240)" stroke="rgb(255,245,240)" stroke-width="1.51"></path><path d="M-113,51L-113,-100L-114,126Z" fill="rgb(255,239,232)" stroke="rgb(255,239,232)" stroke-width="1.51"></path><path d="M-114,274L-112,351L-38,349Z" fill="rgb(231,143,126)" stroke="rgb(231,143,126)" stroke-width="1.51"></path><path d="M-39,425L-38,499L38,426Z" fill="rgb(185,126,117)" stroke="rgb(185,126,117)" stroke-width="1.51"></path><path d="M-112,499L-38,499L-39,425Z" fill="rgb(185,126,117)" stroke="rgb(185,126,117)" stroke-width="1.51"></path><path d="M-112,351L-113,424L-39,425Z" fill="rgb(185,126,117)" stroke="rgb(185,126,117)" stroke-width="1.51"></path><path d="M-114,274L-113,424L-112,351Z" fill="rgb(221,139,123)" stroke="rgb(221,139,123)" stroke-width="1.51"></path><path d="M-112,-25L-113,-100L-113,51Z" fill="rgb(255,245,240)" stroke="rgb(255,245,240)" stroke-width="1.51"></path><path d="M-37,-99L-113,-100L-112,-25Z" fill="rgb(255,245,240)" stroke="rgb(255,245,240)" stroke-width="1.51"></path><path d="M37,-100L-113,-100L-37,-99Z" fill="rgb(255,245,240)" stroke="rgb(255,245,240)" stroke-width="1.51"></path><path d="M186,-101L-113,-100L37,-100Z" fill="rgb(255,240,232)" stroke="rgb(255,240,232)" stroke-width="1.51"></path><path d="M337,-102L-113,-100L186,-101Z" fill="rgb(255,219,205)" stroke="rgb(255,219,205)" stroke-width="1.51"></path><path d="M-38,499L-112,499L38,501Z" fill="rgb(185,126,117)" stroke="rgb(185,126,117)" stroke-width="1.51"></path><path d="M-113,424L-112,499L-39,425Z" fill="rgb(185,126,117)" stroke="rgb(185,126,117)" stroke-width="1.51"></path></svg>