<svg width="600" height="400" xmlns="http://www.w3.org/2000/svg"><path d="M333,198L335,130L260,195Z" fill="rgb(118,172,209)" stroke="rgb(118,172,209)" stroke-width="1.51"></path><path d="M335,130L265,123L260,195Z" fill="rgb(143,181,214)" stroke="rgb(143,181,214)" stroke-width="1.51"></path><path d="M260,195L337,271L333,198Z" fill="rgb(91,162,203)" stroke="rgb(91,162,203)" stroke-width="1.51"></path><path d="M333,198L415,203L335,130Z" fill="rgb(103,163,204)" stroke="rgb(103,163,204)" stroke-width="1.51"></path><path d="M265,123L184,131L260,195Z" fill="rgb(162,188,218)" stroke="rgb(162,188,218)" stroke-width="1.51"></path><path d="M260,195L255,274L337,271Z" fill="rgb(91,159,201)" stroke="rgb(91,159,201)" stroke-width="1.51"></path><path d="M181,197L255,274L260,195Z" fill="rgb(125,172,209)" stroke="rgb(125,172,209)" stroke-width="1.51"></path><path d="M184,131L181,197L260,195Z" fill="rgb(157,186,217)" stroke="rgb(157,186,217)" stroke-width="1.51"></path><path d="M335,130L341,49L265,123Z" fill="rgb(155,186,217)" stroke="rgb(155,186,217)" stroke-width="1.51"></path><path d="M265,123L184,44L184,131Z" fill="rgb(191,201,226)" stroke="rgb(191,201,226)" stroke-width="1.51"></path><path d="M419,129L341,49L335,130Z" fill="rgb(142,177,212)" stroke="rgb(142,177,212)" stroke-width="1.51"></path><path d="M337,271L415,203L333,198Z" fill="rgb(73,152,198)" stroke="rgb(73,152,198)" stroke-width="1.51"></path><path d="M415,203L419,129L335,130Z" fill="rgb(112,164,199)" stroke="rgb(112,164,199)" stroke-width="1.51"></path><path d="M341,49L257,43L265,123Z" fill="rgb(172,195,223)" stroke="rgb(172,195,223)" stroke-width="1.51"></path><path d="M415,203L481,198L419,129Z" fill="rgb(86,154,179)" stroke="rgb(86,154,179)" stroke-width="1.51"></path><path d="M337,271L418,269L415,203Z" fill="rgb(52,143,187)" stroke="rgb(52,143,187)" stroke-width="1.51"></path><path d="M406,353L418,269L337,271Z" fill="rgb(33,136,161)" stroke="rgb(33,136,161)" stroke-width="1.51"></path><path d="M255,274L330,342L337,271Z" fill="rgb(64,148,174)" stroke="rgb(64,148,174)" stroke-width="1.51"></path><path d="M181,197L184,281L255,274Z" fill="rgb(123,169,206)" stroke="rgb(123,169,206)" stroke-width="1.51"></path><path d="M257,43L184,44L265,123Z" fill="rgb(192,202,227)" stroke="rgb(192,202,227)" stroke-width="1.51"></path><path d="M184,131L118,196L181,197Z" fill="rgb(170,192,221)" stroke="rgb(170,192,221)" stroke-width="1.51"></path><path d="M419,129L413,44L341,49Z" fill="rgb(146,179,207)" stroke="rgb(146,179,207)" stroke-width="1.51"></path><path d="M341,49L269,-28L257,43Z" fill="rgb(183,205,228)" stroke="rgb(183,205,228)" stroke-width="1.51"></path><path d="M264,343L330,342L255,274Z" fill="rgb(73,147,163)" stroke="rgb(73,147,163)" stroke-width="1.51"></path><path d="M181,197L111,269L184,281Z" fill="rgb(138,175,211)" stroke="rgb(138,175,211)" stroke-width="1.51"></path><path d="M117,124L118,196L184,131Z" fill="rgb(189,200,225)" stroke="rgb(189,200,225)" stroke-width="1.51"></path><path d="M184,281L264,343L255,274Z" fill="rgb(99,158,178)" stroke="rgb(99,158,178)" stroke-width="1.51"></path><path d="M184,44L117,124L184,131Z" fill="rgb(205,207,229)" stroke="rgb(205,207,229)" stroke-width="1.51"></path><path d="M418,269L481,198L415,203Z" fill="rgb(55,144,173)" stroke="rgb(55,144,173)" stroke-width="1.51"></path><path d="M419,129L483,57L413,44Z" fill="rgb(135,174,190)" stroke="rgb(135,174,190)" stroke-width="1.51"></path><path d="M257,43L179,-24L184,44Z" fill="rgb(212,216,234)" stroke="rgb(212,216,234)" stroke-width="1.51"></path><path d="M331,-33L269,-28L341,49Z" fill="rgb(180,205,228)" stroke="rgb(180,205,228)" stroke-width="1.51"></path><path d="M409,-27L331,-33L341,49Z" fill="rgb(169,197,223)" stroke="rgb(169,197,223)" stroke-width="1.51"></path><path d="M481,198L493,122L419,129Z" fill="rgb(101,157,172)" stroke="rgb(101,157,172)" stroke-width="1.51"></path><path d="M413,44L409,-27L341,49Z" fill="rgb(159,189,214)" stroke="rgb(159,189,214)" stroke-width="1.51"></path><path d="M493,122L483,57L419,129Z" fill="rgb(123,166,177)" stroke="rgb(123,166,177)" stroke-width="1.51"></path><path d="M118,196L111,269L181,197Z" fill="rgb(154,185,217)" stroke="rgb(154,185,217)" stroke-width="1.51"></path><path d="M184,281L181,357L264,343Z" fill="rgb(104,155,164)" stroke="rgb(104,155,164)" stroke-width="1.51"></path><path d="M37,204L111,269L118,196Z" fill="rgb(163,190,219)" stroke="rgb(163,190,219)" stroke-width="1.51"></path><path d="M418,269L485,273L481,198Z" fill="rgb(38,136,161)" stroke="rgb(38,136,161)" stroke-width="1.51"></path><path d="M481,198L561,192L493,122Z" fill="rgb(84,146,154)" stroke="rgb(84,146,154)" stroke-width="1.51"></path><path d="M482,356L485,273L418,269Z" fill="rgb(4,127,134)" stroke="rgb(4,127,134)" stroke-width="1.51"></path><path d="M184,44L109,53L117,124Z" fill="rgb(218,215,234)" stroke="rgb(218,215,234)" stroke-width="1.51"></path><path d="M117,124L37,129L118,196Z" fill="rgb(198,205,229)" stroke="rgb(198,205,229)" stroke-width="1.51"></path><path d="M116,-32L109,53L184,44Z" fill="rgb(230,225,239)" stroke="rgb(230,225,239)" stroke-width="1.51"></path><path d="M330,342L406,353L337,271Z" fill="rgb(44,135,155)" stroke="rgb(44,135,155)" stroke-width="1.51"></path><path d="M341,428L406,353L330,342Z" fill="rgb(40,119,131)" stroke="rgb(40,119,131)" stroke-width="1.51"></path><path d="M479,-25L409,-27L413,44Z" fill="rgb(153,188,199)" stroke="rgb(153,188,199)" stroke-width="1.51"></path><path d="M187,-104L179,-24L269,-28Z" fill="rgb(215,220,236)" stroke="rgb(215,220,236)" stroke-width="1.51"></path><path d="M269,-28L179,-24L257,43Z" fill="rgb(207,216,234)" stroke="rgb(207,216,234)" stroke-width="1.51"></path><path d="M114,355L181,357L184,281Z" fill="rgb(118,161,166)" stroke="rgb(118,161,166)" stroke-width="1.51"></path><path d="M264,343L265,417L330,342Z" fill="rgb(67,133,140)" stroke="rgb(67,133,140)" stroke-width="1.51"></path><path d="M181,357L265,417L264,343Z" fill="rgb(88,138,142)" stroke="rgb(88,138,142)" stroke-width="1.51"></path><path d="M483,57L479,-25L413,44Z" fill="rgb(144,181,187)" stroke="rgb(144,181,187)" stroke-width="1.51"></path><path d="M409,-27L340,-98L331,-33Z" fill="rgb(169,197,223)" stroke="rgb(169,197,223)" stroke-width="1.51"></path><path d="M565,-18L479,-25L483,57Z" fill="rgb(142,177,171)" stroke="rgb(142,177,171)" stroke-width="1.51"></path><path d="M36,49L37,129L109,53Z" fill="rgb(231,223,239)" stroke="rgb(231,223,239)" stroke-width="1.51"></path><path d="M109,53L37,129L117,124Z" fill="rgb(219,215,234)" stroke="rgb(219,215,234)" stroke-width="1.51"></path><path d="M111,269L114,355L184,281Z" fill="rgb(128,170,183)" stroke="rgb(128,170,183)" stroke-width="1.51"></path><path d="M37,129L37,204L118,196Z" fill="rgb(189,203,228)" stroke="rgb(189,203,228)" stroke-width="1.51"></path><path d="M331,-33L266,-103L269,-28Z" fill="rgb(187,209,230)" stroke="rgb(187,209,230)" stroke-width="1.51"></path><path d="M412,-96L340,-98L409,-27Z" fill="rgb(163,193,217)" stroke="rgb(163,193,217)" stroke-width="1.51"></path><path d="M493,122L561,55L483,57Z" fill="rgb(126,164,163)" stroke="rgb(126,164,163)" stroke-width="1.51"></path><path d="M485,273L561,192L481,198Z" fill="rgb(53,135,149)" stroke="rgb(53,135,149)" stroke-width="1.51"></path><path d="M561,192L560,121L493,122Z" fill="rgb(97,146,149)" stroke="rgb(97,146,149)" stroke-width="1.51"></path><path d="M181,357L188,427L265,417Z" fill="rgb(92,130,133)" stroke="rgb(92,130,133)" stroke-width="1.51"></path><path d="M39,353L114,355L111,269Z" fill="rgb(134,170,173)" stroke="rgb(134,170,173)" stroke-width="1.51"></path><path d="M179,-24L116,-32L184,44Z" fill="rgb(229,226,240)" stroke="rgb(229,226,240)" stroke-width="1.51"></path><path d="M187,-104L116,-32L179,-24Z" fill="rgb(228,226,239)" stroke="rgb(228,226,239)" stroke-width="1.51"></path><path d="M485,273L566,273L561,192Z" fill="rgb(38,124,136)" stroke="rgb(38,124,136)" stroke-width="1.51"></path><path d="M406,353L482,356L418,269Z" fill="rgb(14,125,130)" stroke="rgb(14,125,130)" stroke-width="1.51"></path><path d="M419,432L482,356L406,353Z" fill="rgb(13,108,106)" stroke="rgb(13,108,106)" stroke-width="1.51"></path><path d="M340,-98L266,-103L331,-33Z" fill="rgb(180,205,228)" stroke="rgb(180,205,228)" stroke-width="1.51"></path><path d="M265,417L341,428L330,342Z" fill="rgb(53,118,127)" stroke="rgb(53,118,127)" stroke-width="1.51"></path><path d="M340,-98L481,-100L266,-103Z" fill="rgb(168,196,223)" stroke="rgb(168,196,223)" stroke-width="1.51"></path><path d="M479,-25L412,-96L409,-27Z" fill="rgb(153,188,199)" stroke="rgb(153,188,199)" stroke-width="1.51"></path><path d="M479,-25L481,-100L412,-96Z" fill="rgb(148,186,190)" stroke="rgb(148,186,190)" stroke-width="1.51"></path><path d="M560,121L561,55L493,122Z" fill="rgb(116,154,153)" stroke="rgb(116,154,153)" stroke-width="1.51"></path><path d="M565,-18L561,55L641,46Z" fill="rgb(127,152,146)" stroke="rgb(127,152,146)" stroke-width="1.51"></path><path d="M37,204L34,270L111,269Z" fill="rgb(159,187,218)" stroke="rgb(159,187,218)" stroke-width="1.51"></path><path d="M-35,270L34,270L37,204Z" fill="rgb(165,193,221)" stroke="rgb(165,193,221)" stroke-width="1.51"></path><path d="M37,129L-45,204L37,204Z" fill="rgb(194,210,231)" stroke="rgb(194,210,231)" stroke-width="1.51"></path><path d="M35,-22L36,49L109,53Z" fill="rgb(242,233,243)" stroke="rgb(242,233,243)" stroke-width="1.51"></path><path d="M108,423L188,427L181,357Z" fill="rgb(106,136,136)" stroke="rgb(106,136,136)" stroke-width="1.51"></path><path d="M265,417L260,492L341,428Z" fill="rgb(61,119,127)" stroke="rgb(61,119,127)" stroke-width="1.51"></path><path d="M116,-32L35,-22L109,53Z" fill="rgb(243,235,244)" stroke="rgb(243,235,244)" stroke-width="1.51"></path><path d="M266,-103L187,-104L269,-28Z" fill="rgb(205,216,233)" stroke="rgb(205,216,233)" stroke-width="1.51"></path><path d="M566,354L566,273L485,273Z" fill="rgb(5,115,110)" stroke="rgb(5,115,110)" stroke-width="1.51"></path><path d="M561,192L633,121L560,121Z" fill="rgb(92,133,136)" stroke="rgb(92,133,136)" stroke-width="1.51"></path><path d="M341,428L419,432L406,353Z" fill="rgb(28,105,115)" stroke="rgb(28,105,115)" stroke-width="1.51"></path><path d="M482,356L566,354L485,273Z" fill="rgb(4,114,104)" stroke="rgb(4,114,104)" stroke-width="1.51"></path><path d="M407,503L419,432L341,428Z" fill="rgb(28,105,115)" stroke="rgb(28,105,115)" stroke-width="1.51"></path><path d="M419,432L489,419L482,356Z" fill="rgb(4,97,90)" stroke="rgb(4,97,90)" stroke-width="1.51"></path><path d="M412,-96L481,-100L340,-98Z" fill="rgb(158,191,208)" stroke="rgb(158,191,208)" stroke-width="1.51"></path><path d="M556,-103L481,-100L479,-25Z" fill="rgb(143,179,173)" stroke="rgb(143,179,173)" stroke-width="1.51"></path><path d="M34,270L39,353L111,269Z" fill="rgb(142,180,190)" stroke="rgb(142,180,190)" stroke-width="1.51"></path><path d="M114,355L108,423L181,357Z" fill="rgb(116,148,146)" stroke="rgb(116,148,146)" stroke-width="1.51"></path><path d="M106,-95L35,-22L116,-32Z" fill="rgb(243,235,245)" stroke="rgb(243,235,245)" stroke-width="1.51"></path><path d="M36,49L-37,119L37,129Z" fill="rgb(230,226,239)" stroke="rgb(230,226,239)" stroke-width="1.51"></path><path d="M187,-104L106,-95L116,-32Z" fill="rgb(234,229,241)" stroke="rgb(234,229,241)" stroke-width="1.51"></path><path d="M39,353L108,423L114,355Z" fill="rgb(125,153,150)" stroke="rgb(125,153,150)" stroke-width="1.51"></path><path d="M561,55L565,-18L483,57Z" fill="rgb(134,167,160)" stroke="rgb(134,167,160)" stroke-width="1.51"></path><path d="M633,121L561,55L560,121Z" fill="rgb(111,142,141)" stroke="rgb(111,142,141)" stroke-width="1.51"></path><path d="M489,419L566,354L482,356Z" fill="rgb(2,100,83)" stroke="rgb(2,100,83)" stroke-width="1.51"></path><path d="M181,503L260,492L188,427Z" fill="rgb(92,130,133)" stroke="rgb(92,130,133)" stroke-width="1.51"></path><path d="M188,427L260,492L265,417Z" fill="rgb(83,126,131)" stroke="rgb(83,126,131)" stroke-width="1.51"></path><path d="M419,432L492,498L489,419Z" fill="rgb(4,96,89)" stroke="rgb(4,96,89)" stroke-width="1.51"></path><path d="M642,278L630,198L566,273Z" fill="rgb(32,106,120)" stroke="rgb(32,106,120)" stroke-width="1.51"></path><path d="M566,273L630,198L561,192Z" fill="rgb(48,117,127)" stroke="rgb(48,117,127)" stroke-width="1.51"></path><path d="M630,198L633,121L561,192Z" fill="rgb(76,124,130)" stroke="rgb(76,124,130)" stroke-width="1.51"></path><path d="M-32,47L-37,119L36,49Z" fill="rgb(239,233,243)" stroke="rgb(239,233,243)" stroke-width="1.51"></path><path d="M34,270L-38,347L39,353Z" fill="rgb(144,180,180)" stroke="rgb(144,180,180)" stroke-width="1.51"></path><path d="M260,492L333,506L341,428Z" fill="rgb(53,116,126)" stroke="rgb(53,116,126)" stroke-width="1.51"></path><path d="M-37,119L-45,204L37,129Z" fill="rgb(210,218,235)" stroke="rgb(210,218,235)" stroke-width="1.51"></path><path d="M-108,132L-106,195L-45,204Z" fill="rgb(196,212,232)" stroke="rgb(196,212,232)" stroke-width="1.51"></path><path d="M-32,-19L-32,47L36,49Z" fill="rgb(250,241,248)" stroke="rgb(250,241,248)" stroke-width="1.51"></path><path d="M-45,204L-35,270L37,204Z" fill="rgb(174,201,225)" stroke="rgb(174,201,225)" stroke-width="1.51"></path><path d="M333,506L407,503L341,428Z" fill="rgb(37,108,121)" stroke="rgb(37,108,121)" stroke-width="1.51"></path><path d="M637,428L630,348L566,354Z" fill="rgb(1,78,62)" stroke="rgb(1,78,62)" stroke-width="1.51"></path><path d="M260,492L181,503L333,506Z" fill="rgb(75,123,130)" stroke="rgb(75,123,130)" stroke-width="1.51"></path><path d="M108,423L181,503L188,427Z" fill="rgb(106,136,136)" stroke="rgb(106,136,136)" stroke-width="1.51"></path><path d="M110,506L181,503L108,423Z" fill="rgb(111,139,138)" stroke="rgb(111,139,138)" stroke-width="1.51"></path><path d="M565,-18L556,-103L479,-25Z" fill="rgb(140,174,164)" stroke="rgb(140,174,164)" stroke-width="1.51"></path><path d="M633,121L641,46L561,55Z" fill="rgb(116,141,139)" stroke="rgb(116,141,139)" stroke-width="1.51"></path><path d="M711,49L641,46L633,121Z" fill="rgb(116,141,139)" stroke="rgb(116,141,139)" stroke-width="1.51"></path><path d="M630,348L642,278L566,273Z" fill="rgb(5,99,95)" stroke="rgb(5,99,95)" stroke-width="1.51"></path><path d="M630,198L715,131L633,121Z" fill="rgb(88,128,132)" stroke="rgb(88,128,132)" stroke-width="1.51"></path><path d="M39,353L41,424L108,423Z" fill="rgb(123,147,142)" stroke="rgb(123,147,142)" stroke-width="1.51"></path><path d="M-35,419L41,424L39,353Z" fill="rgb(129,154,146)" stroke="rgb(129,154,146)" stroke-width="1.51"></path><path d="M35,-22L-32,-19L36,49Z" fill="rgb(253,244,250)" stroke="rgb(253,244,250)" stroke-width="1.51"></path><path d="M106,-95L42,-104L35,-22Z" fill="rgb(247,238,246)" stroke="rgb(247,238,246)" stroke-width="1.51"></path><path d="M187,-104L42,-104L106,-95Z" fill="rgb(238,232,243)" stroke="rgb(238,232,243)" stroke-width="1.51"></path><path d="M642,-29L556,-103L565,-18Z" fill="rgb(132,158,150)" stroke="rgb(132,158,150)" stroke-width="1.51"></path><path d="M481,-100L556,-103L266,-103Z" fill="rgb(153,188,199)" stroke="rgb(153,188,199)" stroke-width="1.51"></path><path d="M266,-103L645,-107L187,-104Z" fill="rgb(168,196,223)" stroke="rgb(168,196,223)" stroke-width="1.51"></path><path d="M-108,132L-45,204L-37,119Z" fill="rgb(210,217,235)" stroke="rgb(210,217,235)" stroke-width="1.51"></path><path d="M-40,-101L-32,-19L35,-22Z" fill="rgb(255,247,251)" stroke="rgb(255,247,251)" stroke-width="1.51"></path><path d="M566,354L630,348L566,273Z" fill="rgb(3,97,86)" stroke="rgb(3,97,86)" stroke-width="1.51"></path><path d="M568,431L566,354L489,419Z" fill="rgb(1,85,67)" stroke="rgb(1,85,67)" stroke-width="1.51"></path><path d="M492,498L568,431L489,419Z" fill="rgb(2,90,74)" stroke="rgb(2,90,74)" stroke-width="1.51"></path><path d="M-35,270L-38,347L34,270Z" fill="rgb(151,188,196)" stroke="rgb(151,188,196)" stroke-width="1.51"></path><path d="M-113,267L-38,347L-35,270Z" fill="rgb(151,188,196)" stroke="rgb(151,188,196)" stroke-width="1.51"></path><path d="M407,503L492,498L419,432Z" fill="rgb(10,100,98)" stroke="rgb(10,100,98)" stroke-width="1.51"></path><path d="M32,497L110,506L108,423Z" fill="rgb(120,144,141)" stroke="rgb(120,144,141)" stroke-width="1.51"></path><path d="M181,503L110,506L333,506Z" fill="rgb(93,130,133)" stroke="rgb(93,130,133)" stroke-width="1.51"></path><path d="M32,497L108,423L41,424Z" fill="rgb(124,147,142)" stroke="rgb(124,147,142)" stroke-width="1.51"></path><path d="M641,46L642,-29L565,-18Z" fill="rgb(130,155,146)" stroke="rgb(130,155,146)" stroke-width="1.51"></path><path d="M709,-31L642,-29L641,46Z" fill="rgb(130,155,146)" stroke="rgb(130,155,146)" stroke-width="1.51"></path><path d="M-108,132L-37,119L-118,57Z" fill="rgb(230,227,240)" stroke="rgb(230,227,240)" stroke-width="1.51"></path><path d="M-45,204L-113,267L-35,270Z" fill="rgb(167,195,222)" stroke="rgb(167,195,222)" stroke-width="1.51"></path><path d="M-118,57L-37,119L-32,47Z" fill="rgb(238,232,243)" stroke="rgb(238,232,243)" stroke-width="1.51"></path><path d="M642,278L714,201L630,198Z" fill="rgb(44,112,123)" stroke="rgb(44,112,123)" stroke-width="1.51"></path><path d="M705,275L714,201L642,278Z" fill="rgb(31,106,119)" stroke="rgb(31,106,119)" stroke-width="1.51"></path><path d="M714,201L715,131L630,198Z" fill="rgb(72,122,129)" stroke="rgb(72,122,129)" stroke-width="1.51"></path><path d="M-112,354L-35,419L-38,347Z" fill="rgb(136,166,157)" stroke="rgb(136,166,157)" stroke-width="1.51"></path><path d="M-38,347L-35,419L39,353Z" fill="rgb(136,166,157)" stroke="rgb(136,166,157)" stroke-width="1.51"></path><path d="M719,345L705,275L642,278Z" fill="rgb(5,99,95)" stroke="rgb(5,99,95)" stroke-width="1.51"></path><path d="M719,345L642,278L630,348Z" fill="rgb(3,94,83)" stroke="rgb(3,94,83)" stroke-width="1.51"></path><path d="M-106,195L-113,267L-45,204Z" fill="rgb(175,202,226)" stroke="rgb(175,202,226)" stroke-width="1.51"></path><path d="M-108,132L-113,267L-106,195Z" fill="rgb(184,208,229)" stroke="rgb(184,208,229)" stroke-width="1.51"></path><path d="M-35,419L32,497L41,424Z" fill="rgb(129,153,145)" stroke="rgb(129,153,145)" stroke-width="1.51"></path><path d="M635,500L568,495L492,498Z" fill="rgb(1,78,62)" stroke="rgb(1,78,62)" stroke-width="1.51"></path><path d="M492,498L568,495L568,431Z" fill="rgb(1,84,67)" stroke="rgb(1,84,67)" stroke-width="1.51"></path><path d="M568,431L637,428L566,354Z" fill="rgb(1,72,56)" stroke="rgb(1,72,56)" stroke-width="1.51"></path><path d="M715,131L711,49L633,121Z" fill="rgb(108,137,137)" stroke="rgb(108,137,137)" stroke-width="1.51"></path><path d="M42,-104L-40,-101L35,-22Z" fill="rgb(253,245,250)" stroke="rgb(253,245,250)" stroke-width="1.51"></path><path d="M-112,-32L-118,57L-32,47Z" fill="rgb(250,242,248)" stroke="rgb(250,242,248)" stroke-width="1.51"></path><path d="M-108,132L-118,57L-113,267Z" fill="rgb(210,217,235)" stroke="rgb(210,217,235)" stroke-width="1.51"></path><path d="M-112,-32L-32,47L-32,-19Z" fill="rgb(255,247,251)" stroke="rgb(255,247,251)" stroke-width="1.51"></path><path d="M568,495L637,428L568,431Z" fill="rgb(1,72,56)" stroke="rgb(1,72,56)" stroke-width="1.51"></path><path d="M708,-96L645,-107L642,-29Z" fill="rgb(130,155,146)" stroke="rgb(130,155,146)" stroke-width="1.51"></path><path d="M642,-29L645,-107L556,-103Z" fill="rgb(130,155,146)" stroke="rgb(130,155,146)" stroke-width="1.51"></path><path d="M556,-103L645,-107L266,-103Z" fill="rgb(145,181,179)" stroke="rgb(145,181,179)" stroke-width="1.51"></path><path d="M187,-104L-108,-108L42,-104Z" fill="rgb(250,241,248)" stroke="rgb(250,241,248)" stroke-width="1.51"></path><path d="M-113,267L-112,354L-38,347Z" fill="rgb(145,182,181)" stroke="rgb(145,182,181)" stroke-width="1.51"></path><path d="M-35,419L-39,495L32,497Z" fill="rgb(130,155,146)" stroke="rgb(130,155,146)" stroke-width="1.51"></path><path d="M-118,429L-112,354L-113,267Z" fill="rgb(141,176,166)" stroke="rgb(141,176,166)" stroke-width="1.51"></path><path d="M-40,-101L-112,-32L-32,-19Z" fill="rgb(255,247,251)" stroke="rgb(255,247,251)" stroke-width="1.51"></path><path d="M711,49L709,-31L641,46Z" fill="rgb(127,151,144)" stroke="rgb(127,151,144)" stroke-width="1.51"></path><path d="M715,131L709,-31L711,49Z" fill="rgb(122,145,141)" stroke="rgb(122,145,141)" stroke-width="1.51"></path><path d="M716,424L719,345L630,348Z" fill="rgb(1,80,63)" stroke="rgb(1,80,63)" stroke-width="1.51"></path><path d="M705,275L719,345L714,201Z" fill="rgb(22,103,108)" stroke="rgb(22,103,108)" stroke-width="1.51"></path><path d="M714,201L719,345L715,131Z" fill="rgb(44,112,123)" stroke="rgb(44,112,123)" stroke-width="1.51"></path><path d="M-106,494L-39,495L-35,419Z" fill="rgb(130,155,146)" stroke="rgb(130,155,146)" stroke-width="1.51"></path><path d="M32,497L-39,495L110,506Z" fill="rgb(126,150,144)" stroke="rgb(126,150,144)" stroke-width="1.51"></path><path d="M637,428L716,424L630,348Z" fill="rgb(1,70,54)" stroke="rgb(1,70,54)" stroke-width="1.51"></path><path d="M568,495L635,500L637,428Z" fill="rgb(1,70,54)" stroke="rgb(1,70,54)" stroke-width="1.51"></path><path d="M407,503L635,500L492,498Z" fill="rgb(2,91,75)" stroke="rgb(2,91,75)" stroke-width="1.51"></path><path d="M333,506L635,500L407,503Z" fill="rgb(4,98,92)" stroke="rgb(4,98,92)" stroke-width="1.51"></path><path d="M709,-31L708,-96L642,-29Z" fill="rgb(130,155,146)" stroke="rgb(130,155,146)" stroke-width="1.51"></path><path d="M715,131L708,-96L709,-31Z" fill="rgb(130,154,146)" stroke="rgb(130,154,146)" stroke-width="1.51"></path><path d="M-40,-101L-108,-108L-112,-32Z" fill="rgb(255,247,251)" stroke="rgb(255,247,251)" stroke-width="1.51"></path><path d="M-112,-32L-108,-108L-118,57Z" fill="rgb(255,247,251)" stroke="rgb(255,247,251)" stroke-width="1.51"></path><path d="M42,-104L-108,-108L-40,-101Z" fill="rgb(255,247,251)" stroke="rgb(255,247,251)" stroke-width="1.51"></path><path d="M645,-107L-108,-108L187,-104Z" fill="rgb(205,216,233)" stroke="rgb(205,216,233)" stroke-width="1.51"></path><path d="M715,495L716,424L637,428Z" fill="rgb(1,70,54)" stroke="rgb(1,70,54)" stroke-width="1.51"></path><path d="M-118,57L-118,429L-113,267Z" fill="rgb(165,194,221)" stroke="rgb(165,194,221)" stroke-width="1.51"></path><path d="M-112,354L-118,429L-35,419Z" fill="rgb(130,155,146)" stroke="rgb(130,155,146)" stroke-width="1.51"></path><path d="M-118,429L-106,494L-35,419Z" fill="rgb(130,155,146)" stroke="rgb(130,155,146)" stroke-width="1.51"></path><path d="M-39,495L-106,494L110,506Z" fill="rgb(130,155,146)" stroke="rgb(130,155,146)" stroke-width="1.51"></path><path d="M635,500L715,495L637,428Z" fill="rgb(1,70,54)" stroke="rgb(1,70,54)" stroke-width="1.51"></path><path d="M716,424L715,495L719,345Z" fill="rgb(1,70,54)" stroke="rgb(1,70,54)" stroke-width="1.51"></path></svg>