<svg width="600" height="400" xmlns="http://www.w3.org/2000/svg"><path d="M263,199L337,200L337,125Z" fill="rgb(130,202,124)" stroke="rgb(130,202,124)" stroke-width="1.51"></path><path d="M337,125L262,124L263,199Z" fill="rgb(152,212,133)" stroke="rgb(152,212,133)" stroke-width="1.51"></path><path d="M263,199L337,274L337,200Z" fill="rgb(104,189,111)" stroke="rgb(104,189,111)" stroke-width="1.51"></path><path d="M263,199L261,273L337,274Z" fill="rgb(100,187,109)" stroke="rgb(100,187,109)" stroke-width="1.51"></path><path d="M188,199L261,273L263,199Z" fill="rgb(131,201,123)" stroke="rgb(131,201,123)" stroke-width="1.51"></path><path d="M337,125L263,50L262,124Z" fill="rgb(174,221,144)" stroke="rgb(174,221,144)" stroke-width="1.51"></path><path d="M413,199L412,124L337,125Z" fill="rgb(121,192,115)" stroke="rgb(121,192,115)" stroke-width="1.51"></path><path d="M413,199L337,125L337,200Z" fill="rgb(113,193,115)" stroke="rgb(113,193,115)" stroke-width="1.51"></path><path d="M262,124L188,199L263,199Z" fill="rgb(156,214,135)" stroke="rgb(156,214,135)" stroke-width="1.51"></path><path d="M413,274L413,199L337,200Z" fill="rgb(78,174,98)" stroke="rgb(78,174,98)" stroke-width="1.51"></path><path d="M338,49L263,50L337,125Z" fill="rgb(173,220,145)" stroke="rgb(173,220,145)" stroke-width="1.51"></path><path d="M262,124L188,124L188,199Z" fill="rgb(177,223,143)" stroke="rgb(177,223,143)" stroke-width="1.51"></path><path d="M263,50L188,124L262,124Z" fill="rgb(191,229,150)" stroke="rgb(191,229,150)" stroke-width="1.51"></path><path d="M412,124L338,49L337,125Z" fill="rgb(150,208,130)" stroke="rgb(150,208,130)" stroke-width="1.51"></path><path d="M337,274L413,274L337,200Z" fill="rgb(71,173,95)" stroke="rgb(71,173,95)" stroke-width="1.51"></path><path d="M412,124L412,49L338,49Z" fill="rgb(152,205,130)" stroke="rgb(152,205,130)" stroke-width="1.51"></path><path d="M486,50L412,49L412,124Z" fill="rgb(142,192,121)" stroke="rgb(142,192,121)" stroke-width="1.51"></path><path d="M263,50L187,50L188,124Z" fill="rgb(206,235,159)" stroke="rgb(206,235,159)" stroke-width="1.51"></path><path d="M113,200L186,274L188,199Z" fill="rgb(155,211,133)" stroke="rgb(155,211,133)" stroke-width="1.51"></path><path d="M263,-25L187,50L263,50Z" fill="rgb(208,235,172)" stroke="rgb(208,235,172)" stroke-width="1.51"></path><path d="M188,199L186,274L261,273Z" fill="rgb(128,198,120)" stroke="rgb(128,198,120)" stroke-width="1.51"></path><path d="M262,350L338,349L337,274Z" fill="rgb(70,155,88)" stroke="rgb(70,155,88)" stroke-width="1.51"></path><path d="M113,200L188,199L112,124Z" fill="rgb(185,226,149)" stroke="rgb(185,226,149)" stroke-width="1.51"></path><path d="M413,199L486,124L412,124Z" fill="rgb(111,180,106)" stroke="rgb(111,180,106)" stroke-width="1.51"></path><path d="M488,199L486,124L413,199Z" fill="rgb(93,168,98)" stroke="rgb(93,168,98)" stroke-width="1.51"></path><path d="M337,274L411,349L413,274Z" fill="rgb(48,149,78)" stroke="rgb(48,149,78)" stroke-width="1.51"></path><path d="M262,350L337,274L261,273Z" fill="rgb(86,167,96)" stroke="rgb(86,167,96)" stroke-width="1.51"></path><path d="M338,49L336,-25L263,50Z" fill="rgb(183,224,161)" stroke="rgb(183,224,161)" stroke-width="1.51"></path><path d="M412,-26L336,-25L338,49Z" fill="rgb(170,216,162)" stroke="rgb(170,216,162)" stroke-width="1.51"></path><path d="M486,275L488,199L413,199Z" fill="rgb(64,156,86)" stroke="rgb(64,156,86)" stroke-width="1.51"></path><path d="M112,124L188,199L188,124Z" fill="rgb(192,229,150)" stroke="rgb(192,229,150)" stroke-width="1.51"></path><path d="M336,-25L263,-25L263,50Z" fill="rgb(193,229,176)" stroke="rgb(193,229,176)" stroke-width="1.51"></path><path d="M187,350L262,350L261,273Z" fill="rgb(99,167,99)" stroke="rgb(99,167,99)" stroke-width="1.51"></path><path d="M187,50L112,124L188,124Z" fill="rgb(214,239,161)" stroke="rgb(214,239,161)" stroke-width="1.51"></path><path d="M112,49L112,124L187,50Z" fill="rgb(227,244,170)" stroke="rgb(227,244,170)" stroke-width="1.51"></path><path d="M338,349L411,349L337,274Z" fill="rgb(50,146,79)" stroke="rgb(50,146,79)" stroke-width="1.51"></path><path d="M413,274L486,275L413,199Z" fill="rgb(53,154,82)" stroke="rgb(53,154,82)" stroke-width="1.51"></path><path d="M337,424L411,349L338,349Z" fill="rgb(42,130,72)" stroke="rgb(42,130,72)" stroke-width="1.51"></path><path d="M412,49L412,-26L338,49Z" fill="rgb(161,209,147)" stroke="rgb(161,209,147)" stroke-width="1.51"></path><path d="M486,124L486,50L412,124Z" fill="rgb(130,183,112)" stroke="rgb(130,183,112)" stroke-width="1.51"></path><path d="M561,49L486,50L486,124Z" fill="rgb(129,176,113)" stroke="rgb(129,176,113)" stroke-width="1.51"></path><path d="M486,349L486,275L413,274Z" fill="rgb(33,130,66)" stroke="rgb(33,130,66)" stroke-width="1.51"></path><path d="M186,274L187,350L261,273Z" fill="rgb(113,178,106)" stroke="rgb(113,178,106)" stroke-width="1.51"></path><path d="M113,200L112,274L186,274Z" fill="rgb(149,207,129)" stroke="rgb(149,207,129)" stroke-width="1.51"></path><path d="M37,200L112,274L113,200Z" fill="rgb(171,218,143)" stroke="rgb(171,218,143)" stroke-width="1.51"></path><path d="M336,-25L337,-100L263,-25Z" fill="rgb(185,225,171)" stroke="rgb(185,225,171)" stroke-width="1.51"></path><path d="M486,-26L412,-26L412,49Z" fill="rgb(153,197,148)" stroke="rgb(153,197,148)" stroke-width="1.51"></path><path d="M113,349L187,350L186,274Z" fill="rgb(122,176,109)" stroke="rgb(122,176,109)" stroke-width="1.51"></path><path d="M187,-26L112,49L187,50Z" fill="rgb(231,246,184)" stroke="rgb(231,246,184)" stroke-width="1.51"></path><path d="M263,-101L187,-26L263,-25Z" fill="rgb(210,236,183)" stroke="rgb(210,236,183)" stroke-width="1.51"></path><path d="M263,-25L187,-26L187,50Z" fill="rgb(218,240,187)" stroke="rgb(218,240,187)" stroke-width="1.51"></path><path d="M561,276L562,199L488,199Z" fill="rgb(53,140,79)" stroke="rgb(53,140,79)" stroke-width="1.51"></path><path d="M411,349L486,349L413,274Z" fill="rgb(32,128,66)" stroke="rgb(32,128,66)" stroke-width="1.51"></path><path d="M413,424L486,349L411,349Z" fill="rgb(22,112,60)" stroke="rgb(22,112,60)" stroke-width="1.51"></path><path d="M262,350L337,424L338,349Z" fill="rgb(61,139,81)" stroke="rgb(61,139,81)" stroke-width="1.51"></path><path d="M262,425L337,424L262,350Z" fill="rgb(68,133,81)" stroke="rgb(68,133,81)" stroke-width="1.51"></path><path d="M488,199L563,124L486,124Z" fill="rgb(100,164,98)" stroke="rgb(100,164,98)" stroke-width="1.51"></path><path d="M561,276L488,199L486,275Z" fill="rgb(40,139,75)" stroke="rgb(40,139,75)" stroke-width="1.51"></path><path d="M187,350L262,425L262,350Z" fill="rgb(89,149,91)" stroke="rgb(89,149,91)" stroke-width="1.51"></path><path d="M112,274L113,349L186,274Z" fill="rgb(134,187,116)" stroke="rgb(134,187,116)" stroke-width="1.51"></path><path d="M486,50L486,-26L412,49Z" fill="rgb(147,190,134)" stroke="rgb(147,190,134)" stroke-width="1.51"></path><path d="M561,49L486,-26L486,50Z" fill="rgb(139,180,129)" stroke="rgb(139,180,129)" stroke-width="1.51"></path><path d="M412,-26L337,-100L336,-25Z" fill="rgb(170,216,162)" stroke="rgb(170,216,162)" stroke-width="1.51"></path><path d="M411,-100L337,-100L412,-26Z" fill="rgb(163,210,157)" stroke="rgb(163,210,157)" stroke-width="1.51"></path><path d="M112,124L38,124L113,200Z" fill="rgb(208,236,161)" stroke="rgb(208,236,161)" stroke-width="1.51"></path><path d="M112,274L38,275L113,349Z" fill="rgb(144,191,122)" stroke="rgb(144,191,122)" stroke-width="1.51"></path><path d="M112,49L38,124L112,124Z" fill="rgb(230,245,172)" stroke="rgb(230,245,172)" stroke-width="1.51"></path><path d="M187,425L262,425L187,350Z" fill="rgb(94,143,91)" stroke="rgb(94,143,91)" stroke-width="1.51"></path><path d="M562,199L563,124L488,199Z" fill="rgb(83,152,91)" stroke="rgb(83,152,91)" stroke-width="1.51"></path><path d="M38,124L37,200L113,200Z" fill="rgb(198,231,162)" stroke="rgb(198,231,162)" stroke-width="1.51"></path><path d="M337,-100L263,-101L263,-25Z" fill="rgb(193,229,176)" stroke="rgb(193,229,176)" stroke-width="1.51"></path><path d="M112,49L37,50L38,124Z" fill="rgb(241,250,183)" stroke="rgb(241,250,183)" stroke-width="1.51"></path><path d="M187,-26L111,-26L112,49Z" fill="rgb(239,249,198)" stroke="rgb(239,249,198)" stroke-width="1.51"></path><path d="M113,-101L111,-26L187,-26Z" fill="rgb(239,249,198)" stroke="rgb(239,249,198)" stroke-width="1.51"></path><path d="M563,124L561,49L486,124Z" fill="rgb(119,167,105)" stroke="rgb(119,167,105)" stroke-width="1.51"></path><path d="M486,349L561,276L486,275Z" fill="rgb(23,120,62)" stroke="rgb(23,120,62)" stroke-width="1.51"></path><path d="M562,199L637,124L563,124Z" fill="rgb(92,145,90)" stroke="rgb(92,145,90)" stroke-width="1.51"></path><path d="M337,424L413,424L411,349Z" fill="rgb(31,116,64)" stroke="rgb(31,116,64)" stroke-width="1.51"></path><path d="M486,349L561,349L561,276Z" fill="rgb(10,108,57)" stroke="rgb(10,108,57)" stroke-width="1.51"></path><path d="M411,500L413,424L337,424Z" fill="rgb(31,115,64)" stroke="rgb(31,115,64)" stroke-width="1.51"></path><path d="M337,-100L488,-102L263,-101Z" fill="rgb(169,216,162)" stroke="rgb(169,216,162)" stroke-width="1.51"></path><path d="M486,-26L411,-100L412,-26Z" fill="rgb(153,197,148)" stroke="rgb(153,197,148)" stroke-width="1.51"></path><path d="M37,200L38,275L112,274Z" fill="rgb(162,212,141)" stroke="rgb(162,212,141)" stroke-width="1.51"></path><path d="M263,-101L187,-100L187,-26Z" fill="rgb(218,240,187)" stroke="rgb(218,240,187)" stroke-width="1.51"></path><path d="M113,424L187,425L187,350Z" fill="rgb(108,149,97)" stroke="rgb(108,149,97)" stroke-width="1.51"></path><path d="M113,424L187,350L113,349Z" fill="rgb(118,162,104)" stroke="rgb(118,162,104)" stroke-width="1.51"></path><path d="M38,124L-38,124L37,200Z" fill="rgb(214,238,182)" stroke="rgb(214,238,182)" stroke-width="1.51"></path><path d="M38,-26L37,50L112,49Z" fill="rgb(250,253,200)" stroke="rgb(250,253,200)" stroke-width="1.51"></path><path d="M487,424L561,349L486,349Z" fill="rgb(4,98,52)" stroke="rgb(4,98,52)" stroke-width="1.51"></path><path d="M638,199L637,124L562,199Z" fill="rgb(77,136,84)" stroke="rgb(77,136,84)" stroke-width="1.51"></path><path d="M413,424L487,424L486,349Z" fill="rgb(15,98,53)" stroke="rgb(15,98,53)" stroke-width="1.51"></path><path d="M488,499L487,424L413,424Z" fill="rgb(15,97,53)" stroke="rgb(15,97,53)" stroke-width="1.51"></path><path d="M37,351L113,424L113,349Z" fill="rgb(128,165,111)" stroke="rgb(128,165,111)" stroke-width="1.51"></path><path d="M111,-26L38,-26L112,49Z" fill="rgb(249,253,205)" stroke="rgb(249,253,205)" stroke-width="1.51"></path><path d="M37,-100L38,-26L111,-26Z" fill="rgb(252,254,211)" stroke="rgb(252,254,211)" stroke-width="1.51"></path><path d="M486,-26L488,-102L411,-100Z" fill="rgb(149,191,144)" stroke="rgb(149,191,144)" stroke-width="1.51"></path><path d="M561,49L563,-26L486,-26Z" fill="rgb(137,174,136)" stroke="rgb(137,174,136)" stroke-width="1.51"></path><path d="M637,49L563,-26L561,49Z" fill="rgb(129,161,120)" stroke="rgb(129,161,120)" stroke-width="1.51"></path><path d="M187,-100L113,-101L187,-26Z" fill="rgb(233,246,194)" stroke="rgb(233,246,194)" stroke-width="1.51"></path><path d="M263,-101L113,-101L187,-100Z" fill="rgb(225,243,190)" stroke="rgb(225,243,190)" stroke-width="1.51"></path><path d="M-38,349L37,351L38,275Z" fill="rgb(144,185,138)" stroke="rgb(144,185,138)" stroke-width="1.51"></path><path d="M38,275L37,351L113,349Z" fill="rgb(141,184,124)" stroke="rgb(141,184,124)" stroke-width="1.51"></path><path d="M411,-100L488,-102L337,-100Z" fill="rgb(158,204,152)" stroke="rgb(158,204,152)" stroke-width="1.51"></path><path d="M263,-101L488,-102L113,-101Z" fill="rgb(193,229,176)" stroke="rgb(193,229,176)" stroke-width="1.51"></path><path d="M563,-26L488,-102L486,-26Z" fill="rgb(140,181,139)" stroke="rgb(140,181,139)" stroke-width="1.51"></path><path d="M563,124L637,49L561,49Z" fill="rgb(121,157,105)" stroke="rgb(121,157,105)" stroke-width="1.51"></path><path d="M638,199L562,199L637,274Z" fill="rgb(50,125,73)" stroke="rgb(50,125,73)" stroke-width="1.51"></path><path d="M262,425L336,500L337,424Z" fill="rgb(59,129,77)" stroke="rgb(59,129,77)" stroke-width="1.51"></path><path d="M187,425L261,499L262,425Z" fill="rgb(86,140,88)" stroke="rgb(86,140,88)" stroke-width="1.51"></path><path d="M187,499L261,499L187,425Z" fill="rgb(94,143,91)" stroke="rgb(94,143,91)" stroke-width="1.51"></path><path d="M261,499L336,500L262,425Z" fill="rgb(68,133,81)" stroke="rgb(68,133,81)" stroke-width="1.51"></path><path d="M637,274L562,199L561,276Z" fill="rgb(34,121,67)" stroke="rgb(34,121,67)" stroke-width="1.51"></path><path d="M37,50L-38,124L38,124Z" fill="rgb(236,248,192)" stroke="rgb(236,248,192)" stroke-width="1.51"></path><path d="M37,200L-39,274L38,275Z" fill="rgb(165,213,156)" stroke="rgb(165,213,156)" stroke-width="1.51"></path><path d="M-39,49L-38,124L37,50Z" fill="rgb(244,251,202)" stroke="rgb(244,251,202)" stroke-width="1.51"></path><path d="M-38,124L-39,199L37,200Z" fill="rgb(202,233,180)" stroke="rgb(202,233,180)" stroke-width="1.51"></path><path d="M636,349L637,274L561,276Z" fill="rgb(17,100,54)" stroke="rgb(17,100,54)" stroke-width="1.51"></path><path d="M636,349L561,276L561,349Z" fill="rgb(9,96,52)" stroke="rgb(9,96,52)" stroke-width="1.51"></path><path d="M261,499L187,499L336,500Z" fill="rgb(77,136,84)" stroke="rgb(77,136,84)" stroke-width="1.51"></path><path d="M113,424L187,499L187,425Z" fill="rgb(108,149,97)" stroke="rgb(108,149,97)" stroke-width="1.51"></path><path d="M112,500L187,499L113,424Z" fill="rgb(114,151,100)" stroke="rgb(114,151,100)" stroke-width="1.51"></path><path d="M711,125L637,49L637,124Z" fill="rgb(111,150,99)" stroke="rgb(111,150,99)" stroke-width="1.51"></path><path d="M637,124L637,49L563,124Z" fill="rgb(112,150,99)" stroke="rgb(112,150,99)" stroke-width="1.51"></path><path d="M336,500L411,500L337,424Z" fill="rgb(39,120,69)" stroke="rgb(39,120,69)" stroke-width="1.51"></path><path d="M-39,199L-39,274L37,200Z" fill="rgb(178,220,167)" stroke="rgb(178,220,167)" stroke-width="1.51"></path><path d="M-38,124L-113,125L-39,199Z" fill="rgb(215,238,185)" stroke="rgb(215,238,185)" stroke-width="1.51"></path><path d="M38,-26L-39,49L37,50Z" fill="rgb(253,254,215)" stroke="rgb(253,254,215)" stroke-width="1.51"></path><path d="M-38,-27L-39,49L38,-26Z" fill="rgb(255,255,229)" stroke="rgb(255,255,229)" stroke-width="1.51"></path><path d="M488,499L561,425L487,424Z" fill="rgb(3,89,49)" stroke="rgb(3,89,49)" stroke-width="1.51"></path><path d="M487,424L561,425L561,349Z" fill="rgb(0,84,47)" stroke="rgb(0,84,47)" stroke-width="1.51"></path><path d="M37,351L38,425L113,424Z" fill="rgb(126,156,112)" stroke="rgb(126,156,112)" stroke-width="1.51"></path><path d="M-39,424L38,425L37,351Z" fill="rgb(129,158,125)" stroke="rgb(129,158,125)" stroke-width="1.51"></path><path d="M113,-101L37,-100L111,-26Z" fill="rgb(249,253,205)" stroke="rgb(249,253,205)" stroke-width="1.51"></path><path d="M636,-100L563,-101L563,-26Z" fill="rgb(131,161,130)" stroke="rgb(131,161,130)" stroke-width="1.51"></path><path d="M563,-26L563,-101L488,-102Z" fill="rgb(137,174,136)" stroke="rgb(137,174,136)" stroke-width="1.51"></path><path d="M636,424L636,349L561,349Z" fill="rgb(0,78,44)" stroke="rgb(0,78,44)" stroke-width="1.51"></path><path d="M411,500L488,499L413,424Z" fill="rgb(20,102,56)" stroke="rgb(20,102,56)" stroke-width="1.51"></path><path d="M561,425L636,424L561,349Z" fill="rgb(0,72,42)" stroke="rgb(0,72,42)" stroke-width="1.51"></path><path d="M-39,274L-38,349L38,275Z" fill="rgb(150,194,145)" stroke="rgb(150,194,145)" stroke-width="1.51"></path><path d="M38,425L112,500L113,424Z" fill="rgb(123,155,107)" stroke="rgb(123,155,107)" stroke-width="1.51"></path><path d="M187,499L112,500L336,500Z" fill="rgb(94,143,91)" stroke="rgb(94,143,91)" stroke-width="1.51"></path><path d="M36,499L112,500L38,425Z" fill="rgb(127,157,112)" stroke="rgb(127,157,112)" stroke-width="1.51"></path><path d="M637,49L638,-26L563,-26Z" fill="rgb(129,158,129)" stroke="rgb(129,158,129)" stroke-width="1.51"></path><path d="M712,-24L638,-26L637,49Z" fill="rgb(129,158,129)" stroke="rgb(129,158,129)" stroke-width="1.51"></path><path d="M37,-100L-38,-27L38,-26Z" fill="rgb(255,255,226)" stroke="rgb(255,255,226)" stroke-width="1.51"></path><path d="M638,199L711,125L637,124Z" fill="rgb(90,141,89)" stroke="rgb(90,141,89)" stroke-width="1.51"></path><path d="M637,274L711,199L638,199Z" fill="rgb(50,125,73)" stroke="rgb(50,125,73)" stroke-width="1.51"></path><path d="M712,275L711,199L637,274Z" fill="rgb(34,118,66)" stroke="rgb(34,118,66)" stroke-width="1.51"></path><path d="M711,199L711,125L638,199Z" fill="rgb(77,136,84)" stroke="rgb(77,136,84)" stroke-width="1.51"></path><path d="M-114,50L-113,125L-39,49Z" fill="rgb(244,251,202)" stroke="rgb(244,251,202)" stroke-width="1.51"></path><path d="M-39,49L-113,125L-38,124Z" fill="rgb(236,248,196)" stroke="rgb(236,248,196)" stroke-width="1.51"></path><path d="M-39,199L-114,200L-39,274Z" fill="rgb(178,220,167)" stroke="rgb(178,220,167)" stroke-width="1.51"></path><path d="M-39,274L-112,349L-38,349Z" fill="rgb(144,185,141)" stroke="rgb(144,185,141)" stroke-width="1.51"></path><path d="M-113,125L-114,200L-39,199Z" fill="rgb(202,233,180)" stroke="rgb(202,233,180)" stroke-width="1.51"></path><path d="M636,349L712,275L637,274Z" fill="rgb(17,100,54)" stroke="rgb(17,100,54)" stroke-width="1.51"></path><path d="M562,499L636,424L561,425Z" fill="rgb(0,72,42)" stroke="rgb(0,72,42)" stroke-width="1.51"></path><path d="M638,-26L636,-100L563,-26Z" fill="rgb(129,158,129)" stroke="rgb(129,158,129)" stroke-width="1.51"></path><path d="M713,-100L636,-100L638,-26Z" fill="rgb(129,158,129)" stroke="rgb(129,158,129)" stroke-width="1.51"></path><path d="M488,499L562,499L561,425Z" fill="rgb(0,83,47)" stroke="rgb(0,83,47)" stroke-width="1.51"></path><path d="M637,500L562,499L488,499Z" fill="rgb(0,77,44)" stroke="rgb(0,77,44)" stroke-width="1.51"></path><path d="M712,349L712,275L636,349Z" fill="rgb(9,93,51)" stroke="rgb(9,93,51)" stroke-width="1.51"></path><path d="M711,199L713,49L711,125Z" fill="rgb(101,146,94)" stroke="rgb(101,146,94)" stroke-width="1.51"></path><path d="M712,275L713,49L711,199Z" fill="rgb(77,136,84)" stroke="rgb(77,136,84)" stroke-width="1.51"></path><path d="M711,125L713,49L637,49Z" fill="rgb(119,153,104)" stroke="rgb(119,153,104)" stroke-width="1.51"></path><path d="M-39,424L37,351L-38,349Z" fill="rgb(134,168,133)" stroke="rgb(134,168,133)" stroke-width="1.51"></path><path d="M-37,498L36,499L38,425Z" fill="rgb(129,158,125)" stroke="rgb(129,158,125)" stroke-width="1.51"></path><path d="M37,-100L-37,-101L-38,-27Z" fill="rgb(255,255,229)" stroke="rgb(255,255,229)" stroke-width="1.51"></path><path d="M-112,-25L-114,50L-39,49Z" fill="rgb(253,254,218)" stroke="rgb(253,254,218)" stroke-width="1.51"></path><path d="M113,-101L-37,-101L37,-100Z" fill="rgb(253,254,218)" stroke="rgb(253,254,218)" stroke-width="1.51"></path><path d="M488,-102L-37,-101L113,-101Z" fill="rgb(225,243,190)" stroke="rgb(225,243,190)" stroke-width="1.51"></path><path d="M-112,349L-39,424L-38,349Z" fill="rgb(134,168,133)" stroke="rgb(134,168,133)" stroke-width="1.51"></path><path d="M-113,125L-114,50L-114,200Z" fill="rgb(225,243,190)" stroke="rgb(225,243,190)" stroke-width="1.51"></path><path d="M-112,-25L-39,49L-38,-27Z" fill="rgb(255,255,229)" stroke="rgb(255,255,229)" stroke-width="1.51"></path><path d="M-114,200L-114,276L-39,274Z" fill="rgb(165,214,159)" stroke="rgb(165,214,159)" stroke-width="1.51"></path><path d="M713,49L712,-24L637,49Z" fill="rgb(127,157,119)" stroke="rgb(127,157,119)" stroke-width="1.51"></path><path d="M712,275L712,349L713,49Z" fill="rgb(50,125,73)" stroke="rgb(50,125,73)" stroke-width="1.51"></path><path d="M636,424L712,349L636,349Z" fill="rgb(0,78,44)" stroke="rgb(0,78,44)" stroke-width="1.51"></path><path d="M712,424L712,349L636,424Z" fill="rgb(0,69,41)" stroke="rgb(0,69,41)" stroke-width="1.51"></path><path d="M-114,276L-112,349L-39,274Z" fill="rgb(150,193,145)" stroke="rgb(150,193,145)" stroke-width="1.51"></path><path d="M-112,-99L-112,-25L-38,-27Z" fill="rgb(255,255,229)" stroke="rgb(255,255,229)" stroke-width="1.51"></path><path d="M-39,424L-37,498L38,425Z" fill="rgb(129,158,129)" stroke="rgb(129,158,129)" stroke-width="1.51"></path><path d="M-112,426L-37,498L-39,424Z" fill="rgb(129,158,129)" stroke="rgb(129,158,129)" stroke-width="1.51"></path><path d="M411,500L637,500L488,499Z" fill="rgb(3,89,49)" stroke="rgb(3,89,49)" stroke-width="1.51"></path><path d="M562,499L637,500L636,424Z" fill="rgb(0,69,41)" stroke="rgb(0,69,41)" stroke-width="1.51"></path><path d="M637,500L712,424L636,424Z" fill="rgb(0,69,41)" stroke="rgb(0,69,41)" stroke-width="1.51"></path><path d="M712,349L712,424L713,49Z" fill="rgb(26,109,60)" stroke="rgb(26,109,60)" stroke-width="1.51"></path><path d="M-37,-101L-112,-99L-38,-27Z" fill="rgb(255,255,229)" stroke="rgb(255,255,229)" stroke-width="1.51"></path><path d="M-112,-25L-112,-99L-114,50Z" fill="rgb(255,255,229)" stroke="rgb(255,255,229)" stroke-width="1.51"></path><path d="M713,49L713,-100L712,-24Z" fill="rgb(129,158,129)" stroke="rgb(129,158,129)" stroke-width="1.51"></path><path d="M712,-24L713,-100L638,-26Z" fill="rgb(129,158,129)" stroke="rgb(129,158,129)" stroke-width="1.51"></path><path d="M636,-100L713,-100L563,-101Z" fill="rgb(129,158,129)" stroke="rgb(129,158,129)" stroke-width="1.51"></path><path d="M563,-101L713,-100L488,-102Z" fill="rgb(130,161,130)" stroke="rgb(130,161,130)" stroke-width="1.51"></path><path d="M-114,276L-112,426L-112,349Z" fill="rgb(138,178,137)" stroke="rgb(138,178,137)" stroke-width="1.51"></path><path d="M-112,349L-112,426L-39,424Z" fill="rgb(129,158,129)" stroke="rgb(129,158,129)" stroke-width="1.51"></path><path d="M637,500L711,500L712,424Z" fill="rgb(0,69,41)" stroke="rgb(0,69,41)" stroke-width="1.51"></path><path d="M-112,426L-113,500L-37,498Z" fill="rgb(129,158,129)" stroke="rgb(129,158,129)" stroke-width="1.51"></path><path d="M-37,498L-113,500L36,499Z" fill="rgb(129,158,129)" stroke="rgb(129,158,129)" stroke-width="1.51"></path><path d="M36,499L-113,500L112,500Z" fill="rgb(129,158,125)" stroke="rgb(129,158,125)" stroke-width="1.51"></path><path d="M-114,276L-113,500L-112,426Z" fill="rgb(129,158,129)" stroke="rgb(129,158,129)" stroke-width="1.51"></path></svg>