<svg width="600" height="400" xmlns="http://www.w3.org/2000/svg"><path d="M259,225L211,274L278,252Z" fill="rgb(145,145,145)" stroke="rgb(145,145,145)" stroke-width="1.51"></path><path d="M211,274L275,330L278,252Z" fill="rgb(131,131,131)" stroke="rgb(131,131,131)" stroke-width="1.51"></path><path d="M259,225L172,213L211,274Z" fill="rgb(158,158,158)" stroke="rgb(158,158,158)" stroke-width="1.51"></path><path d="M278,252L362,225L259,225Z" fill="rgb(138,138,138)" stroke="rgb(138,138,138)" stroke-width="1.51"></path><path d="M275,330L352,276L278,252Z" fill="rgb(119,119,119)" stroke="rgb(119,119,119)" stroke-width="1.51"></path><path d="M211,274L166,346L275,330Z" fill="rgb(126,126,126)" stroke="rgb(126,126,126)" stroke-width="1.51"></path><path d="M93,301L166,346L211,274Z" fill="rgb(141,141,141)" stroke="rgb(141,141,141)" stroke-width="1.51"></path><path d="M275,330L327,347L352,276Z" fill="rgb(102,102,102)" stroke="rgb(102,102,102)" stroke-width="1.51"></path><path d="M245,407L327,347L275,330Z" fill="rgb(90,90,90)" stroke="rgb(90,90,90)" stroke-width="1.51"></path><path d="M352,276L362,225L278,252Z" fill="rgb(124,124,124)" stroke="rgb(124,124,124)" stroke-width="1.51"></path><path d="M259,225L185,146L172,213Z" fill="rgb(175,175,175)" stroke="rgb(175,175,175)" stroke-width="1.51"></path><path d="M286,111L185,146L259,225Z" fill="rgb(180,180,180)" stroke="rgb(180,180,180)" stroke-width="1.51"></path><path d="M185,146L125,186L172,213Z" fill="rgb(188,188,188)" stroke="rgb(188,188,188)" stroke-width="1.51"></path><path d="M172,213L93,301L211,274Z" fill="rgb(158,158,158)" stroke="rgb(158,158,158)" stroke-width="1.51"></path><path d="M352,276L391,253L362,225Z" fill="rgb(116,116,116)" stroke="rgb(116,116,116)" stroke-width="1.51"></path><path d="M427,375L391,253L352,276Z" fill="rgb(94,94,94)" stroke="rgb(94,94,94)" stroke-width="1.51"></path><path d="M166,346L245,407L275,330Z" fill="rgb(103,103,103)" stroke="rgb(103,103,103)" stroke-width="1.51"></path><path d="M362,225L286,111L259,225Z" fill="rgb(154,154,154)" stroke="rgb(154,154,154)" stroke-width="1.51"></path><path d="M327,99L286,111L362,225Z" fill="rgb(165,165,165)" stroke="rgb(165,165,165)" stroke-width="1.51"></path><path d="M125,186L93,301L172,213Z" fill="rgb(173,173,173)" stroke="rgb(173,173,173)" stroke-width="1.51"></path><path d="M166,346L197,430L245,407Z" fill="rgb(96,96,96)" stroke="rgb(96,96,96)" stroke-width="1.51"></path><path d="M93,301L137,374L166,346Z" fill="rgb(128,128,128)" stroke="rgb(128,128,128)" stroke-width="1.51"></path><path d="M422,186L327,99L362,225Z" fill="rgb(145,145,145)" stroke="rgb(145,145,145)" stroke-width="1.51"></path><path d="M137,374L197,430L166,346Z" fill="rgb(106,106,106)" stroke="rgb(106,106,106)" stroke-width="1.51"></path><path d="M327,99L256,72L286,111Z" fill="rgb(187,187,187)" stroke="rgb(187,187,187)" stroke-width="1.51"></path><path d="M286,111L256,72L185,146Z" fill="rgb(196,196,196)" stroke="rgb(196,196,196)" stroke-width="1.51"></path><path d="M185,146L110,126L125,186Z" fill="rgb(203,203,203)" stroke="rgb(203,203,203)" stroke-width="1.51"></path><path d="M125,186L33,202L93,301Z" fill="rgb(181,181,181)" stroke="rgb(181,181,181)" stroke-width="1.51"></path><path d="M183,59L110,126L185,146Z" fill="rgb(212,212,212)" stroke="rgb(212,212,212)" stroke-width="1.51"></path><path d="M391,253L422,186L362,225Z" fill="rgb(121,121,121)" stroke="rgb(121,121,121)" stroke-width="1.51"></path><path d="M256,72L183,59L185,146Z" fill="rgb(207,207,207)" stroke="rgb(207,207,207)" stroke-width="1.51"></path><path d="M137,374L119,425L197,430Z" fill="rgb(102,102,102)" stroke="rgb(102,102,102)" stroke-width="1.51"></path><path d="M51,402L119,425L137,374Z" fill="rgb(109,109,109)" stroke="rgb(109,109,109)" stroke-width="1.51"></path><path d="M52,120L33,202L125,186Z" fill="rgb(207,207,207)" stroke="rgb(207,207,207)" stroke-width="1.51"></path><path d="M93,301L46,350L137,374Z" fill="rgb(133,133,133)" stroke="rgb(133,133,133)" stroke-width="1.51"></path><path d="M23,288L46,350L93,301Z" fill="rgb(152,152,152)" stroke="rgb(152,152,152)" stroke-width="1.51"></path><path d="M327,347L427,375L352,276Z" fill="rgb(84,84,84)" stroke="rgb(84,84,84)" stroke-width="1.51"></path><path d="M391,253L484,223L422,186Z" fill="rgb(112,112,112)" stroke="rgb(112,112,112)" stroke-width="1.51"></path><path d="M357,445L427,375L327,347Z" fill="rgb(62,62,62)" stroke="rgb(62,62,62)" stroke-width="1.51"></path><path d="M357,445L327,347L245,407Z" fill="rgb(71,71,71)" stroke="rgb(71,71,71)" stroke-width="1.51"></path><path d="M317,492L357,445L245,407Z" fill="rgb(72,72,72)" stroke="rgb(72,72,72)" stroke-width="1.51"></path><path d="M197,486L245,407L197,430Z" fill="rgb(92,92,92)" stroke="rgb(92,92,92)" stroke-width="1.51"></path><path d="M33,202L23,288L93,301Z" fill="rgb(173,173,173)" stroke="rgb(173,173,173)" stroke-width="1.51"></path><path d="M422,186L424,111L327,99Z" fill="rgb(152,152,152)" stroke="rgb(152,152,152)" stroke-width="1.51"></path><path d="M327,99L328,30L256,72Z" fill="rgb(189,189,189)" stroke="rgb(189,189,189)" stroke-width="1.51"></path><path d="M488,140L424,111L422,186Z" fill="rgb(136,136,136)" stroke="rgb(136,136,136)" stroke-width="1.51"></path><path d="M122,486L197,486L197,430Z" fill="rgb(99,99,99)" stroke="rgb(99,99,99)" stroke-width="1.51"></path><path d="M110,126L52,120L125,186Z" fill="rgb(213,213,213)" stroke="rgb(213,213,213)" stroke-width="1.51"></path><path d="M88,60L52,120L110,126Z" fill="rgb(226,226,226)" stroke="rgb(226,226,226)" stroke-width="1.51"></path><path d="M427,375L468,329L391,253Z" fill="rgb(77,77,77)" stroke="rgb(77,77,77)" stroke-width="1.51"></path><path d="M119,425L122,486L197,430Z" fill="rgb(103,103,103)" stroke="rgb(103,103,103)" stroke-width="1.51"></path><path d="M46,350L51,402L137,374Z" fill="rgb(121,121,121)" stroke="rgb(121,121,121)" stroke-width="1.51"></path><path d="M-43,359L51,402L46,350Z" fill="rgb(128,128,128)" stroke="rgb(128,128,128)" stroke-width="1.51"></path><path d="M417,50L328,30L327,99Z" fill="rgb(178,178,178)" stroke="rgb(178,178,178)" stroke-width="1.51"></path><path d="M249,-46L169,-12L183,59Z" fill="rgb(226,226,226)" stroke="rgb(226,226,226)" stroke-width="1.51"></path><path d="M468,329L484,288L391,253Z" fill="rgb(85,85,85)" stroke="rgb(85,85,85)" stroke-width="1.51"></path><path d="M484,288L484,223L391,253Z" fill="rgb(96,96,96)" stroke="rgb(96,96,96)" stroke-width="1.51"></path><path d="M388,488L406,439L357,445Z" fill="rgb(56,56,56)" stroke="rgb(56,56,56)" stroke-width="1.51"></path><path d="M357,445L406,439L427,375Z" fill="rgb(53,53,53)" stroke="rgb(53,53,53)" stroke-width="1.51"></path><path d="M427,375L477,403L468,329Z" fill="rgb(50,50,50)" stroke="rgb(50,50,50)" stroke-width="1.51"></path><path d="M242,519L317,492L245,407Z" fill="rgb(80,80,80)" stroke="rgb(80,80,80)" stroke-width="1.51"></path><path d="M169,-12L88,60L183,59Z" fill="rgb(231,231,231)" stroke="rgb(231,231,231)" stroke-width="1.51"></path><path d="M183,59L88,60L110,126Z" fill="rgb(224,224,224)" stroke="rgb(224,224,224)" stroke-width="1.51"></path><path d="M51,402L122,486L119,425Z" fill="rgb(109,109,109)" stroke="rgb(109,109,109)" stroke-width="1.51"></path><path d="M197,486L242,519L245,407Z" fill="rgb(89,89,89)" stroke="rgb(89,89,89)" stroke-width="1.51"></path><path d="M122,486L242,519L197,486Z" fill="rgb(96,96,96)" stroke="rgb(96,96,96)" stroke-width="1.51"></path><path d="M424,111L417,50L327,99Z" fill="rgb(164,164,164)" stroke="rgb(164,164,164)" stroke-width="1.51"></path><path d="M511,35L417,50L424,111Z" fill="rgb(154,154,154)" stroke="rgb(154,154,154)" stroke-width="1.51"></path><path d="M547,193L488,140L484,223Z" fill="rgb(102,102,102)" stroke="rgb(102,102,102)" stroke-width="1.51"></path><path d="M484,223L488,140L422,186Z" fill="rgb(116,116,116)" stroke="rgb(116,116,116)" stroke-width="1.51"></path><path d="M317,492L388,488L357,445Z" fill="rgb(62,62,62)" stroke="rgb(62,62,62)" stroke-width="1.51"></path><path d="M406,439L477,403L427,375Z" fill="rgb(45,45,45)" stroke="rgb(45,45,45)" stroke-width="1.51"></path><path d="M242,519L388,488L317,492Z" fill="rgb(70,70,70)" stroke="rgb(70,70,70)" stroke-width="1.51"></path><path d="M479,510L477,403L406,439Z" fill="rgb(41,41,41)" stroke="rgb(41,41,41)" stroke-width="1.51"></path><path d="M538,341L540,293L484,288Z" fill="rgb(57,57,57)" stroke="rgb(57,57,57)" stroke-width="1.51"></path><path d="M249,-46L183,59L256,72Z" fill="rgb(216,216,216)" stroke="rgb(216,216,216)" stroke-width="1.51"></path><path d="M249,-46L256,72L328,30Z" fill="rgb(204,204,204)" stroke="rgb(204,204,204)" stroke-width="1.51"></path><path d="M33,202L-57,209L23,288Z" fill="rgb(189,189,189)" stroke="rgb(189,189,189)" stroke-width="1.51"></path><path d="M23,288L-43,359L46,350Z" fill="rgb(146,146,146)" stroke="rgb(146,146,146)" stroke-width="1.51"></path><path d="M52,120L-24,133L33,202Z" fill="rgb(219,219,219)" stroke="rgb(219,219,219)" stroke-width="1.51"></path><path d="M24,50L-24,133L52,120Z" fill="rgb(234,234,234)" stroke="rgb(234,234,234)" stroke-width="1.51"></path><path d="M24,50L52,120L88,60Z" fill="rgb(236,236,236)" stroke="rgb(236,236,236)" stroke-width="1.51"></path><path d="M484,288L540,293L484,223Z" fill="rgb(76,76,76)" stroke="rgb(76,76,76)" stroke-width="1.51"></path><path d="M538,341L484,288L468,329Z" fill="rgb(58,58,58)" stroke="rgb(58,58,58)" stroke-width="1.51"></path><path d="M58,-18L24,50L88,60Z" fill="rgb(245,245,245)" stroke="rgb(245,245,245)" stroke-width="1.51"></path><path d="M352,-26L249,-46L328,30Z" fill="rgb(199,199,199)" stroke="rgb(199,199,199)" stroke-width="1.51"></path><path d="M-59,293L-43,359L23,288Z" fill="rgb(157,157,157)" stroke="rgb(157,157,157)" stroke-width="1.51"></path><path d="M51,402L42,513L122,486Z" fill="rgb(113,113,113)" stroke="rgb(113,113,113)" stroke-width="1.51"></path><path d="M-24,133L-57,209L33,202Z" fill="rgb(209,209,209)" stroke="rgb(209,209,209)" stroke-width="1.51"></path><path d="M417,50L352,-26L328,30Z" fill="rgb(182,182,182)" stroke="rgb(182,182,182)" stroke-width="1.51"></path><path d="M-57,209L-59,293L23,288Z" fill="rgb(178,178,178)" stroke="rgb(178,178,178)" stroke-width="1.51"></path><path d="M58,-18L91,-8L93,-96Z" fill="rgb(246,246,246)" stroke="rgb(246,246,246)" stroke-width="1.51"></path><path d="M169,-12L91,-8L88,60Z" fill="rgb(239,239,239)" stroke="rgb(239,239,239)" stroke-width="1.51"></path><path d="M477,403L538,341L468,329Z" fill="rgb(43,43,43)" stroke="rgb(43,43,43)" stroke-width="1.51"></path><path d="M540,293L547,193L484,223Z" fill="rgb(79,79,79)" stroke="rgb(79,79,79)" stroke-width="1.51"></path><path d="M488,140L511,35L424,111Z" fill="rgb(139,139,139)" stroke="rgb(139,139,139)" stroke-width="1.51"></path><path d="M417,50L423,-47L352,-26Z" fill="rgb(177,177,177)" stroke="rgb(177,177,177)" stroke-width="1.51"></path><path d="M577,114L547,193L618,129Z" fill="rgb(96,96,96)" stroke="rgb(96,96,96)" stroke-width="1.51"></path><path d="M122,486L42,513L242,519Z" fill="rgb(104,104,104)" stroke="rgb(104,104,104)" stroke-width="1.51"></path><path d="M-40,479L42,513L51,402Z" fill="rgb(117,117,117)" stroke="rgb(117,117,117)" stroke-width="1.51"></path><path d="M91,-8L58,-18L88,60Z" fill="rgb(245,245,245)" stroke="rgb(245,245,245)" stroke-width="1.51"></path><path d="M-98,130L-57,209L-24,133Z" fill="rgb(218,218,218)" stroke="rgb(218,218,218)" stroke-width="1.51"></path><path d="M93,-96L91,-8L169,-12Z" fill="rgb(241,241,241)" stroke="rgb(241,241,241)" stroke-width="1.51"></path><path d="M-130,407L-45,427L-43,359Z" fill="rgb(120,120,120)" stroke="rgb(120,120,120)" stroke-width="1.51"></path><path d="M-43,359L-45,427L51,402Z" fill="rgb(120,120,120)" stroke="rgb(120,120,120)" stroke-width="1.51"></path><path d="M249,-46L236,-79L169,-12Z" fill="rgb(223,223,223)" stroke="rgb(223,223,223)" stroke-width="1.51"></path><path d="M353,-75L236,-79L249,-46Z" fill="rgb(207,207,207)" stroke="rgb(207,207,207)" stroke-width="1.51"></path><path d="M-57,209L-90,208L-59,293Z" fill="rgb(187,187,187)" stroke="rgb(187,187,187)" stroke-width="1.51"></path><path d="M-59,293L-97,343L-43,359Z" fill="rgb(147,147,147)" stroke="rgb(147,147,147)" stroke-width="1.51"></path><path d="M-98,130L-90,208L-57,209Z" fill="rgb(209,209,209)" stroke="rgb(209,209,209)" stroke-width="1.51"></path><path d="M-42,52L-24,133L24,50Z" fill="rgb(241,241,241)" stroke="rgb(241,241,241)" stroke-width="1.51"></path><path d="M242,519L479,510L388,488Z" fill="rgb(58,58,58)" stroke="rgb(58,58,58)" stroke-width="1.51"></path><path d="M388,488L479,510L406,439Z" fill="rgb(48,48,48)" stroke="rgb(48,48,48)" stroke-width="1.51"></path><path d="M477,403L566,416L538,341Z" fill="rgb(26,26,26)" stroke="rgb(26,26,26)" stroke-width="1.51"></path><path d="M576,71L511,35L488,140Z" fill="rgb(124,124,124)" stroke="rgb(124,124,124)" stroke-width="1.51"></path><path d="M352,-26L353,-75L249,-46Z" fill="rgb(196,196,196)" stroke="rgb(196,196,196)" stroke-width="1.51"></path><path d="M399,-75L353,-75L352,-26Z" fill="rgb(184,184,184)" stroke="rgb(184,184,184)" stroke-width="1.51"></path><path d="M-128,259L-97,343L-59,293Z" fill="rgb(165,165,165)" stroke="rgb(165,165,165)" stroke-width="1.51"></path><path d="M-13,-14L-42,52L24,50Z" fill="rgb(250,250,250)" stroke="rgb(250,250,250)" stroke-width="1.51"></path><path d="M490,-8L423,-47L417,50Z" fill="rgb(166,166,166)" stroke="rgb(166,166,166)" stroke-width="1.51"></path><path d="M-45,427L-40,479L51,402Z" fill="rgb(119,119,119)" stroke="rgb(119,119,119)" stroke-width="1.51"></path><path d="M-130,407L-40,479L-45,427Z" fill="rgb(119,119,119)" stroke="rgb(119,119,119)" stroke-width="1.51"></path><path d="M479,510L566,416L477,403Z" fill="rgb(27,27,27)" stroke="rgb(27,27,27)" stroke-width="1.51"></path><path d="M642,251L611,209L540,293Z" fill="rgb(58,58,58)" stroke="rgb(58,58,58)" stroke-width="1.51"></path><path d="M236,-79L208,-103L169,-12Z" fill="rgb(226,226,226)" stroke="rgb(226,226,226)" stroke-width="1.51"></path><path d="M353,-75L208,-103L236,-79Z" fill="rgb(211,211,211)" stroke="rgb(211,211,211)" stroke-width="1.51"></path><path d="M511,35L490,-8L417,50Z" fill="rgb(153,153,153)" stroke="rgb(153,153,153)" stroke-width="1.51"></path><path d="M-90,208L-128,259L-59,293Z" fill="rgb(181,181,181)" stroke="rgb(181,181,181)" stroke-width="1.51"></path><path d="M-42,52L-98,130L-24,133Z" fill="rgb(234,234,234)" stroke="rgb(234,234,234)" stroke-width="1.51"></path><path d="M511,35L581,-49L490,-8Z" fill="rgb(137,137,137)" stroke="rgb(137,137,137)" stroke-width="1.51"></path><path d="M547,193L577,114L488,140Z" fill="rgb(105,105,105)" stroke="rgb(105,105,105)" stroke-width="1.51"></path><path d="M611,209L547,193L540,293Z" fill="rgb(71,71,71)" stroke="rgb(71,71,71)" stroke-width="1.51"></path><path d="M353,-75L464,-91L208,-103Z" fill="rgb(191,191,191)" stroke="rgb(191,191,191)" stroke-width="1.51"></path><path d="M423,-47L399,-75L352,-26Z" fill="rgb(179,179,179)" stroke="rgb(179,179,179)" stroke-width="1.51"></path><path d="M464,-91L399,-75L423,-47Z" fill="rgb(169,169,169)" stroke="rgb(169,169,169)" stroke-width="1.51"></path><path d="M-98,130L-128,259L-90,208Z" fill="rgb(202,202,202)" stroke="rgb(202,202,202)" stroke-width="1.51"></path><path d="M642,251L540,293L645,340Z" fill="rgb(44,44,44)" stroke="rgb(44,44,44)" stroke-width="1.51"></path><path d="M-42,52L-138,46L-98,130Z" fill="rgb(241,241,241)" stroke="rgb(241,241,241)" stroke-width="1.51"></path><path d="M58,-18L-13,-14L24,50Z" fill="rgb(251,251,251)" stroke="rgb(251,251,251)" stroke-width="1.51"></path><path d="M63,-122L-13,-14L58,-18Z" fill="rgb(251,251,251)" stroke="rgb(251,251,251)" stroke-width="1.51"></path><path d="M619,61L576,71L577,114Z" fill="rgb(108,108,108)" stroke="rgb(108,108,108)" stroke-width="1.51"></path><path d="M577,114L576,71L488,140Z" fill="rgb(113,113,113)" stroke="rgb(113,113,113)" stroke-width="1.51"></path><path d="M208,-103L93,-96L169,-12Z" fill="rgb(234,234,234)" stroke="rgb(234,234,234)" stroke-width="1.51"></path><path d="M611,209L618,129L547,193Z" fill="rgb(83,83,83)" stroke="rgb(83,83,83)" stroke-width="1.51"></path><path d="M611,209L721,209L618,129Z" fill="rgb(79,79,79)" stroke="rgb(79,79,79)" stroke-width="1.51"></path><path d="M645,340L540,293L538,341Z" fill="rgb(38,38,38)" stroke="rgb(38,38,38)" stroke-width="1.51"></path><path d="M-128,259L-130,407L-97,343Z" fill="rgb(145,145,145)" stroke="rgb(145,145,145)" stroke-width="1.51"></path><path d="M-97,343L-130,407L-43,359Z" fill="rgb(130,130,130)" stroke="rgb(130,130,130)" stroke-width="1.51"></path><path d="M566,416L645,340L538,341Z" fill="rgb(21,21,21)" stroke="rgb(21,21,21)" stroke-width="1.51"></path><path d="M479,510L572,500L566,416Z" fill="rgb(19,19,19)" stroke="rgb(19,19,19)" stroke-width="1.51"></path><path d="M627,422L645,340L566,416Z" fill="rgb(4,4,4)" stroke="rgb(4,4,4)" stroke-width="1.51"></path><path d="M399,-75L464,-91L353,-75Z" fill="rgb(175,175,175)" stroke="rgb(175,175,175)" stroke-width="1.51"></path><path d="M490,-8L464,-91L423,-47Z" fill="rgb(161,161,161)" stroke="rgb(161,161,161)" stroke-width="1.51"></path><path d="M581,-49L464,-91L490,-8Z" fill="rgb(143,143,143)" stroke="rgb(143,143,143)" stroke-width="1.51"></path><path d="M581,-49L511,35L576,71Z" fill="rgb(127,127,127)" stroke="rgb(127,127,127)" stroke-width="1.51"></path><path d="M572,500L627,422L566,416Z" fill="rgb(4,4,4)" stroke="rgb(4,4,4)" stroke-width="1.51"></path><path d="M93,-96L63,-122L58,-18Z" fill="rgb(248,248,248)" stroke="rgb(248,248,248)" stroke-width="1.51"></path><path d="M208,-103L63,-122L93,-96Z" fill="rgb(240,240,240)" stroke="rgb(240,240,240)" stroke-width="1.51"></path><path d="M631,-123L63,-122L208,-103Z" fill="rgb(201,201,201)" stroke="rgb(201,201,201)" stroke-width="1.51"></path><path d="M-112,-93L-92,-1L-13,-14Z" fill="rgb(255,255,255)" stroke="rgb(255,255,255)" stroke-width="1.51"></path><path d="M-13,-14L-92,-1L-42,52Z" fill="rgb(253,253,253)" stroke="rgb(253,253,253)" stroke-width="1.51"></path><path d="M-98,130L-138,46L-128,259Z" fill="rgb(223,223,223)" stroke="rgb(223,223,223)" stroke-width="1.51"></path><path d="M618,129L619,61L577,114Z" fill="rgb(102,102,102)" stroke="rgb(102,102,102)" stroke-width="1.51"></path><path d="M710,122L619,61L618,129Z" fill="rgb(102,102,102)" stroke="rgb(102,102,102)" stroke-width="1.51"></path><path d="M-92,-1L-138,46L-42,52Z" fill="rgb(250,250,250)" stroke="rgb(250,250,250)" stroke-width="1.51"></path><path d="M-128,259L-138,46L-130,407Z" fill="rgb(187,187,187)" stroke="rgb(187,187,187)" stroke-width="1.51"></path><path d="M-40,479L-119,522L42,513Z" fill="rgb(119,119,119)" stroke="rgb(119,119,119)" stroke-width="1.51"></path><path d="M42,513L-119,522L242,519Z" fill="rgb(114,114,114)" stroke="rgb(114,114,114)" stroke-width="1.51"></path><path d="M-130,407L-119,522L-40,479Z" fill="rgb(119,119,119)" stroke="rgb(119,119,119)" stroke-width="1.51"></path><path d="M623,-19L581,-49L576,71Z" fill="rgb(121,121,121)" stroke="rgb(121,121,121)" stroke-width="1.51"></path><path d="M642,251L721,209L611,209Z" fill="rgb(66,66,66)" stroke="rgb(66,66,66)" stroke-width="1.51"></path><path d="M645,340L699,328L642,251Z" fill="rgb(40,40,40)" stroke="rgb(40,40,40)" stroke-width="1.51"></path><path d="M735,401L699,328L645,340Z" fill="rgb(20,20,20)" stroke="rgb(20,20,20)" stroke-width="1.51"></path><path d="M735,401L645,340L627,422Z" fill="rgb(7,7,7)" stroke="rgb(7,7,7)" stroke-width="1.51"></path><path d="M572,500L647,489L627,422Z" fill="rgb(0,0,0)" stroke="rgb(0,0,0)" stroke-width="1.51"></path><path d="M619,61L623,-19L576,71Z" fill="rgb(114,114,114)" stroke="rgb(114,114,114)" stroke-width="1.51"></path><path d="M710,42L623,-19L619,61Z" fill="rgb(115,115,115)" stroke="rgb(115,115,115)" stroke-width="1.51"></path><path d="M-92,-1L-112,-93L-138,46Z" fill="rgb(255,255,255)" stroke="rgb(255,255,255)" stroke-width="1.51"></path><path d="M63,-122L-55,-120L-13,-14Z" fill="rgb(255,255,255)" stroke="rgb(255,255,255)" stroke-width="1.51"></path><path d="M736,249L721,209L642,251Z" fill="rgb(62,62,62)" stroke="rgb(62,62,62)" stroke-width="1.51"></path><path d="M721,209L710,122L618,129Z" fill="rgb(89,89,89)" stroke="rgb(89,89,89)" stroke-width="1.51"></path><path d="M721,209L736,249L710,122Z" fill="rgb(75,75,75)" stroke="rgb(75,75,75)" stroke-width="1.51"></path><path d="M699,328L736,249L642,251Z" fill="rgb(50,50,50)" stroke="rgb(50,50,50)" stroke-width="1.51"></path><path d="M735,401L736,249L699,328Z" fill="rgb(32,32,32)" stroke="rgb(32,32,32)" stroke-width="1.51"></path><path d="M631,-123L581,-49L623,-19Z" fill="rgb(119,119,119)" stroke="rgb(119,119,119)" stroke-width="1.51"></path><path d="M631,-123L582,-104L581,-49Z" fill="rgb(119,119,119)" stroke="rgb(119,119,119)" stroke-width="1.51"></path><path d="M581,-49L582,-104L464,-91Z" fill="rgb(133,133,133)" stroke="rgb(133,133,133)" stroke-width="1.51"></path><path d="M464,-91L631,-123L208,-103Z" fill="rgb(168,168,168)" stroke="rgb(168,168,168)" stroke-width="1.51"></path><path d="M-55,-120L-112,-93L-13,-14Z" fill="rgb(255,255,255)" stroke="rgb(255,255,255)" stroke-width="1.51"></path><path d="M726,485L735,401L627,422Z" fill="rgb(0,0,0)" stroke="rgb(0,0,0)" stroke-width="1.51"></path><path d="M710,122L710,42L619,61Z" fill="rgb(107,107,107)" stroke="rgb(107,107,107)" stroke-width="1.51"></path><path d="M737,-10L710,42L710,122Z" fill="rgb(112,112,112)" stroke="rgb(112,112,112)" stroke-width="1.51"></path><path d="M647,489L726,485L627,422Z" fill="rgb(0,0,0)" stroke="rgb(0,0,0)" stroke-width="1.51"></path><path d="M572,500L726,485L647,489Z" fill="rgb(0,0,0)" stroke="rgb(0,0,0)" stroke-width="1.51"></path><path d="M479,510L726,485L572,500Z" fill="rgb(2,3,2)" stroke="rgb(2,3,2)" stroke-width="1.51"></path><path d="M733,-93L631,-123L623,-19Z" fill="rgb(119,119,119)" stroke="rgb(119,119,119)" stroke-width="1.51"></path><path d="M582,-104L631,-123L464,-91Z" fill="rgb(129,129,129)" stroke="rgb(129,129,129)" stroke-width="1.51"></path><path d="M710,42L737,-10L623,-19Z" fill="rgb(118,118,118)" stroke="rgb(118,118,118)" stroke-width="1.51"></path><path d="M736,249L737,-10L710,122Z" fill="rgb(98,98,98)" stroke="rgb(98,98,98)" stroke-width="1.51"></path><path d="M737,-10L733,-93L623,-19Z" fill="rgb(119,119,119)" stroke="rgb(119,119,119)" stroke-width="1.51"></path></svg>