<svg width="600" height="400" xmlns="http://www.w3.org/2000/svg"><path d="M272,193L337,120L253,134Z" fill="rgb(249,227,239)" stroke="rgb(249,227,239)" stroke-width="1.51"></path><path d="M272,193L344,204L337,120Z" fill="rgb(247,239,239)" stroke="rgb(247,239,239)" stroke-width="1.51"></path><path d="M337,120L273,57L253,134Z" fill="rgb(242,200,222)" stroke="rgb(242,200,222)" stroke-width="1.51"></path><path d="M253,134L180,208L272,193Z" fill="rgb(251,228,240)" stroke="rgb(251,228,240)" stroke-width="1.51"></path><path d="M273,57L198,119L253,134Z" fill="rgb(244,191,219)" stroke="rgb(244,191,219)" stroke-width="1.51"></path><path d="M337,120L334,46L273,57Z" fill="rgb(235,180,202)" stroke="rgb(235,180,202)" stroke-width="1.51"></path><path d="M400,43L334,46L337,120Z" fill="rgb(228,175,186)" stroke="rgb(228,175,186)" stroke-width="1.51"></path><path d="M344,204L412,120L337,120Z" fill="rgb(239,228,218)" stroke="rgb(239,228,218)" stroke-width="1.51"></path><path d="M272,193L269,276L344,204Z" fill="rgb(243,246,234)" stroke="rgb(243,246,234)" stroke-width="1.51"></path><path d="M180,208L269,276L272,193Z" fill="rgb(245,235,231)" stroke="rgb(245,235,231)" stroke-width="1.51"></path><path d="M344,204L416,209L412,120Z" fill="rgb(230,235,207)" stroke="rgb(230,235,207)" stroke-width="1.51"></path><path d="M345,284L416,209L344,204Z" fill="rgb(229,244,206)" stroke="rgb(229,244,206)" stroke-width="1.51"></path><path d="M198,119L180,208L253,134Z" fill="rgb(249,210,232)" stroke="rgb(249,210,232)" stroke-width="1.51"></path><path d="M269,276L345,284L344,204Z" fill="rgb(228,242,207)" stroke="rgb(228,242,207)" stroke-width="1.51"></path><path d="M412,120L400,43L337,120Z" fill="rgb(224,191,186)" stroke="rgb(224,191,186)" stroke-width="1.51"></path><path d="M273,57L185,49L198,119Z" fill="rgb(235,160,200)" stroke="rgb(235,160,200)" stroke-width="1.51"></path><path d="M106,115L113,210L180,208Z" fill="rgb(241,184,213)" stroke="rgb(241,184,213)" stroke-width="1.51"></path><path d="M268,-15L185,49L273,57Z" fill="rgb(223,135,174)" stroke="rgb(223,135,174)" stroke-width="1.51"></path><path d="M268,-15L273,57L334,46Z" fill="rgb(221,145,177)" stroke="rgb(221,145,177)" stroke-width="1.51"></path><path d="M328,-23L268,-15L334,46Z" fill="rgb(201,137,159)" stroke="rgb(201,137,159)" stroke-width="1.51"></path><path d="M416,209L476,119L412,120Z" fill="rgb(213,216,176)" stroke="rgb(213,216,176)" stroke-width="1.51"></path><path d="M345,284L420,276L416,209Z" fill="rgb(209,236,172)" stroke="rgb(209,236,172)" stroke-width="1.51"></path><path d="M400,43L328,-23L334,46Z" fill="rgb(209,144,157)" stroke="rgb(209,144,157)" stroke-width="1.51"></path><path d="M180,208L181,285L269,276Z" fill="rgb(231,221,203)" stroke="rgb(231,221,203)" stroke-width="1.51"></path><path d="M269,276L337,341L345,284Z" fill="rgb(200,226,168)" stroke="rgb(200,226,168)" stroke-width="1.51"></path><path d="M490,210L476,119L416,209Z" fill="rgb(201,218,166)" stroke="rgb(201,218,166)" stroke-width="1.51"></path><path d="M412,120L481,45L400,43Z" fill="rgb(202,164,144)" stroke="rgb(202,164,144)" stroke-width="1.51"></path><path d="M345,284L402,357L420,276Z" fill="rgb(179,218,131)" stroke="rgb(179,218,131)" stroke-width="1.51"></path><path d="M253,355L337,341L269,276Z" fill="rgb(189,213,154)" stroke="rgb(189,213,154)" stroke-width="1.51"></path><path d="M180,208L108,272L181,285Z" fill="rgb(226,199,191)" stroke="rgb(226,199,191)" stroke-width="1.51"></path><path d="M106,115L180,208L198,119Z" fill="rgb(243,187,218)" stroke="rgb(243,187,218)" stroke-width="1.51"></path><path d="M185,49L106,115L198,119Z" fill="rgb(233,153,197)" stroke="rgb(233,153,197)" stroke-width="1.51"></path><path d="M420,276L490,210L416,209Z" fill="rgb(199,228,163)" stroke="rgb(199,228,163)" stroke-width="1.51"></path><path d="M181,285L253,355L269,276Z" fill="rgb(203,212,165)" stroke="rgb(203,212,165)" stroke-width="1.51"></path><path d="M400,43L421,-36L328,-23Z" fill="rgb(184,133,130)" stroke="rgb(184,133,130)" stroke-width="1.51"></path><path d="M476,119L481,45L412,120Z" fill="rgb(196,176,144)" stroke="rgb(196,176,144)" stroke-width="1.51"></path><path d="M563,116L481,45L476,119Z" fill="rgb(174,159,123)" stroke="rgb(174,159,123)" stroke-width="1.51"></path><path d="M185,49L118,40L106,115Z" fill="rgb(222,117,172)" stroke="rgb(222,117,172)" stroke-width="1.51"></path><path d="M268,-15L181,-23L185,49Z" fill="rgb(200,116,154)" stroke="rgb(200,116,154)" stroke-width="1.51"></path><path d="M263,-107L181,-23L268,-15Z" fill="rgb(201,123,156)" stroke="rgb(201,123,156)" stroke-width="1.51"></path><path d="M181,-23L118,40L185,49Z" fill="rgb(206,100,153)" stroke="rgb(206,100,153)" stroke-width="1.51"></path><path d="M328,-23L263,-107L268,-15Z" fill="rgb(201,134,160)" stroke="rgb(201,134,160)" stroke-width="1.51"></path><path d="M481,45L421,-36L400,43Z" fill="rgb(178,131,111)" stroke="rgb(178,131,111)" stroke-width="1.51"></path><path d="M402,357L479,285L420,276Z" fill="rgb(159,209,105)" stroke="rgb(159,209,105)" stroke-width="1.51"></path><path d="M420,276L479,285L490,210Z" fill="rgb(178,217,131)" stroke="rgb(178,217,131)" stroke-width="1.51"></path><path d="M181,285L197,360L253,355Z" fill="rgb(183,190,143)" stroke="rgb(183,190,143)" stroke-width="1.51"></path><path d="M113,210L108,272L180,208Z" fill="rgb(233,191,201)" stroke="rgb(233,191,201)" stroke-width="1.51"></path><path d="M26,267L108,272L113,210Z" fill="rgb(219,161,167)" stroke="rgb(219,161,167)" stroke-width="1.51"></path><path d="M337,341L402,357L345,284Z" fill="rgb(175,212,133)" stroke="rgb(175,212,133)" stroke-width="1.51"></path><path d="M342,429L402,357L337,341Z" fill="rgb(147,185,118)" stroke="rgb(147,185,118)" stroke-width="1.51"></path><path d="M117,342L197,360L181,285Z" fill="rgb(182,175,135)" stroke="rgb(182,175,135)" stroke-width="1.51"></path><path d="M253,355L259,421L337,341Z" fill="rgb(159,186,137)" stroke="rgb(159,186,137)" stroke-width="1.51"></path><path d="M421,-36L346,-94L328,-23Z" fill="rgb(190,136,140)" stroke="rgb(190,136,140)" stroke-width="1.51"></path><path d="M481,45L489,-18L421,-36Z" fill="rgb(153,118,87)" stroke="rgb(153,118,87)" stroke-width="1.51"></path><path d="M421,-36L422,-96L346,-94Z" fill="rgb(180,132,122)" stroke="rgb(180,132,122)" stroke-width="1.51"></path><path d="M553,40L489,-18L481,45Z" fill="rgb(150,112,84)" stroke="rgb(150,112,84)" stroke-width="1.51"></path><path d="M181,-23L109,-24L118,40Z" fill="rgb(186,79,132)" stroke="rgb(186,79,132)" stroke-width="1.51"></path><path d="M27,56L27,134L106,115Z" fill="rgb(214,99,158)" stroke="rgb(214,99,158)" stroke-width="1.51"></path><path d="M122,-99L109,-24L181,-23Z" fill="rgb(186,80,133)" stroke="rgb(186,80,133)" stroke-width="1.51"></path><path d="M346,-94L263,-107L328,-23Z" fill="rgb(199,137,157)" stroke="rgb(199,137,157)" stroke-width="1.51"></path><path d="M108,272L117,342L181,285Z" fill="rgb(197,174,145)" stroke="rgb(197,174,145)" stroke-width="1.51"></path><path d="M490,210L563,116L476,119Z" fill="rgb(180,191,143)" stroke="rgb(180,191,143)" stroke-width="1.51"></path><path d="M571,197L563,116L490,210Z" fill="rgb(167,189,138)" stroke="rgb(167,189,138)" stroke-width="1.51"></path><path d="M184,431L259,421L197,360Z" fill="rgb(146,153,124)" stroke="rgb(146,153,124)" stroke-width="1.51"></path><path d="M197,360L259,421L253,355Z" fill="rgb(158,173,132)" stroke="rgb(158,173,132)" stroke-width="1.51"></path><path d="M106,115L29,196L113,210Z" fill="rgb(233,155,191)" stroke="rgb(233,155,191)" stroke-width="1.51"></path><path d="M108,272L44,346L117,342Z" fill="rgb(178,143,112)" stroke="rgb(178,143,112)" stroke-width="1.51"></path><path d="M27,56L106,115L118,40Z" fill="rgb(213,87,153)" stroke="rgb(213,87,153)" stroke-width="1.51"></path><path d="M27,134L29,196L106,115Z" fill="rgb(225,130,175)" stroke="rgb(225,130,175)" stroke-width="1.51"></path><path d="M555,273L571,197L490,210Z" fill="rgb(159,196,128)" stroke="rgb(159,196,128)" stroke-width="1.51"></path><path d="M346,-94L422,-96L263,-107Z" fill="rgb(195,137,148)" stroke="rgb(195,137,148)" stroke-width="1.51"></path><path d="M486,-97L422,-96L421,-36Z" fill="rgb(162,123,97)" stroke="rgb(162,123,97)" stroke-width="1.51"></path><path d="M489,-18L486,-97L421,-36Z" fill="rgb(152,117,86)" stroke="rgb(152,117,86)" stroke-width="1.51"></path><path d="M563,116L553,40L481,45Z" fill="rgb(159,131,102)" stroke="rgb(159,131,102)" stroke-width="1.51"></path><path d="M402,357L494,356L479,285Z" fill="rgb(130,188,73)" stroke="rgb(130,188,73)" stroke-width="1.51"></path><path d="M479,285L555,273L490,210Z" fill="rgb(159,202,115)" stroke="rgb(159,202,115)" stroke-width="1.51"></path><path d="M259,421L342,429L337,341Z" fill="rgb(143,173,129)" stroke="rgb(143,173,129)" stroke-width="1.51"></path><path d="M488,417L494,356L402,357Z" fill="rgb(103,162,58)" stroke="rgb(103,162,58)" stroke-width="1.51"></path><path d="M494,356L555,273L479,285Z" fill="rgb(126,184,71)" stroke="rgb(126,184,71)" stroke-width="1.51"></path><path d="M36,-25L27,56L118,40Z" fill="rgb(185,23,116)" stroke="rgb(185,23,116)" stroke-width="1.51"></path><path d="M109,-24L36,-25L118,40Z" fill="rgb(175,46,114)" stroke="rgb(175,46,114)" stroke-width="1.51"></path><path d="M263,-107L177,-111L181,-23Z" fill="rgb(197,113,151)" stroke="rgb(197,113,151)" stroke-width="1.51"></path><path d="M29,196L26,267L113,210Z" fill="rgb(222,149,171)" stroke="rgb(222,149,171)" stroke-width="1.51"></path><path d="M-35,208L26,267L29,196Z" fill="rgb(199,138,153)" stroke="rgb(199,138,153)" stroke-width="1.51"></path><path d="M-35,208L29,196L-45,133Z" fill="rgb(200,130,159)" stroke="rgb(200,130,159)" stroke-width="1.51"></path><path d="M342,429L421,428L402,357Z" fill="rgb(123,166,97)" stroke="rgb(123,166,97)" stroke-width="1.51"></path><path d="M117,342L184,431L197,360Z" fill="rgb(154,149,120)" stroke="rgb(154,149,120)" stroke-width="1.51"></path><path d="M259,421L267,489L342,429Z" fill="rgb(144,170,131)" stroke="rgb(144,170,131)" stroke-width="1.51"></path><path d="M101,420L184,431L117,342Z" fill="rgb(140,123,104)" stroke="rgb(140,123,104)" stroke-width="1.51"></path><path d="M177,-111L122,-99L181,-23Z" fill="rgb(190,92,140)" stroke="rgb(190,92,140)" stroke-width="1.51"></path><path d="M422,-96L486,-97L263,-107Z" fill="rgb(182,133,126)" stroke="rgb(182,133,126)" stroke-width="1.51"></path><path d="M263,-107L629,-103L177,-111Z" fill="rgb(193,136,144)" stroke="rgb(193,136,144)" stroke-width="1.51"></path><path d="M561,-19L486,-97L489,-18Z" fill="rgb(133,103,71)" stroke="rgb(133,103,71)" stroke-width="1.51"></path><path d="M553,40L561,-19L489,-18Z" fill="rgb(126,97,66)" stroke="rgb(126,97,66)" stroke-width="1.51"></path><path d="M642,56L561,-19L553,40Z" fill="rgb(124,86,72)" stroke="rgb(124,86,72)" stroke-width="1.51"></path><path d="M642,56L553,40L563,116Z" fill="rgb(140,113,96)" stroke="rgb(140,113,96)" stroke-width="1.51"></path><path d="M31,-103L36,-25L109,-24Z" fill="rgb(169,14,103)" stroke="rgb(169,14,103)" stroke-width="1.51"></path><path d="M26,267L44,346L108,272Z" fill="rgb(190,137,120)" stroke="rgb(190,137,120)" stroke-width="1.51"></path><path d="M421,428L488,417L402,357Z" fill="rgb(103,155,69)" stroke="rgb(103,155,69)" stroke-width="1.51"></path><path d="M494,356L565,360L555,273Z" fill="rgb(97,162,46)" stroke="rgb(97,162,46)" stroke-width="1.51"></path><path d="M571,197L627,114L563,116Z" fill="rgb(150,158,126)" stroke="rgb(150,158,126)" stroke-width="1.51"></path><path d="M631,199L627,114L571,197Z" fill="rgb(146,164,129)" stroke="rgb(146,164,129)" stroke-width="1.51"></path><path d="M44,346L101,420L117,342Z" fill="rgb(149,117,94)" stroke="rgb(149,117,94)" stroke-width="1.51"></path><path d="M643,279L631,199L555,273Z" fill="rgb(129,168,104)" stroke="rgb(129,168,104)" stroke-width="1.51"></path><path d="M555,273L631,199L571,197Z" fill="rgb(143,177,123)" stroke="rgb(143,177,123)" stroke-width="1.51"></path><path d="M488,417L565,360L494,356Z" fill="rgb(78,144,38)" stroke="rgb(78,144,38)" stroke-width="1.51"></path><path d="M186,501L267,489L184,431Z" fill="rgb(146,153,124)" stroke="rgb(146,153,124)" stroke-width="1.51"></path><path d="M184,431L267,489L259,421Z" fill="rgb(147,161,128)" stroke="rgb(147,161,128)" stroke-width="1.51"></path><path d="M342,429L423,489L421,428Z" fill="rgb(120,164,92)" stroke="rgb(120,164,92)" stroke-width="1.51"></path><path d="M421,428L423,489L488,417Z" fill="rgb(100,153,65)" stroke="rgb(100,153,65)" stroke-width="1.51"></path><path d="M26,267L-48,346L44,346Z" fill="rgb(150,115,82)" stroke="rgb(150,115,82)" stroke-width="1.51"></path><path d="M-45,133L29,196L27,134Z" fill="rgb(201,122,157)" stroke="rgb(201,122,157)" stroke-width="1.51"></path><path d="M-45,133L27,134L-37,61Z" fill="rgb(190,94,141)" stroke="rgb(190,94,141)" stroke-width="1.51"></path><path d="M-37,61L27,134L27,56Z" fill="rgb(186,74,130)" stroke="rgb(186,74,130)" stroke-width="1.51"></path><path d="M-28,-24L-37,61L27,56Z" fill="rgb(163,11,98)" stroke="rgb(163,11,98)" stroke-width="1.51"></path><path d="M267,489L346,500L342,429Z" fill="rgb(141,171,126)" stroke="rgb(141,171,126)" stroke-width="1.51"></path><path d="M561,-19L569,-94L486,-97Z" fill="rgb(123,95,64)" stroke="rgb(123,95,64)" stroke-width="1.51"></path><path d="M627,114L642,56L563,116Z" fill="rgb(140,126,107)" stroke="rgb(140,126,107)" stroke-width="1.51"></path><path d="M703,115L642,56L627,114Z" fill="rgb(140,125,107)" stroke="rgb(140,125,107)" stroke-width="1.51"></path><path d="M346,500L423,489L342,429Z" fill="rgb(130,169,107)" stroke="rgb(130,169,107)" stroke-width="1.51"></path><path d="M488,417L568,428L565,360Z" fill="rgb(58,123,29)" stroke="rgb(58,123,29)" stroke-width="1.51"></path><path d="M-35,208L-42,267L26,267Z" fill="rgb(189,135,136)" stroke="rgb(189,135,136)" stroke-width="1.51"></path><path d="M44,346L34,420L101,420Z" fill="rgb(131,88,78)" stroke="rgb(131,88,78)" stroke-width="1.51"></path><path d="M-121,188L-42,267L-35,208Z" fill="rgb(196,136,151)" stroke="rgb(196,136,151)" stroke-width="1.51"></path><path d="M636,-36L569,-94L561,-19Z" fill="rgb(106,77,58)" stroke="rgb(106,77,58)" stroke-width="1.51"></path><path d="M486,-97L629,-103L263,-107Z" fill="rgb(155,119,89)" stroke="rgb(155,119,89)" stroke-width="1.51"></path><path d="M565,360L643,279L555,273Z" fill="rgb(98,155,59)" stroke="rgb(98,155,59)" stroke-width="1.51"></path><path d="M631,199L703,115L627,114Z" fill="rgb(146,153,124)" stroke="rgb(146,153,124)" stroke-width="1.51"></path><path d="M267,489L186,501L346,500Z" fill="rgb(146,166,130)" stroke="rgb(146,166,130)" stroke-width="1.51"></path><path d="M107,504L186,501L184,431Z" fill="rgb(141,133,112)" stroke="rgb(141,133,112)" stroke-width="1.51"></path><path d="M36,-25L-28,-24L27,56Z" fill="rgb(148,4,87)" stroke="rgb(148,4,87)" stroke-width="1.51"></path><path d="M122,-99L31,-103L109,-24Z" fill="rgb(175,46,114)" stroke="rgb(175,46,114)" stroke-width="1.51"></path><path d="M177,-111L31,-103L122,-99Z" fill="rgb(180,63,123)" stroke="rgb(180,63,123)" stroke-width="1.51"></path><path d="M31,-103L-28,-24L36,-25Z" fill="rgb(148,3,86)" stroke="rgb(148,3,86)" stroke-width="1.51"></path><path d="M-37,61L-108,128L-45,133Z" fill="rgb(190,93,140)" stroke="rgb(190,93,140)" stroke-width="1.51"></path><path d="M101,420L107,504L184,431Z" fill="rgb(138,120,103)" stroke="rgb(138,120,103)" stroke-width="1.51"></path><path d="M-40,418L34,420L44,346Z" fill="rgb(111,78,62)" stroke="rgb(111,78,62)" stroke-width="1.51"></path><path d="M565,360L646,352L643,279Z" fill="rgb(76,138,41)" stroke="rgb(76,138,41)" stroke-width="1.51"></path><path d="M490,507L568,428L488,417Z" fill="rgb(68,131,35)" stroke="rgb(68,131,35)" stroke-width="1.51"></path><path d="M642,56L636,-36L561,-19Z" fill="rgb(103,73,57)" stroke="rgb(103,73,57)" stroke-width="1.51"></path><path d="M-42,267L-48,346L26,267Z" fill="rgb(163,124,99)" stroke="rgb(163,124,99)" stroke-width="1.51"></path><path d="M-109,285L-48,346L-42,267Z" fill="rgb(159,122,94)" stroke="rgb(159,122,94)" stroke-width="1.51"></path><path d="M644,417L646,352L565,360Z" fill="rgb(50,113,28)" stroke="rgb(50,113,28)" stroke-width="1.51"></path><path d="M717,189L703,115L631,199Z" fill="rgb(146,163,129)" stroke="rgb(146,163,129)" stroke-width="1.51"></path><path d="M47,507L107,504L101,420Z" fill="rgb(132,98,86)" stroke="rgb(132,98,86)" stroke-width="1.51"></path><path d="M186,501L490,507L346,500Z" fill="rgb(137,171,119)" stroke="rgb(137,171,119)" stroke-width="1.51"></path><path d="M47,507L101,420L34,420Z" fill="rgb(129,86,78)" stroke="rgb(129,86,78)" stroke-width="1.51"></path><path d="M423,489L490,507L488,417Z" fill="rgb(89,147,52)" stroke="rgb(89,147,52)" stroke-width="1.51"></path><path d="M568,428L644,417L565,360Z" fill="rgb(42,103,26)" stroke="rgb(42,103,26)" stroke-width="1.51"></path><path d="M346,500L490,507L423,489Z" fill="rgb(111,161,78)" stroke="rgb(111,161,78)" stroke-width="1.51"></path><path d="M107,504L490,507L186,501Z" fill="rgb(146,165,129)" stroke="rgb(146,165,129)" stroke-width="1.51"></path><path d="M717,189L631,199L643,279Z" fill="rgb(138,171,121)" stroke="rgb(138,171,121)" stroke-width="1.51"></path><path d="M642,56L702,-24L636,-36Z" fill="rgb(103,73,57)" stroke="rgb(103,73,57)" stroke-width="1.51"></path><path d="M-45,133L-121,188L-35,208Z" fill="rgb(201,129,158)" stroke="rgb(201,129,158)" stroke-width="1.51"></path><path d="M-110,53L-108,128L-37,61Z" fill="rgb(182,70,127)" stroke="rgb(182,70,127)" stroke-width="1.51"></path><path d="M703,115L702,47L642,56Z" fill="rgb(136,110,95)" stroke="rgb(136,110,95)" stroke-width="1.51"></path><path d="M717,-98L629,-103L636,-36Z" fill="rgb(103,73,57)" stroke="rgb(103,73,57)" stroke-width="1.51"></path><path d="M636,-36L629,-103L569,-94Z" fill="rgb(103,73,57)" stroke="rgb(103,73,57)" stroke-width="1.51"></path><path d="M569,-94L629,-103L486,-97Z" fill="rgb(115,87,61)" stroke="rgb(115,87,61)" stroke-width="1.51"></path><path d="M31,-103L-37,-99L-28,-24Z" fill="rgb(142,1,82)" stroke="rgb(142,1,82)" stroke-width="1.51"></path><path d="M-28,-24L-110,53L-37,61Z" fill="rgb(162,11,98)" stroke="rgb(162,11,98)" stroke-width="1.51"></path><path d="M703,115L717,189L702,47Z" fill="rgb(143,140,118)" stroke="rgb(143,140,118)" stroke-width="1.51"></path><path d="M716,284L717,189L643,279Z" fill="rgb(128,168,104)" stroke="rgb(128,168,104)" stroke-width="1.51"></path><path d="M-110,-27L-110,53L-28,-24Z" fill="rgb(142,1,82)" stroke="rgb(142,1,82)" stroke-width="1.51"></path><path d="M-110,53L-121,188L-108,128Z" fill="rgb(194,105,148)" stroke="rgb(194,105,148)" stroke-width="1.51"></path><path d="M-108,128L-121,188L-45,133Z" fill="rgb(199,119,154)" stroke="rgb(199,119,154)" stroke-width="1.51"></path><path d="M-121,188L-109,285L-42,267Z" fill="rgb(189,135,137)" stroke="rgb(189,135,137)" stroke-width="1.51"></path><path d="M-48,346L-40,418L44,346Z" fill="rgb(118,89,62)" stroke="rgb(118,89,62)" stroke-width="1.51"></path><path d="M-109,353L-40,418L-48,346Z" fill="rgb(116,88,62)" stroke="rgb(116,88,62)" stroke-width="1.51"></path><path d="M646,352L716,284L643,279Z" fill="rgb(94,150,58)" stroke="rgb(94,150,58)" stroke-width="1.51"></path><path d="M628,503L644,417L568,428Z" fill="rgb(39,100,25)" stroke="rgb(39,100,25)" stroke-width="1.51"></path><path d="M-36,511L47,507L34,420Z" fill="rgb(109,76,62)" stroke="rgb(109,76,62)" stroke-width="1.51"></path><path d="M107,504L47,507L490,507Z" fill="rgb(146,153,124)" stroke="rgb(146,153,124)" stroke-width="1.51"></path><path d="M713,352L716,284L646,352Z" fill="rgb(77,138,41)" stroke="rgb(77,138,41)" stroke-width="1.51"></path><path d="M490,507L560,505L568,428Z" fill="rgb(58,123,29)" stroke="rgb(58,123,29)" stroke-width="1.51"></path><path d="M702,47L702,-24L642,56Z" fill="rgb(120,81,70)" stroke="rgb(120,81,70)" stroke-width="1.51"></path><path d="M717,-98L702,-24L702,47Z" fill="rgb(103,73,57)" stroke="rgb(103,73,57)" stroke-width="1.51"></path><path d="M-110,53L-115,-96L-121,188Z" fill="rgb(172,31,108)" stroke="rgb(172,31,108)" stroke-width="1.51"></path><path d="M-37,-99L-110,-27L-28,-24Z" fill="rgb(142,1,82)" stroke="rgb(142,1,82)" stroke-width="1.51"></path><path d="M-109,285L-109,353L-48,346Z" fill="rgb(141,109,76)" stroke="rgb(141,109,76)" stroke-width="1.51"></path><path d="M-40,418L-36,511L34,420Z" fill="rgb(103,73,57)" stroke="rgb(103,73,57)" stroke-width="1.51"></path><path d="M-121,188L-109,353L-109,285Z" fill="rgb(174,130,113)" stroke="rgb(174,130,113)" stroke-width="1.51"></path><path d="M644,417L713,352L646,352Z" fill="rgb(52,115,28)" stroke="rgb(52,115,28)" stroke-width="1.51"></path><path d="M713,428L713,352L644,417Z" fill="rgb(40,100,25)" stroke="rgb(40,100,25)" stroke-width="1.51"></path><path d="M560,505L628,503L568,428Z" fill="rgb(44,105,26)" stroke="rgb(44,105,26)" stroke-width="1.51"></path><path d="M-37,-99L-115,-96L-110,-27Z" fill="rgb(142,1,82)" stroke="rgb(142,1,82)" stroke-width="1.51"></path><path d="M-110,-27L-115,-96L-110,53Z" fill="rgb(142,1,82)" stroke="rgb(142,1,82)" stroke-width="1.51"></path><path d="M31,-103L-115,-96L-37,-99Z" fill="rgb(142,1,82)" stroke="rgb(142,1,82)" stroke-width="1.51"></path><path d="M177,-111L-115,-96L31,-103Z" fill="rgb(156,7,93)" stroke="rgb(156,7,93)" stroke-width="1.51"></path><path d="M702,-24L717,-98L636,-36Z" fill="rgb(103,73,57)" stroke="rgb(103,73,57)" stroke-width="1.51"></path><path d="M717,189L717,-98L702,47Z" fill="rgb(130,90,80)" stroke="rgb(130,90,80)" stroke-width="1.51"></path><path d="M-109,429L-36,511L-40,418Z" fill="rgb(103,73,57)" stroke="rgb(103,73,57)" stroke-width="1.51"></path><path d="M47,507L-36,511L490,507Z" fill="rgb(142,137,115)" stroke="rgb(142,137,115)" stroke-width="1.51"></path><path d="M-121,188L-109,429L-109,353Z" fill="rgb(144,112,77)" stroke="rgb(144,112,77)" stroke-width="1.51"></path><path d="M-109,353L-109,429L-40,418Z" fill="rgb(103,73,57)" stroke="rgb(103,73,57)" stroke-width="1.51"></path><path d="M714,491L713,428L644,417Z" fill="rgb(39,100,25)" stroke="rgb(39,100,25)" stroke-width="1.51"></path><path d="M713,352L713,428L716,284Z" fill="rgb(61,126,31)" stroke="rgb(61,126,31)" stroke-width="1.51"></path><path d="M628,503L714,491L644,417Z" fill="rgb(39,100,25)" stroke="rgb(39,100,25)" stroke-width="1.51"></path><path d="M713,428L714,491L716,284Z" fill="rgb(39,100,25)" stroke="rgb(39,100,25)" stroke-width="1.51"></path><path d="M716,284L714,491L717,189Z" fill="rgb(82,142,44)" stroke="rgb(82,142,44)" stroke-width="1.51"></path><path d="M-109,429L-108,507L-36,511Z" fill="rgb(103,73,57)" stroke="rgb(103,73,57)" stroke-width="1.51"></path><path d="M-121,188L-108,507L-109,429Z" fill="rgb(115,87,61)" stroke="rgb(115,87,61)" stroke-width="1.51"></path></svg>