<svg width="600" height="400" xmlns="http://www.w3.org/2000/svg"><path d="M304,211L258,183L284,246Z" fill="rgb(250,245,242)" stroke="rgb(250,245,242)" stroke-width="1.51"></path><path d="M258,183L212,198L284,246Z" fill="rgb(252,237,228)" stroke="rgb(252,237,228)" stroke-width="1.51"></path><path d="M324,116L270,119L258,183Z" fill="rgb(254,218,201)" stroke="rgb(254,218,201)" stroke-width="1.51"></path><path d="M258,183L199,94L212,198Z" fill="rgb(252,210,187)" stroke="rgb(252,210,187)" stroke-width="1.51"></path><path d="M284,246L338,301L304,211Z" fill="rgb(231,231,231)" stroke="rgb(231,231,231)" stroke-width="1.51"></path><path d="M304,211L324,116L258,183Z" fill="rgb(255,240,232)" stroke="rgb(255,240,232)" stroke-width="1.51"></path><path d="M231,334L338,301L284,246Z" fill="rgb(211,206,203)" stroke="rgb(211,206,203)" stroke-width="1.51"></path><path d="M437,171L324,116L304,211Z" fill="rgb(241,226,217)" stroke="rgb(241,226,217)" stroke-width="1.51"></path><path d="M212,198L231,334L284,246Z" fill="rgb(229,213,203)" stroke="rgb(229,213,203)" stroke-width="1.51"></path><path d="M338,301L410,248L304,211Z" fill="rgb(220,220,220)" stroke="rgb(220,220,220)" stroke-width="1.51"></path><path d="M231,334L349,320L338,301Z" fill="rgb(193,193,193)" stroke="rgb(193,193,193)" stroke-width="1.51"></path><path d="M270,119L199,94L258,183Z" fill="rgb(251,200,175)" stroke="rgb(251,200,175)" stroke-width="1.51"></path><path d="M271,63L199,94L270,119Z" fill="rgb(242,170,147)" stroke="rgb(242,170,147)" stroke-width="1.51"></path><path d="M212,198L155,300L231,334Z" fill="rgb(220,185,170)" stroke="rgb(220,185,170)" stroke-width="1.51"></path><path d="M139,280L155,300L212,198Z" fill="rgb(226,179,162)" stroke="rgb(226,179,162)" stroke-width="1.51"></path><path d="M349,320L410,248L338,301Z" fill="rgb(196,196,196)" stroke="rgb(196,196,196)" stroke-width="1.51"></path><path d="M104,180L139,280L212,198Z" fill="rgb(241,187,170)" stroke="rgb(241,187,170)" stroke-width="1.51"></path><path d="M324,116L271,63L270,119Z" fill="rgb(247,189,171)" stroke="rgb(247,189,171)" stroke-width="1.51"></path><path d="M199,94L104,180L212,198Z" fill="rgb(248,185,157)" stroke="rgb(248,185,157)" stroke-width="1.51"></path><path d="M410,248L437,171L304,211Z" fill="rgb(228,228,228)" stroke="rgb(228,228,228)" stroke-width="1.51"></path><path d="M324,116L340,22L271,63Z" fill="rgb(235,164,153)" stroke="rgb(235,164,153)" stroke-width="1.51"></path><path d="M410,248L491,221L437,171Z" fill="rgb(204,204,204)" stroke="rgb(204,204,204)" stroke-width="1.51"></path><path d="M349,320L396,335L410,248Z" fill="rgb(183,183,183)" stroke="rgb(183,183,183)" stroke-width="1.51"></path><path d="M400,412L396,335L349,320Z" fill="rgb(144,144,144)" stroke="rgb(144,144,144)" stroke-width="1.51"></path><path d="M199,94L91,127L104,180Z" fill="rgb(235,146,119)" stroke="rgb(235,146,119)" stroke-width="1.51"></path><path d="M271,63L208,50L199,94Z" fill="rgb(231,144,123)" stroke="rgb(231,144,123)" stroke-width="1.51"></path><path d="M155,300L181,379L231,334Z" fill="rgb(177,141,125)" stroke="rgb(177,141,125)" stroke-width="1.51"></path><path d="M231,334L288,414L349,320Z" fill="rgb(165,162,160)" stroke="rgb(165,162,160)" stroke-width="1.51"></path><path d="M121,369L181,379L155,300Z" fill="rgb(162,114,99)" stroke="rgb(162,114,99)" stroke-width="1.51"></path><path d="M437,171L429,98L324,116Z" fill="rgb(227,189,172)" stroke="rgb(227,189,172)" stroke-width="1.51"></path><path d="M88,60L91,127L199,94Z" fill="rgb(221,112,88)" stroke="rgb(221,112,88)" stroke-width="1.51"></path><path d="M181,379L288,414L231,334Z" fill="rgb(149,130,120)" stroke="rgb(149,130,120)" stroke-width="1.51"></path><path d="M429,98L386,46L324,116Z" fill="rgb(222,161,146)" stroke="rgb(222,161,146)" stroke-width="1.51"></path><path d="M271,63L248,-40L208,50Z" fill="rgb(206,124,114)" stroke="rgb(206,124,114)" stroke-width="1.51"></path><path d="M386,46L340,22L324,116Z" fill="rgb(223,151,141)" stroke="rgb(223,151,141)" stroke-width="1.51"></path><path d="M91,127L62,200L104,180Z" fill="rgb(230,146,130)" stroke="rgb(230,146,130)" stroke-width="1.51"></path><path d="M104,180L62,200L139,280Z" fill="rgb(230,160,148)" stroke="rgb(230,160,148)" stroke-width="1.51"></path><path d="M139,280L121,369L155,300Z" fill="rgb(186,131,117)" stroke="rgb(186,131,117)" stroke-width="1.51"></path><path d="M312,482L319,432L288,414Z" fill="rgb(129,129,129)" stroke="rgb(129,129,129)" stroke-width="1.51"></path><path d="M45,329L121,369L139,280Z" fill="rgb(170,106,96)" stroke="rgb(170,106,96)" stroke-width="1.51"></path><path d="M497,243L491,221L410,248Z" fill="rgb(186,186,186)" stroke="rgb(186,186,186)" stroke-width="1.51"></path><path d="M512,148L460,67L429,98Z" fill="rgb(193,143,128)" stroke="rgb(193,143,128)" stroke-width="1.51"></path><path d="M288,414L319,432L349,320Z" fill="rgb(135,135,135)" stroke="rgb(135,135,135)" stroke-width="1.51"></path><path d="M396,335L497,243L410,248Z" fill="rgb(182,182,182)" stroke="rgb(182,182,182)" stroke-width="1.51"></path><path d="M250,472L288,414L181,379Z" fill="rgb(130,115,106)" stroke="rgb(130,115,106)" stroke-width="1.51"></path><path d="M482,383L497,243L396,335Z" fill="rgb(143,143,143)" stroke="rgb(143,143,143)" stroke-width="1.51"></path><path d="M384,-52L314,-14L340,22Z" fill="rgb(173,120,123)" stroke="rgb(173,120,123)" stroke-width="1.51"></path><path d="M340,22L314,-14L271,63Z" fill="rgb(208,139,137)" stroke="rgb(208,139,137)" stroke-width="1.51"></path><path d="M319,432L400,412L349,320Z" fill="rgb(127,127,127)" stroke="rgb(127,127,127)" stroke-width="1.51"></path><path d="M208,50L88,60L199,94Z" fill="rgb(221,114,90)" stroke="rgb(221,114,90)" stroke-width="1.51"></path><path d="M91,127L24,152L62,200Z" fill="rgb(221,130,116)" stroke="rgb(221,130,116)" stroke-width="1.51"></path><path d="M118,-17L88,60L208,50Z" fill="rgb(193,74,65)" stroke="rgb(193,74,65)" stroke-width="1.51"></path><path d="M429,98L460,67L386,46Z" fill="rgb(202,134,123)" stroke="rgb(202,134,123)" stroke-width="1.51"></path><path d="M386,46L384,-52L340,22Z" fill="rgb(172,116,118)" stroke="rgb(172,116,118)" stroke-width="1.51"></path><path d="M512,148L429,98L437,171Z" fill="rgb(202,171,157)" stroke="rgb(202,171,157)" stroke-width="1.51"></path><path d="M512,148L437,171L491,221Z" fill="rgb(193,185,180)" stroke="rgb(193,185,180)" stroke-width="1.51"></path><path d="M121,369L107,394L181,379Z" fill="rgb(134,83,70)" stroke="rgb(134,83,70)" stroke-width="1.51"></path><path d="M45,329L107,394L121,369Z" fill="rgb(137,74,66)" stroke="rgb(137,74,66)" stroke-width="1.51"></path><path d="M62,200L40,293L139,280Z" fill="rgb(208,135,127)" stroke="rgb(208,135,127)" stroke-width="1.51"></path><path d="M-18,195L40,293L62,200Z" fill="rgb(193,128,127)" stroke="rgb(193,128,127)" stroke-width="1.51"></path><path d="M555,211L512,148L491,221Z" fill="rgb(172,169,168)" stroke="rgb(172,169,168)" stroke-width="1.51"></path><path d="M40,293L45,329L139,280Z" fill="rgb(181,110,103)" stroke="rgb(181,110,103)" stroke-width="1.51"></path><path d="M107,394L174,449L181,379Z" fill="rgb(122,78,64)" stroke="rgb(122,78,64)" stroke-width="1.51"></path><path d="M33,50L24,152L91,127Z" fill="rgb(202,91,77)" stroke="rgb(202,91,77)" stroke-width="1.51"></path><path d="M314,-14L248,-40L271,63Z" fill="rgb(186,126,125)" stroke="rgb(186,126,125)" stroke-width="1.51"></path><path d="M174,449L250,472L181,379Z" fill="rgb(128,99,86)" stroke="rgb(128,99,86)" stroke-width="1.51"></path><path d="M319,432L400,511L400,412Z" fill="rgb(113,113,113)" stroke="rgb(113,113,113)" stroke-width="1.51"></path><path d="M248,-40L198,-36L208,50Z" fill="rgb(178,104,97)" stroke="rgb(178,104,97)" stroke-width="1.51"></path><path d="M250,472L312,482L288,414Z" fill="rgb(131,126,124)" stroke="rgb(131,126,124)" stroke-width="1.51"></path><path d="M482,404L482,383L400,412Z" fill="rgb(87,87,87)" stroke="rgb(87,87,87)" stroke-width="1.51"></path><path d="M400,412L482,383L396,335Z" fill="rgb(115,115,115)" stroke="rgb(115,115,115)" stroke-width="1.51"></path><path d="M497,243L555,211L491,221Z" fill="rgb(166,166,166)" stroke="rgb(166,166,166)" stroke-width="1.51"></path><path d="M88,60L33,50L91,127Z" fill="rgb(199,70,62)" stroke="rgb(199,70,62)" stroke-width="1.51"></path><path d="M198,-36L118,-17L208,50Z" fill="rgb(171,84,75)" stroke="rgb(171,84,75)" stroke-width="1.51"></path><path d="M559,278L555,211L497,243Z" fill="rgb(147,147,147)" stroke="rgb(147,147,147)" stroke-width="1.51"></path><path d="M500,476L482,404L400,412Z" fill="rgb(84,84,84)" stroke="rgb(84,84,84)" stroke-width="1.51"></path><path d="M559,278L497,243L482,383Z" fill="rgb(130,130,130)" stroke="rgb(130,130,130)" stroke-width="1.51"></path><path d="M512,148L562,20L460,67Z" fill="rgb(162,102,90)" stroke="rgb(162,102,90)" stroke-width="1.51"></path><path d="M22,-10L33,50L88,60Z" fill="rgb(163,20,41)" stroke="rgb(163,20,41)" stroke-width="1.51"></path><path d="M24,152L-18,195L62,200Z" fill="rgb(199,130,126)" stroke="rgb(199,130,126)" stroke-width="1.51"></path><path d="M40,293L-52,339L45,329Z" fill="rgb(132,79,81)" stroke="rgb(132,79,81)" stroke-width="1.51"></path><path d="M-23,102L-18,195L24,152Z" fill="rgb(178,107,101)" stroke="rgb(178,107,101)" stroke-width="1.51"></path><path d="M174,449L158,482L250,472Z" fill="rgb(128,97,82)" stroke="rgb(128,97,82)" stroke-width="1.51"></path><path d="M250,472L119,529L312,482Z" fill="rgb(130,109,99)" stroke="rgb(130,109,99)" stroke-width="1.51"></path><path d="M107,394L158,482L174,449Z" fill="rgb(121,74,61)" stroke="rgb(121,74,61)" stroke-width="1.51"></path><path d="M119,529L158,482L107,394Z" fill="rgb(117,65,54)" stroke="rgb(117,65,54)" stroke-width="1.51"></path><path d="M314,-14L258,-103L248,-40Z" fill="rgb(183,123,123)" stroke="rgb(183,123,123)" stroke-width="1.51"></path><path d="M248,-40L182,-85L198,-36Z" fill="rgb(177,100,92)" stroke="rgb(177,100,92)" stroke-width="1.51"></path><path d="M483,-41L384,-52L386,46Z" fill="rgb(151,100,103)" stroke="rgb(151,100,103)" stroke-width="1.51"></path><path d="M483,-41L386,46L460,67Z" fill="rgb(165,100,98)" stroke="rgb(165,100,98)" stroke-width="1.51"></path><path d="M542,379L559,278L482,383Z" fill="rgb(92,92,92)" stroke="rgb(92,92,92)" stroke-width="1.51"></path><path d="M-52,339L34,402L45,329Z" fill="rgb(103,53,56)" stroke="rgb(103,53,56)" stroke-width="1.51"></path><path d="M45,329L34,402L107,394Z" fill="rgb(120,53,51)" stroke="rgb(120,53,51)" stroke-width="1.51"></path><path d="M198,-36L182,-85L118,-17Z" fill="rgb(169,79,72)" stroke="rgb(169,79,72)" stroke-width="1.51"></path><path d="M118,-17L22,-10L88,60Z" fill="rgb(155,29,43)" stroke="rgb(155,29,43)" stroke-width="1.51"></path><path d="M258,-103L182,-85L248,-40Z" fill="rgb(179,109,103)" stroke="rgb(179,109,103)" stroke-width="1.51"></path><path d="M33,50L-23,102L24,152Z" fill="rgb(173,74,67)" stroke="rgb(173,74,67)" stroke-width="1.51"></path><path d="M482,404L542,379L482,383Z" fill="rgb(75,75,75)" stroke="rgb(75,75,75)" stroke-width="1.51"></path><path d="M558,450L542,379L482,404Z" fill="rgb(56,56,56)" stroke="rgb(56,56,56)" stroke-width="1.51"></path><path d="M365,-93L258,-103L314,-14Z" fill="rgb(182,128,131)" stroke="rgb(182,128,131)" stroke-width="1.51"></path><path d="M606,229L585,150L555,211Z" fill="rgb(140,138,137)" stroke="rgb(140,138,137)" stroke-width="1.51"></path><path d="M555,211L585,150L512,148Z" fill="rgb(155,143,136)" stroke="rgb(155,143,136)" stroke-width="1.51"></path><path d="M606,229L555,211L559,278Z" fill="rgb(131,131,131)" stroke="rgb(131,131,131)" stroke-width="1.51"></path><path d="M384,-52L365,-93L314,-14Z" fill="rgb(171,118,121)" stroke="rgb(171,118,121)" stroke-width="1.51"></path><path d="M420,-128L365,-93L384,-52Z" fill="rgb(160,108,111)" stroke="rgb(160,108,111)" stroke-width="1.51"></path><path d="M312,482L400,511L319,432Z" fill="rgb(121,121,121)" stroke="rgb(121,121,121)" stroke-width="1.51"></path><path d="M119,529L400,511L312,482Z" fill="rgb(131,124,121)" stroke="rgb(131,124,121)" stroke-width="1.51"></path><path d="M562,20L483,-41L460,67Z" fill="rgb(129,72,73)" stroke="rgb(129,72,73)" stroke-width="1.51"></path><path d="M33,50L-66,67L-23,102Z" fill="rgb(154,47,50)" stroke="rgb(154,47,50)" stroke-width="1.51"></path><path d="M98,-94L22,-10L118,-17Z" fill="rgb(145,28,42)" stroke="rgb(145,28,42)" stroke-width="1.51"></path><path d="M616,268L606,229L559,278Z" fill="rgb(112,112,112)" stroke="rgb(112,112,112)" stroke-width="1.51"></path><path d="M-111,274L-57,298L-18,195Z" fill="rgb(162,110,113)" stroke="rgb(162,110,113)" stroke-width="1.51"></path><path d="M-18,195L-57,298L40,293Z" fill="rgb(159,107,110)" stroke="rgb(159,107,110)" stroke-width="1.51"></path><path d="M483,-41L463,-70L384,-52Z" fill="rgb(141,91,94)" stroke="rgb(141,91,94)" stroke-width="1.51"></path><path d="M-57,298L-52,339L40,293Z" fill="rgb(131,82,85)" stroke="rgb(131,82,85)" stroke-width="1.51"></path><path d="M400,511L500,476L400,412Z" fill="rgb(95,95,95)" stroke="rgb(95,95,95)" stroke-width="1.51"></path><path d="M158,482L119,529L250,472Z" fill="rgb(126,89,73)" stroke="rgb(126,89,73)" stroke-width="1.51"></path><path d="M34,402L119,529L107,394Z" fill="rgb(107,47,42)" stroke="rgb(107,47,42)" stroke-width="1.51"></path><path d="M3,496L119,529L34,402Z" fill="rgb(96,33,34)" stroke="rgb(96,33,34)" stroke-width="1.51"></path><path d="M665,368L616,268L542,379Z" fill="rgb(65,65,65)" stroke="rgb(65,65,65)" stroke-width="1.51"></path><path d="M542,379L616,268L559,278Z" fill="rgb(97,97,97)" stroke="rgb(97,97,97)" stroke-width="1.51"></path><path d="M612,111L585,150L606,229Z" fill="rgb(130,116,108)" stroke="rgb(130,116,108)" stroke-width="1.51"></path><path d="M612,111L512,148L585,150Z" fill="rgb(145,115,102)" stroke="rgb(145,115,102)" stroke-width="1.51"></path><path d="M612,111L562,20L512,148Z" fill="rgb(139,88,75)" stroke="rgb(139,88,75)" stroke-width="1.51"></path><path d="M483,-41L548,-104L463,-70Z" fill="rgb(116,68,72)" stroke="rgb(116,68,72)" stroke-width="1.51"></path><path d="M258,-103L98,-94L182,-85Z" fill="rgb(173,87,77)" stroke="rgb(173,87,77)" stroke-width="1.51"></path><path d="M182,-85L98,-94L118,-17Z" fill="rgb(161,60,58)" stroke="rgb(161,60,58)" stroke-width="1.51"></path><path d="M683,62L612,111L718,95Z" fill="rgb(118,68,56)" stroke="rgb(118,68,56)" stroke-width="1.51"></path><path d="M-102,114L-112,197L-18,195Z" fill="rgb(181,118,114)" stroke="rgb(181,118,114)" stroke-width="1.51"></path><path d="M22,-10L-66,67L33,50Z" fill="rgb(136,9,37)" stroke="rgb(136,9,37)" stroke-width="1.51"></path><path d="M-35,-36L-66,67L22,-10Z" fill="rgb(109,1,32)" stroke="rgb(109,1,32)" stroke-width="1.51"></path><path d="M500,476L558,450L482,404Z" fill="rgb(62,62,62)" stroke="rgb(62,62,62)" stroke-width="1.51"></path><path d="M548,-104L420,-128L463,-70Z" fill="rgb(126,77,81)" stroke="rgb(126,77,81)" stroke-width="1.51"></path><path d="M463,-70L420,-128L384,-52Z" fill="rgb(150,99,102)" stroke="rgb(150,99,102)" stroke-width="1.51"></path><path d="M365,-93L420,-128L258,-103Z" fill="rgb(172,120,123)" stroke="rgb(172,120,123)" stroke-width="1.51"></path><path d="M258,-103L-32,-119L98,-94Z" fill="rgb(154,45,50)" stroke="rgb(154,45,50)" stroke-width="1.51"></path><path d="M-52,339L-58,434L34,402Z" fill="rgb(71,28,33)" stroke="rgb(71,28,33)" stroke-width="1.51"></path><path d="M-57,298L-82,353L-52,339Z" fill="rgb(117,69,73)" stroke="rgb(117,69,73)" stroke-width="1.51"></path><path d="M-111,274L-82,353L-57,298Z" fill="rgb(133,83,87)" stroke="rgb(133,83,87)" stroke-width="1.51"></path><path d="M562,20L577,-7L483,-41Z" fill="rgb(94,49,53)" stroke="rgb(94,49,53)" stroke-width="1.51"></path><path d="M628,36L577,-7L562,20Z" fill="rgb(85,33,35)" stroke="rgb(85,33,35)" stroke-width="1.51"></path><path d="M-102,114L-18,195L-23,102Z" fill="rgb(176,99,91)" stroke="rgb(176,99,91)" stroke-width="1.51"></path><path d="M-66,67L-102,114L-23,102Z" fill="rgb(163,65,62)" stroke="rgb(163,65,62)" stroke-width="1.51"></path><path d="M-112,197L-111,274L-18,195Z" fill="rgb(176,123,126)" stroke="rgb(176,123,126)" stroke-width="1.51"></path><path d="M-58,434L3,496L34,402Z" fill="rgb(65,23,28)" stroke="rgb(65,23,28)" stroke-width="1.51"></path><path d="M-89,438L-58,434L-82,353Z" fill="rgb(65,23,28)" stroke="rgb(65,23,28)" stroke-width="1.51"></path><path d="M-82,353L-58,434L-52,339Z" fill="rgb(83,39,43)" stroke="rgb(83,39,43)" stroke-width="1.51"></path><path d="M8,-95L-35,-36L22,-10Z" fill="rgb(103,0,31)" stroke="rgb(103,0,31)" stroke-width="1.51"></path><path d="M-66,67L-128,38L-102,114Z" fill="rgb(154,47,50)" stroke="rgb(154,47,50)" stroke-width="1.51"></path><path d="M500,476L575,470L558,450Z" fill="rgb(49,49,49)" stroke="rgb(49,49,49)" stroke-width="1.51"></path><path d="M558,450L629,435L542,379Z" fill="rgb(35,35,35)" stroke="rgb(35,35,35)" stroke-width="1.51"></path><path d="M633,488L575,470L500,476Z" fill="rgb(38,38,38)" stroke="rgb(38,38,38)" stroke-width="1.51"></path><path d="M612,111L628,36L562,20Z" fill="rgb(106,46,41)" stroke="rgb(106,46,41)" stroke-width="1.51"></path><path d="M683,62L628,36L612,111Z" fill="rgb(111,54,47)" stroke="rgb(111,54,47)" stroke-width="1.51"></path><path d="M98,-94L8,-95L22,-10Z" fill="rgb(129,6,36)" stroke="rgb(129,6,36)" stroke-width="1.51"></path><path d="M-32,-119L8,-95L98,-94Z" fill="rgb(118,3,34)" stroke="rgb(118,3,34)" stroke-width="1.51"></path><path d="M-88,-113L-82,-12L-35,-36Z" fill="rgb(103,0,31)" stroke="rgb(103,0,31)" stroke-width="1.51"></path><path d="M-35,-36L-82,-12L-66,67Z" fill="rgb(108,1,32)" stroke="rgb(108,1,32)" stroke-width="1.51"></path><path d="M575,470L629,435L558,450Z" fill="rgb(31,31,31)" stroke="rgb(31,31,31)" stroke-width="1.51"></path><path d="M718,95L612,111L744,171Z" fill="rgb(128,94,80)" stroke="rgb(128,94,80)" stroke-width="1.51"></path><path d="M-58,434L-65,502L3,496Z" fill="rgb(65,23,28)" stroke="rgb(65,23,28)" stroke-width="1.51"></path><path d="M-129,490L-89,438L-82,353Z" fill="rgb(65,23,28)" stroke="rgb(65,23,28)" stroke-width="1.51"></path><path d="M606,-93L548,-104L577,-7Z" fill="rgb(77,33,38)" stroke="rgb(77,33,38)" stroke-width="1.51"></path><path d="M577,-7L548,-104L483,-41Z" fill="rgb(97,51,55)" stroke="rgb(97,51,55)" stroke-width="1.51"></path><path d="M629,435L665,368L542,379Z" fill="rgb(29,29,29)" stroke="rgb(29,29,29)" stroke-width="1.51"></path><path d="M-112,197L-128,38L-111,274Z" fill="rgb(181,118,114)" stroke="rgb(181,118,114)" stroke-width="1.51"></path><path d="M-102,114L-128,38L-112,197Z" fill="rgb(171,84,75)" stroke="rgb(171,84,75)" stroke-width="1.51"></path><path d="M-82,-12L-128,38L-66,67Z" fill="rgb(131,7,36)" stroke="rgb(131,7,36)" stroke-width="1.51"></path><path d="M628,36L660,2L577,-7Z" fill="rgb(74,26,30)" stroke="rgb(74,26,30)" stroke-width="1.51"></path><path d="M724,256L606,229L616,268Z" fill="rgb(112,112,112)" stroke="rgb(112,112,112)" stroke-width="1.51"></path><path d="M-89,438L-65,502L-58,434Z" fill="rgb(65,23,28)" stroke="rgb(65,23,28)" stroke-width="1.51"></path><path d="M3,496L-65,502L119,529Z" fill="rgb(76,27,30)" stroke="rgb(76,27,30)" stroke-width="1.51"></path><path d="M683,62L660,2L628,36Z" fill="rgb(94,33,33)" stroke="rgb(94,33,33)" stroke-width="1.51"></path><path d="M-82,-12L-88,-113L-128,38Z" fill="rgb(103,0,31)" stroke="rgb(103,0,31)" stroke-width="1.51"></path><path d="M8,-95L-32,-119L-35,-36Z" fill="rgb(103,0,31)" stroke="rgb(103,0,31)" stroke-width="1.51"></path><path d="M420,-128L-32,-119L258,-103Z" fill="rgb(177,103,96)" stroke="rgb(177,103,96)" stroke-width="1.51"></path><path d="M400,511L633,488L500,476Z" fill="rgb(63,63,63)" stroke="rgb(63,63,63)" stroke-width="1.51"></path><path d="M575,470L633,488L629,435Z" fill="rgb(26,26,26)" stroke="rgb(26,26,26)" stroke-width="1.51"></path><path d="M629,435L731,430L665,368Z" fill="rgb(26,26,26)" stroke="rgb(26,26,26)" stroke-width="1.51"></path><path d="M731,430L710,330L665,368Z" fill="rgb(41,41,41)" stroke="rgb(41,41,41)" stroke-width="1.51"></path><path d="M665,368L710,330L616,268Z" fill="rgb(76,76,76)" stroke="rgb(76,76,76)" stroke-width="1.51"></path><path d="M660,2L606,-93L577,-7Z" fill="rgb(65,23,28)" stroke="rgb(65,23,28)" stroke-width="1.51"></path><path d="M710,330L724,256L616,268Z" fill="rgb(97,97,97)" stroke="rgb(97,97,97)" stroke-width="1.51"></path><path d="M660,2L716,-87L606,-93Z" fill="rgb(65,23,28)" stroke="rgb(65,23,28)" stroke-width="1.51"></path><path d="M683,62L741,-40L660,2Z" fill="rgb(72,25,29)" stroke="rgb(72,25,29)" stroke-width="1.51"></path><path d="M744,171L612,111L606,229Z" fill="rgb(130,119,112)" stroke="rgb(130,119,112)" stroke-width="1.51"></path><path d="M724,256L744,171L606,229Z" fill="rgb(124,124,124)" stroke="rgb(124,124,124)" stroke-width="1.51"></path><path d="M731,430L744,171L724,256Z" fill="rgb(97,97,97)" stroke="rgb(97,97,97)" stroke-width="1.51"></path><path d="M-89,438L-129,490L-65,502Z" fill="rgb(65,23,28)" stroke="rgb(65,23,28)" stroke-width="1.51"></path><path d="M-111,274L-129,490L-82,353Z" fill="rgb(85,41,45)" stroke="rgb(85,41,45)" stroke-width="1.51"></path><path d="M-128,38L-129,490L-111,274Z" fill="rgb(157,105,108)" stroke="rgb(157,105,108)" stroke-width="1.51"></path><path d="M-32,-119L-88,-113L-35,-36Z" fill="rgb(103,0,31)" stroke="rgb(103,0,31)" stroke-width="1.51"></path><path d="M710,330L731,430L724,256Z" fill="rgb(64,64,64)" stroke="rgb(64,64,64)" stroke-width="1.51"></path><path d="M633,488L731,430L629,435Z" fill="rgb(26,26,26)" stroke="rgb(26,26,26)" stroke-width="1.51"></path><path d="M718,95L741,-40L683,62Z" fill="rgb(99,35,35)" stroke="rgb(99,35,35)" stroke-width="1.51"></path><path d="M744,171L741,-40L718,95Z" fill="rgb(113,58,49)" stroke="rgb(113,58,49)" stroke-width="1.51"></path><path d="M741,-40L716,-87L660,2Z" fill="rgb(65,23,28)" stroke="rgb(65,23,28)" stroke-width="1.51"></path><path d="M606,-93L716,-87L548,-104Z" fill="rgb(65,23,28)" stroke="rgb(65,23,28)" stroke-width="1.51"></path><path d="M548,-104L716,-87L420,-128Z" fill="rgb(84,40,44)" stroke="rgb(84,40,44)" stroke-width="1.51"></path><path d="M633,488L714,522L731,430Z" fill="rgb(26,26,26)" stroke="rgb(26,26,26)" stroke-width="1.51"></path><path d="M400,511L714,522L633,488Z" fill="rgb(33,33,33)" stroke="rgb(33,33,33)" stroke-width="1.51"></path><path d="M119,529L714,522L400,511Z" fill="rgb(103,103,103)" stroke="rgb(103,103,103)" stroke-width="1.51"></path></svg>