<svg width="600" height="400" xmlns="http://www.w3.org/2000/svg"><path d="M264,200L199,202L260,275Z" fill="rgb(243,235,149)" stroke="rgb(243,235,149)" stroke-width="1.51"></path><path d="M199,202L186,270L260,275Z" fill="rgb(232,219,126)" stroke="rgb(232,219,126)" stroke-width="1.51"></path><path d="M260,275L327,284L264,200Z" fill="rgb(228,240,153)" stroke="rgb(228,240,153)" stroke-width="1.51"></path><path d="M332,347L327,284L260,275Z" fill="rgb(192,228,144)" stroke="rgb(192,228,144)" stroke-width="1.51"></path><path d="M264,200L194,129L199,202Z" fill="rgb(255,222,142)" stroke="rgb(255,222,142)" stroke-width="1.51"></path><path d="M199,202L111,197L186,270Z" fill="rgb(246,203,124)" stroke="rgb(246,203,124)" stroke-width="1.51"></path><path d="M186,270L197,347L260,275Z" fill="rgb(200,205,112)" stroke="rgb(200,205,112)" stroke-width="1.51"></path><path d="M264,200L260,121L194,129Z" fill="rgb(254,218,133)" stroke="rgb(254,218,133)" stroke-width="1.51"></path><path d="M340,131L260,121L264,200Z" fill="rgb(255,230,155)" stroke="rgb(255,230,155)" stroke-width="1.51"></path><path d="M327,284L345,192L264,200Z" fill="rgb(240,249,170)" stroke="rgb(240,249,170)" stroke-width="1.51"></path><path d="M197,347L253,360L260,275Z" fill="rgb(178,203,116)" stroke="rgb(178,203,116)" stroke-width="1.51"></path><path d="M194,129L111,197L199,202Z" fill="rgb(255,199,125)" stroke="rgb(255,199,125)" stroke-width="1.51"></path><path d="M186,270L110,349L197,347Z" fill="rgb(185,176,93)" stroke="rgb(185,176,93)" stroke-width="1.51"></path><path d="M111,197L100,276L186,270Z" fill="rgb(233,182,102)" stroke="rgb(233,182,102)" stroke-width="1.51"></path><path d="M327,284L402,271L345,192Z" fill="rgb(212,237,136)" stroke="rgb(212,237,136)" stroke-width="1.51"></path><path d="M253,360L332,347L260,275Z" fill="rgb(176,214,134)" stroke="rgb(176,214,134)" stroke-width="1.51"></path><path d="M345,192L340,131L264,200Z" fill="rgb(250,243,167)" stroke="rgb(250,243,167)" stroke-width="1.51"></path><path d="M194,129L115,129L111,197Z" fill="rgb(253,174,103)" stroke="rgb(253,174,103)" stroke-width="1.51"></path><path d="M27,209L37,275L100,276Z" fill="rgb(216,150,81)" stroke="rgb(216,150,81)" stroke-width="1.51"></path><path d="M178,62L115,129L194,129Z" fill="rgb(251,155,87)" stroke="rgb(251,155,87)" stroke-width="1.51"></path><path d="M100,276L110,349L186,270Z" fill="rgb(202,169,87)" stroke="rgb(202,169,87)" stroke-width="1.51"></path><path d="M197,347L195,416L253,360Z" fill="rgb(152,170,95)" stroke="rgb(152,170,95)" stroke-width="1.51"></path><path d="M332,347L402,271L327,284Z" fill="rgb(178,222,123)" stroke="rgb(178,222,123)" stroke-width="1.51"></path><path d="M345,192L409,196L340,131Z" fill="rgb(234,236,146)" stroke="rgb(234,236,146)" stroke-width="1.51"></path><path d="M402,271L409,196L345,192Z" fill="rgb(216,239,145)" stroke="rgb(216,239,145)" stroke-width="1.51"></path><path d="M260,121L178,62L194,129Z" fill="rgb(253,175,101)" stroke="rgb(253,175,101)" stroke-width="1.51"></path><path d="M253,46L178,62L260,121Z" fill="rgb(251,162,97)" stroke="rgb(251,162,97)" stroke-width="1.51"></path><path d="M110,349L195,416L197,347Z" fill="rgb(157,154,81)" stroke="rgb(157,154,81)" stroke-width="1.51"></path><path d="M253,360L258,426L332,347Z" fill="rgb(148,187,119)" stroke="rgb(148,187,119)" stroke-width="1.51"></path><path d="M329,47L253,46L260,121Z" fill="rgb(253,174,115)" stroke="rgb(253,174,115)" stroke-width="1.51"></path><path d="M329,47L260,121L340,131Z" fill="rgb(254,198,131)" stroke="rgb(254,198,131)" stroke-width="1.51"></path><path d="M195,416L258,426L253,360Z" fill="rgb(141,162,94)" stroke="rgb(141,162,94)" stroke-width="1.51"></path><path d="M100,276L29,344L110,349Z" fill="rgb(179,140,71)" stroke="rgb(179,140,71)" stroke-width="1.51"></path><path d="M27,209L100,276L111,197Z" fill="rgb(236,163,99)" stroke="rgb(236,163,99)" stroke-width="1.51"></path><path d="M47,119L27,209L111,197Z" fill="rgb(242,151,96)" stroke="rgb(242,151,96)" stroke-width="1.51"></path><path d="M47,119L111,197L115,129Z" fill="rgb(245,150,89)" stroke="rgb(245,150,89)" stroke-width="1.51"></path><path d="M410,48L329,47L340,131Z" fill="rgb(236,175,100)" stroke="rgb(236,175,100)" stroke-width="1.51"></path><path d="M332,347L422,343L402,271Z" fill="rgb(150,210,112)" stroke="rgb(150,210,112)" stroke-width="1.51"></path><path d="M492,286L491,187L409,196Z" fill="rgb(178,221,131)" stroke="rgb(178,221,131)" stroke-width="1.51"></path><path d="M408,429L422,343L332,347Z" fill="rgb(118,182,97)" stroke="rgb(118,182,97)" stroke-width="1.51"></path><path d="M409,196L424,130L340,131Z" fill="rgb(224,222,126)" stroke="rgb(224,222,126)" stroke-width="1.51"></path><path d="M491,187L424,130L409,196Z" fill="rgb(201,220,128)" stroke="rgb(201,220,128)" stroke-width="1.51"></path><path d="M117,44L47,119L115,129Z" fill="rgb(240,112,67)" stroke="rgb(240,112,67)" stroke-width="1.51"></path><path d="M196,-25L178,62L253,46Z" fill="rgb(230,126,76)" stroke="rgb(230,126,76)" stroke-width="1.51"></path><path d="M196,-25L117,44L178,62Z" fill="rgb(226,103,63)" stroke="rgb(226,103,63)" stroke-width="1.51"></path><path d="M178,62L117,44L115,129Z" fill="rgb(245,118,70)" stroke="rgb(245,118,70)" stroke-width="1.51"></path><path d="M110,349L111,425L195,416Z" fill="rgb(147,125,66)" stroke="rgb(147,125,66)" stroke-width="1.51"></path><path d="M195,416L250,501L258,426Z" fill="rgb(141,161,93)" stroke="rgb(141,161,93)" stroke-width="1.51"></path><path d="M41,425L111,425L110,349Z" fill="rgb(140,103,52)" stroke="rgb(140,103,52)" stroke-width="1.51"></path><path d="M258,426L341,436L332,347Z" fill="rgb(136,176,115)" stroke="rgb(136,176,115)" stroke-width="1.51"></path><path d="M340,501L341,436L258,426Z" fill="rgb(135,176,114)" stroke="rgb(135,176,114)" stroke-width="1.51"></path><path d="M37,275L29,344L100,276Z" fill="rgb(189,139,69)" stroke="rgb(189,139,69)" stroke-width="1.51"></path><path d="M-28,347L29,344L37,275Z" fill="rgb(156,120,66)" stroke="rgb(156,120,66)" stroke-width="1.51"></path><path d="M424,130L410,48L340,131Z" fill="rgb(226,190,102)" stroke="rgb(226,190,102)" stroke-width="1.51"></path><path d="M329,47L264,-25L253,46Z" fill="rgb(232,148,103)" stroke="rgb(232,148,103)" stroke-width="1.51"></path><path d="M341,436L408,429L332,347Z" fill="rgb(120,170,95)" stroke="rgb(120,170,95)" stroke-width="1.51"></path><path d="M27,209L-34,262L37,275Z" fill="rgb(199,139,82)" stroke="rgb(199,139,82)" stroke-width="1.51"></path><path d="M47,119L-28,204L27,209Z" fill="rgb(223,139,96)" stroke="rgb(223,139,96)" stroke-width="1.51"></path><path d="M331,-17L264,-25L329,47Z" fill="rgb(217,144,106)" stroke="rgb(217,144,106)" stroke-width="1.51"></path><path d="M492,286L402,271L422,343Z" fill="rgb(141,206,104)" stroke="rgb(141,206,104)" stroke-width="1.51"></path><path d="M492,286L409,196L402,271Z" fill="rgb(177,222,117)" stroke="rgb(177,222,117)" stroke-width="1.51"></path><path d="M424,130L478,113L410,48Z" fill="rgb(206,177,91)" stroke="rgb(206,177,91)" stroke-width="1.51"></path><path d="M264,-25L196,-25L253,46Z" fill="rgb(214,127,84)" stroke="rgb(214,127,84)" stroke-width="1.51"></path><path d="M476,339L492,286L422,343Z" fill="rgb(110,192,100)" stroke="rgb(110,192,100)" stroke-width="1.51"></path><path d="M481,428L476,339L422,343Z" fill="rgb(81,169,87)" stroke="rgb(81,169,87)" stroke-width="1.51"></path><path d="M177,506L250,501L195,416Z" fill="rgb(143,151,84)" stroke="rgb(143,151,84)" stroke-width="1.51"></path><path d="M341,436L340,501L408,429Z" fill="rgb(119,169,94)" stroke="rgb(119,169,94)" stroke-width="1.51"></path><path d="M-28,204L-34,262L27,209Z" fill="rgb(207,140,94)" stroke="rgb(207,140,94)" stroke-width="1.51"></path><path d="M111,425L177,506L195,416Z" fill="rgb(145,133,70)" stroke="rgb(145,133,70)" stroke-width="1.51"></path><path d="M29,344L41,425L110,349Z" fill="rgb(147,109,54)" stroke="rgb(147,109,54)" stroke-width="1.51"></path><path d="M-39,416L41,425L29,344Z" fill="rgb(118,84,47)" stroke="rgb(118,84,47)" stroke-width="1.51"></path><path d="M410,48L331,-17L329,47Z" fill="rgb(218,149,87)" stroke="rgb(218,149,87)" stroke-width="1.51"></path><path d="M491,187L478,113L424,130Z" fill="rgb(192,201,111)" stroke="rgb(192,201,111)" stroke-width="1.51"></path><path d="M106,512L177,506L111,425Z" fill="rgb(145,120,63)" stroke="rgb(145,120,63)" stroke-width="1.51"></path><path d="M47,119L-40,120L-28,204Z" fill="rgb(213,121,79)" stroke="rgb(213,121,79)" stroke-width="1.51"></path><path d="M117,44L34,40L47,119Z" fill="rgb(227,75,50)" stroke="rgb(227,75,50)" stroke-width="1.51"></path><path d="M117,-25L34,40L117,44Z" fill="rgb(209,57,45)" stroke="rgb(209,57,45)" stroke-width="1.51"></path><path d="M-34,262L-28,347L37,275Z" fill="rgb(168,125,68)" stroke="rgb(168,125,68)" stroke-width="1.51"></path><path d="M196,-25L117,-25L117,44Z" fill="rgb(207,81,57)" stroke="rgb(207,81,57)" stroke-width="1.51"></path><path d="M177,506L340,501L250,501Z" fill="rgb(141,167,102)" stroke="rgb(141,167,102)" stroke-width="1.51"></path><path d="M250,501L340,501L258,426Z" fill="rgb(139,174,113)" stroke="rgb(139,174,113)" stroke-width="1.51"></path><path d="M-28,204L-102,196L-34,262Z" fill="rgb(209,141,97)" stroke="rgb(209,141,97)" stroke-width="1.51"></path><path d="M34,40L-40,120L47,119Z" fill="rgb(212,82,56)" stroke="rgb(212,82,56)" stroke-width="1.51"></path><path d="M48,493L106,512L111,425Z" fill="rgb(140,103,53)" stroke="rgb(140,103,53)" stroke-width="1.51"></path><path d="M177,506L421,505L340,501Z" fill="rgb(135,176,114)" stroke="rgb(135,176,114)" stroke-width="1.51"></path><path d="M48,493L111,425L41,425Z" fill="rgb(136,95,48)" stroke="rgb(136,95,48)" stroke-width="1.51"></path><path d="M408,429L481,428L422,343Z" fill="rgb(85,155,79)" stroke="rgb(85,155,79)" stroke-width="1.51"></path><path d="M567,269L562,203L492,286Z" fill="rgb(125,192,104)" stroke="rgb(125,192,104)" stroke-width="1.51"></path><path d="M421,505L481,428L408,429Z" fill="rgb(85,155,79)" stroke="rgb(85,155,79)" stroke-width="1.51"></path><path d="M-44,498L48,493L41,425Z" fill="rgb(117,82,46)" stroke="rgb(117,82,46)" stroke-width="1.51"></path><path d="M478,113L482,38L410,48Z" fill="rgb(194,153,78)" stroke="rgb(194,153,78)" stroke-width="1.51"></path><path d="M410,48L401,-36L331,-17Z" fill="rgb(192,135,80)" stroke="rgb(192,135,80)" stroke-width="1.51"></path><path d="M554,42L482,38L478,113Z" fill="rgb(173,141,72)" stroke="rgb(173,141,72)" stroke-width="1.51"></path><path d="M259,-109L197,-98L264,-25Z" fill="rgb(214,129,85)" stroke="rgb(214,129,85)" stroke-width="1.51"></path><path d="M264,-25L197,-98L196,-25Z" fill="rgb(213,120,78)" stroke="rgb(213,120,78)" stroke-width="1.51"></path><path d="M196,-25L197,-98L117,-25Z" fill="rgb(210,97,64)" stroke="rgb(210,97,64)" stroke-width="1.51"></path><path d="M482,38L401,-36L410,48Z" fill="rgb(184,134,70)" stroke="rgb(184,134,70)" stroke-width="1.51"></path><path d="M-104,263L-28,347L-34,262Z" fill="rgb(171,127,69)" stroke="rgb(171,127,69)" stroke-width="1.51"></path><path d="M-116,350L-39,416L-28,347Z" fill="rgb(124,95,54)" stroke="rgb(124,95,54)" stroke-width="1.51"></path><path d="M-28,347L-39,416L29,344Z" fill="rgb(125,97,54)" stroke="rgb(125,97,54)" stroke-width="1.51"></path><path d="M340,501L421,505L408,429Z" fill="rgb(108,164,88)" stroke="rgb(108,164,88)" stroke-width="1.51"></path><path d="M106,512L421,505L177,506Z" fill="rgb(141,162,93)" stroke="rgb(141,162,93)" stroke-width="1.51"></path><path d="M34,40L-43,52L-40,120Z" fill="rgb(201,58,49)" stroke="rgb(201,58,49)" stroke-width="1.51"></path><path d="M117,-25L30,-23L34,40Z" fill="rgb(190,29,39)" stroke="rgb(190,29,39)" stroke-width="1.51"></path><path d="M101,-107L30,-23L117,-25Z" fill="rgb(195,45,44)" stroke="rgb(195,45,44)" stroke-width="1.51"></path><path d="M491,187L563,136L478,113Z" fill="rgb(170,190,106)" stroke="rgb(170,190,106)" stroke-width="1.51"></path><path d="M492,286L562,203L491,187Z" fill="rgb(152,206,122)" stroke="rgb(152,206,122)" stroke-width="1.51"></path><path d="M567,269L492,286L569,342Z" fill="rgb(90,177,91)" stroke="rgb(90,177,91)" stroke-width="1.51"></path><path d="M-45,-20L-43,52L34,40Z" fill="rgb(180,19,39)" stroke="rgb(180,19,39)" stroke-width="1.51"></path><path d="M-40,120L-102,196L-28,204Z" fill="rgb(216,133,93)" stroke="rgb(216,133,93)" stroke-width="1.51"></path><path d="M259,-109L264,-25L340,-94Z" fill="rgb(217,141,104)" stroke="rgb(217,141,104)" stroke-width="1.51"></path><path d="M569,342L492,286L476,339Z" fill="rgb(83,178,93)" stroke="rgb(83,178,93)" stroke-width="1.51"></path><path d="M-125,128L-102,196L-40,120Z" fill="rgb(213,121,79)" stroke="rgb(213,121,79)" stroke-width="1.51"></path><path d="M-102,196L-104,263L-34,262Z" fill="rgb(200,138,85)" stroke="rgb(200,138,85)" stroke-width="1.51"></path><path d="M639,195L563,136L562,203Z" fill="rgb(143,175,109)" stroke="rgb(143,175,109)" stroke-width="1.51"></path><path d="M562,203L563,136L491,187Z" fill="rgb(156,195,118)" stroke="rgb(156,195,118)" stroke-width="1.51"></path><path d="M340,-94L264,-25L331,-17Z" fill="rgb(215,143,104)" stroke="rgb(215,143,104)" stroke-width="1.51"></path><path d="M401,-36L340,-94L331,-17Z" fill="rgb(201,138,86)" stroke="rgb(201,138,86)" stroke-width="1.51"></path><path d="M415,-99L340,-94L401,-36Z" fill="rgb(191,134,79)" stroke="rgb(191,134,79)" stroke-width="1.51"></path><path d="M481,428L569,342L476,339Z" fill="rgb(50,155,82)" stroke="rgb(50,155,82)" stroke-width="1.51"></path><path d="M564,431L569,342L481,428Z" fill="rgb(16,128,68)" stroke="rgb(16,128,68)" stroke-width="1.51"></path><path d="M-104,263L-116,350L-28,347Z" fill="rgb(152,118,66)" stroke="rgb(152,118,66)" stroke-width="1.51"></path><path d="M-39,416L-44,498L41,425Z" fill="rgb(112,78,45)" stroke="rgb(112,78,45)" stroke-width="1.51"></path><path d="M-125,128L-116,350L-104,263Z" fill="rgb(196,136,82)" stroke="rgb(196,136,82)" stroke-width="1.51"></path><path d="M259,-109L101,-107L197,-98Z" fill="rgb(211,105,68)" stroke="rgb(211,105,68)" stroke-width="1.51"></path><path d="M197,-98L101,-107L117,-25Z" fill="rgb(206,78,56)" stroke="rgb(206,78,56)" stroke-width="1.51"></path><path d="M30,-23L-45,-20L34,40Z" fill="rgb(167,3,38)" stroke="rgb(167,3,38)" stroke-width="1.51"></path><path d="M421,505L490,498L481,428Z" fill="rgb(69,149,77)" stroke="rgb(69,149,77)" stroke-width="1.51"></path><path d="M482,38L484,-38L401,-36Z" fill="rgb(162,122,68)" stroke="rgb(162,122,68)" stroke-width="1.51"></path><path d="M569,-14L484,-38L482,38Z" fill="rgb(140,109,62)" stroke="rgb(140,109,62)" stroke-width="1.51"></path><path d="M-102,196L-125,128L-104,263Z" fill="rgb(218,142,106)" stroke="rgb(218,142,106)" stroke-width="1.51"></path><path d="M-105,58L-125,128L-40,120Z" fill="rgb(208,87,60)" stroke="rgb(208,87,60)" stroke-width="1.51"></path><path d="M-105,58L-40,120L-43,52Z" fill="rgb(203,63,51)" stroke="rgb(203,63,51)" stroke-width="1.51"></path><path d="M563,136L554,42L478,113Z" fill="rgb(166,153,81)" stroke="rgb(166,153,81)" stroke-width="1.51"></path><path d="M-37,-92L-45,-20L30,-23Z" fill="rgb(165,0,38)" stroke="rgb(165,0,38)" stroke-width="1.51"></path><path d="M-124,436L-44,498L-39,416Z" fill="rgb(112,78,45)" stroke="rgb(112,78,45)" stroke-width="1.51"></path><path d="M48,493L-44,498L106,512Z" fill="rgb(126,87,46)" stroke="rgb(126,87,46)" stroke-width="1.51"></path><path d="M340,-94L415,-99L259,-109Z" fill="rgb(207,140,94)" stroke="rgb(207,140,94)" stroke-width="1.51"></path><path d="M484,-38L415,-99L401,-36Z" fill="rgb(172,127,69)" stroke="rgb(172,127,69)" stroke-width="1.51"></path><path d="M-45,-20L-105,58L-43,52Z" fill="rgb(183,23,39)" stroke="rgb(183,23,39)" stroke-width="1.51"></path><path d="M555,490L564,431L481,428Z" fill="rgb(21,130,68)" stroke="rgb(21,130,68)" stroke-width="1.51"></path><path d="M259,-109L42,-111L101,-107Z" fill="rgb(206,75,55)" stroke="rgb(206,75,55)" stroke-width="1.51"></path><path d="M101,-107L42,-111L30,-23Z" fill="rgb(189,28,39)" stroke="rgb(189,28,39)" stroke-width="1.51"></path><path d="M567,269L636,264L562,203Z" fill="rgb(119,173,96)" stroke="rgb(119,173,96)" stroke-width="1.51"></path><path d="M563,136L634,60L554,42Z" fill="rgb(150,121,64)" stroke="rgb(150,121,64)" stroke-width="1.51"></path><path d="M625,342L636,264L567,269Z" fill="rgb(85,155,79)" stroke="rgb(85,155,79)" stroke-width="1.51"></path><path d="M625,342L567,269L569,342Z" fill="rgb(64,152,79)" stroke="rgb(64,152,79)" stroke-width="1.51"></path><path d="M631,423L625,342L569,342Z" fill="rgb(9,122,64)" stroke="rgb(9,122,64)" stroke-width="1.51"></path><path d="M636,264L639,195L562,203Z" fill="rgb(129,174,107)" stroke="rgb(129,174,107)" stroke-width="1.51"></path><path d="M-116,350L-124,436L-39,416Z" fill="rgb(112,78,45)" stroke="rgb(112,78,45)" stroke-width="1.51"></path><path d="M-125,128L-124,436L-116,350Z" fill="rgb(162,122,68)" stroke="rgb(162,122,68)" stroke-width="1.51"></path><path d="M564,431L631,423L569,342Z" fill="rgb(2,109,58)" stroke="rgb(2,109,58)" stroke-width="1.51"></path><path d="M490,498L555,490L481,428Z" fill="rgb(42,137,72)" stroke="rgb(42,137,72)" stroke-width="1.51"></path><path d="M484,-38L497,-92L415,-99Z" fill="rgb(159,121,67)" stroke="rgb(159,121,67)" stroke-width="1.51"></path><path d="M554,42L569,-14L482,38Z" fill="rgb(143,112,59)" stroke="rgb(143,112,59)" stroke-width="1.51"></path><path d="M634,60L569,-14L554,42Z" fill="rgb(133,95,49)" stroke="rgb(133,95,49)" stroke-width="1.51"></path><path d="M554,-92L497,-92L484,-38Z" fill="rgb(140,109,62)" stroke="rgb(140,109,62)" stroke-width="1.51"></path><path d="M42,-111L-37,-92L30,-23Z" fill="rgb(170,6,38)" stroke="rgb(170,6,38)" stroke-width="1.51"></path><path d="M-45,-20L-108,-31L-105,58Z" fill="rgb(166,2,38)" stroke="rgb(166,2,38)" stroke-width="1.51"></path><path d="M716,192L644,114L639,195Z" fill="rgb(141,166,99)" stroke="rgb(141,166,99)" stroke-width="1.51"></path><path d="M639,195L644,114L563,136Z" fill="rgb(142,157,90)" stroke="rgb(142,157,90)" stroke-width="1.51"></path><path d="M-37,-92L-108,-31L-45,-20Z" fill="rgb(165,0,38)" stroke="rgb(165,0,38)" stroke-width="1.51"></path><path d="M-105,58L-108,-31L-125,128Z" fill="rgb(194,41,43)" stroke="rgb(194,41,43)" stroke-width="1.51"></path><path d="M644,114L634,60L563,136Z" fill="rgb(145,130,69)" stroke="rgb(145,130,69)" stroke-width="1.51"></path><path d="M628,493L631,423L564,431Z" fill="rgb(0,104,55)" stroke="rgb(0,104,55)" stroke-width="1.51"></path><path d="M625,342L704,266L636,264Z" fill="rgb(86,156,79)" stroke="rgb(86,156,79)" stroke-width="1.51"></path><path d="M636,264L704,266L639,195Z" fill="rgb(119,169,95)" stroke="rgb(119,169,95)" stroke-width="1.51"></path><path d="M-44,498L-119,503L106,512Z" fill="rgb(112,78,45)" stroke="rgb(112,78,45)" stroke-width="1.51"></path><path d="M-124,436L-119,503L-44,498Z" fill="rgb(112,78,45)" stroke="rgb(112,78,45)" stroke-width="1.51"></path><path d="M631,-26L554,-92L569,-14Z" fill="rgb(116,84,48)" stroke="rgb(116,84,48)" stroke-width="1.51"></path><path d="M569,-14L554,-92L484,-38Z" fill="rgb(130,103,58)" stroke="rgb(130,103,58)" stroke-width="1.51"></path><path d="M497,-92L633,-106L415,-99Z" fill="rgb(138,108,61)" stroke="rgb(138,108,61)" stroke-width="1.51"></path><path d="M415,-99L633,-106L259,-109Z" fill="rgb(171,127,69)" stroke="rgb(171,127,69)" stroke-width="1.51"></path><path d="M555,490L628,493L564,431Z" fill="rgb(3,111,58)" stroke="rgb(3,111,58)" stroke-width="1.51"></path><path d="M490,498L628,493L555,490Z" fill="rgb(9,121,63)" stroke="rgb(9,121,63)" stroke-width="1.51"></path><path d="M719,508L628,493L490,498Z" fill="rgb(0,104,55)" stroke="rgb(0,104,55)" stroke-width="1.51"></path><path d="M702,421L625,342L631,423Z" fill="rgb(1,106,56)" stroke="rgb(1,106,56)" stroke-width="1.51"></path><path d="M725,362L704,266L625,342Z" fill="rgb(56,144,76)" stroke="rgb(56,144,76)" stroke-width="1.51"></path><path d="M712,57L631,-26L634,60Z" fill="rgb(130,89,46)" stroke="rgb(130,89,46)" stroke-width="1.51"></path><path d="M634,60L631,-26L569,-14Z" fill="rgb(116,81,45)" stroke="rgb(116,81,45)" stroke-width="1.51"></path><path d="M712,57L634,60L644,114Z" fill="rgb(145,113,59)" stroke="rgb(145,113,59)" stroke-width="1.51"></path><path d="M-37,-92L-116,-94L-108,-31Z" fill="rgb(165,0,38)" stroke="rgb(165,0,38)" stroke-width="1.51"></path><path d="M-108,-31L-116,-94L-125,128Z" fill="rgb(165,1,38)" stroke="rgb(165,1,38)" stroke-width="1.51"></path><path d="M42,-111L-116,-94L-37,-92Z" fill="rgb(165,0,38)" stroke="rgb(165,0,38)" stroke-width="1.51"></path><path d="M704,266L716,192L639,195Z" fill="rgb(130,174,109)" stroke="rgb(130,174,109)" stroke-width="1.51"></path><path d="M716,192L712,115L644,114Z" fill="rgb(143,153,85)" stroke="rgb(143,153,85)" stroke-width="1.51"></path><path d="M628,493L702,421L631,423Z" fill="rgb(0,104,55)" stroke="rgb(0,104,55)" stroke-width="1.51"></path><path d="M704,266L725,362L716,192Z" fill="rgb(99,161,82)" stroke="rgb(99,161,82)" stroke-width="1.51"></path><path d="M702,421L725,362L625,342Z" fill="rgb(7,119,62)" stroke="rgb(7,119,62)" stroke-width="1.51"></path><path d="M720,-38L712,57L712,115Z" fill="rgb(136,95,48)" stroke="rgb(136,95,48)" stroke-width="1.51"></path><path d="M712,115L712,57L644,114Z" fill="rgb(145,125,66)" stroke="rgb(145,125,66)" stroke-width="1.51"></path><path d="M720,-38L712,115L716,192Z" fill="rgb(146,121,64)" stroke="rgb(146,121,64)" stroke-width="1.51"></path><path d="M701,-89L633,-106L631,-26Z" fill="rgb(112,78,45)" stroke="rgb(112,78,45)" stroke-width="1.51"></path><path d="M631,-26L633,-106L554,-92Z" fill="rgb(112,78,45)" stroke="rgb(112,78,45)" stroke-width="1.51"></path><path d="M554,-92L633,-106L497,-92Z" fill="rgb(123,94,53)" stroke="rgb(123,94,53)" stroke-width="1.51"></path><path d="M259,-109L633,-106L42,-111Z" fill="rgb(215,143,104)" stroke="rgb(215,143,104)" stroke-width="1.51"></path><path d="M106,512L719,508L421,505Z" fill="rgb(96,160,81)" stroke="rgb(96,160,81)" stroke-width="1.51"></path><path d="M421,505L719,508L490,498Z" fill="rgb(12,126,67)" stroke="rgb(12,126,67)" stroke-width="1.51"></path><path d="M628,493L719,508L702,421Z" fill="rgb(0,104,55)" stroke="rgb(0,104,55)" stroke-width="1.51"></path><path d="M702,421L719,508L725,362Z" fill="rgb(0,104,55)" stroke="rgb(0,104,55)" stroke-width="1.51"></path><path d="M712,57L720,-38L631,-26Z" fill="rgb(112,78,45)" stroke="rgb(112,78,45)" stroke-width="1.51"></path><path d="M725,362L720,-38L716,192Z" fill="rgb(141,168,103)" stroke="rgb(141,168,103)" stroke-width="1.51"></path><path d="M720,-38L701,-89L631,-26Z" fill="rgb(112,78,45)" stroke="rgb(112,78,45)" stroke-width="1.51"></path></svg>