<svg width="600" height="400" xmlns="http://www.w3.org/2000/svg"><path d="M278,207L328,260L355,202Z" fill="rgb(141,134,190)" stroke="rgb(141,134,190)" stroke-width="1.51"></path><path d="M355,202L342,143L278,207Z" fill="rgb(144,149,197)" stroke="rgb(144,149,197)" stroke-width="1.51"></path><path d="M328,260L401,215L355,202Z" fill="rgb(141,122,184)" stroke="rgb(141,122,184)" stroke-width="1.51"></path><path d="M355,202L432,134L342,143Z" fill="rgb(149,144,195)" stroke="rgb(149,144,195)" stroke-width="1.51"></path><path d="M278,207L245,293L328,260Z" fill="rgb(143,131,189)" stroke="rgb(143,131,189)" stroke-width="1.51"></path><path d="M328,260L409,276L401,215Z" fill="rgb(140,106,176)" stroke="rgb(140,106,176)" stroke-width="1.51"></path><path d="M355,350L409,276L328,260Z" fill="rgb(139,92,169)" stroke="rgb(139,92,169)" stroke-width="1.51"></path><path d="M342,143L249,109L278,207Z" fill="rgb(150,170,209)" stroke="rgb(150,170,209)" stroke-width="1.51"></path><path d="M278,207L195,291L245,293Z" fill="rgb(149,139,193)" stroke="rgb(149,139,193)" stroke-width="1.51"></path><path d="M281,359L355,350L328,260Z" fill="rgb(140,95,167)" stroke="rgb(140,95,167)" stroke-width="1.51"></path><path d="M249,109L203,138L278,207Z" fill="rgb(156,183,215)" stroke="rgb(156,183,215)" stroke-width="1.51"></path><path d="M245,293L281,359L328,260Z" fill="rgb(143,112,178)" stroke="rgb(143,112,178)" stroke-width="1.51"></path><path d="M167,185L195,291L278,207Z" fill="rgb(153,159,203)" stroke="rgb(153,159,203)" stroke-width="1.51"></path><path d="M355,350L404,333L409,276Z" fill="rgb(138,76,158)" stroke="rgb(138,76,158)" stroke-width="1.51"></path><path d="M401,215L432,134L355,202Z" fill="rgb(144,129,188)" stroke="rgb(144,129,188)" stroke-width="1.51"></path><path d="M342,143L263,49L249,109Z" fill="rgb(168,184,216)" stroke="rgb(168,184,216)" stroke-width="1.51"></path><path d="M483,178L432,134L401,215Z" fill="rgb(146,121,184)" stroke="rgb(146,121,184)" stroke-width="1.51"></path><path d="M483,178L401,215L499,253Z" fill="rgb(140,100,172)" stroke="rgb(140,100,172)" stroke-width="1.51"></path><path d="M189,364L281,359L245,293Z" fill="rgb(149,112,172)" stroke="rgb(149,112,172)" stroke-width="1.51"></path><path d="M203,138L167,185L278,207Z" fill="rgb(156,179,213)" stroke="rgb(156,179,213)" stroke-width="1.51"></path><path d="M499,253L401,215L409,276Z" fill="rgb(139,91,169)" stroke="rgb(139,91,169)" stroke-width="1.51"></path><path d="M336,35L263,49L342,143Z" fill="rgb(174,182,215)" stroke="rgb(174,182,215)" stroke-width="1.51"></path><path d="M249,109L190,45L203,138Z" fill="rgb(178,201,226)" stroke="rgb(178,201,226)" stroke-width="1.51"></path><path d="M118,108L110,192L167,185Z" fill="rgb(177,198,223)" stroke="rgb(177,198,223)" stroke-width="1.51"></path><path d="M490,370L499,253L409,276Z" fill="rgb(136,61,153)" stroke="rgb(136,61,153)" stroke-width="1.51"></path><path d="M398,40L336,35L342,143Z" fill="rgb(176,170,210)" stroke="rgb(176,170,210)" stroke-width="1.51"></path><path d="M398,40L342,143L432,134Z" fill="rgb(165,153,201)" stroke="rgb(165,153,201)" stroke-width="1.51"></path><path d="M195,291L189,364L245,293Z" fill="rgb(154,125,183)" stroke="rgb(154,125,183)" stroke-width="1.51"></path><path d="M128,335L189,364L195,291Z" fill="rgb(161,126,181)" stroke="rgb(161,126,181)" stroke-width="1.51"></path><path d="M497,29L398,40L432,134Z" fill="rgb(177,148,199)" stroke="rgb(177,148,199)" stroke-width="1.51"></path><path d="M167,185L124,274L195,291Z" fill="rgb(164,156,202)" stroke="rgb(164,156,202)" stroke-width="1.51"></path><path d="M483,178L508,136L432,134Z" fill="rgb(151,123,182)" stroke="rgb(151,123,182)" stroke-width="1.51"></path><path d="M555,214L508,136L483,178Z" fill="rgb(145,104,167)" stroke="rgb(145,104,167)" stroke-width="1.51"></path><path d="M167,185L110,192L124,274Z" fill="rgb(170,175,212)" stroke="rgb(170,175,212)" stroke-width="1.51"></path><path d="M118,108L167,185L203,138Z" fill="rgb(174,199,224)" stroke="rgb(174,199,224)" stroke-width="1.51"></path><path d="M404,333L490,370L409,276Z" fill="rgb(135,59,150)" stroke="rgb(135,59,150)" stroke-width="1.51"></path><path d="M355,350L422,433L404,333Z" fill="rgb(124,59,136)" stroke="rgb(124,59,136)" stroke-width="1.51"></path><path d="M281,359L356,427L355,350Z" fill="rgb(123,77,141)" stroke="rgb(123,77,141)" stroke-width="1.51"></path><path d="M248,426L356,427L281,359Z" fill="rgb(112,82,135)" stroke="rgb(112,82,135)" stroke-width="1.51"></path><path d="M263,49L190,45L249,109Z" fill="rgb(184,205,228)" stroke="rgb(184,205,228)" stroke-width="1.51"></path><path d="M249,-9L190,45L263,49Z" fill="rgb(195,213,232)" stroke="rgb(195,213,232)" stroke-width="1.51"></path><path d="M189,364L248,426L281,359Z" fill="rgb(130,99,150)" stroke="rgb(130,99,150)" stroke-width="1.51"></path><path d="M189,364L205,432L248,426Z" fill="rgb(124,99,144)" stroke="rgb(124,99,144)" stroke-width="1.51"></path><path d="M124,274L128,335L195,291Z" fill="rgb(166,139,193)" stroke="rgb(166,139,193)" stroke-width="1.51"></path><path d="M31,291L128,335L124,274Z" fill="rgb(178,147,198)" stroke="rgb(178,147,198)" stroke-width="1.51"></path><path d="M190,45L118,108L203,138Z" fill="rgb(188,208,229)" stroke="rgb(188,208,229)" stroke-width="1.51"></path><path d="M422,433L490,370L404,333Z" fill="rgb(118,43,127)" stroke="rgb(118,43,127)" stroke-width="1.51"></path><path d="M499,253L555,214L483,178Z" fill="rgb(139,88,160)" stroke="rgb(139,88,160)" stroke-width="1.51"></path><path d="M559,346L546,265L499,253Z" fill="rgb(130,50,139)" stroke="rgb(130,50,139)" stroke-width="1.51"></path><path d="M356,427L422,433L355,350Z" fill="rgb(109,57,124)" stroke="rgb(109,57,124)" stroke-width="1.51"></path><path d="M402,504L422,433L356,427Z" fill="rgb(108,53,122)" stroke="rgb(108,53,122)" stroke-width="1.51"></path><path d="M546,265L555,214L499,253Z" fill="rgb(134,71,148)" stroke="rgb(134,71,148)" stroke-width="1.51"></path><path d="M336,35L249,-9L263,49Z" fill="rgb(190,201,225)" stroke="rgb(190,201,225)" stroke-width="1.51"></path><path d="M190,45L111,32L118,108Z" fill="rgb(206,222,236)" stroke="rgb(206,222,236)" stroke-width="1.51"></path><path d="M346,-28L249,-9L336,35Z" fill="rgb(193,197,224)" stroke="rgb(193,197,224)" stroke-width="1.51"></path><path d="M132,440L205,432L189,364Z" fill="rgb(132,105,147)" stroke="rgb(132,105,147)" stroke-width="1.51"></path><path d="M248,426L280,478L356,427Z" fill="rgb(112,82,135)" stroke="rgb(112,82,135)" stroke-width="1.51"></path><path d="M398,40L346,-28L336,35Z" fill="rgb(190,180,215)" stroke="rgb(190,180,215)" stroke-width="1.51"></path><path d="M405,-27L346,-28L398,40Z" fill="rgb(194,175,214)" stroke="rgb(194,175,214)" stroke-width="1.51"></path><path d="M206,506L280,478L248,426Z" fill="rgb(119,93,141)" stroke="rgb(119,93,141)" stroke-width="1.51"></path><path d="M490,370L559,346L499,253Z" fill="rgb(132,36,135)" stroke="rgb(132,36,135)" stroke-width="1.51"></path><path d="M422,433L503,404L490,370Z" fill="rgb(105,29,110)" stroke="rgb(105,29,110)" stroke-width="1.51"></path><path d="M497,29L405,-27L398,40Z" fill="rgb(190,160,205)" stroke="rgb(190,160,205)" stroke-width="1.51"></path><path d="M508,136L497,29L432,134Z" fill="rgb(166,132,187)" stroke="rgb(166,132,187)" stroke-width="1.51"></path><path d="M573,105L497,29L508,136Z" fill="rgb(168,124,177)" stroke="rgb(168,124,177)" stroke-width="1.51"></path><path d="M249,-9L203,-17L190,45Z" fill="rgb(204,220,236)" stroke="rgb(204,220,236)" stroke-width="1.51"></path><path d="M193,-89L203,-17L249,-9Z" fill="rgb(205,221,236)" stroke="rgb(205,221,236)" stroke-width="1.51"></path><path d="M503,404L559,346L490,370Z" fill="rgb(117,15,114)" stroke="rgb(117,15,114)" stroke-width="1.51"></path><path d="M546,265L633,211L555,214Z" fill="rgb(119,70,136)" stroke="rgb(119,70,136)" stroke-width="1.51"></path><path d="M203,-17L111,32L190,45Z" fill="rgb(211,225,238)" stroke="rgb(211,225,238)" stroke-width="1.51"></path><path d="M48,109L32,220L110,192Z" fill="rgb(189,203,227)" stroke="rgb(189,203,227)" stroke-width="1.51"></path><path d="M280,478L334,499L356,427Z" fill="rgb(111,73,131)" stroke="rgb(111,73,131)" stroke-width="1.51"></path><path d="M422,433L485,487L503,404Z" fill="rgb(106,29,110)" stroke="rgb(106,29,110)" stroke-width="1.51"></path><path d="M633,211L573,105L555,214Z" fill="rgb(122,91,143)" stroke="rgb(122,91,143)" stroke-width="1.51"></path><path d="M555,214L573,105L508,136Z" fill="rgb(142,107,162)" stroke="rgb(142,107,162)" stroke-width="1.51"></path><path d="M48,109L110,192L118,108Z" fill="rgb(192,212,231)" stroke="rgb(192,212,231)" stroke-width="1.51"></path><path d="M110,192L32,220L124,274Z" fill="rgb(180,177,213)" stroke="rgb(180,177,213)" stroke-width="1.51"></path><path d="M128,335L132,440L189,364Z" fill="rgb(148,114,160)" stroke="rgb(148,114,160)" stroke-width="1.51"></path><path d="M205,432L206,506L248,426Z" fill="rgb(123,99,144)" stroke="rgb(123,99,144)" stroke-width="1.51"></path><path d="M280,478L206,506L334,499Z" fill="rgb(116,86,137)" stroke="rgb(116,86,137)" stroke-width="1.51"></path><path d="M44,355L132,440L128,335Z" fill="rgb(160,122,166)" stroke="rgb(160,122,166)" stroke-width="1.51"></path><path d="M111,32L48,109L118,108Z" fill="rgb(209,224,238)" stroke="rgb(209,224,238)" stroke-width="1.51"></path><path d="M32,220L31,291L124,274Z" fill="rgb(184,167,209)" stroke="rgb(184,167,209)" stroke-width="1.51"></path><path d="M334,499L402,504L356,427Z" fill="rgb(110,61,126)" stroke="rgb(110,61,126)" stroke-width="1.51"></path><path d="M582,-12L502,-19L497,29Z" fill="rgb(191,140,187)" stroke="rgb(191,140,187)" stroke-width="1.51"></path><path d="M497,29L502,-19L405,-27Z" fill="rgb(193,153,201)" stroke="rgb(193,153,201)" stroke-width="1.51"></path><path d="M31,291L44,355L128,335Z" fill="rgb(183,142,191)" stroke="rgb(183,142,191)" stroke-width="1.51"></path><path d="M132,440L206,506L205,432Z" fill="rgb(130,104,147)" stroke="rgb(130,104,147)" stroke-width="1.51"></path><path d="M334,499L206,506L402,504Z" fill="rgb(111,76,132)" stroke="rgb(111,76,132)" stroke-width="1.51"></path><path d="M573,105L580,57L497,29Z" fill="rgb(167,125,172)" stroke="rgb(167,125,172)" stroke-width="1.51"></path><path d="M643,70L580,57L573,105Z" fill="rgb(144,113,153)" stroke="rgb(144,113,153)" stroke-width="1.51"></path><path d="M402,504L485,487L422,433Z" fill="rgb(107,39,117)" stroke="rgb(107,39,117)" stroke-width="1.51"></path><path d="M503,404L567,424L559,346Z" fill="rgb(101,5,97)" stroke="rgb(101,5,97)" stroke-width="1.51"></path><path d="M655,284L633,211L546,265Z" fill="rgb(109,56,124)" stroke="rgb(109,56,124)" stroke-width="1.51"></path><path d="M655,284L546,265L559,346Z" fill="rgb(111,38,119)" stroke="rgb(111,38,119)" stroke-width="1.51"></path><path d="M468,-80L414,-85L405,-27Z" fill="rgb(194,163,208)" stroke="rgb(194,163,208)" stroke-width="1.51"></path><path d="M405,-27L414,-85L346,-28Z" fill="rgb(194,174,213)" stroke="rgb(194,174,213)" stroke-width="1.51"></path><path d="M346,-28L281,-109L249,-9Z" fill="rgb(195,202,226)" stroke="rgb(195,202,226)" stroke-width="1.51"></path><path d="M485,487L567,424L503,404Z" fill="rgb(103,9,100)" stroke="rgb(103,9,100)" stroke-width="1.51"></path><path d="M111,32L55,30L48,109Z" fill="rgb(222,234,243)" stroke="rgb(222,234,243)" stroke-width="1.51"></path><path d="M-34,185L-19,258L32,220Z" fill="rgb(194,190,221)" stroke="rgb(194,190,221)" stroke-width="1.51"></path><path d="M108,-38L55,30L111,32Z" fill="rgb(230,240,246)" stroke="rgb(230,240,246)" stroke-width="1.51"></path><path d="M108,-38L111,32L203,-17Z" fill="rgb(221,233,242)" stroke="rgb(221,233,242)" stroke-width="1.51"></path><path d="M358,-117L281,-109L346,-28Z" fill="rgb(194,191,221)" stroke="rgb(194,191,221)" stroke-width="1.51"></path><path d="M193,-89L108,-38L203,-17Z" fill="rgb(215,228,240)" stroke="rgb(215,228,240)" stroke-width="1.51"></path><path d="M281,-109L193,-89L249,-9Z" fill="rgb(201,215,233)" stroke="rgb(201,215,233)" stroke-width="1.51"></path><path d="M414,-85L358,-117L346,-28Z" fill="rgb(194,178,215)" stroke="rgb(194,178,215)" stroke-width="1.51"></path><path d="M502,-19L468,-80L405,-27Z" fill="rgb(193,156,203)" stroke="rgb(193,156,203)" stroke-width="1.51"></path><path d="M546,-119L468,-80L502,-19Z" fill="rgb(192,145,192)" stroke="rgb(192,145,192)" stroke-width="1.51"></path><path d="M31,291L-31,369L44,355Z" fill="rgb(190,143,191)" stroke="rgb(190,143,191)" stroke-width="1.51"></path><path d="M32,220L-19,258L31,291Z" fill="rgb(192,174,212)" stroke="rgb(192,174,212)" stroke-width="1.51"></path><path d="M-17,139L32,220L48,109Z" fill="rgb(199,215,233)" stroke="rgb(199,215,233)" stroke-width="1.51"></path><path d="M546,-119L358,-117L414,-85Z" fill="rgb(194,160,206)" stroke="rgb(194,160,206)" stroke-width="1.51"></path><path d="M649,334L655,284L559,346Z" fill="rgb(105,25,108)" stroke="rgb(105,25,108)" stroke-width="1.51"></path><path d="M-24,29L-17,139L48,109Z" fill="rgb(221,233,242)" stroke="rgb(221,233,242)" stroke-width="1.51"></path><path d="M580,57L582,-12L497,29Z" fill="rgb(175,131,175)" stroke="rgb(175,131,175)" stroke-width="1.51"></path><path d="M633,211L648,119L573,105Z" fill="rgb(123,99,144)" stroke="rgb(123,99,144)" stroke-width="1.51"></path><path d="M713,188L648,119L633,211Z" fill="rgb(117,90,139)" stroke="rgb(117,90,139)" stroke-width="1.51"></path><path d="M567,424L649,334L559,346Z" fill="rgb(96,4,93)" stroke="rgb(96,4,93)" stroke-width="1.51"></path><path d="M643,70L582,-12L580,57Z" fill="rgb(154,121,157)" stroke="rgb(154,121,157)" stroke-width="1.51"></path><path d="M-17,139L-34,185L32,220Z" fill="rgb(197,207,229)" stroke="rgb(197,207,229)" stroke-width="1.51"></path><path d="M132,440L112,513L206,506Z" fill="rgb(137,108,149)" stroke="rgb(137,108,149)" stroke-width="1.51"></path><path d="M206,506L112,513L402,504Z" fill="rgb(120,94,142)" stroke="rgb(120,94,142)" stroke-width="1.51"></path><path d="M23,494L112,513L132,440Z" fill="rgb(149,117,154)" stroke="rgb(149,117,154)" stroke-width="1.51"></path><path d="M19,422L132,440L44,355Z" fill="rgb(153,120,156)" stroke="rgb(153,120,156)" stroke-width="1.51"></path><path d="M648,119L643,70L573,105Z" fill="rgb(137,109,150)" stroke="rgb(137,109,150)" stroke-width="1.51"></path><path d="M-31,369L19,422L44,355Z" fill="rgb(171,130,169)" stroke="rgb(171,130,169)" stroke-width="1.51"></path><path d="M485,487L555,506L567,424Z" fill="rgb(99,4,96)" stroke="rgb(99,4,96)" stroke-width="1.51"></path><path d="M567,424L656,439L649,334Z" fill="rgb(77,0,75)" stroke="rgb(77,0,75)" stroke-width="1.51"></path><path d="M402,504L555,506L485,487Z" fill="rgb(105,25,108)" stroke="rgb(105,25,108)" stroke-width="1.51"></path><path d="M641,520L555,506L402,504Z" fill="rgb(100,5,97)" stroke="rgb(100,5,97)" stroke-width="1.51"></path><path d="M-19,258L-31,369L31,291Z" fill="rgb(193,155,203)" stroke="rgb(193,155,203)" stroke-width="1.51"></path><path d="M-104,288L-31,369L-19,258Z" fill="rgb(193,156,203)" stroke="rgb(193,156,203)" stroke-width="1.51"></path><path d="M655,284L701,280L633,211Z" fill="rgb(109,54,123)" stroke="rgb(109,54,123)" stroke-width="1.51"></path><path d="M648,119L699,66L643,70Z" fill="rgb(141,111,151)" stroke="rgb(141,111,151)" stroke-width="1.51"></path><path d="M649,334L701,280L655,284Z" fill="rgb(106,36,115)" stroke="rgb(106,36,115)" stroke-width="1.51"></path><path d="M727,338L701,280L649,334Z" fill="rgb(105,27,109)" stroke="rgb(105,27,109)" stroke-width="1.51"></path><path d="M55,30L-24,29L48,109Z" fill="rgb(230,239,246)" stroke="rgb(230,239,246)" stroke-width="1.51"></path><path d="M-17,139L-100,191L-34,185Z" fill="rgb(199,211,231)" stroke="rgb(199,211,231)" stroke-width="1.51"></path><path d="M108,-38L30,-43L55,30Z" fill="rgb(237,245,249)" stroke="rgb(237,245,249)" stroke-width="1.51"></path><path d="M99,-120L30,-43L108,-38Z" fill="rgb(235,243,248)" stroke="rgb(235,243,248)" stroke-width="1.51"></path><path d="M30,-43L-24,29L55,30Z" fill="rgb(243,249,252)" stroke="rgb(243,249,252)" stroke-width="1.51"></path><path d="M701,280L713,188L633,211Z" fill="rgb(111,69,129)" stroke="rgb(111,69,129)" stroke-width="1.51"></path><path d="M-31,422L23,494L19,422Z" fill="rgb(162,126,160)" stroke="rgb(162,126,160)" stroke-width="1.51"></path><path d="M19,422L23,494L132,440Z" fill="rgb(154,121,157)" stroke="rgb(154,121,157)" stroke-width="1.51"></path><path d="M-112,411L-31,422L-31,369Z" fill="rgb(162,126,160)" stroke="rgb(162,126,160)" stroke-width="1.51"></path><path d="M-31,369L-31,422L19,422Z" fill="rgb(162,126,160)" stroke="rgb(162,126,160)" stroke-width="1.51"></path><path d="M641,520L656,439L567,424Z" fill="rgb(77,0,75)" stroke="rgb(77,0,75)" stroke-width="1.51"></path><path d="M358,-117L99,-120L281,-109Z" fill="rgb(200,214,232)" stroke="rgb(200,214,232)" stroke-width="1.51"></path><path d="M281,-109L99,-120L193,-89Z" fill="rgb(210,225,238)" stroke="rgb(210,225,238)" stroke-width="1.51"></path><path d="M193,-89L99,-120L108,-38Z" fill="rgb(223,234,243)" stroke="rgb(223,234,243)" stroke-width="1.51"></path><path d="M358,-117L546,-119L99,-120Z" fill="rgb(194,189,220)" stroke="rgb(194,189,220)" stroke-width="1.51"></path><path d="M468,-80L546,-119L414,-85Z" fill="rgb(193,151,198)" stroke="rgb(193,151,198)" stroke-width="1.51"></path><path d="M582,-12L546,-119L502,-19Z" fill="rgb(184,137,181)" stroke="rgb(184,137,181)" stroke-width="1.51"></path><path d="M622,-99L546,-119L582,-12Z" fill="rgb(168,129,166)" stroke="rgb(168,129,166)" stroke-width="1.51"></path><path d="M644,-40L582,-12L643,70Z" fill="rgb(161,125,160)" stroke="rgb(161,125,160)" stroke-width="1.51"></path><path d="M719,119L699,66L648,119Z" fill="rgb(136,108,149)" stroke="rgb(136,108,149)" stroke-width="1.51"></path><path d="M713,188L719,119L648,119Z" fill="rgb(124,100,144)" stroke="rgb(124,100,144)" stroke-width="1.51"></path><path d="M699,66L644,-40L643,70Z" fill="rgb(155,122,157)" stroke="rgb(155,122,157)" stroke-width="1.51"></path><path d="M-34,185L-100,191L-19,258Z" fill="rgb(194,194,223)" stroke="rgb(194,194,223)" stroke-width="1.51"></path><path d="M-108,104L-100,191L-17,139Z" fill="rgb(205,221,236)" stroke="rgb(205,221,236)" stroke-width="1.51"></path><path d="M99,-120L17,-82L30,-43Z" fill="rgb(240,247,250)" stroke="rgb(240,247,250)" stroke-width="1.51"></path><path d="M30,-43L-52,-34L-24,29Z" fill="rgb(247,252,253)" stroke="rgb(247,252,253)" stroke-width="1.51"></path><path d="M-24,29L-108,104L-17,139Z" fill="rgb(222,234,243)" stroke="rgb(222,234,243)" stroke-width="1.51"></path><path d="M702,441L727,338L649,334Z" fill="rgb(92,3,89)" stroke="rgb(92,3,89)" stroke-width="1.51"></path><path d="M701,280L727,338L713,188Z" fill="rgb(108,50,121)" stroke="rgb(108,50,121)" stroke-width="1.51"></path><path d="M713,188L727,338L719,119Z" fill="rgb(111,73,131)" stroke="rgb(111,73,131)" stroke-width="1.51"></path><path d="M-100,191L-104,288L-19,258Z" fill="rgb(194,180,216)" stroke="rgb(194,180,216)" stroke-width="1.51"></path><path d="M699,-106L622,-99L644,-40Z" fill="rgb(162,126,160)" stroke="rgb(162,126,160)" stroke-width="1.51"></path><path d="M644,-40L622,-99L582,-12Z" fill="rgb(162,126,160)" stroke="rgb(162,126,160)" stroke-width="1.51"></path><path d="M-100,191L-124,51L-104,288Z" fill="rgb(198,209,230)" stroke="rgb(198,209,230)" stroke-width="1.51"></path><path d="M-124,51L-108,104L-24,29Z" fill="rgb(232,241,247)" stroke="rgb(232,241,247)" stroke-width="1.51"></path><path d="M656,439L702,441L649,334Z" fill="rgb(77,0,75)" stroke="rgb(77,0,75)" stroke-width="1.51"></path><path d="M555,506L641,520L567,424Z" fill="rgb(81,0,79)" stroke="rgb(81,0,79)" stroke-width="1.51"></path><path d="M112,513L641,520L402,504Z" fill="rgb(109,55,123)" stroke="rgb(109,55,123)" stroke-width="1.51"></path><path d="M-104,288L-104,353L-31,369Z" fill="rgb(192,145,192)" stroke="rgb(192,145,192)" stroke-width="1.51"></path><path d="M-31,422L-55,503L23,494Z" fill="rgb(162,126,160)" stroke="rgb(162,126,160)" stroke-width="1.51"></path><path d="M-112,411L-104,353L-104,288Z" fill="rgb(191,140,187)" stroke="rgb(191,140,187)" stroke-width="1.51"></path><path d="M719,490L702,441L656,439Z" fill="rgb(77,0,75)" stroke="rgb(77,0,75)" stroke-width="1.51"></path><path d="M17,-82L-52,-34L30,-43Z" fill="rgb(247,252,253)" stroke="rgb(247,252,253)" stroke-width="1.51"></path><path d="M-112,411L-55,503L-31,422Z" fill="rgb(162,126,160)" stroke="rgb(162,126,160)" stroke-width="1.51"></path><path d="M23,494L-55,503L112,513Z" fill="rgb(158,124,159)" stroke="rgb(158,124,159)" stroke-width="1.51"></path><path d="M-104,353L-112,411L-31,369Z" fill="rgb(175,133,172)" stroke="rgb(175,133,172)" stroke-width="1.51"></path><path d="M-133,512L-112,411L-104,288Z" fill="rgb(162,126,160)" stroke="rgb(162,126,160)" stroke-width="1.51"></path><path d="M17,-82L-17,-113L-52,-34Z" fill="rgb(247,252,253)" stroke="rgb(247,252,253)" stroke-width="1.51"></path><path d="M99,-120L-17,-113L17,-82Z" fill="rgb(242,248,251)" stroke="rgb(242,248,251)" stroke-width="1.51"></path><path d="M-108,104L-124,51L-100,191Z" fill="rgb(214,228,239)" stroke="rgb(214,228,239)" stroke-width="1.51"></path><path d="M-129,-4L-124,51L-24,29Z" fill="rgb(241,248,250)" stroke="rgb(241,248,250)" stroke-width="1.51"></path><path d="M-129,-4L-24,29L-52,-34Z" fill="rgb(247,252,253)" stroke="rgb(247,252,253)" stroke-width="1.51"></path><path d="M699,66L732,-8L644,-40Z" fill="rgb(161,125,160)" stroke="rgb(161,125,160)" stroke-width="1.51"></path><path d="M719,119L732,-8L699,66Z" fill="rgb(149,117,154)" stroke="rgb(149,117,154)" stroke-width="1.51"></path><path d="M727,338L732,-8L719,119Z" fill="rgb(122,98,143)" stroke="rgb(122,98,143)" stroke-width="1.51"></path><path d="M641,520L719,490L656,439Z" fill="rgb(77,0,75)" stroke="rgb(77,0,75)" stroke-width="1.51"></path><path d="M702,441L719,490L727,338Z" fill="rgb(77,0,75)" stroke="rgb(77,0,75)" stroke-width="1.51"></path><path d="M-124,51L-133,512L-104,288Z" fill="rgb(194,164,208)" stroke="rgb(194,164,208)" stroke-width="1.51"></path><path d="M-125,-114L-129,-4L-52,-34Z" fill="rgb(247,252,253)" stroke="rgb(247,252,253)" stroke-width="1.51"></path><path d="M732,-8L699,-106L644,-40Z" fill="rgb(162,126,160)" stroke="rgb(162,126,160)" stroke-width="1.51"></path><path d="M622,-99L699,-106L546,-119Z" fill="rgb(162,126,160)" stroke="rgb(162,126,160)" stroke-width="1.51"></path><path d="M-55,503L-133,512L112,513Z" fill="rgb(162,126,160)" stroke="rgb(162,126,160)" stroke-width="1.51"></path><path d="M112,513L-133,512L641,520Z" fill="rgb(125,101,145)" stroke="rgb(125,101,145)" stroke-width="1.51"></path><path d="M-112,411L-133,512L-55,503Z" fill="rgb(162,126,160)" stroke="rgb(162,126,160)" stroke-width="1.51"></path><path d="M-129,-4L-133,512L-124,51Z" fill="rgb(196,205,228)" stroke="rgb(196,205,228)" stroke-width="1.51"></path><path d="M-17,-113L-125,-114L-52,-34Z" fill="rgb(247,252,253)" stroke="rgb(247,252,253)" stroke-width="1.51"></path><path d="M99,-120L-125,-114L-17,-113Z" fill="rgb(247,252,253)" stroke="rgb(247,252,253)" stroke-width="1.51"></path></svg>