<svg width="600" height="400" xmlns="http://www.w3.org/2000/svg"><path d="M262,200L187,125L187,200Z" fill="rgb(154,214,148)" stroke="rgb(154,214,148)" stroke-width="1.51"></path><path d="M262,200L262,125L187,125Z" fill="rgb(158,216,152)" stroke="rgb(158,216,152)" stroke-width="1.51"></path><path d="M187,125L112,125L187,200Z" fill="rgb(177,224,170)" stroke="rgb(177,224,170)" stroke-width="1.51"></path><path d="M112,125L112,200L187,200Z" fill="rgb(172,221,167)" stroke="rgb(172,221,167)" stroke-width="1.51"></path><path d="M262,125L187,50L187,125Z" fill="rgb(184,227,176)" stroke="rgb(184,227,176)" stroke-width="1.51"></path><path d="M187,125L187,50L112,125Z" fill="rgb(196,232,189)" stroke="rgb(196,232,189)" stroke-width="1.51"></path><path d="M187,200L187,275L262,200Z" fill="rgb(131,202,133)" stroke="rgb(131,202,133)" stroke-width="1.51"></path><path d="M112,200L187,275L187,200Z" fill="rgb(144,207,145)" stroke="rgb(144,207,145)" stroke-width="1.51"></path><path d="M262,125L262,50L187,50Z" fill="rgb(184,227,178)" stroke="rgb(184,227,178)" stroke-width="1.51"></path><path d="M187,275L262,275L262,200Z" fill="rgb(112,193,121)" stroke="rgb(112,193,121)" stroke-width="1.51"></path><path d="M262,125L337,125L262,50Z" fill="rgb(162,217,158)" stroke="rgb(162,217,158)" stroke-width="1.51"></path><path d="M262,200L337,125L262,125Z" fill="rgb(143,209,139)" stroke="rgb(143,209,139)" stroke-width="1.51"></path><path d="M337,200L337,125L262,200Z" fill="rgb(124,200,125)" stroke="rgb(124,200,125)" stroke-width="1.51"></path><path d="M262,275L337,200L262,200Z" fill="rgb(108,191,114)" stroke="rgb(108,191,114)" stroke-width="1.51"></path><path d="M187,50L112,50L112,125Z" fill="rgb(209,237,203)" stroke="rgb(209,237,203)" stroke-width="1.51"></path><path d="M112,200L112,275L187,275Z" fill="rgb(139,203,145)" stroke="rgb(139,203,145)" stroke-width="1.51"></path><path d="M337,125L337,50L262,50Z" fill="rgb(163,216,160)" stroke="rgb(163,216,160)" stroke-width="1.51"></path><path d="M262,275L337,275L337,200Z" fill="rgb(88,181,103)" stroke="rgb(88,181,103)" stroke-width="1.51"></path><path d="M112,125L37,125L112,200Z" fill="rgb(193,230,187)" stroke="rgb(193,230,187)" stroke-width="1.51"></path><path d="M112,200L37,200L112,275Z" fill="rgb(160,213,161)" stroke="rgb(160,213,161)" stroke-width="1.51"></path><path d="M112,50L37,125L112,125Z" fill="rgb(212,238,205)" stroke="rgb(212,238,205)" stroke-width="1.51"></path><path d="M37,125L37,200L112,200Z" fill="rgb(186,227,181)" stroke="rgb(186,227,181)" stroke-width="1.51"></path><path d="M187,50L187,-25L112,50Z" fill="rgb(216,240,210)" stroke="rgb(216,240,210)" stroke-width="1.51"></path><path d="M262,50L187,-25L187,50Z" fill="rgb(203,235,197)" stroke="rgb(203,235,197)" stroke-width="1.51"></path><path d="M262,-25L187,-25L262,50Z" fill="rgb(201,233,196)" stroke="rgb(201,233,196)" stroke-width="1.51"></path><path d="M187,275L187,350L262,275Z" fill="rgb(107,179,114)" stroke="rgb(107,179,114)" stroke-width="1.51"></path><path d="M262,275L262,350L337,275Z" fill="rgb(83,169,96)" stroke="rgb(83,169,96)" stroke-width="1.51"></path><path d="M112,275L187,350L187,275Z" fill="rgb(120,184,126)" stroke="rgb(120,184,126)" stroke-width="1.51"></path><path d="M337,50L262,-25L262,50Z" fill="rgb(182,225,178)" stroke="rgb(182,225,178)" stroke-width="1.51"></path><path d="M187,350L262,350L262,275Z" fill="rgb(93,168,101)" stroke="rgb(93,168,101)" stroke-width="1.51"></path><path d="M412,200L412,125L337,200Z" fill="rgb(102,186,112)" stroke="rgb(102,186,112)" stroke-width="1.51"></path><path d="M337,200L412,125L337,125Z" fill="rgb(120,196,126)" stroke="rgb(120,196,126)" stroke-width="1.51"></path><path d="M337,125L412,125L337,50Z" fill="rgb(140,204,144)" stroke="rgb(140,204,144)" stroke-width="1.51"></path><path d="M337,275L412,200L337,200Z" fill="rgb(84,179,101)" stroke="rgb(84,179,101)" stroke-width="1.51"></path><path d="M112,50L37,50L37,125Z" fill="rgb(223,243,218)" stroke="rgb(223,243,218)" stroke-width="1.51"></path><path d="M112,-25L37,50L112,50Z" fill="rgb(231,246,226)" stroke="rgb(231,246,226)" stroke-width="1.51"></path><path d="M112,275L112,350L187,350Z" fill="rgb(120,179,124)" stroke="rgb(120,179,124)" stroke-width="1.51"></path><path d="M37,200L37,275L112,275Z" fill="rgb(154,209,159)" stroke="rgb(154,209,159)" stroke-width="1.51"></path><path d="M187,-25L112,-25L112,50Z" fill="rgb(226,244,221)" stroke="rgb(226,244,221)" stroke-width="1.51"></path><path d="M37,275L112,350L112,275Z" fill="rgb(136,191,141)" stroke="rgb(136,191,141)" stroke-width="1.51"></path><path d="M412,50L337,-25L337,50Z" fill="rgb(160,212,164)" stroke="rgb(160,212,164)" stroke-width="1.51"></path><path d="M337,50L337,-25L262,-25Z" fill="rgb(180,223,178)" stroke="rgb(180,223,178)" stroke-width="1.51"></path><path d="M262,350L337,350L337,275Z" fill="rgb(68,157,84)" stroke="rgb(68,157,84)" stroke-width="1.51"></path><path d="M337,275L412,275L412,200Z" fill="rgb(63,168,91)" stroke="rgb(63,168,91)" stroke-width="1.51"></path><path d="M412,125L412,50L337,50Z" fill="rgb(142,203,147)" stroke="rgb(142,203,147)" stroke-width="1.51"></path><path d="M337,350L412,275L337,275Z" fill="rgb(56,157,83)" stroke="rgb(56,157,83)" stroke-width="1.51"></path><path d="M37,125L-38,125L37,200Z" fill="rgb(203,234,198)" stroke="rgb(203,234,198)" stroke-width="1.51"></path><path d="M37,200L-38,200L37,275Z" fill="rgb(171,217,172)" stroke="rgb(171,217,172)" stroke-width="1.51"></path><path d="M37,50L-38,125L37,125Z" fill="rgb(222,242,217)" stroke="rgb(222,242,217)" stroke-width="1.51"></path><path d="M-38,125L-38,200L37,200Z" fill="rgb(194,230,190)" stroke="rgb(194,230,190)" stroke-width="1.51"></path><path d="M37,50L-38,50L-38,125Z" fill="rgb(231,246,226)" stroke="rgb(231,246,226)" stroke-width="1.51"></path><path d="M112,-25L37,-25L37,50Z" fill="rgb(240,249,236)" stroke="rgb(240,249,236)" stroke-width="1.51"></path><path d="M37,275L37,350L112,350Z" fill="rgb(134,184,139)" stroke="rgb(134,184,139)" stroke-width="1.51"></path><path d="M-38,275L37,350L37,275Z" fill="rgb(146,195,152)" stroke="rgb(146,195,152)" stroke-width="1.51"></path><path d="M187,-25L187,-100L112,-25Z" fill="rgb(220,241,215)" stroke="rgb(220,241,215)" stroke-width="1.51"></path><path d="M112,-25L112,-100L37,-25Z" fill="rgb(236,248,232)" stroke="rgb(236,248,232)" stroke-width="1.51"></path><path d="M262,-25L187,-100L187,-25Z" fill="rgb(208,236,203)" stroke="rgb(208,236,203)" stroke-width="1.51"></path><path d="M262,-100L187,-100L262,-25Z" fill="rgb(201,233,196)" stroke="rgb(201,233,196)" stroke-width="1.51"></path><path d="M187,350L187,425L262,350Z" fill="rgb(91,152,95)" stroke="rgb(91,152,95)" stroke-width="1.51"></path><path d="M262,350L262,425L337,350Z" fill="rgb(68,142,78)" stroke="rgb(68,142,78)" stroke-width="1.51"></path><path d="M112,350L187,425L187,350Z" fill="rgb(104,157,107)" stroke="rgb(104,157,107)" stroke-width="1.51"></path><path d="M112,425L187,425L112,350Z" fill="rgb(104,148,107)" stroke="rgb(104,148,107)" stroke-width="1.51"></path><path d="M337,-25L262,-100L262,-25Z" fill="rgb(187,226,184)" stroke="rgb(187,226,184)" stroke-width="1.51"></path><path d="M187,425L262,425L262,350Z" fill="rgb(79,138,84)" stroke="rgb(79,138,84)" stroke-width="1.51"></path><path d="M412,50L412,-25L337,-25Z" fill="rgb(159,210,165)" stroke="rgb(159,210,165)" stroke-width="1.51"></path><path d="M337,-25L337,-100L262,-100Z" fill="rgb(180,223,178)" stroke="rgb(180,223,178)" stroke-width="1.51"></path><path d="M337,425L412,350L337,350Z" fill="rgb(41,130,65)" stroke="rgb(41,130,65)" stroke-width="1.51"></path><path d="M337,350L412,350L412,275Z" fill="rgb(41,145,72)" stroke="rgb(41,145,72)" stroke-width="1.51"></path><path d="M412,125L487,125L412,50Z" fill="rgb(125,188,131)" stroke="rgb(125,188,131)" stroke-width="1.51"></path><path d="M412,50L487,50L412,-25Z" fill="rgb(145,196,151)" stroke="rgb(145,196,151)" stroke-width="1.51"></path><path d="M412,200L487,125L412,125Z" fill="rgb(105,180,113)" stroke="rgb(105,180,113)" stroke-width="1.51"></path><path d="M487,200L487,125L412,200Z" fill="rgb(89,170,100)" stroke="rgb(89,170,100)" stroke-width="1.51"></path><path d="M487,200L412,200L412,275Z" fill="rgb(68,163,89)" stroke="rgb(68,163,89)" stroke-width="1.51"></path><path d="M487,275L487,200L412,275Z" fill="rgb(49,152,79)" stroke="rgb(49,152,79)" stroke-width="1.51"></path><path d="M37,-25L-38,50L37,50Z" fill="rgb(241,250,238)" stroke="rgb(241,250,238)" stroke-width="1.51"></path><path d="M-38,200L-38,275L37,275Z" fill="rgb(161,212,167)" stroke="rgb(161,212,167)" stroke-width="1.51"></path><path d="M187,-100L112,-100L112,-25Z" fill="rgb(226,244,221)" stroke="rgb(226,244,221)" stroke-width="1.51"></path><path d="M37,350L112,425L112,350Z" fill="rgb(119,163,122)" stroke="rgb(119,163,122)" stroke-width="1.51"></path><path d="M412,-25L337,-100L337,-25Z" fill="rgb(165,214,169)" stroke="rgb(165,214,169)" stroke-width="1.51"></path><path d="M262,425L337,425L337,350Z" fill="rgb(56,127,68)" stroke="rgb(56,127,68)" stroke-width="1.51"></path><path d="M487,125L487,50L412,50Z" fill="rgb(129,186,134)" stroke="rgb(129,186,134)" stroke-width="1.51"></path><path d="M412,350L487,275L412,275Z" fill="rgb(38,141,71)" stroke="rgb(38,141,71)" stroke-width="1.51"></path><path d="M37,-100L-38,-25L37,-25Z" fill="rgb(246,252,243)" stroke="rgb(246,252,243)" stroke-width="1.51"></path><path d="M37,-25L-38,-25L-38,50Z" fill="rgb(247,252,245)" stroke="rgb(247,252,245)" stroke-width="1.51"></path><path d="M37,350L37,425L112,425Z" fill="rgb(118,153,121)" stroke="rgb(118,153,121)" stroke-width="1.51"></path><path d="M-38,275L-38,350L37,350Z" fill="rgb(142,187,146)" stroke="rgb(142,187,146)" stroke-width="1.51"></path><path d="M112,-100L37,-100L37,-25Z" fill="rgb(240,249,236)" stroke="rgb(240,249,236)" stroke-width="1.51"></path><path d="M-38,350L37,425L37,350Z" fill="rgb(129,167,132)" stroke="rgb(129,167,132)" stroke-width="1.51"></path><path d="M487,-25L412,-100L412,-25Z" fill="rgb(150,198,156)" stroke="rgb(150,198,156)" stroke-width="1.51"></path><path d="M412,-25L412,-100L337,-100Z" fill="rgb(159,210,165)" stroke="rgb(159,210,165)" stroke-width="1.51"></path><path d="M337,425L412,425L412,350Z" fill="rgb(30,115,57)" stroke="rgb(30,115,57)" stroke-width="1.51"></path><path d="M412,350L487,350L487,275Z" fill="rgb(26,129,60)" stroke="rgb(26,129,60)" stroke-width="1.51"></path><path d="M487,50L487,-25L412,-25Z" fill="rgb(146,193,151)" stroke="rgb(146,193,151)" stroke-width="1.51"></path><path d="M412,425L487,350L412,350Z" fill="rgb(22,115,54)" stroke="rgb(22,115,54)" stroke-width="1.51"></path><path d="M-38,50L-113,125L-38,125Z" fill="rgb(223,243,218)" stroke="rgb(223,243,218)" stroke-width="1.51"></path><path d="M-38,125L-113,125L-38,200Z" fill="rgb(205,235,199)" stroke="rgb(205,235,199)" stroke-width="1.51"></path><path d="M-38,200L-113,200L-38,275Z" fill="rgb(172,218,174)" stroke="rgb(172,218,174)" stroke-width="1.51"></path><path d="M-38,275L-113,275L-38,350Z" fill="rgb(148,195,154)" stroke="rgb(148,195,154)" stroke-width="1.51"></path><path d="M-113,50L-113,125L-38,50Z" fill="rgb(231,246,226)" stroke="rgb(231,246,226)" stroke-width="1.51"></path><path d="M-113,125L-113,200L-38,200Z" fill="rgb(194,230,190)" stroke="rgb(194,230,190)" stroke-width="1.51"></path><path d="M187,425L187,500L262,425Z" fill="rgb(86,141,90)" stroke="rgb(86,141,90)" stroke-width="1.51"></path><path d="M262,425L262,500L337,425Z" fill="rgb(64,131,73)" stroke="rgb(64,131,73)" stroke-width="1.51"></path><path d="M337,425L337,500L412,425Z" fill="rgb(38,119,60)" stroke="rgb(38,119,60)" stroke-width="1.51"></path><path d="M112,425L187,500L187,425Z" fill="rgb(99,145,101)" stroke="rgb(99,145,101)" stroke-width="1.51"></path><path d="M112,500L187,500L112,425Z" fill="rgb(104,148,107)" stroke="rgb(104,148,107)" stroke-width="1.51"></path><path d="M187,500L262,500L262,425Z" fill="rgb(79,138,84)" stroke="rgb(79,138,84)" stroke-width="1.51"></path><path d="M487,125L562,125L487,50Z" fill="rgb(113,172,117)" stroke="rgb(113,172,117)" stroke-width="1.51"></path><path d="M487,50L562,50L487,-25Z" fill="rgb(133,180,137)" stroke="rgb(133,180,137)" stroke-width="1.51"></path><path d="M487,200L562,125L487,125Z" fill="rgb(93,164,100)" stroke="rgb(93,164,100)" stroke-width="1.51"></path><path d="M562,200L562,125L487,200Z" fill="rgb(78,153,87)" stroke="rgb(78,153,87)" stroke-width="1.51"></path><path d="M562,200L487,200L487,275Z" fill="rgb(56,148,76)" stroke="rgb(56,148,76)" stroke-width="1.51"></path><path d="M562,275L562,200L487,275Z" fill="rgb(37,136,66)" stroke="rgb(37,136,66)" stroke-width="1.51"></path><path d="M-38,-25L-113,50L-38,50Z" fill="rgb(243,251,239)" stroke="rgb(243,251,239)" stroke-width="1.51"></path><path d="M-113,200L-113,275L-38,275Z" fill="rgb(161,212,167)" stroke="rgb(161,212,167)" stroke-width="1.51"></path><path d="M37,425L112,500L112,425Z" fill="rgb(114,152,116)" stroke="rgb(114,152,116)" stroke-width="1.51"></path><path d="M262,500L337,500L337,425Z" fill="rgb(56,127,68)" stroke="rgb(56,127,68)" stroke-width="1.51"></path><path d="M562,125L562,50L487,50Z" fill="rgb(117,169,121)" stroke="rgb(117,169,121)" stroke-width="1.51"></path><path d="M487,350L562,275L487,275Z" fill="rgb(23,126,58)" stroke="rgb(23,126,58)" stroke-width="1.51"></path><path d="M-38,-25L-113,-25L-113,50Z" fill="rgb(247,252,245)" stroke="rgb(247,252,245)" stroke-width="1.51"></path><path d="M37,-100L-38,-100L-38,-25Z" fill="rgb(247,252,245)" stroke="rgb(247,252,245)" stroke-width="1.51"></path><path d="M37,425L37,500L112,500Z" fill="rgb(118,153,121)" stroke="rgb(118,153,121)" stroke-width="1.51"></path><path d="M-38,350L-38,425L37,425Z" fill="rgb(125,156,128)" stroke="rgb(125,156,128)" stroke-width="1.51"></path><path d="M-113,350L-38,425L-38,350Z" fill="rgb(130,168,134)" stroke="rgb(130,168,134)" stroke-width="1.51"></path><path d="M562,-25L487,-100L487,-25Z" fill="rgb(138,182,142)" stroke="rgb(138,182,142)" stroke-width="1.51"></path><path d="M487,-25L487,-100L412,-100Z" fill="rgb(146,193,151)" stroke="rgb(146,193,151)" stroke-width="1.51"></path><path d="M487,350L562,350L562,275Z" fill="rgb(10,113,48)" stroke="rgb(10,113,48)" stroke-width="1.51"></path><path d="M412,425L487,425L487,350Z" fill="rgb(14,100,45)" stroke="rgb(14,100,45)" stroke-width="1.51"></path><path d="M412,500L487,425L412,425Z" fill="rgb(20,105,49)" stroke="rgb(20,105,49)" stroke-width="1.51"></path><path d="M-38,-100L-113,-25L-38,-25Z" fill="rgb(247,252,245)" stroke="rgb(247,252,245)" stroke-width="1.51"></path><path d="M-113,275L-113,350L-38,350Z" fill="rgb(142,187,146)" stroke="rgb(142,187,146)" stroke-width="1.51"></path><path d="M-38,425L37,500L37,425Z" fill="rgb(123,156,127)" stroke="rgb(123,156,127)" stroke-width="1.51"></path><path d="M337,500L412,500L412,425Z" fill="rgb(30,115,57)" stroke="rgb(30,115,57)" stroke-width="1.51"></path><path d="M562,50L562,-25L487,-25Z" fill="rgb(134,175,138)" stroke="rgb(134,175,138)" stroke-width="1.51"></path><path d="M487,425L562,350L487,350Z" fill="rgb(3,101,41)" stroke="rgb(3,101,41)" stroke-width="1.51"></path><path d="M562,125L637,125L562,50Z" fill="rgb(103,151,106)" stroke="rgb(103,151,106)" stroke-width="1.51"></path><path d="M562,50L637,50L562,-25Z" fill="rgb(122,159,125)" stroke="rgb(122,159,125)" stroke-width="1.51"></path><path d="M562,200L637,125L562,125Z" fill="rgb(84,143,89)" stroke="rgb(84,143,89)" stroke-width="1.51"></path><path d="M637,200L637,125L562,200Z" fill="rgb(72,134,78)" stroke="rgb(72,134,78)" stroke-width="1.51"></path><path d="M637,200L562,200L562,275Z" fill="rgb(49,127,66)" stroke="rgb(49,127,66)" stroke-width="1.51"></path><path d="M637,275L637,200L562,275Z" fill="rgb(33,117,59)" stroke="rgb(33,117,59)" stroke-width="1.51"></path><path d="M-38,-100L-113,-100L-113,-25Z" fill="rgb(247,252,245)" stroke="rgb(247,252,245)" stroke-width="1.51"></path><path d="M-38,425L-38,500L37,500Z" fill="rgb(125,156,128)" stroke="rgb(125,156,128)" stroke-width="1.51"></path><path d="M-113,350L-113,425L-38,425Z" fill="rgb(125,156,128)" stroke="rgb(125,156,128)" stroke-width="1.51"></path><path d="M-113,425L-38,500L-38,425Z" fill="rgb(125,156,128)" stroke="rgb(125,156,128)" stroke-width="1.51"></path><path d="M412,500L487,500L487,425Z" fill="rgb(14,100,45)" stroke="rgb(14,100,45)" stroke-width="1.51"></path><path d="M487,425L562,425L562,350Z" fill="rgb(0,85,34)" stroke="rgb(0,85,34)" stroke-width="1.51"></path><path d="M637,-25L562,-100L562,-25Z" fill="rgb(127,160,130)" stroke="rgb(127,160,130)" stroke-width="1.51"></path><path d="M562,-25L562,-100L487,-100Z" fill="rgb(134,175,138)" stroke="rgb(134,175,138)" stroke-width="1.51"></path><path d="M562,350L637,275L562,275Z" fill="rgb(17,106,49)" stroke="rgb(17,106,49)" stroke-width="1.51"></path><path d="M487,500L562,425L487,425Z" fill="rgb(3,90,37)" stroke="rgb(3,90,37)" stroke-width="1.51"></path><path d="M637,125L637,50L562,50Z" fill="rgb(109,150,111)" stroke="rgb(109,150,111)" stroke-width="1.51"></path><path d="M637,350L637,275L562,350Z" fill="rgb(8,95,41)" stroke="rgb(8,95,41)" stroke-width="1.51"></path><path d="M637,50L637,-25L562,-25Z" fill="rgb(125,156,128)" stroke="rgb(125,156,128)" stroke-width="1.51"></path><path d="M562,425L637,350L562,350Z" fill="rgb(0,81,32)" stroke="rgb(0,81,32)" stroke-width="1.51"></path><path d="M-113,425L-113,500L-38,500Z" fill="rgb(125,156,128)" stroke="rgb(125,156,128)" stroke-width="1.51"></path><path d="M562,425L637,425L637,350Z" fill="rgb(0,68,27)" stroke="rgb(0,68,27)" stroke-width="1.51"></path><path d="M487,500L562,500L562,425Z" fill="rgb(0,85,34)" stroke="rgb(0,85,34)" stroke-width="1.51"></path><path d="M637,-25L637,-100L562,-100Z" fill="rgb(125,156,128)" stroke="rgb(125,156,128)" stroke-width="1.51"></path><path d="M562,500L637,425L562,425Z" fill="rgb(0,71,28)" stroke="rgb(0,71,28)" stroke-width="1.51"></path><path d="M637,125L712,125L637,50Z" fill="rgb(102,147,104)" stroke="rgb(102,147,104)" stroke-width="1.51"></path><path d="M637,50L712,50L637,-25Z" fill="rgb(121,155,123)" stroke="rgb(121,155,123)" stroke-width="1.51"></path><path d="M637,-25L712,-25L637,-100Z" fill="rgb(125,156,128)" stroke="rgb(125,156,128)" stroke-width="1.51"></path><path d="M637,200L712,125L637,125Z" fill="rgb(83,139,87)" stroke="rgb(83,139,87)" stroke-width="1.51"></path><path d="M712,200L712,125L637,200Z" fill="rgb(72,134,78)" stroke="rgb(72,134,78)" stroke-width="1.51"></path><path d="M712,200L637,200L637,275Z" fill="rgb(47,123,64)" stroke="rgb(47,123,64)" stroke-width="1.51"></path><path d="M712,200L637,275L712,275Z" fill="rgb(33,117,59)" stroke="rgb(33,117,59)" stroke-width="1.51"></path><path d="M712,275L637,275L637,350Z" fill="rgb(16,102,47)" stroke="rgb(16,102,47)" stroke-width="1.51"></path><path d="M712,125L712,50L637,50Z" fill="rgb(109,150,111)" stroke="rgb(109,150,111)" stroke-width="1.51"></path><path d="M712,350L712,275L637,350Z" fill="rgb(8,95,41)" stroke="rgb(8,95,41)" stroke-width="1.51"></path><path d="M712,50L712,-25L637,-25Z" fill="rgb(125,156,128)" stroke="rgb(125,156,128)" stroke-width="1.51"></path><path d="M637,425L712,350L637,350Z" fill="rgb(0,78,31)" stroke="rgb(0,78,31)" stroke-width="1.51"></path><path d="M637,425L712,425L712,350Z" fill="rgb(0,68,27)" stroke="rgb(0,68,27)" stroke-width="1.51"></path><path d="M562,500L637,500L637,425Z" fill="rgb(0,68,27)" stroke="rgb(0,68,27)" stroke-width="1.51"></path><path d="M712,-25L712,-100L637,-100Z" fill="rgb(125,156,128)" stroke="rgb(125,156,128)" stroke-width="1.51"></path><path d="M637,500L712,425L637,425Z" fill="rgb(0,68,27)" stroke="rgb(0,68,27)" stroke-width="1.51"></path><path d="M637,500L712,500L712,425Z" fill="rgb(0,68,27)" stroke="rgb(0,68,27)" stroke-width="1.51"></path></svg>