<svg width="600" height="400" xmlns="http://www.w3.org/2000/svg"><path d="M332,176L378,172L344,99Z" fill="rgb(246,227,186)" stroke="rgb(246,227,186)" stroke-width="1.51"></path><path d="M378,172L427,127L344,99Z" fill="rgb(236,211,177)" stroke="rgb(236,211,177)" stroke-width="1.51"></path><path d="M427,127L415,58L344,99Z" fill="rgb(233,182,157)" stroke="rgb(233,182,157)" stroke-width="1.51"></path><path d="M378,172L504,200L427,127Z" fill="rgb(212,217,190)" stroke="rgb(212,217,190)" stroke-width="1.51"></path><path d="M332,176L393,249L378,172Z" fill="rgb(238,247,218)" stroke="rgb(238,247,218)" stroke-width="1.51"></path><path d="M344,99L229,160L332,176Z" fill="rgb(255,230,159)" stroke="rgb(255,230,159)" stroke-width="1.51"></path><path d="M332,176L334,267L393,249Z" fill="rgb(230,245,238)" stroke="rgb(230,245,238)" stroke-width="1.51"></path><path d="M246,54L229,160L344,99Z" fill="rgb(255,196,127)" stroke="rgb(255,196,127)" stroke-width="1.51"></path><path d="M243,226L334,267L332,176Z" fill="rgb(247,251,209)" stroke="rgb(247,251,209)" stroke-width="1.51"></path><path d="M415,58L305,15L344,99Z" fill="rgb(241,165,143)" stroke="rgb(241,165,143)" stroke-width="1.51"></path><path d="M305,15L246,54L344,99Z" fill="rgb(249,169,117)" stroke="rgb(249,169,117)" stroke-width="1.51"></path><path d="M229,160L243,226L332,176Z" fill="rgb(255,241,171)" stroke="rgb(255,241,171)" stroke-width="1.51"></path><path d="M246,54L200,131L229,160Z" fill="rgb(254,189,112)" stroke="rgb(254,189,112)" stroke-width="1.51"></path><path d="M229,160L215,213L243,226Z" fill="rgb(255,235,163)" stroke="rgb(255,235,163)" stroke-width="1.51"></path><path d="M415,58L406,-6L305,15Z" fill="rgb(218,144,135)" stroke="rgb(218,144,135)" stroke-width="1.51"></path><path d="M488,64L406,-6L415,58Z" fill="rgb(206,136,129)" stroke="rgb(206,136,129)" stroke-width="1.51"></path><path d="M200,131L215,213L229,160Z" fill="rgb(255,217,138)" stroke="rgb(255,217,138)" stroke-width="1.51"></path><path d="M427,127L488,64L415,58Z" fill="rgb(215,160,146)" stroke="rgb(215,160,146)" stroke-width="1.51"></path><path d="M514,127L488,64L427,127Z" fill="rgb(202,165,149)" stroke="rgb(202,165,149)" stroke-width="1.51"></path><path d="M312,-54L295,-7L305,15Z" fill="rgb(217,143,111)" stroke="rgb(217,143,111)" stroke-width="1.51"></path><path d="M305,15L295,-7L246,54Z" fill="rgb(231,148,104)" stroke="rgb(231,148,104)" stroke-width="1.51"></path><path d="M504,200L514,127L427,127Z" fill="rgb(195,192,173)" stroke="rgb(195,192,173)" stroke-width="1.51"></path><path d="M393,249L504,200L378,172Z" fill="rgb(211,233,217)" stroke="rgb(211,233,217)" stroke-width="1.51"></path><path d="M295,-7L193,32L246,54Z" fill="rgb(232,140,90)" stroke="rgb(232,140,90)" stroke-width="1.51"></path><path d="M246,54L193,32L200,131Z" fill="rgb(249,153,91)" stroke="rgb(249,153,91)" stroke-width="1.51"></path><path d="M406,-6L312,-54L305,15Z" fill="rgb(212,140,127)" stroke="rgb(212,140,127)" stroke-width="1.51"></path><path d="M295,-7L208,-54L193,32Z" fill="rgb(214,125,85)" stroke="rgb(214,125,85)" stroke-width="1.51"></path><path d="M243,226L247,311L334,267Z" fill="rgb(225,233,205)" stroke="rgb(225,233,205)" stroke-width="1.51"></path><path d="M334,267L417,359L393,249Z" fill="rgb(180,219,234)" stroke="rgb(180,219,234)" stroke-width="1.51"></path><path d="M176,276L247,311L243,226Z" fill="rgb(226,216,184)" stroke="rgb(226,216,184)" stroke-width="1.51"></path><path d="M406,-6L381,-64L312,-54Z" fill="rgb(206,136,135)" stroke="rgb(206,136,135)" stroke-width="1.51"></path><path d="M458,-64L381,-64L406,-6Z" fill="rgb(189,127,129)" stroke="rgb(189,127,129)" stroke-width="1.51"></path><path d="M488,64L503,-32L406,-6Z" fill="rgb(175,114,122)" stroke="rgb(175,114,122)" stroke-width="1.51"></path><path d="M514,127L532,23L488,64Z" fill="rgb(187,124,128)" stroke="rgb(187,124,128)" stroke-width="1.51"></path><path d="M587,134L532,23L514,127Z" fill="rgb(178,123,131)" stroke="rgb(178,123,131)" stroke-width="1.51"></path><path d="M504,200L569,189L514,127Z" fill="rgb(177,178,174)" stroke="rgb(177,178,174)" stroke-width="1.51"></path><path d="M574,294L569,189L504,200Z" fill="rgb(156,174,204)" stroke="rgb(156,174,204)" stroke-width="1.51"></path><path d="M517,299L504,200L393,249Z" fill="rgb(169,208,228)" stroke="rgb(169,208,228)" stroke-width="1.51"></path><path d="M95,173L215,213L200,131Z" fill="rgb(255,199,125)" stroke="rgb(255,199,125)" stroke-width="1.51"></path><path d="M112,261L176,276L215,213Z" fill="rgb(241,199,167)" stroke="rgb(241,199,167)" stroke-width="1.51"></path><path d="M215,213L176,276L243,226Z" fill="rgb(245,221,183)" stroke="rgb(245,221,183)" stroke-width="1.51"></path><path d="M312,-54L208,-54L295,-7Z" fill="rgb(216,136,99)" stroke="rgb(216,136,99)" stroke-width="1.51"></path><path d="M381,-64L321,-81L312,-54Z" fill="rgb(212,140,126)" stroke="rgb(212,140,126)" stroke-width="1.51"></path><path d="M176,276L236,331L247,311Z" fill="rgb(205,197,174)" stroke="rgb(205,197,174)" stroke-width="1.51"></path><path d="M319,382L417,359L334,267Z" fill="rgb(164,196,221)" stroke="rgb(164,196,221)" stroke-width="1.51"></path><path d="M532,23L503,-32L488,64Z" fill="rgb(166,100,114)" stroke="rgb(166,100,114)" stroke-width="1.51"></path><path d="M381,-64L293,-117L321,-81Z" fill="rgb(213,141,123)" stroke="rgb(213,141,123)" stroke-width="1.51"></path><path d="M319,382L334,267L247,311Z" fill="rgb(191,213,201)" stroke="rgb(191,213,201)" stroke-width="1.51"></path><path d="M417,359L517,299L393,249Z" fill="rgb(146,196,222)" stroke="rgb(146,196,222)" stroke-width="1.51"></path><path d="M503,-32L458,-64L406,-6Z" fill="rgb(173,114,123)" stroke="rgb(173,114,123)" stroke-width="1.51"></path><path d="M193,32L121,114L200,131Z" fill="rgb(250,148,84)" stroke="rgb(250,148,84)" stroke-width="1.51"></path><path d="M569,189L587,134L514,127Z" fill="rgb(173,153,155)" stroke="rgb(173,153,155)" stroke-width="1.51"></path><path d="M193,32L78,14L121,114Z" fill="rgb(236,97,60)" stroke="rgb(236,97,60)" stroke-width="1.51"></path><path d="M293,-117L208,-54L312,-54Z" fill="rgb(216,136,99)" stroke="rgb(216,136,99)" stroke-width="1.51"></path><path d="M236,331L319,382L247,311Z" fill="rgb(183,189,182)" stroke="rgb(183,189,182)" stroke-width="1.51"></path><path d="M417,359L524,325L517,299Z" fill="rgb(110,164,204)" stroke="rgb(110,164,204)" stroke-width="1.51"></path><path d="M517,299L574,294L504,200Z" fill="rgb(137,174,212)" stroke="rgb(137,174,212)" stroke-width="1.51"></path><path d="M121,114L95,173L200,131Z" fill="rgb(252,165,98)" stroke="rgb(252,165,98)" stroke-width="1.51"></path><path d="M236,331L277,460L319,382Z" fill="rgb(165,150,168)" stroke="rgb(165,150,168)" stroke-width="1.51"></path><path d="M176,276L193,346L236,331Z" fill="rgb(199,184,164)" stroke="rgb(199,184,164)" stroke-width="1.51"></path><path d="M127,352L193,346L176,276Z" fill="rgb(197,163,149)" stroke="rgb(197,163,149)" stroke-width="1.51"></path><path d="M321,-81L293,-117L312,-54Z" fill="rgb(217,143,113)" stroke="rgb(217,143,113)" stroke-width="1.51"></path><path d="M542,-122L293,-117L381,-64Z" fill="rgb(192,129,131)" stroke="rgb(192,129,131)" stroke-width="1.51"></path><path d="M319,382L348,408L417,359Z" fill="rgb(146,158,205)" stroke="rgb(146,158,205)" stroke-width="1.51"></path><path d="M417,359L476,407L524,325Z" fill="rgb(97,144,195)" stroke="rgb(97,144,195)" stroke-width="1.51"></path><path d="M277,460L348,408L319,382Z" fill="rgb(158,147,179)" stroke="rgb(158,147,179)" stroke-width="1.51"></path><path d="M95,173L112,261L215,213Z" fill="rgb(253,192,144)" stroke="rgb(253,192,144)" stroke-width="1.51"></path><path d="M524,325L574,294L517,299Z" fill="rgb(105,152,199)" stroke="rgb(105,152,199)" stroke-width="1.51"></path><path d="M569,189L628,232L587,134Z" fill="rgb(164,146,166)" stroke="rgb(164,146,166)" stroke-width="1.51"></path><path d="M503,-32L542,-122L458,-64Z" fill="rgb(156,96,114)" stroke="rgb(156,96,114)" stroke-width="1.51"></path><path d="M532,23L580,-21L503,-32Z" fill="rgb(143,78,106)" stroke="rgb(143,78,106)" stroke-width="1.51"></path><path d="M617,34L580,-21L532,23Z" fill="rgb(141,59,99)" stroke="rgb(141,59,99)" stroke-width="1.51"></path><path d="M649,121L617,34L587,134Z" fill="rgb(165,91,119)" stroke="rgb(165,91,119)" stroke-width="1.51"></path><path d="M587,134L617,34L532,23Z" fill="rgb(165,82,110)" stroke="rgb(165,82,110)" stroke-width="1.51"></path><path d="M574,294L628,232L569,189Z" fill="rgb(145,149,200)" stroke="rgb(145,149,200)" stroke-width="1.51"></path><path d="M444,441L476,407L417,359Z" fill="rgb(104,123,186)" stroke="rgb(104,123,186)" stroke-width="1.51"></path><path d="M524,325L560,372L574,294Z" fill="rgb(86,131,188)" stroke="rgb(86,131,188)" stroke-width="1.51"></path><path d="M574,294L665,272L628,232Z" fill="rgb(125,136,194)" stroke="rgb(125,136,194)" stroke-width="1.51"></path><path d="M208,-54L132,-57L193,32Z" fill="rgb(210,101,66)" stroke="rgb(210,101,66)" stroke-width="1.51"></path><path d="M121,114L26,167L95,173Z" fill="rgb(244,147,89)" stroke="rgb(244,147,89)" stroke-width="1.51"></path><path d="M146,-106L132,-57L208,-54Z" fill="rgb(209,92,62)" stroke="rgb(209,92,62)" stroke-width="1.51"></path><path d="M628,232L649,121L587,134Z" fill="rgb(164,134,153)" stroke="rgb(164,134,153)" stroke-width="1.51"></path><path d="M132,-57L78,14L193,32Z" fill="rgb(206,75,55)" stroke="rgb(206,75,55)" stroke-width="1.51"></path><path d="M193,346L277,460L236,331Z" fill="rgb(170,150,156)" stroke="rgb(170,150,156)" stroke-width="1.51"></path><path d="M112,261L127,352L176,276Z" fill="rgb(214,166,149)" stroke="rgb(214,166,149)" stroke-width="1.51"></path><path d="M40,325L127,352L112,261Z" fill="rgb(200,138,132)" stroke="rgb(200,138,132)" stroke-width="1.51"></path><path d="M476,407L560,372L524,325Z" fill="rgb(76,119,182)" stroke="rgb(76,119,182)" stroke-width="1.51"></path><path d="M476,407L550,457L560,372Z" fill="rgb(67,90,167)" stroke="rgb(67,90,167)" stroke-width="1.51"></path><path d="M348,408L444,441L417,359Z" fill="rgb(123,135,193)" stroke="rgb(123,135,193)" stroke-width="1.51"></path><path d="M331,503L444,441L348,408Z" fill="rgb(136,141,197)" stroke="rgb(136,141,197)" stroke-width="1.51"></path><path d="M617,34L622,-23L580,-21Z" fill="rgb(128,38,93)" stroke="rgb(128,38,93)" stroke-width="1.51"></path><path d="M580,-21L542,-122L503,-32Z" fill="rgb(142,76,106)" stroke="rgb(142,76,106)" stroke-width="1.51"></path><path d="M458,-64L542,-122L381,-64Z" fill="rgb(171,113,122)" stroke="rgb(171,113,122)" stroke-width="1.51"></path><path d="M680,50L622,-23L617,34Z" fill="rgb(140,45,95)" stroke="rgb(140,45,95)" stroke-width="1.51"></path><path d="M-4,-16L26,36L78,14Z" fill="rgb(186,25,39)" stroke="rgb(186,25,39)" stroke-width="1.51"></path><path d="M174,-136L146,-106L208,-54Z" fill="rgb(210,100,65)" stroke="rgb(210,100,65)" stroke-width="1.51"></path><path d="M658,-82L542,-122L580,-21Z" fill="rgb(129,43,94)" stroke="rgb(129,43,94)" stroke-width="1.51"></path><path d="M95,173L3,252L112,261Z" fill="rgb(240,159,133)" stroke="rgb(240,159,133)" stroke-width="1.51"></path><path d="M3,91L26,167L121,114Z" fill="rgb(232,118,69)" stroke="rgb(232,118,69)" stroke-width="1.51"></path><path d="M542,-122L174,-136L293,-117Z" fill="rgb(213,140,125)" stroke="rgb(213,140,125)" stroke-width="1.51"></path><path d="M293,-117L174,-136L208,-54Z" fill="rgb(213,122,82)" stroke="rgb(213,122,82)" stroke-width="1.51"></path><path d="M156,447L277,460L193,346Z" fill="rgb(165,121,139)" stroke="rgb(165,121,139)" stroke-width="1.51"></path><path d="M628,356L665,272L574,294Z" fill="rgb(96,118,183)" stroke="rgb(96,118,183)" stroke-width="1.51"></path><path d="M628,232L713,221L649,121Z" fill="rgb(163,145,168)" stroke="rgb(163,145,168)" stroke-width="1.51"></path><path d="M721,109L680,50L649,121Z" fill="rgb(166,89,118)" stroke="rgb(166,89,118)" stroke-width="1.51"></path><path d="M649,121L680,50L617,34Z" fill="rgb(161,71,108)" stroke="rgb(161,71,108)" stroke-width="1.51"></path><path d="M78,14L26,36L121,114Z" fill="rgb(224,70,47)" stroke="rgb(224,70,47)" stroke-width="1.51"></path><path d="M54,-51L78,14L132,-57Z" fill="rgb(197,48,45)" stroke="rgb(197,48,45)" stroke-width="1.51"></path><path d="M606,434L628,356L560,372Z" fill="rgb(54,65,155)" stroke="rgb(54,65,155)" stroke-width="1.51"></path><path d="M560,372L628,356L574,294Z" fill="rgb(76,105,175)" stroke="rgb(76,105,175)" stroke-width="1.51"></path><path d="M26,36L3,91L121,114Z" fill="rgb(226,79,53)" stroke="rgb(226,79,53)" stroke-width="1.51"></path><path d="M146,-106L54,-51L132,-57Z" fill="rgb(202,61,50)" stroke="rgb(202,61,50)" stroke-width="1.51"></path><path d="M26,36L-33,73L3,91Z" fill="rgb(200,55,48)" stroke="rgb(200,55,48)" stroke-width="1.51"></path><path d="M4,-66L54,-51L146,-106Z" fill="rgb(192,35,41)" stroke="rgb(192,35,41)" stroke-width="1.51"></path><path d="M130,434L156,447L193,346Z" fill="rgb(166,99,123)" stroke="rgb(166,99,123)" stroke-width="1.51"></path><path d="M3,252L40,325L112,261Z" fill="rgb(210,140,131)" stroke="rgb(210,140,131)" stroke-width="1.51"></path><path d="M3,252L95,173L26,167Z" fill="rgb(236,154,109)" stroke="rgb(236,154,109)" stroke-width="1.51"></path><path d="M277,460L331,503L348,408Z" fill="rgb(157,147,181)" stroke="rgb(157,147,181)" stroke-width="1.51"></path><path d="M444,441L550,457L476,407Z" fill="rgb(83,107,177)" stroke="rgb(83,107,177)" stroke-width="1.51"></path><path d="M252,534L331,503L277,460Z" fill="rgb(163,145,168)" stroke="rgb(163,145,168)" stroke-width="1.51"></path><path d="M130,434L193,346L127,352Z" fill="rgb(173,115,128)" stroke="rgb(173,115,128)" stroke-width="1.51"></path><path d="M-69,204L3,252L26,167Z" fill="rgb(216,143,114)" stroke="rgb(216,143,114)" stroke-width="1.51"></path><path d="M50,423L130,434L127,352Z" fill="rgb(161,71,107)" stroke="rgb(161,71,107)" stroke-width="1.51"></path><path d="M724,297L713,221L665,272Z" fill="rgb(127,137,194)" stroke="rgb(127,137,194)" stroke-width="1.51"></path><path d="M665,272L713,221L628,232Z" fill="rgb(141,143,198)" stroke="rgb(141,143,198)" stroke-width="1.51"></path><path d="M713,221L721,109L649,121Z" fill="rgb(165,128,145)" stroke="rgb(165,128,145)" stroke-width="1.51"></path><path d="M451,502L550,457L444,441Z" fill="rgb(87,111,179)" stroke="rgb(87,111,179)" stroke-width="1.51"></path><path d="M394,531L451,502L444,441Z" fill="rgb(111,129,189)" stroke="rgb(111,129,189)" stroke-width="1.51"></path><path d="M710,-12L658,-82L622,-23Z" fill="rgb(128,38,93)" stroke="rgb(128,38,93)" stroke-width="1.51"></path><path d="M622,-23L658,-82L580,-21Z" fill="rgb(128,38,93)" stroke="rgb(128,38,93)" stroke-width="1.51"></path><path d="M710,-12L622,-23L680,50Z" fill="rgb(131,39,93)" stroke="rgb(131,39,93)" stroke-width="1.51"></path><path d="M3,91L-44,137L26,167Z" fill="rgb(212,110,72)" stroke="rgb(212,110,72)" stroke-width="1.51"></path><path d="M54,-51L-4,-16L78,14Z" fill="rgb(182,22,39)" stroke="rgb(182,22,39)" stroke-width="1.51"></path><path d="M4,-66L-4,-16L54,-51Z" fill="rgb(172,10,39)" stroke="rgb(172,10,39)" stroke-width="1.51"></path><path d="M551,515L606,434L550,457Z" fill="rgb(56,70,157)" stroke="rgb(56,70,157)" stroke-width="1.51"></path><path d="M550,457L606,434L560,372Z" fill="rgb(56,69,156)" stroke="rgb(56,69,156)" stroke-width="1.51"></path><path d="M711,328L724,297L665,272Z" fill="rgb(102,122,186)" stroke="rgb(102,122,186)" stroke-width="1.51"></path><path d="M721,109L710,-12L680,50Z" fill="rgb(156,58,100)" stroke="rgb(156,58,100)" stroke-width="1.51"></path><path d="M-4,-16L-33,73L26,36Z" fill="rgb(184,24,39)" stroke="rgb(184,24,39)" stroke-width="1.51"></path><path d="M451,502L551,515L550,457Z" fill="rgb(72,95,170)" stroke="rgb(72,95,170)" stroke-width="1.51"></path><path d="M331,503L394,531L444,441Z" fill="rgb(129,138,195)" stroke="rgb(129,138,195)" stroke-width="1.51"></path><path d="M252,534L394,531L331,503Z" fill="rgb(154,146,184)" stroke="rgb(154,146,184)" stroke-width="1.51"></path><path d="M156,447L205,507L277,460Z" fill="rgb(165,122,141)" stroke="rgb(165,122,141)" stroke-width="1.51"></path><path d="M85,531L205,507L156,447Z" fill="rgb(166,93,120)" stroke="rgb(166,93,120)" stroke-width="1.51"></path><path d="M-33,73L-44,137L3,91Z" fill="rgb(207,85,59)" stroke="rgb(207,85,59)" stroke-width="1.51"></path><path d="M711,328L665,272L628,356Z" fill="rgb(88,112,180)" stroke="rgb(88,112,180)" stroke-width="1.51"></path><path d="M713,221L724,297L721,109Z" fill="rgb(158,147,179)" stroke="rgb(158,147,179)" stroke-width="1.51"></path><path d="M-86,-111L4,-66L146,-106Z" fill="rgb(174,12,39)" stroke="rgb(174,12,39)" stroke-width="1.51"></path><path d="M-4,-16L-79,31L-33,73Z" fill="rgb(183,22,39)" stroke="rgb(183,22,39)" stroke-width="1.51"></path><path d="M693,416L711,328L628,356Z" fill="rgb(60,80,162)" stroke="rgb(60,80,162)" stroke-width="1.51"></path><path d="M205,507L252,534L277,460Z" fill="rgb(164,134,153)" stroke="rgb(164,134,153)" stroke-width="1.51"></path><path d="M205,507L85,531L252,534Z" fill="rgb(166,110,129)" stroke="rgb(166,110,129)" stroke-width="1.51"></path><path d="M130,434L85,531L156,447Z" fill="rgb(165,80,113)" stroke="rgb(165,80,113)" stroke-width="1.51"></path><path d="M40,325L50,423L127,352Z" fill="rgb(168,90,111)" stroke="rgb(168,90,111)" stroke-width="1.51"></path><path d="M-43,386L50,423L40,325Z" fill="rgb(143,64,101)" stroke="rgb(143,64,101)" stroke-width="1.51"></path><path d="M-67,302L40,325L3,252Z" fill="rgb(179,120,125)" stroke="rgb(179,120,125)" stroke-width="1.51"></path><path d="M-86,-111L-19,-65L4,-66Z" fill="rgb(165,0,38)" stroke="rgb(165,0,38)" stroke-width="1.51"></path><path d="M4,-66L-19,-65L-4,-16Z" fill="rgb(165,0,38)" stroke="rgb(165,0,38)" stroke-width="1.51"></path><path d="M-107,143L-69,204L-44,137Z" fill="rgb(214,129,88)" stroke="rgb(214,129,88)" stroke-width="1.51"></path><path d="M394,531L551,515L451,502Z" fill="rgb(94,117,182)" stroke="rgb(94,117,182)" stroke-width="1.51"></path><path d="M606,434L693,416L628,356Z" fill="rgb(49,54,149)" stroke="rgb(49,54,149)" stroke-width="1.51"></path><path d="M-107,143L-44,137L-33,73Z" fill="rgb(210,100,65)" stroke="rgb(210,100,65)" stroke-width="1.51"></path><path d="M-44,137L-69,204L26,167Z" fill="rgb(215,132,93)" stroke="rgb(215,132,93)" stroke-width="1.51"></path><path d="M682,526L693,416L606,434Z" fill="rgb(49,54,149)" stroke="rgb(49,54,149)" stroke-width="1.51"></path><path d="M711,328L693,416L724,297Z" fill="rgb(70,94,169)" stroke="rgb(70,94,169)" stroke-width="1.51"></path><path d="M-19,-65L-79,31L-4,-16Z" fill="rgb(165,0,38)" stroke="rgb(165,0,38)" stroke-width="1.51"></path><path d="M-69,204L-67,302L3,252Z" fill="rgb(202,134,133)" stroke="rgb(202,134,133)" stroke-width="1.51"></path><path d="M-146,238L-67,302L-69,204Z" fill="rgb(204,136,134)" stroke="rgb(204,136,134)" stroke-width="1.51"></path><path d="M-79,31L-107,143L-33,73Z" fill="rgb(205,68,53)" stroke="rgb(205,68,53)" stroke-width="1.51"></path><path d="M50,423L39,478L130,434Z" fill="rgb(155,58,100)" stroke="rgb(155,58,100)" stroke-width="1.51"></path><path d="M-25,456L39,478L50,423Z" fill="rgb(137,43,94)" stroke="rgb(137,43,94)" stroke-width="1.51"></path><path d="M710,-12L729,-127L658,-82Z" fill="rgb(128,38,93)" stroke="rgb(128,38,93)" stroke-width="1.51"></path><path d="M658,-82L729,-127L542,-122Z" fill="rgb(128,38,93)" stroke="rgb(128,38,93)" stroke-width="1.51"></path><path d="M542,-122L729,-127L174,-136Z" fill="rgb(163,105,118)" stroke="rgb(163,105,118)" stroke-width="1.51"></path><path d="M721,109L729,-127L710,-12Z" fill="rgb(128,38,93)" stroke="rgb(128,38,93)" stroke-width="1.51"></path><path d="M724,297L729,-127L721,109Z" fill="rgb(166,89,117)" stroke="rgb(166,89,117)" stroke-width="1.51"></path><path d="M-67,302L-43,386L40,325Z" fill="rgb(154,93,113)" stroke="rgb(154,93,113)" stroke-width="1.51"></path><path d="M-35,477L85,531L39,478Z" fill="rgb(140,45,95)" stroke="rgb(140,45,95)" stroke-width="1.51"></path><path d="M39,478L85,531L130,434Z" fill="rgb(158,63,103)" stroke="rgb(158,63,103)" stroke-width="1.51"></path><path d="M551,515L627,529L606,434Z" fill="rgb(51,57,151)" stroke="rgb(51,57,151)" stroke-width="1.51"></path><path d="M394,531L627,529L551,515Z" fill="rgb(69,93,169)" stroke="rgb(69,93,169)" stroke-width="1.51"></path><path d="M252,534L627,529L394,531Z" fill="rgb(114,131,190)" stroke="rgb(114,131,190)" stroke-width="1.51"></path><path d="M-43,386L-25,456L50,423Z" fill="rgb(128,38,93)" stroke="rgb(128,38,93)" stroke-width="1.51"></path><path d="M-35,477L-25,456L-114,427Z" fill="rgb(128,38,93)" stroke="rgb(128,38,93)" stroke-width="1.51"></path><path d="M-67,302L-134,347L-43,386Z" fill="rgb(150,88,111)" stroke="rgb(150,88,111)" stroke-width="1.51"></path><path d="M-107,143L-145,182L-69,204Z" fill="rgb(216,135,96)" stroke="rgb(216,135,96)" stroke-width="1.51"></path><path d="M-129,-9L-145,182L-107,143Z" fill="rgb(208,90,61)" stroke="rgb(208,90,61)" stroke-width="1.51"></path><path d="M-79,31L-129,-9L-107,143Z" fill="rgb(195,45,44)" stroke="rgb(195,45,44)" stroke-width="1.51"></path><path d="M-19,-65L-129,-9L-79,31Z" fill="rgb(165,0,38)" stroke="rgb(165,0,38)" stroke-width="1.51"></path><path d="M174,-136L-86,-111L146,-106Z" fill="rgb(194,42,43)" stroke="rgb(194,42,43)" stroke-width="1.51"></path><path d="M-19,-65L-86,-111L-129,-9Z" fill="rgb(165,0,38)" stroke="rgb(165,0,38)" stroke-width="1.51"></path><path d="M-145,182L-146,238L-69,204Z" fill="rgb(217,143,115)" stroke="rgb(217,143,115)" stroke-width="1.51"></path><path d="M627,529L682,526L606,434Z" fill="rgb(49,54,149)" stroke="rgb(49,54,149)" stroke-width="1.51"></path><path d="M693,416L682,526L724,297Z" fill="rgb(49,54,149)" stroke="rgb(49,54,149)" stroke-width="1.51"></path><path d="M-25,456L-35,477L39,478Z" fill="rgb(128,38,93)" stroke="rgb(128,38,93)" stroke-width="1.51"></path><path d="M-114,427L-25,456L-43,386Z" fill="rgb(128,38,93)" stroke="rgb(128,38,93)" stroke-width="1.51"></path><path d="M-146,238L-134,347L-67,302Z" fill="rgb(178,119,125)" stroke="rgb(178,119,125)" stroke-width="1.51"></path><path d="M-134,347L-114,427L-43,386Z" fill="rgb(133,52,97)" stroke="rgb(133,52,97)" stroke-width="1.51"></path><path d="M-114,427L-85,492L-35,477Z" fill="rgb(128,38,93)" stroke="rgb(128,38,93)" stroke-width="1.51"></path><path d="M-35,477L-85,492L85,531Z" fill="rgb(128,38,93)" stroke="rgb(128,38,93)" stroke-width="1.51"></path></svg>