<svg width="600" height="400" xmlns="http://www.w3.org/2000/svg"><path d="M349,191L392,173L346,109Z" fill="rgb(242,231,194)" stroke="rgb(242,231,194)" stroke-width="1.51"></path><path d="M392,173L406,138L346,109Z" fill="rgb(236,216,182)" stroke="rgb(236,216,182)" stroke-width="1.51"></path><path d="M349,191L413,252L392,173Z" fill="rgb(229,242,221)" stroke="rgb(229,242,221)" stroke-width="1.51"></path><path d="M241,199L324,257L349,191Z" fill="rgb(249,252,205)" stroke="rgb(249,252,205)" stroke-width="1.51"></path><path d="M346,109L244,145L349,191Z" fill="rgb(254,231,167)" stroke="rgb(254,231,167)" stroke-width="1.51"></path><path d="M406,138L441,72L346,109Z" fill="rgb(232,191,162)" stroke="rgb(232,191,162)" stroke-width="1.51"></path><path d="M346,109L258,58L244,145Z" fill="rgb(255,198,130)" stroke="rgb(255,198,130)" stroke-width="1.51"></path><path d="M514,100L441,72L406,138Z" fill="rgb(211,171,152)" stroke="rgb(211,171,152)" stroke-width="1.51"></path><path d="M324,257L413,252L349,191Z" fill="rgb(226,243,243)" stroke="rgb(226,243,243)" stroke-width="1.51"></path><path d="M392,173L511,199L406,138Z" fill="rgb(212,218,192)" stroke="rgb(212,218,192)" stroke-width="1.51"></path><path d="M441,72L365,28L346,109Z" fill="rgb(235,167,148)" stroke="rgb(235,167,148)" stroke-width="1.51"></path><path d="M244,145L241,199L349,191Z" fill="rgb(255,241,169)" stroke="rgb(255,241,169)" stroke-width="1.51"></path><path d="M365,28L258,58L346,109Z" fill="rgb(248,172,131)" stroke="rgb(248,172,131)" stroke-width="1.51"></path><path d="M241,199L280,264L324,257Z" fill="rgb(242,244,213)" stroke="rgb(242,244,213)" stroke-width="1.51"></path><path d="M441,362L455,328L413,252Z" fill="rgb(141,192,220)" stroke="rgb(141,192,220)" stroke-width="1.51"></path><path d="M365,28L292,-20L258,58Z" fill="rgb(232,152,112)" stroke="rgb(232,152,112)" stroke-width="1.51"></path><path d="M412,-10L366,3L365,28Z" fill="rgb(206,137,134)" stroke="rgb(206,137,134)" stroke-width="1.51"></path><path d="M413,252L511,199L392,173Z" fill="rgb(205,228,215)" stroke="rgb(205,228,215)" stroke-width="1.51"></path><path d="M441,72L412,-10L365,28Z" fill="rgb(212,141,132)" stroke="rgb(212,141,132)" stroke-width="1.51"></path><path d="M511,199L514,100L406,138Z" fill="rgb(198,190,170)" stroke="rgb(198,190,170)" stroke-width="1.51"></path><path d="M241,199L190,264L280,264Z" fill="rgb(241,231,195)" stroke="rgb(241,231,195)" stroke-width="1.51"></path><path d="M244,145L199,197L241,199Z" fill="rgb(255,227,151)" stroke="rgb(255,227,151)" stroke-width="1.51"></path><path d="M168,106L199,197L244,145Z" fill="rgb(254,203,123)" stroke="rgb(254,203,123)" stroke-width="1.51"></path><path d="M485,-23L412,-10L441,72Z" fill="rgb(185,123,126)" stroke="rgb(185,123,126)" stroke-width="1.51"></path><path d="M514,100L506,55L441,72Z" fill="rgb(197,138,135)" stroke="rgb(197,138,135)" stroke-width="1.51"></path><path d="M311,-83L292,-20L366,3Z" fill="rgb(215,141,119)" stroke="rgb(215,141,119)" stroke-width="1.51"></path><path d="M366,3L292,-20L365,28Z" fill="rgb(214,141,127)" stroke="rgb(214,141,127)" stroke-width="1.51"></path><path d="M514,100L530,78L506,55Z" fill="rgb(186,125,129)" stroke="rgb(186,125,129)" stroke-width="1.51"></path><path d="M591,101L530,78L514,100Z" fill="rgb(178,122,129)" stroke="rgb(178,122,129)" stroke-width="1.51"></path><path d="M158,26L168,106L258,58Z" fill="rgb(245,139,81)" stroke="rgb(245,139,81)" stroke-width="1.51"></path><path d="M258,58L168,106L244,145Z" fill="rgb(254,179,107)" stroke="rgb(254,179,107)" stroke-width="1.51"></path><path d="M133,221L190,264L199,197Z" fill="rgb(250,208,161)" stroke="rgb(250,208,161)" stroke-width="1.51"></path><path d="M199,197L190,264L241,199Z" fill="rgb(251,224,170)" stroke="rgb(251,224,170)" stroke-width="1.51"></path><path d="M413,252L509,298L511,199Z" fill="rgb(166,206,227)" stroke="rgb(166,206,227)" stroke-width="1.51"></path><path d="M441,362L413,252L324,257Z" fill="rgb(177,217,234)" stroke="rgb(177,217,234)" stroke-width="1.51"></path><path d="M314,377L324,257L280,264Z" fill="rgb(202,224,210)" stroke="rgb(202,224,210)" stroke-width="1.51"></path><path d="M606,120L591,101L514,100Z" fill="rgb(173,117,130)" stroke="rgb(173,117,130)" stroke-width="1.51"></path><path d="M455,328L509,298L413,252Z" fill="rgb(145,195,221)" stroke="rgb(145,195,221)" stroke-width="1.51"></path><path d="M380,-123L311,-83L366,3Z" fill="rgb(210,138,132)" stroke="rgb(210,138,132)" stroke-width="1.51"></path><path d="M506,55L485,-23L441,72Z" fill="rgb(187,120,122)" stroke="rgb(187,120,122)" stroke-width="1.51"></path><path d="M539,-27L485,-23L506,55Z" fill="rgb(154,92,112)" stroke="rgb(154,92,112)" stroke-width="1.51"></path><path d="M189,335L265,358L280,264Z" fill="rgb(195,199,181)" stroke="rgb(195,199,181)" stroke-width="1.51"></path><path d="M455,328L567,399L509,298Z" fill="rgb(93,143,194)" stroke="rgb(93,143,194)" stroke-width="1.51"></path><path d="M314,377L441,362L324,257Z" fill="rgb(165,199,224)" stroke="rgb(165,199,224)" stroke-width="1.51"></path><path d="M265,358L314,377L280,264Z" fill="rgb(186,200,192)" stroke="rgb(186,200,192)" stroke-width="1.51"></path><path d="M184,-49L158,26L258,58Z" fill="rgb(219,116,73)" stroke="rgb(219,116,73)" stroke-width="1.51"></path><path d="M168,106L133,221L199,197Z" fill="rgb(255,198,125)" stroke="rgb(255,198,125)" stroke-width="1.51"></path><path d="M190,264L189,335L280,264Z" fill="rgb(216,207,179)" stroke="rgb(216,207,179)" stroke-width="1.51"></path><path d="M84,126L133,221L168,106Z" fill="rgb(252,167,101)" stroke="rgb(252,167,101)" stroke-width="1.51"></path><path d="M380,-123L366,3L412,-10Z" fill="rgb(199,133,132)" stroke="rgb(199,133,132)" stroke-width="1.51"></path><path d="M292,-20L184,-49L258,58Z" fill="rgb(214,129,89)" stroke="rgb(214,129,89)" stroke-width="1.51"></path><path d="M593,197L514,100L511,199Z" fill="rgb(174,171,168)" stroke="rgb(174,171,168)" stroke-width="1.51"></path><path d="M530,78L539,-27L506,55Z" fill="rgb(170,97,112)" stroke="rgb(170,97,112)" stroke-width="1.51"></path><path d="M594,255L593,197L511,199Z" fill="rgb(159,166,193)" stroke="rgb(159,166,193)" stroke-width="1.51"></path><path d="M311,-83L293,-87L292,-20Z" fill="rgb(218,143,109)" stroke="rgb(218,143,109)" stroke-width="1.51"></path><path d="M247,427L358,411L314,377Z" fill="rgb(160,148,176)" stroke="rgb(160,148,176)" stroke-width="1.51"></path><path d="M133,275L189,335L190,264Z" fill="rgb(217,185,160)" stroke="rgb(217,185,160)" stroke-width="1.51"></path><path d="M593,197L606,120L514,100Z" fill="rgb(171,138,146)" stroke="rgb(171,138,146)" stroke-width="1.51"></path><path d="M618,68L530,78L591,101Z" fill="rgb(170,93,118)" stroke="rgb(170,93,118)" stroke-width="1.51"></path><path d="M618,68L539,-27L530,78Z" fill="rgb(162,77,104)" stroke="rgb(162,77,104)" stroke-width="1.51"></path><path d="M482,-97L380,-123L412,-10Z" fill="rgb(185,125,128)" stroke="rgb(185,125,128)" stroke-width="1.51"></path><path d="M133,221L133,275L190,264Z" fill="rgb(239,190,162)" stroke="rgb(239,190,162)" stroke-width="1.51"></path><path d="M509,298L594,255L511,199Z" fill="rgb(144,175,213)" stroke="rgb(144,175,213)" stroke-width="1.51"></path><path d="M593,197L622,219L606,120Z" fill="rgb(163,140,161)" stroke="rgb(163,140,161)" stroke-width="1.51"></path><path d="M580,327L594,255L509,298Z" fill="rgb(111,147,197)" stroke="rgb(111,147,197)" stroke-width="1.51"></path><path d="M314,377L358,411L441,362Z" fill="rgb(141,155,204)" stroke="rgb(141,155,204)" stroke-width="1.51"></path><path d="M247,427L314,377L265,358Z" fill="rgb(166,153,169)" stroke="rgb(166,153,169)" stroke-width="1.51"></path><path d="M293,-87L184,-49L292,-20Z" fill="rgb(216,132,93)" stroke="rgb(216,132,93)" stroke-width="1.51"></path><path d="M683,34L618,68L710,141Z" fill="rgb(164,79,113)" stroke="rgb(164,79,113)" stroke-width="1.51"></path><path d="M606,120L618,68L591,101Z" fill="rgb(165,91,119)" stroke="rgb(165,91,119)" stroke-width="1.51"></path><path d="M133,-124L85,-31L184,-49Z" fill="rgb(206,75,55)" stroke="rgb(206,75,55)" stroke-width="1.51"></path><path d="M311,-83L380,-123L293,-87Z" fill="rgb(214,141,122)" stroke="rgb(214,141,122)" stroke-width="1.51"></path><path d="M482,-97L412,-10L485,-23Z" fill="rgb(171,113,122)" stroke="rgb(171,113,122)" stroke-width="1.51"></path><path d="M594,255L622,219L593,197Z" fill="rgb(151,145,188)" stroke="rgb(151,145,188)" stroke-width="1.51"></path><path d="M87,51L168,106L158,26Z" fill="rgb(239,107,64)" stroke="rgb(239,107,64)" stroke-width="1.51"></path><path d="M87,51L84,126L168,106Z" fill="rgb(245,118,70)" stroke="rgb(245,118,70)" stroke-width="1.51"></path><path d="M133,221L23,278L133,275Z" fill="rgb(232,163,145)" stroke="rgb(232,163,145)" stroke-width="1.51"></path><path d="M539,-27L482,-97L485,-23Z" fill="rgb(156,95,114)" stroke="rgb(156,95,114)" stroke-width="1.51"></path><path d="M578,-120L482,-97L539,-27Z" fill="rgb(145,80,107)" stroke="rgb(145,80,107)" stroke-width="1.51"></path><path d="M594,255L607,300L622,219Z" fill="rgb(131,138,195)" stroke="rgb(131,138,195)" stroke-width="1.51"></path><path d="M567,399L580,327L509,298Z" fill="rgb(80,123,184)" stroke="rgb(80,123,184)" stroke-width="1.51"></path><path d="M567,399L455,328L441,362Z" fill="rgb(90,139,192)" stroke="rgb(90,139,192)" stroke-width="1.51"></path><path d="M63,30L87,51L85,-31Z" fill="rgb(205,49,43)" stroke="rgb(205,49,43)" stroke-width="1.51"></path><path d="M358,411L399,435L441,362Z" fill="rgb(125,136,194)" stroke="rgb(125,136,194)" stroke-width="1.51"></path><path d="M418,504L399,435L311,522Z" fill="rgb(135,140,197)" stroke="rgb(135,140,197)" stroke-width="1.51"></path><path d="M580,327L607,300L594,255Z" fill="rgb(107,128,189)" stroke="rgb(107,128,189)" stroke-width="1.51"></path><path d="M189,335L247,427L265,358Z" fill="rgb(171,154,158)" stroke="rgb(171,154,158)" stroke-width="1.51"></path><path d="M218,440L247,427L189,335Z" fill="rgb(166,125,143)" stroke="rgb(166,125,143)" stroke-width="1.51"></path><path d="M133,275L134,365L189,335Z" fill="rgb(198,157,145)" stroke="rgb(198,157,145)" stroke-width="1.51"></path><path d="M84,126L52,171L133,221Z" fill="rgb(248,161,104)" stroke="rgb(248,161,104)" stroke-width="1.51"></path><path d="M26,137L52,171L84,126Z" fill="rgb(236,133,80)" stroke="rgb(236,133,80)" stroke-width="1.51"></path><path d="M35,366L134,365L133,275Z" fill="rgb(189,125,128)" stroke="rgb(189,125,128)" stroke-width="1.51"></path><path d="M399,435L487,437L441,362Z" fill="rgb(105,124,187)" stroke="rgb(105,124,187)" stroke-width="1.51"></path><path d="M580,327L631,327L607,300Z" fill="rgb(89,113,180)" stroke="rgb(89,113,180)" stroke-width="1.51"></path><path d="M87,51L26,137L84,126Z" fill="rgb(235,107,63)" stroke="rgb(235,107,63)" stroke-width="1.51"></path><path d="M85,-31L87,51L158,26Z" fill="rgb(211,66,50)" stroke="rgb(211,66,50)" stroke-width="1.51"></path><path d="M134,365L218,440L189,335Z" fill="rgb(173,127,136)" stroke="rgb(173,127,136)" stroke-width="1.51"></path><path d="M311,522L399,435L358,411Z" fill="rgb(144,144,197)" stroke="rgb(144,144,197)" stroke-width="1.51"></path><path d="M399,435L418,504L487,437Z" fill="rgb(109,127,188)" stroke="rgb(109,127,188)" stroke-width="1.51"></path><path d="M487,437L567,399L441,362Z" fill="rgb(79,104,175)" stroke="rgb(79,104,175)" stroke-width="1.51"></path><path d="M567,399L631,327L580,327Z" fill="rgb(68,95,170)" stroke="rgb(68,95,170)" stroke-width="1.51"></path><path d="M607,300L719,224L622,219Z" fill="rgb(137,141,197)" stroke="rgb(137,141,197)" stroke-width="1.51"></path><path d="M683,34L654,-18L618,68Z" fill="rgb(145,48,95)" stroke="rgb(145,48,95)" stroke-width="1.51"></path><path d="M184,-49L85,-31L158,26Z" fill="rgb(207,80,57)" stroke="rgb(207,80,57)" stroke-width="1.51"></path><path d="M172,-127L184,-49L293,-87Z" fill="rgb(213,118,79)" stroke="rgb(213,118,79)" stroke-width="1.51"></path><path d="M63,30L26,137L87,51Z" fill="rgb(227,75,50)" stroke="rgb(227,75,50)" stroke-width="1.51"></path><path d="M52,171L23,278L133,221Z" fill="rgb(241,160,130)" stroke="rgb(241,160,130)" stroke-width="1.51"></path><path d="M380,-123L172,-127L293,-87Z" fill="rgb(217,139,103)" stroke="rgb(217,139,103)" stroke-width="1.51"></path><path d="M133,-124L68,-31L85,-31Z" fill="rgb(198,52,47)" stroke="rgb(198,52,47)" stroke-width="1.51"></path><path d="M85,-31L68,-31L63,30Z" fill="rgb(193,37,41)" stroke="rgb(193,37,41)" stroke-width="1.51"></path><path d="M-50,97L-27,206L26,137Z" fill="rgb(213,120,80)" stroke="rgb(213,120,80)" stroke-width="1.51"></path><path d="M618,68L654,-18L539,-27Z" fill="rgb(132,40,93)" stroke="rgb(132,40,93)" stroke-width="1.51"></path><path d="M618,68L606,120L710,141Z" fill="rgb(166,102,124)" stroke="rgb(166,102,124)" stroke-width="1.51"></path><path d="M710,141L606,120L622,219Z" fill="rgb(164,134,151)" stroke="rgb(164,134,151)" stroke-width="1.51"></path><path d="M482,-97L578,-120L380,-123Z" fill="rgb(164,106,118)" stroke="rgb(164,106,118)" stroke-width="1.51"></path><path d="M380,-123L578,-120L172,-127Z" fill="rgb(203,135,134)" stroke="rgb(203,135,134)" stroke-width="1.51"></path><path d="M654,-18L578,-120L539,-27Z" fill="rgb(130,45,95)" stroke="rgb(130,45,95)" stroke-width="1.51"></path><path d="M719,224L710,141L622,219Z" fill="rgb(162,146,170)" stroke="rgb(162,146,170)" stroke-width="1.51"></path><path d="M172,-127L133,-124L184,-49Z" fill="rgb(209,92,62)" stroke="rgb(209,92,62)" stroke-width="1.51"></path><path d="M-27,206L23,278L52,171Z" fill="rgb(221,145,122)" stroke="rgb(221,145,122)" stroke-width="1.51"></path><path d="M99,425L204,475L218,440Z" fill="rgb(166,106,127)" stroke="rgb(166,106,127)" stroke-width="1.51"></path><path d="M99,425L218,440L134,365Z" fill="rgb(166,94,120)" stroke="rgb(166,94,120)" stroke-width="1.51"></path><path d="M218,440L274,512L247,427Z" fill="rgb(164,135,153)" stroke="rgb(164,135,153)" stroke-width="1.51"></path><path d="M571,475L612,420L567,399Z" fill="rgb(53,63,154)" stroke="rgb(53,63,154)" stroke-width="1.51"></path><path d="M274,512L358,411L247,427Z" fill="rgb(162,146,170)" stroke="rgb(162,146,170)" stroke-width="1.51"></path><path d="M631,327L719,224L607,300Z" fill="rgb(113,130,190)" stroke="rgb(113,130,190)" stroke-width="1.51"></path><path d="M631,327L744,288L719,224Z" fill="rgb(116,132,191)" stroke="rgb(116,132,191)" stroke-width="1.51"></path><path d="M567,399L612,420L631,327Z" fill="rgb(55,68,156)" stroke="rgb(55,68,156)" stroke-width="1.51"></path><path d="M571,475L567,399L487,437Z" fill="rgb(61,84,164)" stroke="rgb(61,84,164)" stroke-width="1.51"></path><path d="M204,475L274,512L218,440Z" fill="rgb(164,130,148)" stroke="rgb(164,130,148)" stroke-width="1.51"></path><path d="M274,512L311,522L358,411Z" fill="rgb(158,147,179)" stroke="rgb(158,147,179)" stroke-width="1.51"></path><path d="M204,475L123,530L274,512Z" fill="rgb(166,118,136)" stroke="rgb(166,118,136)" stroke-width="1.51"></path><path d="M62,397L99,425L134,365Z" fill="rgb(162,73,108)" stroke="rgb(162,73,108)" stroke-width="1.51"></path><path d="M35,366L62,397L134,365Z" fill="rgb(165,84,109)" stroke="rgb(165,84,109)" stroke-width="1.51"></path><path d="M23,278L35,366L133,275Z" fill="rgb(198,130,126)" stroke="rgb(198,130,126)" stroke-width="1.51"></path><path d="M23,278L-57,323L35,366Z" fill="rgb(162,105,118)" stroke="rgb(162,105,118)" stroke-width="1.51"></path><path d="M26,137L-27,206L52,171Z" fill="rgb(223,137,94)" stroke="rgb(223,137,94)" stroke-width="1.51"></path><path d="M-27,69L26,137L63,30Z" fill="rgb(212,70,52)" stroke="rgb(212,70,52)" stroke-width="1.51"></path><path d="M505,520L571,475L487,437Z" fill="rgb(70,94,169)" stroke="rgb(70,94,169)" stroke-width="1.51"></path><path d="M654,-18L650,-119L578,-120Z" fill="rgb(128,38,93)" stroke="rgb(128,38,93)" stroke-width="1.51"></path><path d="M683,34L712,-16L654,-18Z" fill="rgb(128,38,93)" stroke="rgb(128,38,93)" stroke-width="1.51"></path><path d="M710,141L712,-16L683,34Z" fill="rgb(157,61,102)" stroke="rgb(157,61,102)" stroke-width="1.51"></path><path d="M744,288L712,-16L710,141Z" fill="rgb(166,120,139)" stroke="rgb(166,120,139)" stroke-width="1.51"></path><path d="M-14,-47L-27,69L63,30Z" fill="rgb(178,18,39)" stroke="rgb(178,18,39)" stroke-width="1.51"></path><path d="M-14,-47L63,30L68,-31Z" fill="rgb(181,21,39)" stroke="rgb(181,21,39)" stroke-width="1.51"></path><path d="M711,-70L650,-119L654,-18Z" fill="rgb(128,38,93)" stroke="rgb(128,38,93)" stroke-width="1.51"></path><path d="M578,-120L650,-119L172,-127Z" fill="rgb(169,111,121)" stroke="rgb(169,111,121)" stroke-width="1.51"></path><path d="M418,504L505,520L487,437Z" fill="rgb(92,115,181)" stroke="rgb(92,115,181)" stroke-width="1.51"></path><path d="M311,522L505,520L418,504Z" fill="rgb(120,134,192)" stroke="rgb(120,134,192)" stroke-width="1.51"></path><path d="M-27,69L-50,97L26,137Z" fill="rgb(208,86,59)" stroke="rgb(208,86,59)" stroke-width="1.51"></path><path d="M731,355L744,288L631,327Z" fill="rgb(85,110,178)" stroke="rgb(85,110,178)" stroke-width="1.51"></path><path d="M719,224L744,288L710,141Z" fill="rgb(154,146,184)" stroke="rgb(154,146,184)" stroke-width="1.51"></path><path d="M731,355L631,327L612,420Z" fill="rgb(59,80,162)" stroke="rgb(59,80,162)" stroke-width="1.51"></path><path d="M712,-16L711,-70L654,-18Z" fill="rgb(128,38,93)" stroke="rgb(128,38,93)" stroke-width="1.51"></path><path d="M744,288L711,-70L712,-16Z" fill="rgb(161,70,107)" stroke="rgb(161,70,107)" stroke-width="1.51"></path><path d="M-130,28L-108,129L-50,97Z" fill="rgb(205,70,54)" stroke="rgb(205,70,54)" stroke-width="1.51"></path><path d="M13,-112L-14,-47L68,-31Z" fill="rgb(174,13,39)" stroke="rgb(174,13,39)" stroke-width="1.51"></path><path d="M737,405L731,355L612,420Z" fill="rgb(52,60,152)" stroke="rgb(52,60,152)" stroke-width="1.51"></path><path d="M505,520L643,468L571,475Z" fill="rgb(55,68,156)" stroke="rgb(55,68,156)" stroke-width="1.51"></path><path d="M571,475L643,468L612,420Z" fill="rgb(49,54,149)" stroke="rgb(49,54,149)" stroke-width="1.51"></path><path d="M133,-124L13,-112L68,-31Z" fill="rgb(193,37,41)" stroke="rgb(193,37,41)" stroke-width="1.51"></path><path d="M-27,206L-54,301L23,278Z" fill="rgb(197,132,132)" stroke="rgb(197,132,132)" stroke-width="1.51"></path><path d="M5,471L99,425L62,397Z" fill="rgb(151,51,96)" stroke="rgb(151,51,96)" stroke-width="1.51"></path><path d="M-140,248L-54,301L-27,206Z" fill="rgb(202,134,134)" stroke="rgb(202,134,134)" stroke-width="1.51"></path><path d="M5,471L62,397L35,366Z" fill="rgb(142,46,95)" stroke="rgb(142,46,95)" stroke-width="1.51"></path><path d="M5,471L123,530L99,425Z" fill="rgb(156,59,100)" stroke="rgb(156,59,100)" stroke-width="1.51"></path><path d="M99,425L123,530L204,475Z" fill="rgb(165,90,118)" stroke="rgb(165,90,118)" stroke-width="1.51"></path><path d="M274,512L123,530L311,522Z" fill="rgb(164,132,150)" stroke="rgb(164,132,150)" stroke-width="1.51"></path><path d="M311,522L123,530L505,520Z" fill="rgb(158,147,179)" stroke="rgb(158,147,179)" stroke-width="1.51"></path><path d="M-54,301L-57,323L23,278Z" fill="rgb(175,116,124)" stroke="rgb(175,116,124)" stroke-width="1.51"></path><path d="M-115,358L-57,323L-54,301Z" fill="rgb(160,100,116)" stroke="rgb(160,100,116)" stroke-width="1.51"></path><path d="M695,473L737,405L612,420Z" fill="rgb(49,54,149)" stroke="rgb(49,54,149)" stroke-width="1.51"></path><path d="M731,355L737,405L744,288Z" fill="rgb(69,93,169)" stroke="rgb(69,93,169)" stroke-width="1.51"></path><path d="M-50,97L-108,129L-27,206Z" fill="rgb(213,118,79)" stroke="rgb(213,118,79)" stroke-width="1.51"></path><path d="M-130,28L-50,97L-27,69Z" fill="rgb(199,53,47)" stroke="rgb(199,53,47)" stroke-width="1.51"></path><path d="M-130,28L-27,69L-14,-47Z" fill="rgb(175,14,39)" stroke="rgb(175,14,39)" stroke-width="1.51"></path><path d="M643,468L695,473L612,420Z" fill="rgb(49,54,149)" stroke="rgb(49,54,149)" stroke-width="1.51"></path><path d="M505,520L695,473L643,468Z" fill="rgb(49,54,149)" stroke="rgb(49,54,149)" stroke-width="1.51"></path><path d="M-65,413L5,471L35,366Z" fill="rgb(128,38,93)" stroke="rgb(128,38,93)" stroke-width="1.51"></path><path d="M-57,323L-65,413L35,366Z" fill="rgb(140,70,103)" stroke="rgb(140,70,103)" stroke-width="1.51"></path><path d="M-108,129L-123,168L-27,206Z" fill="rgb(215,131,92)" stroke="rgb(215,131,92)" stroke-width="1.51"></path><path d="M-108,129L-130,28L-123,168Z" fill="rgb(209,92,62)" stroke="rgb(209,92,62)" stroke-width="1.51"></path><path d="M13,-112L-68,-83L-14,-47Z" fill="rgb(165,0,38)" stroke="rgb(165,0,38)" stroke-width="1.51"></path><path d="M-115,358L-65,413L-57,323Z" fill="rgb(141,73,104)" stroke="rgb(141,73,104)" stroke-width="1.51"></path><path d="M-142,-6L-130,28L-14,-47Z" fill="rgb(165,0,38)" stroke="rgb(165,0,38)" stroke-width="1.51"></path><path d="M-123,168L-140,248L-27,206Z" fill="rgb(216,143,114)" stroke="rgb(216,143,114)" stroke-width="1.51"></path><path d="M-142,-6L-140,248L-123,168Z" fill="rgb(212,113,75)" stroke="rgb(212,113,75)" stroke-width="1.51"></path><path d="M-140,248L-115,358L-54,301Z" fill="rgb(174,115,123)" stroke="rgb(174,115,123)" stroke-width="1.51"></path><path d="M-130,28L-142,-6L-123,168Z" fill="rgb(198,52,47)" stroke="rgb(198,52,47)" stroke-width="1.51"></path><path d="M-68,-83L-142,-6L-14,-47Z" fill="rgb(165,0,38)" stroke="rgb(165,0,38)" stroke-width="1.51"></path><path d="M-97,469L-11,530L5,471Z" fill="rgb(128,38,93)" stroke="rgb(128,38,93)" stroke-width="1.51"></path><path d="M5,471L-11,530L123,530Z" fill="rgb(144,47,95)" stroke="rgb(144,47,95)" stroke-width="1.51"></path><path d="M-97,469L5,471L-65,413Z" fill="rgb(128,38,93)" stroke="rgb(128,38,93)" stroke-width="1.51"></path><path d="M13,-112L-109,-118L-68,-83Z" fill="rgb(165,0,38)" stroke="rgb(165,0,38)" stroke-width="1.51"></path><path d="M-68,-83L-109,-118L-142,-6Z" fill="rgb(165,0,38)" stroke="rgb(165,0,38)" stroke-width="1.51"></path><path d="M133,-124L-109,-118L13,-112Z" fill="rgb(170,7,38)" stroke="rgb(170,7,38)" stroke-width="1.51"></path><path d="M172,-127L-109,-118L133,-124Z" fill="rgb(191,33,40)" stroke="rgb(191,33,40)" stroke-width="1.51"></path><path d="M-126,440L-65,413L-115,358Z" fill="rgb(128,38,93)" stroke="rgb(128,38,93)" stroke-width="1.51"></path><path d="M-126,440L-97,469L-65,413Z" fill="rgb(128,38,93)" stroke="rgb(128,38,93)" stroke-width="1.51"></path><path d="M-140,248L-126,440L-115,358Z" fill="rgb(148,85,109)" stroke="rgb(148,85,109)" stroke-width="1.51"></path></svg>