<svg width="600" height="400" xmlns="http://www.w3.org/2000/svg"><path d="M265,203L188,201L258,273Z" fill="rgb(250,151,102)" stroke="rgb(250,151,102)" stroke-width="1.51"></path><path d="M188,201L185,271L258,273Z" fill="rgb(248,149,104)" stroke="rgb(248,149,104)" stroke-width="1.51"></path><path d="M265,203L263,130L188,201Z" fill="rgb(253,171,116)" stroke="rgb(253,171,116)" stroke-width="1.51"></path><path d="M188,201L114,196L185,271Z" fill="rgb(252,167,117)" stroke="rgb(252,167,117)" stroke-width="1.51"></path><path d="M263,130L181,130L188,201Z" fill="rgb(253,188,133)" stroke="rgb(253,188,133)" stroke-width="1.51"></path><path d="M181,130L114,196L188,201Z" fill="rgb(254,186,132)" stroke="rgb(254,186,132)" stroke-width="1.51"></path><path d="M258,273L337,275L265,203Z" fill="rgb(246,126,84)" stroke="rgb(246,126,84)" stroke-width="1.51"></path><path d="M265,203L342,205L263,130Z" fill="rgb(253,154,101)" stroke="rgb(253,154,101)" stroke-width="1.51"></path><path d="M337,275L342,205L265,203Z" fill="rgb(248,126,82)" stroke="rgb(248,126,82)" stroke-width="1.51"></path><path d="M190,355L266,349L258,273Z" fill="rgb(228,113,68)" stroke="rgb(228,113,68)" stroke-width="1.51"></path><path d="M258,273L266,349L337,275Z" fill="rgb(236,104,63)" stroke="rgb(236,104,63)" stroke-width="1.51"></path><path d="M114,196L110,277L185,271Z" fill="rgb(250,162,118)" stroke="rgb(250,162,118)" stroke-width="1.51"></path><path d="M185,271L190,355L258,273Z" fill="rgb(238,127,82)" stroke="rgb(238,127,82)" stroke-width="1.51"></path><path d="M106,345L190,355L185,271Z" fill="rgb(231,129,83)" stroke="rgb(231,129,83)" stroke-width="1.51"></path><path d="M181,130L107,130L114,196Z" fill="rgb(253,201,148)" stroke="rgb(253,201,148)" stroke-width="1.51"></path><path d="M114,196L41,269L110,277Z" fill="rgb(252,168,131)" stroke="rgb(252,168,131)" stroke-width="1.51"></path><path d="M342,205L338,120L263,130Z" fill="rgb(252,160,108)" stroke="rgb(252,160,108)" stroke-width="1.51"></path><path d="M263,130L187,54L181,130Z" fill="rgb(253,201,146)" stroke="rgb(253,201,146)" stroke-width="1.51"></path><path d="M181,130L114,55L107,130Z" fill="rgb(253,213,161)" stroke="rgb(253,213,161)" stroke-width="1.51"></path><path d="M414,279L409,196L342,205Z" fill="rgb(240,107,72)" stroke="rgb(240,107,72)" stroke-width="1.51"></path><path d="M266,349L343,344L337,275Z" fill="rgb(225,88,51)" stroke="rgb(225,88,51)" stroke-width="1.51"></path><path d="M336,419L343,344L266,349Z" fill="rgb(204,78,43)" stroke="rgb(204,78,43)" stroke-width="1.51"></path><path d="M110,277L106,345L185,271Z" fill="rgb(241,141,97)" stroke="rgb(241,141,97)" stroke-width="1.51"></path><path d="M41,269L106,345L110,277Z" fill="rgb(244,147,110)" stroke="rgb(244,147,110)" stroke-width="1.51"></path><path d="M338,120L268,56L263,130Z" fill="rgb(254,180,126)" stroke="rgb(254,180,126)" stroke-width="1.51"></path><path d="M268,56L187,54L263,130Z" fill="rgb(254,199,149)" stroke="rgb(254,199,149)" stroke-width="1.51"></path><path d="M414,279L342,205L337,275Z" fill="rgb(240,103,72)" stroke="rgb(240,103,72)" stroke-width="1.51"></path><path d="M342,205L409,196L338,120Z" fill="rgb(248,138,93)" stroke="rgb(248,138,93)" stroke-width="1.51"></path><path d="M37,193L41,269L114,196Z" fill="rgb(255,181,142)" stroke="rgb(255,181,142)" stroke-width="1.51"></path><path d="M107,130L37,193L114,196Z" fill="rgb(255,198,152)" stroke="rgb(255,198,152)" stroke-width="1.51"></path><path d="M36,118L37,193L107,130Z" fill="rgb(255,212,170)" stroke="rgb(255,212,170)" stroke-width="1.51"></path><path d="M343,344L414,279L337,275Z" fill="rgb(228,80,53)" stroke="rgb(228,80,53)" stroke-width="1.51"></path><path d="M190,355L257,430L266,349Z" fill="rgb(203,102,61)" stroke="rgb(203,102,61)" stroke-width="1.51"></path><path d="M343,344L410,355L414,279Z" fill="rgb(216,64,40)" stroke="rgb(216,64,40)" stroke-width="1.51"></path><path d="M185,429L257,430L190,355Z" fill="rgb(192,105,66)" stroke="rgb(192,105,66)" stroke-width="1.51"></path><path d="M110,430L185,429L190,355Z" fill="rgb(194,113,73)" stroke="rgb(194,113,73)" stroke-width="1.51"></path><path d="M187,54L114,55L181,130Z" fill="rgb(254,214,164)" stroke="rgb(254,214,164)" stroke-width="1.51"></path><path d="M268,56L262,-23L187,54Z" fill="rgb(255,208,169)" stroke="rgb(255,208,169)" stroke-width="1.51"></path><path d="M187,54L181,-23L114,55Z" fill="rgb(255,223,184)" stroke="rgb(255,223,184)" stroke-width="1.51"></path><path d="M338,120L334,49L268,56Z" fill="rgb(255,179,132)" stroke="rgb(255,179,132)" stroke-width="1.51"></path><path d="M409,52L334,49L338,120Z" fill="rgb(252,167,126)" stroke="rgb(252,167,126)" stroke-width="1.51"></path><path d="M257,430L336,419L266,349Z" fill="rgb(190,83,47)" stroke="rgb(190,83,47)" stroke-width="1.51"></path><path d="M409,196L417,126L338,120Z" fill="rgb(246,143,98)" stroke="rgb(246,143,98)" stroke-width="1.51"></path><path d="M491,197L417,126L409,196Z" fill="rgb(238,116,73)" stroke="rgb(238,116,73)" stroke-width="1.51"></path><path d="M336,419L410,355L343,344Z" fill="rgb(198,64,38)" stroke="rgb(198,64,38)" stroke-width="1.51"></path><path d="M106,345L110,430L190,355Z" fill="rgb(208,121,80)" stroke="rgb(208,121,80)" stroke-width="1.51"></path><path d="M41,269L36,349L106,345Z" fill="rgb(237,143,109)" stroke="rgb(237,143,109)" stroke-width="1.51"></path><path d="M-45,279L36,349L41,269Z" fill="rgb(247,154,127)" stroke="rgb(247,154,127)" stroke-width="1.51"></path><path d="M114,55L36,118L107,130Z" fill="rgb(254,220,175)" stroke="rgb(254,220,175)" stroke-width="1.51"></path><path d="M37,193L-31,193L41,269Z" fill="rgb(255,186,154)" stroke="rgb(255,186,154)" stroke-width="1.51"></path><path d="M41,429L110,430L106,345Z" fill="rgb(197,123,92)" stroke="rgb(197,123,92)" stroke-width="1.51"></path><path d="M191,506L267,496L257,430Z" fill="rgb(191,98,60)" stroke="rgb(191,98,60)" stroke-width="1.51"></path><path d="M483,347L480,277L414,279Z" fill="rgb(212,46,29)" stroke="rgb(212,46,29)" stroke-width="1.51"></path><path d="M414,279L480,277L409,196Z" fill="rgb(230,81,55)" stroke="rgb(230,81,55)" stroke-width="1.51"></path><path d="M417,126L409,52L338,120Z" fill="rgb(248,155,110)" stroke="rgb(248,155,110)" stroke-width="1.51"></path><path d="M490,48L409,52L417,126Z" fill="rgb(243,146,105)" stroke="rgb(243,146,105)" stroke-width="1.51"></path><path d="M334,49L262,-23L268,56Z" fill="rgb(255,194,155)" stroke="rgb(255,194,155)" stroke-width="1.51"></path><path d="M333,-29L262,-23L334,49Z" fill="rgb(255,192,160)" stroke="rgb(255,192,160)" stroke-width="1.51"></path><path d="M36,118L-31,193L37,193Z" fill="rgb(255,207,172)" stroke="rgb(255,207,172)" stroke-width="1.51"></path><path d="M262,-23L181,-23L187,54Z" fill="rgb(255,219,185)" stroke="rgb(255,219,185)" stroke-width="1.51"></path><path d="M114,55L30,53L36,118Z" fill="rgb(254,228,193)" stroke="rgb(254,228,193)" stroke-width="1.51"></path><path d="M336,419L415,427L410,355Z" fill="rgb(180,52,33)" stroke="rgb(180,52,33)" stroke-width="1.51"></path><path d="M257,430L267,496L336,419Z" fill="rgb(190,82,47)" stroke="rgb(190,82,47)" stroke-width="1.51"></path><path d="M191,506L257,430L185,429Z" fill="rgb(192,105,66)" stroke="rgb(192,105,66)" stroke-width="1.51"></path><path d="M36,118L-41,117L-31,193Z" fill="rgb(255,219,185)" stroke="rgb(255,219,185)" stroke-width="1.51"></path><path d="M35,-31L30,53L114,55Z" fill="rgb(255,237,212)" stroke="rgb(255,237,212)" stroke-width="1.51"></path><path d="M480,277L491,197L409,196Z" fill="rgb(229,87,54)" stroke="rgb(229,87,54)" stroke-width="1.51"></path><path d="M112,493L191,506L185,429Z" fill="rgb(194,113,73)" stroke="rgb(194,113,73)" stroke-width="1.51"></path><path d="M36,349L41,429L106,345Z" fill="rgb(213,131,99)" stroke="rgb(213,131,99)" stroke-width="1.51"></path><path d="M-31,429L41,429L36,349Z" fill="rgb(200,130,108)" stroke="rgb(200,130,108)" stroke-width="1.51"></path><path d="M410,355L483,347L414,279Z" fill="rgb(208,45,27)" stroke="rgb(208,45,27)" stroke-width="1.51"></path><path d="M342,493L415,427L336,419Z" fill="rgb(183,60,37)" stroke="rgb(183,60,37)" stroke-width="1.51"></path><path d="M112,493L185,429L110,430Z" fill="rgb(194,117,79)" stroke="rgb(194,117,79)" stroke-width="1.51"></path><path d="M-31,193L-45,279L41,269Z" fill="rgb(255,177,152)" stroke="rgb(255,177,152)" stroke-width="1.51"></path><path d="M490,419L483,347L410,355Z" fill="rgb(182,25,14)" stroke="rgb(182,25,14)" stroke-width="1.51"></path><path d="M558,269L555,201L491,197Z" fill="rgb(210,75,41)" stroke="rgb(210,75,41)" stroke-width="1.51"></path><path d="M41,429L112,493L110,430Z" fill="rgb(197,123,91)" stroke="rgb(197,123,91)" stroke-width="1.51"></path><path d="M267,496L342,493L336,419Z" fill="rgb(188,74,42)" stroke="rgb(188,74,42)" stroke-width="1.51"></path><path d="M191,506L342,493L267,496Z" fill="rgb(190,89,52)" stroke="rgb(190,89,52)" stroke-width="1.51"></path><path d="M191,-96L115,-32L181,-23Z" fill="rgb(255,227,195)" stroke="rgb(255,227,195)" stroke-width="1.51"></path><path d="M407,-26L333,-29L334,49Z" fill="rgb(255,180,153)" stroke="rgb(255,180,153)" stroke-width="1.51"></path><path d="M409,52L407,-26L334,49Z" fill="rgb(253,170,140)" stroke="rgb(253,170,140)" stroke-width="1.51"></path><path d="M491,197L491,129L417,126Z" fill="rgb(234,121,76)" stroke="rgb(234,121,76)" stroke-width="1.51"></path><path d="M191,-96L181,-23L262,-23Z" fill="rgb(255,219,186)" stroke="rgb(255,219,186)" stroke-width="1.51"></path><path d="M181,-23L115,-32L114,55Z" fill="rgb(255,231,200)" stroke="rgb(255,231,200)" stroke-width="1.51"></path><path d="M-45,279L-38,353L36,349Z" fill="rgb(238,147,121)" stroke="rgb(238,147,121)" stroke-width="1.51"></path><path d="M-31,193L-109,197L-45,279Z" fill="rgb(255,186,156)" stroke="rgb(255,186,156)" stroke-width="1.51"></path><path d="M30,53L-41,117L36,118Z" fill="rgb(255,229,196)" stroke="rgb(255,229,196)" stroke-width="1.51"></path><path d="M-44,54L-41,117L30,53Z" fill="rgb(255,234,207)" stroke="rgb(255,234,207)" stroke-width="1.51"></path><path d="M482,-24L407,-26L409,52Z" fill="rgb(249,160,134)" stroke="rgb(249,160,134)" stroke-width="1.51"></path><path d="M41,429L39,499L112,493Z" fill="rgb(198,125,97)" stroke="rgb(198,125,97)" stroke-width="1.51"></path><path d="M-38,353L-31,429L36,349Z" fill="rgb(214,136,112)" stroke="rgb(214,136,112)" stroke-width="1.51"></path><path d="M-117,421L-31,429L-38,353Z" fill="rgb(200,131,111)" stroke="rgb(200,131,111)" stroke-width="1.51"></path><path d="M342,493L415,495L415,427Z" fill="rgb(179,51,32)" stroke="rgb(179,51,32)" stroke-width="1.51"></path><path d="M415,427L490,419L410,355Z" fill="rgb(172,32,19)" stroke="rgb(172,32,19)" stroke-width="1.51"></path><path d="M484,503L415,495L342,493Z" fill="rgb(176,42,26)" stroke="rgb(176,42,26)" stroke-width="1.51"></path><path d="M484,503L490,419L415,427Z" fill="rgb(167,22,14)" stroke="rgb(167,22,14)" stroke-width="1.51"></path><path d="M558,269L491,197L480,277Z" fill="rgb(213,66,41)" stroke="rgb(213,66,41)" stroke-width="1.51"></path><path d="M491,129L490,48L417,126Z" fill="rgb(236,135,89)" stroke="rgb(236,135,89)" stroke-width="1.51"></path><path d="M-31,429L39,499L41,429Z" fill="rgb(200,130,107)" stroke="rgb(200,130,107)" stroke-width="1.51"></path><path d="M112,493L39,499L191,506Z" fill="rgb(196,120,84)" stroke="rgb(196,120,84)" stroke-width="1.51"></path><path d="M-33,-30L-44,54L30,53Z" fill="rgb(255,243,226)" stroke="rgb(255,243,226)" stroke-width="1.51"></path><path d="M-41,117L-109,197L-31,193Z" fill="rgb(255,208,175)" stroke="rgb(255,208,175)" stroke-width="1.51"></path><path d="M115,-32L35,-31L114,55Z" fill="rgb(255,238,214)" stroke="rgb(255,238,214)" stroke-width="1.51"></path><path d="M491,197L555,201L491,129Z" fill="rgb(221,100,57)" stroke="rgb(221,100,57)" stroke-width="1.51"></path><path d="M491,129L566,123L490,48Z" fill="rgb(225,126,79)" stroke="rgb(225,126,79)" stroke-width="1.51"></path><path d="M558,269L480,277L561,348Z" fill="rgb(194,31,17)" stroke="rgb(194,31,17)" stroke-width="1.51"></path><path d="M257,-99L262,-23L333,-29Z" fill="rgb(255,199,166)" stroke="rgb(255,199,166)" stroke-width="1.51"></path><path d="M257,-99L191,-96L262,-23Z" fill="rgb(255,213,180)" stroke="rgb(255,213,180)" stroke-width="1.51"></path><path d="M115,-32L118,-102L35,-31Z" fill="rgb(255,237,214)" stroke="rgb(255,237,214)" stroke-width="1.51"></path><path d="M561,348L480,277L483,347Z" fill="rgb(192,24,11)" stroke="rgb(192,24,11)" stroke-width="1.51"></path><path d="M338,-103L257,-99L333,-29Z" fill="rgb(255,192,160)" stroke="rgb(255,192,160)" stroke-width="1.51"></path><path d="M-119,124L-109,197L-41,117Z" fill="rgb(255,218,184)" stroke="rgb(255,218,184)" stroke-width="1.51"></path><path d="M-45,279L-106,346L-38,353Z" fill="rgb(238,148,121)" stroke="rgb(238,148,121)" stroke-width="1.51"></path><path d="M-109,197L-116,276L-45,279Z" fill="rgb(255,175,150)" stroke="rgb(255,175,150)" stroke-width="1.51"></path><path d="M-116,276L-106,346L-45,279Z" fill="rgb(247,155,129)" stroke="rgb(247,155,129)" stroke-width="1.51"></path><path d="M257,-99L118,-102L191,-96Z" fill="rgb(255,223,190)" stroke="rgb(255,223,190)" stroke-width="1.51"></path><path d="M191,-96L118,-102L115,-32Z" fill="rgb(255,230,199)" stroke="rgb(255,230,199)" stroke-width="1.51"></path><path d="M490,419L561,348L483,347Z" fill="rgb(171,6,3)" stroke="rgb(171,6,3)" stroke-width="1.51"></path><path d="M561,429L561,348L490,419Z" fill="rgb(149,0,1)" stroke="rgb(149,0,1)" stroke-width="1.51"></path><path d="M407,-26L338,-103L333,-29Z" fill="rgb(255,180,153)" stroke="rgb(255,180,153)" stroke-width="1.51"></path><path d="M257,-99L338,-103L118,-102Z" fill="rgb(255,213,180)" stroke="rgb(255,213,180)" stroke-width="1.51"></path><path d="M415,-99L338,-103L407,-26Z" fill="rgb(254,173,148)" stroke="rgb(254,173,148)" stroke-width="1.51"></path><path d="M490,48L482,-24L409,52Z" fill="rgb(243,149,118)" stroke="rgb(243,149,118)" stroke-width="1.51"></path><path d="M555,201L566,123L491,129Z" fill="rgb(215,109,65)" stroke="rgb(215,109,65)" stroke-width="1.51"></path><path d="M635,198L566,123L555,201Z" fill="rgb(196,92,54)" stroke="rgb(196,92,54)" stroke-width="1.51"></path><path d="M635,198L555,201L558,269Z" fill="rgb(192,70,41)" stroke="rgb(192,70,41)" stroke-width="1.51"></path><path d="M-109,197L-119,124L-116,276Z" fill="rgb(255,195,161)" stroke="rgb(255,195,161)" stroke-width="1.51"></path><path d="M-44,54L-119,124L-41,117Z" fill="rgb(255,230,197)" stroke="rgb(255,230,197)" stroke-width="1.51"></path><path d="M-108,42L-119,124L-44,54Z" fill="rgb(255,235,208)" stroke="rgb(255,235,208)" stroke-width="1.51"></path><path d="M565,-22L482,-24L490,48Z" fill="rgb(233,143,116)" stroke="rgb(233,143,116)" stroke-width="1.51"></path><path d="M-31,429L-34,495L39,499Z" fill="rgb(200,131,111)" stroke="rgb(200,131,111)" stroke-width="1.51"></path><path d="M-108,500L-34,495L-31,429Z" fill="rgb(200,131,111)" stroke="rgb(200,131,111)" stroke-width="1.51"></path><path d="M35,-31L-33,-30L30,53Z" fill="rgb(255,246,233)" stroke="rgb(255,246,233)" stroke-width="1.51"></path><path d="M33,-107L-33,-30L35,-31Z" fill="rgb(255,246,233)" stroke="rgb(255,246,233)" stroke-width="1.51"></path><path d="M191,506L484,503L342,493Z" fill="rgb(185,67,40)" stroke="rgb(185,67,40)" stroke-width="1.51"></path><path d="M415,495L484,503L415,427Z" fill="rgb(172,32,20)" stroke="rgb(172,32,20)" stroke-width="1.51"></path><path d="M482,-24L415,-99L407,-26Z" fill="rgb(249,159,133)" stroke="rgb(249,159,133)" stroke-width="1.51"></path><path d="M-111,-22L-108,42L-44,54Z" fill="rgb(255,243,227)" stroke="rgb(255,243,227)" stroke-width="1.51"></path><path d="M561,494L561,429L490,419Z" fill="rgb(148,0,1)" stroke="rgb(148,0,1)" stroke-width="1.51"></path><path d="M561,348L631,281L558,269Z" fill="rgb(176,27,17)" stroke="rgb(176,27,17)" stroke-width="1.51"></path><path d="M482,-24L481,-104L415,-99Z" fill="rgb(245,153,127)" stroke="rgb(245,153,127)" stroke-width="1.51"></path><path d="M566,123L566,48L490,48Z" fill="rgb(219,127,88)" stroke="rgb(219,127,88)" stroke-width="1.51"></path><path d="M-106,346L-117,421L-38,353Z" fill="rgb(216,136,112)" stroke="rgb(216,136,112)" stroke-width="1.51"></path><path d="M-116,276L-117,421L-106,346Z" fill="rgb(231,142,114)" stroke="rgb(231,142,114)" stroke-width="1.51"></path><path d="M-119,124L-117,421L-116,276Z" fill="rgb(252,166,141)" stroke="rgb(252,166,141)" stroke-width="1.51"></path><path d="M-33,-30L-111,-22L-44,54Z" fill="rgb(255,247,236)" stroke="rgb(255,247,236)" stroke-width="1.51"></path><path d="M118,-102L33,-107L35,-31Z" fill="rgb(255,241,221)" stroke="rgb(255,241,221)" stroke-width="1.51"></path><path d="M338,-103L33,-107L118,-102Z" fill="rgb(255,227,194)" stroke="rgb(255,227,194)" stroke-width="1.51"></path><path d="M638,350L631,281L561,348Z" fill="rgb(161,14,8)" stroke="rgb(161,14,8)" stroke-width="1.51"></path><path d="M566,123L639,119L566,48Z" fill="rgb(197,116,77)" stroke="rgb(197,116,77)" stroke-width="1.51"></path><path d="M631,281L635,198L558,269Z" fill="rgb(182,57,36)" stroke="rgb(182,57,36)" stroke-width="1.51"></path><path d="M-109,-98L-111,-22L-33,-30Z" fill="rgb(255,247,236)" stroke="rgb(255,247,236)" stroke-width="1.51"></path><path d="M-108,42L-111,-22L-119,124Z" fill="rgb(255,240,218)" stroke="rgb(255,240,218)" stroke-width="1.51"></path><path d="M338,-103L481,-104L33,-107Z" fill="rgb(255,199,166)" stroke="rgb(255,199,166)" stroke-width="1.51"></path><path d="M415,-99L481,-104L338,-103Z" fill="rgb(252,165,140)" stroke="rgb(252,165,140)" stroke-width="1.51"></path><path d="M567,-100L481,-104L482,-24Z" fill="rgb(233,144,117)" stroke="rgb(233,144,117)" stroke-width="1.51"></path><path d="M633,424L638,350L561,348Z" fill="rgb(140,0,1)" stroke="rgb(140,0,1)" stroke-width="1.51"></path><path d="M484,503L561,494L490,419Z" fill="rgb(155,5,4)" stroke="rgb(155,5,4)" stroke-width="1.51"></path><path d="M566,48L565,-22L490,48Z" fill="rgb(222,136,105)" stroke="rgb(222,136,105)" stroke-width="1.51"></path><path d="M637,-19L565,-22L566,48Z" fill="rgb(204,132,110)" stroke="rgb(204,132,110)" stroke-width="1.51"></path><path d="M-34,495L-108,500L39,499Z" fill="rgb(200,131,111)" stroke="rgb(200,131,111)" stroke-width="1.51"></path><path d="M39,499L-108,500L191,506Z" fill="rgb(199,127,102)" stroke="rgb(199,127,102)" stroke-width="1.51"></path><path d="M-117,421L-108,500L-31,429Z" fill="rgb(200,131,111)" stroke="rgb(200,131,111)" stroke-width="1.51"></path><path d="M633,424L561,348L561,429Z" fill="rgb(132,0,1)" stroke="rgb(132,0,1)" stroke-width="1.51"></path><path d="M710,270L707,205L635,198Z" fill="rgb(186,68,40)" stroke="rgb(186,68,40)" stroke-width="1.51"></path><path d="M711,128L639,119L635,198Z" fill="rgb(192,103,64)" stroke="rgb(192,103,64)" stroke-width="1.51"></path><path d="M635,198L639,119L566,123Z" fill="rgb(192,103,64)" stroke="rgb(192,103,64)" stroke-width="1.51"></path><path d="M33,-107L-45,-107L-33,-30Z" fill="rgb(255,247,236)" stroke="rgb(255,247,236)" stroke-width="1.51"></path><path d="M561,494L633,424L561,429Z" fill="rgb(132,0,1)" stroke="rgb(132,0,1)" stroke-width="1.51"></path><path d="M639,119L639,43L566,48Z" fill="rgb(196,120,87)" stroke="rgb(196,120,87)" stroke-width="1.51"></path><path d="M565,-22L567,-100L482,-24Z" fill="rgb(225,139,113)" stroke="rgb(225,139,113)" stroke-width="1.51"></path><path d="M-45,-107L-109,-98L-33,-30Z" fill="rgb(255,247,236)" stroke="rgb(255,247,236)" stroke-width="1.51"></path><path d="M-111,-22L-109,-98L-119,124Z" fill="rgb(255,247,236)" stroke="rgb(255,247,236)" stroke-width="1.51"></path><path d="M637,-19L567,-100L565,-22Z" fill="rgb(204,132,111)" stroke="rgb(204,132,111)" stroke-width="1.51"></path><path d="M710,270L631,281L708,346Z" fill="rgb(170,26,17)" stroke="rgb(170,26,17)" stroke-width="1.51"></path><path d="M710,270L635,198L631,281Z" fill="rgb(182,56,36)" stroke="rgb(182,56,36)" stroke-width="1.51"></path><path d="M639,119L715,56L639,43Z" fill="rgb(196,120,86)" stroke="rgb(196,120,86)" stroke-width="1.51"></path><path d="M639,43L637,-19L566,48Z" fill="rgb(199,128,103)" stroke="rgb(199,128,103)" stroke-width="1.51"></path><path d="M709,-29L637,-19L639,43Z" fill="rgb(200,131,111)" stroke="rgb(200,131,111)" stroke-width="1.51"></path><path d="M708,346L631,281L638,350Z" fill="rgb(161,14,8)" stroke="rgb(161,14,8)" stroke-width="1.51"></path><path d="M709,424L708,346L638,350Z" fill="rgb(140,0,1)" stroke="rgb(140,0,1)" stroke-width="1.51"></path><path d="M561,494L638,496L633,424Z" fill="rgb(127,0,0)" stroke="rgb(127,0,0)" stroke-width="1.51"></path><path d="M484,503L638,496L561,494Z" fill="rgb(140,0,1)" stroke="rgb(140,0,1)" stroke-width="1.51"></path><path d="M709,424L638,350L633,424Z" fill="rgb(127,0,0)" stroke="rgb(127,0,0)" stroke-width="1.51"></path><path d="M710,270L711,128L707,205Z" fill="rgb(189,77,44)" stroke="rgb(189,77,44)" stroke-width="1.51"></path><path d="M707,205L711,128L635,198Z" fill="rgb(190,90,53)" stroke="rgb(190,90,53)" stroke-width="1.51"></path><path d="M638,496L709,424L633,424Z" fill="rgb(127,0,0)" stroke="rgb(127,0,0)" stroke-width="1.51"></path><path d="M708,346L709,424L710,270Z" fill="rgb(154,2,2)" stroke="rgb(154,2,2)" stroke-width="1.51"></path><path d="M710,270L715,56L711,128Z" fill="rgb(192,102,63)" stroke="rgb(192,102,63)" stroke-width="1.51"></path><path d="M637,-19L635,-104L567,-100Z" fill="rgb(200,131,111)" stroke="rgb(200,131,111)" stroke-width="1.51"></path><path d="M711,128L715,56L639,119Z" fill="rgb(194,115,75)" stroke="rgb(194,115,75)" stroke-width="1.51"></path><path d="M709,424L715,56L710,270Z" fill="rgb(182,56,36)" stroke="rgb(182,56,36)" stroke-width="1.51"></path><path d="M709,-29L635,-104L637,-19Z" fill="rgb(200,131,111)" stroke="rgb(200,131,111)" stroke-width="1.51"></path><path d="M567,-100L635,-104L481,-104Z" fill="rgb(216,136,112)" stroke="rgb(216,136,112)" stroke-width="1.51"></path><path d="M481,-104L635,-104L33,-107Z" fill="rgb(255,174,149)" stroke="rgb(255,174,149)" stroke-width="1.51"></path><path d="M191,506L706,502L484,503Z" fill="rgb(168,23,14)" stroke="rgb(168,23,14)" stroke-width="1.51"></path><path d="M484,503L706,502L638,496Z" fill="rgb(127,0,0)" stroke="rgb(127,0,0)" stroke-width="1.51"></path><path d="M638,496L706,502L709,424Z" fill="rgb(127,0,0)" stroke="rgb(127,0,0)" stroke-width="1.51"></path><path d="M715,56L709,-29L639,43Z" fill="rgb(199,128,103)" stroke="rgb(199,128,103)" stroke-width="1.51"></path><path d="M715,56L710,-101L709,-29Z" fill="rgb(200,131,111)" stroke="rgb(200,131,111)" stroke-width="1.51"></path><path d="M709,-29L710,-101L635,-104Z" fill="rgb(200,131,111)" stroke="rgb(200,131,111)" stroke-width="1.51"></path></svg>